<svg xmlns="http://www.w3.org/2000/svg" width="105" height="105" viewBox="0 0 105 105">
  <g id="Grupo_974716" data-name="Grupo 974716" transform="translate(-265 -3354)">
    <circle id="Elipse_5148" data-name="Elipse 5148" cx="52.5" cy="52.5" r="52.5" transform="translate(265 3354)" fill="#ad84ff"/>
    <g id="Grupo_973842" data-name="Grupo 973842" transform="translate(296 3375)">
      <path id="Trazado_704684" data-name="Trazado 704684" d="M141.262,65.946H111.077a5.143,5.143,0,0,1-5.143-5.143V59.238a5.142,5.142,0,0,1,1.416-3.544l17.226-18.11q6.891-7.847,6.891-12.468a8.676,8.676,0,0,0-1.633-5.7,5.834,5.834,0,0,0-4.741-1.952,5.9,5.9,0,0,0-4.979,2.609,9.4,9.4,0,0,0-1.434,2.933,5.1,5.1,0,0,1-4.92,3.58h-2.942a5.152,5.152,0,0,1-4.784-7.042,19.393,19.393,0,0,1,1.373-2.816,18.712,18.712,0,0,1,7.409-7.071,22.013,22.013,0,0,1,10.6-2.549q9.4,0,14.48,4.342t5.078,12.468a18.105,18.105,0,0,1-1.275,6.673,29.258,29.258,0,0,1-3.963,6.811,98.839,98.839,0,0,1-8.537,9.413c-.083.083-.165.172-.242.261l-6.063,7a.913.913,0,0,0,.69,1.511h15.682a5.143,5.143,0,0,1,5.143,5.142V60.8a5.143,5.143,0,0,1-5.143,5.143" transform="translate(-103.324 -3.082)" fill="#7125c8"/>
      <path id="Trazado_704688" data-name="Trazado 704688" d="M137.114,58.835H106.929a5.143,5.143,0,0,1-5.143-5.143V52.127a5.142,5.142,0,0,1,1.416-3.544l17.226-18.11q6.891-7.847,6.891-12.468a8.676,8.676,0,0,0-1.633-5.7,5.834,5.834,0,0,0-4.741-1.952,5.9,5.9,0,0,0-4.979,2.609,9.4,9.4,0,0,0-1.434,2.933,5.1,5.1,0,0,1-4.92,3.58H106.67a5.152,5.152,0,0,1-4.784-7.042A19.392,19.392,0,0,1,103.26,9.62a18.712,18.712,0,0,1,7.409-7.071A22.013,22.013,0,0,1,121.264,0q9.4,0,14.48,4.342t5.078,12.468a18.1,18.1,0,0,1-1.275,6.673,29.256,29.256,0,0,1-3.963,6.811,98.838,98.838,0,0,1-8.537,9.413c-.083.083-.165.172-.242.261l-6.063,7a.913.913,0,0,0,.69,1.511h15.682a5.143,5.143,0,0,1,5.143,5.142v.071a5.143,5.143,0,0,1-5.143,5.143" transform="translate(-101.526 0)" fill="#dee9f0" stroke="#ece3ff" stroke-width="1"/>
    </g>
  </g>
</svg>
