<svg xmlns="http://www.w3.org/2000/svg" xmlns:xlink="http://www.w3.org/1999/xlink" width="1070" height="526.458" viewBox="0 0 1070 526.458">
  <defs>
    <clipPath id="clip-path">
      <rect id="Rect치ngulo_339690" data-name="Rect치ngulo 339690" width="1070" height="526.458" fill="none"/>
    </clipPath>
    <clipPath id="clip-path-2">
      <rect id="Rect치ngulo_339689" data-name="Rect치ngulo 339689" width="336.758" height="338.931" fill="none"/>
    </clipPath>
  </defs>
  <g id="Grupo_973864" data-name="Grupo 973864" transform="translate(-265 -4053.16)">
    <g id="Grupo_973851" data-name="Grupo 973851" transform="translate(265 4053.16)">
      <g id="Grupo_973850" data-name="Grupo 973850" clip-path="url(#clip-path)">
        <path id="Trazado_704694" data-name="Trazado 704694" d="M466.194,148.9a175.4,175.4,0,0,0-38.9-56.173l10.737-11.062a190.737,190.737,0,0,1,42.3,61.087Z" transform="translate(231.416 44.228)" fill="#7125c8"/>
        <path id="Trazado_704695" data-name="Trazado 704695" d="M465.683,189.339a175.286,175.286,0,0,0-10.733-56.165l14.465-5.328a190.619,190.619,0,0,1,11.677,61.093Z" transform="translate(246.397 69.24)" fill="#0b428a"/>
        <path id="Trazado_704696" data-name="Trazado 704696" d="M469.369,235.45l-14.462-5.345a175.224,175.224,0,0,0,10.8-56.337l15.41.4a190.638,190.638,0,0,1-11.747,61.283" transform="translate(246.374 94.111)" fill="#cfb7ff"/>
        <path id="Trazado_704697" data-name="Trazado 704697" d="M437.9,283.588l-10.722-11.078a175.41,175.41,0,0,0,39.005-56.173l14.13,6.163A190.777,190.777,0,0,1,437.9,283.588" transform="translate(231.354 117.167)" fill="#25ffff"/>
        <path id="Trazado_704698" data-name="Trazado 704698" d="M347.809,304.644A182.925,182.925,0,0,0,464.691,262.66" transform="translate(188.37 142.254)" fill="none" stroke="#636363" stroke-miterlimit="10" stroke-width="0.5"/>
        <path id="Trazado_704699" data-name="Trazado 704699" d="M464.906,93.775a182.917,182.917,0,0,0-117.1-42.167" transform="translate(188.37 27.95)" fill="none" stroke="#636363" stroke-miterlimit="10" stroke-width="0.5"/>
        <path id="Trazado_704700" data-name="Trazado 704700" d="M508.828,276.876V218.337H483.915a204.457,204.457,0,0,1-34.636,58.539Z" transform="translate(243.326 118.249)" fill="#25ffff"/>
        <path id="Trazado_704701" data-name="Trazado 704701" d="M495.428,232.493V173.956H484.012a204.176,204.176,0,0,1-9.991,58.537Z" transform="translate(256.726 94.213)" fill="#cfb7ff"/>
        <path id="Trazado_704702" data-name="Trazado 704702" d="M495.428,188.113V129.574H474.021a204.2,204.2,0,0,1,9.991,58.539Z" transform="translate(256.726 70.176)" fill="#0b428a"/>
        <path id="Trazado_704703" data-name="Trazado 704703" d="M508.828,143.731V85.192H449.279a204.5,204.5,0,0,1,34.636,58.539Z" transform="translate(243.326 46.139)" fill="#7125c8"/>
        <path id="Trazado_704704" data-name="Trazado 704704" d="M736.131,116.826H508.607V0H736.131a58.414,58.414,0,0,1,58.414,58.412v0a58.414,58.414,0,0,1-58.414,58.412" transform="translate(275.457)" fill="#7125c8"/>
        <path id="Trazado_704705" data-name="Trazado 704705" d="M519.817,116.826l-31.909,73.045V131.332L519.817,0Z" transform="translate(264.246 0)" fill="#4d208e"/>
        <path id="Trazado_704706" data-name="Trazado 704706" d="M736.131,205.4H508.607V88.573H736.131a58.413,58.413,0,1,1,0,116.826" transform="translate(275.457 47.97)" fill="#0b428a"/>
        <path id="Trazado_704707" data-name="Trazado 704707" d="M519.817,205.4l-31.909,4.919V151.78l31.909-63.207Z" transform="translate(264.246 47.97)" fill="#0c3b6d"/>
        <path id="Trazado_704708" data-name="Trazado 704708" d="M736.131,293.973H508.607V177.147H736.131a58.414,58.414,0,0,1,58.414,58.412v0a58.414,58.414,0,0,1-58.414,58.412" transform="translate(275.457 95.941)" fill="#cfb7ff"/>
        <path id="Trazado_704709" data-name="Trazado 704709" d="M519.817,295.7l-31.909-63.207V173.956l31.909,4.919Z" transform="translate(264.246 94.213)" fill="#9a87c6"/>
        <path id="Trazado_704710" data-name="Trazado 704710" d="M736.131,382.546H508.607V265.72H736.131a58.414,58.414,0,0,1,58.414,58.412v0a58.414,58.414,0,0,1-58.414,58.412" transform="translate(275.457 143.912)" fill="#25ffff"/>
        <path id="Trazado_704711" data-name="Trazado 704711" d="M519.817,408.209,487.907,276.876V218.337l31.909,73.045Z" transform="translate(264.246 118.249)" fill="#28bcb8"/>
        <path id="Trazado_704712" data-name="Trazado 704712" d="M246.528,216.225a175.4,175.4,0,0,0,38.9,56.172L274.695,283.46a190.737,190.737,0,0,1-42.3-61.087Z" transform="translate(125.861 117.106)" fill="#7125c8"/>
        <path id="Trazado_704713" data-name="Trazado 704713" d="M237.59,173.767a175.286,175.286,0,0,0,10.733,56.165l-14.465,5.328a190.619,190.619,0,0,1-11.678-61.093Z" transform="translate(120.331 94.111)" fill="#0b428a"/>
        <path id="Trazado_704714" data-name="Trazado 704714" d="M233.928,127.723l14.462,5.345a175.226,175.226,0,0,0-10.8,56.337l-15.41-.4a190.641,190.641,0,0,1,11.748-61.283" transform="translate(120.331 69.174)" fill="#cfb7ff"/>
        <path id="Trazado_704715" data-name="Trazado 704715" d="M274.86,81.54l10.722,11.078a175.41,175.41,0,0,0-39.005,56.172l-14.13-6.163A190.776,190.776,0,0,1,274.86,81.54" transform="translate(125.891 44.161)" fill="#25ffff"/>
        <path id="Trazado_704716" data-name="Trazado 704716" d="M387.343,51.608A182.919,182.919,0,0,0,270.461,93.592" transform="translate(146.479 27.95)" fill="none" stroke="#636363" stroke-miterlimit="10" stroke-width="0.5"/>
        <path id="Trazado_704717" data-name="Trazado 704717" d="M270.321,262.542a182.917,182.917,0,0,0,117.1,42.167" transform="translate(146.404 142.19)" fill="none" stroke="#636363" stroke-miterlimit="10" stroke-width="0.5"/>
        <path id="Trazado_704718" data-name="Trazado 704718" d="M206.181,85.193v58.539h24.912A204.455,204.455,0,0,1,265.73,85.193Z" transform="translate(111.666 46.14)" fill="#25ffff"/>
        <path id="Trazado_704719" data-name="Trazado 704719" d="M206.181,129.574v58.539H217.6a204.2,204.2,0,0,1,9.991-58.539Z" transform="translate(111.666 70.176)" fill="#cfb7ff"/>
        <path id="Trazado_704720" data-name="Trazado 704720" d="M206.181,173.956v58.539h21.407a204.2,204.2,0,0,1-9.991-58.539Z" transform="translate(111.666 94.213)" fill="#0b428a"/>
        <path id="Trazado_704721" data-name="Trazado 704721" d="M206.181,218.337v58.539H265.73a204.5,204.5,0,0,1-34.637-58.539Z" transform="translate(111.666 118.249)" fill="#7125c8"/>
        <path id="Trazado_704722" data-name="Trazado 704722" d="M58.412,265.72H285.936V382.546H58.412A58.413,58.413,0,0,1,0,324.134v0A58.413,58.413,0,0,1,58.412,265.72" transform="translate(0 143.912)" fill="#7125c8"/>
        <path id="Trazado_704723" data-name="Trazado 704723" d="M185.482,291.382l31.909-73.045v58.539L185.482,408.209Z" transform="translate(100.455 118.249)" fill="#4d208e"/>
        <path id="Trazado_704724" data-name="Trazado 704724" d="M58.412,177.146H285.936V293.972H58.412a58.413,58.413,0,0,1,0-116.826" transform="translate(0 95.941)" fill="#0b428a"/>
        <path id="Trazado_704725" data-name="Trazado 704725" d="M185.482,178.875l31.909-4.919v58.539L185.482,295.7Z" transform="translate(100.455 94.213)" fill="#0c3b6d"/>
        <path id="Trazado_704726" data-name="Trazado 704726" d="M58.412,88.573H285.936V205.4H58.412A58.413,58.413,0,0,1,0,146.987v0A58.413,58.413,0,0,1,58.412,88.573" transform="translate(0 47.97)" fill="#cfb7ff"/>
        <path id="Trazado_704727" data-name="Trazado 704727" d="M185.482,88.573l31.909,63.207v58.539L185.482,205.4Z" transform="translate(100.455 47.97)" fill="#9a87c6"/>
        <path id="Trazado_704728" data-name="Trazado 704728" d="M58.412,0H285.936V116.826H58.412A58.413,58.413,0,0,1,0,58.414v0A58.413,58.413,0,0,1,58.412,0" fill="#25ffff"/>
        <path id="Trazado_704729" data-name="Trazado 704729" d="M185.482,0l31.909,131.333v58.539l-31.909-73.045Z" transform="translate(100.455 0)" fill="#28bcb8"/>
        <g id="Grupo_973849" data-name="Grupo 973849" transform="translate(368.234 93.491)" style="isolation: isolate">
          <g id="Grupo_973848" data-name="Grupo 973848">
            <g id="Grupo_973847" data-name="Grupo 973847" clip-path="url(#clip-path-2)">
              <path id="Trazado_704730" data-name="Trazado 704730" d="M575.623,230.112c0,93.593-75.385,169.466-168.379,169.466S238.867,323.7,238.867,230.112,314.252,60.646,407.244,60.646s168.379,75.872,168.379,169.466" transform="translate(-238.865 -60.646)" fill="#d3e7f7"/>
            </g>
          </g>
        </g>
        <path id="Trazado_704731" data-name="Trazado 704731" d="M565.926,227.574c0,89.6-72.173,162.243-161.2,162.243s-161.2-72.638-161.2-162.243,72.173-162.243,161.2-162.243,161.2,72.638,161.2,162.243" transform="translate(131.889 35.383)" fill="#ecf5fc"/>
      </g>
    </g>
    <path id="Trazado_706788" data-name="Trazado 706788" d="M70.8,30H65.352V20.5H57.273V30H51.789V7.25h5.484v9.031h8.078V7.25H70.8Zm11.406.313a8.691,8.691,0,0,1-6.3-2.32,8.013,8.013,0,0,1-2.406-6.039v-.437a10.383,10.383,0,0,1,.961-4.578,7.031,7.031,0,0,1,2.8-3.07,8.467,8.467,0,0,1,4.375-1.086,7.318,7.318,0,0,1,5.625,2.211,8.688,8.688,0,0,1,2.063,6.164V23.2H78.867A3.8,3.8,0,0,0,80.1,25.438a3.673,3.673,0,0,0,2.469.813,4.732,4.732,0,0,0,3.906-1.75l2.406,2.844a6.726,6.726,0,0,1-2.789,2.164A9.425,9.425,0,0,1,82.211,30.313Zm-.594-13.469q-2.312,0-2.75,3.063H84.18V19.5a2.608,2.608,0,0,0-.641-1.961A2.549,2.549,0,0,0,81.617,16.844Zm20.063,1.016-1.734-.125q-2.484,0-3.187,1.563V30H91.492V13.094H96.43l.172,2.172a4.077,4.077,0,0,1,3.7-2.484,5.135,5.135,0,0,1,1.469.188Zm12.125,0-1.734-.125q-2.484,0-3.187,1.563V30h-5.266V13.094h4.938l.172,2.172a4.077,4.077,0,0,1,3.7-2.484,5.135,5.135,0,0,1,1.469.188ZM124.758,30a5.946,5.946,0,0,1-.5-1.516,4.9,4.9,0,0,1-4.062,1.828,6,6,0,0,1-4.062-1.445,4.6,4.6,0,0,1-1.672-3.633,4.728,4.728,0,0,1,2.031-4.156,10.348,10.348,0,0,1,5.906-1.406h1.625v-.9q0-2.339-2.016-2.339a1.648,1.648,0,0,0-1.875,1.853h-5.266a4.72,4.72,0,0,1,2.086-3.98,8.766,8.766,0,0,1,5.32-1.529,7.686,7.686,0,0,1,5.109,1.578,5.487,5.487,0,0,1,1.922,4.328v7.484a7.665,7.665,0,0,0,.719,3.563V30Zm-3.3-3.437a2.937,2.937,0,0,0,1.633-.422,2.644,2.644,0,0,0,.93-.953v-2.7h-1.531q-2.75,0-2.75,2.469a1.507,1.507,0,0,0,.484,1.164A1.753,1.753,0,0,0,121.461,26.563ZM137.2,13.094l.172,1.984a5.813,5.813,0,0,1,4.828-2.3,4.279,4.279,0,0,1,4.328,2.547,5.626,5.626,0,0,1,4.969-2.547q5.141,0,5.281,6.219V30h-5.281V19.328a3.223,3.223,0,0,0-.437-1.891,1.862,1.862,0,0,0-1.594-.594,2.5,2.5,0,0,0-2.328,1.391l.016.219V30h-5.281V19.359a3.388,3.388,0,0,0-.422-1.922,1.857,1.857,0,0,0-1.609-.594,2.525,2.525,0,0,0-2.312,1.391V30h-5.266V13.094ZM165.336,30h-5.281V13.094h5.281ZM159.742,8.734a2.35,2.35,0,0,1,.813-1.844,3.455,3.455,0,0,1,4.219,0,2.35,2.35,0,0,1,.813,1.844,2.35,2.35,0,0,1-.812,1.844,3.455,3.455,0,0,1-4.219,0A2.35,2.35,0,0,1,159.742,8.734Zm17.016,21.578a8.691,8.691,0,0,1-6.3-2.32,8.013,8.013,0,0,1-2.406-6.039v-.437a10.383,10.383,0,0,1,.961-4.578,7.031,7.031,0,0,1,2.8-3.07,8.467,8.467,0,0,1,4.375-1.086,7.318,7.318,0,0,1,5.625,2.211,8.688,8.688,0,0,1,2.063,6.164V23.2H173.414a3.8,3.8,0,0,0,1.234,2.234,3.673,3.673,0,0,0,2.469.813,4.732,4.732,0,0,0,3.906-1.75l2.406,2.844a6.726,6.726,0,0,1-2.789,2.164A9.425,9.425,0,0,1,176.758,30.313Zm-.594-13.469q-2.313,0-2.75,3.063h5.313V19.5a2.608,2.608,0,0,0-.641-1.961A2.549,2.549,0,0,0,176.164,16.844Zm14.672-3.75.172,1.984a5.733,5.733,0,0,1,4.828-2.3,4.823,4.823,0,0,1,3.945,1.578,7.513,7.513,0,0,1,1.352,4.75V30h-5.281V19.328a2.853,2.853,0,0,0-.516-1.883,2.385,2.385,0,0,0-1.875-.6,2.511,2.511,0,0,0-2.3,1.219V30H185.9V13.094Zm19.344-4.2v4.2h2.781V16.75H210.18v7.734a1.975,1.975,0,0,0,.344,1.328,1.844,1.844,0,0,0,1.359.375,7.725,7.725,0,0,0,1.313-.094v3.766a9.718,9.718,0,0,1-2.969.453,5.516,5.516,0,0,1-4.016-1.281,5.252,5.252,0,0,1-1.3-3.891V16.75h-2.156V13.094h2.156v-4.2ZM224.555,30a5.945,5.945,0,0,1-.5-1.516,4.9,4.9,0,0,1-4.062,1.828,6,6,0,0,1-4.062-1.445,4.6,4.6,0,0,1-1.672-3.633,4.728,4.728,0,0,1,2.031-4.156,10.348,10.348,0,0,1,5.906-1.406h1.625v-.9q0-2.339-2.016-2.339a1.648,1.648,0,0,0-1.875,1.853h-5.266a4.72,4.72,0,0,1,2.086-3.98,8.766,8.766,0,0,1,5.32-1.529,7.686,7.686,0,0,1,5.109,1.578,5.487,5.487,0,0,1,1.922,4.328v7.484a7.665,7.665,0,0,0,.719,3.563V30Zm-3.3-3.437a2.937,2.937,0,0,0,1.633-.422,2.644,2.644,0,0,0,.93-.953v-2.7h-1.531q-2.75,0-2.75,2.469a1.507,1.507,0,0,0,.484,1.164A1.753,1.753,0,0,0,221.258,26.563Zm19.609-1.312a1.216,1.216,0,0,0-.7-1.078,10.7,10.7,0,0,0-2.672-.844,12.184,12.184,0,0,1-3.25-1.148,5.444,5.444,0,0,1-1.953-1.727,4.123,4.123,0,0,1-.672-2.328,4.673,4.673,0,0,1,1.922-3.836,7.917,7.917,0,0,1,5.031-1.508,8.771,8.771,0,0,1,5.375,1.516,4.74,4.74,0,0,1,2.031,3.984H240.7q0-2.031-2.141-2.031a2.122,2.122,0,0,0-1.391.461,1.427,1.427,0,0,0-.562,1.148A1.31,1.31,0,0,0,237.289,19a6.5,6.5,0,0,0,2.2.719,18.971,18.971,0,0,1,2.648.672q3.813,1.313,3.813,4.7a4.428,4.428,0,0,1-2.055,3.766,9.01,9.01,0,0,1-5.32,1.453,9.2,9.2,0,0,1-3.875-.781,6.48,6.48,0,0,1-2.656-2.125,4.812,4.812,0,0,1-.953-2.828h4.922a2.035,2.035,0,0,0,.781,1.711,3.214,3.214,0,0,0,1.922.539,2.528,2.528,0,0,0,1.617-.437A1.4,1.4,0,0,0,240.867,25.25ZM32.234,76H26.953V59.094h5.281ZM26.641,54.734a2.35,2.35,0,0,1,.813-1.844,3.455,3.455,0,0,1,4.219,0,2.5,2.5,0,0,1,0,3.688,3.455,3.455,0,0,1-4.219,0A2.35,2.35,0,0,1,26.641,54.734Zm13.672,4.359.172,1.984a5.733,5.733,0,0,1,4.828-2.3,4.823,4.823,0,0,1,3.945,1.578,7.513,7.513,0,0,1,1.352,4.75V76H45.328V65.328a2.853,2.853,0,0,0-.516-1.883,2.385,2.385,0,0,0-1.875-.6,2.511,2.511,0,0,0-2.3,1.219V76H35.375V59.094ZM54.688,76V62.75H52.234V59.094h2.453V57.75a5.841,5.841,0,0,1,1.7-4.484,6.729,6.729,0,0,1,4.781-1.594A10.47,10.47,0,0,1,63.641,52l.016,3.875a4.81,4.81,0,0,0-1.3-.141q-2.391,0-2.391,2.063v1.3h3.3V62.75h-3.3V76Zm9.766-8.609a9.978,9.978,0,0,1,.984-4.508,7.04,7.04,0,0,1,2.828-3.039,8.518,8.518,0,0,1,4.328-1.062,7.774,7.774,0,0,1,5.984,2.352,9.024,9.024,0,0,1,2.188,6.4v.188a8.755,8.755,0,0,1-2.2,6.273,7.794,7.794,0,0,1-5.945,2.32,7.883,7.883,0,0,1-5.8-2.164,8.464,8.464,0,0,1-2.359-5.867Zm5.266.328a6.291,6.291,0,0,0,.734,3.438,2.447,2.447,0,0,0,2.172,1.094q2.813,0,2.875-4.328v-.531q0-4.547-2.906-4.547-2.641,0-2.859,3.922Zm23.594-3.859-1.734-.125q-2.484,0-3.187,1.563V76H83.125V59.094h4.938l.172,2.172a4.077,4.077,0,0,1,3.7-2.484,5.135,5.135,0,0,1,1.469.188Zm6.875-4.766.172,1.984a5.813,5.813,0,0,1,4.828-2.3,4.279,4.279,0,0,1,4.328,2.547,5.626,5.626,0,0,1,4.969-2.547q5.141,0,5.281,6.219V76h-5.281V65.328a3.223,3.223,0,0,0-.437-1.891,1.862,1.862,0,0,0-1.594-.594,2.5,2.5,0,0,0-2.328,1.391l.016.219V76h-5.281V65.359a3.388,3.388,0,0,0-.422-1.922,1.857,1.857,0,0,0-1.609-.594,2.525,2.525,0,0,0-2.312,1.391V76H95.25V59.094ZM132.3,76a5.945,5.945,0,0,1-.5-1.516,4.9,4.9,0,0,1-4.062,1.828,6,6,0,0,1-4.062-1.445A4.6,4.6,0,0,1,122,71.234a4.728,4.728,0,0,1,2.031-4.156,10.348,10.348,0,0,1,5.906-1.406h1.625v-.9q0-2.339-2.016-2.339a1.648,1.648,0,0,0-1.875,1.853h-5.266a4.72,4.72,0,0,1,2.086-3.98,8.766,8.766,0,0,1,5.32-1.529,7.686,7.686,0,0,1,5.109,1.578,5.487,5.487,0,0,1,1.922,4.328v7.484a7.665,7.665,0,0,0,.719,3.563V76ZM129,72.563a2.937,2.937,0,0,0,1.633-.422,2.644,2.644,0,0,0,.93-.953v-2.7h-1.531q-2.75,0-2.75,2.469a1.507,1.507,0,0,0,.484,1.164A1.753,1.753,0,0,0,129,72.563ZM130.313,52h5.563l-4.344,4.906-4.3-.008Zm15.578,2.891v4.2h2.781V62.75h-2.781v7.734a1.975,1.975,0,0,0,.344,1.328,1.844,1.844,0,0,0,1.359.375,7.725,7.725,0,0,0,1.313-.094v3.766a9.718,9.718,0,0,1-2.969.453,5.516,5.516,0,0,1-4.016-1.281,5.252,5.252,0,0,1-1.3-3.891V62.75h-2.156V59.094h2.156v-4.2ZM156.3,76h-5.281V59.094H156.3ZM150.7,54.734a2.35,2.35,0,0,1,.813-1.844,3.455,3.455,0,0,1,4.219,0,2.5,2.5,0,0,1,0,3.688,3.455,3.455,0,0,1-4.219,0A2.35,2.35,0,0,1,150.7,54.734ZM166.688,72.25a2.342,2.342,0,0,0,1.719-.6,2.206,2.206,0,0,0,.594-1.68h4.938a5.845,5.845,0,0,1-1.992,4.563,7.41,7.41,0,0,1-5.133,1.781A7.5,7.5,0,0,1,161,74a9.112,9.112,0,0,1-2.125-6.406v-.219a10.3,10.3,0,0,1,.945-4.523,6.883,6.883,0,0,1,2.727-3.016,8.13,8.13,0,0,1,4.219-1.055A7.317,7.317,0,0,1,172,60.609a6.484,6.484,0,0,1,1.938,4.953H169a2.89,2.89,0,0,0-.641-2.016,2.211,2.211,0,0,0-1.719-.7q-2.047,0-2.391,2.609a18.411,18.411,0,0,0-.109,2.281,7.232,7.232,0,0,0,.609,3.531A2.11,2.11,0,0,0,166.688,72.25Zm19,3.75a5.945,5.945,0,0,1-.5-1.516,4.9,4.9,0,0,1-4.062,1.828,6,6,0,0,1-4.062-1.445,4.6,4.6,0,0,1-1.672-3.633,4.728,4.728,0,0,1,2.031-4.156,10.348,10.348,0,0,1,5.906-1.406h1.625v-.9q0-2.339-2.016-2.339a1.648,1.648,0,0,0-1.875,1.853H175.8a4.72,4.72,0,0,1,2.086-3.98,8.766,8.766,0,0,1,5.32-1.529,7.686,7.686,0,0,1,5.109,1.578,5.487,5.487,0,0,1,1.922,4.328v7.484a7.665,7.665,0,0,0,.719,3.563V76Zm-3.3-3.437a2.937,2.937,0,0,0,1.633-.422,2.644,2.644,0,0,0,.93-.953v-2.7h-1.531q-2.75,0-2.75,2.469a1.507,1.507,0,0,0,.484,1.164A1.753,1.753,0,0,0,182.391,72.563ZM202,71.25a1.216,1.216,0,0,0-.7-1.078,10.7,10.7,0,0,0-2.672-.844,12.184,12.184,0,0,1-3.25-1.148,5.444,5.444,0,0,1-1.953-1.727,4.123,4.123,0,0,1-.672-2.328,4.673,4.673,0,0,1,1.922-3.836,7.917,7.917,0,0,1,5.031-1.508,8.771,8.771,0,0,1,5.375,1.516,4.74,4.74,0,0,1,2.031,3.984h-5.281q0-2.031-2.141-2.031a2.122,2.122,0,0,0-1.391.461,1.427,1.427,0,0,0-.562,1.148A1.31,1.31,0,0,0,198.422,65a6.5,6.5,0,0,0,2.2.719,18.972,18.972,0,0,1,2.648.672q3.813,1.313,3.813,4.7a4.428,4.428,0,0,1-2.055,3.766,9.01,9.01,0,0,1-5.32,1.453,9.2,9.2,0,0,1-3.875-.781,6.48,6.48,0,0,1-2.656-2.125,4.812,4.812,0,0,1-.953-2.828h4.922a2.035,2.035,0,0,0,.781,1.711,3.214,3.214,0,0,0,1.922.539,2.528,2.528,0,0,0,1.617-.437A1.4,1.4,0,0,0,202,71.25Zm21.641-16.359v4.2h2.781V62.75h-2.781v7.734a1.975,1.975,0,0,0,.344,1.328,1.844,1.844,0,0,0,1.359.375,7.725,7.725,0,0,0,1.313-.094v3.766a9.718,9.718,0,0,1-2.969.453,5.516,5.516,0,0,1-4.016-1.281,5.252,5.252,0,0,1-1.3-3.891V62.75h-2.156V59.094h2.156v-4.2ZM234.047,76h-5.281V59.094h5.281Zm-5.594-21.266a2.35,2.35,0,0,1,.813-1.844,3.455,3.455,0,0,1,4.219,0,2.5,2.5,0,0,1,0,3.688,3.455,3.455,0,0,1-4.219,0A2.35,2.35,0,0,1,228.453,54.734Zm24.531,12.938a10.2,10.2,0,0,1-1.773,6.289,5.686,5.686,0,0,1-4.789,2.352,4.874,4.874,0,0,1-3.828-1.7V82.5h-5.266V59.094h4.922l.156,1.563a4.874,4.874,0,0,1,3.984-1.875,5.732,5.732,0,0,1,4.859,2.3,10.321,10.321,0,0,1,1.734,6.336Zm-5.266-.328q0-4.5-2.625-4.5a2.478,2.478,0,0,0-2.5,1.344v6.656a2.559,2.559,0,0,0,2.531,1.406q2.516,0,2.594-4.344Zm6.922.047a9.978,9.978,0,0,1,.984-4.508,7.04,7.04,0,0,1,2.828-3.039,8.517,8.517,0,0,1,4.328-1.062,7.774,7.774,0,0,1,5.984,2.352,9.023,9.023,0,0,1,2.188,6.4v.188a8.755,8.755,0,0,1-2.2,6.273,7.794,7.794,0,0,1-5.945,2.32,7.883,7.883,0,0,1-5.8-2.164,8.464,8.464,0,0,1-2.359-5.867Zm5.266.328a6.29,6.29,0,0,0,.734,3.438,2.447,2.447,0,0,0,2.172,1.094q2.813,0,2.875-4.328v-.531q0-4.547-2.906-4.547-2.641,0-2.859,3.922ZM62.117,117.234q.25-1.25-1.734-1.812l-1.422-.359q-5.047-1.391-4.906-4.906a4.855,4.855,0,0,1,2.117-3.9,7.884,7.884,0,0,1,4.914-1.477,7.072,7.072,0,0,1,4.625,1.516,4.993,4.993,0,0,1,1.8,3.953l-4.375-.016a1.927,1.927,0,0,0-2.156-2.2,3.1,3.1,0,0,0-1.789.516,2.123,2.123,0,0,0-.93,1.391q-.234,1.25,1.891,1.766l.625.141a12.57,12.57,0,0,1,3.3,1.18,4.976,4.976,0,0,1,1.758,1.648,4.08,4.08,0,0,1,.57,2.359,4.5,4.5,0,0,1-1.039,2.813,6.36,6.36,0,0,1-2.719,1.859,9.471,9.471,0,0,1-3.633.609A7.137,7.137,0,0,1,54.32,120.7a5.214,5.214,0,0,1-1.906-4.1l4.156.031a2.285,2.285,0,0,0,2.594,2.453,3.69,3.69,0,0,0,2.008-.5A1.975,1.975,0,0,0,62.117,117.234ZM78.1,104.781a6.781,6.781,0,0,1,3.852,1.148,6.468,6.468,0,0,1,2.375,3.078,9.523,9.523,0,0,1,.539,4.352,10.287,10.287,0,0,1-2.8,6.523,7.92,7.92,0,0,1-6.039,2.43,6.76,6.76,0,0,1-3.812-1.133,6.443,6.443,0,0,1-2.375-3.055,9.313,9.313,0,0,1-.547-4.312,10.59,10.59,0,0,1,2.844-6.656A7.756,7.756,0,0,1,78.1,104.781Zm-4.453,10.63a3.9,3.9,0,0,0,.7,2.364,2.337,2.337,0,0,0,1.891.9,3.425,3.425,0,0,0,3.188-1.864,9.293,9.293,0,0,0,1.078-5.063,4.243,4.243,0,0,0-.727-2.395,2.3,2.3,0,0,0-1.9-.928,3.429,3.429,0,0,0-3.148,1.849A9.2,9.2,0,0,0,73.648,115.411ZM87.32,122l2.359-13.609H87.242l.578-3.3,2.438-.016.219-1.687a6.362,6.362,0,0,1,6.781-5.75,14.659,14.659,0,0,1,2.391.327l-.391,3.5a5.464,5.464,0,0,0-1.3-.187,3.23,3.23,0,0,0-2.008.6,2.71,2.71,0,0,0-1.039,1.836l-.234,1.381h3.266l-.578,3.3h-3.25L91.758,122Zm19.031-21.062-.734,4.156h2.813l-.578,3.313h-2.812l-1.437,8.469a2.153,2.153,0,0,0,.125,1.219q.219.422,1.063.453.25.016,1.344-.078l-.312,3.453a7.411,7.411,0,0,1-2.531.359,3.971,3.971,0,0,1-3.234-1.359,4.911,4.911,0,0,1-.875-3.594l1.453-8.922H98.242l.578-3.312h2.391l.719-4.156Zm16.969,14.906,4.016-10.75h4.391L124.617,122H120.93l-1.25-10.578L114.742,122h-3.687l-1.25-16.906h4.125l.266,10.641,4.828-10.641h3.188ZM140.8,122a4.561,4.561,0,0,1-.172-1.531,5.726,5.726,0,0,1-4.312,1.844,5.189,5.189,0,0,1-3.68-1.445,4.373,4.373,0,0,1-1.367-3.492,5.055,5.055,0,0,1,2.32-4.242,10.532,10.532,0,0,1,5.93-1.477l2.063.031.219-1.016a3.528,3.528,0,0,0,.047-.984,1.692,1.692,0,0,0-.555-1.148,1.911,1.911,0,0,0-1.258-.43,2.691,2.691,0,0,0-1.75.508,2.461,2.461,0,0,0-.922,1.555l-4.422.016a4.914,4.914,0,0,1,2.227-3.93,8.623,8.623,0,0,1,5.227-1.477,6.234,6.234,0,0,1,4.5,1.711,5.005,5.005,0,0,1,1.359,4.242l-1.3,8.094-.078,1a4.824,4.824,0,0,0,.266,1.875l-.016.3Zm-3.391-3.109a4.035,4.035,0,0,0,3.328-1.656l.547-2.922-1.531-.016a4.278,4.278,0,0,0-3.516,1.484,2.584,2.584,0,0,0-.484,1.266,1.5,1.5,0,0,0,.352,1.336A1.781,1.781,0,0,0,137.414,118.891Zm21.984-9.562a9.1,9.1,0,0,0-1.484-.156,4.271,4.271,0,0,0-3.734,1.766L152.227,122H147.82l2.938-16.906,4.141-.016-.406,2.063a4.649,4.649,0,0,1,3.938-2.391,6.427,6.427,0,0,1,1.531.219Zm7.641,12.984a7.355,7.355,0,0,1-3.93-1.086,6.584,6.584,0,0,1-2.555-2.937,8.187,8.187,0,0,1-.656-4.117l.047-.625a10.93,10.93,0,0,1,1.438-4.531,8.682,8.682,0,0,1,3.094-3.18,7.654,7.654,0,0,1,4.188-1.055,5.849,5.849,0,0,1,4.945,2.4,8.234,8.234,0,0,1,1.273,5.923l-.25,1.925H164.273a3.628,3.628,0,0,0,.8,2.625,3.041,3.041,0,0,0,2.344,1.016,5.406,5.406,0,0,0,4.219-1.875l2.016,2.5a6.27,6.27,0,0,1-2.75,2.242A8.993,8.993,0,0,1,167.039,122.313Zm1.406-13.891a3.131,3.131,0,0,0-2.164.766,6.726,6.726,0,0,0-1.7,2.766h6.063l.094-.406a4.142,4.142,0,0,0,.016-1.187,2.268,2.268,0,0,0-.766-1.414A2.4,2.4,0,0,0,168.445,108.422Zm21.8-3.328.172,1.984a5.813,5.813,0,0,1,4.828-2.3,4.279,4.279,0,0,1,4.328,2.547,5.626,5.626,0,0,1,4.969-2.547q5.141,0,5.281,6.219v11h-5.281V111.328a3.223,3.223,0,0,0-.437-1.891,1.862,1.862,0,0,0-1.594-.594,2.5,2.5,0,0,0-2.328,1.391l.016.219V122h-5.281V111.359a3.388,3.388,0,0,0-.422-1.922,1.857,1.857,0,0,0-1.609-.594,2.525,2.525,0,0,0-2.312,1.391V122H185.3V105.094ZM222.352,122a5.945,5.945,0,0,1-.5-1.516,4.9,4.9,0,0,1-4.062,1.828,6,6,0,0,1-4.062-1.445,4.6,4.6,0,0,1-1.672-3.633,4.728,4.728,0,0,1,2.031-4.156,10.348,10.348,0,0,1,5.906-1.406h1.625v-.9q0-2.339-2.016-2.339a1.648,1.648,0,0,0-1.875,1.853h-5.266a4.72,4.72,0,0,1,2.086-3.98,8.766,8.766,0,0,1,5.32-1.529,7.686,7.686,0,0,1,5.109,1.578,5.487,5.487,0,0,1,1.922,4.328v7.484a7.665,7.665,0,0,0,.719,3.563V122Zm-3.3-3.437a2.937,2.937,0,0,0,1.633-.422,2.644,2.644,0,0,0,.93-.953v-2.7h-1.531q-2.75,0-2.75,2.469a1.507,1.507,0,0,0,.484,1.164A1.753,1.753,0,0,0,219.055,118.563ZM220.367,98h5.563l-4.344,4.906-4.3-.008Zm18.3,19.25a1.216,1.216,0,0,0-.7-1.078,10.7,10.7,0,0,0-2.672-.844,12.184,12.184,0,0,1-3.25-1.148,5.444,5.444,0,0,1-1.953-1.727,4.123,4.123,0,0,1-.672-2.328,4.673,4.673,0,0,1,1.922-3.836,7.917,7.917,0,0,1,5.031-1.508,8.771,8.771,0,0,1,5.375,1.516,4.74,4.74,0,0,1,2.031,3.984h-5.281q0-2.031-2.141-2.031a2.122,2.122,0,0,0-1.391.461,1.427,1.427,0,0,0-.562,1.148,1.31,1.31,0,0,0,.688,1.141,6.5,6.5,0,0,0,2.2.719,18.972,18.972,0,0,1,2.648.672q3.813,1.313,3.813,4.7a4.428,4.428,0,0,1-2.055,3.766,9.01,9.01,0,0,1-5.32,1.453,9.2,9.2,0,0,1-3.875-.781,6.48,6.48,0,0,1-2.656-2.125,4.812,4.812,0,0,1-.953-2.828H233.8a2.035,2.035,0,0,0,.781,1.711,3.214,3.214,0,0,0,1.922.539,2.528,2.528,0,0,0,1.617-.437A1.4,1.4,0,0,0,238.664,117.25Zm-160.078,47a2.342,2.342,0,0,0,1.719-.6,2.206,2.206,0,0,0,.594-1.68h4.938a5.845,5.845,0,0,1-1.992,4.563,7.41,7.41,0,0,1-5.133,1.781A7.5,7.5,0,0,1,72.9,166a9.112,9.112,0,0,1-2.125-6.406v-.219a10.3,10.3,0,0,1,.945-4.523,6.883,6.883,0,0,1,2.727-3.016,8.13,8.13,0,0,1,4.219-1.055,7.317,7.317,0,0,1,5.234,1.828,6.484,6.484,0,0,1,1.938,4.953H80.9a2.89,2.89,0,0,0-.641-2.016,2.211,2.211,0,0,0-1.719-.7q-2.047,0-2.391,2.609a18.413,18.413,0,0,0-.109,2.281,7.232,7.232,0,0,0,.609,3.531A2.11,2.11,0,0,0,78.586,164.25Zm8.813-4.859a9.978,9.978,0,0,1,.984-4.508,7.04,7.04,0,0,1,2.828-3.039,8.518,8.518,0,0,1,4.328-1.062,7.774,7.774,0,0,1,5.984,2.352,9.023,9.023,0,0,1,2.188,6.4v.188a8.755,8.755,0,0,1-2.2,6.273,7.794,7.794,0,0,1-5.945,2.32,7.883,7.883,0,0,1-5.8-2.164,8.464,8.464,0,0,1-2.359-5.867Zm5.266.328a6.291,6.291,0,0,0,.734,3.438,2.447,2.447,0,0,0,2.172,1.094q2.813,0,2.875-4.328v-.531q0-4.547-2.906-4.547-2.641,0-2.859,3.922Zm18.2-8.625.172,1.984a5.733,5.733,0,0,1,4.828-2.3,4.823,4.823,0,0,1,3.945,1.578,7.513,7.513,0,0,1,1.352,4.75V168h-5.281V157.328a2.853,2.853,0,0,0-.516-1.883,2.385,2.385,0,0,0-1.875-.6,2.511,2.511,0,0,0-2.3,1.219V168H105.93V151.094Zm12.547,8.3a9.978,9.978,0,0,1,.984-4.508,7.04,7.04,0,0,1,2.828-3.039,8.518,8.518,0,0,1,4.328-1.062,7.774,7.774,0,0,1,5.984,2.352,9.024,9.024,0,0,1,2.188,6.4v.188a8.755,8.755,0,0,1-2.2,6.273,7.794,7.794,0,0,1-5.945,2.32,7.883,7.883,0,0,1-5.8-2.164,8.464,8.464,0,0,1-2.359-5.867Zm5.266.328a6.291,6.291,0,0,0,.734,3.438,2.447,2.447,0,0,0,2.172,1.094q2.813,0,2.875-4.328v-.531q0-4.547-2.906-4.547-2.641,0-2.859,3.922ZM149.2,164.25a2.342,2.342,0,0,0,1.719-.6,2.206,2.206,0,0,0,.594-1.68h4.938a5.845,5.845,0,0,1-1.992,4.563,7.41,7.41,0,0,1-5.133,1.781A7.5,7.5,0,0,1,143.508,166a9.112,9.112,0,0,1-2.125-6.406v-.219a10.3,10.3,0,0,1,.945-4.523,6.883,6.883,0,0,1,2.727-3.016,8.13,8.13,0,0,1,4.219-1.055,7.317,7.317,0,0,1,5.234,1.828,6.484,6.484,0,0,1,1.938,4.953h-4.937a2.89,2.89,0,0,0-.641-2.016,2.211,2.211,0,0,0-1.719-.7q-2.047,0-2.391,2.609a18.411,18.411,0,0,0-.109,2.281,7.232,7.232,0,0,0,.609,3.531A2.11,2.11,0,0,0,149.2,164.25ZM164.227,168h-5.281V151.094h5.281Zm-5.594-21.266a2.35,2.35,0,0,1,.813-1.844,3.455,3.455,0,0,1,4.219,0,2.5,2.5,0,0,1,0,3.688,3.455,3.455,0,0,1-4.219,0A2.35,2.35,0,0,1,158.633,146.734Zm8.172,12.688a10.327,10.327,0,0,1,1.734-6.328,5.709,5.709,0,0,1,4.844-2.312,4.855,4.855,0,0,1,3.813,1.781V144h5.281v24h-4.734l-.266-1.812a4.986,4.986,0,0,1-4.125,2.125A5.7,5.7,0,0,1,168.57,166,10.655,10.655,0,0,1,166.8,159.422Zm5.266.328q0,4.5,2.625,4.5a2.592,2.592,0,0,0,2.5-1.469v-6.437a2.522,2.522,0,0,0-2.469-1.5q-2.437,0-2.641,3.938ZM194.992,168a5.945,5.945,0,0,1-.5-1.516,4.9,4.9,0,0,1-4.062,1.828,6,6,0,0,1-4.062-1.445,4.6,4.6,0,0,1-1.672-3.633,4.728,4.728,0,0,1,2.031-4.156,10.348,10.348,0,0,1,5.906-1.406h1.625v-.9q0-2.339-2.016-2.339a1.648,1.648,0,0,0-1.875,1.853H185.1a4.72,4.72,0,0,1,2.086-3.98,8.766,8.766,0,0,1,5.32-1.529,7.686,7.686,0,0,1,5.109,1.578,5.487,5.487,0,0,1,1.922,4.328v7.484a7.665,7.665,0,0,0,.719,3.563V168Zm-3.3-3.437a2.937,2.937,0,0,0,1.633-.422,2.644,2.644,0,0,0,.93-.953v-2.7h-1.531q-2.75,0-2.75,2.469a1.507,1.507,0,0,0,.484,1.164A1.753,1.753,0,0,0,191.7,164.563ZM211.3,163.25a1.216,1.216,0,0,0-.7-1.078,10.7,10.7,0,0,0-2.672-.844,12.184,12.184,0,0,1-3.25-1.148,5.444,5.444,0,0,1-1.953-1.727,4.123,4.123,0,0,1-.672-2.328,4.673,4.673,0,0,1,1.922-3.836,7.917,7.917,0,0,1,5.031-1.508,8.771,8.771,0,0,1,5.375,1.516,4.74,4.74,0,0,1,2.031,3.984h-5.281q0-2.031-2.141-2.031a2.122,2.122,0,0,0-1.391.461,1.427,1.427,0,0,0-.562,1.148,1.31,1.31,0,0,0,.688,1.141,6.5,6.5,0,0,0,2.2.719,18.971,18.971,0,0,1,2.648.672q3.813,1.313,3.813,4.7a4.428,4.428,0,0,1-2.055,3.766,9.01,9.01,0,0,1-5.32,1.453,9.2,9.2,0,0,1-3.875-.781,6.48,6.48,0,0,1-2.656-2.125,4.812,4.812,0,0,1-.953-2.828h4.922a2.035,2.035,0,0,0,.781,1.711,3.214,3.214,0,0,0,1.922.539,2.528,2.528,0,0,0,1.617-.437A1.4,1.4,0,0,0,211.3,163.25Zm10.8-.359a3,3,0,0,1,2.078.742,2.59,2.59,0,0,1,0,3.8,3.278,3.278,0,0,1-4.164-.008,2.589,2.589,0,0,1,0-3.781A2.972,2.972,0,0,1,222.1,162.891Z" transform="translate(654 4225)" fill="#12263f"/>
    <path id="Trazado_706789" data-name="Trazado 706789" d="M64.395,13.581q.185-1.046-1.028-1.6l-1.7-.677q-2.953-1.318-2.8-3.63a3.334,3.334,0,0,1,.7-1.9,4.227,4.227,0,0,1,1.8-1.3,6.379,6.379,0,0,1,2.5-.453,4.34,4.34,0,0,1,3,1.1A3.676,3.676,0,0,1,68,7.991H65.432a1.831,1.831,0,0,0-.382-1.354,1.722,1.722,0,0,0-1.323-.5,2.667,2.667,0,0,0-1.529.4,1.641,1.641,0,0,0-.773,1.147q-.167.958,1.283,1.521l1.16.439.668.308q2.593,1.283,2.426,3.6a3.477,3.477,0,0,1-.725,1.956,4.088,4.088,0,0,1-1.758,1.261,6.261,6.261,0,0,1-2.448.413,5.483,5.483,0,0,1-2.426-.571,3.767,3.767,0,0,1-1.617-1.538,3.983,3.983,0,0,1-.483-2.109l2.575.009q-.123,2.083,2.048,2.118a2.69,2.69,0,0,0,1.547-.413A1.608,1.608,0,0,0,64.395,13.581Zm9.062-6.267a3.814,3.814,0,0,1,2.167.646,3.638,3.638,0,0,1,1.336,1.731,5.357,5.357,0,0,1,.3,2.448,5.786,5.786,0,0,1-1.578,3.669,4.455,4.455,0,0,1-3.4,1.367,3.8,3.8,0,0,1-2.145-.637,3.624,3.624,0,0,1-1.336-1.718,5.239,5.239,0,0,1-.308-2.426A5.957,5.957,0,0,1,70.1,8.65,4.363,4.363,0,0,1,73.456,7.314Zm-2.5,5.979a2.194,2.194,0,0,0,.4,1.33,1.314,1.314,0,0,0,1.063.5A1.926,1.926,0,0,0,74.2,14.079a5.227,5.227,0,0,0,.606-2.848A2.387,2.387,0,0,0,74.4,9.884a1.293,1.293,0,0,0-1.068-.522,1.929,1.929,0,0,0-1.771,1.04A5.173,5.173,0,0,0,70.951,13.294ZM78.642,17l1.327-7.655H78.6l.325-1.854,1.371-.009.123-.949a3.748,3.748,0,0,1,1.239-2.386A3.751,3.751,0,0,1,84.231,3.3a8.246,8.246,0,0,1,1.345.184l-.22,1.97a3.073,3.073,0,0,0-.729-.105,1.817,1.817,0,0,0-1.129.335,1.525,1.525,0,0,0-.584,1.033l-.132.777h1.837l-.325,1.854H82.465L81.138,17ZM89.347,5.152,88.934,7.49h1.582L90.19,9.354H88.608L87.8,14.117a1.211,1.211,0,0,0,.07.686q.123.237.6.255.141.009.756-.044l-.176,1.942a4.169,4.169,0,0,1-1.424.2,2.234,2.234,0,0,1-1.819-.765,2.763,2.763,0,0,1-.492-2.021l.817-5.019H84.785L85.11,7.49h1.345l.4-2.338Zm9.545,8.385L101.15,7.49h2.47l-4,9.51H97.547l-.7-5.95L94.066,17H91.992l-.7-9.51h2.32l.149,5.985L96.475,7.49h1.793ZM108.727,17a2.566,2.566,0,0,1-.1-.861,3.221,3.221,0,0,1-2.426,1.037,2.919,2.919,0,0,1-2.07-.813,2.46,2.46,0,0,1-.769-1.964,2.843,2.843,0,0,1,1.305-2.386,5.924,5.924,0,0,1,3.335-.831l1.16.018.123-.571a1.984,1.984,0,0,0,.026-.554A.952.952,0,0,0,109,9.428a1.075,1.075,0,0,0-.708-.242,1.514,1.514,0,0,0-.984.286,1.384,1.384,0,0,0-.519.875l-2.487.009a2.764,2.764,0,0,1,1.252-2.21,4.85,4.85,0,0,1,2.94-.831,3.507,3.507,0,0,1,2.531.962,2.816,2.816,0,0,1,.765,2.386l-.729,4.553-.044.563a2.714,2.714,0,0,0,.149,1.055l-.009.167Zm-1.907-1.749a2.27,2.27,0,0,0,1.872-.932L109,12.676l-.861-.009a2.406,2.406,0,0,0-1.978.835,1.454,1.454,0,0,0-.272.712.844.844,0,0,0,.2.751A1,1,0,0,0,106.819,15.251Zm12.366-5.379a5.117,5.117,0,0,0-.835-.088,2.4,2.4,0,0,0-2.1.993L115.151,17h-2.479l1.652-9.51,2.329-.009-.229,1.16A2.615,2.615,0,0,1,118.641,7.3a3.615,3.615,0,0,1,.861.123Zm4.3,7.3a4.137,4.137,0,0,1-2.21-.611,3.7,3.7,0,0,1-1.437-1.652,4.605,4.605,0,0,1-.369-2.316l.026-.352A6.148,6.148,0,0,1,120.3,9.7a4.884,4.884,0,0,1,1.74-1.789,4.306,4.306,0,0,1,2.355-.593,3.29,3.29,0,0,1,2.782,1.351A4.631,4.631,0,0,1,127.9,12l-.141,1.083h-5.827a2.041,2.041,0,0,0,.448,1.477,1.711,1.711,0,0,0,1.318.571,3.041,3.041,0,0,0,2.373-1.055l1.134,1.406a3.527,3.527,0,0,1-1.547,1.261A5.059,5.059,0,0,1,123.483,17.176Zm.791-7.813a1.761,1.761,0,0,0-1.217.431,3.784,3.784,0,0,0-.954,1.556h3.41l.053-.229a2.33,2.33,0,0,0,.009-.668,1.276,1.276,0,0,0-.431-.8A1.35,1.35,0,0,0,124.274,9.362Zm9.088,2.813a5.809,5.809,0,0,1,.976-3.56,3.211,3.211,0,0,1,2.725-1.3,2.731,2.731,0,0,1,2.145,1V3.5h2.971V17h-2.663l-.149-1.02a2.8,2.8,0,0,1-2.32,1.2,3.205,3.205,0,0,1-2.689-1.3A5.993,5.993,0,0,1,133.362,12.175Zm2.962.185q0,2.531,1.477,2.531a1.458,1.458,0,0,0,1.406-.826V10.443a1.419,1.419,0,0,0-1.389-.844q-1.371,0-1.485,2.215Zm12.138,4.816a4.889,4.889,0,0,1-3.542-1.305,4.507,4.507,0,0,1-1.354-3.4v-.246a5.84,5.84,0,0,1,.541-2.575,3.955,3.955,0,0,1,1.578-1.727,4.763,4.763,0,0,1,2.461-.611,4.117,4.117,0,0,1,3.164,1.244,4.887,4.887,0,0,1,1.16,3.467v1.151h-5.889a2.135,2.135,0,0,0,.694,1.257,2.066,2.066,0,0,0,1.389.457,2.662,2.662,0,0,0,2.2-.984l1.354,1.6a3.784,3.784,0,0,1-1.569,1.217A5.3,5.3,0,0,1,148.462,17.176ZM148.128,9.6q-1.3,0-1.547,1.723h2.988v-.229a1.467,1.467,0,0,0-.36-1.1A1.434,1.434,0,0,0,148.128,9.6ZM14.424,37.315a5.735,5.735,0,0,1-1,3.538,3.2,3.2,0,0,1-2.694,1.323,2.742,2.742,0,0,1-2.153-.958v4.438H5.618V32.49H8.386l.088.879a2.742,2.742,0,0,1,2.241-1.055,3.224,3.224,0,0,1,2.733,1.3,5.805,5.805,0,0,1,.976,3.564Zm-2.962-.185q0-2.531-1.477-2.531a1.394,1.394,0,0,0-1.406.756V39.1A1.439,1.439,0,0,0,10,39.891q1.415,0,1.459-2.443Zm10.02-1.96-.976-.07a1.752,1.752,0,0,0-1.793.879V42H15.751V32.49h2.777l.1,1.222a2.294,2.294,0,0,1,2.083-1.4,2.888,2.888,0,0,1,.826.105Zm.378,1.986a5.613,5.613,0,0,1,.554-2.536A3.96,3.96,0,0,1,24,32.912a4.791,4.791,0,0,1,2.435-.6,4.373,4.373,0,0,1,3.366,1.323,5.076,5.076,0,0,1,1.23,3.6v.105A4.925,4.925,0,0,1,29.8,40.871a4.384,4.384,0,0,1-3.344,1.305A4.434,4.434,0,0,1,23.2,40.958a4.761,4.761,0,0,1-1.327-3.3Zm2.962.185a3.538,3.538,0,0,0,.413,1.934,1.376,1.376,0,0,0,1.222.615q1.582,0,1.617-2.435v-.3q0-2.558-1.635-2.558-1.485,0-1.608,2.206Zm11.54,2.549a1.317,1.317,0,0,0,.967-.338,1.241,1.241,0,0,0,.334-.945H40.44a3.288,3.288,0,0,1-1.121,2.566,4.168,4.168,0,0,1-2.887,1,4.22,4.22,0,0,1-3.27-1.3,5.125,5.125,0,0,1-1.2-3.6v-.123A5.792,5.792,0,0,1,32.5,34.6a3.872,3.872,0,0,1,1.534-1.7,4.573,4.573,0,0,1,2.373-.593,4.116,4.116,0,0,1,2.944,1.028,3.647,3.647,0,0,1,1.09,2.786H37.663A1.626,1.626,0,0,0,37.3,35a1.244,1.244,0,0,0-.967-.4q-1.151,0-1.345,1.468a10.357,10.357,0,0,0-.062,1.283,4.068,4.068,0,0,0,.343,1.986A1.187,1.187,0,0,0,36.362,39.891Zm9.932,2.285a4.889,4.889,0,0,1-3.542-1.305,4.507,4.507,0,0,1-1.354-3.4v-.246a5.84,5.84,0,0,1,.541-2.575,3.955,3.955,0,0,1,1.578-1.727,4.763,4.763,0,0,1,2.461-.611,4.117,4.117,0,0,1,3.164,1.244,4.887,4.887,0,0,1,1.16,3.467v1.151H44.413a2.135,2.135,0,0,0,.694,1.257,2.066,2.066,0,0,0,1.389.457,2.662,2.662,0,0,0,2.2-.984l1.354,1.6a3.784,3.784,0,0,1-1.569,1.217A5.3,5.3,0,0,1,46.293,42.176ZM45.959,34.6q-1.3,0-1.547,1.723H47.4v-.229a1.467,1.467,0,0,0-.36-1.1A1.434,1.434,0,0,0,45.959,34.6Zm10.512,4.729a.684.684,0,0,0-.4-.606,6.016,6.016,0,0,0-1.5-.475,6.853,6.853,0,0,1-1.828-.646,3.062,3.062,0,0,1-1.1-.971,2.319,2.319,0,0,1-.378-1.31,2.628,2.628,0,0,1,1.081-2.158,4.453,4.453,0,0,1,2.83-.848,4.934,4.934,0,0,1,3.023.853,2.666,2.666,0,0,1,1.143,2.241H56.375q0-1.143-1.2-1.143a1.194,1.194,0,0,0-.782.259.8.8,0,0,0-.316.646.737.737,0,0,0,.387.642,3.654,3.654,0,0,0,1.235.4,10.671,10.671,0,0,1,1.49.378,2.706,2.706,0,0,1,2.145,2.646,2.491,2.491,0,0,1-1.156,2.118,5.068,5.068,0,0,1-2.993.817A5.172,5.172,0,0,1,53,41.736a3.645,3.645,0,0,1-1.494-1.2,2.707,2.707,0,0,1-.536-1.591h2.769a1.145,1.145,0,0,0,.439.962,1.808,1.808,0,0,0,1.081.3,1.422,1.422,0,0,0,.91-.246A.787.787,0,0,0,56.471,39.328ZM66.069,42a3.344,3.344,0,0,1-.281-.853A2.754,2.754,0,0,1,63.5,42.176a3.374,3.374,0,0,1-2.285-.813,2.588,2.588,0,0,1-.94-2.043,2.66,2.66,0,0,1,1.143-2.338,5.821,5.821,0,0,1,3.322-.791h.914v-.5q0-1.316-1.134-1.316a.927.927,0,0,0-1.055,1.042H60.505a2.655,2.655,0,0,1,1.173-2.239,4.931,4.931,0,0,1,2.993-.86,4.323,4.323,0,0,1,2.874.888,3.086,3.086,0,0,1,1.081,2.435v4.21a4.311,4.311,0,0,0,.4,2V42Zm-1.854-1.934a1.652,1.652,0,0,0,.918-.237,1.487,1.487,0,0,0,.523-.536V37.772h-.861q-1.547,0-1.547,1.389a.848.848,0,0,0,.272.655A.986.986,0,0,0,64.214,40.066Zm8.851-7.576.1,1.116a3.27,3.27,0,0,1,2.716-1.292,2.407,2.407,0,0,1,2.435,1.433,3.165,3.165,0,0,1,2.795-1.433q2.892,0,2.971,3.5V42H81.107V36a1.813,1.813,0,0,0-.246-1.063,1.048,1.048,0,0,0-.9-.334,1.4,1.4,0,0,0-1.31.782l.009.123V42H75.693V36.015a1.906,1.906,0,0,0-.237-1.081,1.045,1.045,0,0,0-.905-.334,1.42,1.42,0,0,0-1.3.782V42H70.288V32.49ZM88.894,42H85.923V32.49h2.971ZM85.748,30.038A1.322,1.322,0,0,1,86.2,29a1.943,1.943,0,0,1,2.373,0,1.405,1.405,0,0,1,0,2.074,1.943,1.943,0,0,1-2.373,0A1.322,1.322,0,0,1,85.748,30.038Zm9.571,12.138a4.889,4.889,0,0,1-3.542-1.305,4.507,4.507,0,0,1-1.354-3.4v-.246a5.84,5.84,0,0,1,.541-2.575,3.955,3.955,0,0,1,1.578-1.727A4.763,4.763,0,0,1,95,32.314a4.117,4.117,0,0,1,3.164,1.244,4.887,4.887,0,0,1,1.16,3.467v1.151H93.438a2.135,2.135,0,0,0,.694,1.257,2.066,2.066,0,0,0,1.389.457,2.662,2.662,0,0,0,2.2-.984l1.354,1.6A3.784,3.784,0,0,1,97.5,41.723,5.3,5.3,0,0,1,95.319,42.176ZM94.985,34.6q-1.3,0-1.547,1.723h2.988v-.229a1.467,1.467,0,0,0-.36-1.1A1.434,1.434,0,0,0,94.985,34.6Zm8.253-2.109.1,1.116a3.225,3.225,0,0,1,2.716-1.292,2.713,2.713,0,0,1,2.219.888,4.226,4.226,0,0,1,.76,2.672V42h-2.971V36a1.6,1.6,0,0,0-.29-1.059,1.342,1.342,0,0,0-1.055-.338,1.413,1.413,0,0,0-1.292.686V42H100.46V32.49Zm10.881-2.364V32.49h1.564v2.057h-1.564V38.9a1.111,1.111,0,0,0,.193.747,1.037,1.037,0,0,0,.765.211,4.345,4.345,0,0,0,.738-.053v2.118a5.466,5.466,0,0,1-1.67.255,3.1,3.1,0,0,1-2.259-.721,2.954,2.954,0,0,1-.729-2.188v-4.72h-1.213V32.49h1.213V30.126Zm2.092,7.031a5.613,5.613,0,0,1,.554-2.536,3.96,3.96,0,0,1,1.591-1.709,4.791,4.791,0,0,1,2.435-.6,4.373,4.373,0,0,1,3.366,1.323,5.076,5.076,0,0,1,1.23,3.6v.105a4.925,4.925,0,0,1-1.235,3.529,4.384,4.384,0,0,1-3.344,1.305,4.434,4.434,0,0,1-3.261-1.217,4.761,4.761,0,0,1-1.327-3.3Zm2.962.185a3.538,3.538,0,0,0,.413,1.934,1.376,1.376,0,0,0,1.222.615q1.582,0,1.617-2.435v-.3q0-2.558-1.635-2.558-1.485,0-1.608,2.206Zm11.628-.167a5.809,5.809,0,0,1,.976-3.56,3.211,3.211,0,0,1,2.725-1.3,2.731,2.731,0,0,1,2.145,1V28.5h2.971V42h-2.663l-.149-1.02a2.8,2.8,0,0,1-2.32,1.2,3.205,3.205,0,0,1-2.689-1.3A5.993,5.993,0,0,1,130.8,37.175Zm2.962.185q0,2.531,1.477,2.531a1.458,1.458,0,0,0,1.406-.826V35.443a1.419,1.419,0,0,0-1.389-.844q-1.371,0-1.485,2.215ZM145.9,42.176a4.889,4.889,0,0,1-3.542-1.305,4.507,4.507,0,0,1-1.354-3.4v-.246a5.84,5.84,0,0,1,.541-2.575,3.955,3.955,0,0,1,1.578-1.727,4.763,4.763,0,0,1,2.461-.611,4.117,4.117,0,0,1,3.164,1.244,4.887,4.887,0,0,1,1.16,3.467v1.151h-5.889a2.135,2.135,0,0,0,.694,1.257,2.066,2.066,0,0,0,1.389.457,2.662,2.662,0,0,0,2.2-.984l1.354,1.6a3.784,3.784,0,0,1-1.569,1.217A5.3,5.3,0,0,1,145.9,42.176Zm-.334-7.576q-1.3,0-1.547,1.723h2.988v-.229a1.467,1.467,0,0,0-.36-1.1A1.434,1.434,0,0,0,145.566,34.6Zm13.465-4.474V32.49H160.6v2.057h-1.564V38.9a1.111,1.111,0,0,0,.193.747,1.037,1.037,0,0,0,.765.211,4.345,4.345,0,0,0,.738-.053v2.118a5.466,5.466,0,0,1-1.67.255,3.1,3.1,0,0,1-2.259-.721,2.954,2.954,0,0,1-.729-2.188v-4.72h-1.213V32.49h1.213V30.126Zm7.33,12.05a4.889,4.889,0,0,1-3.542-1.305,4.507,4.507,0,0,1-1.354-3.4v-.246a5.84,5.84,0,0,1,.541-2.575,3.955,3.955,0,0,1,1.578-1.727,4.763,4.763,0,0,1,2.461-.611,4.117,4.117,0,0,1,3.164,1.244,4.887,4.887,0,0,1,1.16,3.467v1.151H164.48a2.135,2.135,0,0,0,.694,1.257,2.066,2.066,0,0,0,1.389.457,2.662,2.662,0,0,0,2.2-.984l1.354,1.6a3.784,3.784,0,0,1-1.569,1.217A5.3,5.3,0,0,1,166.361,42.176Zm-.334-7.576q-1.3,0-1.547,1.723h2.988v-.229a1.467,1.467,0,0,0-.36-1.1A1.434,1.434,0,0,0,166.027,34.6Zm9.387.51,1.38-2.619h3.076l-2.5,4.632L179.993,42H176.9L175.4,39.188,173.937,42h-3.111l2.637-4.878-2.5-4.632h3.111Zm8.859-4.983V32.49h1.564v2.057h-1.564V38.9a1.111,1.111,0,0,0,.193.747,1.037,1.037,0,0,0,.765.211,4.345,4.345,0,0,0,.738-.053v2.118a5.466,5.466,0,0,1-1.67.255,3.1,3.1,0,0,1-2.259-.721,2.954,2.954,0,0,1-.729-2.188v-4.72H180.1V32.49h1.213V30.126Zm2.092,7.031a5.613,5.613,0,0,1,.554-2.536,3.96,3.96,0,0,1,1.591-1.709,4.791,4.791,0,0,1,2.435-.6,4.373,4.373,0,0,1,3.366,1.323,5.076,5.076,0,0,1,1.23,3.6v.105a4.925,4.925,0,0,1-1.235,3.529,4.384,4.384,0,0,1-3.344,1.305,4.434,4.434,0,0,1-3.261-1.217,4.761,4.761,0,0,1-1.327-3.3Zm2.962.185a3.538,3.538,0,0,0,.413,1.934,1.376,1.376,0,0,0,1.222.615q1.582,0,1.617-2.435v-.3q0-2.558-1.635-2.558-1.485,0-1.608,2.206Zm12.5,1.986a.684.684,0,0,0-.4-.606,6.016,6.016,0,0,0-1.5-.475A6.853,6.853,0,0,1,198.1,37.6a3.062,3.062,0,0,1-1.1-.971,2.319,2.319,0,0,1-.378-1.31,2.628,2.628,0,0,1,1.081-2.158,4.453,4.453,0,0,1,2.83-.848,4.934,4.934,0,0,1,3.023.853,2.666,2.666,0,0,1,1.143,2.241h-2.971q0-1.143-1.2-1.143a1.194,1.194,0,0,0-.782.259.8.8,0,0,0-.316.646.737.737,0,0,0,.387.642,3.654,3.654,0,0,0,1.235.4,10.671,10.671,0,0,1,1.49.378,2.706,2.706,0,0,1,2.145,2.646,2.491,2.491,0,0,1-1.156,2.118,5.068,5.068,0,0,1-2.993.817,5.172,5.172,0,0,1-2.18-.439,3.645,3.645,0,0,1-1.494-1.2,2.707,2.707,0,0,1-.536-1.591h2.769a1.145,1.145,0,0,0,.439.962,1.808,1.808,0,0,0,1.081.3,1.422,1.422,0,0,0,.91-.246A.787.787,0,0,0,201.825,39.328Z" transform="translate(310 4085)" fill="#12263f"/>
    <path id="Trazado_706790" data-name="Trazado 706790" d="M101.076,13.581q.185-1.046-1.028-1.6l-1.7-.677q-2.953-1.318-2.8-3.63a3.334,3.334,0,0,1,.7-1.9,4.227,4.227,0,0,1,1.8-1.3,6.379,6.379,0,0,1,2.5-.453,4.34,4.34,0,0,1,3,1.1,3.676,3.676,0,0,1,1.125,2.861h-2.566a1.831,1.831,0,0,0-.382-1.354,1.722,1.722,0,0,0-1.323-.5,2.667,2.667,0,0,0-1.529.4,1.641,1.641,0,0,0-.773,1.147q-.167.958,1.283,1.521l1.16.439.668.308q2.593,1.283,2.426,3.6a3.477,3.477,0,0,1-.725,1.956,4.088,4.088,0,0,1-1.758,1.261,6.261,6.261,0,0,1-2.448.413,5.483,5.483,0,0,1-2.426-.571,3.767,3.767,0,0,1-1.617-1.538,3.983,3.983,0,0,1-.483-2.109l2.575.009q-.123,2.083,2.048,2.118a2.69,2.69,0,0,0,1.547-.413A1.608,1.608,0,0,0,101.076,13.581Zm9.062-6.267a3.814,3.814,0,0,1,2.167.646,3.638,3.638,0,0,1,1.336,1.731,5.357,5.357,0,0,1,.3,2.448,5.786,5.786,0,0,1-1.578,3.669,4.455,4.455,0,0,1-3.4,1.367,3.8,3.8,0,0,1-2.145-.637,3.624,3.624,0,0,1-1.336-1.718,5.239,5.239,0,0,1-.308-2.426,5.957,5.957,0,0,1,1.6-3.744A4.363,4.363,0,0,1,110.138,7.314Zm-2.5,5.979a2.194,2.194,0,0,0,.4,1.33,1.314,1.314,0,0,0,1.063.5,1.926,1.926,0,0,0,1.793-1.049,5.227,5.227,0,0,0,.606-2.848,2.387,2.387,0,0,0-.409-1.347,1.293,1.293,0,0,0-1.068-.522,1.929,1.929,0,0,0-1.771,1.04A5.173,5.173,0,0,0,107.633,13.294ZM115.323,17l1.327-7.655h-1.371L115.6,7.49l1.371-.009.123-.949a3.748,3.748,0,0,1,1.239-2.386,3.751,3.751,0,0,1,2.575-.848,8.246,8.246,0,0,1,1.345.184l-.22,1.97a3.073,3.073,0,0,0-.729-.105,1.817,1.817,0,0,0-1.129.335,1.525,1.525,0,0,0-.584,1.033l-.132.777H121.3l-.325,1.854h-1.828L117.819,17ZM126.028,5.152l-.413,2.338H127.2l-.325,1.863H125.29l-.809,4.764a1.211,1.211,0,0,0,.07.686q.123.237.6.255.141.009.756-.044l-.176,1.942a4.169,4.169,0,0,1-1.424.2,2.234,2.234,0,0,1-1.819-.765,2.763,2.763,0,0,1-.492-2.021l.817-5.019h-1.345l.325-1.863h1.345l.4-2.338Zm9.545,8.385,2.259-6.047h2.47l-4,9.51h-2.074l-.7-5.95L130.748,17h-2.074l-.7-9.51h2.32l.149,5.985,2.716-5.985h1.793ZM145.408,17a2.566,2.566,0,0,1-.1-.861,3.221,3.221,0,0,1-2.426,1.037,2.919,2.919,0,0,1-2.07-.813,2.46,2.46,0,0,1-.769-1.964,2.843,2.843,0,0,1,1.305-2.386,5.924,5.924,0,0,1,3.335-.831l1.16.018.123-.571a1.984,1.984,0,0,0,.026-.554.952.952,0,0,0-.312-.646,1.075,1.075,0,0,0-.708-.242,1.514,1.514,0,0,0-.984.286,1.384,1.384,0,0,0-.519.875l-2.487.009a2.764,2.764,0,0,1,1.252-2.21,4.85,4.85,0,0,1,2.94-.831,3.507,3.507,0,0,1,2.531.962,2.816,2.816,0,0,1,.765,2.386l-.729,4.553-.044.563a2.714,2.714,0,0,0,.149,1.055l-.009.167ZM143.5,15.251a2.27,2.27,0,0,0,1.872-.932l.308-1.644-.861-.009a2.406,2.406,0,0,0-1.978.835,1.454,1.454,0,0,0-.272.712.844.844,0,0,0,.2.751A1,1,0,0,0,143.5,15.251Zm12.366-5.379a5.117,5.117,0,0,0-.835-.088,2.4,2.4,0,0,0-2.1.993L151.833,17h-2.479l1.652-9.51,2.329-.009-.229,1.16A2.615,2.615,0,0,1,155.322,7.3a3.615,3.615,0,0,1,.861.123Zm4.3,7.3a4.137,4.137,0,0,1-2.21-.611,3.7,3.7,0,0,1-1.437-1.652,4.605,4.605,0,0,1-.369-2.316l.026-.352a6.148,6.148,0,0,1,.809-2.549,4.884,4.884,0,0,1,1.74-1.789,4.306,4.306,0,0,1,2.355-.593,3.29,3.29,0,0,1,2.782,1.351A4.631,4.631,0,0,1,164.577,12l-.141,1.083h-5.827a2.041,2.041,0,0,0,.448,1.477,1.711,1.711,0,0,0,1.318.571,3.041,3.041,0,0,0,2.373-1.055l1.134,1.406a3.527,3.527,0,0,1-1.547,1.261A5.059,5.059,0,0,1,160.165,17.176Zm.791-7.813a1.761,1.761,0,0,0-1.217.431,3.784,3.784,0,0,0-.954,1.556h3.41l.053-.229a2.33,2.33,0,0,0,.009-.668,1.276,1.276,0,0,0-.431-.8A1.35,1.35,0,0,0,160.956,9.362ZM63.582,37.175a5.809,5.809,0,0,1,.976-3.56,3.211,3.211,0,0,1,2.725-1.3,2.731,2.731,0,0,1,2.145,1V28.5H72.4V42H69.734l-.149-1.02a2.8,2.8,0,0,1-2.32,1.2,3.205,3.205,0,0,1-2.689-1.3A5.993,5.993,0,0,1,63.582,37.175Zm2.962.185q0,2.531,1.477,2.531a1.458,1.458,0,0,0,1.406-.826V35.443a1.419,1.419,0,0,0-1.389-.844q-1.371,0-1.485,2.215Zm12.138,4.816a4.889,4.889,0,0,1-3.542-1.305,4.507,4.507,0,0,1-1.354-3.4v-.246a5.84,5.84,0,0,1,.541-2.575A3.955,3.955,0,0,1,75.9,32.925a4.763,4.763,0,0,1,2.461-.611,4.117,4.117,0,0,1,3.164,1.244,4.887,4.887,0,0,1,1.16,3.467v1.151H76.8a2.135,2.135,0,0,0,.694,1.257,2.066,2.066,0,0,0,1.389.457,2.662,2.662,0,0,0,2.2-.984l1.354,1.6a3.784,3.784,0,0,1-1.569,1.217A5.3,5.3,0,0,1,78.682,42.176ZM78.348,34.6q-1.3,0-1.547,1.723h2.988v-.229a1.467,1.467,0,0,0-.36-1.1A1.434,1.434,0,0,0,78.348,34.6Zm18.844,2.716a5.735,5.735,0,0,1-1,3.538A3.2,3.2,0,0,1,93.5,42.176a2.742,2.742,0,0,1-2.153-.958v4.438H88.385V32.49h2.769l.088.879a2.742,2.742,0,0,1,2.241-1.055,3.224,3.224,0,0,1,2.733,1.3,5.805,5.805,0,0,1,.976,3.564Zm-2.962-.185q0-2.531-1.477-2.531a1.394,1.394,0,0,0-1.406.756V39.1a1.439,1.439,0,0,0,1.424.791q1.415,0,1.459-2.443Zm10.02-1.96-.976-.07a1.752,1.752,0,0,0-1.793.879V42H98.519V32.49H101.3l.1,1.222a2.294,2.294,0,0,1,2.083-1.4,2.888,2.888,0,0,1,.826.105Zm.378,1.986a5.613,5.613,0,0,1,.554-2.536,3.96,3.96,0,0,1,1.591-1.709,4.791,4.791,0,0,1,2.435-.6,4.373,4.373,0,0,1,3.366,1.323,5.076,5.076,0,0,1,1.23,3.6v.105a4.925,4.925,0,0,1-1.235,3.529,4.384,4.384,0,0,1-3.344,1.305,4.434,4.434,0,0,1-3.261-1.217,4.761,4.761,0,0,1-1.327-3.3Zm2.962.185A3.538,3.538,0,0,0,108,39.275a1.376,1.376,0,0,0,1.222.615q1.582,0,1.617-2.435v-.3q0-2.558-1.635-2.558-1.485,0-1.608,2.206Zm7.172-.167a6.421,6.421,0,0,1,.475-2.549,3.821,3.821,0,0,1,1.362-1.709,3.591,3.591,0,0,1,2.065-.6,2.855,2.855,0,0,1,2.32,1l.105-.826h2.689V41.64a4.009,4.009,0,0,1-.584,2.184,3.75,3.75,0,0,1-1.692,1.424,6.219,6.219,0,0,1-2.566.5,5.365,5.365,0,0,1-2.026-.4,3.657,3.657,0,0,1-1.5-1.028l1.239-1.74a2.716,2.716,0,0,0,2.18.976,1.764,1.764,0,0,0,1.969-2.021v-.3a2.781,2.781,0,0,1-2.153.94,3.437,3.437,0,0,1-2.812-1.332,5.517,5.517,0,0,1-1.072-3.564Zm2.971.185a3.383,3.383,0,0,0,.439,1.85,1.387,1.387,0,0,0,1.23.681,1.573,1.573,0,0,0,1.4-.642v-4a1.534,1.534,0,0,0-1.38-.65,1.4,1.4,0,0,0-1.239.708A3.858,3.858,0,0,0,117.731,37.359Zm13.482-2.188-.976-.07a1.752,1.752,0,0,0-1.793.879V42h-2.962V32.49h2.777l.1,1.222a2.294,2.294,0,0,1,2.083-1.4,2.888,2.888,0,0,1,.826.105ZM137.375,42a3.344,3.344,0,0,1-.281-.853,2.754,2.754,0,0,1-2.285,1.028,3.374,3.374,0,0,1-2.285-.813,2.588,2.588,0,0,1-.94-2.043,2.66,2.66,0,0,1,1.143-2.338,5.821,5.821,0,0,1,3.322-.791h.914v-.5q0-1.316-1.134-1.316a.927.927,0,0,0-1.055,1.042h-2.962a2.655,2.655,0,0,1,1.173-2.239,4.931,4.931,0,0,1,2.993-.86,4.323,4.323,0,0,1,2.874.888,3.086,3.086,0,0,1,1.081,2.435v4.21a4.311,4.311,0,0,0,.4,2V42Zm-1.854-1.934a1.652,1.652,0,0,0,.918-.237,1.487,1.487,0,0,0,.523-.536V37.772H136.1q-1.547,0-1.547,1.389a.848.848,0,0,0,.272.655A.986.986,0,0,0,135.521,40.066Zm8.851-7.576.1,1.116a3.27,3.27,0,0,1,2.716-1.292,2.407,2.407,0,0,1,2.435,1.433,3.165,3.165,0,0,1,2.795-1.433q2.892,0,2.971,3.5V42h-2.971V36a1.813,1.813,0,0,0-.246-1.063,1.048,1.048,0,0,0-.9-.334,1.4,1.4,0,0,0-1.31.782l.009.123V42H147V36.015a1.906,1.906,0,0,0-.237-1.081,1.045,1.045,0,0,0-.905-.334,1.42,1.42,0,0,0-1.3.782V42h-2.962V32.49ZM162.433,42a3.344,3.344,0,0,1-.281-.853,2.754,2.754,0,0,1-2.285,1.028,3.374,3.374,0,0,1-2.285-.813,2.588,2.588,0,0,1-.94-2.043,2.66,2.66,0,0,1,1.143-2.338,5.821,5.821,0,0,1,3.322-.791h.914v-.5q0-1.316-1.134-1.316a.927.927,0,0,0-1.055,1.042h-2.962a2.655,2.655,0,0,1,1.173-2.239,4.931,4.931,0,0,1,2.993-.86,4.323,4.323,0,0,1,2.874.888,3.086,3.086,0,0,1,1.081,2.435v4.21a4.311,4.311,0,0,0,.4,2V42Zm-1.854-1.934a1.652,1.652,0,0,0,.918-.237,1.487,1.487,0,0,0,.523-.536V37.772h-.861q-1.547,0-1.547,1.389a.848.848,0,0,0,.272.655A.986.986,0,0,0,160.578,40.066Zm10.072-.176a1.317,1.317,0,0,0,.967-.338,1.241,1.241,0,0,0,.334-.945h2.777a3.288,3.288,0,0,1-1.121,2.566,4.168,4.168,0,0,1-2.887,1,4.22,4.22,0,0,1-3.27-1.3,5.125,5.125,0,0,1-1.2-3.6v-.123a5.792,5.792,0,0,1,.532-2.544,3.872,3.872,0,0,1,1.534-1.7,4.573,4.573,0,0,1,2.373-.593,4.116,4.116,0,0,1,2.944,1.028,3.647,3.647,0,0,1,1.09,2.786h-2.777a1.626,1.626,0,0,0-.36-1.134,1.244,1.244,0,0,0-.967-.4q-1.151,0-1.345,1.468a10.357,10.357,0,0,0-.062,1.283,4.068,4.068,0,0,0,.343,1.986A1.187,1.187,0,0,0,170.65,39.891ZM179.105,42h-2.971V32.49h2.971Zm-3.146-11.962A1.322,1.322,0,0,1,176.416,29a1.943,1.943,0,0,1,2.373,0,1.405,1.405,0,0,1,0,2.074,1.943,1.943,0,0,1-2.373,0A1.322,1.322,0,0,1,175.959,30.038Zm4.6,7.119a5.613,5.613,0,0,1,.554-2.536,3.96,3.96,0,0,1,1.591-1.709,4.791,4.791,0,0,1,2.435-.6,4.373,4.373,0,0,1,3.366,1.323,5.076,5.076,0,0,1,1.23,3.6v.105a4.925,4.925,0,0,1-1.235,3.529,4.384,4.384,0,0,1-3.344,1.305,4.434,4.434,0,0,1-3.261-1.217,4.761,4.761,0,0,1-1.327-3.3Zm2.962.185a3.538,3.538,0,0,0,.413,1.934,1.376,1.376,0,0,0,1.222.615q1.582,0,1.617-2.435v-.3q0-2.558-1.635-2.558-1.485,0-1.608,2.206Zm2.021-8.842h3.129l-2.443,2.76-2.417,0Zm8.218,3.99.1,1.116a3.225,3.225,0,0,1,2.716-1.292,2.713,2.713,0,0,1,2.219.888,4.226,4.226,0,0,1,.76,2.672V42h-2.971V36a1.6,1.6,0,0,0-.29-1.059,1.342,1.342,0,0,0-1.055-.338,1.413,1.413,0,0,0-1.292.686V42h-2.962V32.49Z" transform="translate(1056 4085)" fill="#fff"/>
    <path id="Trazado_706791" data-name="Trazado 706791" d="M106.076,13.581q.185-1.046-1.028-1.6l-1.7-.677q-2.953-1.318-2.8-3.63a3.334,3.334,0,0,1,.7-1.9,4.227,4.227,0,0,1,1.8-1.3,6.379,6.379,0,0,1,2.5-.453,4.34,4.34,0,0,1,3,1.1,3.676,3.676,0,0,1,1.125,2.861h-2.566a1.831,1.831,0,0,0-.382-1.354,1.722,1.722,0,0,0-1.323-.5,2.667,2.667,0,0,0-1.529.4,1.641,1.641,0,0,0-.773,1.147q-.167.958,1.283,1.521l1.16.439.668.308q2.593,1.283,2.426,3.6a3.477,3.477,0,0,1-.725,1.956,4.088,4.088,0,0,1-1.758,1.261,6.261,6.261,0,0,1-2.448.413,5.483,5.483,0,0,1-2.426-.571,3.767,3.767,0,0,1-1.617-1.538,3.983,3.983,0,0,1-.483-2.109l2.575.009q-.123,2.083,2.048,2.118a2.69,2.69,0,0,0,1.547-.413A1.608,1.608,0,0,0,106.076,13.581Zm9.062-6.267a3.814,3.814,0,0,1,2.167.646,3.638,3.638,0,0,1,1.336,1.731,5.357,5.357,0,0,1,.3,2.448,5.786,5.786,0,0,1-1.578,3.669,4.455,4.455,0,0,1-3.4,1.367,3.8,3.8,0,0,1-2.145-.637,3.624,3.624,0,0,1-1.336-1.718,5.239,5.239,0,0,1-.308-2.426,5.957,5.957,0,0,1,1.6-3.744A4.363,4.363,0,0,1,115.138,7.314Zm-2.5,5.979a2.194,2.194,0,0,0,.4,1.33,1.314,1.314,0,0,0,1.063.5,1.926,1.926,0,0,0,1.793-1.049,5.227,5.227,0,0,0,.606-2.848,2.387,2.387,0,0,0-.409-1.347,1.293,1.293,0,0,0-1.068-.522,1.929,1.929,0,0,0-1.771,1.04A5.173,5.173,0,0,0,112.633,13.294ZM120.323,17l1.327-7.655h-1.371L120.6,7.49l1.371-.009.123-.949a3.748,3.748,0,0,1,1.239-2.386,3.751,3.751,0,0,1,2.575-.848,8.246,8.246,0,0,1,1.345.184l-.22,1.97a3.073,3.073,0,0,0-.729-.105,1.817,1.817,0,0,0-1.129.335,1.525,1.525,0,0,0-.584,1.033l-.132.777H126.3l-.325,1.854h-1.828L122.819,17ZM131.028,5.152l-.413,2.338H132.2l-.325,1.863H130.29l-.809,4.764a1.211,1.211,0,0,0,.07.686q.123.237.6.255.141.009.756-.044l-.176,1.942a4.169,4.169,0,0,1-1.424.2,2.234,2.234,0,0,1-1.819-.765,2.763,2.763,0,0,1-.492-2.021l.817-5.019h-1.345l.325-1.863h1.345l.4-2.338Zm9.545,8.385,2.259-6.047h2.47l-4,9.51h-2.074l-.7-5.95L135.748,17h-2.074l-.7-9.51h2.32l.149,5.985,2.716-5.985h1.793ZM150.408,17a2.566,2.566,0,0,1-.1-.861,3.221,3.221,0,0,1-2.426,1.037,2.919,2.919,0,0,1-2.07-.813,2.46,2.46,0,0,1-.769-1.964,2.843,2.843,0,0,1,1.305-2.386,5.924,5.924,0,0,1,3.335-.831l1.16.018.123-.571a1.984,1.984,0,0,0,.026-.554.952.952,0,0,0-.312-.646,1.075,1.075,0,0,0-.708-.242,1.514,1.514,0,0,0-.984.286,1.384,1.384,0,0,0-.519.875l-2.487.009a2.764,2.764,0,0,1,1.252-2.21,4.85,4.85,0,0,1,2.94-.831,3.507,3.507,0,0,1,2.531.962,2.816,2.816,0,0,1,.765,2.386l-.729,4.553-.044.563a2.714,2.714,0,0,0,.149,1.055l-.009.167ZM148.5,15.251a2.27,2.27,0,0,0,1.872-.932l.308-1.644-.861-.009a2.406,2.406,0,0,0-1.978.835,1.454,1.454,0,0,0-.272.712.844.844,0,0,0,.2.751A1,1,0,0,0,148.5,15.251Zm12.366-5.379a5.117,5.117,0,0,0-.835-.088,2.4,2.4,0,0,0-2.1.993L156.833,17h-2.479l1.652-9.51,2.329-.009-.229,1.16A2.615,2.615,0,0,1,160.322,7.3a3.615,3.615,0,0,1,.861.123Zm4.3,7.3a4.137,4.137,0,0,1-2.21-.611,3.7,3.7,0,0,1-1.437-1.652,4.605,4.605,0,0,1-.369-2.316l.026-.352a6.148,6.148,0,0,1,.809-2.549,4.884,4.884,0,0,1,1.74-1.789,4.306,4.306,0,0,1,2.355-.593,3.29,3.29,0,0,1,2.782,1.351A4.631,4.631,0,0,1,169.577,12l-.141,1.083h-5.827a2.041,2.041,0,0,0,.448,1.477,1.711,1.711,0,0,0,1.318.571,3.041,3.041,0,0,0,2.373-1.055l1.134,1.406a3.527,3.527,0,0,1-1.547,1.261A5.059,5.059,0,0,1,165.165,17.176Zm.791-7.813a1.761,1.761,0,0,0-1.217.431,3.784,3.784,0,0,0-.954,1.556h3.41l.053-.229a2.33,2.33,0,0,0,.009-.668,1.276,1.276,0,0,0-.431-.8A1.35,1.35,0,0,0,165.956,9.362ZM78.312,37.175a5.809,5.809,0,0,1,.976-3.56,3.211,3.211,0,0,1,2.725-1.3,2.731,2.731,0,0,1,2.145,1V28.5h2.971V42H84.464l-.149-1.02a2.8,2.8,0,0,1-2.32,1.2,3.205,3.205,0,0,1-2.689-1.3A5.993,5.993,0,0,1,78.312,37.175Zm2.962.185q0,2.531,1.477,2.531a1.458,1.458,0,0,0,1.406-.826V35.443a1.419,1.419,0,0,0-1.389-.844q-1.371,0-1.485,2.215Zm12.138,4.816a4.889,4.889,0,0,1-3.542-1.305,4.507,4.507,0,0,1-1.354-3.4v-.246a5.84,5.84,0,0,1,.541-2.575,3.955,3.955,0,0,1,1.578-1.727,4.763,4.763,0,0,1,2.461-.611,4.117,4.117,0,0,1,3.164,1.244,4.887,4.887,0,0,1,1.16,3.467v1.151H91.53a2.135,2.135,0,0,0,.694,1.257,2.066,2.066,0,0,0,1.389.457,2.662,2.662,0,0,0,2.2-.984l1.354,1.6A3.784,3.784,0,0,1,95.6,41.723,5.3,5.3,0,0,1,93.411,42.176ZM93.077,34.6q-1.3,0-1.547,1.723h2.988v-.229a1.467,1.467,0,0,0-.36-1.1A1.434,1.434,0,0,0,93.077,34.6Zm14.994,4.729a.684.684,0,0,0-.4-.606,6.016,6.016,0,0,0-1.5-.475,6.853,6.853,0,0,1-1.828-.646,3.062,3.062,0,0,1-1.1-.971,2.319,2.319,0,0,1-.378-1.31,2.628,2.628,0,0,1,1.081-2.158,4.453,4.453,0,0,1,2.83-.848,4.934,4.934,0,0,1,3.023.853,2.666,2.666,0,0,1,1.143,2.241h-2.971q0-1.143-1.2-1.143a1.194,1.194,0,0,0-.782.259.8.8,0,0,0-.316.646.737.737,0,0,0,.387.642,3.654,3.654,0,0,0,1.235.4,10.671,10.671,0,0,1,1.49.378,2.706,2.706,0,0,1,2.145,2.646,2.491,2.491,0,0,1-1.156,2.118,5.068,5.068,0,0,1-2.993.817,5.172,5.172,0,0,1-2.18-.439,3.645,3.645,0,0,1-1.494-1.2,2.707,2.707,0,0,1-.536-1.591h2.769a1.145,1.145,0,0,0,.439.962,1.808,1.808,0,0,0,1.081.3,1.422,1.422,0,0,0,.91-.246A.787.787,0,0,0,108.071,39.328ZM115.437,42h-2.971V32.49h2.971ZM112.29,30.038A1.322,1.322,0,0,1,112.747,29a1.943,1.943,0,0,1,2.373,0,1.405,1.405,0,0,1,0,2.074,1.943,1.943,0,0,1-2.373,0A1.322,1.322,0,0,1,112.29,30.038Zm7.77,2.452.1,1.116a3.27,3.27,0,0,1,2.716-1.292,2.407,2.407,0,0,1,2.435,1.433,3.165,3.165,0,0,1,2.795-1.433q2.892,0,2.971,3.5V42H128.1V36a1.813,1.813,0,0,0-.246-1.063,1.048,1.048,0,0,0-.9-.334,1.4,1.4,0,0,0-1.31.782l.009.123V42h-2.971V36.015a1.906,1.906,0,0,0-.237-1.081,1.045,1.045,0,0,0-.905-.334,1.42,1.42,0,0,0-1.3.782V42h-2.962V32.49Zm18.369,8.481a3.054,3.054,0,0,1-2.54,1.2,3,3,0,0,1-2.369-.91,3.826,3.826,0,0,1-.8-2.615V32.49h2.962v6.179a1.065,1.065,0,0,0,1.187,1.222,1.548,1.548,0,0,0,1.45-.729V32.49h2.979V42h-2.777ZM146.04,42h-2.971V28.5h2.971Zm7.181,0a3.344,3.344,0,0,1-.281-.853,2.754,2.754,0,0,1-2.285,1.028,3.374,3.374,0,0,1-2.285-.813,2.588,2.588,0,0,1-.94-2.043,2.66,2.66,0,0,1,1.143-2.338,5.821,5.821,0,0,1,3.322-.791h.914v-.5q0-1.316-1.134-1.316a.927.927,0,0,0-1.055,1.042h-2.962a2.655,2.655,0,0,1,1.173-2.239,4.931,4.931,0,0,1,2.993-.86,4.323,4.323,0,0,1,2.874.888,3.086,3.086,0,0,1,1.081,2.435v4.21a4.311,4.311,0,0,0,.4,2V42Zm-1.854-1.934a1.652,1.652,0,0,0,.918-.237,1.487,1.487,0,0,0,.523-.536V37.772h-.861q-1.547,0-1.547,1.389a.848.848,0,0,0,.272.655A.986.986,0,0,0,151.366,40.066Zm10.072-.176a1.317,1.317,0,0,0,.967-.338,1.241,1.241,0,0,0,.334-.945h2.777a3.288,3.288,0,0,1-1.121,2.566,4.168,4.168,0,0,1-2.887,1,4.22,4.22,0,0,1-3.27-1.3,5.125,5.125,0,0,1-1.2-3.6v-.123a5.792,5.792,0,0,1,.532-2.544,3.872,3.872,0,0,1,1.534-1.7,4.573,4.573,0,0,1,2.373-.593,4.116,4.116,0,0,1,2.944,1.028,3.647,3.647,0,0,1,1.09,2.786h-2.777a1.626,1.626,0,0,0-.36-1.134,1.244,1.244,0,0,0-.967-.4q-1.151,0-1.345,1.468a10.357,10.357,0,0,0-.062,1.283,4.068,4.068,0,0,0,.343,1.986A1.187,1.187,0,0,0,161.438,39.891ZM169.894,42h-2.971V32.49h2.971Zm-3.146-11.962A1.322,1.322,0,0,1,167.2,29a1.943,1.943,0,0,1,2.373,0,1.405,1.405,0,0,1,0,2.074,1.943,1.943,0,0,1-2.373,0A1.322,1.322,0,0,1,166.747,30.038Zm4.6,7.119a5.613,5.613,0,0,1,.554-2.536,3.96,3.96,0,0,1,1.591-1.709,4.791,4.791,0,0,1,2.435-.6,4.373,4.373,0,0,1,3.366,1.323,5.076,5.076,0,0,1,1.23,3.6v.105a4.925,4.925,0,0,1-1.235,3.529,4.384,4.384,0,0,1-3.344,1.305,4.434,4.434,0,0,1-3.261-1.217,4.761,4.761,0,0,1-1.327-3.3Zm2.962.185a3.538,3.538,0,0,0,.413,1.934,1.376,1.376,0,0,0,1.222.615q1.582,0,1.617-2.435v-.3q0-2.558-1.635-2.558-1.485,0-1.608,2.206Zm2.021-8.842h3.129l-2.443,2.76-2.417,0Zm8.218,3.99.1,1.116a3.225,3.225,0,0,1,2.716-1.292,2.713,2.713,0,0,1,2.219.888,4.226,4.226,0,0,1,.76,2.672V42h-2.971V36a1.6,1.6,0,0,0-.29-1.059,1.342,1.342,0,0,0-1.055-.338,1.413,1.413,0,0,0-1.292.686V42h-2.962V32.49Z" transform="translate(285 4225)" fill="#12263f"/>
    <path id="Trazado_706792" data-name="Trazado 706792" d="M111.076,13.581q.185-1.046-1.028-1.6l-1.7-.677q-2.953-1.318-2.8-3.63a3.334,3.334,0,0,1,.7-1.9,4.227,4.227,0,0,1,1.8-1.3,6.379,6.379,0,0,1,2.5-.453,4.34,4.34,0,0,1,3,1.1,3.676,3.676,0,0,1,1.125,2.861h-2.566a1.831,1.831,0,0,0-.382-1.354,1.722,1.722,0,0,0-1.323-.5,2.667,2.667,0,0,0-1.529.4,1.641,1.641,0,0,0-.773,1.147q-.167.958,1.283,1.521l1.16.439.668.308q2.593,1.283,2.426,3.6a3.477,3.477,0,0,1-.725,1.956,4.088,4.088,0,0,1-1.758,1.261,6.261,6.261,0,0,1-2.448.413,5.483,5.483,0,0,1-2.426-.571,3.767,3.767,0,0,1-1.617-1.538,3.983,3.983,0,0,1-.483-2.109l2.575.009q-.123,2.083,2.048,2.118a2.69,2.69,0,0,0,1.547-.413A1.608,1.608,0,0,0,111.076,13.581Zm9.062-6.267a3.814,3.814,0,0,1,2.167.646,3.638,3.638,0,0,1,1.336,1.731,5.357,5.357,0,0,1,.3,2.448,5.786,5.786,0,0,1-1.578,3.669,4.455,4.455,0,0,1-3.4,1.367,3.8,3.8,0,0,1-2.145-.637,3.624,3.624,0,0,1-1.336-1.718,5.239,5.239,0,0,1-.308-2.426,5.957,5.957,0,0,1,1.6-3.744A4.363,4.363,0,0,1,120.138,7.314Zm-2.5,5.979a2.194,2.194,0,0,0,.4,1.33,1.314,1.314,0,0,0,1.063.5,1.926,1.926,0,0,0,1.793-1.049,5.227,5.227,0,0,0,.606-2.848,2.387,2.387,0,0,0-.409-1.347,1.293,1.293,0,0,0-1.068-.522,1.929,1.929,0,0,0-1.771,1.04A5.173,5.173,0,0,0,117.633,13.294ZM125.323,17l1.327-7.655h-1.371L125.6,7.49l1.371-.009.123-.949a3.748,3.748,0,0,1,1.239-2.386,3.751,3.751,0,0,1,2.575-.848,8.246,8.246,0,0,1,1.345.184l-.22,1.97a3.073,3.073,0,0,0-.729-.105,1.817,1.817,0,0,0-1.129.335,1.525,1.525,0,0,0-.584,1.033l-.132.777H131.3l-.325,1.854h-1.828L127.819,17ZM136.028,5.152l-.413,2.338H137.2l-.325,1.863H135.29l-.809,4.764a1.211,1.211,0,0,0,.07.686q.123.237.6.255.141.009.756-.044l-.176,1.942a4.169,4.169,0,0,1-1.424.2,2.234,2.234,0,0,1-1.819-.765,2.763,2.763,0,0,1-.492-2.021l.817-5.019h-1.345l.325-1.863h1.345l.4-2.338Zm9.545,8.385,2.259-6.047h2.47l-4,9.51h-2.074l-.7-5.95L140.748,17h-2.074l-.7-9.51h2.32l.149,5.985,2.716-5.985h1.793ZM155.408,17a2.566,2.566,0,0,1-.1-.861,3.221,3.221,0,0,1-2.426,1.037,2.919,2.919,0,0,1-2.07-.813,2.46,2.46,0,0,1-.769-1.964,2.843,2.843,0,0,1,1.305-2.386,5.924,5.924,0,0,1,3.335-.831l1.16.018.123-.571a1.984,1.984,0,0,0,.026-.554.952.952,0,0,0-.312-.646,1.075,1.075,0,0,0-.708-.242,1.514,1.514,0,0,0-.984.286,1.384,1.384,0,0,0-.519.875l-2.487.009a2.764,2.764,0,0,1,1.252-2.21,4.85,4.85,0,0,1,2.94-.831,3.507,3.507,0,0,1,2.531.962,2.816,2.816,0,0,1,.765,2.386l-.729,4.553-.044.563a2.714,2.714,0,0,0,.149,1.055l-.009.167ZM153.5,15.251a2.27,2.27,0,0,0,1.872-.932l.308-1.644-.861-.009a2.406,2.406,0,0,0-1.978.835,1.454,1.454,0,0,0-.272.712.844.844,0,0,0,.2.751A1,1,0,0,0,153.5,15.251Zm12.366-5.379a5.117,5.117,0,0,0-.835-.088,2.4,2.4,0,0,0-2.1.993L161.833,17h-2.479l1.652-9.51,2.329-.009-.229,1.16A2.615,2.615,0,0,1,165.322,7.3a3.615,3.615,0,0,1,.861.123Zm4.3,7.3a4.137,4.137,0,0,1-2.21-.611,3.7,3.7,0,0,1-1.437-1.652,4.605,4.605,0,0,1-.369-2.316l.026-.352a6.148,6.148,0,0,1,.809-2.549,4.884,4.884,0,0,1,1.74-1.789,4.306,4.306,0,0,1,2.355-.593,3.29,3.29,0,0,1,2.782,1.351A4.631,4.631,0,0,1,174.577,12l-.141,1.083h-5.827a2.041,2.041,0,0,0,.448,1.477,1.711,1.711,0,0,0,1.318.571,3.041,3.041,0,0,0,2.373-1.055l1.134,1.406a3.527,3.527,0,0,1-1.547,1.261A5.059,5.059,0,0,1,170.165,17.176Zm.791-7.813a1.761,1.761,0,0,0-1.217.431,3.784,3.784,0,0,0-.954,1.556h3.41l.053-.229a2.33,2.33,0,0,0,.009-.668,1.276,1.276,0,0,0-.431-.8A1.35,1.35,0,0,0,170.956,9.362ZM80.776,37.175a5.809,5.809,0,0,1,.976-3.56,3.211,3.211,0,0,1,2.725-1.3,2.731,2.731,0,0,1,2.145,1V28.5h2.971V42H86.928l-.149-1.02a2.8,2.8,0,0,1-2.32,1.2,3.205,3.205,0,0,1-2.689-1.3A5.993,5.993,0,0,1,80.776,37.175Zm2.962.185q0,2.531,1.477,2.531a1.458,1.458,0,0,0,1.406-.826V35.443a1.419,1.419,0,0,0-1.389-.844q-1.371,0-1.485,2.215Zm12.138,4.816a4.889,4.889,0,0,1-3.542-1.305,4.507,4.507,0,0,1-1.354-3.4v-.246a5.84,5.84,0,0,1,.541-2.575A3.955,3.955,0,0,1,93.1,32.925a4.763,4.763,0,0,1,2.461-.611,4.117,4.117,0,0,1,3.164,1.244,4.887,4.887,0,0,1,1.16,3.467v1.151H93.995a2.135,2.135,0,0,0,.694,1.257,2.066,2.066,0,0,0,1.389.457,2.662,2.662,0,0,0,2.2-.984l1.354,1.6a3.784,3.784,0,0,1-1.569,1.217A5.3,5.3,0,0,1,95.875,42.176ZM95.542,34.6q-1.3,0-1.547,1.723h2.988v-.229a1.467,1.467,0,0,0-.36-1.1A1.434,1.434,0,0,0,95.542,34.6Zm14.036,5.291a1.317,1.317,0,0,0,.967-.338,1.241,1.241,0,0,0,.334-.945h2.777a3.288,3.288,0,0,1-1.121,2.566,4.168,4.168,0,0,1-2.887,1,4.22,4.22,0,0,1-3.27-1.3,5.125,5.125,0,0,1-1.2-3.6v-.123a5.792,5.792,0,0,1,.532-2.544,3.872,3.872,0,0,1,1.534-1.7,4.573,4.573,0,0,1,2.373-.593,4.116,4.116,0,0,1,2.944,1.028,3.647,3.647,0,0,1,1.09,2.786h-2.777a1.626,1.626,0,0,0-.36-1.134,1.244,1.244,0,0,0-.967-.4q-1.151,0-1.345,1.468a10.357,10.357,0,0,0-.062,1.283,4.068,4.068,0,0,0,.343,1.986A1.187,1.187,0,0,0,109.578,39.891Zm4.957-2.733a5.613,5.613,0,0,1,.554-2.536,3.96,3.96,0,0,1,1.591-1.709,4.791,4.791,0,0,1,2.435-.6,4.373,4.373,0,0,1,3.366,1.323,5.076,5.076,0,0,1,1.23,3.6v.105a4.925,4.925,0,0,1-1.235,3.529,4.384,4.384,0,0,1-3.344,1.305,4.434,4.434,0,0,1-3.261-1.217,4.761,4.761,0,0,1-1.327-3.3Zm2.962.185a3.538,3.538,0,0,0,.413,1.934,1.376,1.376,0,0,0,1.222.615q1.582,0,1.617-2.435v-.3q0-2.558-1.635-2.558-1.485,0-1.608,2.206Zm10.239-4.852.1,1.116a3.225,3.225,0,0,1,2.716-1.292,2.713,2.713,0,0,1,2.219.888,4.226,4.226,0,0,1,.76,2.672V42h-2.971V36a1.6,1.6,0,0,0-.29-1.059,1.342,1.342,0,0,0-1.055-.338,1.413,1.413,0,0,0-1.292.686V42h-2.962V32.49Zm10.881-2.364V32.49h1.564v2.057h-1.564V38.9a1.111,1.111,0,0,0,.193.747,1.037,1.037,0,0,0,.765.211,4.345,4.345,0,0,0,.738-.053v2.118a5.466,5.466,0,0,1-1.67.255,3.1,3.1,0,0,1-2.259-.721,2.954,2.954,0,0,1-.729-2.188v-4.72h-1.213V32.49h1.213V30.126Zm8.481,5.045-.976-.07a1.752,1.752,0,0,0-1.793.879V42h-2.962V32.49h2.777l.1,1.222a2.294,2.294,0,0,1,2.083-1.4,2.888,2.888,0,0,1,.826.105Zm.378,1.986a5.613,5.613,0,0,1,.554-2.536,3.96,3.96,0,0,1,1.591-1.709,4.791,4.791,0,0,1,2.435-.6,4.373,4.373,0,0,1,3.366,1.323,5.076,5.076,0,0,1,1.23,3.6v.105a4.925,4.925,0,0,1-1.235,3.529,4.384,4.384,0,0,1-3.344,1.305,4.434,4.434,0,0,1-3.261-1.217,4.761,4.761,0,0,1-1.327-3.3Zm2.962.185a3.538,3.538,0,0,0,.413,1.934,1.376,1.376,0,0,0,1.222.615q1.582,0,1.617-2.435v-.3q0-2.558-1.635-2.558-1.485,0-1.608,2.206ZM161.082,42h-2.971V28.5h2.971Zm7.181,0a3.344,3.344,0,0,1-.281-.853,2.754,2.754,0,0,1-2.285,1.028,3.374,3.374,0,0,1-2.285-.813,2.588,2.588,0,0,1-.94-2.043,2.66,2.66,0,0,1,1.143-2.338,5.821,5.821,0,0,1,3.322-.791h.914v-.5q0-1.316-1.134-1.316a.927.927,0,0,0-1.055,1.042H162.7a2.655,2.655,0,0,1,1.173-2.239,4.931,4.931,0,0,1,2.993-.86,4.323,4.323,0,0,1,2.874.888,3.086,3.086,0,0,1,1.081,2.435v4.21a4.311,4.311,0,0,0,.4,2V42Zm-1.854-1.934a1.652,1.652,0,0,0,.918-.237,1.487,1.487,0,0,0,.523-.536V37.772h-.861q-1.547,0-1.547,1.389a.848.848,0,0,0,.272.655A.986.986,0,0,0,166.408,40.066Zm5.678-2.892a5.809,5.809,0,0,1,.976-3.56,3.211,3.211,0,0,1,2.725-1.3,2.731,2.731,0,0,1,2.145,1V28.5H180.9V42h-2.663l-.149-1.02a2.8,2.8,0,0,1-2.32,1.2,3.205,3.205,0,0,1-2.689-1.3A5.993,5.993,0,0,1,172.085,37.175Zm2.962.185q0,2.531,1.477,2.531a1.458,1.458,0,0,0,1.406-.826V35.443a1.419,1.419,0,0,0-1.389-.844q-1.371,0-1.485,2.215Zm7.163-.2a5.613,5.613,0,0,1,.554-2.536,3.96,3.96,0,0,1,1.591-1.709,4.791,4.791,0,0,1,2.435-.6,4.373,4.373,0,0,1,3.366,1.323,5.076,5.076,0,0,1,1.23,3.6v.105a4.925,4.925,0,0,1-1.235,3.529,4.384,4.384,0,0,1-3.344,1.305,4.434,4.434,0,0,1-3.261-1.217,4.761,4.761,0,0,1-1.327-3.3Zm2.962.185a3.538,3.538,0,0,0,.413,1.934,1.376,1.376,0,0,0,1.222.615q1.582,0,1.617-2.435v-.3q0-2.558-1.635-2.558-1.485,0-1.608,2.206Zm13.271-2.171-.976-.07a1.752,1.752,0,0,0-1.793.879V42h-2.962V32.49h2.777l.1,1.222a2.294,2.294,0,0,1,2.083-1.4,2.888,2.888,0,0,1,.826.105Z" transform="translate(1056 4224)" fill="#fff"/>
    <path id="Trazado_706793" data-name="Trazado 706793" d="M116.076,13.581q.185-1.046-1.028-1.6l-1.7-.677q-2.953-1.318-2.8-3.63a3.334,3.334,0,0,1,.7-1.9,4.227,4.227,0,0,1,1.8-1.3,6.379,6.379,0,0,1,2.5-.453,4.34,4.34,0,0,1,3,1.1,3.676,3.676,0,0,1,1.125,2.861h-2.566a1.831,1.831,0,0,0-.382-1.354,1.722,1.722,0,0,0-1.323-.5,2.667,2.667,0,0,0-1.529.4,1.641,1.641,0,0,0-.773,1.147q-.167.958,1.283,1.521l1.16.439.668.308q2.593,1.283,2.426,3.6a3.477,3.477,0,0,1-.725,1.956,4.088,4.088,0,0,1-1.758,1.261,6.261,6.261,0,0,1-2.448.413,5.483,5.483,0,0,1-2.426-.571,3.767,3.767,0,0,1-1.617-1.538,3.983,3.983,0,0,1-.483-2.109l2.575.009q-.123,2.083,2.048,2.118a2.69,2.69,0,0,0,1.547-.413A1.608,1.608,0,0,0,116.076,13.581Zm9.062-6.267a3.814,3.814,0,0,1,2.167.646,3.638,3.638,0,0,1,1.336,1.731,5.357,5.357,0,0,1,.3,2.448,5.786,5.786,0,0,1-1.578,3.669,4.455,4.455,0,0,1-3.4,1.367,3.8,3.8,0,0,1-2.145-.637,3.624,3.624,0,0,1-1.336-1.718,5.239,5.239,0,0,1-.308-2.426,5.957,5.957,0,0,1,1.6-3.744A4.363,4.363,0,0,1,125.138,7.314Zm-2.5,5.979a2.194,2.194,0,0,0,.4,1.33,1.314,1.314,0,0,0,1.063.5,1.926,1.926,0,0,0,1.793-1.049,5.227,5.227,0,0,0,.606-2.848,2.387,2.387,0,0,0-.409-1.347,1.293,1.293,0,0,0-1.068-.522,1.929,1.929,0,0,0-1.771,1.04A5.173,5.173,0,0,0,122.633,13.294ZM130.323,17l1.327-7.655h-1.371L130.6,7.49l1.371-.009.123-.949a3.748,3.748,0,0,1,1.239-2.386,3.751,3.751,0,0,1,2.575-.848,8.246,8.246,0,0,1,1.345.184l-.22,1.97a3.073,3.073,0,0,0-.729-.105,1.817,1.817,0,0,0-1.129.335,1.525,1.525,0,0,0-.584,1.033l-.132.777H136.3l-.325,1.854h-1.828L132.819,17ZM141.028,5.152l-.413,2.338H142.2l-.325,1.863H140.29l-.809,4.764a1.211,1.211,0,0,0,.07.686q.123.237.6.255.141.009.756-.044l-.176,1.942a4.169,4.169,0,0,1-1.424.2,2.234,2.234,0,0,1-1.819-.765,2.763,2.763,0,0,1-.492-2.021l.817-5.019h-1.345l.325-1.863h1.345l.4-2.338Zm9.545,8.385,2.259-6.047h2.47l-4,9.51h-2.074l-.7-5.95L145.748,17h-2.074l-.7-9.51h2.32l.149,5.985,2.716-5.985h1.793ZM160.408,17a2.566,2.566,0,0,1-.1-.861,3.221,3.221,0,0,1-2.426,1.037,2.919,2.919,0,0,1-2.07-.813,2.46,2.46,0,0,1-.769-1.964,2.843,2.843,0,0,1,1.305-2.386,5.924,5.924,0,0,1,3.335-.831l1.16.018.123-.571a1.984,1.984,0,0,0,.026-.554.952.952,0,0,0-.312-.646,1.075,1.075,0,0,0-.708-.242,1.514,1.514,0,0,0-.984.286,1.384,1.384,0,0,0-.519.875l-2.487.009a2.764,2.764,0,0,1,1.252-2.21,4.85,4.85,0,0,1,2.94-.831,3.507,3.507,0,0,1,2.531.962,2.816,2.816,0,0,1,.765,2.386l-.729,4.553-.044.563a2.714,2.714,0,0,0,.149,1.055l-.009.167ZM158.5,15.251a2.27,2.27,0,0,0,1.872-.932l.308-1.644-.861-.009a2.406,2.406,0,0,0-1.978.835,1.454,1.454,0,0,0-.272.712.844.844,0,0,0,.2.751A1,1,0,0,0,158.5,15.251Zm12.366-5.379a5.117,5.117,0,0,0-.835-.088,2.4,2.4,0,0,0-2.1.993L166.833,17h-2.479l1.652-9.51,2.329-.009-.229,1.16A2.615,2.615,0,0,1,170.322,7.3a3.615,3.615,0,0,1,.861.123Zm4.3,7.3a4.137,4.137,0,0,1-2.21-.611,3.7,3.7,0,0,1-1.437-1.652,4.605,4.605,0,0,1-.369-2.316l.026-.352a6.148,6.148,0,0,1,.809-2.549,4.884,4.884,0,0,1,1.74-1.789,4.306,4.306,0,0,1,2.355-.593,3.29,3.29,0,0,1,2.782,1.351A4.631,4.631,0,0,1,179.577,12l-.141,1.083h-5.827a2.041,2.041,0,0,0,.448,1.477,1.711,1.711,0,0,0,1.318.571,3.041,3.041,0,0,0,2.373-1.055l1.134,1.406a3.527,3.527,0,0,1-1.547,1.261A5.059,5.059,0,0,1,175.165,17.176Zm.791-7.813a1.761,1.761,0,0,0-1.217.431,3.784,3.784,0,0,0-.954,1.556h3.41l.053-.229a2.33,2.33,0,0,0,.009-.668,1.276,1.276,0,0,0-.431-.8A1.35,1.35,0,0,0,175.956,9.362ZM91.229,37.175a5.809,5.809,0,0,1,.976-3.56,3.211,3.211,0,0,1,2.725-1.3,2.731,2.731,0,0,1,2.145,1V28.5h2.971V42H97.382l-.149-1.02a2.8,2.8,0,0,1-2.32,1.2,3.205,3.205,0,0,1-2.689-1.3A5.993,5.993,0,0,1,91.229,37.175Zm2.962.185q0,2.531,1.477,2.531a1.458,1.458,0,0,0,1.406-.826V35.443a1.419,1.419,0,0,0-1.389-.844q-1.371,0-1.485,2.215Zm12.138,4.816a4.889,4.889,0,0,1-3.542-1.305,4.507,4.507,0,0,1-1.354-3.4v-.246a5.84,5.84,0,0,1,.541-2.575,3.955,3.955,0,0,1,1.578-1.727,4.763,4.763,0,0,1,2.461-.611,4.117,4.117,0,0,1,3.164,1.244,4.887,4.887,0,0,1,1.16,3.467v1.151h-5.889a2.135,2.135,0,0,0,.694,1.257,2.066,2.066,0,0,0,1.389.457,2.662,2.662,0,0,0,2.2-.984l1.354,1.6a3.784,3.784,0,0,1-1.569,1.217A5.3,5.3,0,0,1,106.329,42.176ZM106,34.6q-1.3,0-1.547,1.723h2.988v-.229a1.467,1.467,0,0,0-.36-1.1A1.434,1.434,0,0,0,106,34.6ZM121.367,42a3.344,3.344,0,0,1-.281-.853,2.754,2.754,0,0,1-2.285,1.028,3.374,3.374,0,0,1-2.285-.813,2.588,2.588,0,0,1-.94-2.043,2.66,2.66,0,0,1,1.143-2.338,5.821,5.821,0,0,1,3.322-.791h.914v-.5q0-1.316-1.134-1.316a.927.927,0,0,0-1.055,1.042H115.8a2.655,2.655,0,0,1,1.173-2.239,4.931,4.931,0,0,1,2.993-.86,4.323,4.323,0,0,1,2.874.888,3.086,3.086,0,0,1,1.081,2.435v4.21a4.311,4.311,0,0,0,.4,2V42Zm-1.854-1.934a1.652,1.652,0,0,0,.918-.237,1.487,1.487,0,0,0,.523-.536V37.772h-.861q-1.547,0-1.547,1.389a.848.848,0,0,0,.272.655A.986.986,0,0,0,119.513,40.066Zm14.88-2.751a5.735,5.735,0,0,1-1,3.538,3.2,3.2,0,0,1-2.694,1.323,2.742,2.742,0,0,1-2.153-.958v4.438h-2.962V32.49h2.769l.088.879a2.742,2.742,0,0,1,2.241-1.055,3.224,3.224,0,0,1,2.733,1.3,5.805,5.805,0,0,1,.976,3.564Zm-2.962-.185q0-2.531-1.477-2.531a1.394,1.394,0,0,0-1.406.756V39.1a1.439,1.439,0,0,0,1.424.791q1.415,0,1.459-2.443ZM138.822,42h-2.971V28.5h2.971Zm4.948,0H140.8V32.49h2.971Zm-3.146-11.962A1.322,1.322,0,0,1,141.081,29a1.943,1.943,0,0,1,2.373,0,1.405,1.405,0,0,1,0,2.074,1.943,1.943,0,0,1-2.373,0A1.322,1.322,0,0,1,140.624,30.038Zm8.991,9.853a1.317,1.317,0,0,0,.967-.338,1.241,1.241,0,0,0,.334-.945h2.777a3.288,3.288,0,0,1-1.121,2.566,4.168,4.168,0,0,1-2.887,1,4.22,4.22,0,0,1-3.27-1.3,5.125,5.125,0,0,1-1.2-3.6v-.123a5.792,5.792,0,0,1,.532-2.544,3.872,3.872,0,0,1,1.534-1.7,4.573,4.573,0,0,1,2.373-.593,4.116,4.116,0,0,1,2.944,1.028,3.647,3.647,0,0,1,1.09,2.786h-2.777a1.626,1.626,0,0,0-.36-1.134,1.244,1.244,0,0,0-.967-.4q-1.151,0-1.345,1.468a10.357,10.357,0,0,0-.062,1.283,4.068,4.068,0,0,0,.343,1.986A1.187,1.187,0,0,0,149.615,39.891ZM160.3,42a3.344,3.344,0,0,1-.281-.853,2.754,2.754,0,0,1-2.285,1.028,3.374,3.374,0,0,1-2.285-.813,2.588,2.588,0,0,1-.94-2.043,2.66,2.66,0,0,1,1.143-2.338,5.821,5.821,0,0,1,3.322-.791h.914v-.5q0-1.316-1.134-1.316a.927.927,0,0,0-1.055,1.042h-2.962a2.655,2.655,0,0,1,1.173-2.239,4.931,4.931,0,0,1,2.993-.86,4.323,4.323,0,0,1,2.874.888,3.086,3.086,0,0,1,1.081,2.435v4.21a4.311,4.311,0,0,0,.4,2V42Zm-1.854-1.934a1.652,1.652,0,0,0,.918-.237,1.487,1.487,0,0,0,.523-.536V37.772h-.861q-1.547,0-1.547,1.389a.848.848,0,0,0,.272.655A.986.986,0,0,0,158.448,40.066Zm10.072-.176a1.317,1.317,0,0,0,.967-.338,1.241,1.241,0,0,0,.334-.945H172.6a3.288,3.288,0,0,1-1.121,2.566,4.168,4.168,0,0,1-2.887,1,4.22,4.22,0,0,1-3.27-1.3,5.125,5.125,0,0,1-1.2-3.6v-.123a5.792,5.792,0,0,1,.532-2.544,3.872,3.872,0,0,1,1.534-1.7,4.573,4.573,0,0,1,2.373-.593,4.116,4.116,0,0,1,2.944,1.028,3.647,3.647,0,0,1,1.09,2.786h-2.777a1.626,1.626,0,0,0-.36-1.134,1.244,1.244,0,0,0-.967-.4q-1.151,0-1.345,1.468a10.357,10.357,0,0,0-.062,1.283,4.068,4.068,0,0,0,.343,1.986A1.187,1.187,0,0,0,168.521,39.891ZM176.976,42H174V32.49h2.971Zm-3.146-11.962A1.322,1.322,0,0,1,174.286,29a1.943,1.943,0,0,1,2.373,0,1.405,1.405,0,0,1,0,2.074,1.943,1.943,0,0,1-2.373,0A1.322,1.322,0,0,1,173.829,30.038Zm4.6,7.119a5.613,5.613,0,0,1,.554-2.536,3.96,3.96,0,0,1,1.591-1.709,4.791,4.791,0,0,1,2.435-.6,4.373,4.373,0,0,1,3.366,1.323,5.076,5.076,0,0,1,1.23,3.6v.105a4.925,4.925,0,0,1-1.235,3.529,4.384,4.384,0,0,1-3.344,1.305,4.434,4.434,0,0,1-3.261-1.217,4.761,4.761,0,0,1-1.327-3.3Zm2.962.185a3.538,3.538,0,0,0,.413,1.934,1.376,1.376,0,0,0,1.222.615q1.582,0,1.617-2.435v-.3q0-2.558-1.635-2.558-1.485,0-1.608,2.206Zm2.021-8.842h3.129l-2.443,2.76-2.417,0Zm8.218,3.99.1,1.116a3.225,3.225,0,0,1,2.716-1.292,2.713,2.713,0,0,1,2.219.888,4.226,4.226,0,0,1,.76,2.672V42h-2.971V36a1.6,1.6,0,0,0-.29-1.059A1.342,1.342,0,0,0,193.1,34.6a1.413,1.413,0,0,0-1.292.686V42H188.85V32.49Z" transform="translate(265 4364)" fill="#fff"/>
    <path id="Trazado_706794" data-name="Trazado 706794" d="M62.336,13.6a1.268,1.268,0,0,0-.479-1.055,5.954,5.954,0,0,0-1.683-.782,16.147,16.147,0,0,1-1.969-.782q-2.487-1.222-2.487-3.357a3.011,3.011,0,0,1,.62-1.876A4.008,4.008,0,0,1,58.091,4.48a6.823,6.823,0,0,1,2.549-.453,5.969,5.969,0,0,1,2.474.492,3.917,3.917,0,0,1,1.7,1.4A3.661,3.661,0,0,1,65.421,8H62.345a1.547,1.547,0,0,0-.479-1.213,1.867,1.867,0,0,0-1.3-.431,2.106,2.106,0,0,0-1.305.365,1.074,1.074,0,0,0,.048,1.819,6.65,6.65,0,0,0,1.854.826,11.36,11.36,0,0,1,2.18.918,3.663,3.663,0,0,1,2.074,3.3,3.125,3.125,0,0,1-1.266,2.637,5.629,5.629,0,0,1-3.472.958,6.888,6.888,0,0,1-2.817-.558,4.247,4.247,0,0,1-1.9-1.529,3.985,3.985,0,0,1-.637-2.237h3.094a1.963,1.963,0,0,0,.532,1.516,2.513,2.513,0,0,0,1.727.488,1.985,1.985,0,0,0,1.208-.33A1.088,1.088,0,0,0,62.336,13.6Zm4.157-1.441a5.613,5.613,0,0,1,.554-2.536,3.96,3.96,0,0,1,1.591-1.709,4.791,4.791,0,0,1,2.435-.6,4.373,4.373,0,0,1,3.366,1.323,5.076,5.076,0,0,1,1.23,3.6v.105a4.925,4.925,0,0,1-1.235,3.529,4.384,4.384,0,0,1-3.344,1.305,4.434,4.434,0,0,1-3.261-1.217,4.761,4.761,0,0,1-1.327-3.3Zm2.962.185a3.538,3.538,0,0,0,.413,1.934,1.376,1.376,0,0,0,1.222.615q1.582,0,1.617-2.435v-.3q0-2.558-1.635-2.558-1.485,0-1.608,2.206ZM80.1,17H77.128V3.5H80.1Zm7.488-1.028a3.054,3.054,0,0,1-2.54,1.2,3,3,0,0,1-2.369-.91,3.826,3.826,0,0,1-.8-2.615V7.49h2.962v6.179a1.065,1.065,0,0,0,1.187,1.222,1.548,1.548,0,0,0,1.45-.729V7.49h2.979V17H87.675ZM96.1,14.891a1.317,1.317,0,0,0,.967-.338,1.241,1.241,0,0,0,.334-.945h2.777a3.288,3.288,0,0,1-1.121,2.566,4.168,4.168,0,0,1-2.887,1,4.22,4.22,0,0,1-3.27-1.3,5.125,5.125,0,0,1-1.2-3.6v-.123A5.792,5.792,0,0,1,92.232,9.6a3.872,3.872,0,0,1,1.534-1.7,4.573,4.573,0,0,1,2.373-.593,4.116,4.116,0,0,1,2.944,1.028,3.647,3.647,0,0,1,1.09,2.786H97.4A1.626,1.626,0,0,0,97.036,10a1.244,1.244,0,0,0-.967-.4q-1.151,0-1.345,1.468a10.357,10.357,0,0,0-.062,1.283,4.068,4.068,0,0,0,.343,1.986A1.187,1.187,0,0,0,96.1,14.891ZM104.55,17H101.58V7.49h2.971ZM101.4,5.038A1.322,1.322,0,0,1,101.861,4a1.943,1.943,0,0,1,2.373,0,1.322,1.322,0,0,1,.457,1.037,1.322,1.322,0,0,1-.457,1.037,1.943,1.943,0,0,1-2.373,0A1.322,1.322,0,0,1,101.4,5.038Zm4.6,7.119a5.613,5.613,0,0,1,.554-2.536,3.96,3.96,0,0,1,1.591-1.709,4.791,4.791,0,0,1,2.435-.6,4.373,4.373,0,0,1,3.366,1.323,5.076,5.076,0,0,1,1.23,3.6v.105a4.925,4.925,0,0,1-1.235,3.529,4.384,4.384,0,0,1-3.344,1.305,4.434,4.434,0,0,1-3.261-1.217,4.761,4.761,0,0,1-1.327-3.3Zm2.962.185a3.538,3.538,0,0,0,.413,1.934,1.376,1.376,0,0,0,1.222.615q1.582,0,1.617-2.435v-.3q0-2.558-1.635-2.558-1.485,0-1.608,2.206ZM110.984,3.5h3.129l-2.443,2.76-2.417,0ZM119.2,7.49l.1,1.116a3.225,3.225,0,0,1,2.716-1.292,2.713,2.713,0,0,1,2.219.888,4.226,4.226,0,0,1,.76,2.672V17h-2.971V11a1.6,1.6,0,0,0-.29-1.059,1.342,1.342,0,0,0-1.055-.338,1.413,1.413,0,0,0-1.292.686V17h-2.962V7.49Zm11.54,4.685a5.809,5.809,0,0,1,.976-3.56,3.211,3.211,0,0,1,2.725-1.3,2.731,2.731,0,0,1,2.145,1V3.5h2.971V17h-2.663l-.149-1.02a2.8,2.8,0,0,1-2.32,1.2,3.205,3.205,0,0,1-2.689-1.3A5.993,5.993,0,0,1,130.742,12.175Zm2.962.185q0,2.531,1.477,2.531a1.458,1.458,0,0,0,1.406-.826V10.443A1.419,1.419,0,0,0,135.2,9.6q-1.371,0-1.485,2.215Zm12.138,4.816a4.889,4.889,0,0,1-3.542-1.305,4.507,4.507,0,0,1-1.354-3.4v-.246a5.84,5.84,0,0,1,.541-2.575,3.955,3.955,0,0,1,1.578-1.727,4.763,4.763,0,0,1,2.461-.611,4.117,4.117,0,0,1,3.164,1.244,4.887,4.887,0,0,1,1.16,3.467v1.151H143.96a2.135,2.135,0,0,0,.694,1.257,2.066,2.066,0,0,0,1.389.457,2.662,2.662,0,0,0,2.2-.984l1.354,1.6a3.784,3.784,0,0,1-1.569,1.217A5.3,5.3,0,0,1,145.841,17.176ZM145.507,9.6q-1.3,0-1.547,1.723h2.988v-.229a1.467,1.467,0,0,0-.36-1.1A1.434,1.434,0,0,0,145.507,9.6Zm14.722,4.72q.141-.7-.976-1.02l-.8-.2q-2.839-.782-2.76-2.76a2.731,2.731,0,0,1,1.191-2.193,4.434,4.434,0,0,1,2.764-.831,3.978,3.978,0,0,1,2.6.853,2.809,2.809,0,0,1,1.011,2.224l-2.461-.009a1.084,1.084,0,0,0-1.213-1.239,1.745,1.745,0,0,0-1.006.29,1.194,1.194,0,0,0-.523.782q-.132.7,1.063.993l.352.079a7.071,7.071,0,0,1,1.854.664,2.8,2.8,0,0,1,.989.927,2.3,2.3,0,0,1,.321,1.327,2.533,2.533,0,0,1-.584,1.582,3.577,3.577,0,0,1-1.529,1.046,5.328,5.328,0,0,1-2.043.343,4.015,4.015,0,0,1-2.637-.91,2.933,2.933,0,0,1-1.072-2.307l2.338.018a1.285,1.285,0,0,0,1.459,1.38,2.076,2.076,0,0,0,1.129-.281A1.111,1.111,0,0,0,160.229,14.319Zm8.991-7a3.814,3.814,0,0,1,2.167.646,3.638,3.638,0,0,1,1.336,1.731,5.357,5.357,0,0,1,.3,2.448,5.786,5.786,0,0,1-1.578,3.669,4.455,4.455,0,0,1-3.4,1.367,3.8,3.8,0,0,1-2.145-.637,3.624,3.624,0,0,1-1.336-1.718,5.239,5.239,0,0,1-.308-2.426,5.957,5.957,0,0,1,1.6-3.744A4.363,4.363,0,0,1,169.22,7.314Zm-2.5,5.979a2.194,2.194,0,0,0,.4,1.33,1.314,1.314,0,0,0,1.063.5,1.926,1.926,0,0,0,1.793-1.049,5.227,5.227,0,0,0,.606-2.848,2.387,2.387,0,0,0-.409-1.347,1.293,1.293,0,0,0-1.068-.522,1.929,1.929,0,0,0-1.771,1.04A5.173,5.173,0,0,0,166.715,13.294ZM174.406,17l1.327-7.655h-1.371l.325-1.854,1.371-.009.123-.949a3.748,3.748,0,0,1,1.239-2.386A3.751,3.751,0,0,1,180,3.3a8.246,8.246,0,0,1,1.345.184l-.22,1.97a3.073,3.073,0,0,0-.729-.105,1.817,1.817,0,0,0-1.129.335,1.525,1.525,0,0,0-.584,1.033l-.132.777h1.837l-.325,1.854h-1.828L176.9,17ZM185.111,5.152,184.7,7.49h1.582l-.325,1.863h-1.582l-.809,4.764a1.211,1.211,0,0,0,.07.686q.123.237.6.255.141.009.756-.044l-.176,1.942a4.169,4.169,0,0,1-1.424.2,2.234,2.234,0,0,1-1.819-.765,2.763,2.763,0,0,1-.492-2.021l.817-5.019h-1.345l.325-1.863h1.345l.4-2.338Zm9.545,8.385,2.259-6.047h2.47l-4,9.51h-2.074l-.7-5.95L189.831,17h-2.074l-.7-9.51h2.32l.149,5.985,2.716-5.985h1.793ZM204.491,17a2.566,2.566,0,0,1-.1-.861,3.221,3.221,0,0,1-2.426,1.037,2.919,2.919,0,0,1-2.07-.813,2.46,2.46,0,0,1-.769-1.964,2.843,2.843,0,0,1,1.305-2.386,5.924,5.924,0,0,1,3.335-.831l1.16.018.123-.571a1.984,1.984,0,0,0,.026-.554.952.952,0,0,0-.312-.646,1.075,1.075,0,0,0-.708-.242,1.514,1.514,0,0,0-.984.286,1.384,1.384,0,0,0-.519.875l-2.487.009a2.764,2.764,0,0,1,1.252-2.21,4.85,4.85,0,0,1,2.94-.831,3.507,3.507,0,0,1,2.531.962,2.816,2.816,0,0,1,.765,2.386l-.729,4.553-.044.563a2.714,2.714,0,0,0,.149,1.055l-.009.167Zm-1.907-1.749a2.27,2.27,0,0,0,1.872-.932l.308-1.644-.861-.009a2.406,2.406,0,0,0-1.978.835,1.454,1.454,0,0,0-.272.712.844.844,0,0,0,.2.751A1,1,0,0,0,202.583,15.251ZM214.95,9.872a5.117,5.117,0,0,0-.835-.088,2.4,2.4,0,0,0-2.1.993L210.916,17h-2.479l1.652-9.51,2.329-.009-.229,1.16A2.615,2.615,0,0,1,214.4,7.3a3.615,3.615,0,0,1,.861.123Zm4.3,7.3a4.137,4.137,0,0,1-2.21-.611,3.7,3.7,0,0,1-1.437-1.652,4.605,4.605,0,0,1-.369-2.316l.026-.352a6.148,6.148,0,0,1,.809-2.549,4.884,4.884,0,0,1,1.74-1.789,4.306,4.306,0,0,1,2.355-.593,3.29,3.29,0,0,1,2.782,1.351A4.631,4.631,0,0,1,223.66,12l-.141,1.083h-5.827a2.041,2.041,0,0,0,.448,1.477,1.711,1.711,0,0,0,1.318.571,3.041,3.041,0,0,0,2.373-1.055l1.134,1.406a3.527,3.527,0,0,1-1.547,1.261A5.059,5.059,0,0,1,219.248,17.176Zm.791-7.813a1.761,1.761,0,0,0-1.217.431,3.784,3.784,0,0,0-.954,1.556h3.41l.053-.229a2.33,2.33,0,0,0,.009-.668,1.276,1.276,0,0,0-.431-.8A1.35,1.35,0,0,0,220.039,9.362ZM89.332,42.176a4.889,4.889,0,0,1-3.542-1.305,4.507,4.507,0,0,1-1.354-3.4v-.246a5.84,5.84,0,0,1,.541-2.575,3.955,3.955,0,0,1,1.578-1.727,4.763,4.763,0,0,1,2.461-.611,4.117,4.117,0,0,1,3.164,1.244,4.887,4.887,0,0,1,1.16,3.467v1.151H87.451a2.135,2.135,0,0,0,.694,1.257,2.066,2.066,0,0,0,1.389.457,2.662,2.662,0,0,0,2.2-.984l1.354,1.6a3.784,3.784,0,0,1-1.569,1.217A5.3,5.3,0,0,1,89.332,42.176ZM89,34.6q-1.3,0-1.547,1.723h2.988v-.229a1.467,1.467,0,0,0-.36-1.1A1.434,1.434,0,0,0,89,34.6ZM99.51,39.328a.684.684,0,0,0-.4-.606,6.016,6.016,0,0,0-1.5-.475,6.853,6.853,0,0,1-1.828-.646,3.062,3.062,0,0,1-1.1-.971,2.319,2.319,0,0,1-.378-1.31,2.628,2.628,0,0,1,1.081-2.158,4.453,4.453,0,0,1,2.83-.848,4.934,4.934,0,0,1,3.023.853,2.666,2.666,0,0,1,1.143,2.241H99.413q0-1.143-1.2-1.143a1.194,1.194,0,0,0-.782.259.8.8,0,0,0-.316.646.737.737,0,0,0,.387.642,3.654,3.654,0,0,0,1.235.4,10.671,10.671,0,0,1,1.49.378,2.706,2.706,0,0,1,2.145,2.646,2.491,2.491,0,0,1-1.156,2.118,5.068,5.068,0,0,1-2.993.817,5.172,5.172,0,0,1-2.18-.439,3.645,3.645,0,0,1-1.494-1.2,2.707,2.707,0,0,1-.536-1.591h2.769a1.145,1.145,0,0,0,.439.962,1.808,1.808,0,0,0,1.081.3,1.422,1.422,0,0,0,.91-.246A.787.787,0,0,0,99.51,39.328Zm13.069-2.013a5.735,5.735,0,0,1-1,3.538,3.2,3.2,0,0,1-2.694,1.323,2.742,2.742,0,0,1-2.153-.958v4.438h-2.962V32.49h2.769l.088.879a2.742,2.742,0,0,1,2.241-1.055,3.224,3.224,0,0,1,2.733,1.3,5.805,5.805,0,0,1,.976,3.564Zm-2.962-.185q0-2.531-1.477-2.531a1.394,1.394,0,0,0-1.406.756V39.1a1.439,1.439,0,0,0,1.424.791q1.415,0,1.459-2.443Zm8.868,5.045a4.889,4.889,0,0,1-3.542-1.305,4.507,4.507,0,0,1-1.354-3.4v-.246a5.84,5.84,0,0,1,.541-2.575,3.955,3.955,0,0,1,1.578-1.727,4.763,4.763,0,0,1,2.461-.611,4.117,4.117,0,0,1,3.164,1.244,4.887,4.887,0,0,1,1.16,3.467v1.151H116.6a2.135,2.135,0,0,0,.694,1.257,2.066,2.066,0,0,0,1.389.457,2.662,2.662,0,0,0,2.2-.984l1.354,1.6a3.784,3.784,0,0,1-1.569,1.217A5.3,5.3,0,0,1,118.485,42.176Zm-.334-7.576q-1.3,0-1.547,1.723h2.988v-.229a1.467,1.467,0,0,0-.36-1.1A1.434,1.434,0,0,0,118.151,34.6Zm9.554,5.291a1.317,1.317,0,0,0,.967-.338,1.241,1.241,0,0,0,.334-.945h2.777a3.288,3.288,0,0,1-1.121,2.566,4.168,4.168,0,0,1-2.887,1,4.22,4.22,0,0,1-3.27-1.3,5.125,5.125,0,0,1-1.2-3.6v-.123a5.792,5.792,0,0,1,.532-2.544,3.872,3.872,0,0,1,1.534-1.7,4.573,4.573,0,0,1,2.373-.593,4.116,4.116,0,0,1,2.944,1.028,3.647,3.647,0,0,1,1.09,2.786h-2.777a1.626,1.626,0,0,0-.36-1.134,1.244,1.244,0,0,0-.967-.4q-1.151,0-1.345,1.468a10.357,10.357,0,0,0-.062,1.283,4.068,4.068,0,0,0,.343,1.986A1.187,1.187,0,0,0,127.705,39.891ZM136.16,42h-2.971V32.49h2.971Zm-3.146-11.962A1.322,1.322,0,0,1,133.471,29a1.943,1.943,0,0,1,2.373,0,1.405,1.405,0,0,1,0,2.074,1.943,1.943,0,0,1-2.373,0A1.322,1.322,0,0,1,133.014,30.038ZM143.341,42a3.344,3.344,0,0,1-.281-.853,2.754,2.754,0,0,1-2.285,1.028,3.374,3.374,0,0,1-2.285-.813,2.588,2.588,0,0,1-.94-2.043,2.66,2.66,0,0,1,1.143-2.338,5.821,5.821,0,0,1,3.322-.791h.914v-.5q0-1.316-1.134-1.316a.927.927,0,0,0-1.055,1.042h-2.962a2.655,2.655,0,0,1,1.173-2.239,4.931,4.931,0,0,1,2.993-.86,4.323,4.323,0,0,1,2.874.888,3.086,3.086,0,0,1,1.081,2.435v4.21a4.311,4.311,0,0,0,.4,2V42Zm-1.854-1.934a1.652,1.652,0,0,0,.918-.237,1.487,1.487,0,0,0,.523-.536V37.772h-.861q-1.547,0-1.547,1.389a.848.848,0,0,0,.272.655A.986.986,0,0,0,141.486,40.066ZM150.662,42h-2.971V28.5h2.971Zm4.948,0H152.64V32.49h2.971Zm-3.146-11.962A1.322,1.322,0,0,1,152.921,29a1.943,1.943,0,0,1,2.373,0,1.405,1.405,0,0,1,0,2.074,1.943,1.943,0,0,1-2.373,0A1.322,1.322,0,0,1,152.464,30.038Zm8.464,9.677h4.333V42h-8.077V40.348l4.219-5.572h-4.034V32.49h7.8v1.6ZM172.055,42a3.344,3.344,0,0,1-.281-.853,2.754,2.754,0,0,1-2.285,1.028,3.374,3.374,0,0,1-2.285-.813,2.588,2.588,0,0,1-.94-2.043,2.66,2.66,0,0,1,1.143-2.338,5.821,5.821,0,0,1,3.322-.791h.914v-.5q0-1.316-1.134-1.316a.927.927,0,0,0-1.055,1.042h-2.962a2.655,2.655,0,0,1,1.173-2.239,4.931,4.931,0,0,1,2.993-.86,4.323,4.323,0,0,1,2.874.888,3.086,3.086,0,0,1,1.081,2.435v4.21a4.311,4.311,0,0,0,.4,2V42ZM170.2,40.066a1.652,1.652,0,0,0,.918-.237,1.487,1.487,0,0,0,.523-.536V37.772h-.861q-1.547,0-1.547,1.389a.848.848,0,0,0,.272.655A.986.986,0,0,0,170.2,40.066Zm5.678-2.892a5.809,5.809,0,0,1,.976-3.56,3.211,3.211,0,0,1,2.725-1.3,2.731,2.731,0,0,1,2.145,1V28.5h2.971V42H182.03l-.149-1.02a2.8,2.8,0,0,1-2.32,1.2,3.205,3.205,0,0,1-2.689-1.3A5.993,5.993,0,0,1,175.878,37.175Zm2.962.185q0,2.531,1.477,2.531a1.458,1.458,0,0,0,1.406-.826V35.443a1.419,1.419,0,0,0-1.389-.844q-1.371,0-1.485,2.215ZM191.733,42a3.344,3.344,0,0,1-.281-.853,2.754,2.754,0,0,1-2.285,1.028,3.374,3.374,0,0,1-2.285-.813,2.588,2.588,0,0,1-.94-2.043,2.66,2.66,0,0,1,1.143-2.338,5.821,5.821,0,0,1,3.322-.791h.914v-.5q0-1.316-1.134-1.316a.927.927,0,0,0-1.055,1.042H186.17a2.655,2.655,0,0,1,1.173-2.239,4.931,4.931,0,0,1,2.993-.86,4.323,4.323,0,0,1,2.874.888,3.086,3.086,0,0,1,1.081,2.435v4.21a4.311,4.311,0,0,0,.4,2V42Zm-1.854-1.934a1.652,1.652,0,0,0,.918-.237,1.487,1.487,0,0,0,.523-.536V37.772h-.861q-1.547,0-1.547,1.389a.848.848,0,0,0,.272.655A.986.986,0,0,0,189.879,40.066Z" transform="translate(1056 4364)" fill="#12263f"/>
    <path id="Trazado_706795" data-name="Trazado 706795" d="M111.076,13.581q.185-1.046-1.028-1.6l-1.7-.677q-2.953-1.318-2.8-3.63a3.334,3.334,0,0,1,.7-1.9,4.227,4.227,0,0,1,1.8-1.3,6.379,6.379,0,0,1,2.5-.453,4.34,4.34,0,0,1,3,1.1,3.676,3.676,0,0,1,1.125,2.861h-2.566a1.831,1.831,0,0,0-.382-1.354,1.722,1.722,0,0,0-1.323-.5,2.667,2.667,0,0,0-1.529.4,1.641,1.641,0,0,0-.773,1.147q-.167.958,1.283,1.521l1.16.439.668.308q2.593,1.283,2.426,3.6a3.477,3.477,0,0,1-.725,1.956,4.088,4.088,0,0,1-1.758,1.261,6.261,6.261,0,0,1-2.448.413,5.483,5.483,0,0,1-2.426-.571,3.767,3.767,0,0,1-1.617-1.538,3.983,3.983,0,0,1-.483-2.109l2.575.009q-.123,2.083,2.048,2.118a2.69,2.69,0,0,0,1.547-.413A1.608,1.608,0,0,0,111.076,13.581Zm9.062-6.267a3.814,3.814,0,0,1,2.167.646,3.638,3.638,0,0,1,1.336,1.731,5.357,5.357,0,0,1,.3,2.448,5.786,5.786,0,0,1-1.578,3.669,4.455,4.455,0,0,1-3.4,1.367,3.8,3.8,0,0,1-2.145-.637,3.624,3.624,0,0,1-1.336-1.718,5.239,5.239,0,0,1-.308-2.426,5.957,5.957,0,0,1,1.6-3.744A4.363,4.363,0,0,1,120.138,7.314Zm-2.5,5.979a2.194,2.194,0,0,0,.4,1.33,1.314,1.314,0,0,0,1.063.5,1.926,1.926,0,0,0,1.793-1.049,5.227,5.227,0,0,0,.606-2.848,2.387,2.387,0,0,0-.409-1.347,1.293,1.293,0,0,0-1.068-.522,1.929,1.929,0,0,0-1.771,1.04A5.173,5.173,0,0,0,117.633,13.294ZM125.323,17l1.327-7.655h-1.371L125.6,7.49l1.371-.009.123-.949a3.748,3.748,0,0,1,1.239-2.386,3.751,3.751,0,0,1,2.575-.848,8.246,8.246,0,0,1,1.345.184l-.22,1.97a3.073,3.073,0,0,0-.729-.105,1.817,1.817,0,0,0-1.129.335,1.525,1.525,0,0,0-.584,1.033l-.132.777H131.3l-.325,1.854h-1.828L127.819,17ZM136.028,5.152l-.413,2.338H137.2l-.325,1.863H135.29l-.809,4.764a1.211,1.211,0,0,0,.07.686q.123.237.6.255.141.009.756-.044l-.176,1.942a4.169,4.169,0,0,1-1.424.2,2.234,2.234,0,0,1-1.819-.765,2.763,2.763,0,0,1-.492-2.021l.817-5.019h-1.345l.325-1.863h1.345l.4-2.338Zm9.545,8.385,2.259-6.047h2.47l-4,9.51h-2.074l-.7-5.95L140.748,17h-2.074l-.7-9.51h2.32l.149,5.985,2.716-5.985h1.793ZM155.408,17a2.566,2.566,0,0,1-.1-.861,3.221,3.221,0,0,1-2.426,1.037,2.919,2.919,0,0,1-2.07-.813,2.46,2.46,0,0,1-.769-1.964,2.843,2.843,0,0,1,1.305-2.386,5.924,5.924,0,0,1,3.335-.831l1.16.018.123-.571a1.984,1.984,0,0,0,.026-.554.952.952,0,0,0-.312-.646,1.075,1.075,0,0,0-.708-.242,1.514,1.514,0,0,0-.984.286,1.384,1.384,0,0,0-.519.875l-2.487.009a2.764,2.764,0,0,1,1.252-2.21,4.85,4.85,0,0,1,2.94-.831,3.507,3.507,0,0,1,2.531.962,2.816,2.816,0,0,1,.765,2.386l-.729,4.553-.044.563a2.714,2.714,0,0,0,.149,1.055l-.009.167ZM153.5,15.251a2.27,2.27,0,0,0,1.872-.932l.308-1.644-.861-.009a2.406,2.406,0,0,0-1.978.835,1.454,1.454,0,0,0-.272.712.844.844,0,0,0,.2.751A1,1,0,0,0,153.5,15.251Zm12.366-5.379a5.117,5.117,0,0,0-.835-.088,2.4,2.4,0,0,0-2.1.993L161.833,17h-2.479l1.652-9.51,2.329-.009-.229,1.16A2.615,2.615,0,0,1,165.322,7.3a3.615,3.615,0,0,1,.861.123Zm4.3,7.3a4.137,4.137,0,0,1-2.21-.611,3.7,3.7,0,0,1-1.437-1.652,4.605,4.605,0,0,1-.369-2.316l.026-.352a6.148,6.148,0,0,1,.809-2.549,4.884,4.884,0,0,1,1.74-1.789,4.306,4.306,0,0,1,2.355-.593,3.29,3.29,0,0,1,2.782,1.351A4.631,4.631,0,0,1,174.577,12l-.141,1.083h-5.827a2.041,2.041,0,0,0,.448,1.477,1.711,1.711,0,0,0,1.318.571,3.041,3.041,0,0,0,2.373-1.055l1.134,1.406a3.527,3.527,0,0,1-1.547,1.261A5.059,5.059,0,0,1,170.165,17.176Zm.791-7.813a1.761,1.761,0,0,0-1.217.431,3.784,3.784,0,0,0-.954,1.556h3.41l.053-.229a2.33,2.33,0,0,0,.009-.668,1.276,1.276,0,0,0-.431-.8A1.35,1.35,0,0,0,170.956,9.362ZM93.067,37.175a5.809,5.809,0,0,1,.976-3.56,3.211,3.211,0,0,1,2.725-1.3,2.731,2.731,0,0,1,2.145,1V28.5h2.971V42H99.22l-.149-1.02a2.8,2.8,0,0,1-2.32,1.2,3.205,3.205,0,0,1-2.689-1.3A5.993,5.993,0,0,1,93.067,37.175Zm2.962.185q0,2.531,1.477,2.531a1.458,1.458,0,0,0,1.406-.826V35.443a1.419,1.419,0,0,0-1.389-.844q-1.371,0-1.485,2.215Zm12.138,4.816a4.889,4.889,0,0,1-3.542-1.305,4.507,4.507,0,0,1-1.354-3.4v-.246a5.84,5.84,0,0,1,.541-2.575,3.955,3.955,0,0,1,1.578-1.727,4.763,4.763,0,0,1,2.461-.611,4.117,4.117,0,0,1,3.164,1.244,4.887,4.887,0,0,1,1.16,3.467v1.151h-5.889a2.135,2.135,0,0,0,.694,1.257,2.066,2.066,0,0,0,1.389.457,2.662,2.662,0,0,0,2.2-.984l1.354,1.6a3.784,3.784,0,0,1-1.569,1.217A5.3,5.3,0,0,1,108.167,42.176Zm-.334-7.576q-1.3,0-1.547,1.723h2.988v-.229a1.467,1.467,0,0,0-.36-1.1A1.434,1.434,0,0,0,107.833,34.6ZM116.49,42H113.52V28.5h2.971Zm11.285-2.672a.684.684,0,0,0-.4-.606,6.016,6.016,0,0,0-1.5-.475,6.853,6.853,0,0,1-1.828-.646,3.062,3.062,0,0,1-1.1-.971,2.319,2.319,0,0,1-.378-1.31,2.628,2.628,0,0,1,1.081-2.158,4.453,4.453,0,0,1,2.83-.848,4.934,4.934,0,0,1,3.023.853,2.666,2.666,0,0,1,1.143,2.241h-2.971q0-1.143-1.2-1.143a1.194,1.194,0,0,0-.782.259.8.8,0,0,0-.316.646.737.737,0,0,0,.387.642,3.654,3.654,0,0,0,1.235.4,10.671,10.671,0,0,1,1.49.378,2.706,2.706,0,0,1,2.145,2.646,2.491,2.491,0,0,1-1.156,2.118,5.068,5.068,0,0,1-2.993.817,5.172,5.172,0,0,1-2.18-.439,3.645,3.645,0,0,1-1.494-1.2,2.707,2.707,0,0,1-.536-1.591h2.769a1.145,1.145,0,0,0,.439.962,1.808,1.808,0,0,0,1.081.3,1.422,1.422,0,0,0,.91-.246A.787.787,0,0,0,127.775,39.328ZM135.141,42H132.17V32.49h2.971Zm-3.146-11.962A1.322,1.322,0,0,1,132.451,29a1.943,1.943,0,0,1,2.373,0,1.405,1.405,0,0,1,0,2.074,1.943,1.943,0,0,1-2.373,0A1.322,1.322,0,0,1,131.994,30.038Zm9.949,9.29a.684.684,0,0,0-.4-.606,6.016,6.016,0,0,0-1.5-.475,6.853,6.853,0,0,1-1.828-.646,3.062,3.062,0,0,1-1.1-.971,2.319,2.319,0,0,1-.378-1.31,2.628,2.628,0,0,1,1.081-2.158,4.453,4.453,0,0,1,2.83-.848,4.934,4.934,0,0,1,3.023.853,2.666,2.666,0,0,1,1.143,2.241h-2.971q0-1.143-1.2-1.143a1.194,1.194,0,0,0-.782.259.8.8,0,0,0-.316.646.737.737,0,0,0,.387.642,3.654,3.654,0,0,0,1.235.4,10.671,10.671,0,0,1,1.49.378A2.706,2.706,0,0,1,144.8,39.24a2.491,2.491,0,0,1-1.156,2.118,5.068,5.068,0,0,1-2.993.817,5.172,5.172,0,0,1-2.18-.439,3.645,3.645,0,0,1-1.494-1.2,2.707,2.707,0,0,1-.536-1.591h2.769a1.145,1.145,0,0,0,.439.962,1.808,1.808,0,0,0,1.081.3,1.422,1.422,0,0,0,.91-.246A.787.787,0,0,0,141.943,39.328Zm7.69-9.2V32.49H151.2v2.057h-1.564V38.9a1.111,1.111,0,0,0,.193.747,1.037,1.037,0,0,0,.765.211,4.345,4.345,0,0,0,.738-.053v2.118a5.466,5.466,0,0,1-1.67.255,3.1,3.1,0,0,1-2.259-.721,2.954,2.954,0,0,1-.729-2.188v-4.72h-1.213V32.49h1.213V30.126Zm7.33,12.05a4.889,4.889,0,0,1-3.542-1.305,4.507,4.507,0,0,1-1.354-3.4v-.246a5.84,5.84,0,0,1,.541-2.575,3.955,3.955,0,0,1,1.578-1.727,4.763,4.763,0,0,1,2.461-.611,4.117,4.117,0,0,1,3.164,1.244,4.887,4.887,0,0,1,1.16,3.467v1.151h-5.889a2.135,2.135,0,0,0,.694,1.257,2.066,2.066,0,0,0,1.389.457,2.662,2.662,0,0,0,2.2-.984l1.354,1.6a3.784,3.784,0,0,1-1.569,1.217A5.3,5.3,0,0,1,156.964,42.176ZM156.63,34.6q-1.3,0-1.547,1.723h2.988v-.229a1.467,1.467,0,0,0-.36-1.1A1.434,1.434,0,0,0,156.63,34.6Zm8.332-2.109.1,1.116a3.27,3.27,0,0,1,2.716-1.292,2.407,2.407,0,0,1,2.435,1.433A3.165,3.165,0,0,1,173,32.314q2.892,0,2.971,3.5V42H173V36a1.813,1.813,0,0,0-.246-1.063,1.048,1.048,0,0,0-.9-.334,1.4,1.4,0,0,0-1.31.782l.009.123V42H167.59V36.015a1.906,1.906,0,0,0-.237-1.081,1.045,1.045,0,0,0-.905-.334,1.42,1.42,0,0,0-1.3.782V42h-2.962V32.49ZM183.023,42a3.344,3.344,0,0,1-.281-.853,2.754,2.754,0,0,1-2.285,1.028,3.374,3.374,0,0,1-2.285-.813,2.588,2.588,0,0,1-.94-2.043,2.66,2.66,0,0,1,1.143-2.338,5.821,5.821,0,0,1,3.322-.791h.914v-.5q0-1.316-1.134-1.316a.927.927,0,0,0-1.055,1.042H177.46a2.655,2.655,0,0,1,1.173-2.239,4.931,4.931,0,0,1,2.993-.86,4.323,4.323,0,0,1,2.874.888,3.086,3.086,0,0,1,1.081,2.435v4.21a4.311,4.311,0,0,0,.4,2V42Zm-1.854-1.934a1.652,1.652,0,0,0,.918-.237,1.487,1.487,0,0,0,.523-.536V37.772h-.861q-1.547,0-1.547,1.389a.848.848,0,0,0,.272.655A.986.986,0,0,0,181.169,40.066Z" transform="translate(265 4495)" fill="#fff"/>
    <path id="Trazado_706796" data-name="Trazado 706796" d="M111.076,13.581q.185-1.046-1.028-1.6l-1.7-.677q-2.953-1.318-2.8-3.63a3.334,3.334,0,0,1,.7-1.9,4.227,4.227,0,0,1,1.8-1.3,6.379,6.379,0,0,1,2.5-.453,4.34,4.34,0,0,1,3,1.1,3.676,3.676,0,0,1,1.125,2.861h-2.566a1.831,1.831,0,0,0-.382-1.354,1.722,1.722,0,0,0-1.323-.5,2.667,2.667,0,0,0-1.529.4,1.641,1.641,0,0,0-.773,1.147q-.167.958,1.283,1.521l1.16.439.668.308q2.593,1.283,2.426,3.6a3.477,3.477,0,0,1-.725,1.956,4.088,4.088,0,0,1-1.758,1.261,6.261,6.261,0,0,1-2.448.413,5.483,5.483,0,0,1-2.426-.571,3.767,3.767,0,0,1-1.617-1.538,3.983,3.983,0,0,1-.483-2.109l2.575.009q-.123,2.083,2.048,2.118a2.69,2.69,0,0,0,1.547-.413A1.608,1.608,0,0,0,111.076,13.581Zm9.062-6.267a3.814,3.814,0,0,1,2.167.646,3.638,3.638,0,0,1,1.336,1.731,5.357,5.357,0,0,1,.3,2.448,5.786,5.786,0,0,1-1.578,3.669,4.455,4.455,0,0,1-3.4,1.367,3.8,3.8,0,0,1-2.145-.637,3.624,3.624,0,0,1-1.336-1.718,5.239,5.239,0,0,1-.308-2.426,5.957,5.957,0,0,1,1.6-3.744A4.363,4.363,0,0,1,120.138,7.314Zm-2.5,5.979a2.194,2.194,0,0,0,.4,1.33,1.314,1.314,0,0,0,1.063.5,1.926,1.926,0,0,0,1.793-1.049,5.227,5.227,0,0,0,.606-2.848,2.387,2.387,0,0,0-.409-1.347,1.293,1.293,0,0,0-1.068-.522,1.929,1.929,0,0,0-1.771,1.04A5.173,5.173,0,0,0,117.633,13.294ZM125.323,17l1.327-7.655h-1.371L125.6,7.49l1.371-.009.123-.949a3.748,3.748,0,0,1,1.239-2.386,3.751,3.751,0,0,1,2.575-.848,8.246,8.246,0,0,1,1.345.184l-.22,1.97a3.073,3.073,0,0,0-.729-.105,1.817,1.817,0,0,0-1.129.335,1.525,1.525,0,0,0-.584,1.033l-.132.777H131.3l-.325,1.854h-1.828L127.819,17ZM136.028,5.152l-.413,2.338H137.2l-.325,1.863H135.29l-.809,4.764a1.211,1.211,0,0,0,.07.686q.123.237.6.255.141.009.756-.044l-.176,1.942a4.169,4.169,0,0,1-1.424.2,2.234,2.234,0,0,1-1.819-.765,2.763,2.763,0,0,1-.492-2.021l.817-5.019h-1.345l.325-1.863h1.345l.4-2.338Zm9.545,8.385,2.259-6.047h2.47l-4,9.51h-2.074l-.7-5.95L140.748,17h-2.074l-.7-9.51h2.32l.149,5.985,2.716-5.985h1.793ZM155.408,17a2.566,2.566,0,0,1-.1-.861,3.221,3.221,0,0,1-2.426,1.037,2.919,2.919,0,0,1-2.07-.813,2.46,2.46,0,0,1-.769-1.964,2.843,2.843,0,0,1,1.305-2.386,5.924,5.924,0,0,1,3.335-.831l1.16.018.123-.571a1.984,1.984,0,0,0,.026-.554.952.952,0,0,0-.312-.646,1.075,1.075,0,0,0-.708-.242,1.514,1.514,0,0,0-.984.286,1.384,1.384,0,0,0-.519.875l-2.487.009a2.764,2.764,0,0,1,1.252-2.21,4.85,4.85,0,0,1,2.94-.831,3.507,3.507,0,0,1,2.531.962,2.816,2.816,0,0,1,.765,2.386l-.729,4.553-.044.563a2.714,2.714,0,0,0,.149,1.055l-.009.167ZM153.5,15.251a2.27,2.27,0,0,0,1.872-.932l.308-1.644-.861-.009a2.406,2.406,0,0,0-1.978.835,1.454,1.454,0,0,0-.272.712.844.844,0,0,0,.2.751A1,1,0,0,0,153.5,15.251Zm12.366-5.379a5.117,5.117,0,0,0-.835-.088,2.4,2.4,0,0,0-2.1.993L161.833,17h-2.479l1.652-9.51,2.329-.009-.229,1.16A2.615,2.615,0,0,1,165.322,7.3a3.615,3.615,0,0,1,.861.123Zm4.3,7.3a4.137,4.137,0,0,1-2.21-.611,3.7,3.7,0,0,1-1.437-1.652,4.605,4.605,0,0,1-.369-2.316l.026-.352a6.148,6.148,0,0,1,.809-2.549,4.884,4.884,0,0,1,1.74-1.789,4.306,4.306,0,0,1,2.355-.593,3.29,3.29,0,0,1,2.782,1.351A4.631,4.631,0,0,1,174.577,12l-.141,1.083h-5.827a2.041,2.041,0,0,0,.448,1.477,1.711,1.711,0,0,0,1.318.571,3.041,3.041,0,0,0,2.373-1.055l1.134,1.406a3.527,3.527,0,0,1-1.547,1.261A5.059,5.059,0,0,1,170.165,17.176Zm.791-7.813a1.761,1.761,0,0,0-1.217.431,3.784,3.784,0,0,0-.954,1.556h3.41l.053-.229a2.33,2.33,0,0,0,.009-.668,1.276,1.276,0,0,0-.431-.8A1.35,1.35,0,0,0,170.956,9.362ZM91.793,37.315a5.735,5.735,0,0,1-1,3.538A3.2,3.2,0,0,1,88.1,42.176a2.742,2.742,0,0,1-2.153-.958v4.438H82.986V32.49h2.769l.088.879a2.742,2.742,0,0,1,2.241-1.055,3.224,3.224,0,0,1,2.733,1.3,5.805,5.805,0,0,1,.976,3.564Zm-2.962-.185q0-2.531-1.477-2.531a1.394,1.394,0,0,0-1.406.756V39.1a1.439,1.439,0,0,0,1.424.791q1.415,0,1.459-2.443ZM97.7,42.176a4.889,4.889,0,0,1-3.542-1.305,4.507,4.507,0,0,1-1.354-3.4v-.246a5.84,5.84,0,0,1,.541-2.575,3.955,3.955,0,0,1,1.578-1.727,4.763,4.763,0,0,1,2.461-.611,4.117,4.117,0,0,1,3.164,1.244,4.887,4.887,0,0,1,1.16,3.467v1.151H95.818a2.135,2.135,0,0,0,.694,1.257,2.066,2.066,0,0,0,1.389.457,2.662,2.662,0,0,0,2.2-.984l1.354,1.6a3.784,3.784,0,0,1-1.569,1.217A5.3,5.3,0,0,1,97.7,42.176ZM97.365,34.6q-1.3,0-1.547,1.723h2.988v-.229a1.467,1.467,0,0,0-.36-1.1A1.434,1.434,0,0,0,97.365,34.6Zm11.285.571-.976-.07a1.752,1.752,0,0,0-1.793.879V42H102.92V32.49H105.7l.1,1.222a2.294,2.294,0,0,1,2.083-1.4,2.888,2.888,0,0,1,.826.105Zm6.047,4.157a.684.684,0,0,0-.4-.606,6.016,6.016,0,0,0-1.5-.475,6.853,6.853,0,0,1-1.828-.646,3.062,3.062,0,0,1-1.1-.971,2.319,2.319,0,0,1-.378-1.31,2.628,2.628,0,0,1,1.081-2.158,4.453,4.453,0,0,1,2.83-.848,4.934,4.934,0,0,1,3.023.853,2.666,2.666,0,0,1,1.143,2.241H114.6q0-1.143-1.2-1.143a1.194,1.194,0,0,0-.782.259.8.8,0,0,0-.316.646.737.737,0,0,0,.387.642,3.654,3.654,0,0,0,1.235.4,10.671,10.671,0,0,1,1.49.378,2.706,2.706,0,0,1,2.145,2.646,2.491,2.491,0,0,1-1.156,2.118,5.068,5.068,0,0,1-2.993.817,5.172,5.172,0,0,1-2.18-.439,3.645,3.645,0,0,1-1.494-1.2,2.707,2.707,0,0,1-.536-1.591h2.769a1.145,1.145,0,0,0,.439.962,1.808,1.808,0,0,0,1.081.3,1.422,1.422,0,0,0,.91-.246A.787.787,0,0,0,114.7,39.328Zm3.867-2.171a5.613,5.613,0,0,1,.554-2.536,3.96,3.96,0,0,1,1.591-1.709,4.791,4.791,0,0,1,2.435-.6,4.373,4.373,0,0,1,3.366,1.323,5.076,5.076,0,0,1,1.23,3.6v.105a4.925,4.925,0,0,1-1.235,3.529,4.384,4.384,0,0,1-3.344,1.305,4.434,4.434,0,0,1-3.261-1.217,4.761,4.761,0,0,1-1.327-3.3Zm2.962.185a3.538,3.538,0,0,0,.413,1.934,1.376,1.376,0,0,0,1.222.615q1.582,0,1.617-2.435v-.3q0-2.558-1.635-2.558-1.485,0-1.608,2.206Zm10.239-4.852.1,1.116a3.225,3.225,0,0,1,2.716-1.292,2.713,2.713,0,0,1,2.219.888,4.226,4.226,0,0,1,.76,2.672V42h-2.971V36a1.6,1.6,0,0,0-.29-1.059,1.342,1.342,0,0,0-1.055-.338,1.413,1.413,0,0,0-1.292.686V42h-2.962V32.49ZM144.554,42a3.344,3.344,0,0,1-.281-.853,2.754,2.754,0,0,1-2.285,1.028,3.374,3.374,0,0,1-2.285-.813,2.588,2.588,0,0,1-.94-2.043,2.66,2.66,0,0,1,1.143-2.338,5.821,5.821,0,0,1,3.322-.791h.914v-.5q0-1.316-1.134-1.316a.927.927,0,0,0-1.055,1.042H138.99a2.655,2.655,0,0,1,1.173-2.239,4.931,4.931,0,0,1,2.993-.86,4.323,4.323,0,0,1,2.874.888,3.086,3.086,0,0,1,1.081,2.435v4.21a4.311,4.311,0,0,0,.4,2V42ZM142.7,40.066a1.652,1.652,0,0,0,.918-.237,1.487,1.487,0,0,0,.523-.536V37.772h-.861q-1.547,0-1.547,1.389a.848.848,0,0,0,.272.655A.986.986,0,0,0,142.7,40.066ZM151.875,42H148.9V28.5h2.971Zm4.948,0h-2.971V32.49h2.971Zm-3.146-11.962A1.322,1.322,0,0,1,154.134,29a1.943,1.943,0,0,1,2.373,0,1.405,1.405,0,0,1,0,2.074,1.943,1.943,0,0,1-2.373,0A1.322,1.322,0,0,1,153.677,30.038Zm8.464,9.677h4.333V42H158.4V40.348l4.219-5.572h-4.034V32.49h7.8v1.6ZM173.268,42a3.344,3.344,0,0,1-.281-.853,2.754,2.754,0,0,1-2.285,1.028,3.374,3.374,0,0,1-2.285-.813,2.588,2.588,0,0,1-.94-2.043,2.66,2.66,0,0,1,1.143-2.338,5.821,5.821,0,0,1,3.322-.791h.914v-.5q0-1.316-1.134-1.316a.927.927,0,0,0-1.055,1.042H167.7a2.655,2.655,0,0,1,1.173-2.239,4.931,4.931,0,0,1,2.993-.86,4.323,4.323,0,0,1,2.874.888,3.086,3.086,0,0,1,1.081,2.435v4.21a4.311,4.311,0,0,0,.4,2V42Zm-1.854-1.934a1.652,1.652,0,0,0,.918-.237,1.487,1.487,0,0,0,.523-.536V37.772h-.861q-1.547,0-1.547,1.389a.848.848,0,0,0,.272.655A.986.986,0,0,0,171.413,40.066Zm5.678-2.892a5.809,5.809,0,0,1,.976-3.56,3.211,3.211,0,0,1,2.725-1.3,2.731,2.731,0,0,1,2.145,1V28.5h2.971V42h-2.663l-.149-1.02a2.8,2.8,0,0,1-2.32,1.2,3.205,3.205,0,0,1-2.689-1.3A5.993,5.993,0,0,1,177.091,37.175Zm2.962.185q0,2.531,1.477,2.531a1.458,1.458,0,0,0,1.406-.826V35.443a1.419,1.419,0,0,0-1.389-.844q-1.371,0-1.485,2.215Zm7.163-.2a5.613,5.613,0,0,1,.554-2.536,3.96,3.96,0,0,1,1.591-1.709,4.791,4.791,0,0,1,2.435-.6,4.373,4.373,0,0,1,3.366,1.323,5.076,5.076,0,0,1,1.23,3.6v.105a4.925,4.925,0,0,1-1.235,3.529,4.384,4.384,0,0,1-3.344,1.305,4.434,4.434,0,0,1-3.261-1.217,4.761,4.761,0,0,1-1.327-3.3Zm2.962.185a3.538,3.538,0,0,0,.413,1.934,1.376,1.376,0,0,0,1.222.615q1.582,0,1.617-2.435v-.3q0-2.558-1.635-2.558-1.485,0-1.608,2.206Z" transform="translate(1056 4494)" fill="#12263f"/>
  </g>
</svg>
