<svg xmlns="http://www.w3.org/2000/svg" width="105" height="105" viewBox="0 0 105 105">
  <g id="Grupo_974715" data-name="Grupo 974715" transform="translate(-265 -3211)">
    <circle id="Elipse_5148" data-name="Elipse 5148" cx="52.5" cy="52.5" r="52.5" transform="translate(265 3211)" fill="#ad84ff"/>
    <g id="Grupo_973841" data-name="Grupo 973841" transform="translate(302 3234)">
      <path id="Trazado_704692" data-name="Trazado 704692" d="M29.484,72.308H16.951a1.116,1.116,0,0,1-1.168-1.057V30.857a1.15,1.15,0,0,0-1.5-1.015L2.674,32.915a1.15,1.15,0,0,1-1.5-1.015V23.866a1.07,1.07,0,0,1,.786-1l27.138-8.5a1.3,1.3,0,0,1,.382-.058,1.116,1.116,0,0,1,1.168,1.057V71.251a1.116,1.116,0,0,1-1.168,1.057" transform="translate(-0.511 -12.327)" fill="#7125c8" stroke="#7125c8" stroke-width="1"/>
      <path id="Trazado_704693" data-name="Trazado 704693" d="M25.631,68.808H14.282a1.057,1.057,0,0,1-1.058-1.057V27.357a1.057,1.057,0,0,0-1.353-1.015L1.353,29.415A1.057,1.057,0,0,1,0,28.4V20.366a1.057,1.057,0,0,1,.712-1l24.574-8.5a1.069,1.069,0,0,1,.346-.058,1.057,1.057,0,0,1,1.057,1.057V67.751a1.057,1.057,0,0,1-1.057,1.057" transform="translate(0 -10.81)" fill="#dee9f0" stroke="#ece3ff" stroke-width="1"/>
    </g>
  </g>
</svg>
