<svg xmlns="http://www.w3.org/2000/svg" width="105" height="105" viewBox="0 0 105 105">
  <g id="Grupo_974719" data-name="Grupo 974719" transform="translate(-265 -3745)">
    <circle id="Elipse_5148" data-name="Elipse 5148" cx="52.5" cy="52.5" r="52.5" transform="translate(265 3745)" fill="#ad84ff"/>
    <g id="Grupo_973845" data-name="Grupo 973845" transform="translate(296 3767)">
      <path id="Trazado_704687" data-name="Trazado 704687" d="M466.645,34.186l3-25.1a2.583,2.583,0,0,1,2.565-2.276h29.023a2.583,2.583,0,0,1,2.583,2.583v5.191a2.583,2.583,0,0,1-2.583,2.583H483.138a2.583,2.583,0,0,0-2.566,2.292l-.578,5.1a2.555,2.555,0,0,0,3.241,2.738l.046-.012a17.157,17.157,0,0,1,4.561-.641q8.643,0,13.284,5.119t4.641,14.36a20.584,20.584,0,0,1-2.49,10.1,17.108,17.108,0,0,1-6.991,6.951,22.068,22.068,0,0,1-10.635,2.43,23.756,23.756,0,0,1-10.237-2.249,18.361,18.361,0,0,1-7.489-6.169,14.736,14.736,0,0,1-2.422-5.853,2.576,2.576,0,0,1,2.552-3h8.472a2.552,2.552,0,0,1,2.483,1.881,6.892,6.892,0,0,0,1.742,3.167,6.448,6.448,0,0,0,4.82,1.868q6.771,0,6.772-10.017,0-9.262-8.285-9.262a8.729,8.729,0,0,0-6.147,2.073,2.561,2.561,0,0,1-2.323.6l-6.969-1.64a2.583,2.583,0,0,1-1.973-2.821" transform="translate(-462.106 -3.789)" fill="#7125c8"/>
      <path id="Trazado_704691" data-name="Trazado 704691" d="M460.719,28.853l3-25.1a2.583,2.583,0,0,1,2.565-2.276h29.023a2.583,2.583,0,0,1,2.583,2.583V9.251a2.583,2.583,0,0,1-2.583,2.583H477.212a2.583,2.583,0,0,0-2.566,2.292l-.578,5.1a2.555,2.555,0,0,0,3.241,2.738l.046-.012a17.157,17.157,0,0,1,4.561-.641q8.643,0,13.284,5.119t4.641,14.36a20.584,20.584,0,0,1-2.49,10.1,17.108,17.108,0,0,1-6.991,6.951,22.068,22.068,0,0,1-10.635,2.43,23.756,23.756,0,0,1-10.237-2.249A18.362,18.362,0,0,1,462,51.854,14.737,14.737,0,0,1,459.577,46a2.576,2.576,0,0,1,2.552-3H470.6a2.552,2.552,0,0,1,2.482,1.881,6.893,6.893,0,0,0,1.742,3.167,6.446,6.446,0,0,0,4.82,1.868q6.771,0,6.772-10.017,0-9.262-8.285-9.262a8.729,8.729,0,0,0-6.147,2.073,2.561,2.561,0,0,1-2.323.6l-6.969-1.64a2.583,2.583,0,0,1-1.973-2.821" transform="translate(-459.537 -1.477)" fill="#dee9f0" stroke="#ece3ff" stroke-width="1"/>
    </g>
  </g>
</svg>
