<svg id="Grupo_974704" data-name="Grupo 974704" xmlns="http://www.w3.org/2000/svg" xmlns:xlink="http://www.w3.org/1999/xlink" width="189" height="189" viewBox="0 0 189 189">
  <defs>
    <clipPath id="clip-path">
      <rect id="Rectángulo_339993" data-name="Rectángulo 339993" width="189" height="189" fill="none"/>
    </clipPath>
  </defs>
  <g id="Grupo_974703" data-name="Grupo 974703" clip-path="url(#clip-path)">
    <path id="Trazado_706774" data-name="Trazado 706774" d="M94.5,0A94.5,94.5,0,1,1,0,94.5,94.5,94.5,0,0,1,94.5,0" fill="#cfb7ff"/>
    <path id="Trazado_706775" data-name="Trazado 706775" d="M101.292,126.518V37.48c0-2.776,1.7-5.039,3.8-5.039H117.2c2.09,0,3.8,2.265,3.8,5.039v89.033l-8.807,16.959a1.174,1.174,0,0,1-2.085,0Z" transform="translate(55.628 17.816)" fill="#ffce00" fill-rule="evenodd"/>
    <path id="Trazado_706776" data-name="Trazado 706776" d="M101.292,47.138h19.7V37.48c0-2.776-1.7-5.039-3.8-5.039H105.087c-2.09,0-3.8,2.265-3.8,5.039v9.658Z" transform="translate(55.628 17.816)" fill="#1f2327" fill-rule="evenodd"/>
    <path id="Trazado_706777" data-name="Trazado 706777" d="M120.983,93.175H101.3l8.8,16.948a1.174,1.174,0,0,0,2.085,0Z" transform="translate(55.63 51.17)" fill="#1f2327" fill-rule="evenodd"/>
    <path id="Trazado_706778" data-name="Trazado 706778" d="M130.378,26.7a6.12,6.12,0,0,1,6.11,6.11V155.465a6.12,6.12,0,0,1-6.11,6.11H27.718a6.12,6.12,0,0,1-6.11-6.11V32.806a6.12,6.12,0,0,1,6.11-6.11Z" transform="translate(11.867 14.661)" fill="#883c15" fill-rule="evenodd"/>
    <path id="Trazado_706779" data-name="Trazado 706779" d="M28.034,35.472V145.743a2.356,2.356,0,0,0,2.35,2.35h77.024a2.265,2.265,0,0,0,1.662-.685l13.245-13.245A2.271,2.271,0,0,0,123,132.5V35.472a2.356,2.356,0,0,0-2.35-2.35H30.384a2.356,2.356,0,0,0-2.35,2.35" transform="translate(15.396 18.19)" fill="#ebf1f5" fill-rule="evenodd"/>
    <path id="Trazado_706780" data-name="Trazado 706780" d="M79.9,99.07v13.244a2.356,2.356,0,0,0,.688-.485L93.832,98.584a2.322,2.322,0,0,0,.483-.688H81.071A1.178,1.178,0,0,0,79.9,99.07Z" transform="translate(43.878 53.763)" fill="#cfcfcf" fill-rule="evenodd"/>
    <path id="Trazado_706781" data-name="Trazado 706781" d="M45.065,30.208H57.551a9.906,9.906,0,1,1,19.812,0H89.85a2.356,2.356,0,0,1,2.35,2.35V42.58a2.356,2.356,0,0,1-2.35,2.35H45.065a2.356,2.356,0,0,1-2.35-2.35V32.558a2.356,2.356,0,0,1,2.35-2.35" transform="translate(23.458 11.149)" fill="#211e1f" fill-rule="evenodd"/>
    <path id="Trazado_706782" data-name="Trazado 706782" d="M38.853,88.466H51.361a1.178,1.178,0,0,1,1.174,1.174v12.5a1.178,1.178,0,0,1-1.174,1.174H38.853a1.178,1.178,0,0,1-1.174-1.174V89.64a1.178,1.178,0,0,1,1.174-1.174" transform="translate(20.693 48.584)" fill="#db0029" fill-rule="evenodd"/>
    <path id="Trazado_706783" data-name="Trazado 706783" d="M38.853,73.112H51.361a1.178,1.178,0,0,1,1.174,1.174v12.5a1.178,1.178,0,0,1-1.174,1.174H38.853a1.178,1.178,0,0,1-1.174-1.174v-12.5a1.178,1.178,0,0,1,1.174-1.174" transform="translate(20.693 40.152)" fill="#ffce00" fill-rule="evenodd"/>
    <path id="Trazado_706784" data-name="Trazado 706784" d="M38.853,57.758H51.361a1.178,1.178,0,0,1,1.174,1.174v12.5a1.178,1.178,0,0,1-1.174,1.174H38.853a1.178,1.178,0,0,1-1.174-1.174v-12.5a1.178,1.178,0,0,1,1.174-1.174" transform="translate(20.693 31.72)" fill="#48a253" fill-rule="evenodd"/>
    <path id="Trazado_706785" data-name="Trazado 706785" d="M38.853,42.4H51.361a1.178,1.178,0,0,1,1.174,1.174v12.5a1.178,1.178,0,0,1-1.174,1.174H38.853a1.178,1.178,0,0,1-1.174-1.174v-12.5A1.178,1.178,0,0,1,38.853,42.4" transform="translate(20.693 23.287)" fill="#1963ae" fill-rule="evenodd"/>
    <path id="Trazado_706786" data-name="Trazado 706786" d="M155.784,147.621l-5.732-11.044h11.464Zm-7.356-90.435h14.717v74.4H148.429Zm1.3-14.692h12.105c.465,0,1.3.967,1.3,2.544v7.156H148.422V45.039c.006-1.577.852-2.545,1.309-2.545M161.837,37.5H149.731c-3.462,0-6.288,3.382-6.288,7.537v89.033a2.556,2.556,0,0,0,.277,1.15l9.848,18.967a2.5,2.5,0,0,0,4.432,0l9.848-18.967a2.556,2.556,0,0,0,.277-1.15V45.039c0-4.155-2.812-7.537-6.29-7.537M72.731,139.449a2.5,2.5,0,0,1,2.507-2.5H93.854a2.5,2.5,0,0,1,0,4.993H75.238a2.5,2.5,0,0,1-2.507-2.5m0-10.472a2.5,2.5,0,0,1,2.507-2.5h37.228a2.5,2.5,0,0,1,0,4.993H75.239a2.5,2.5,0,0,1-2.507-2.5ZM59.74,139.144H49.879v-9.862h9.862Zm2.507-14.855H47.383a2.5,2.5,0,0,0-2.493,2.5v14.854a2.5,2.5,0,0,0,2.493,2.5H62.245a2.5,2.5,0,0,0,2.493-2.5V126.786a2.5,2.5,0,0,0-2.491-2.5m10.485-8.627a2.5,2.5,0,0,1,2.507-2.5H93.854a2.5,2.5,0,0,1,0,4.991H75.238a2.5,2.5,0,0,1-2.507-2.5m0-10.469a2.5,2.5,0,0,1,2.507-2.5h37.228a2.5,2.5,0,0,1,0,4.993H75.239a2.5,2.5,0,0,1-2.507-2.5ZM59.74,115.362H49.879V105.5h9.862Zm2.507-14.854H47.383A2.5,2.5,0,0,0,44.891,103v14.854a2.5,2.5,0,0,0,2.493,2.5H62.245a2.5,2.5,0,0,0,2.493-2.5V103a2.5,2.5,0,0,0-2.491-2.5Zm10.485-8.627a2.5,2.5,0,0,1,2.507-2.5H93.854a2.5,2.5,0,0,1,0,4.993H75.238A2.5,2.5,0,0,1,72.731,91.881Zm0-10.471a2.5,2.5,0,0,1,2.507-2.5h37.228a2.5,2.5,0,1,1,0,4.991H75.239a2.5,2.5,0,0,1-2.507-2.5ZM59.74,91.576H49.879V81.709h9.862Zm2.507-14.854H47.383a2.5,2.5,0,0,0-2.493,2.5V94.073a2.5,2.5,0,0,0,2.493,2.5H62.245a2.5,2.5,0,0,0,2.493-2.5V79.214a2.5,2.5,0,0,0-2.491-2.5ZM72.731,68.1a2.5,2.5,0,0,1,2.507-2.5H93.854a2.5,2.5,0,0,1,0,4.991H75.238a2.5,2.5,0,0,1-2.507-2.5m0-10.469a2.5,2.5,0,0,1,2.507-2.5h37.228a2.5,2.5,0,0,1,0,4.993H75.239a2.5,2.5,0,0,1-2.507-2.5Zm-22.855.31h9.862V67.8H49.879Zm-4.985-2.51V70.281a2.5,2.5,0,0,0,2.493,2.5H62.245a2.5,2.5,0,0,0,2.494-2.5V55.426a2.5,2.5,0,0,0-2.493-2.5H47.383a2.5,2.5,0,0,0-2.493,2.5m89.978,104.438V37.2a3.615,3.615,0,0,0-3.6-3.614h-24.1v4.957h20.249a2.5,2.5,0,0,1,2.493,2.5V141.4a2.488,2.488,0,0,1-.734,1.765L114.56,157.783a2.513,2.513,0,0,1-1.772.73H32.452a2.5,2.5,0,0,1-2.507-2.5V41.049a2.5,2.5,0,0,1,2.507-2.5H52.689V33.595H28.6a3.619,3.619,0,0,0-3.616,3.614V159.864a3.618,3.618,0,0,0,3.616,3.613H131.267a3.614,3.614,0,0,0,3.6-3.613m-13.478-15.972-6.094,6.1v-6.1ZM104.672,48.307H55.182a2.5,2.5,0,0,1-2.493-2.5V43.545H34.945V153.522H110.3V141.4a2.5,2.5,0,0,1,2.493-2.5h12.133V43.545H107.166v2.27a2.5,2.5,0,0,1-2.493,2.5ZM57.688,33.59H70.029a2.5,2.5,0,0,0,2.494-2.5,7.41,7.41,0,0,1,14.821,0,2.489,2.489,0,0,0,2.483,2.5h12.35v9.743H57.688ZM131.267,28.6H92.082a12.4,12.4,0,0,0-24.3,0H28.6A8.609,8.609,0,0,0,20,37.2V159.865a8.61,8.61,0,0,0,8.6,8.606H131.267a8.618,8.618,0,0,0,8.6-8.606V37.2a8.616,8.616,0,0,0-8.6-8.607" transform="translate(10.984 10.262)" fill="#040405" fill-rule="evenodd"/>
  </g>
</svg>
