<svg xmlns="http://www.w3.org/2000/svg" width="121.068" height="110.942" viewBox="0 0 121.068 110.942">
  <g id="RECUERDA" transform="translate(0 0.025)">
    <path id="Trazado_696815" data-name="Trazado 696815" d="M79.613,110.586l-15.947-.155-.035-7.36s-19.374-7.008-18.845-31.02C45.258,50.759,60.768,39.31,80.191,39.31c15.665,0,32.43,13.057,32.43,32.43,0,25.458-19.268,31.175-19.268,31.175v7.67H79.613Z" transform="translate(-12.913 -11.301)" fill="#991cb7"/>
    <path id="Trazado_696816" data-name="Trazado 696816" d="M87.256,124.644l-6.775-.078-.014-3.842s-8.234-3.659-8.009-16.2c.2-11.118,6.789-17.1,15.045-17.1,6.655,0,13.776,6.817,13.776,16.941,0,13.3-8.185,16.286-8.185,16.286v4H87.256Z" transform="translate(-21.078 -25.493)" fill="#facf85"/>
    <line id="Línea_245" data-name="Línea 245" x2="20.057" transform="translate(1 57.189)" fill="none" stroke="#2f296b" stroke-linecap="round" stroke-linejoin="round" stroke-width="2"/>
    <line id="Línea_246" data-name="Línea 246" x2="16.434" y2="15.609" transform="translate(17.039 16.503)" fill="none" stroke="#2f296b" stroke-linecap="round" stroke-linejoin="round" stroke-width="2"/>
    <line id="Línea_247" data-name="Línea 247" x1="19.747" transform="translate(100.321 51.239)" fill="none" stroke="#2f296b" stroke-linecap="round" stroke-linejoin="round" stroke-width="2"/>
    <line id="Línea_248" data-name="Línea 248" x1="14.904" y2="14.149" transform="translate(89.782 17.962)" fill="none" stroke="#2f296b" stroke-linecap="round" stroke-linejoin="round" stroke-width="2"/>
    <line id="Línea_249" data-name="Línea 249" x2="0.55" y2="21.2" transform="translate(59.544 1)" fill="none" stroke="#2f296b" stroke-linecap="round" stroke-linejoin="round" stroke-width="2"/>
    <path id="Trazado_696817" data-name="Trazado 696817" d="M72.613,110.586l-15.947-.155-.035-7.36s-19.374-7.008-18.845-31.02C38.258,50.759,53.768,39.31,73.191,39.31c15.665,0,32.43,13.057,32.43,32.43,0,25.458-19.268,31.175-19.268,31.175v7.67H72.613Z" transform="translate(-10.848 -11.301)" fill="none" stroke="#2f296b" stroke-linecap="round" stroke-miterlimit="10" stroke-width="2"/>
    <path id="Trazado_696818" data-name="Trazado 696818" d="M80.256,124.644l-6.775-.078-.014-3.842s-8.234-3.659-8.009-16.2c.2-11.118,6.789-17.1,15.045-17.1,6.655,0,13.776,6.817,13.776,16.941,0,13.3-8.185,16.286-8.185,16.286v4H80.256Z" transform="translate(-19.013 -25.493)" fill="none" stroke="#2f296b" stroke-linecap="round" stroke-miterlimit="10" stroke-width="2"/>
    <path id="Trazado_696819" data-name="Trazado 696819" d="M92.563,151.755H66.633a2.072,2.072,0,0,1-2.073-2.073V144.9a2.072,2.072,0,0,1,2.073-2.073h25.93a2.072,2.072,0,0,1,2.073,2.073v4.78A2.063,2.063,0,0,1,92.563,151.755Z" transform="translate(-18.75 -41.839)" fill="none" stroke="#2f296b" stroke-linecap="round" stroke-miterlimit="10" stroke-width="2"/>
  </g>
</svg>
