<svg xmlns="http://www.w3.org/2000/svg" xmlns:xlink="http://www.w3.org/1999/xlink" width="636.326" height="425.59" viewBox="0 0 636.326 425.59">
  <defs>
    <clipPath id="clip-path">
      <rect id="Rectángulo_339572" data-name="Rectángulo 339572" width="4.038" height="51.838" fill="none"/>
    </clipPath>
    <clipPath id="clip-path-2">
      <rect id="Rectángulo_339571" data-name="Rectángulo 339571" width="4.037" height="51.838" fill="none"/>
    </clipPath>
    <clipPath id="clip-path-3">
      <rect id="Rectángulo_339574" data-name="Rectángulo 339574" width="8.1" height="51.699" fill="none"/>
    </clipPath>
    <clipPath id="clip-path-4">
      <rect id="Rectángulo_339573" data-name="Rectángulo 339573" width="8.095" height="51.697" fill="none"/>
    </clipPath>
    <clipPath id="clip-path-5">
      <rect id="Rectángulo_339576" data-name="Rectángulo 339576" width="3.638" height="80.186" fill="none"/>
    </clipPath>
    <clipPath id="clip-path-7">
      <rect id="Rectángulo_339578" data-name="Rectángulo 339578" width="3.657" height="80.908" fill="none"/>
    </clipPath>
    <clipPath id="clip-path-9">
      <rect id="Rectángulo_339580" data-name="Rectángulo 339580" width="8.135" height="79.914" fill="none"/>
    </clipPath>
    <clipPath id="clip-path-10">
      <rect id="Rectángulo_339579" data-name="Rectángulo 339579" width="8.135" height="79.908" fill="none"/>
    </clipPath>
    <clipPath id="clip-path-11">
      <rect id="Rectángulo_339582" data-name="Rectángulo 339582" width="59.513" height="39.452" fill="none"/>
    </clipPath>
    <clipPath id="clip-path-12">
      <rect id="Rectángulo_339581" data-name="Rectángulo 339581" width="59.512" height="39.452" fill="none"/>
    </clipPath>
    <clipPath id="clip-path-13">
      <rect id="Rectángulo_339586" data-name="Rectángulo 339586" width="22.182" height="28.965" fill="none"/>
    </clipPath>
    <clipPath id="clip-path-14">
      <rect id="Rectángulo_339585" data-name="Rectángulo 339585" width="22.179" height="28.965" fill="none"/>
    </clipPath>
    <clipPath id="clip-path-15">
      <rect id="Rectángulo_339608" data-name="Rectángulo 339608" width="71.934" height="84.307" transform="translate(0 0.414) rotate(-0.33)" fill="none"/>
    </clipPath>
  </defs>
  <g id="Grupo_974721" data-name="Grupo 974721" transform="translate(-227.5 -1585.41)">
    <rect id="BG" width="636.326" height="425.59" transform="translate(227.5 1585.41)" fill="#ece3ff" opacity="0.949"/>
    <g id="Grupo_973654" data-name="Grupo 973654" transform="translate(-5809.462 11758.5)">
      <g id="Grupo_973653" data-name="Grupo 973653" transform="translate(6175.462 -10095)">
        <g id="Grupo_973639" data-name="Grupo 973639" transform="translate(0 0)">
          <g id="Grupo_973652" data-name="Grupo 973652" transform="translate(0 0)">
            <g id="Grupo_973635" data-name="Grupo 973635">
              <g id="Grupo_973651" data-name="Grupo 973651">
                <path id="Trazado_703810" data-name="Trazado 703810" d="M5.231,185.028,171.788,89.108a39.9,39.9,0,0,1,39.864.022L325.224,154.7l9.767-3.357v12.546a6.05,6.05,0,0,1-3.061,5.278L163.2,266.338a39.9,39.9,0,0,1-39.862-.021L3.058,196.874a6.038,6.038,0,0,1-3.023-4.75v-.048a6.514,6.514,0,0,1,0-.953L.006,179.112Z" transform="translate(-0.001 -5.818)" fill="#dde3ea"/>
                <path id="Trazado_703811" data-name="Trazado 703811" d="M331.926,155.708l-4,2.3-102.06,58.769L214.74,223.2,163.2,252.877a39.924,39.924,0,0,1-39.865-.022L3.053,183.41a6.122,6.122,0,0,1,.011-10.6L142.342,92.59l8.287-4.777,21.157-12.18a39.914,39.914,0,0,1,39.874.02l6.573,3.813,8.689,5.009,21.018,12.147,7.247,4.182,47.768,27.582.011.011,23.99,13.856,4.987,2.876a6.107,6.107,0,0,1-.011,10.588" transform="translate(0 -4.882)" fill="#fefefe"/>
                <path id="Trazado_703812" data-name="Trazado 703812" d="M326.989,151.881a.6.6,0,0,1-.042.127,3.906,3.906,0,0,1-1.78,2.225l-7.531,4.339L161.15,248.68a34.585,34.585,0,0,1-34.557-.02L10.6,181.689a3.664,3.664,0,0,1,0-6.346L175.051,80.638a34.571,34.571,0,0,1,34.557.022l6.546,3.781,7.151,4.126,25.239,14.581,7.34,4.241,39.5,22.814,29.773,17.189a3.923,3.923,0,0,1,1.827,4.5" transform="translate(-0.609 -5.279)" fill="#2e0877"/>
                <path id="Trazado_703813" data-name="Trazado 703813" d="M293.148,174.789c-.2.549-1.018.864-1.6.954l-60.7,9.389a8.65,8.65,0,0,1-5.55-.92,3.359,3.359,0,0,1-1.31-1.365l-8.367-18.031v1.13L208.9,151.468v-1.12l-8.365-18.023a2,2,0,0,1-.192-.835v3.768a1.979,1.979,0,0,0,.192.835l23.455,50.52a3.381,3.381,0,0,0,1.311,1.366,8.65,8.65,0,0,0,5.55.92l60.7-9.392a2.355,2.355,0,0,0,1.472-.73.905.905,0,0,0,.189-.519v-3.765a.844.844,0,0,1-.053.3" transform="translate(-13.913 -9.131)" fill="#465664"/>
                <path id="Trazado_703814" data-name="Trazado 703814" d="M267.608,118.532a1.1,1.1,0,0,1,.334.424l25.189,54.273a.784.784,0,0,1,.071.334.869.869,0,0,1-.054.3c-.206.549-1.018.864-1.6.953l-60.7,9.39a8.657,8.657,0,0,1-5.548-.92,3.362,3.362,0,0,1-1.312-1.367l-8.367-18.031.638-.1,1.06-.167L210.6,149.14l-1.7.262-8.365-18.024a1.976,1.976,0,0,1-.193-.835,2.507,2.507,0,0,1,1.169-1.973,6.825,6.825,0,0,1,2.987-1.151l60.7-9.389a3.3,3.3,0,0,1,2.236.379,1.364,1.364,0,0,1,.167.114m-54.465,29.011a2.576,2.576,0,0,0,.132.275c.013.019,7.583,16.392,7.693,16.559a2.25,2.25,0,0,0,1.448.759,4.2,4.2,0,0,0,1.514-.04l13.933-2.159a3.884,3.884,0,0,0,1.646-.465.969.969,0,0,0,.526-1.144,2.971,2.971,0,0,0-.13-.275c-.017-.019-7.587-16.393-7.7-16.559a1.394,1.394,0,0,0-.321-.319,3.282,3.282,0,0,0-2.337-.448c-.153.022-14.217,2.205-14.236,2.205a3.9,3.9,0,0,0-1.646.466.971.971,0,0,0-.526,1.144" transform="translate(-13.913 -8.193)" fill="#54636f"/>
                <path id="Trazado_703815" data-name="Trazado 703815" d="M214.616,148.31a.97.97,0,0,0-.526,1.144,2.761,2.761,0,0,0,.132.275c.009.019,7.585,16.4,7.695,16.557a2.236,2.236,0,0,0,1.448.759,4.247,4.247,0,0,0,1.514-.038l13.932-2.161a3.88,3.88,0,0,0,1.646-.465.968.968,0,0,0,.527-1.144c-.035-.094-.086-.184-.13-.275-.01-.019-7.587-16.4-7.7-16.557a1.439,1.439,0,0,0-.321-.321,3.3,3.3,0,0,0-2.338-.447l-14.235,2.206a3.9,3.9,0,0,0-1.646.466" transform="translate(-14.865 -10.11)" fill="#465664"/>
                <path id="Trazado_703816" data-name="Trazado 703816" d="M231.164,128.264l1.586,3.418a.9.9,0,0,0,.956.511l4.125-.638a.9.9,0,0,0,.752-1.029.888.888,0,0,0-.073-.239l-1.588-3.418a.9.9,0,0,0-.953-.509l-4.126.636a.9.9,0,0,0-.679,1.269" transform="translate(-16.047 -8.774)" fill="#121d2b"/>
                <path id="Trazado_703817" data-name="Trazado 703817" d="M234.066,134.515l1.586,3.418a.9.9,0,0,0,.956.511l4.125-.638a.9.9,0,0,0,.753-1.025.852.852,0,0,0-.074-.243l-1.588-3.42a.9.9,0,0,0-.953-.511l-4.126.638a.9.9,0,0,0-.679,1.268" transform="translate(-16.249 -9.208)" fill="#121d2b"/>
                <path id="Trazado_703818" data-name="Trazado 703818" d="M236.972,140.772l1.586,3.418a.9.9,0,0,0,.956.511l4.125-.636a.9.9,0,0,0,.679-1.269l-1.588-3.419a.9.9,0,0,0-.953-.509l-4.126.637a.9.9,0,0,0-.679,1.269" transform="translate(-16.451 -9.643)" fill="#121d2b"/>
                <path id="Trazado_703819" data-name="Trazado 703819" d="M239.062,127.035l1.586,3.419a.9.9,0,0,0,.956.512l4.125-.638a.9.9,0,0,0,.753-1.025.844.844,0,0,0-.074-.243l-1.584-3.42a.9.9,0,0,0-.955-.511l-4.128.637a.9.9,0,0,0-.753,1.026.93.93,0,0,0,.074.243" transform="translate(-16.596 -8.688)" fill="#121d2b"/>
                <path id="Trazado_703820" data-name="Trazado 703820" d="M239.875,147.028l1.585,3.418a.9.9,0,0,0,.955.511l4.127-.638a.9.9,0,0,0,.753-1.029.882.882,0,0,0-.073-.241l-1.586-3.416a.9.9,0,0,0-.955-.511l-4.126.637a.9.9,0,0,0-.679,1.269" transform="translate(-16.652 -10.077)" fill="#121d2b"/>
                <path id="Trazado_703821" data-name="Trazado 703821" d="M241.98,133.292l1.586,3.418a.9.9,0,0,0,.956.511l4.125-.636a.9.9,0,0,0,.679-1.269l-1.588-3.417a.9.9,0,0,0-.953-.511l-4.126.637a.9.9,0,0,0-.679,1.269" transform="translate(-16.798 -9.123)" fill="#121d2b"/>
                <path id="Trazado_703822" data-name="Trazado 703822" d="M242.778,153.286l1.586,3.418a.9.9,0,0,0,.956.511l4.125-.638a.9.9,0,0,0,.752-1.033.887.887,0,0,0-.073-.237l-1.588-3.418a.9.9,0,0,0-.953-.509l-4.126.637a.9.9,0,0,0-.679,1.269" transform="translate(-16.854 -10.511)" fill="#121d2b"/>
                <path id="Trazado_703823" data-name="Trazado 703823" d="M244.874,139.55l1.586,3.418a.9.9,0,0,0,.956.511l4.125-.638a.9.9,0,0,0,.752-1.033.889.889,0,0,0-.073-.237l-1.588-3.418a.9.9,0,0,0-.953-.509l-4.118.641a.9.9,0,0,0-.679,1.269" transform="translate(-17 -9.558)" fill="#121d2b"/>
                <path id="Trazado_703824" data-name="Trazado 703824" d="M245.683,159.541l1.586,3.419a.9.9,0,0,0,.956.512l4.125-.638a.9.9,0,0,0,.752-1.029.888.888,0,0,0-.073-.239l-1.588-3.418a.9.9,0,0,0-.953-.509l-4.126.636a.9.9,0,0,0-.679,1.269" transform="translate(-17.056 -10.946)" fill="#121d2b"/>
                <path id="Trazado_703825" data-name="Trazado 703825" d="M246.969,125.808l1.586,3.418a.9.9,0,0,0,.956.511l4.125-.637a.9.9,0,0,0,.679-1.269l-1.587-3.419a.9.9,0,0,0-.953-.511l-4.126.637a.9.9,0,0,0-.679,1.269" transform="translate(-17.145 -8.603)" fill="#121d2b"/>
                <path id="Trazado_703826" data-name="Trazado 703826" d="M247.777,145.808l1.586,3.418a.9.9,0,0,0,.956.511l4.125-.638a.9.9,0,0,0,.752-1.033.89.89,0,0,0-.073-.237l-1.588-3.418a.9.9,0,0,0-.953-.509l-4.126.637a.9.9,0,0,0-.679,1.269" transform="translate(-17.201 -9.992)" fill="#121d2b"/>
                <path id="Trazado_703827" data-name="Trazado 703827" d="M248.586,165.8l1.586,3.419a.9.9,0,0,0,.956.512l4.123-.64a.9.9,0,0,0,.754-1.025.916.916,0,0,0-.074-.243l-1.588-3.42a.9.9,0,0,0-.953-.511l-4.126.638a.9.9,0,0,0-.753,1.025.929.929,0,0,0,.074.243" transform="translate(-17.257 -11.38)" fill="#121d2b"/>
                <path id="Trazado_703828" data-name="Trazado 703828" d="M249.874,132.07l1.586,3.418a.9.9,0,0,0,.956.511l4.125-.638a.9.9,0,0,0,.752-1.033.883.883,0,0,0-.073-.237l-1.588-3.418a.9.9,0,0,0-.953-.509l-4.126.637a.9.9,0,0,0-.679,1.269" transform="translate(-17.347 -9.038)" fill="#121d2b"/>
                <path id="Trazado_703829" data-name="Trazado 703829" d="M250.682,152.063l1.586,3.42a.9.9,0,0,0,.956.511l4.125-.638a.9.9,0,0,0,.679-1.268l-1.587-3.418a.9.9,0,0,0-.953-.509l-4.126.636a.9.9,0,0,0-.679,1.269" transform="translate(-17.403 -10.427)" fill="#121d2b"/>
                <path id="Trazado_703830" data-name="Trazado 703830" d="M251.487,172.057l1.586,3.418a.9.9,0,0,0,.956.511l4.125-.637a.9.9,0,0,0,.679-1.269l-1.588-3.419a.9.9,0,0,0-.953-.511l-4.126.637a.9.9,0,0,0-.679,1.269" transform="translate(-17.459 -11.815)" fill="#121d2b"/>
                <path id="Trazado_703831" data-name="Trazado 703831" d="M252.777,138.326l1.586,3.418a.9.9,0,0,0,.956.511l4.125-.639a.9.9,0,0,0,.679-1.267l-1.584-3.418a.9.9,0,0,0-.955-.511l-4.128.637a.9.9,0,0,0-.753,1.026.925.925,0,0,0,.074.243" transform="translate(-17.548 -9.473)" fill="#121d2b"/>
                <path id="Trazado_703832" data-name="Trazado 703832" d="M253.586,158.328l1.586,3.419a.9.9,0,0,0,.954.512l4.127-.638a.9.9,0,0,0,.753-1.025.844.844,0,0,0-.074-.243l-1.586-3.42a.9.9,0,0,0-.955-.511l-4.126.637a.9.9,0,0,0-.679,1.269" transform="translate(-17.604 -10.862)" fill="#121d2b"/>
                <path id="Trazado_703833" data-name="Trazado 703833" d="M254.4,178.315l1.586,3.418a.9.9,0,0,0,.955.511l4.125-.639a.9.9,0,0,0,.753-1.03.971.971,0,0,0-.073-.239l-1.589-3.418a.9.9,0,0,0-.953-.509l-4.125.637a.9.9,0,0,0-.754,1.026.932.932,0,0,0,.074.243" transform="translate(-17.661 -12.25)" fill="#121d2b"/>
                <path id="Trazado_703834" data-name="Trazado 703834" d="M254.873,124.592l1.586,3.418a.9.9,0,0,0,.956.511l4.125-.639a.9.9,0,0,0,.679-1.269l-1.588-3.418a.9.9,0,0,0-.953-.509l-4.126.637a.9.9,0,0,0-.679,1.269" transform="translate(-17.694 -8.519)" fill="#121d2b"/>
                <path id="Trazado_703835" data-name="Trazado 703835" d="M255.682,144.583l1.586,3.42a.9.9,0,0,0,.956.511l4.125-.638a.9.9,0,0,0,.752-1.029.887.887,0,0,0-.073-.239l-1.588-3.42a.9.9,0,0,0-.953-.509l-4.126.636a.9.9,0,0,0-.679,1.269" transform="translate(-17.75 -9.907)" fill="#121d2b"/>
                <path id="Trazado_703836" data-name="Trazado 703836" d="M256.488,164.577l1.588,3.418a.9.9,0,0,0,.956.511l4.125-.636a.9.9,0,0,0,.679-1.269l-1.588-3.419a.9.9,0,0,0-.954-.511l-4.125.637a.9.9,0,0,0-.681,1.269" transform="translate(-17.806 -11.296)" fill="#121d2b"/>
                <path id="Trazado_703837" data-name="Trazado 703837" d="M257.778,130.848l1.586,3.418a.9.9,0,0,0,.956.511l4.125-.638a.9.9,0,0,0,.752-1.029.891.891,0,0,0-.073-.239l-1.588-3.42a.9.9,0,0,0-.953-.509l-4.126.637a.9.9,0,0,0-.679,1.269" transform="translate(-17.895 -8.953)" fill="#121d2b"/>
                <path id="Trazado_703838" data-name="Trazado 703838" d="M258.585,150.841l1.586,3.42a.9.9,0,0,0,.956.511l4.125-.638a.9.9,0,0,0,.753-1.025.842.842,0,0,0-.074-.243l-1.586-3.418a.9.9,0,0,0-.955-.511l-4.126.637a.9.9,0,0,0-.679,1.269" transform="translate(-17.952 -10.342)" fill="#121d2b"/>
                <path id="Trazado_703839" data-name="Trazado 703839" d="M259.393,170.835l1.579,3.416a.9.9,0,0,0,.956.511l4.125-.637a.9.9,0,0,0,.679-1.269l-1.588-3.418a.9.9,0,0,0-.953-.509l-4.126.637a.9.9,0,0,0-.679,1.269" transform="translate(-18.007 -11.73)" fill="#121d2b"/>
                <path id="Trazado_703840" data-name="Trazado 703840" d="M260.681,137.1l1.586,3.418a.9.9,0,0,0,.956.511l4.125-.638a.9.9,0,0,0,.752-1.029.889.889,0,0,0-.073-.239l-1.588-3.418a.9.9,0,0,0-.953-.509l-4.126.631a.9.9,0,0,0-.679,1.269" transform="translate(-18.097 -9.388)" fill="#121d2b"/>
                <path id="Trazado_703841" data-name="Trazado 703841" d="M261.49,157.1l1.586,3.418a.9.9,0,0,0,.956.511l4.125-.637a.9.9,0,0,0,.679-1.269l-1.588-3.419a.9.9,0,0,0-.953-.511l-4.126.637a.9.9,0,0,0-.679,1.269" transform="translate(-18.153 -10.776)" fill="#121d2b"/>
                <path id="Trazado_703842" data-name="Trazado 703842" d="M262.3,177.093l1.588,3.418a.9.9,0,0,0,.956.511l4.125-.638a.9.9,0,0,0,.752-1.033.889.889,0,0,0-.073-.237l-1.581-3.412a.9.9,0,0,0-.953-.51l-4.126.638a.9.9,0,0,0-.681,1.268" transform="translate(-18.21 -12.165)" fill="#121d2b"/>
                <path id="Trazado_703843" data-name="Trazado 703843" d="M262.776,123.368l1.587,3.418a.9.9,0,0,0,.955.511l4.124-.638a.9.9,0,0,0,.681-1.27l-1.588-3.418a.9.9,0,0,0-.954-.509l-4.127.637a.9.9,0,0,0-.679,1.269" transform="translate(-18.243 -8.434)" fill="#121d2b"/>
                <path id="Trazado_703844" data-name="Trazado 703844" d="M263.584,143.361l1.586,3.419a.9.9,0,0,0,.956.512l4.125-.638a.9.9,0,0,0,.753-1.025.844.844,0,0,0-.073-.243l-1.586-3.418a.9.9,0,0,0-.955-.511l-4.126.637a.9.9,0,0,0-.679,1.269" transform="translate(-18.299 -9.822)" fill="#121d2b"/>
                <path id="Trazado_703845" data-name="Trazado 703845" d="M264.393,163.355l1.586,3.418a.9.9,0,0,0,.956.511l4.125-.638a.9.9,0,0,0,.752-1.033.885.885,0,0,0-.073-.237l-1.588-3.418a.9.9,0,0,0-.953-.509l-4.126.637a.9.9,0,0,0-.679,1.269" transform="translate(-18.355 -11.211)" fill="#121d2b"/>
                <path id="Trazado_703846" data-name="Trazado 703846" d="M265.679,129.623l1.586,3.419a.9.9,0,0,0,.956.512l4.125-.638a.9.9,0,0,0,.752-1.029.89.89,0,0,0-.073-.239l-1.588-3.418a.9.9,0,0,0-.953-.509l-4.126.636a.9.9,0,0,0-.679,1.269" transform="translate(-18.444 -8.869)" fill="#121d2b"/>
                <path id="Trazado_703847" data-name="Trazado 703847" d="M266.488,149.617l1.586,3.418a.9.9,0,0,0,.956.511l4.125-.636a.9.9,0,0,0,.753-1.025.844.844,0,0,0-.073-.243l-1.586-3.418a.9.9,0,0,0-.954-.511l-4.127.637a.9.9,0,0,0-.679,1.269" transform="translate(-18.5 -10.257)" fill="#121d2b"/>
                <path id="Trazado_703848" data-name="Trazado 703848" d="M267.3,169.611l1.586,3.418a.9.9,0,0,0,.956.512l4.125-.639a.9.9,0,0,0,.752-1.032.878.878,0,0,0-.073-.237l-1.588-3.418a.9.9,0,0,0-.953-.509l-4.126.637a.9.9,0,0,0-.753,1.025.883.883,0,0,0,.074.243" transform="translate(-18.556 -11.645)" fill="#121d2b"/>
                <path id="Trazado_703849" data-name="Trazado 703849" d="M268.582,135.881l1.594,3.419a.9.9,0,0,0,.956.512l4.125-.638a.9.9,0,0,0,.752-1.029.89.89,0,0,0-.073-.239l-1.588-3.42a.9.9,0,0,0-.953-.509l-4.126.636a.9.9,0,0,0-.681,1.269" transform="translate(-18.646 -9.303)" fill="#121d2b"/>
                <path id="Trazado_703850" data-name="Trazado 703850" d="M269.391,155.872l1.586,3.418a.9.9,0,0,0,.956.511l4.125-.638a.9.9,0,0,0,.752-1.033.885.885,0,0,0-.073-.237l-1.588-3.418a.9.9,0,0,0-.953-.509l-4.126.637a.9.9,0,0,0-.753,1.026.89.89,0,0,0,.074.243" transform="translate(-18.702 -10.691)" fill="#121d2b"/>
                <path id="Trazado_703851" data-name="Trazado 703851" d="M270.2,175.868l1.586,3.419a.9.9,0,0,0,.956.512l4.125-.638a.9.9,0,0,0,.752-1.029.883.883,0,0,0-.073-.239l-1.588-3.42a.9.9,0,0,0-.953-.509l-4.126.636a.9.9,0,0,0-.679,1.269" transform="translate(-18.758 -12.08)" fill="#121d2b"/>
                <path id="Trazado_703852" data-name="Trazado 703852" d="M271.489,142.139l1.586,3.418a.9.9,0,0,0,.956.511l4.125-.636a.9.9,0,0,0,.752-1.029.889.889,0,0,0-.073-.239l-1.587-3.42a.9.9,0,0,0-.953-.511l-4.126.637a.9.9,0,0,0-.679,1.269" transform="translate(-18.848 -9.737)" fill="#121d2b"/>
                <path id="Trazado_703853" data-name="Trazado 703853" d="M272.3,162.133l1.586,3.418a.9.9,0,0,0,.956.511l4.125-.638a.9.9,0,0,0,.752-1.033.882.882,0,0,0-.073-.237l-1.588-3.418a.9.9,0,0,0-.953-.509l-4.126.637a.9.9,0,0,0-.679,1.269" transform="translate(-18.904 -11.126)" fill="#121d2b"/>
                <path id="Trazado_703854" data-name="Trazado 703854" d="M274.392,148.395l1.586,3.418a.9.9,0,0,0,.956.511l4.125-.638a.9.9,0,0,0,.752-1.033.887.887,0,0,0-.073-.237L280.15,147a.9.9,0,0,0-.953-.509l-4.126.637a.9.9,0,0,0-.679,1.269" transform="translate(-19.049 -10.172)" fill="#121d2b"/>
                <path id="Trazado_703855" data-name="Trazado 703855" d="M304.634,130.653v0Zm.537-3.132v0m-.028.157a.448.448,0,0,0,.015-.084.5.5,0,0,0-.015.084m.006,0c-.025.154-.059.342-.093.553-.136.78-.317,1.836-.39,2.258v.011a.175.175,0,0,0-.013.077.214.214,0,0,1,0-.035c-.783,4.6-2.563,14.989-6.274,36.664l-24.356-52.482,8.7-50.8c.04-.245.162-.774.4-.774a.225.225,0,0,1,.168.09,3.219,3.219,0,0,1,.345.667c.124.277,23.226,50.013,23.309,50.255a5,5,0,0,1,.185,1.717,7.417,7.417,0,0,1-.141,1c-.1.563-.036.275-.514,2.994-.239,1.371-.226,1.36-1.267,7.414l-.2,1.128c.008-.065.021-.127.03-.187.039-.23.069-.412.094-.552" transform="translate(-19.029 -4.385)" fill="#7dc9ed"/>
                <path id="Trazado_703856" data-name="Trazado 703856" d="M275.2,168.388l1.586,3.418a.9.9,0,0,0,.956.511l4.125-.638a.9.9,0,0,0,.752-1.029.89.89,0,0,0-.073-.239l-1.588-3.42a.9.9,0,0,0-.953-.509l-4.126.636a.9.9,0,0,0-.753,1.025.885.885,0,0,0,.074.243" transform="translate(-19.105 -11.56)" fill="#121d2b"/>
                <path id="Trazado_703857" data-name="Trazado 703857" d="M277.295,154.653l1.586,3.418a.9.9,0,0,0,.956.511l4.125-.638a.9.9,0,0,0,.752-1.029.89.89,0,0,0-.073-.239l-1.588-3.42a.9.9,0,0,0-.953-.509l-4.126.637a.9.9,0,0,0-.679,1.269" transform="translate(-19.251 -10.606)" fill="#121d2b"/>
                <path id="Trazado_703858" data-name="Trazado 703858" d="M278.1,174.646l1.586,3.419a.9.9,0,0,0,.956.512l4.125-.638a.9.9,0,0,0,.753-1.025.845.845,0,0,0-.074-.243l-1.586-3.42a.9.9,0,0,0-.955-.511l-4.126.637a.9.9,0,0,0-.679,1.269" transform="translate(-19.307 -11.995)" fill="#121d2b"/>
                <path id="Trazado_703859" data-name="Trazado 703859" d="M280.2,160.908l1.587,3.418a.9.9,0,0,0,.956.511l4.127-.638a.9.9,0,0,0,.751-1.027.915.915,0,0,0-.074-.241l-1.586-3.42A.9.9,0,0,0,285,159l-4.125.637a.9.9,0,0,0-.681,1.268" transform="translate(-19.452 -11.041)" fill="#121d2b"/>
                <path id="Trazado_703860" data-name="Trazado 703860" d="M283.1,167.166l1.586,3.418a.905.905,0,0,0,.956.511l4.125-.638a.9.9,0,0,0,.753-1.025.861.861,0,0,0-.074-.243l-1.588-3.42a.9.9,0,0,0-.953-.511l-4.126.638a.9.9,0,0,0-.679,1.268" transform="translate(-19.654 -11.475)" fill="#121d2b"/>
                <path id="Trazado_703861" data-name="Trazado 703861" d="M286.007,173.424l1.586,3.418a.9.9,0,0,0,.956.511l4.125-.637a.9.9,0,0,0,.679-1.269l-1.588-3.419a.9.9,0,0,0-.953-.509l-4.126.637a.9.9,0,0,0-.679,1.269" transform="translate(-19.856 -11.91)" fill="#121d2b"/>
                <path id="Trazado_703862" data-name="Trazado 703862" d="M288.094,58.879l-4.377.128c.324.01.65.349.928.95l23.45,50.526a8.022,8.022,0,0,1,.564,1.884,17.626,17.626,0,0,1,.09,5.886l-8.929,52.134a2.694,2.694,0,0,1-.2.693c-.085.187-.195.292-.312.295,1.469-.043,2.935-.085,4.406-.125.287,0,.454-.65.514-.99l8.934-52.134a16.089,16.089,0,0,0,.193-3.276,12.98,12.98,0,0,0-.849-4.495L289.056,59.833c-.181-.4-.524-.967-.958-.954" transform="translate(-19.703 -4.089)" fill="#465664"/>
                <path id="Trazado_703863" data-name="Trazado 703863" d="M272.951,114.85a1.105,1.105,0,0,0-.333-.422,6.094,6.094,0,0,1,.078-.8l8.927-52.136a8.452,8.452,0,0,1,.244-1.06c.3-.965.673-1.413,1.044-1.413h.028c.326.008.65.347.931.95l23.449,50.525a8.09,8.09,0,0,1,.566,1.884,17.63,17.63,0,0,1,.088,5.886L299.044,170.4a2.647,2.647,0,0,1-.2.693c-.086.185-.212.292-.313.295s-.207-.068-.307-.235v-1.693a.807.807,0,0,0-.07-.334Zm25.336,52.067c3.711-21.673,5.491-32.07,6.275-36.664.009-.062.023-.126.028-.168s.013-.093.025-.156a.946.946,0,0,0,.017-.1c.023-.128.05-.286.082-.477.011-.059.021-.126.03-.167s.017-.1.023-.134a.4.4,0,0,0,.015-.087c.01-.062.022-.13.035-.208a.756.756,0,0,0,.025-.14V128.6c.008-.054.019-.126.027-.167s.011-.061.021-.12.021-.118.032-.183q.086-.5.2-1.127c1.042-6.054,1.027-6.042,1.267-7.413.479-2.722.41-2.432.515-2.994a7.568,7.568,0,0,0,.14-1,5.066,5.066,0,0,0-.183-1.716c-.086-.242-23.188-49.979-23.31-50.255a3.228,3.228,0,0,0-.346-.668.231.231,0,0,0-.167-.092c-.237.007-.364.531-.4.777l-8.7,50.8Z" transform="translate(-18.932 -4.098)" fill="#1d2e38"/>
                <path id="Trazado_703864" data-name="Trazado 703864" d="M183.98,103.186c.04-.023,36.123-20.863,36.291-20.943a4.859,4.859,0,0,1,2.083-.438,5.3,5.3,0,0,1,1.11.114,4.655,4.655,0,0,1,1.656.713c.561.337-1.276-.746,6.444,3.711,1.259.725,2.507,1.463,3.764,2.189s2.519,1.438,3.773,2.171c.525.305,1.044.614,1.57.911a14.391,14.391,0,0,1,1.48.882,1.222,1.222,0,0,1,.179.131,1.251,1.251,0,0,1,.11,1.765c-.3.355-.532.452-1.571,1.058-.019.012-35.165,20.309-35.347,20.4a4.844,4.844,0,0,1-2.084.437,4.968,4.968,0,0,1-1.892-.355,6.691,6.691,0,0,1-.877-.474c-.559-.338,1.276.746-6.444-3.712-1.259-.724-2.505-1.462-3.763-2.189s-2.52-1.438-3.773-2.17c-.521-.307-1.044-.616-1.57-.912-1.04-.586-1.531-.813-1.852-1.276-.421-.6-.324-1.4.715-2.017m45.909-16.11,3.822,2.207a.621.621,0,0,0,.564,0l.208-.12.055-.033a.205.205,0,0,0,.117-.168.2.2,0,0,0-.117-.167l-3.88-2.244a.612.612,0,0,0-.562,0l-.264.152c-.158.092-.154.235,0,.326Z" transform="translate(-12.711 -5.681)" fill="#7dc9ed"/>
                <path id="Trazado_703865" data-name="Trazado 703865" d="M184.906,109.57c.011.452.522.9.7.583a.355.355,0,0,0,.03-.212c-.048-.4-.4-.676-.576-.631a.239.239,0,0,0-.167.261m2.947,1.688c.011.406.412.8.631.668a.233.233,0,0,0,.074-.08.354.354,0,0,0,.03-.214c-.048-.4-.4-.677-.576-.63a.236.236,0,0,0-.167.26m-.987-.583c.012.454.521.9.705.584a.361.361,0,0,0,.032-.212c-.048-.4-.395-.676-.576-.631a.238.238,0,0,0-.167.261m-.23-.2c-.048-.4-.395-.677-.576-.63a.238.238,0,0,0-.167.26c.012.4.412.8.631.667a.2.2,0,0,0,.074-.08.34.34,0,0,0,.032-.214m9.628,5.6c.017.636.648,1.257.99,1.045a.378.378,0,0,0,.118-.127.548.548,0,0,0,.045-.333,1.288,1.288,0,0,0-.12-.4.882.882,0,0,0-.088-.155,1.226,1.226,0,0,0-.167-.2c-.406-.411-.795-.248-.784.177m-6.084-3.429a.932.932,0,0,0,.424.732l2.9,1.669a.259.259,0,0,0,.424-.244v-.183a.936.936,0,0,0-.424-.732l-2.9-1.67a.312.312,0,0,0-.286-.036.287.287,0,0,0-.139.28ZM243.126,95.43a1.712,1.712,0,0,0,.368-.969v3.37a1.839,1.839,0,0,1-.713,1.335,3.636,3.636,0,0,1-.453.309l-36.084,20.833a6.27,6.27,0,0,1-4.281.516,4.606,4.606,0,0,1-1.357-.516l-17.172-9.914a2.014,2.014,0,0,1-1.168-1.628v-3.339a1.152,1.152,0,0,0,.032.276,2.337,2.337,0,0,0,1.136,1.309l17.172,9.912a5.67,5.67,0,0,0,2.82.668,7.334,7.334,0,0,0,1.461-.155,4.618,4.618,0,0,0,1.358-.519l36.084-20.833a2.642,2.642,0,0,0,.8-.668" transform="translate(-12.657 -6.56)" fill="#465664"/>
                <path id="Trazado_703866" data-name="Trazado 703866" d="M183.4,106.1l17.172,9.912a5.651,5.651,0,0,0,2.82.668v-.433a5.012,5.012,0,0,1-1.894-.354,6.415,6.415,0,0,1-.875-.476c-.561-.334,1.274.746-6.446-3.709-1.256-.727-2.505-1.467-3.764-2.19s-2.519-1.435-3.772-2.17c-.523-.305-1.044-.614-1.57-.912-1.039-.585-1.529-.812-1.852-1.273-.419-.6-.322-1.4.715-2.017.04-.025,36.127-20.87,36.291-20.945a4.893,4.893,0,0,1,2.085-.437v-.433a7.2,7.2,0,0,0-1.461.155,4.625,4.625,0,0,0-1.36.517L183.4,102.835a2.718,2.718,0,0,0-.8.668,1.71,1.71,0,0,0-.368,1,1.221,1.221,0,0,0,.032.278,2.338,2.338,0,0,0,1.137,1.307" transform="translate(-12.655 -5.648)" fill="#5d6c7e"/>
                <path id="Trazado_703867" data-name="Trazado 703867" d="M234.159,87.31a.614.614,0,0,0-.563,0l-.21.12,3.828,2.218a.627.627,0,0,0,.567,0l.207-.12Z" transform="translate(-16.207 -6.058)" fill="#070607"/>
                <path id="Trazado_703868" data-name="Trazado 703868" d="M233.583,86.9l-.263.152a.167.167,0,0,0,0,.324l.055.033.208-.12a.613.613,0,0,1,.563,0l3.822,2.207.055-.034a.2.2,0,0,0,.116-.158.2.2,0,0,0-.116-.168L234.144,86.9a.619.619,0,0,0-.563,0" transform="translate(-16.194 -6.03)" fill="#121d2b"/>
                <path id="Trazado_703869" data-name="Trazado 703869" d="M243.966,94.358c-.3.357-.534.452-1.571,1.059-.02.011-35.167,20.308-35.349,20.4a4.866,4.866,0,0,1-2.082.437v.434a7.19,7.19,0,0,0,1.459-.156,4.624,4.624,0,0,0,1.358-.517L243.87,95.18a2.692,2.692,0,0,0,.8-.668,1.7,1.7,0,0,0,.367-.969,1.075,1.075,0,0,0-.028-.318,2.338,2.338,0,0,0-1.137-1.307L226.7,82.005a5.676,5.676,0,0,0-2.819-.668v.435a5.358,5.358,0,0,1,1.11.114,4.665,4.665,0,0,1,1.655.714c.561.334-1.274-.746,6.447,3.712,1.255.725,2.5,1.465,3.763,2.189s2.517,1.434,3.773,2.171c.522.305,1.043.614,1.569.911a14.292,14.292,0,0,1,1.48.882,1.253,1.253,0,0,1,.288,1.9" transform="translate(-14.234 -5.648)" fill="#5d6c7e"/>
                <path id="Trazado_703870" data-name="Trazado 703870" d="M155.727,124.872v-1.736c-7.718,4.357-18.207,5.625-27.081,4.6v3.1c8.885.7,19.572-.91,27.081-5.96" transform="translate(-8.934 -8.551)" fill="#c83c30"/>
                <path id="Trazado_703871" data-name="Trazado 703871" d="M155.727,110.576v-1.712c-7.8,4.352-18.253,5.6-27.081,4.575v3.1c8.972.69,19.585-.918,27.081-5.96" transform="translate(-8.934 -7.56)" fill="#c83c30"/>
                <path id="Trazado_703872" data-name="Trazado 703872" d="M155.727,140.436c-5.888,3.964-15.438,6.777-27.081,5.96v3.028c11.9,1.378,22.648-1.5,29.005-5.749Z" transform="translate(-8.934 -9.752)" fill="#f5b0a9"/>
                <path id="Trazado_703873" data-name="Trazado 703873" d="M157.748,90.974v5l1.924,3.215V89.823a20.085,20.085,0,0,1-1.924,1.15" transform="translate(-10.955 -6.238)" fill="#a53e5e"/>
                <path id="Trazado_703874" data-name="Trazado 703874" d="M157.748,124.787l1.924,3.238V121.9a20.09,20.09,0,0,1-1.924,1.15Z" transform="translate(-10.955 -8.465)" fill="#a53e5e"/>
                <path id="Trazado_703875" data-name="Trazado 703875" d="M157.748,108.774v1.712l1.924,3.24V107.6c-.61.423-1.268.8-1.924,1.173" transform="translate(-10.955 -7.472)" fill="#a53e5e"/>
                <path id="Trazado_703876" data-name="Trazado 703876" d="M157.748,137.349v2.787l1.924,3.238v-7.18a20.088,20.088,0,0,1-1.924,1.15" transform="translate(-10.955 -9.458)" fill="#a53e5e"/>
                <g id="Grupo_973598" data-name="Grupo 973598" transform="translate(140.264 86.018)" opacity="0.64">
                  <g id="Grupo_973597" data-name="Grupo 973597">
                    <g id="Grupo_973596" data-name="Grupo 973596" clip-path="url(#clip-path)">
                      <g id="Grupo_973595" data-name="Grupo 973595" transform="translate(0)">
                        <g id="Grupo_973594" data-name="Grupo 973594" clip-path="url(#clip-path-2)">
                          <path id="Trazado_703877" data-name="Trazado 703877" d="M150.734,93.939v50.336a35.27,35.27,0,0,0,4.037-1.524V92.437a40.184,40.184,0,0,1-4.037,1.5" transform="translate(-150.732 -92.437)" fill="#e0d7e9"/>
                        </g>
                      </g>
                    </g>
                  </g>
                </g>
                <g id="Grupo_973603" data-name="Grupo 973603" transform="translate(130.035 88.129)" opacity="0.37">
                  <g id="Grupo_973602" data-name="Grupo 973602">
                    <g id="Grupo_973601" data-name="Grupo 973601" clip-path="url(#clip-path-3)">
                      <g id="Grupo_973600" data-name="Grupo 973600">
                        <g id="Grupo_973599" data-name="Grupo 973599" clip-path="url(#clip-path-4)">
                          <path id="Trazado_703878" data-name="Trazado 703878" d="M139.744,96.068v50.337a47.5,47.5,0,0,0,8.095-1.361V94.707a46.49,46.49,0,0,1-8.095,1.361" transform="translate(-139.739 -94.706)" fill="#e0d7e9"/>
                        </g>
                      </g>
                    </g>
                  </g>
                </g>
                <path id="Trazado_703879" data-name="Trazado 703879" d="M157.561,140.068c-6.331,4.254-17.073,7.138-29.005,5.749V95.481c11.968,1.408,23.074-1.622,29.005-5.749Zm0-51.508a1.171,1.171,0,0,0-.67.21c-5.221,3.633-13.783,5.888-22.345,5.888a55.089,55.089,0,0,1-5.991-.35,1.173,1.173,0,0,0-1.173,1.173v50.336a1.175,1.175,0,0,0,1.038,1.165c12.2,1.421,23.178-1.5,29.8-5.941a1.173,1.173,0,0,0,.518-.973V89.732a1.173,1.173,0,0,0-1.173-1.173" transform="translate(-8.846 -6.15)" fill="#f5b0a9"/>
                <g id="Grupo_973608" data-name="Grupo 973608" transform="translate(138.646 72.454)" opacity="0.64">
                  <g id="Grupo_973607" data-name="Grupo 973607">
                    <g id="Grupo_973606" data-name="Grupo 973606" clip-path="url(#clip-path-5)">
                      <g id="Grupo_973605" data-name="Grupo 973605">
                        <g id="Grupo_973604" data-name="Grupo 973604" clip-path="url(#clip-path-5)">
                          <path id="Trazado_703880" data-name="Trazado 703880" d="M148.993,79.034v79.013a29.159,29.159,0,0,0,3.633-1.2V77.861a35.525,35.525,0,0,1-3.633,1.173" transform="translate(-148.993 -77.861)" fill="#e3af94"/>
                        </g>
                      </g>
                    </g>
                  </g>
                </g>
                <g id="Grupo_973613" data-name="Grupo 973613" transform="translate(103.395 69.769)" opacity="0.64">
                  <g id="Grupo_973612" data-name="Grupo 973612">
                    <g id="Grupo_973611" data-name="Grupo 973611" clip-path="url(#clip-path-7)">
                      <g id="Grupo_973610" data-name="Grupo 973610">
                        <g id="Grupo_973609" data-name="Grupo 973609" clip-path="url(#clip-path-7)">
                          <path id="Trazado_703881" data-name="Trazado 703881" d="M111.111,154a30.045,30.045,0,0,0,3.657,1.879V76.859a29.933,29.933,0,0,1-3.642-1.879Z" transform="translate(-111.111 -74.976)" fill="#e3af94"/>
                        </g>
                      </g>
                    </g>
                  </g>
                </g>
                <g id="Grupo_973618" data-name="Grupo 973618" transform="translate(127.477 74.373)" opacity="0.37">
                  <g id="Grupo_973617" data-name="Grupo 973617">
                    <g id="Grupo_973616" data-name="Grupo 973616" clip-path="url(#clip-path-9)">
                      <g id="Grupo_973615" data-name="Grupo 973615" transform="translate(0)">
                        <g id="Grupo_973614" data-name="Grupo 973614" clip-path="url(#clip-path-10)">
                          <path id="Trazado_703882" data-name="Trazado 703882" d="M136.99,80.848v78.989a50.217,50.217,0,0,0,8.095-.891c0-80.9.1-79.013-.022-79.013a49.234,49.234,0,0,1-8.073.916" transform="translate(-136.99 -79.923)" fill="#e3af94"/>
                        </g>
                      </g>
                    </g>
                  </g>
                </g>
                <path id="Trazado_703883" data-name="Trazado 703883" d="M114.244,31.89,169.129.2a1.129,1.129,0,0,1,1.052-.126,1.178,1.178,0,0,1,.114.065l5.15,2.918-4.378,5.68-.234-.061V120.559a7,7,0,0,1-2.921,5.581l-50.223,29,3.228,2.311-3.576,3.525-5.387-3.034a1.477,1.477,0,0,1-.626-1.4V37.473a7,7,0,0,1,2.921-5.582" transform="translate(-7.73 0)" fill="#7990c9"/>
                <path id="Trazado_703884" data-name="Trazado 703884" d="M118.683,161.033l54.884-31.687a7,7,0,0,0,2.922-5.583V4.694c0-1.253-.765-1.834-1.706-1.29L119.9,35.092a7,7,0,0,0-2.922,5.582V159.744c0,1.253.765,1.834,1.707,1.289" transform="translate(-8.123 -0.222)" fill="#ced9f1"/>
                <path id="Trazado_703885" data-name="Trazado 703885" d="M118.683,169.361l54.884-31.687a7,7,0,0,0,2.922-5.583v.626a7,7,0,0,1-2.922,5.582l-54.884,31.687c-.942.543-1.707-.033-1.707-1.29v-.626c0,1.253.765,1.834,1.707,1.29" transform="translate(-8.123 -9.173)" fill="#9bb0dc"/>
                <path id="Trazado_703886" data-name="Trazado 703886" d="M140.466,27.695c0,.737.517,1.035,1.155.668a2.555,2.555,0,0,0,1.155-2c0-.737-.517-1.037-1.155-.668a2.553,2.553,0,0,0-1.155,2" transform="translate(-9.755 -1.773)" fill="#1d3787"/>
                <path id="Trazado_703887" data-name="Trazado 703887" d="M146.108,24.56l11.439-6.6a1.03,1.03,0,0,0,.464-.807c0-.3-.208-.417-.464-.269l-11.439,6.6a1.032,1.032,0,0,0-.466.807c0,.3.209.417.466.269" transform="translate(-10.114 -1.168)" fill="#1d3787"/>
                <path id="Trazado_703888" data-name="Trazado 703888" d="M118.625,157.276,174.3,125.134a5.265,5.265,0,0,0,2.2-4.2V9.045c0-1.211-.737-1.767-1.645-1.243L119.178,39.943a5.261,5.261,0,0,0-2.2,4.2V156.03c0,1.211.735,1.767,1.643,1.243" transform="translate(-8.124 -0.528)" fill="#1d3787"/>
                <g id="Grupo_973623" data-name="Grupo 973623" transform="translate(108.854 2.976)" opacity="0.53">
                  <g id="Grupo_973622" data-name="Grupo 973622">
                    <g id="Grupo_973621" data-name="Grupo 973621" clip-path="url(#clip-path-11)">
                      <g id="Grupo_973620" data-name="Grupo 973620" transform="translate(0)">
                        <g id="Grupo_973619" data-name="Grupo 973619" clip-path="url(#clip-path-12)">
                          <path id="Trazado_703889" data-name="Trazado 703889" d="M119.9,35.091,174.783,3.4c.943-.543,1.707.034,1.707,1.289V6.67c0-1.253-.764-1.834-1.707-1.289L119.9,37.068a6.989,6.989,0,0,0-2.921,5.582V40.673a6.991,6.991,0,0,1,2.921-5.582" transform="translate(-116.977 -3.198)" fill="#fff"/>
                        </g>
                      </g>
                    </g>
                  </g>
                </g>
                <path id="Trazado_703890" data-name="Trazado 703890" d="M114.1,76.493l.153.089c.569.328,1.03-.02,1.03-.78V60.963A2.467,2.467,0,0,0,114.25,59l-.153-.088c-.569-.328-1.03.02-1.03.779V74.525a2.469,2.469,0,0,0,1.03,1.967" transform="translate(-7.852 -4.082)" fill="#1c3484"/>
                <path id="Trazado_703891" data-name="Trazado 703891" d="M114.1,90.553l.153.089c.569.328,1.03-.02,1.03-.78v-7a2.465,2.465,0,0,0-1.03-1.967l-.153-.088c-.569-.328-1.03.02-1.03.779v7a2.468,2.468,0,0,0,1.03,1.967" transform="translate(-7.852 -5.603)" fill="#1c3484"/>
                <path id="Trazado_703892" data-name="Trazado 703892" d="M113.56,76.493l.153.089c.569.328,1.03-.02,1.03-.78V60.963A2.467,2.467,0,0,0,113.713,59l-.153-.088c-.569-.328-1.03.02-1.03.779V74.525a2.469,2.469,0,0,0,1.03,1.967" transform="translate(-7.815 -4.082)" fill="#46549e"/>
                <path id="Trazado_703893" data-name="Trazado 703893" d="M113.56,90.553l.153.089c.569.328,1.03-.02,1.03-.78v-7a2.465,2.465,0,0,0-1.03-1.967l-.153-.088c-.569-.328-1.03.02-1.03.779v7a2.469,2.469,0,0,0,1.03,1.967" transform="translate(-7.815 -5.603)" fill="#46549e"/>
                <path id="Trazado_703894" data-name="Trazado 703894" d="M124.166,29.766a.894.894,0,0,0,0,1.694,3.243,3.243,0,0,0,2.935,0,.894.894,0,0,0,0-1.694,3.243,3.243,0,0,0-2.935,0" transform="translate(-8.581 -2.043)" fill="#1d3787"/>
                <path id="Trazado_703895" data-name="Trazado 703895" d="M124.685,30.136a.607.607,0,0,0,0,1.151,2.208,2.208,0,0,0,1.994,0,.607.607,0,0,0,0-1.151,2.2,2.2,0,0,0-1.994,0" transform="translate(-8.63 -2.076)" fill="#0f2762"/>
                <path id="Trazado_703896" data-name="Trazado 703896" d="M127.1,30.186a3.241,3.241,0,0,0-2.934,0,1.172,1.172,0,0,0-.576.637c-.114-.376.076-.77.576-1.058a3.235,3.235,0,0,1,2.934,0c.5.288.689.685.575,1.058a1.174,1.174,0,0,0-.575-.637" transform="translate(-8.58 -2.043)" fill="#0f2762"/>
                <path id="Trazado_703897" data-name="Trazado 703897" d="M118.8,144.992l56.527-32.635V29.417L118.8,62.053Z" transform="translate(-8.25 -2.043)" fill="#5d85c4"/>
                <path id="Trazado_703898" data-name="Trazado 703898" d="M118.8,151.044l56.527-32.636v-1.832L118.8,149.211Z" transform="translate(-8.25 -8.095)" fill="#2c519d"/>
                <path id="Trazado_703899" data-name="Trazado 703899" d="M121.485,140.752,173.019,111V33.969L121.485,63.722Z" transform="translate(-8.437 -2.359)" fill="#ebf5fd"/>
                <path id="Trazado_703900" data-name="Trazado 703900" d="M148.853,35.5a9.733,9.733,0,0,0-4.4,7.627c0,2.809,1.972,3.947,4.4,2.543a9.731,9.731,0,0,0,4.4-7.627c0-2.808-1.97-3.947-4.4-2.543m0,5.911c-1.126.649-2.038.123-2.038-1.176a4.5,4.5,0,0,1,2.038-3.527c1.125-.65,2.036-.123,2.036,1.176a4.5,4.5,0,0,1-2.036,3.527" transform="translate(-10.031 -2.423)" fill="#002f7a"/>
                <path id="Trazado_703901" data-name="Trazado 703901" d="M136.756,58.571l23.117-13.347-.366-6.494c-.105-1.85-1.477-2.547-3.132-1.589l-16.115,9.3a7,7,0,0,0-3.131,5.21Z" transform="translate(-9.497 -2.549)" fill="#2c519d"/>
                <path id="Trazado_703902" data-name="Trazado 703902" d="M135.424,60.194l25.594-14.783v-1.08L135.424,59.113Z" transform="translate(-9.405 -3.078)" fill="#5d85c4"/>
                <path id="Trazado_703903" data-name="Trazado 703903" d="M125.458,86.719,169.6,61.233V59.98L125.458,85.466Z" transform="translate(-8.712 -4.165)" fill="#5d85c4"/>
                <path id="Trazado_703904" data-name="Trazado 703904" d="M125.439,90.643l33.12-19.123V70.266L125.435,89.39Z" transform="translate(-8.711 -4.879)" fill="#5d85c4"/>
                <path id="Trazado_703905" data-name="Trazado 703905" d="M125.439,93.547l44.164-25.5V66.8l-44.164,25.5Z" transform="translate(-8.711 -4.638)" fill="#5d85c4"/>
                <path id="Trazado_703906" data-name="Trazado 703906" d="M125.439,96.928,169.6,71.43V70.176l-44.164,25.5Z" transform="translate(-8.711 -4.873)" fill="#5d85c4"/>
                <path id="Trazado_703907" data-name="Trazado 703907" d="M125.439,100.31l44.164-25.5V73.558l-44.164,25.5Z" transform="translate(-8.711 -5.108)" fill="#5d85c4"/>
                <path id="Trazado_703908" data-name="Trazado 703908" d="M125.439,103.69l44.164-25.5V76.938l-44.164,25.5Z" transform="translate(-8.711 -5.343)" fill="#5d85c4"/>
                <path id="Trazado_703909" data-name="Trazado 703909" d="M125.439,107.546l33.12-19.125V87.169l-33.124,19.123Z" transform="translate(-8.711 -6.053)" fill="#5d85c4"/>
                <path id="Trazado_703910" data-name="Trazado 703910" d="M125.439,110.455l44.164-25.5V83.7l-44.164,25.5Z" transform="translate(-8.711 -5.813)" fill="#5d85c4"/>
                <path id="Trazado_703911" data-name="Trazado 703911" d="M125.439,113.831l44.164-25.5V87.08l-44.164,25.5Z" transform="translate(-8.711 -6.047)" fill="#5d85c4"/>
                <path id="Trazado_703912" data-name="Trazado 703912" d="M125.439,141.585l8.586-4.957v-1.252l-8.586,4.957Z" transform="translate(-8.711 -9.401)" fill="#5d85c4"/>
                <path id="Trazado_703913" data-name="Trazado 703913" d="M125.439,139l8.586-4.957v-1.253l-8.586,4.957Z" transform="translate(-8.711 -9.221)" fill="#5d85c4"/>
                <path id="Trazado_703914" data-name="Trazado 703914" d="M125.439,136.4l8.586-4.957v-1.252l-8.586,4.957Z" transform="translate(-8.711 -9.041)" fill="#5d85c4"/>
                <path id="Trazado_703915" data-name="Trazado 703915" d="M163.648,114.357l8.586-4.957v-1.253l-8.586,4.957Z" transform="translate(-11.365 -7.51)" fill="#5d85c4"/>
                <path id="Trazado_703916" data-name="Trazado 703916" d="M125.439,127.718l43.986-25.4V93.106l-43.986,25.4Z" transform="translate(-8.711 -6.466)" fill="#adc7ea"/>
                <path id="Trazado_703918" data-name="Trazado 703918" d="M191.3,136.847a.061.061,0,0,0-.034.008.064.064,0,0,0-.033.009c-.023.007-.046.011-.068.019a.077.077,0,0,0-.033.008.066.066,0,0,0-.033.009.11.11,0,0,0-.033.008.144.144,0,0,0-.035.01.072.072,0,0,0-.033.009c-.021.007-.045.011-.066.019a.073.073,0,0,0-.033.008.091.091,0,0,0-.034.009.138.138,0,0,0-.034.008.135.135,0,0,0-.033.01.081.081,0,0,0-.033.008h-.016a.1.1,0,0,0-.041.009.13.13,0,0,0-.033.008.186.186,0,0,0-.033.009.121.121,0,0,0-.032.008.555.555,0,0,0-.065.018.128.128,0,0,0-.033.008.134.134,0,0,0-.033.01.768.768,0,0,0-.1.025l-3.884,1.022c-1.419.3.418,3.558,1.429,2.355l2.839-2.772c.011-.007.066-.062.072-.069a.878.878,0,0,1,.047-.047.122.122,0,0,0,.025-.024.188.188,0,0,0,.024-.023.1.1,0,0,0,.023-.024.076.076,0,0,0,.024-.021.119.119,0,0,0,.027-.03l.011-.014a.086.086,0,0,0,.025-.023,16.071,16.071,0,0,0,.05-.048.078.078,0,0,0,.025-.024.123.123,0,0,0,.025-.024.088.088,0,0,0,.025-.024.089.089,0,0,0,.025-.024.091.091,0,0,0,.023-.023.078.078,0,0,0,.025-.024.066.066,0,0,0,.025-.025l.049-.047.048-.048a.046.046,0,0,0,.025-.024.048.048,0,0,0,.025-.023c.093-.04-.043-.27-.126-.213" transform="translate(-12.916 -9.502)" fill="#7e438e"/>
                <path id="Trazado_703919" data-name="Trazado 703919" d="M184.948,137.936c-.01,0-11.659,2.277-11.723,2.291-1.187.217-2.866.429-2.866,3.191,0,4.742,5.387,10.071,7.937,7.118.017-.016,8.578-9.361,8.592-9.377.877-.846-.539-3.587-1.939-3.222" transform="translate(-11.831 -9.576)" fill="#ebbe7f"/>
                <path id="Trazado_703920" data-name="Trazado 703920" d="M122.684,177.833l-2.221-5.724,2.221-3.159,4.441,2.565,2.221,5.724-2.221,3.159Z" transform="translate(-8.366 -11.732)" fill="#d46719"/>
                <path id="Trazado_703921" data-name="Trazado 703921" d="M172.43,149.367l-2.221-5.724,1.426-2.807,5.238,2.211,2.219,5.724-1.333,2.46Z" transform="translate(-11.82 -9.78)" fill="#ebc135"/>
                <path id="Trazado_703922" data-name="Trazado 703922" d="M176.136,149.364l-46.291,26.513-2.221,3.159L174.8,151.824Z" transform="translate(-8.863 -10.372)" fill="#eeaf29"/>
                <path id="Trazado_703923" data-name="Trazado 703923" d="M173.915,143.213l-46.291,26.513,2.219,5.724,46.292-26.512Z" transform="translate(-8.863 -9.945)" fill="#facd30"/>
                <path id="Trazado_703924" data-name="Trazado 703924" d="M168.341,140.837,122.845,167l4.441,2.566,46.291-26.513Z" transform="translate(-8.531 -9.78)" fill="#ffe84c"/>
                <path id="Trazado_703925" data-name="Trazado 703925" d="M126.453,176.027c0,.838-.589,1.177-1.316.759a2.909,2.909,0,0,1-1.314-2.278c0-.838.588-1.177,1.314-.758a2.906,2.906,0,0,1,1.316,2.277" transform="translate(-8.599 -12.053)" fill="#7e438e"/>
                <path id="Trazado_703926" data-name="Trazado 703926" d="M130.3,127.746v-6.177c-.293-3.383,7.679-3.106,7.424-.221v6.239a1.419,1.419,0,0,1,0,.251v15.256a1.953,1.953,0,0,1,0,.329V149.6c.3,3.323-7.709,3.258-7.424,0v-6.2a1.784,1.784,0,0,1,0-.2V128a1.872,1.872,0,0,1,0-.25" transform="translate(-9.048 -8.271)" fill="#facd30"/>
                <g id="Grupo_973633" data-name="Grupo 973633" transform="translate(116.363 85.857)" opacity="0.15">
                  <g id="Grupo_973632" data-name="Grupo 973632">
                    <g id="Grupo_973631" data-name="Grupo 973631" clip-path="url(#clip-path-13)">
                      <g id="Grupo_973630" data-name="Grupo 973630">
                        <g id="Grupo_973629" data-name="Grupo 973629" clip-path="url(#clip-path-14)">
                          <path id="Trazado_703927" data-name="Trazado 703927" d="M143.893,111.225a23.1,23.1,0,0,1-8.028,8.485c-2.931,1.694-5.659,1.982-7.681.815s-3.131-3.674-3.131-7.06a25.178,25.178,0,0,1,11.362-19.68c2.933-1.694,5.661-1.982,7.682-.816s3.132,3.675,3.132,7.061a23.115,23.115,0,0,1-3.335,11.195" transform="translate(-125.047 -92.264)" fill="#56a1be"/>
                        </g>
                      </g>
                    </g>
                  </g>
                </g>
                <path id="Trazado_703928" data-name="Trazado 703928" d="M130.549,130.416c2.756-1.591,8.58-1.012,8.5,2.532V135.7c.068,2.976-5.518,3.976-8.5,2.256a2.463,2.463,0,0,1-1.457-2.05V132.5a2.49,2.49,0,0,1,1.457-2.084" transform="translate(-8.965 -8.998)" fill="#6985c2"/>
                <path id="Trazado_703929" data-name="Trazado 703929" d="M116.033,112.026c0,7.79,3.586,9.188,8.956,12.248,3.285,1.92,7.253.893,10.524-.994,8.168-4.716,14.789-16.186,14.789-25.616,0-4.728-1.663-8.047-4.354-9.587l-.047-.027c-5.492-3.164-8.423-5.484-15.083-1.639-8.169,4.715-14.789,16.184-14.789,25.616m19.489-18.209a9.626,9.626,0,0,1,4.867-1.459,9.66,9.66,0,0,1,1.164,4.937c0,6.841-4.8,15.156-10.725,18.576a9.646,9.646,0,0,1-4.868,1.46,9.656,9.656,0,0,1-1.163-4.938c0-6.84,4.8-15.156,10.725-18.576" transform="translate(-8.058 -5.861)" fill="#eeaf29"/>
                <path id="Trazado_703930" data-name="Trazado 703930" d="M135.86,89.324c-8.169,4.716-14.79,16.185-14.79,25.616s6.621,13.255,14.79,8.538,14.79-16.184,14.79-25.615-6.623-13.254-14.79-8.539m0,29.461c-5.923,3.421-10.725.65-10.725-6.19s4.8-15.157,10.725-18.578,10.725-.648,10.725,6.193-4.8,15.156-10.725,18.575" transform="translate(-8.408 -6.063)" fill="#ffe84c"/>
                <path id="Trazado_703931" data-name="Trazado 703931" d="M136.629,132.059a5.782,5.782,0,0,1-5.228,0,1.593,1.593,0,0,1,0-3.018,5.776,5.776,0,0,1,5.228,0,1.593,1.593,0,0,1,0,3.018" transform="translate(-9.05 -8.918)" fill="#facd30"/>
                <rect id="Rectángulo_339587" data-name="Rectángulo 339587" width="61.602" height="84.242" transform="matrix(1, -0.006, 0.006, 1, 74.599, 135.051)" fill="#5cbdd2"/>
                <rect id="Rectángulo_339588" data-name="Rectángulo 339588" width="56.352" height="79.647" transform="matrix(1, -0.006, 0.006, 1, 77.237, 137.309)" fill="#f1f9ff"/>
              </g>
            </g>
            <g id="Grupo_973637" data-name="Grupo 973637" transform="translate(74.6 134.636)">
              <g id="Grupo_973636" data-name="Grupo 973636" transform="translate(0 0)" clip-path="url(#clip-path-15)">
                <path id="Trazado_703932" data-name="Trazado 703932" d="M100.711,145l.017,2.869a2.868,2.868,0,0,0,2.883,2.853h0l15.4-.089a2.868,2.868,0,0,0,2.85-2.886l-.017-2.869Z" transform="translate(-81.594 -144.697)" fill="#7870b0"/>
                <rect id="Rectángulo_339590" data-name="Rectángulo 339590" width="6.972" height="0.705" transform="translate(9.573 71.008) rotate(-0.329)" fill="#9cb4df"/>
                <rect id="Rectángulo_339591" data-name="Rectángulo 339591" width="6.972" height="0.705" transform="translate(18.16 70.958) rotate(-0.329)" fill="#9cb4df"/>
                <rect id="Rectángulo_339592" data-name="Rectángulo 339592" width="9.67" height="0.705" transform="translate(9.582 72.574) rotate(-0.331)" fill="#9cb4df"/>
                <path id="Trazado_703933" data-name="Trazado 703933" d="M136.919,178.285l-10.19.06-.06-10.192,10.192-.059Zm-9.714-.424,9.232-.053-.054-9.231-9.231.053Z" transform="translate(-83.396 -146.309)" fill="#9dc0e8"/>
                <path id="Trazado_703934" data-name="Trazado 703934" d="M132.177,176.136a.72.72,0,0,1-.556-.258l-3.169-3.786a.72.72,0,1,1,1.1-.934l.008.01,2.513,3,4.469-7.6a.72.72,0,1,1,1.241.73l-4.987,8.479a.717.717,0,0,1-.561.353l-.055,0" transform="translate(-83.508 -146.179)" fill="#7870b0"/>
                <rect id="Rectángulo_339593" data-name="Rectángulo 339593" width="22.642" height="0.994" transform="translate(12.775 23.524) rotate(-0.33)" fill="#93c5ec"/>
                <rect id="Rectángulo_339594" data-name="Rectángulo 339594" width="20.867" height="0.994" transform="translate(12.8 27.966) rotate(-0.33)" fill="#93c5ec"/>
                <rect id="Rectángulo_339595" data-name="Rectángulo 339595" width="6.172" height="0.994" transform="translate(29.257 25.65) rotate(-0.328)" fill="#93c5ec"/>
                <rect id="Rectángulo_339596" data-name="Rectángulo 339596" width="14.759" height="0.994" transform="translate(12.787 25.745) rotate(-0.332)" fill="#93c5ec"/>
                <path id="Trazado_703935" data-name="Trazado 703935" d="M88.363,170.875l-1.012.288-.213-.8,1.508-.491.691,0,.033,5.668-.981.006Z" transform="translate(-80.651 -146.432)" fill="#93c5ec"/>
                <path id="Trazado_703936" data-name="Trazado 703936" d="M90.23,175.539a.358.358,0,1,1,.36.356.358.358,0,0,1-.36-.356" transform="translate(-80.866 -146.801)" fill="#9cb4df"/>
                <path id="Trazado_703937" data-name="Trazado 703937" d="M137.1,194.647l-10.191.059-.059-10.191,10.191-.06Zm-9.714-.424,9.232-.053-.054-9.232-9.231.053Z" transform="translate(-83.409 -147.445)" fill="#9dc0e8"/>
                <path id="Trazado_703938" data-name="Trazado 703938" d="M132.356,192.5a.72.72,0,0,1-.556-.258l-3.169-3.786a.72.72,0,0,1,1.1-.934l.008.01,2.513,3,4.469-7.6a.72.72,0,1,1,1.241.73l-4.987,8.478a.719.719,0,0,1-.561.353l-.055,0" transform="translate(-83.521 -147.315)" fill="#7870b0"/>
                <path id="Trazado_703939" data-name="Trazado 703939" d="M87.213,191.131l1.914-1.648c.763-.65,1.039-1.011,1.037-1.514a.84.84,0,0,0-.808-.868.864.864,0,0,0-.1,0c-.512,0-.862.285-1.29.846l-.7-.539a2.292,2.292,0,0,1,2.053-1.186,1.677,1.677,0,0,1,1.855,1.674c.006.878-.462,1.351-1.44,2.171l-1.144.965,2.658-.016.006.863-4.04.023Z" transform="translate(-80.656 -147.568)" fill="#93c5ec"/>
                <path id="Trazado_703940" data-name="Trazado 703940" d="M92.27,191.892a.355.355,0,1,1,.357.354.355.355,0,0,1-.357-.354" transform="translate(-81.007 -147.937)" fill="#9cb4df"/>
                <rect id="Rectángulo_339597" data-name="Rectángulo 339597" width="23.792" height="0.994" transform="translate(13.05 38.748) rotate(-0.332)" fill="#93c5ec"/>
                <rect id="Rectángulo_339598" data-name="Rectángulo 339598" width="21.927" height="0.994" transform="translate(13.075 43.189) rotate(-0.331)" fill="#93c5ec"/>
                <rect id="Rectángulo_339599" data-name="Rectángulo 339599" width="6.486" height="0.994" transform="translate(30.369 40.869) rotate(-0.329)" fill="#93c5ec"/>
                <rect id="Rectángulo_339600" data-name="Rectángulo 339600" width="15.51" height="0.994" transform="matrix(1, -0.006, 0.006, 1, 13.063, 40.969)" fill="#93c5ec"/>
                <path id="Trazado_703941" data-name="Trazado 703941" d="M137.193,211.128,127,211.187,126.943,201l10.191-.06Zm-9.714-.424,9.232-.053-.054-9.232-9.231.053Z" transform="translate(-83.415 -148.59)" fill="#9dc0e8"/>
                <path id="Trazado_703942" data-name="Trazado 703942" d="M132.451,208.978a.72.72,0,0,1-.556-.258l-3.169-3.786a.72.72,0,1,1,1.1-.934l.008.01,2.513,3,4.469-7.6a.72.72,0,1,1,1.241.73l-4.987,8.479a.717.717,0,0,1-.561.353l-.055,0" transform="translate(-83.527 -148.459)" fill="#7870b0"/>
                <rect id="Rectángulo_339601" data-name="Rectángulo 339601" width="23.792" height="0.994" transform="translate(13.138 54.085) rotate(-0.332)" fill="#93c5ec"/>
                <rect id="Rectángulo_339602" data-name="Rectángulo 339602" width="21.927" height="0.994" transform="translate(13.164 58.527) rotate(-0.331)" fill="#93c5ec"/>
                <rect id="Rectángulo_339603" data-name="Rectángulo 339603" width="6.486" height="0.994" transform="translate(30.458 56.206) rotate(-0.329)" fill="#93c5ec"/>
                <rect id="Rectángulo_339604" data-name="Rectángulo 339604" width="15.51" height="0.994" transform="matrix(1, -0.006, 0.006, 1, 13.151, 56.306)" fill="#93c5ec"/>
                <path id="Trazado_703943" data-name="Trazado 703943" d="M87.23,207.377l.668-.629a1.786,1.786,0,0,0,1.441.711.858.858,0,0,0,.936-.773.7.7,0,0,0,0-.076c0-.539-.5-.841-1.262-.837l-.446,0-.159-.6,1.467-1.578-2.366.014,0-.835,3.617-.021,0,.719-1.514,1.569c.868.119,1.612.561,1.617,1.546a1.749,1.749,0,0,1-1.9,1.737,2.594,2.594,0,0,1-2.1-.948" transform="translate(-80.657 -148.716)" fill="#93c5ec"/>
                <path id="Trazado_703944" data-name="Trazado 703944" d="M91.835,208.328a.348.348,0,1,1,.35.346.347.347,0,0,1-.35-.346" transform="translate(-80.977 -149.079)" fill="#9cb4df"/>
                <path id="Trazado_703945" data-name="Trazado 703945" d="M117.857,222.971a4.335,4.335,0,0,1-4.255-3.427.3.3,0,0,1,.578-.122,3.732,3.732,0,0,0,7.3-.006.3.3,0,0,1,.58.121,4.345,4.345,0,0,1-4.207,3.436" transform="translate(-82.489 -149.857)" fill="#9cb4df"/>
                <path id="Trazado_703946" data-name="Trazado 703946" d="M113.874,217.833a.4.4,0,0,1-.057,0,.3.3,0,0,1-.236-.345h0a4.324,4.324,0,0,1,8.435-.277.3.3,0,0,1-.573.148,3.732,3.732,0,0,0-7.28.239.3.3,0,0,1-.288.242" transform="translate(-82.487 -149.494)" fill="#93c5ec"/>
                <path id="Trazado_703947" data-name="Trazado 703947" d="M117.725,224.293a6.145,6.145,0,1,1,6.109-6.18,6.144,6.144,0,0,1-6.109,6.18m-.066-11.448a5.3,5.3,0,1,0,5.334,5.273,5.3,5.3,0,0,0-5.334-5.273" transform="translate(-82.346 -149.358)" fill="#93c5ec"/>
                <rect id="Rectángulo_339605" data-name="Rectángulo 339605" width="2.434" height="0.39" transform="translate(34.122 68.027) rotate(-0.328)" fill="#93c5ec"/>
                <rect id="Rectángulo_339606" data-name="Rectángulo 339606" width="2.434" height="0.39" transform="translate(34.131 69.622) rotate(-0.328)" fill="#93c5ec"/>
                <rect id="Rectángulo_339607" data-name="Rectángulo 339607" width="3.582" height="0.389" transform="matrix(1, -0.006, 0.006, 1, 33.553, 68.8)" fill="#93c5ec"/>
              </g>
            </g>
          </g>
        </g>
      </g>
    </g>
  </g>
</svg>
