<svg xmlns="http://www.w3.org/2000/svg" width="597" height="380.416" viewBox="0 0 597 380.416">
  <g id="Grupo_974722" data-name="Grupo 974722" transform="translate(-823 -3750.584)">
    <rect id="BG" width="597" height="380.416" transform="translate(823 3750.584)" fill="#ede4ff" opacity="0.949"/>
    <g id="Grupo_973927" data-name="Grupo 973927" transform="translate(-5260.524 10717.559)">
      <path id="Trazado_704042" data-name="Trazado 704042" d="M959.217,884.074a106.635,106.635,0,0,0,3.687-17.357c1.908,6.32,1.971,12.586,3.868,21.72Z" transform="translate(5409.891 -7558.596)" fill="#ebe9e6"/>
      <path id="Trazado_704063" data-name="Trazado 704063" d="M935.652,1043.894l-1.112.647v-.5c.4-.041.765-.09,1.112-.147" transform="translate(5450.914 -7664.679)" fill="#585d61"/>
      <path id="Trazado_704127" data-name="Trazado 704127" d="M977.643,923.379c.039-.55.082-1.1.12-1.652a.993.993,0,0,1-.12,1.652" transform="translate(5391.12 -7591.532)" fill="#585d61"/>
      <path id="Trazado_704142" data-name="Trazado 704142" d="M929.432,613.725l-.039.006c-.073-.342-.146-.684-.219-1.017a3.033,3.033,0,0,1,.258,1.011" transform="translate(5459.287 -7406.514)" fill="#fff"/>
      <path id="Trazado_704205" data-name="Trazado 704205" d="M929.756,580.354a11.319,11.319,0,0,0-1.762-1.891c.31.174.626.348,1,.557l2.366,1.321c.078.351.151.69.226,1.035l-1.827-1.022" transform="translate(5457.61 -7386.006)" fill="#b9d5f1"/>
      <path id="Trazado_704261" data-name="Trazado 704261" d="M981.48,638.211a18.385,18.385,0,0,0,1.131,3.433,4.985,4.985,0,0,0,2.48,1.958,13.344,13.344,0,0,1-.146,2.31,3.148,3.148,0,0,0-2.251,2.616,40.609,40.609,0,0,1-1.213-8.865c-.006-.3,0-.607,0-.907Z" transform="translate(5382.637 -7421.78)" fill="#cee6f9"/>
      <path id="Trazado_704262" data-name="Trazado 704262" d="M926.378,618.987c.443,2.045.915,4.231,1.435,6.638l-2.928-1.538a1.394,1.394,0,0,1,.566-.869c.63-.46,1.245-.11.718-1.056-.346-.622-.74-1.157-1.071-1.706a2.437,2.437,0,0,0,1.28-1.469" transform="translate(5462.627 -7410.27)" fill="#cee6f9"/>
      <path id="Trazado_704263" data-name="Trazado 704263" d="M929.641,618.544a3.856,3.856,0,0,1-.456-1.794l1.695-.2a2.2,2.2,0,0,1-1.239,2" transform="translate(5457.834 -7408.81)" fill="#cee6f9"/>
      <path id="Trazado_704264" data-name="Trazado 704264" d="M930.879,611.064c.073.333.147.676.219,1.018l-1.672.2A21.433,21.433,0,0,0,929.27,610l.286-.04a1.567,1.567,0,0,1,1.323,1.105" transform="translate(5457.582 -7404.865)" fill="#cee6f9"/>
      <path id="Trazado_704265" data-name="Trazado 704265" d="M932.619,602.857a1.711,1.711,0,0,0-1.067-.448l-.342.045-.034-.34a10.225,10.225,0,0,0-.721-3.384,5.089,5.089,0,0,1,.61-.245,4.431,4.431,0,0,0,.549-.262c.327,1.51.66,3.042,1,4.634" transform="translate(5455.586 -7397.837)" fill="#cee6f9"/>
      <g id="Grupo_973926" data-name="Grupo 973926" transform="translate(6242.252 -6948.767)">
        <path id="Trazado_704287" data-name="Trazado 704287" d="M107.085,602.211l1.138-3.367.163-.484,2.024-5.989.7-2.074q.674-1.994,1.347-3.988l.077-.223q1.379-4.085,2.761-8.17c12.086,6.626,18.129,9.936,30.214,16.559l-10.5,31.1c-12.055-6.729-18.083-10.1-30.138-16.826q.977-2.891,1.957-5.786c.084-.25.17-.5.253-.749" transform="translate(146.503 -357.102)" fill="#fff"/>
        <path id="Trazado_704288" data-name="Trazado 704288" d="M158.763,486.611c.951-2.807,1.425-4.21,2.374-7.017,4.668,2.509,8.722,4.69,12.491,6.716-.2.581-.394,1.166-.59,1.747a47.489,47.489,0,0,0-14.274-1.446" transform="translate(96.763 -298.232)" fill="#fff"/>
        <path id="Trazado_704289" data-name="Trazado 704289" d="M41.974,345.05q-2.526,7.47-5.052,14.944c-3.779-1.992-7.844-4.135-12.524-6.6,4.154-12.279,6.23-18.419,10.384-30.7L79.892,346c-4.2,12.438-6.3,18.657-10.5,31.1-12.441-6.555-20.585-10.846-30.373-16q2.527-7.477,5.054-14.953l-2.1-1.1m17.35,1.925-13.208-6.867c-.226.669-.34,1-.566,1.674l13.206,6.873c.227-.671.341-1.007.568-1.68" transform="translate(244.415 -204.292)" fill="#fff"/>
        <path id="Trazado_704290" data-name="Trazado 704290" d="M132.145,431.842l10.385-30.7,12.523,6.6q-5.207,15.4-10.416,30.811c-3.769-2.027-7.824-4.2-12.492-6.712" transform="translate(126.019 -251.259)" fill="#fff"/>
        <path id="Trazado_704291" data-name="Trazado 704291" d="M216.058,368.241c-4.153,12.276-6.23,18.416-10.382,30.693l-40.534-21.777q5.14-15.169,10.28-30.336c15.2,8.015,24.158,12.735,40.636,21.419" transform="translate(51.773 -218.736)" fill="#fff"/>
        <path id="Trazado_704292" data-name="Trazado 704292" d="M350.074,411.848c-17.907-9.809-26.862-14.714-44.769-24.521,4.062-11.959,6.092-17.937,10.153-29.9l44.882,24.125c-4.106,12.118-6.16,18.175-10.266,30.291" transform="translate(-148.752 -225.089)" fill="#fff"/>
        <path id="Trazado_704293" data-name="Trazado 704293" d="M92.014,436.358l-10.5,31.1L51.222,451.18q5.209-15.414,10.421-30.831l30.371,16.009" transform="translate(221.529 -262.76)" fill="#fff"/>
        <path id="Trazado_704294" data-name="Trazado 704294" d="M732.421,212.244l-17.1-9.368c3.924-11.472,5.885-17.208,9.807-28.68l17.145,9.214c-3.941,11.532-5.911,17.3-9.852,28.834" transform="translate(-695.209 -115.378)" fill="#fff"/>
        <path id="Trazado_704295" data-name="Trazado 704295" d="M325.326,526.589l-.285.137c-.354-.2-.532-.3-.885-.493l10.269-30.3,2.25,1.235q-4.833,14.259-9.666,28.518c-.561.3-1.11.617-1.683.9" transform="translate(-132.65 -308.017)" fill="#fff"/>
        <path id="Trazado_704296" data-name="Trazado 704296" d="M179.224,747.79c.395-1.168.741-2.192,1.064-3.15l.1-.295c.237-.7.463-1.372.686-2.031q.31-.92.622-1.839c.284-.839.581-1.721.9-2.667.23-.685.461-1.364.692-2.048l.094-.277,30.057,17.111c-4.2,12.438-6.3,18.657-10.5,31.1l-44.415-25.743c2.5-7.378,3.743-11.068,6.24-18.446,5.541,3.18,8.454,4.849,13.775,7.9.2.116.42.241.681.392m10.09,16.19c.227-.671.34-1.007.568-1.68-5.211-3-7.817-4.5-13.027-7.5l-.566,1.674,13.025,7.506" transform="translate(57.044 -451.444)" fill="#fff"/>
        <path id="Trazado_704297" data-name="Trazado 704297" d="M224.949,456.8a95.262,95.262,0,0,0-15.733,7.484c-7.17-3.928-11.435-6.264-17.543-9.609q5.14-15.169,10.28-30.336l40.53,21.787c-1.008,2.982-1.512,4.47-2.521,7.452a56.239,56.239,0,0,0-15.014,3.222" transform="translate(14.7 -265.152)" fill="#fff"/>
        <path id="Trazado_704298" data-name="Trazado 704298" d="M409.687,180.537q-2.455,7.231-4.913,14.462l-37.718-19.87,10.037-29.486,45.116,23.31c-1.229,3.616-2.271,6.681-3.24,9.536l-5.194-2.7c-.221.648-.33.972-.551,1.62,2.019,1.052,3.652,1.9,5.193,2.7l-6.36,18.724c-1.821-.959-3.53-1.858-5.184-2.732q2.457-7.235,4.917-14.471l-2.1-1.1" transform="translate(-235.399 -98.282)" fill="#fff"/>
        <path id="Trazado_704299" data-name="Trazado 704299" d="M145.855,280.46q-2.491,7.354-4.983,14.7c-.745-.391-1.485-.783-2.262-1.192,4.108-12.118,6.161-18.177,10.268-30.3,18.046,9.325,27.068,13.987,45.114,23.31-4.153,12.276-6.23,18.414-10.383,30.693l-40.639-21.411q2.494-7.356,4.986-14.712l-2.1-1.1m16.764,3.676c.224-.661.335-.992.559-1.652l-13.208-6.869-.558,1.648,13.207,6.873" transform="translate(84.486 -168.954)" fill="#fff"/>
        <path id="Trazado_704300" data-name="Trazado 704300" d="M279.067,310.935c4.062-11.956,6.092-17.934,10.153-29.893,18,9.489,27,14.232,45,23.719-4.106,12.115-6.16,18.173-10.266,30.291C306,325.4,297.022,320.581,279.067,310.935" transform="translate(-112.102 -179.351)" fill="#fff"/>
        <path id="Trazado_704301" data-name="Trazado 704301" d="M276.609,527.541q4.35-12.84,8.7-25.677l16.99,9.311c-5.41,3.184-10.575,6.673-15.768,10.048-3.287,2.136-6.538,4.32-9.924,6.318" transform="translate(-79.197 -311.566)" fill="#fff"/>
        <path id="Trazado_704302" data-name="Trazado 704302" d="M513.58,115.948l-4.846,14.223c-8.554-4.507-16.266-8.568-27.452-14.462,3.969-11.633,5.953-17.45,9.922-29.082l45.114,23.308c-4.014,11.793-6.021,17.689-10.036,29.482-5.909-3.113-10.842-5.711-15.448-8.14q2.425-7.115,4.849-14.232l-2.1-1.1m16.723,3.818c.218-.641.327-.961.545-1.6l-13.21-6.866c-.217.637-.325.955-.542,1.592,5.282,2.751,7.924,4.124,13.206,6.875" transform="translate(-395.341 -62.948)" fill="#fff"/>
        <path id="Trazado_704303" data-name="Trazado 704303" d="M135.555,676.136q.514-1.517,1.012-2.995l.632-1.869c.408-1.207.82-2.427,1.242-3.675q1.841-5.447,3.683-10.9c12.054,6.733,18.082,10.1,30.136,16.835-4.2,12.438-6.3,18.657-10.5,31.1l-30.059-17.1c1.214-3.593,2.249-6.654,3.212-9.5q.321-.948.641-1.9" transform="translate(108.991 -404.274)" fill="#fff"/>
        <path id="Trazado_704304" data-name="Trazado 704304" d="M633.352,135.637a42.056,42.056,0,0,0-12.5-5.047q.745-2.175,1.486-4.354l25.709,13.55-2.516,7.374a36.528,36.528,0,0,0-12.181-11.524" transform="translate(-563.079 -86.663)" fill="#fff"/>
        <path id="Trazado_704305" data-name="Trazado 704305" d="M715.449,114.926,707.3,138.793l-17.145-9.211c3.924-11.472,5.886-17.21,9.807-28.682l17.188,9.061q-.849,2.481-1.7,4.965" transform="translate(-659.982 -71.493)" fill="#fff"/>
        <path id="Trazado_704306" data-name="Trazado 704306" d="M411.151,250.486,421.189,221c15.4,8.114,24.223,12.765,37.714,19.877L448.771,270.7l-37.62-20.21" transform="translate(-289.786 -143.401)" fill="#fff"/>
        <path id="Trazado_704307" data-name="Trazado 704307" d="M617.466,51.364q-2.387,6.992-4.778,13.985c-5.107-2.691-10.53-5.55-17.188-9.056,3.921-11.472,5.883-17.21,9.807-28.68,18.042,9.324,27.064,13.985,45.11,23.308L640.5,80c-10.421-5.49-17.829-9.394-25.709-13.544q2.391-7,4.78-13.994l-2.1-1.1m3.5-2.988,13.2,6.873c.214-.628.322-.943.537-1.573L621.5,46.81c-.213.626-.32.94-.534,1.566" transform="translate(-555.275 -27.613)" fill="#fff"/>
        <path id="Trazado_704308" data-name="Trazado 704308" d="M355.45,573.359l.267.148-.376.174Z" transform="translate(-164.206 -354.374)" fill="#fff"/>
        <path id="Trazado_704309" data-name="Trazado 704309" d="M408.321,276.027c-4.06,11.955-6.09,17.93-10.151,29.886-1.816-.976-3.52-1.893-5.171-2.779q5.069-14.92,10.139-29.839c1.655.871,3.365,1.772,5.184,2.732" transform="translate(-231.92 -174.713)" fill="#fff"/>
        <path id="Trazado_704310" data-name="Trazado 704310" d="M267.043,217.993l-7.3-3.793c.969-2.855,2.01-5.922,3.24-9.538l45.114,23.31c-4.106,12.113-6.159,18.171-10.265,30.289-18-9.485-27-14.226-45-23.708,2.6-7.646,4.364-12.849,6.362-18.731,2.22,1.156,4.348,2.266,7.3,3.8.222-.65.332-.974.553-1.626" transform="translate(-75.457 -133.62)" fill="#fff"/>
        <path id="Trazado_704311" data-name="Trazado 704311" d="M271.645,371.391c4.109-12.118,6.162-18.177,10.27-30.3.777.409,1.516.8,2.261,1.192Q279.039,357.447,273.9,372.6l-2.257-1.213" transform="translate(-59.08 -215.308)" fill="#fff"/>
        <path id="Trazado_704312" data-name="Trazado 704312" d="M470.671,346.394l-.8-.437c-.512-1.577-1.082-3.151-1.762-4.717a46.939,46.939,0,0,0-15.82-19.5,56.617,56.617,0,0,0-15.243-7.34c2.457-7.219,3.685-10.829,6.142-18.046,15.356,8.252,24.161,12.987,37.616,20.219q-5.066,14.911-10.133,29.822" transform="translate(-322.078 -188.519)" fill="#fff"/>
        <path id="Trazado_704313" data-name="Trazado 704313" d="M300.148,450.046c-.73-.4-1.455-.8-2.25-1.233,4.108-12.12,6.161-18.179,10.269-30.3.775.415,1.512.813,2.256,1.211q-5.138,15.159-10.275,30.319" transform="translate(-95.862 -261.663)" fill="#fff"/>
        <path id="Trazado_704314" data-name="Trazado 704314" d="M570.807,204.744c-5.05-2.715-10.133-5.444-16.866-9.062.189-2.115.37-4.232.474-6.372.266-5.451.163-11.266-2.148-17.137a25.317,25.317,0,0,0-1.611-3.334c1.076-3.156,1.615-4.735,2.692-7.891,11.185,5.895,18.9,9.96,27.45,14.469q-4.995,14.662-9.991,29.326" transform="translate(-467.66 -107.446)" fill="#fff"/>
        <path id="Trazado_704315" data-name="Trazado 704315" d="M381.317,543.427a25.9,25.9,0,0,1-17.571-10.263,32.274,32.274,0,0,1-5.968-16.134c15.9,8.883,23.852,13.322,39.754,22.207l-.4,1.17c-4.7,2.072-9.961,3.591-15.818,3.02" transform="translate(-206.998 -320.647)" fill="#fff"/>
        <path id="Trazado_704317" data-name="Trazado 704317" d="M516.923,199.763l15.448,8.142c-4.014,11.793-6.022,17.689-10.036,29.482-6.086-3.27-10.823-5.815-15.408-8.28l10-29.344" transform="translate(-401.685 -130.686)" fill="#fff"/>
        <path id="Trazado_704318" data-name="Trazado 704318" d="M290.827,682.673l1.25.716,40.174,23.035c-2.5,7.374-3.743,11.064-6.238,18.44-17.767-10.3-26.65-15.445-44.418-25.745,2.469-7.279,3.7-10.921,6.17-18.2,1.052.6,2.069,1.185,3.062,1.755m11.38,16.768c.224-.662.336-.991.561-1.654l-13.028-7.5c-.223.658-.335.988-.559,1.645l13.027,7.508" transform="translate(-111.148 -418.773)" fill="#fff"/>
        <path id="Trazado_704319" data-name="Trazado 704319" d="M80.527,522.634c.148-.441.3-.884.447-1.325.488-1.446.959-2.835,1.42-4.2q.814-2.414,1.63-4.823.123-.365.246-.73.365-1.081.729-2.158.344-1.017.7-2.078.526-1.555,1.05-3.109c.415-1.224.847-2.5,1.307-3.863q.205-.61.411-1.216l30.293,16.282c-4.2,12.44-6.3,18.659-10.5,31.1-12.086-6.621-18.129-9.932-30.216-16.553.916-2.708,1.723-5.1,2.478-7.329" transform="translate(184.016 -309.932)" fill="#fff"/>
        <path id="Trazado_704320" data-name="Trazado 704320" d="M394.226,620.638c.448-1.317.921-2.713,1.461-4.3l44.488,25.509c-2.467,7.279-3.7,10.919-6.169,18.2-2.119-1.231-4.106-2.382-6-3.481l.047-16.4Z" transform="translate(-264.267 -380.104)" fill="#fff"/>
        <path id="Trazado_704321" data-name="Trazado 704321" d="M331.81,450.383c2.251-6.624,3.376-9.936,5.627-16.562L382.2,458.355c-4.106,12.115-6.159,18.175-10.266,30.291l-40.115-22.4c-.047-.48-.089-.957-.123-1.428-.357-4.942,0-9.652.113-14.437" transform="translate(-181.141 -270.826)" fill="#fff"/>
        <path id="Trazado_704322" data-name="Trazado 704322" d="M429.08,349.545c1.651.889,3.355,1.8,5.17,2.779-4.06,11.956-6.09,17.932-10.151,29.888-2.106-1.153-3.528-1.932-5.158-2.826q5.07-14.921,10.14-29.841" transform="translate(-268.259 -220.367)" fill="#fff"/>
        <path id="Trazado_704323" data-name="Trazado 704323" d="M576.194,259.447c.051-3.341.346-6.6.639-9.852l16.688,8.97q-3.535,10.377-7.072,20.757a24.963,24.963,0,0,1-3.818-2.743c-5.7-5.025-6.523-11.582-6.436-17.132" transform="translate(-490.627 -160.522)" fill="#fff"/>
        <path id="Trazado_704324" data-name="Trazado 704324" d="M463.121,422.8l-.089.262-.094-.361Z" transform="translate(-314.785 -264.169)" fill="#fff"/>
        <path id="Trazado_704325" data-name="Trazado 704325" d="M444.882,429.1q.56-1.645,1.119-3.291l5.157,2.825c-1.952,5.75-2.929,8.626-4.881,14.374,0-.51,0-1.02-.009-1.532a65.9,65.9,0,0,0-1.386-12.376" transform="translate(-295.576 -266.027)" fill="#fff"/>
        <path id="Trazado_704326" data-name="Trazado 704326" d="M532.573,295.516l7.073-20.763c4.584,2.465,9.318,5.008,15.406,8.282-2.474,7.271-3.713,10.907-6.188,18.177-1.707-.561-3.426-1.093-5.155-1.626a73.8,73.8,0,0,1-11.137-4.07" transform="translate(-434.658 -175.586)" fill="#fff"/>
        <path id="Trazado_704329" data-name="Trazado 704329" d="M788.255,342.827l-.142.411L786.59,347.7l-.142.42c-.362,1.056-.73,2.134-1.112,3.255l-.022.06c-.8,2.332-1.654,4.84-2.633,7.706l-17.009-9.678c3.922-11.472,5.883-17.207,9.807-28.682,6.821,3.812,10.231,5.718,17.052,9.527-.116.346-.235.691-.353,1.037-1.514,4.434-2.745,8.033-3.924,11.485" transform="translate(-765.672 -203.143)" fill="#fff"/>
        <path id="Trazado_704330" data-name="Trazado 704330" d="M762.3,271.8q-.345,1.017-.692,2.03c-.263.766-.525,1.536-.8,2.328q-.414,1.21-.829,2.422-.248.733-.508,1.491-.816,2.385-1.629,4.765c-.1.288-.191.564-.293.858L740.5,276.168l9.809-28.682c6.839,3.747,10.257,5.624,17.1,9.371l-5.1,14.94" transform="translate(-730.442 -159.26)" fill="#fff"/>
        <path id="Trazado_704334" data-name="Trazado 704334" d="M274.843,499.944l17.543,9.61c-.272.157-.544.312-.813.471-6.946-3.805-11.1-6.079-16.99-9.31.086-.259.174-.514.26-.771" transform="translate(-68.469 -310.417)" fill="#b9d5f1"/>
        <path id="Trazado_704335" data-name="Trazado 704335" d="M575.555,248.346c.026-.28.05-.557.075-.837,6.733,3.618,11.816,6.348,16.866,9.063q-.127.371-.254.744l-16.688-8.971" transform="translate(-489.349 -159.274)" fill="#b9d5f1"/>
        <path id="Trazado_704336" data-name="Trazado 704336" d="M462.3,419.973l.8.437c-.086.253-.171.506-.257.756l-.183-.1c-.111-.365-.243-.731-.361-1.1" transform="translate(-314.506 -262.535)" fill="#b9d5f1"/>
        <path id="Trazado_704337" data-name="Trazado 704337" d="M507.267,615.729c-.54,1.592-1.013,2.988-1.46,4.3l-.708-.408c.447-1.317.921-2.713,1.461-4.3l.708.4" transform="translate(-375.847 -379.5)" fill="#b9d5f1"/>
        <path id="Trazado_704338" data-name="Trazado 704338" d="M220.844,520.452l-22.887-12.535a95.276,95.276,0,0,1,15.733-7.484,56.254,56.254,0,0,1,15.014-3.222c-3.144,9.3-4.716,13.946-7.86,23.241" transform="translate(25.96 -308.781)" fill="#cee6f9"/>
        <path id="Trazado_704339" data-name="Trazado 704339" d="M229.709,535.115c5.193-3.375,10.358-6.864,15.768-10.048,9.374,5.137,14.061,7.705,23.435,12.845-4.153,12.276-6.23,18.416-10.381,30.695-16.319-9.112-25.038-13.98-40.324-22.514q.789-2.33,1.579-4.659c3.386-2,6.636-4.182,9.923-6.318" transform="translate(-22.373 -325.459)" fill="#cee6f9"/>
        <path id="Trazado_704340" data-name="Trazado 704340" d="M350.213,570.083c-.2.6-.406,1.2-.609,1.8-.456-.254-.893-.5-1.36-.76l.285-.138c.573-.284,1.122-.6,1.683-.9" transform="translate(-155.854 -352.412)" fill="#cee6f9"/>
        <path id="Trazado_704341" data-name="Trazado 704341" d="M457.047,460.559q4.509-13.275,9.02-26.55a65.916,65.916,0,0,1,1.386,12.375c.011.512.008,1.022.009,1.532l-5.27,15.514-5.145-2.872" transform="translate(-316.761 -270.939)" fill="#cee6f9"/>
        <path id="Trazado_704342" data-name="Trazado 704342" d="M463.161,401.2c4.016-11.8,6.023-17.694,10.039-29.49l37.337,20.462.093.362q-5.023,14.781-10.045,29.561c-13.387-7.475-22.147-12.365-37.424-20.894" transform="translate(-362.383 -233.637)" fill="#cee6f9"/>
        <path id="Trazado_704343" data-name="Trazado 704343" d="M239.189,754.54c.228-.678.457-1.353.686-2.03-.224.658-.449,1.327-.686,2.03" transform="translate(-1.756 -461.639)" fill="#cee6f9"/>
        <path id="Trazado_704344" data-name="Trazado 704344" d="M241.151,761.455q.532-1.575,1.064-3.15c-.323.957-.669,1.982-1.064,3.15" transform="translate(-4.883 -465.108)" fill="#cee6f9"/>
        <path id="Trazado_704345" data-name="Trazado 704345" d="M235.394,743.946q.45-1.335.9-2.668c-.32.947-.617,1.829-.9,2.668" transform="translate(3.347 -454.913)" fill="#cee6f9"/>
        <path id="Trazado_704346" data-name="Trazado 704346" d="M255.151,722.011q-2.078,6.146-4.157,12.3l1.394.8c-5.321-3.05-8.234-4.72-13.775-7.9,1.658-4.9,2.487-7.351,4.144-12.253l12.394,7.056" transform="translate(-16.801 -439.153)" fill="#cee6f9"/>
        <path id="Trazado_704347" data-name="Trazado 704347" d="M233.53,735.483h0l-.094.278Z" transform="translate(6.897 -451.444)" fill="#cee6f9"/>
        <path id="Trazado_704348" data-name="Trazado 704348" d="M383.005,652.054q-2.051,6.047-4.1,12.1c.323.187.579.333.825.475l-3.062-1.755c1.639-4.838,2.46-7.256,4.1-12.094.769.438,1.5.854,2.238,1.276" transform="translate(-200.052 -400.727)" fill="#cee6f9"/>
        <path id="Trazado_704349" data-name="Trazado 704349" d="M271.27,669.009l4.1-12.109c15.046,8.564,23.909,13.611,40.214,22.891-1.656,4.9-2.486,7.353-4.143,12.253-16.291-9.34-25.143-14.417-40.174-23.034" transform="translate(-90.342 -404.393)" fill="#cee6f9"/>
        <path id="Trazado_704350" data-name="Trazado 704350" d="M500.771,522.424c15.236,8.671,23.973,13.645,37.324,21.245q-2.022,5.95-4.046,11.9c.831.478,1.246.714,2.076,1.19q2.023-5.953,4.046-11.911c1.639.933,3.33,1.9,5.132,2.921-1.621,4.771-2.432,7.157-4.052,11.93-17.8-10.2-26.693-15.305-44.487-25.508,1.6-4.707,2.4-7.062,4.007-11.769" transform="translate(-410.54 -323.877)" fill="#cee6f9"/>
        <path id="Trazado_704351" data-name="Trazado 704351" d="M432.6,611.951l-4.1,12.089-44.489-25.509c1.622-4.771,2.432-7.159,4.053-11.93l44.534,25.35" transform="translate(-252.593 -362.302)" fill="#cee6f9"/>
        <path id="Trazado_704352" data-name="Trazado 704352" d="M217.225,683.856c-.422,1.248-.834,2.467-1.242,3.674l1.242-3.674" transform="translate(30.205 -420.532)" fill="#cee6f9"/>
        <path id="Trazado_704353" data-name="Trazado 704353" d="M227.985,709.857l-3.212,9.5,3.212-9.5" transform="translate(15.919 -436.1)" fill="#cee6f9"/>
        <path id="Trazado_704354" data-name="Trazado 704354" d="M221.665,697.671q-.5,1.478-1.012,2.995.506-1.5,1.012-2.995" transform="translate(23.892 -428.804)" fill="#cee6f9"/>
        <path id="Trazado_704355" data-name="Trazado 704355" d="M224.389,674.254,211.995,667.2l10.384-30.7c5.066,2.831,7.922,4.427,12.426,6.942q-5.208,15.408-10.416,30.811" transform="translate(14.226 -392.179)" fill="#cee6f9"/>
        <path id="Trazado_704356" data-name="Trazado 704356" d="M480.962,502.062l5.144,2.874-10.151,29.886c-1.8-1.026-3.493-1.987-5.131-2.921q5.069-14.921,10.138-29.839" transform="translate(-340.934 -311.685)" fill="#cee6f9"/>
        <path id="Trazado_704357" data-name="Trazado 704357" d="M488.835,476.557c4.015-11.8,6.022-17.694,10.038-29.488l37.421,20.9q-5.066,14.911-10.133,29.822c-13.352-7.6-22.088-12.567-37.326-21.236" transform="translate(-398.349 -278.758)" fill="#cee6f9"/>
        <path id="Trazado_704358" data-name="Trazado 704358" d="M683.917,473.709l-3.989,11.707.381.217c-8.609-4.937-16.3-9.343-27.52-15.779,1.585-4.643,2.377-6.966,3.96-11.608l27.167,15.463" transform="translate(-611.761 -285.451)" fill="#cee6f9"/>
        <path id="Trazado_704359" data-name="Trazado 704359" d="M609.515,511.443q1.994-5.856,3.991-11.713l15.286,8.7c-1.6,4.707-2.4,7.06-4.006,11.767-5.841-3.35-10.717-6.146-15.271-8.755" transform="translate(-539.271 -310.289)" fill="#cee6f9"/>
        <path id="Trazado_704360" data-name="Trazado 704360" d="M154.567,506.027q.655-1.933,1.307-3.863c-.46,1.361-.892,2.639-1.307,3.863" transform="translate(116.201 -311.746)" fill="#cee6f9"/>
        <path id="Trazado_704361" data-name="Trazado 704361" d="M182.519,498.433q-4.913,14.534-9.825,29.065l-12.46-6.825c3.205-9.475,4.808-14.211,8.011-23.685a47.506,47.506,0,0,1,14.274,1.445" transform="translate(87.282 -308.609)" fill="#cee6f9"/>
        <path id="Trazado_704362" data-name="Trazado 704362" d="M160.441,521.618q.35-1.039.7-2.078l-.7,2.078" transform="translate(108.575 -322.15)" fill="#cee6f9"/>
        <path id="Trazado_704363" data-name="Trazado 704363" d="M164.254,530.1q-.124.365-.246.729.123-.365.246-.729" transform="translate(104.033 -328.469)" fill="#cee6f9"/>
        <path id="Trazado_704364" data-name="Trazado 704364" d="M170.106,543.932c-.46,1.364-.932,2.754-1.42,4.2q.71-2.1,1.42-4.2" transform="translate(96.304 -336.754)" fill="#cee6f9"/>
        <path id="Trazado_704365" data-name="Trazado 704365" d="M175.817,557.7c-.755,2.231-1.562,4.621-2.478,7.33q1.239-3.663,2.478-7.33" transform="translate(88.726 -344.997)" fill="#cee6f9"/>
        <path id="Trazado_704366" data-name="Trazado 704366" d="M352.649,605.151l-2.237-1.274c4.063-11.99,6.094-17.984,10.159-29.975l.376-.174,1.978,1.106q-5.137,15.155-10.275,30.316" transform="translate(-169.435 -354.595)" fill="#cee6f9"/>
        <path id="Trazado_704367" data-name="Trazado 704367" d="M255.017,579.385l40.32,22.523c-4.153,12.277-6.23,18.417-10.382,30.693l-40.218-22.882,10.28-30.334" transform="translate(-59.444 -357.982)" fill="#cee6f9"/>
        <path id="Trazado_704368" data-name="Trazado 704368" d="M191.305,608.774l-.7,2.074.7-2.074" transform="translate(66.309 -375.578)" fill="#cee6f9"/>
        <path id="Trazado_704369" data-name="Trazado 704369" d="M185.378,588.749l10.385-30.7c5.079,2.783,7.942,4.354,12.458,6.828q-5.208,15.407-10.417,30.813l-12.426-6.94" transform="translate(51.49 -345.206)" fill="#cee6f9"/>
        <path id="Trazado_704370" data-name="Trazado 704370" d="M200.893,638.463c-.083.246-.169.5-.253.749.084-.249.169-.5.253-.749" transform="translate(52.695 -393.354)" fill="#cee6f9"/>
        <path id="Trazado_704371" data-name="Trazado 704371" d="M197.56,628.867l-.163.484Z" transform="translate(57.328 -387.608)" fill="#cee6f9"/>
        <path id="Trazado_704372" data-name="Trazado 704372" d="M187.131,598.277l-.076.224Z" transform="translate(71.907 -369.293)" fill="#cee6f9"/>
        <path id="Trazado_704373" data-name="Trazado 704373" d="M601.72,338.681c3.969-11.634,5.954-17.45,9.923-29.086l27.309,14.968q-5,14.663-9.992,29.327l-27.24-15.209" transform="translate(-546.304 -196.447)" fill="#cee6f9"/>
        <path id="Trazado_704374" data-name="Trazado 704374" d="M568.219,349.749l15.367,8.42c-4.014,11.8-6.022,17.691-10.036,29.484L558.221,379.1q5-14.675,10-29.346" transform="translate(-473.483 -220.489)" fill="#cee6f9"/>
        <path id="Trazado_704375" data-name="Trazado 704375" d="M593.864,424.74c4.57,2.554,9.464,5.288,15.327,8.562-4.014,11.793-6.021,17.689-10.036,29.482-5.848-3.328-10.729-6.1-15.287-8.7q5-14.675,10-29.346" transform="translate(-509.38 -265.389)" fill="#cee6f9"/>
        <path id="Trazado_704376" data-name="Trazado 704376" d="M627.255,413c3.971-11.631,5.955-17.45,9.924-29.084l27.238,15.215q-5,14.665-9.992,29.327c-8.467-4.817-16.1-9.16-27.169-15.458" transform="translate(-582.015 -240.949)" fill="#cee6f9"/>
        <path id="Trazado_704377" data-name="Trazado 704377" d="M547.995,335.081q1.462-4.291,2.924-8.583a73.89,73.89,0,0,0,11.137,4.07c1.729.533,3.448,1.065,5.155,1.626-1.539,4.522-2.309,6.783-3.848,11.3-5.879-3.219-10.786-5.907-15.368-8.418" transform="translate(-453.005 -206.568)" fill="#cee6f9"/>
        <path id="Trazado_704378" data-name="Trazado 704378" d="M593.813,264.355c3.969-11.636,5.954-17.452,9.923-29.086l10.691,5.748c-.293,3.255-.587,6.512-.639,9.853-.086,5.55.735,12.107,6.436,17.132a24.938,24.938,0,0,0,3.818,2.743l-2.92,8.57-27.31-14.959" transform="translate(-528.222 -151.945)" fill="#cee6f9"/>
        <path id="Trazado_704379" data-name="Trazado 704379" d="M795.143,422.922q-1.343,3.934-2.687,7.867c1-2.915,1.7-4.982,2.687-7.867" transform="translate(-779.03 -264.301)" fill="#cee6f9"/>
        <path id="Trazado_704380" data-name="Trazado 704380" d="M790.842,418.635l.149-.436Z" transform="translate(-774.23 -261.473)" fill="#cee6f9"/>
        <path id="Trazado_704381" data-name="Trazado 704381" d="M799.7,447.244l-.634-.363c.241.138.446.254.634.363" transform="translate(-786.233 -278.646)" fill="#cee6f9"/>
        <path id="Trazado_704382" data-name="Trazado 704382" d="M722.258,432.662q1.969-5.756,3.935-11.515c9.665,5.5,15.148,8.624,25.442,14.482-1.585,4.643-2.377,6.963-3.96,11.608l-25.416-14.575" transform="translate(-707.354 -263.238)" fill="#cee6f9"/>
        <path id="Trazado_704383" data-name="Trazado 704383" d="M457.1,488.427c1.811-5.33,2.717-8,4.527-13.33-.116,4.784-.47,9.495-.113,14.437.033.471.076.948.123,1.428-1.816-1.013-2.723-1.519-4.537-2.534" transform="translate(-310.958 -295.54)" fill="#cee6f9"/>
        <path id="Trazado_704384" data-name="Trazado 704384" d="M627.141,201.084c-.1,2.14-.285,4.257-.474,6.372l-10.515-5.649,7.23-21.194a25.209,25.209,0,0,1,1.611,3.334c2.311,5.87,2.414,11.685,2.148,17.136" transform="translate(-540.386 -119.22)" fill="#cee6f9"/>
        <path id="Trazado_704385" data-name="Trazado 704385" d="M403.3,565.445c-17.814-10.136-26.722-15.2-44.536-25.339l10.154-29.891c1.958,1.093,2.936,1.639,4.895,2.734a32.277,32.277,0,0,0,5.968,16.134,25.9,25.9,0,0,0,17.571,10.263c5.856.57,11.118-.949,15.818-3.02-3.948,11.649-5.922,17.472-9.87,29.118" transform="translate(-223.036 -316.567)" fill="#cee6f9"/>
        <path id="Trazado_704386" data-name="Trazado 704386" d="M499.253,368.167c.68,1.566,1.25,3.141,1.762,4.717-14.689-8.048-22.032-12.07-36.721-20.115,1.558-4.578,2.337-6.867,3.9-11.442a56.635,56.635,0,0,1,15.243,7.34,46.948,46.948,0,0,1,15.82,19.5" transform="translate(-353.223 -215.446)" fill="#cee6f9"/>
        <path id="Trazado_704387" data-name="Trazado 704387" d="M740.5,285.779l5.1-14.94q-2.552,7.47-5.1,14.94" transform="translate(-708.64 -173.242)" fill="#cee6f9"/>
        <path id="Trazado_704388" data-name="Trazado 704388" d="M758.992,326.461q.259-.758.508-1.491c-.168.5-.34.994-.508,1.491" transform="translate(-729.959 -205.653)" fill="#cee6f9"/>
        <path id="Trazado_704389" data-name="Trazado 704389" d="M764.315,341.419h0c.1-.294.194-.57.293-.858-.1.286-.2.572-.293.858" transform="translate(-737.203 -214.988)" fill="#cee6f9"/>
        <path id="Trazado_704390" data-name="Trazado 704390" d="M681.414,273.692c9.719,5.324,15.23,8.347,25.575,14.015-3.969,11.634-5.952,17.448-9.919,29.08-10.321-5.761-15.818-8.831-25.511-14.243q4.927-14.427,9.854-28.851" transform="translate(-642.364 -174.95)" fill="#cee6f9"/>
        <path id="Trazado_704391" data-name="Trazado 704391" d="M755.741,313.133c-.265.777-.531,1.551-.8,2.328.271-.792.533-1.562.8-2.328" transform="translate(-724.576 -198.566)" fill="#cee6f9"/>
        <path id="Trazado_704392" data-name="Trazado 704392" d="M627.123,161.584q4.185-12.249,8.368-24.5a42.1,42.1,0,0,1,12.5,5.046,36.537,36.537,0,0,1,12.181,11.524c-2.962,8.682-4.444,13.021-7.4,21.7l-25.644-13.776" transform="translate(-577.716 -93.16)" fill="#cee6f9"/>
        <path id="Trazado_704393" data-name="Trazado 704393" d="M702.534,135.854h0q-4.076,11.933-8.153,23.867c3.261-9.547,4.891-14.32,8.153-23.867" transform="translate(-647.068 -92.421)" fill="#cee6f9"/>
        <path id="Trazado_704394" data-name="Trazado 704394" d="M770.475,347.106q-1.961,5.744-3.923,11.485c1.179-3.453,2.409-7.052,3.923-11.485" transform="translate(-743.968 -218.906)" fill="#cee6f9"/>
        <path id="Trazado_704395" data-name="Trazado 704395" d="M783.658,404.879h0c.979-2.865,1.837-5.374,2.633-7.706l-2.633,7.706" transform="translate(-766.648 -248.884)" fill="#cee6f9"/>
        <path id="Trazado_704396" data-name="Trazado 704396" d="M778.207,376.753q-.761,2.23-1.523,4.459c.515-1.505,1.016-2.973,1.523-4.459" transform="translate(-755.766 -236.657)" fill="#cee6f9"/>
        <path id="Trazado_704397" data-name="Trazado 704397" d="M706.765,347.422l25.509,14.25c-3.967,11.629-5.953,17.446-9.92,29.078-10.293-5.858-15.777-8.977-25.444-14.475q4.927-14.427,9.855-28.852" transform="translate(-677.823 -219.096)" fill="#cee6f9"/>
        <path id="Trazado_704398" data-name="Trazado 704398" d="M781.946,388.911q-.559,1.627-1.112,3.255c.383-1.121.751-2.2,1.112-3.255" transform="translate(-761.169 -243.937)" fill="#cee6f9"/>
        <path id="Trazado_704399" data-name="Trazado 704399" d="M715.321,225.992h0c3.941-11.535,5.911-17.3,9.852-28.834q-4.928,14.416-9.852,28.834" transform="translate(-678.11 -129.127)" fill="#cee6f9"/>
        <path id="Trazado_704400" data-name="Trazado 704400" d="M656.063,199.961c9.743,5.238,15.267,8.207,25.64,13.785-3.967,11.629-5.952,17.446-9.921,29.077-10.345-5.668-15.859-8.686-25.576-14.01q4.928-14.424,9.857-28.852" transform="translate(-606.906 -130.805)" fill="#cee6f9"/>
        <path id="Trazado_704401" data-name="Trazado 704401" d="M668.531,206.119c-.024.28-.049.557-.075.837l-10.691-5.748c-3.969,11.633-5.954,17.45-9.923,29.086,11.128,6.1,18.8,10.3,27.31,14.96-.085.249-.169.5-.253.746-8.511-4.664-16.181-8.869-27.309-14.968-3.969,11.635-5.955,17.452-9.923,29.086l27.24,15.209c-.085.248-.17.5-.254.744l-27.238-15.215c-3.969,11.633-5.953,17.452-9.924,29.084,11.072,6.3,18.7,10.642,27.17,15.458-.084.249-.17.5-.254.744L627.24,290.68c-1.584,4.642-2.375,6.966-3.96,11.608l-.708-.4c1.583-4.645,2.375-6.965,3.96-11.608-10.294-5.858-15.777-8.979-25.442-14.482.084-.245.166-.488.25-.731,9.667,5.5,15.151,8.617,25.444,14.475,3.967-11.632,5.952-17.448,9.919-29.078l-25.509-14.25c.084-.245.168-.488.252-.733,9.693,5.412,15.19,8.482,25.511,14.243,3.967-11.631,5.95-17.446,9.919-29.079-10.345-5.669-15.856-8.69-25.575-14.015.084-.243.168-.488.251-.733,9.717,5.324,15.231,8.342,25.576,14.01,3.969-11.631,5.954-17.448,9.921-29.077-10.374-5.578-15.9-8.547-25.64-13.785.084-.243.166-.488.249-.731L657.3,200.085c2.96-8.682,4.442-13.021,7.4-21.7.186.3.368.594.541.9l-7.23,21.193,10.515,5.649" transform="translate(-582.252 -117.884)" fill="#b9d5f1"/>
        <path id="Trazado_704402" data-name="Trazado 704402" d="M714.7,196.066h0c.1-.293.148-.439.25-.732-.084.244-.168.489-.25.732" transform="translate(-667.635 -128.034)" fill="#b9d5f1"/>
        <path id="Trazado_704403" data-name="Trazado 704403" d="M233.408,735.344l-.019.056Z" transform="translate(7.038 -451.361)" fill="#b9d5f1"/>
        <path id="Trazado_704404" data-name="Trazado 704404" d="M351.739,574.2l-1.978-1.105c.3-.14.589-.28.88-.424.467.262.9.506,1.36.76-.088.256-.174.514-.262.77" transform="translate(-158.25 -353.963)" fill="#b9d5f1"/>
        <path id="Trazado_704405" data-name="Trazado 704405" d="M232.873,733.537l-.1.284Z" transform="translate(7.819 -450.279)" fill="#b9d5f1"/>
        <path id="Trazado_704406" data-name="Trazado 704406" d="M179.56,575.965l-.045.136Z" transform="translate(82.504 -355.934)" fill="#b9d5f1"/>
        <path id="Trazado_704407" data-name="Trazado 704407" d="M184.72,561.21c.086-.256.173-.514.26-.77L225.2,583.322c4.152-12.276,6.229-18.416,10.382-30.693l-40.32-22.523c.086-.258.173-.514.26-.77,15.286,8.534,24,13.4,40.324,22.514,4.152-12.279,6.229-18.418,10.382-30.695-9.374-5.139-14.061-7.708-23.435-12.845.269-.159.541-.314.813-.471l22.887,12.535c3.144-9.3,4.716-13.944,7.86-23.241q.431-.029.863-.052c-3.2,9.474-4.806,14.211-8.011,23.685l12.46,6.825q-.131.391-.264.781c-4.516-2.474-7.38-4.044-12.459-6.828-4.154,12.281-6.232,18.423-10.385,30.7l12.426,6.94q-.131.39-.264.781c-4.5-2.515-7.36-4.111-12.426-6.942l-10.384,30.7,12.394,7.052c-.088.26-.177.521-.264.783l-12.394-7.056c-1.658,4.9-2.487,7.352-4.144,12.253l-.709-.4c1.658-4.9,2.487-7.352,4.143-12.253-16.306-9.28-25.169-14.327-40.214-22.891" transform="translate(0.313 -308.703)" fill="#b9d5f1"/>
        <path id="Trazado_704408" data-name="Trazado 704408" d="M739.875,269.748h0c.1-.292.151-.439.249-.731-.082.243-.165.489-.249.731" transform="translate(-702.913 -172.151)" fill="#b9d5f1"/>
        <path id="Trazado_704409" data-name="Trazado 704409" d="M536.951,372.505c.118.363.251.73.362,1.1l-37.337-20.462c-4.015,11.8-6.022,17.693-10.039,29.49l37.424,20.894c-.086.252-.171.506-.257.757l-37.421-20.9c-4.016,11.8-6.024,17.693-10.039,29.488,15.238,8.67,23.974,13.639,37.326,21.237-.086.251-.172.506-.257.757-13.351-7.6-22.087-12.574-37.324-21.245l-4.007,11.769c-.283-.161-.425-.243-.709-.406,1.6-4.707,2.4-7.061,4.006-11.766l-15.286-8.7c.084-.25.168-.5.254-.744,4.558,2.592,9.439,5.369,15.287,8.7,4.015-11.793,6.022-17.69,10.036-29.482-5.863-3.274-10.757-6.008-15.327-8.561.085-.25.17-.5.253-.745,4.57,2.551,9.465,5.283,15.328,8.558,4.014-11.792,6.022-17.689,10.036-29.484l-15.367-8.42c.085-.25.169-.5.254-.746,4.582,2.51,9.49,5.2,15.368,8.417,1.539-4.522,2.309-6.782,3.848-11.3.254.084.507.168.761.254-1.559,4.575-2.339,6.864-3.9,11.442,14.688,8.046,22.032,12.068,36.72,20.116" transform="translate(-389.16 -215.067)" fill="#b9d5f1"/>
        <path id="Trazado_704410" data-name="Trazado 704410" d="M361.409,515.585c-1.8-1.024-3.493-1.988-5.132-2.921q.129-.377.258-.757l5.13,2.921c4.061-11.956,6.091-17.932,10.151-29.886l-5.144-2.874c.086-.251.171-.505.257-.757l5.145,2.872,5.27-15.514q0,1.294-.031,2.579c-1.811,5.333-2.716,8-4.527,13.331,1.814,1.015,2.721,1.521,4.537,2.534q.045.477.1.962l-4.895-2.734-10.154,29.891c17.814,10.136,26.722,15.2,44.536,25.338,3.947-11.646,5.922-17.47,9.869-29.118q.5-.22,1-.452c-4.065,11.991-6.1,17.984-10.159,29.975l2.237,1.274q-.129.384-.26.77c-.738-.422-1.469-.836-2.238-1.276-1.639,4.838-2.46,7.256-4.1,12.094-.283-.164-.425-.246-.708-.407l4.1-12.09-44.534-25.35c-1.621,4.772-2.431,7.159-4.053,11.93l-.708-.4c1.62-4.773,2.431-7.159,4.052-11.93" transform="translate(-226.645 -291.69)" fill="#b9d5f1"/>
        <path id="Trazado_704411" data-name="Trazado 704411" d="M790.22,417.108h0c.1-.293.151-.439.25-.732-.082.245-.166.488-.25.732" transform="translate(-773.46 -260.381)" fill="#b9d5f1"/>
        <path id="Trazado_704412" data-name="Trazado 704412" d="M765.045,343.031l.114-.331Z" transform="translate(-738.047 -216.268)" fill="#b9d5f1"/>
        <path id="Trazado_704413" data-name="Trazado 704413" d="M708.962,131.479c-.084.243-.166.488-.249.732q-4.931,14.427-9.857,28.851l-.252.733-9.855,28.851c-.084.245-.168.489-.252.733q-4.927,14.424-9.854,28.852c-.084.243-.166.486-.249.731q-1.969,5.757-3.935,11.515l-1.441-.826c-.189-.11-.394-.225-.634-.364.2-.581.4-1.164.6-1.747q1.342-3.933,2.687-7.867.251-.729.5-1.459l.149-.437q.126-.364.25-.732l2.633-7.705.022-.06q.555-1.626,1.112-3.255l.142-.419L682,203.15l.142-.41,3.924-11.485c.118-.346.236-.691.353-1.037l.138-.4.114-.332c.1-.286.2-.572.293-.858q.813-2.381,1.628-4.765c.168-.5.34-.994.508-1.491q.416-1.213.828-2.422.4-1.164.8-2.328c.23-.675.462-1.353.692-2.03l5.1-14.941c.084-.243.168-.488.25-.731q4.928-14.417,9.852-28.834c.082-.243.166-.488.25-.732q4.075-11.935,8.153-23.867.849-2.485,1.7-4.965c.084-.245.166-.488.25-.731q2.391-6.993,4.778-13.984l2.1,1.1q-2.392,7-4.78,13.993l-.252.731q-.742,2.178-1.486,4.354-4.185,12.249-8.368,24.5" transform="translate(-659.556 -63.054)" fill="#ad84ff"/>
        <path id="Trazado_704414" data-name="Trazado 704414" d="M562.454,226.629q-1.463,4.292-2.924,8.583c-.085.247-.169.5-.254.746q-5,14.672-10,29.346c-.084.248-.169.5-.254.744l-10,29.346c-.086.248-.17.495-.254.744q-1.995,5.856-3.99,11.713c-.689-.394-1.1-.632-1.695-.972l-.381-.217,3.988-11.706c.084-.248.17-.5.254-.744q4.995-14.663,9.992-29.327c.084-.247.169-.5.254-.744q5-14.666,9.992-29.327c.084-.25.168-.5.253-.746q1.459-4.285,2.92-8.57,3.537-10.377,7.072-20.757c.085-.25.169-.5.254-.744l9.991-29.327c.085-.25.17-.5.254-.747l4.847-14.223,2.1,1.1q-2.423,7.118-4.849,14.232c-.084.25-.168.5-.254.747l-10,29.344-.254.746-7.073,20.763" transform="translate(-464.539 -106.698)" fill="#ad84ff"/>
        <path id="Trazado_704415" data-name="Trazado 704415" d="M409.8,339.97c-.086.252-.171.506-.257.757L399.4,370.566c-.086.254-.172.505-.258.757q-2.023,5.957-4.046,11.911c-.83-.475-1.245-.712-2.076-1.189q2.023-5.95,4.045-11.9c.085-.252.171-.506.257-.757l10.133-29.822c.086-.252.171-.506.257-.757l10.045-29.562.089-.262q.129-.377.257-.757,5.066-14.911,10.133-29.822l.258-.758,10.132-29.822.258-.757q2.456-7.231,4.913-14.462l2.1,1.1q-2.459,7.235-4.917,14.471l-.258.759L430.59,278.771c-.086.254-.172.506-.257.757q-5.069,14.921-10.14,29.841l-.257.759-1.118,3.292q-4.51,13.275-9.02,26.55" transform="translate(-269.512 -150.35)" fill="#ad84ff"/>
        <path id="Trazado_704416" data-name="Trazado 704416" d="M280.857,383.525c-.086.256-.174.512-.26.77q-4.351,12.836-8.7,25.677-.791,2.329-1.579,4.659c-.087.256-.174.512-.26.77l-10.28,30.333c-.087.256-.175.514-.26.77q-2.052,6.053-4.1,12.109l-1.25-.716c-.246-.142-.5-.288-.825-.475q2.049-6.047,4.1-12.1c.087-.258.174-.514.26-.77q5.139-15.159,10.275-30.317c.087-.256.174-.514.262-.77.2-.6.406-1.2.609-1.8q4.834-14.258,9.666-28.518.131-.386.261-.77,5.137-15.16,10.275-30.319c.086-.256.173-.512.261-.768q5.136-15.16,10.274-30.316c.087-.257.174-.512.261-.77q2.492-7.35,4.984-14.7l2.1,1.1q-2.494,7.357-4.986,14.711c-.086.258-.173.514-.261.77q-5.139,15.169-10.28,30.336c-.086.256-.173.512-.26.77Q286,368.355,280.857,383.525" transform="translate(-74.483 -193.998)" fill="#ad84ff"/>
        <path id="Trazado_704417" data-name="Trazado 704417" d="M119.8,521.963c-.23.684-.461,1.364-.692,2.048q-.451,1.332-.9,2.667-.311.92-.622,1.839c-.229.678-.458,1.353-.686,2.031l-.1.294q-.533,1.575-1.064,3.15c-.262-.15-.477-.275-.681-.392l-1.394-.8,4.157-12.3c.088-.262.177-.522.264-.783q5.208-15.4,10.416-30.811.132-.391.263-.781,5.21-15.408,10.417-30.814.132-.39.264-.781,4.914-14.533,9.826-29.064c.2-.581.394-1.166.59-1.747.088-.262.177-.523.265-.783q5.208-15.4,10.416-30.812l.264-.78q2.527-7.474,5.052-14.945l2.1,1.1q-2.529,7.477-5.054,14.953l-.265.781q-5.211,15.414-10.421,30.831c-.088.261-.177.52-.265.783q-.2.607-.41,1.215-.654,1.93-1.307,3.864-.525,1.555-1.05,3.109-.351,1.039-.7,2.078l-.73,2.158q-.124.365-.246.729-.817,2.411-1.631,4.823-.71,2.1-1.42,4.2c-.149.441-.3.884-.447,1.325q-1.239,3.665-2.478,7.329l-.045.136c-.073.217-.146.432-.22.648q-1.381,4.085-2.761,8.17l-.076.224q-.675,1.994-1.348,3.988l-.7,2.074q-1.011,2.995-2.024,5.989l-.164.484-1.138,3.367q-.126.374-.253.749-.977,2.894-1.957,5.786c-.088.262-.176.522-.264.783q-1.841,5.447-3.683,10.9l-1.242,3.674q-.314.932-.631,1.87-.507,1.5-1.012,2.994l-.641,1.9-3.212,9.5-.1.284-.15.441-.019.056Z" transform="translate(120.537 -237.646)" fill="#ad84ff"/>
        <path id="Trazado_704418" data-name="Trazado 704418" d="M647.864,83.894l-13.2-6.873c.213-.626.321-.94.533-1.566L648.4,82.322c-.214.63-.323.944-.536,1.573" transform="translate(-568.969 -56.258)" fill="#387ec2"/>
        <path id="Trazado_704419" data-name="Trazado 704419" d="M508.66,154.981c-.218.639-.327.96-.545,1.6-5.282-2.751-7.924-4.124-13.206-6.875.217-.637.325-.955.542-1.592l13.209,6.866" transform="translate(-373.153 -99.763)" fill="#387ec2"/>
        <path id="Trazado_704420" data-name="Trazado 704420" d="M355.7,220.773l5.194,2.7.719.374,7.3,3.793c-.222.652-.331.977-.553,1.626-2.947-1.532-5.076-2.642-7.3-3.8-.239-.122-.477-.247-.719-.372-1.541-.8-3.174-1.652-5.193-2.7.22-.648.33-.972.55-1.62" transform="translate(-177.327 -143.266)" fill="#387ec2"/>
        <path id="Trazado_704421" data-name="Trazado 704421" d="M215.96,293.431l13.208,6.868c-.224.661-.335.992-.559,1.653L215.4,295.079c.223-.658.335-.987.558-1.647" transform="translate(18.495 -186.769)" fill="#387ec2"/>
        <path id="Trazado_704422" data-name="Trazado 704422" d="M75.655,367.764l.566-1.674,13.208,6.867c-.227.673-.341,1.009-.568,1.68l-13.206-6.873" transform="translate(214.31 -230.273)" fill="#387ec2"/>
        <path id="Trazado_704425" data-name="Trazado 704425" d="M368.661,711.77c-.225.663-.337.992-.561,1.655l-13.026-7.508c.223-.658.335-.987.558-1.646l13.029,7.5" transform="translate(-177.042 -432.756)" fill="#387ec2"/>
        <path id="Trazado_704426" data-name="Trazado 704426" d="M217.807,783.625l13.027,7.5c-.228.673-.341,1.009-.568,1.68-5.21-3-7.815-4.5-13.025-7.506l.566-1.674" transform="translate(16.092 -480.268)" fill="#387ec2"/>
      </g>
      <path id="Trazado_704524" data-name="Trazado 704524" d="M930.012,611.268l-.245.029a3.032,3.032,0,0,0-.258-1.011,1.568,1.568,0,0,0-1.324-1.106l-.286.041-.056-.518.342-.045a1.712,1.712,0,0,1,1.068.447,3.1,3.1,0,0,1,1.047,2.39Z" transform="translate(5458.952 -7404.084)" fill="#ededed"/>
      <path id="Trazado_704525" data-name="Trazado 704525" d="M929.067,616.063l.312-.036.228-.288,0,.028a3.531,3.531,0,0,1-.254,1.275,2.441,2.441,0,0,1-1.28,1.47l-.249-.452a2.2,2.2,0,0,0,1.239-2" transform="translate(5459.647 -7408.324)" fill="#ededed"/>
      <path id="Trazado_704526" data-name="Trazado 704526" d="M953.545,651.868a4.875,4.875,0,0,0,2.775.217,3.712,3.712,0,0,0,.989-.385,11.733,11.733,0,0,0,1.975.7,24.365,24.365,0,0,0,5.221.888l-.465,3.786a16.743,16.743,0,0,1-7.055-.286c-4.488-.959-4.1-1.742-4.1-1.742l-.008-1.091a13.232,13.232,0,0,0,.146-2.31Z" transform="translate(5414.701 -7429.824)" fill="#f6a579"/>
      <path id="Trazado_704527" data-name="Trazado 704527" d="M930.459,631.688a11.694,11.694,0,0,1-1.975-.7,13.915,13.915,0,0,0,2.192-1.665,10.593,10.593,0,0,0,1.962-2.394,6.081,6.081,0,0,0,1.007-1.964l.075-.319.4.06c1.734.011,2.266-2.579,1.618-4.616.374.566.927,1.086,1.224.129a6.677,6.677,0,0,0,.157-2.407l6.376-.759a3.852,3.852,0,0,0,.456,1.794l.25.452c.331.548.725,1.084,1.071,1.706.527.946-.088.6-.718,1.056a1.394,1.394,0,0,0-.566.869,5.5,5.5,0,0,0-.1.9c-.041.641-.067,1.292-.1,1.947a28.208,28.208,0,0,1-.34,3.752,3.363,3.363,0,0,1-3.44,2.756c-1.047.036-2.046.172-3.091.262a10.376,10.376,0,0,1-1.239.028,24.334,24.334,0,0,1-5.221-.888" transform="translate(5443.526 -7409.11)" fill="#f6a579"/>
      <path id="Trazado_704528" data-name="Trazado 704528" d="M939.585,602.873l.035.34.056.519a21.591,21.591,0,0,1,.157,2.28l-6.391.761a3.945,3.945,0,0,1,.824-2.891c.863-1.045,2.431-1.136,3.074-2.248.675-1.173.493-1.654,1.525-2.145a10.2,10.2,0,0,1,.721,3.384" transform="translate(5447.176 -7398.595)" fill="#f6a579"/>
      <path id="Trazado_704529" data-name="Trazado 704529" d="M954.381,574.78a6.489,6.489,0,0,1,1.312,3.354,2.544,2.544,0,0,1-1.478,2.684,4.3,4.3,0,0,1-.549.262,5.171,5.171,0,0,0-.61.245c-1.033.491-.85.972-1.525,2.145-.643,1.112-2.211,1.2-3.074,2.248a3.944,3.944,0,0,0-.824,2.891l-2.03.241-.23.288.26.232.03,0,2-.237a6.686,6.686,0,0,1-.157,2.407c-.3.957-.85.437-1.224-.129a4.363,4.363,0,0,0-.645-1.295s-2.362-2.786-3.788-.77c-1.017,1.445.471,6.041,2.418,6.621l-.076.318a6.081,6.081,0,0,1-1.007,1.964,10.616,10.616,0,0,1-1.962,2.394,13.973,13.973,0,0,1-2.192,1.665,3.731,3.731,0,0,1-.99.385,4.875,4.875,0,0,1-2.775-.217l-.518-.222a4.986,4.986,0,0,1-2.48-1.958,18.447,18.447,0,0,1-1.132-3.433c-.617-2.532-.929-5.233-1.431-7.66a16.051,16.051,0,0,1,.1-7.947,14.613,14.613,0,0,1,.9-2.336c2.606-5.356,7.344-9.975,13.4-9.76a15.307,15.307,0,0,1,8.358,3.588l.161.14a11.33,11.33,0,0,1,1.762,1.89" transform="translate(5432.984 -7380.432)" fill="#1d1c1a"/>
      <path id="Trazado_704530" data-name="Trazado 704530" d="M1009.661,667.058l.082.006a7.076,7.076,0,0,0-3.543,3.042,14.434,14.434,0,0,0-1.359,3.263c-.1.275-.2.553-.3.826a31.724,31.724,0,0,0-1.211,3.593c-.753,3.238-.478,6.69-.381,9.99.112,3.876.305,7.753.454,11.629a6,6,0,0,1-2.325-.357c-1.325-.629-1.758-2.965-1.818-5.451-.015-.632-.006-1.271.018-1.9.068-1.727.252-3.338.378-4.3.076-.57.151-1.063.217-1.5.05-.318.1-.609.131-.833l.006-.039c.387-2.431,2.7-18.141,9.655-17.979" transform="translate(5350.858 -7439.051)" fill="#2c045a"/>
      <path id="Trazado_704531" data-name="Trazado 704531" d="M1011.476,747.379c-.826.078-1.652.125-2.4.12.749,0,1.577-.043,2.4-.12" transform="translate(5345.181 -7487.143)" fill="#183571"/>
      <path id="Trazado_704532" data-name="Trazado 704532" d="M1009.2,697.2c-.1-3.3-.372-6.752.381-9.99a31.573,31.573,0,0,1,1.211-3.593c.1-.273.2-.551.3-.826-.858,3.061-.677,6.165-.564,9.581.181,5.468,1.011,10.891,1.523,16.336-.824.077-1.652.124-2.4.12-.148-3.877-.342-7.753-.454-11.629" transform="translate(5344.598 -7448.471)" fill="#13214c"/>
      <path id="Trazado_704533" data-name="Trazado 704533" d="M971.171,1002.072a4.209,4.209,0,0,1,.465-.731l.2,1.807a5.066,5.066,0,0,0,5.8-.3v-1.826a9.484,9.484,0,0,0,1.5-.3c1.254-.374,1.142-5.668,1.218-6.673l.013-.178.262-.125c1-.5,1.873-1.078,3.022-.753,2.13.6,2.513,3.582,1.846,5.357a5.966,5.966,0,0,1-.534.983,18.524,18.524,0,0,1-3.993,4.036,7.341,7.341,0,0,0-1.594,2.352,12.991,12.991,0,0,1-1.09,1.948c-1.21,1.654-3.655,2.211-5.615,2.04l-.1-.032c-1.295-.171-1.882-1.242-2.076-2.565a10.294,10.294,0,0,1,.688-5.036" transform="translate(5386.39 -7634.144)" fill="#1d1c1a"/>
      <path id="Trazado_704534" data-name="Trazado 704534" d="M996.827,1014.043a5.065,5.065,0,0,1-5.8.3l-.2-1.807-.1-.94a14.833,14.833,0,0,0,6.092.617Z" transform="translate(5367.189 -7645.342)" fill="#f6a579"/>
      <path id="Trazado_704535" data-name="Trazado 704535" d="M937.312,1047.255v-3.109a34.25,34.25,0,0,0,6.862.045v2.6s-2.745,3.072-6.862.459" transform="translate(5441.279 -7664.83)" fill="#f6a579"/>
      <path id="Trazado_704536" data-name="Trazado 704536" d="M943.535,863.191a15.12,15.12,0,0,1,3.7,7.846,35,35,0,0,1,.207,7.925l-8.061-3.61c-1.463,1.474-1.822,5.062-2.143,8.065l0,0-.067-.344c-1.9-9.134-1.959-15.4-3.867-21.721.157-1.2.3-2.4.417-3.6.4.116.8.234,1.194.363a19.6,19.6,0,0,1,8.618,5.074" transform="translate(5439.489 -7553.229)" fill="#1d1c1a"/>
      <path id="Trazado_704537" data-name="Trazado 704537" d="M935.447,873.716a35.026,35.026,0,0,0-.206-7.925,15.117,15.117,0,0,0-3.7-7.846,19.593,19.593,0,0,0-8.617-5.075c-.4-.129-.794-.247-1.194-.363.09-.882.165-1.76.232-2.633,5.851.374,11.731-.662,17.938-.882.063,1.123.1,2.244.145,3.365a187.815,187.815,0,0,1-.136,19.173,31.235,31.235,0,0,1-1.017,7.561c.067-1.434.127-2.7.174-3.756Z" transform="translate(5451.489 -7547.983)" fill="#161513"/>
      <path id="Trazado_704538" data-name="Trazado 704538" d="M931.7,950.154c-.019-.914-.041-1.852-.065-2.8-.121-4.675-.293-9.646-.488-14.023-.115-2.541-.237-4.875-.36-6.832-.035-.553-.069-1.082-.105-1.569a38.033,38.033,0,0,1,1.056-11.177c.06-.273.11-.542.172-.815a29.932,29.932,0,0,0,.465-3.263c.32-3,.68-6.591,2.142-8.065l8.06,3.61c-.022.331-.043.66-.066.992-.108,1.521-.234,3.04-.319,4.563a26.942,26.942,0,0,0,.267,5.644c.312,1.985.757,3.95,1.046,5.94a24.528,24.528,0,0,1,.179,5.886c-.379,3.971-1.536,7.839-1.685,11.838-.073,2.033.192,4.072.211,6.1a20.508,20.508,0,0,1-.693,6.032,5.684,5.684,0,0,1-2.084,3.1,5.8,5.8,0,0,1-3.195.9,21.7,21.7,0,0,1-4.451-.48v.015c-.015-1.723-.045-3.618-.088-5.606" transform="translate(5444.355 -7579.488)" fill="#1d1c1a"/>
      <path id="Trazado_704539" data-name="Trazado 704539" d="M937.661,940.02q-.071,1.381-.144,2.747c-.148,2.82-.3,5.548-.443,8.073-.073,1.3-.146,2.551-.219,3.726-.116,1.934-.228,3.672-.333,5.141-.132,1.867-.252,3.3-.351,4.139a9.381,9.381,0,0,1-1.138.243c-.346.056-.712.105-1.112.146a34.224,34.224,0,0,1-6.862-.045,12.026,12.026,0,0,1-2.433-.492c0-.368,0-.751,0-1.145l0-.226q0-.574-.008-1.181v-.015a21.722,21.722,0,0,0,4.451.48,5.8,5.8,0,0,0,3.194-.9,5.689,5.689,0,0,0,2.085-3.1,20.514,20.514,0,0,0,.692-6.032c-.019-2.033-.284-4.072-.211-6.1.148-4,1.306-7.867,1.684-11.838a24.523,24.523,0,0,0-.179-5.886c-.289-1.99-.734-3.954-1.046-5.939a26.946,26.946,0,0,1-.267-5.645c.084-1.523.211-3.042.319-4.562.024-.331.045-.661.067-.992l3.614,1.62c-.047,1.054-.108,2.322-.174,3.756-.088,1.9-.193,4.094-.307,6.473-.088,1.841-.183,3.795-.282,5.817-.186,3.793-.387,7.811-.592,11.748" transform="translate(5451.534 -7584.875)" fill="#161513"/>
      <path id="Trazado_704540" data-name="Trazado 704540" d="M978.166,910.366l0-.015,0-.007c.011.66,0,1.323-.03,1.983q.041-.981.023-1.962" transform="translate(5390.893 -7584.717)" fill="#1d1c1a"/>
      <path id="Trazado_704541" data-name="Trazado 704541" d="M995.807,906.454c.155,1.146.587,2.246.776,3.39a23.7,23.7,0,0,1,.155,4.818c-.141,3.339-.746,6.652-.852,9.988-.112,3.61.09,7.219.047,10.831-.015,1.192.082,2.573-.63,3.61a2.778,2.778,0,0,1-2.04,1.125c-1.913.228-3.849-.508-5.724-.79-.133-1.422-.122-3.059-.159-3.539-.024-.3-.054-.609-.078-.912q-.115-1.449-.241-2.9c-.1-1.228-.2-2.459-.306-3.687-.292-3.5-.464-6.992-.578-10.487-.066-2.091-.136-4.182-.14-6.284l.009-.473a41.158,41.158,0,0,1,1.664-12.359,27.912,27.912,0,0,1,1.407-3.584c.237,2.887,1.758,3.986,3.459,6.432,1.275,1.833,2.4,2.81,3.384,3.15a3.875,3.875,0,0,0-.155,1.667" transform="translate(5369.114 -7575.653)" fill="#1d1c1a"/>
      <path id="Trazado_704542" data-name="Trazado 704542" d="M990.539,912.36l-.007.189c-.015.318-.032.639-.05.957l-.017.261c-.021.359-.047.719-.071,1.071l-.009.106c-.039.551-.082,1.1-.121,1.652q-.1,1.436-.211,2.876-.3,4.078-.6,8.157-.1,1.355-.2,2.712c-.082,1.117-.165,2.231-.245,3.349q-.222,3.1-.439,6.208c-.089,1.25-.174,2.5-.265,3.751-.022.273-.039.547-.058.822l-.013.179c-.075,1,.037,6.3-1.217,6.673a9.49,9.49,0,0,1-1.5.3,14.845,14.845,0,0,1-6.093-.617l-.563-.179-.149-.1-.045-.06-.084-.123-.047-.1-.063-.151-.045-.14-.049-.17-.041-.179-.039-.179-.037-.215-.025-.172-.036-.259-.015-.135-.032-.318c1.876.282,3.812,1.017,5.724.789a2.774,2.774,0,0,0,2.039-1.125c.713-1.037.615-2.418.631-3.61.043-3.612-.159-7.221-.047-10.831.106-3.336.71-6.649.852-9.988a23.751,23.751,0,0,0-.155-4.818c-.19-1.144-.622-2.244-.777-3.39a3.868,3.868,0,0,1,.155-1.667l.311.086.092.017.218.028.092.007.25-.007.039,0,.277-.05.076-.022.2-.067.082-.034.2-.106.051-.028.243-.168.058-.047.177-.155.071-.069.168-.181.055-.06.207-.267.041-.06.157-.236.06-.1.138-.239.052-.093.172-.348.022-.047.142-.327.047-.118.112-.288.043-.118.131-.387c.011.654,0,1.308-.023,1.962" transform="translate(5378.496 -7584.75)" fill="#161513"/>
      <path id="Trazado_704543" data-name="Trazado 704543" d="M1009.1,834.207l0-.1v0Z" transform="translate(5347.548 -7539.073)" fill="#1d1c1a"/>
      <path id="Trazado_704544" data-name="Trazado 704544" d="M985.493,846.749a9.464,9.464,0,0,1,2.736,3.04,10.94,10.94,0,0,1,1.082,7.768c-.331,1.489-.693,2.958-.964,4.461-.258,1.451-.506,2.907-.9,4.328a17.4,17.4,0,0,1-1.737,4.154,8.4,8.4,0,0,0-.834,1.777c-.979-.34-2.108-1.316-3.383-3.149-1.7-2.446-3.222-3.545-3.459-6.432l-.032-.37c-.837-10.024-1.779-13.385-1.635-21.417a19.216,19.216,0,0,0,5.393,3.855,25.83,25.83,0,0,1,3.737,1.986" transform="translate(5380.202 -7543.143)" fill="#1d1c1a"/>
      <path id="Trazado_704545" data-name="Trazado 704545" d="M978.158,910.763l.136-.4,0,.015Z" transform="translate(5390.771 -7584.726)" fill="#1d1c1a"/>
      <path id="Trazado_704546" data-name="Trazado 704546" d="M967.529,834.505c.988,1.532,3.718,2.59,5.268,3.4a27.527,27.527,0,0,0,11.322,3.061c-.067.874-.142,1.751-.232,2.633-.119,1.2-.261,2.4-.418,3.6a106.651,106.651,0,0,1-3.687,17.358l-.041.144,0,0,0,.007-.136.4-.043.118-.112.288-.047.118-.142.327-.021.047-.172.348-.052.093-.138.239-.06.1-.157.237-.041.06-.207.266-.056.06-.168.181-.071.069-.176.155-.058.048-.243.168-.052.028-.2.106-.082.034-.2.067-.076.021-.277.049-.039,0-.249.007-.093-.007-.217-.028-.093-.017-.312-.086a8.369,8.369,0,0,1,.835-1.777,17.389,17.389,0,0,0,1.736-4.154c.4-1.422.645-2.879.9-4.328.271-1.5.632-2.973.964-4.462a10.941,10.941,0,0,0-1.082-7.767,9.47,9.47,0,0,0-2.736-3.04,25.844,25.844,0,0,0-3.737-1.986,19.234,19.234,0,0,1-5.393-3.855v0q.01-.554.028-1.142l.007-.183c.009-.316.019-.638.032-.97l.016-.333,0-.095Z" transform="translate(5389.326 -7539.077)" fill="#161513"/>
      <path id="Trazado_704547" data-name="Trazado 704547" d="M892.519,1051.209c4.117,2.613,6.863-.458,6.863-.458a8.294,8.294,0,0,0,1.144,1.005,21.6,21.6,0,0,0,8.659,3.7c5.1.981,9.149,3.072,9.149,5.23l-.041.484c-.209,1.327-1.372,2.218-4.5,2.613a37.324,37.324,0,0,1-4.607.235c-7.254,0-9.868-3.137-11.763-3.855a4.586,4.586,0,0,0-2.239-.208,7.926,7.926,0,0,1-3.513-.25c-2.552-.789-1.334-3.769-1.044-5.969l.063-.5c.131-2.222,1.831-2.025,1.831-2.025" transform="translate(5486.072 -7668.784)" fill="#1d1c1a"/>
      <path id="Trazado_704548" data-name="Trazado 704548" d="M925.795,709.555c.069-1.465.108-2.93.09-4.4-.028-2.326-.194-4.64-.413-6.951-.512-5.445-1.343-10.868-1.523-16.336-.114-3.416-.294-6.52.564-9.581a14.443,14.443,0,0,1,1.36-3.263,7.073,7.073,0,0,1,3.542-3.042,10.44,10.44,0,0,1,4.636-.706s.222,2.709,5.447,3.58,10.833-1.6,10.846-1.6a33.723,33.723,0,0,1,6.26,2.151c-5.113,4.029-10.281,9.2-8.119,15.768a4.606,4.606,0,0,0,1.2,1.988,3.377,3.377,0,0,0,1.1.652l-.045.013.331.106.262.08.349.056.289.041.116.011a32.338,32.338,0,0,0,3.833,2.967,8.214,8.214,0,0,1,3.328,4.606,11.028,11.028,0,0,1,.093,3.711,40.194,40.194,0,0,0-.314,4.341,42.694,42.694,0,0,0,.247,4.384c.157,1.545.4,3.078.4,4.634a38.937,38.937,0,0,1-.335,4.617,26.277,26.277,0,0,0-.1,4.319c.123,2.579.413,5.378-.581,7.838a8.049,8.049,0,0,1-3.969,4.017c-4.054,2.074-8.977,2.327-13.436,2.192-1.493-.047-2.986-.157-4.468-.346a21.545,21.545,0,0,1-3.919-.779,14.385,14.385,0,0,1-5.574-3.365,18.117,18.117,0,0,1-2.291-2.745c.02-.7.043-1.374.022-1.948-.056-1.6-.032-3.186.026-4.772.06-1.676.161-3.345.279-5.012.17-2.41.362-4.815.474-7.224" transform="translate(5431.185 -7437.971)" fill="#7125c8"/>
      <path id="Trazado_704549" data-name="Trazado 704549" d="M1008.6,834.067v0l-.013-.031.219.422Z" transform="translate(5348.054 -7539.027)" fill="#183571"/>
      <path id="Trazado_704550" data-name="Trazado 704550" d="M922.829,763.146a21.555,21.555,0,0,0,3.92.779c1.482.189,2.975.3,4.468.346,4.459.135,9.381-.118,13.436-2.192a8.051,8.051,0,0,0,3.969-4.017c.994-2.461.7-5.259.581-7.838a26.318,26.318,0,0,1,.1-4.319,38.957,38.957,0,0,0,.336-4.617c-.007-1.555-.247-3.089-.4-4.634a42.679,42.679,0,0,1-.248-4.384,40.224,40.224,0,0,1,.314-4.341,11.021,11.021,0,0,0-.093-3.711,8.213,8.213,0,0,0-3.328-4.606,32.345,32.345,0,0,1-3.833-2.966l.251,0,.307,0,.388-.03.327-.03.4-.069.342-.065.418-.1.357-.1.431-.136.365-.125.445-.167.375-.151.454-.2.383-.174.461-.22.385-.2.473-.245.381-.209.481-.269.379-.222.488-.291.366-.226.5-.314.323-.211.019-.013a53.548,53.548,0,0,1,.581,9.336c-.069,4.791-.542,9.618-.791,14.458-.015.3-.028.6-.041.9-.02.445-.05.89-.063,1.336-.051,1.6-.036,3.22,0,4.838.013.654.026,1.3.045,1.957.041,1.323.084,2.648.129,3.967.106,2.992.235,6.094.527,9.061.233,2.353-.069,6.225,1.085,8.327l.132.271.062.129c-1.024-.017-2.04,0-3.044.033-6.208.219-12.087,1.256-17.938.881a27.518,27.518,0,0,1-11.322-3.061c-1.551-.811-4.281-1.87-5.268-3.4l-.22-.422-.051-.125-.138-.4-.026-.088-.112-.518-.021-.14-.058-.447-.015-.136-.039-.576,0-.114-.011-.506V758.3c0-.423.009-.85.019-1.262v0a18.1,18.1,0,0,0,2.291,2.745,14.376,14.376,0,0,0,5.574,3.365" transform="translate(5441.216 -7466.497)" fill="#2c045a"/>
      <path id="Trazado_704551" data-name="Trazado 704551" d="M850.535,555.294c-.254,1.869-1.071,2.622-2.351,3.7a5.184,5.184,0,0,0-1.516,2.977,25.3,25.3,0,0,0-6.533-1.775c.164-1.789.308-3.564.551-5.33.049-.364.125-.729.185-1.091a28.664,28.664,0,0,1,1.032-4.415l0,0c.5-1.506,1.014-3.7,2.341-4.772.566-.454,1.656-.955,1.848.114.086.477-.759,1.354-.977,1.749a7.7,7.7,0,0,0-.884,2.59,5.69,5.69,0,0,0-.022.715,1.77,1.77,0,0,1,1.035-.607,1.305,1.305,0,0,1,.985.525l.056.14a1.256,1.256,0,0,1,1.5.57,1.978,1.978,0,0,1,1.086.533,1.464,1.464,0,0,1,.363.559c.785-.219,1.123.787,1.254,1.835.034.28.051.553.06.815a8.924,8.924,0,0,1-.017,1.173" transform="translate(5573.884 -7365.408)" fill="#f6a579"/>
      <path id="Trazado_704552" data-name="Trazado 704552" d="M848.422,584.065c.258.019.531.049.8.082a25.254,25.254,0,0,1,6.533,1.774c.259.112.508.228.736.342-.073.344-.183.757-.323,1.224a31.809,31.809,0,0,0-8.166-1.69,7.691,7.691,0,0,0,.415-1.732" transform="translate(5564.792 -7389.361)" fill="#dddddc"/>
      <path id="Trazado_704553" data-name="Trazado 704553" d="M869.676,597.935a34.629,34.629,0,0,1-2.6,8.176,33.84,33.84,0,0,0-1.377,3.974c-.372,1.428-.6,2.894-1,4.317a12.2,12.2,0,0,1-1.177,2.958c-1.114-2.353-11.386-2.787-11.386-2.787,4.8-6.073,9.055-17.92,10.3-24.741l.043-.217c1.794.565,3.891.585,5.459,1.729,1.966,1.437,2.024,4.4,1.74,6.591" transform="translate(5549.831 -7392.683)" fill="#7125c8"/>
      <path id="Trazado_704554" data-name="Trazado 704554" d="M869.146,666.427l.006-.011,0,.011Z" transform="translate(5543.653 -7438.667)" fill="#13214c"/>
      <path id="Trazado_704555" data-name="Trazado 704555" d="M848.015,618.627a3.085,3.085,0,0,0,.15-1.9l-.062-.14a12.2,12.2,0,0,0,1.176-2.958c.4-1.424.626-2.889,1-4.317a33.7,33.7,0,0,1,1.377-3.973,34.631,34.631,0,0,0,2.6-8.177c.284-2.192.226-5.154-1.74-6.591-1.568-1.145-3.666-1.164-5.459-1.73l.088-.521.4.026a31.824,31.824,0,0,1,8.166,1.691c.2.062.4.125.607.185.353,2.28-.282,5.86-1.415,9.9a150.285,150.285,0,0,1-6.892,18.507" transform="translate(5565.25 -7391.906)" fill="#2c045a"/>
      <path id="Trazado_704556" data-name="Trazado 704556" d="M881.713,657.324a77.393,77.393,0,0,1,8.871-5.511s10.272.435,11.386,2.788a6.352,6.352,0,0,1-.589.845c-.826,1-2.175,1.691-2.713,2.9a18.561,18.561,0,0,1-1.428,2.936,16.813,16.813,0,0,1-2.233,2.633,47.439,47.439,0,0,1-5.95,4.7c-2.035,1.428-4.012,2.9-5.976,4.423a46.919,46.919,0,0,1-6.9,4.618,23.874,23.874,0,0,1-5.6,2.108,3.379,3.379,0,0,1-1.1-.652,4.608,4.608,0,0,1-1.2-1.988c-2.162-6.565,3.005-11.739,8.119-15.768,1.9-1.5,3.8-2.84,5.3-4.036" transform="translate(5511.382 -7429.923)" fill="#7125c8"/>
      <path id="Trazado_704557" data-name="Trazado 704557" d="M914.326,710.948l-.019.013c.652-.426,1.3-.867,1.936-1.318-.63.447-1.272.886-1.917,1.306" transform="translate(5478.441 -7464.548)" fill="#183571"/>
      <path id="Trazado_704558" data-name="Trazado 704558" d="M942.257,722.225l-.116-.011.368.013Z" transform="translate(5441.006 -7472.076)" fill="#183571"/>
      <path id="Trazado_704559" data-name="Trazado 704559" d="M879.946,677.2c1.964-1.521,3.941-2.994,5.976-4.423a47.361,47.361,0,0,0,5.95-4.7,16.8,16.8,0,0,0,2.233-2.633,18.547,18.547,0,0,0,1.428-2.936c.538-1.211,1.887-1.9,2.713-2.9a6.409,6.409,0,0,0,.59-.845l.062.14a3.084,3.084,0,0,1-.15,1.9,7.574,7.574,0,0,1-.458,1.028l-.007.011c-1.51,2.853-5.073,6.25-6.916,7.975-.964.9-1.788,1.631-2.3,2.1l-.252.226-.041.037-.273.245-.142.127-.241.215-.185.166-.249.222-.228.2-.271.239-.254.219-.288.25-.288.25-.3.258-.321.271-.316.267-.342.284-.336.277-.365.3-.344.278-.392.317-.349.275-.415.327-.35.271-.441.34-.353.265-.458.344-.342.25-.493.359-.264.187q-.955.677-1.936,1.319l-.323.211-.5.314-.366.226-.488.29-.378.221-.482.269-.381.209-.473.246-.385.2-.46.22-.383.174-.454.2-.375.151-.446.167-.365.125-.43.135-.357.1-.417.1-.342.065-.4.069-.327.03-.387.03-.307,0-.368-.013-.289-.041-.348-.056-.263-.08-.331-.106.045-.013a23.88,23.88,0,0,0,5.6-2.108,46.947,46.947,0,0,0,6.9-4.619" transform="translate(5514.516 -7434.084)" fill="#2c045a"/>
      <path id="Trazado_704560" data-name="Trazado 704560" d="M947.185,660.02a3.147,3.147,0,0,1,2.25-2.616l.008,1.091s-.392.783,4.1,1.743a16.751,16.751,0,0,0,7.056.286l.262-2.029c2.134,1.089,2.526,4.062,2.526,4.062s-5.625,2.472-10.846,1.6-5.447-3.575-5.447-3.58a4.68,4.68,0,0,1,.095-.56" transform="translate(5418.146 -7433.271)" fill="#dddddc"/>
      <path id="Trazado_704561" data-name="Trazado 704561" d="M955.223,625.065l-.4-.061c-1.947-.581-3.436-5.176-2.419-6.621,1.427-2.016,3.789.77,3.789.77a4.391,4.391,0,0,1,.646,1.3c.648,2.037.116,4.627-1.618,4.617m.536-4.591a3.448,3.448,0,0,0-.981-1.469,1.84,1.84,0,0,0-1.2-.529,1.056,1.056,0,0,0-1.009.88,2.546,2.546,0,0,0,.074,1.241c.015-.424.079-2.153,1.125-1.762a2.129,2.129,0,0,1,.858.667,4.6,4.6,0,0,1,.927,2.076c-.622-.172-1.06.411-1.168.824a1.025,1.025,0,0,0,.6,1.278.926.926,0,0,1-.374-1.117c.088-.264.514-.951.9-.579a4.777,4.777,0,0,1,.647.96,10.339,10.339,0,0,0-.4-2.47" transform="translate(5422.422 -7409.469)" fill="#f6a579"/>
      <path id="Trazado_704562" data-name="Trazado 704562" d="M958.082,624.173a4.784,4.784,0,0,0-.647-.959c-.388-.372-.813.314-.9.579a.927.927,0,0,0,.375,1.117,1.025,1.025,0,0,1-.6-1.278c.108-.413.547-1,1.168-.824a4.6,4.6,0,0,0-.927-2.076,2.139,2.139,0,0,0-.858-.667c-1.046-.392-1.11,1.338-1.125,1.762a2.553,2.553,0,0,1-.073-1.241,1.055,1.055,0,0,1,1.008-.88,1.84,1.84,0,0,1,1.2.529,3.449,3.449,0,0,1,.981,1.469,10.346,10.346,0,0,1,.4,2.47" transform="translate(5420.5 -7410.699)" fill="#f28d64"/>
      <path id="Trazado_704563" data-name="Trazado 704563" d="M938.163,615.2l.039-.006.245-.028.288.226,0,0v0l-.228.288-.312.036-1.7.2-6.376.759-2,.237-.03,0-.26-.232.23-.288,2.03-.241,6.391-.761Z" transform="translate(5450.517 -7407.98)" fill="#ededed"/>
    </g>
  </g>
</svg>
