<svg id="Grupo_152275" data-name="Grupo 152275" xmlns="http://www.w3.org/2000/svg" xmlns:xlink="http://www.w3.org/1999/xlink" width="138.023" height="193.194" viewBox="0 0 138.023 193.194">
  <defs>
    <clipPath id="clip-path">
      <rect id="Rect치ngulo_34587" data-name="Rect치ngulo 34587" width="22.245" height="85.316" fill="none"/>
    </clipPath>
    <clipPath id="clip-path-2">
      <rect id="Rect치ngulo_34588" data-name="Rect치ngulo 34588" width="53.069" height="93.582" fill="none"/>
    </clipPath>
  </defs>
  <path id="Trazado_122547" data-name="Trazado 122547" d="M28.662,64.69l-8.6-4.913L16.1,53l3.013-4.679,8.214.165L35.935,53.4,39.9,60.178l-3.016,4.679Z" transform="translate(30.988 55.202)" fill="#d3bcff"/>
  <path id="Trazado_122548" data-name="Trazado 122548" d="M0,123.166l3.961,6.771L51.139,57.7l-.094-.9-3.961-6.771Z" transform="translate(0 58.181)" fill="#ad84ff"/>
  <path id="Trazado_122549" data-name="Trazado 122549" d="M57.045,57.4l-8.6-4.913L1.354,125.624l8.615,4.9L57.425,58.262Z" transform="translate(2.606 62.493)" fill="#ad84ff"/>
  <path id="Trazado_122550" data-name="Trazado 122550" d="M59.6,54.437l-8.223-.168L4.3,127.4l8.214.171Z" transform="translate(8.277 65.621)" fill="#844af9"/>
  <path id="Trazado_122551" data-name="Trazado 122551" d="M32.149,53.95l-7.035-4.013L21.87,44.385l2.466-3.829,6.719.132,7.059,4.021,3.232,5.549L38.88,54.08Z" transform="translate(42.105 41.591)" fill="#fff"/>
  <path id="Trazado_122552" data-name="Trazado 122552" d="M37.163,44.412l-5.769-2.463L16.923,64.423l3.241,5.546L34.705,48.227Z" transform="translate(32.581 44.029)" fill="#fff"/>
  <path id="Trazado_122553" data-name="Trazado 122553" d="M39.54,47.978,32.5,43.965,18.031,66.436l7.041,4.021L39.859,48.685Z" transform="translate(34.714 47.563)" fill="#f4efe9"/>
  <path id="Trazado_122554" data-name="Trazado 122554" d="M41.637,45.552l-6.731-.129L20.438,67.9l6.731.135Z" transform="translate(39.347 50.118)" fill="#d1d1d1"/>
  <path id="Trazado_122555" data-name="Trazado 122555" d="M34.247,59.82,20.934,36.5l14.819.768L50.874,63.15l-13.281-.157Z" transform="translate(40.304 34.487)" fill="#d3bcff"/>
  <path id="Trazado_122556" data-name="Trazado 122556" d="M20.788,44.884l3.247-21.026,12.921.215-.921,35.359-12.789-.286Z" transform="translate(40.023 12.325)" fill="#844af9"/>
  <path id="Trazado_122557" data-name="Trazado 122557" d="M21.9,44.2,37.534,12.253l17.435.856-20.149,31.3Z" transform="translate(42.161 -8.011)" fill="#844af9"/>
  <g id="Grupo_152230" data-name="Grupo 152230" transform="translate(67.953 11.626)" opacity="0.5">
    <g id="Grupo_152229" data-name="Grupo 152229">
      <g id="Grupo_152228" data-name="Grupo 152228" clip-path="url(#clip-path)">
        <path id="Trazado_122267" data-name="Trazado 122267" d="M37.979,100.134l5.6.116L28.82,75l.793-35.287L45.476,15.066l-5.584-.129L24.025,39.585l-.8,35.29Z" transform="translate(-23.229 -14.935)" fill="#5c74ad"/>
      </g>
    </g>
  </g>
  <g id="Grupo_152233" data-name="Grupo 152233" transform="translate(67.953 8.084)" opacity="0.5">
    <g id="Grupo_152232" data-name="Grupo 152232">
      <g id="Grupo_152231" data-name="Grupo 152231" clip-path="url(#clip-path-2)">
        <path id="Trazado_122268" data-name="Trazado 122268" d="M56.8,107.231,37.978,102.39,23.229,77.13l.8-35.29,15.87-24.649L59.14,13.649,76.3,42.875l-.793,35.287Z" transform="translate(-23.23 -13.648)" fill="#7dd2e3"/>
      </g>
    </g>
  </g>
  <path id="Trazado_122558" data-name="Trazado 122558" d="M86.551,43.326,67.814,11.251l-27.486-.539-20.14,31.3-1,44.794,18.73,32.058,27.492.548,20.14-31.29Zm-23.8,64.551-21.667-.435L26.331,82.183l.79-35.284,15.87-24.643,21.656.424L79.4,47.926l-.784,35.3Z" transform="translate(36.936 -10.712)" fill="#ad84ff"/>
  <path id="Trazado_122559" data-name="Trazado 122559" d="M54.543,42.982,35.81,10.907l14.536.278L69.079,43.244,58.153,45.688Z" transform="translate(68.943 -10.37)" fill="#d3bcff"/>
  <path id="Trazado_122560" data-name="Trazado 122560" d="M41.871,67.352l1-44.791,14.536.259L56.4,67.625,44.571,71.093Z" transform="translate(80.613 10.052)" fill="#844af9"/>
  <path id="Trazado_122561" data-name="Trazado 122561" d="M34.986,70.124l20.14-31.29,14.53.272L49.519,70.4Z" transform="translate(67.357 38.572)" fill="#844af9"/>
</svg>
