<svg xmlns="http://www.w3.org/2000/svg" width="91.865" height="91.274" viewBox="0 0 91.865 91.274">
  <g id="Grupo_974720" data-name="Grupo 974720" transform="translate(-1062.121 -2915.198)">
    <path id="Trazado_696839" data-name="Trazado 696839" d="M74.919,3.573c0,2.087-.07,3.872,0,5.657a6.206,6.206,0,0,0,6.005,5.889A6.144,6.144,0,0,0,87.3,9.393c.139-1.855,0-3.71,0-5.634h36.356c0,1.693-.046,3.385,0,5.078a6.29,6.29,0,0,0,7.953,6.052A6.192,6.192,0,0,0,136.2,9.022c.023-1.716,0-3.408,0-5.194,0,0,.046-.093.093-.093a79.478,79.478,0,0,1,9.112.185,6.745,6.745,0,0,1,5.936,6.794c.116,5.472.093,10.944.093,16.439q0,26.119-.07,52.262a7.052,7.052,0,0,1-5.889,7.234,9.955,9.955,0,0,1-2.04.116q-37.666,0-75.309.023c-3.223,0-5.866-.835-7.536-3.756a10.48,10.48,0,0,1-1.02-5.31V11.99c0-2.365.464-4.707,2.435-6.26a7.352,7.352,0,0,1,3.5-1.739c3.037-.348,6.144-.3,9.367-.441ZM65.575,23.258V77.236c0,2.365,1.067,3.547,3.432,3.64,2.3.093,4.568,0,6.863,0h62.116c1.414,0,2.829.046,4.243,0a3.054,3.054,0,0,0,3.223-2.643,8.882,8.882,0,0,0,.186-1.924V25.438c0-2.18,0-2.18-2.272-2.18H65.575Z" transform="translate(1002.551 2919.684)" fill="#0b428a"/>
    <path id="Trazado_696843" data-name="Trazado 696843" d="M88.53,8.248V3.681A3.233,3.233,0,0,1,90.5.388a3.032,3.032,0,0,1,4.429,2.527c.139,3.687.07,7.373-.023,11.037-.046,1.414-1.6,2.6-3.13,2.643a3.118,3.118,0,0,1-3.061-2.55c-.116-1.924-.023-3.872-.023-5.8H88.53Z" transform="translate(1040.738 2915.124)" fill="#3d4697"/>
    <path id="Trazado_696844" data-name="Trazado 696844" d="M73.888,8.259v4.892a3.172,3.172,0,0,1-2.759,3.362,2.974,2.974,0,0,1-3.478-2.782,28.213,28.213,0,0,1-.139-3.965c0-2.04-.046-4.1,0-6.144C67.558.793,70.039-.76,72.358.561a2.752,2.752,0,0,1,1.553,2.6V8.282Z" transform="translate(1012.996 2915.113)" fill="#3d4697"/>
    <path id="Trazado_696845" data-name="Trazado 696845" d="M81.25,26.49V41.839H66.04V26.49H81.25Z" transform="translate(1011.082 2949.933)" fill="#3d4697"/>
    <path id="Trazado_696846" data-name="Trazado 696846" d="M76.15,26.48H91.291V41.852H76.15Z" transform="translate(1024.413 2949.919)" fill="#3d4697"/>
    <path id="Trazado_696847" data-name="Trazado 696847" d="M101.357,26.49V41.816H86.24V26.49h15.117Z" transform="translate(1037.718 2949.933)" fill="#3d4697"/>
    <path id="Trazado_696848" data-name="Trazado 696848" d="M91.343,15.953v15.21H76.11V16.95c0-.6.07-1.02.835-1.02h14.4Z" transform="translate(1024.36 2936.008)" fill="#3d4697"/>
    <path id="Trazado_696849" data-name="Trazado 696849" d="M86.18,31.141V17.113c0-.835.185-1.206,1.136-1.182,4.405.07,8.834.07,13.262.07.626,0,.974.046.974.858-.07,4.521-.07,9.043-.093,13.564,0,.232-.023.441-.046.742H86.2Z" transform="translate(1037.639 2936.008)" fill="#3d4697"/>
  </g>
</svg>
