<svg xmlns="http://www.w3.org/2000/svg" width="91.591" height="91.576" viewBox="0 0 91.591 91.576">
  <g id="Grupo_974724" data-name="Grupo 974724" transform="translate(-447 -2915)">
    <path id="Trazado_696841" data-name="Trazado 696841" d="M91.586,45.562c.371,24.577-19.963,45.445-44.494,46C22.143,92.12.093,72.667,0,45.933-.093,19.362,21.54.233,45.352,0,71.019-.254,91.771,20.938,91.586,45.562ZM43.794,84.993c22.792.464,41.137-16.593,42-37.53a40.017,40.017,0,0,0-79.946-3.71C4.73,67.7,22.764,84.808,43.817,84.993Z" transform="translate(447 2915.001)" fill="#0b428a"/>
    <path id="Trazado_696850" data-name="Trazado 696850" d="M23.822,35.181h2.017c4.614,0,9.228-.023,13.842,0a11.85,11.85,0,0,1,2.388.185,2.754,2.754,0,0,1,2.342,2.806,2.69,2.69,0,0,1-2.435,2.713A10.494,10.494,0,0,1,40.261,41H22.407a13.258,13.258,0,0,1-1.368-.046c-1.948-.162-2.921-1.113-2.991-3.061-.07-2.62-.046-5.24-.046-7.86,0-6.608.046-13.239.023-19.847A2.7,2.7,0,0,1,19.741,7.5a2.55,2.55,0,0,1,3.061.51,3.2,3.2,0,0,1,.927,2.04c.07,7.976.07,15.975.07,23.951V35.2Z" transform="translate(470.733 2924.501)" fill="#0b428a"/>
  </g>
</svg>
