<svg id="Grupo_973908" data-name="Grupo 973908" xmlns="http://www.w3.org/2000/svg" xmlns:xlink="http://www.w3.org/1999/xlink" width="102.471" height="102.351" viewBox="0 0 102.471 102.351">
  <defs>
    <clipPath id="clip-path">
      <rect id="Rectángulo_339712" data-name="Rectángulo 339712" width="102.471" height="102.351" fill="none"/>
    </clipPath>
  </defs>
  <g id="Grupo_973907" data-name="Grupo 973907" clip-path="url(#clip-path)">
    <path id="Trazado_704767" data-name="Trazado 704767" d="M9.5,90.472,68.64,94.427a2,2,0,0,0,2.131-1.86v0L76.454,7.592a2,2,0,0,0-1.86-2.131h0L15.454,1.506a2,2,0,0,0-2.131,1.86v0L7.64,88.341A2,2,0,0,0,9.5,90.472h0" fill="#fed989"/>
    <path id="Trazado_704768" data-name="Trazado 704768" d="M3.5,100.852H48.767l16-15.934V13.689a2,2,0,0,0-2-2H3.5a2,2,0,0,0-2,2V98.851a2,2,0,0,0,2,2Z" fill="#fff8e5"/>
    <path id="Trazado_704769" data-name="Trazado 704769" d="M62.77,11.687H54.763a2,2,0,0,1,2,2v71.23l-.052,8.022,8.058-8.022V13.689a2,2,0,0,0-2-2Z" fill="#fff1cb"/>
    <path id="Trazado_704770" data-name="Trazado 704770" d="M48.767,100.852V86.79a2,2,0,0,1,2-2h14Z" fill="#ffe9b4"/>
    <path id="Trazado_704771" data-name="Trazado 704771" d="M93.8,49.7l-6.68.033V39.551a3.352,3.352,0,0,1,3.337-3.344A3.317,3.317,0,0,1,93.8,39.5V49.7Z" fill="#ffc724"/>
    <path id="Trazado_704772" data-name="Trazado 704772" d="M90.465,100.852a10.968,10.968,0,0,1-3.247-7.774l-.012-14.807a.236.236,0,0,1,.234-.235l6.012-.03a.233.233,0,0,1,.234.232L93.7,93.066a10.968,10.968,0,0,1-3.206,7.757Z" fill="#489bd7"/>
    <path id="Trazado_704773" data-name="Trazado 704773" d="M90.464,93.877h0a5.194,5.194,0,0,1-5.232-5.156V45.946a2.465,2.465,0,0,1,2.453-2.465l5.53-.027a2.466,2.466,0,0,1,2.478,2.452v42.73a5.25,5.25,0,0,1-5.226,5.237Z" fill="#ffec6f"/>
    <path id="Trazado_704774" data-name="Trazado 704774" d="M93.213,43.454l-4.758.024A2.464,2.464,0,0,1,90.6,45.92V88.637a5.237,5.237,0,0,1-2.7,4.578,5.193,5.193,0,0,0,2.567.659,5.25,5.25,0,0,0,5.226-5.237V45.919a2.465,2.465,0,0,0-2.465-2.465h-.013" fill="#ffe957"/>
    <path id="Trazado_704775" data-name="Trazado 704775" d="M98.334,49.561,84,49.636a2.66,2.66,0,0,0-2.647,2.652,2.626,2.626,0,0,0,2.628,2.626H84l11.687-.058v15.51a2.627,2.627,0,0,0,2.628,2.626h.019a2.66,2.66,0,0,0,2.647-2.652V52.186a2.627,2.627,0,0,0-2.629-2.625h-.017Z" fill="#489bd7"/>
    <path id="Trazado_704776" data-name="Trazado 704776" d="M98.334,49.561,90.64,49.6l-.033,5.266,5.08-.013v15.51a2.627,2.627,0,0,0,2.629,2.625h.018a2.66,2.66,0,0,0,2.647-2.652V52.187a2.627,2.627,0,0,0-2.628-2.626h-.019" fill="#3a8fcf"/>
    <path id="Trazado_704777" data-name="Trazado 704777" d="M74.689,3.963,15.554.008a3.507,3.507,0,0,0-3.729,3.261l-.463,6.917H3.5a3.508,3.508,0,0,0-3.5,3.5V98.851a3.508,3.508,0,0,0,3.5,3.5H48.767a1.519,1.519,0,0,0,1.059-.437l6.833-6.8a1.518,1.518,0,0,0,.213.031l11.666.78a3.59,3.59,0,0,0,3.729-3.261L77.951,7.692A3.533,3.533,0,0,0,74.69,3.963ZM50.269,97.219V86.79a.5.5,0,0,1,.5-.5H61.157Zm19-4.755a.5.5,0,0,1-.532.466l-9.263-.62,6.357-6.332a1.5,1.5,0,0,0,.442-1.064V13.689a3.508,3.508,0,0,0-3.5-3.5H47.16a1.5,1.5,0,0,0,0,3H62.771a.5.5,0,0,1,.5.5v69.6h-12.5a3.508,3.508,0,0,0-3.5,3.5V99.351H3.5a.5.5,0,0,1-.5-.5V13.689a.5.5,0,0,1,.5-.5H39.165a1.5,1.5,0,0,0,0-3H14.372l.449-6.717a.5.5,0,0,1,.532-.466h0L74.489,6.959a.5.5,0,0,1,.466.532h0Z" fill="#070808"/>
    <path id="Trazado_704778" data-name="Trazado 704778" d="M53.609,47.383H12.665a1.5,1.5,0,1,0,0,3H53.609a1.5,1.5,0,0,0,0-3" fill="#070808"/>
    <path id="Trazado_704779" data-name="Trazado 704779" d="M53.609,57.848H12.665a1.5,1.5,0,0,0,0,3H53.609a1.5,1.5,0,0,0,0-3" fill="#070808"/>
    <path id="Trazado_704780" data-name="Trazado 704780" d="M11.164,38.419a1.5,1.5,0,0,0,1.5,1.5H53.609a1.5,1.5,0,0,0,0-3H12.665a1.5,1.5,0,0,0-1.5,1.5Z" fill="#070808"/>
    <path id="Trazado_704781" data-name="Trazado 704781" d="M18.376,27.953a1.5,1.5,0,0,0,1.5,1.5H46.4a1.5,1.5,0,0,0,0-3H19.877a1.5,1.5,0,0,0-1.5,1.5Z" fill="#070808"/>
    <path id="Trazado_704782" data-name="Trazado 704782" d="M38.983,87.763q-4.05.01-8.1.017H28.161c-1.644,0-2.752-.329-3.121-2.137-.311-1.529-2.475-1.324-2.9,0-1.039,3.27-2.757,1.989-3.719-.211A30.8,30.8,0,0,1,16.8,78.446c-.308-1.716-2.9-1.235-2.949.4a27.973,27.973,0,0,1-.807,6.357,51.009,51.009,0,0,1-2.246,6.28c-.731,1.794,2.175,2.565,2.9.8a57.908,57.908,0,0,0,2.04-5.547c1.029,2.474,3.157,5.272,6.19,3.623a6.044,6.044,0,0,0,1.554-1.252c1.577,1.823,3.925,1.679,6.122,1.676q4.692-.006,9.384-.019a1.5,1.5,0,0,0,0-3" fill="#070808"/>
    <path id="Trazado_704783" data-name="Trazado 704783" d="M101.268,49.263a4.319,4.319,0,0,0-2.941-1.2l-1.135.006V45.923A4.158,4.158,0,0,0,95.3,42.548V39.526c0-6.219-9.682-6.192-9.682.029v3.022a3.966,3.966,0,0,0-1.893,3.373v2.2c-5,.34-5.011,7.955.006,8.253.032,6.72.03,13.331-.006,20.164a1.5,1.5,0,0,0,3,.016c.036-6.839.038-13.455.006-20.181l7.448-.037s-.01,22.187-.01,32.183c0,4.872-7.45,4.9-7.45-.051V85.759a1.5,1.5,0,0,0-3-.181v2.569a7.37,7.37,0,0,0,2,5.378,12.556,12.556,0,0,0,3.677,8.4,1.591,1.591,0,0,0,2.151-.036,12.382,12.382,0,0,0,3.637-8.49c.991-.987,1.983-1.981,1.983-5.384V74.331a4.205,4.205,0,0,0,5.3-3.992V52.186a4.1,4.1,0,0,0-1.215-2.923ZM86.732,48.117v-2.17a.964.964,0,0,1,.715-.927l6.01-.03a.947.947,0,0,1,.733.93v2.161Zm3.737-10.408A1.954,1.954,0,0,1,92.3,39.523v2.435l-3.677.018V39.552a1.852,1.852,0,0,1,1.845-1.844Zm0,60.829a9.589,9.589,0,0,1-1.485-3.284,6.518,6.518,0,0,0,2.976-.038,9.367,9.367,0,0,1-1.494,3.322Zm9.013-28.2a1.147,1.147,0,0,1-2.292.026V54.856a1.515,1.515,0,0,0-1.513-1.5l-11.687.058A1.139,1.139,0,0,1,84,51.139l14.335-.071a1.126,1.126,0,0,1,1.139,1.113v18.15Z" fill="#070808"/>
  </g>
</svg>
