<svg xmlns="http://www.w3.org/2000/svg" width="63.309" height="66.662" viewBox="0 0 63.309 66.662">
  <g id="SABIAS_QUE" data-name="SABIAS QUE" transform="translate(1 1.025)">
    <g id="Grupo_972375" data-name="Grupo 972375" transform="translate(24.133 51.162)">
      <path id="Trazado_696771" data-name="Trazado 696771" d="M89.5,194.06H78.464a2.259,2.259,0,0,1-2.26-2.26h0c.032-1.069-.186-2.231.681-2.26H90.892a.867.867,0,0,1,.867.867V191.8A2.259,2.259,0,0,1,89.5,194.06Z" transform="translate(-76.191 -180.265)" fill="#dddad1"/>
      <rect id="Rectángulo_339069" data-name="Rectángulo 339069" width="15.577" height="4.623" rx="2.311" transform="translate(0 4.613)" fill="#dddad1"/>
      <rect id="Rectángulo_339070" data-name="Rectángulo 339070" width="15.577" height="4.623" rx="2.311" fill="#dddad1"/>
    </g>
    <path id="Trazado_696772" data-name="Trazado 696772" d="M64.5,81.368l-8.257-.08-.016-3.8S46.2,73.865,46.468,61.462c.244-11,8.273-16.912,18.335-16.912C72.916,44.55,81.6,51.294,81.6,61.3c0,13.149-9.978,16.1-9.978,16.1v3.965H64.5Z" transform="translate(-31.867 -30.569)" fill="#fde686"/>
    <line id="Línea_236" data-name="Línea 236" x2="10.382" transform="translate(0 29.055)" fill="none" stroke="#2e276b" stroke-linecap="round" stroke-linejoin="round" stroke-width="2"/>
    <line id="Línea_237" data-name="Línea 237" x2="8.511" y2="8.081" transform="translate(8.302 8.029)" fill="none" stroke="#2e276b" stroke-linecap="round" stroke-linejoin="round" stroke-width="2"/>
    <line id="Línea_238" data-name="Línea 238" x1="10.228" transform="translate(51.081 29.055)" fill="none" stroke="#2e276b" stroke-linecap="round" stroke-linejoin="round" stroke-width="2"/>
    <line id="Línea_239" data-name="Línea 239" x1="7.715" y2="7.326" transform="translate(45.667 8.784)" fill="none" stroke="#2e276b" stroke-linecap="round" stroke-linejoin="round" stroke-width="2"/>
    <line id="Línea_240" data-name="Línea 240" x2="0.283" y2="10.98" transform="translate(30.133)" fill="none" stroke="#2e276b" stroke-linecap="round" stroke-linejoin="round" stroke-width="2"/>
    <g id="Grupo_972376" data-name="Grupo 972376" transform="translate(12.339 13.889)">
      <path id="Trazado_696773" data-name="Trazado 696773" d="M57.471,81.46l-8.257-.08L49.2,77.566S39.166,73.938,39.438,61.5C39.682,50.48,47.712,44.55,57.773,44.55c8.113,0,16.794,6.761,16.794,16.794,0,13.182-9.978,16.142-9.978,16.142V81.46H57.475Z" transform="translate(-39.433 -44.55)" fill="none" stroke="#2e276b" stroke-linecap="round" stroke-miterlimit="10" stroke-width="2"/>
      <path id="Trazado_696774" data-name="Trazado 696774" d="M83.219,193.06H72.184a2.259,2.259,0,0,1-2.26-2.26h0c.032-1.069-.186-2.231.681-2.26H84.612a.867.867,0,0,1,.867.867V190.8A2.259,2.259,0,0,1,83.219,193.06Z" transform="translate(-60.134 -142.313)" fill="none" stroke="#2e276b" stroke-linecap="round" stroke-miterlimit="10" stroke-width="2"/>
      <rect id="Rectángulo_339071" data-name="Rectángulo 339071" width="15.577" height="4.623" rx="2.311" transform="translate(9.778 41.562)" fill="none" stroke="#2e276b" stroke-linecap="round" stroke-miterlimit="10" stroke-width="2"/>
      <rect id="Rectángulo_339072" data-name="Rectángulo 339072" width="15.577" height="4.623" rx="2.311" transform="translate(9.778 36.952)" fill="none" stroke="#2e276b" stroke-linecap="round" stroke-miterlimit="10" stroke-width="2"/>
      <path id="Trazado_696775" data-name="Trazado 696775" d="M86.008,93.991a.392.392,0,0,0-.5.3l-.754,2.8a6.1,6.1,0,0,1-.915-1.348,8.344,8.344,0,0,0,1.313-4.013c.083-1.39-.3-2.263-1.014-2.337-.642-.064-1.217.472-1.541,1.441a7.223,7.223,0,0,0,.263,4.742,1.776,1.776,0,0,1-1.422.652,1.564,1.564,0,0,1-1.088-.636c.87-2,1.185-4.832.61-6.17a1.139,1.139,0,0,0-.934-.793c-.87-.055-1.458,1-1.535,2.758a8.588,8.588,0,0,0,.886,4.292c-.019.035-.039.067-.058.1-.52.9-1.108,1.326-1.746,1.258a2.366,2.366,0,0,1-1.807-1.4c.167-.382.334-.819.5-1.316.986-2.957.517-4.575-.186-5.063a.782.782,0,0,0-1.133.228c-.815,1.153-.905,3.9-.193,5.888.032.087.064.173.1.257A4.675,4.675,0,0,1,73.7,97.265l-.713-3.217a.4.4,0,0,0-.491-.34.481.481,0,0,0-.289.571L76.22,111.06a.423.423,0,0,0,.4.356.315.315,0,0,0,.093-.016.481.481,0,0,0,.289-.571L73.9,98.216a4.324,4.324,0,0,0,1.413-1.673A2.978,2.978,0,0,0,77.5,97.984a2.6,2.6,0,0,0,2.411-1.551,2.231,2.231,0,0,0,1.47.738,2.409,2.409,0,0,0,1.868-.738,7.065,7.065,0,0,0,1.236,1.637L81.08,110.733a.49.49,0,0,0,.263.591.361.361,0,0,0,.128.022.41.41,0,0,0,.376-.327l4.424-16.444a.49.49,0,0,0-.263-.591Zm-10.495-.01c-.061.183-.122.36-.183.523a6.424,6.424,0,0,1,.234-4.408c.022-.032.039-.045.058-.045a.079.079,0,0,1,.048.022c.3.212.665,1.445-.154,3.907Zm4.3.706a8.063,8.063,0,0,1-.53-3.236c.048-1.088.334-1.868.677-1.875h.019c.039,0,.141.01.254.27A8.439,8.439,0,0,1,79.815,94.687Zm3.522-3.5c.18-.533.437-.848.69-.854h.039c.173.019.331.488.279,1.329a7.559,7.559,0,0,1-.909,3.1,6.168,6.168,0,0,1-.1-3.583Z" transform="translate(-61.674 -74.481)" fill="#2e276b"/>
    </g>
  </g>
</svg>
