<svg id="Grupo_973062" data-name="Grupo 973062" xmlns="http://www.w3.org/2000/svg" xmlns:xlink="http://www.w3.org/1999/xlink" width="439.471" height="457.5" viewBox="0 0 439.471 457.5">
  <defs>
    <clipPath id="clip-path">
      <rect id="Rectángulo_339356" data-name="Rectángulo 339356" width="439.471" height="457.5" fill="none"/>
    </clipPath>
    <clipPath id="clip-path-5">
      <rect id="Rectángulo_339318" data-name="Rectángulo 339318" width="263.737" height="315.072" fill="none"/>
    </clipPath>
    <clipPath id="clip-path-6">
      <rect id="Rectángulo_339319" data-name="Rectángulo 339319" width="258.446" height="312.242" fill="none"/>
    </clipPath>
    <clipPath id="clip-path-7">
      <rect id="Rectángulo_339320" data-name="Rectángulo 339320" width="5.292" height="31.84" fill="none"/>
    </clipPath>
    <clipPath id="clip-path-8">
      <rect id="Rectángulo_339321" data-name="Rectángulo 339321" width="28.788" height="54.014" fill="none"/>
    </clipPath>
    <clipPath id="clip-path-10">
      <rect id="Rectángulo_339323" data-name="Rectángulo 339323" width="28.788" height="44.402" fill="none"/>
    </clipPath>
    <clipPath id="clip-path-12">
      <rect id="Rectángulo_339325" data-name="Rectángulo 339325" width="28.348" height="65.456" fill="none"/>
    </clipPath>
    <clipPath id="clip-path-14">
      <rect id="Rectángulo_339327" data-name="Rectángulo 339327" width="28.788" height="62.506" fill="none"/>
    </clipPath>
    <clipPath id="clip-path-16">
      <rect id="Rectángulo_339329" data-name="Rectángulo 339329" width="28.551" height="73.412" fill="none"/>
    </clipPath>
    <clipPath id="clip-path-19">
      <rect id="Rectángulo_339332" data-name="Rectángulo 339332" width="18.522" height="31.124" fill="none"/>
    </clipPath>
    <clipPath id="clip-path-20">
      <rect id="Rectángulo_339333" data-name="Rectángulo 339333" width="5.292" height="180.429" fill="none"/>
    </clipPath>
    <clipPath id="clip-path-22">
      <rect id="Rectángulo_339335" data-name="Rectángulo 339335" width="14.185" height="21.753" fill="none"/>
    </clipPath>
    <clipPath id="clip-path-23">
      <rect id="Rectángulo_339336" data-name="Rectángulo 339336" width="10.024" height="21.747" fill="none"/>
    </clipPath>
    <clipPath id="clip-path-24">
      <rect id="Rectángulo_339337" data-name="Rectángulo 339337" width="9.76" height="7.882" fill="none"/>
    </clipPath>
    <clipPath id="clip-path-25">
      <rect id="Rectángulo_339338" data-name="Rectángulo 339338" width="9.438" height="7.224" fill="none"/>
    </clipPath>
    <clipPath id="clip-path-27">
      <rect id="Rectángulo_339340" data-name="Rectángulo 339340" width="103.458" height="55.315" fill="none"/>
    </clipPath>
    <clipPath id="clip-path-28">
      <rect id="Rectángulo_339341" data-name="Rectángulo 339341" width="93.461" height="29.548" fill="none"/>
    </clipPath>
    <clipPath id="clip-path-29">
      <rect id="Rectángulo_339342" data-name="Rectángulo 339342" width="92.621" height="40.147" fill="none"/>
    </clipPath>
    <clipPath id="clip-path-30">
      <rect id="Rectángulo_339343" data-name="Rectángulo 339343" width="39.542" height="44.188" fill="none"/>
    </clipPath>
    <clipPath id="clip-path-31">
      <rect id="Rectángulo_339344" data-name="Rectángulo 339344" width="61.594" height="39.365" fill="none"/>
    </clipPath>
    <clipPath id="clip-path-32">
      <rect id="Rectángulo_339345" data-name="Rectángulo 339345" width="12.345" height="14.818" fill="none"/>
    </clipPath>
    <clipPath id="clip-path-35">
      <rect id="Rectángulo_339348" data-name="Rectángulo 339348" width="13.469" height="16.007" fill="none"/>
    </clipPath>
    <clipPath id="clip-path-36">
      <rect id="Rectángulo_339349" data-name="Rectángulo 339349" width="6.266" height="28.101" fill="none"/>
    </clipPath>
    <clipPath id="clip-path-37">
      <rect id="Rectángulo_339350" data-name="Rectángulo 339350" width="48.303" height="25.771" fill="none"/>
    </clipPath>
    <clipPath id="clip-path-38">
      <rect id="Rectángulo_339351" data-name="Rectángulo 339351" width="13.47" height="16.007" fill="none"/>
    </clipPath>
    <clipPath id="clip-path-39">
      <rect id="Rectángulo_339352" data-name="Rectángulo 339352" width="6.267" height="28.102" fill="none"/>
    </clipPath>
    <clipPath id="clip-path-40">
      <rect id="Rectángulo_339353" data-name="Rectángulo 339353" width="48.302" height="25.771" fill="none"/>
    </clipPath>
  </defs>
  <g id="Grupo_973061" data-name="Grupo 973061" clip-path="url(#clip-path)">
    <g id="Grupo_972951" data-name="Grupo 972951">
      <g id="Grupo_972950" data-name="Grupo 972950" clip-path="url(#clip-path)">
        <path id="Trazado_697296" data-name="Trazado 697296" d="M322.062,344.846c-10.125,5.414-10.125,14.191,0,19.6s26.542,5.414,36.666,0,10.125-14.19,0-19.6-26.542-5.413-36.666,0" transform="translate(73.149 48.21)" fill="#e6e6e6"/>
        <path id="Trazado_697297" data-name="Trazado 697297" d="M91.08,326.339c22.636-12.1,59.334-12.1,81.97,0,19.187,10.258,22.1,25.918,8.76,37.824a10.083,10.083,0,0,1,2.157.812l71.507,38.233c3.036,1.623,3.036,4.254,0,5.877L251,411.477a12.087,12.087,0,0,1-10.808-.28l-66.6-40.363a6.566,6.566,0,0,1-.765-.558c-22.652,11.987-59.184,11.951-81.748-.112-22.634-12.1-22.636-31.724,0-43.826" transform="translate(17.237 44.882)" fill="#e6e6e6"/>
      </g>
    </g>
    <path id="Trazado_697462" data-name="Trazado 697462" d="M0,0,1.231.042l9.562,292.9L9.562,292.9Z" transform="matrix(0.501, -0.866, 0.866, 0.501, 147.2, 59.442)" fill="#e0e0e0"/>
    <path id="Trazado_697463" data-name="Trazado 697463" d="M0,0,1.231.042l9.562,292.9L9.562,292.9Z" transform="matrix(0.501, -0.866, 0.866, 0.501, 147.2, 88.452)" fill="#e0e0e0"/>
    <path id="Trazado_697464" data-name="Trazado 697464" d="M0,0,1.231.042l9.557,292.908-1.231-.042Z" transform="translate(147.165 117.519) rotate(-59.993)" fill="#e0e0e0"/>
    <path id="Trazado_697465" data-name="Trazado 697465" d="M0,0,1.231.042l9.557,292.908-1.231-.042Z" transform="translate(147.165 146.53) rotate(-59.993)" fill="#e0e0e0"/>
    <path id="Trazado_697466" data-name="Trazado 697466" d="M0,0,1.231.042l9.556,292.908-1.231-.042Z" transform="matrix(0.5, -0.866, 0.866, 0.5, 147.165, 175.54)" fill="#e0e0e0"/>
    <path id="Trazado_697467" data-name="Trazado 697467" d="M0,0,1.231.042l9.556,292.908-1.231-.042Z" transform="matrix(0.5, -0.866, 0.866, 0.5, 147.165, 204.551)" fill="#e0e0e0"/>
    <rect id="Rectángulo_339293" data-name="Rectángulo 339293" width="1.303" height="203.072" transform="translate(381.78 155.698)" fill="#e0e0e0"/>
    <rect id="Rectángulo_339294" data-name="Rectángulo 339294" width="1.303" height="203.072" transform="translate(358.287 143.137)" fill="#e0e0e0"/>
    <rect id="Rectángulo_339295" data-name="Rectángulo 339295" width="1.303" height="203.072" transform="translate(334.791 130.575)" fill="#e0e0e0"/>
    <rect id="Rectángulo_339296" data-name="Rectángulo 339296" width="1.303" height="203.072" transform="translate(311.296 118.013)" fill="#e0e0e0"/>
    <rect id="Rectángulo_339297" data-name="Rectángulo 339297" width="1.303" height="203.072" transform="translate(287.801 105.452)" fill="#e0e0e0"/>
    <rect id="Rectángulo_339298" data-name="Rectángulo 339298" width="1.303" height="203.072" transform="translate(264.306 92.89)" fill="#e0e0e0"/>
    <rect id="Rectángulo_339299" data-name="Rectángulo 339299" width="1.303" height="203.073" transform="translate(240.81 80.327)" fill="#e0e0e0"/>
    <rect id="Rectángulo_339300" data-name="Rectángulo 339300" width="1.303" height="203.073" transform="translate(217.317 67.765)" fill="#e0e0e0"/>
    <rect id="Rectángulo_339301" data-name="Rectángulo 339301" width="1.303" height="203.073" transform="translate(193.821 55.204)" fill="#e0e0e0"/>
    <rect id="Rectángulo_339302" data-name="Rectángulo 339302" width="1.303" height="203.073" transform="translate(170.327 42.642)" fill="#e0e0e0"/>
    <g id="Grupo_972953" data-name="Grupo 972953">
      <g id="Grupo_972952" data-name="Grupo 972952" clip-path="url(#clip-path)">
        <path id="Trazado_697298" data-name="Trazado 697298" d="M377.893,368.1,119.447,229.921a.6.6,0,0,1-.325-.522V26.428a.6.6,0,0,1,.325-.523.694.694,0,0,1,.652,0l258.445,138.18a.6.6,0,0,1,.325.522V367.579a.6.6,0,0,1-.325.523.7.7,0,0,1-.652,0M120.425,27.472V229.051L377.567,366.535V164.955Z" transform="translate(27.709 3.653)" fill="#e0e0e0"/>
        <path id="Trazado_697468" data-name="Trazado 697468" d="M0,0,1.231.042l9.556,292.908-1.231-.042Z" transform="matrix(0.5, -0.866, 0.866, 0.5, 123.751, 246.08)" fill="#e0e0e0"/>
        <path id="Trazado_697469" data-name="Trazado 697469" d="M0,0,1.232.042l9.556,292.907-1.232-.042Z" transform="translate(100.256 258.642) rotate(-59.993)" fill="#e0e0e0"/>
        <path id="Trazado_697470" data-name="Trazado 697470" d="M0,0,1.232.042,10.788,292.95l-1.232-.042Z" transform="translate(76.761 271.203) rotate(-59.993)" fill="#e0e0e0"/>
        <path id="Trazado_697471" data-name="Trazado 697471" d="M0,0,1.232.042l9.556,292.908-1.232-.042Z" transform="translate(53.266 283.765) rotate(-59.993)" fill="#e0e0e0"/>
        <path id="Trazado_697472" data-name="Trazado 697472" d="M0,0,133.139,4.343l.042,1.232L.042,1.232Z" transform="translate(264.632 420.956) rotate(-30)" fill="#e0e0e0"/>
        <path id="Trazado_697473" data-name="Trazado 697473" d="M0,0,133.14,4.343l.042,1.232L.042,1.232Z" transform="translate(241.137 408.395) rotate(-30)" fill="#e0e0e0"/>
        <path id="Trazado_697474" data-name="Trazado 697474" d="M0,0,133.14,4.343l.042,1.232L.042,1.232Z" transform="matrix(0.866, -0.5, 0.5, 0.866, 217.642, 395.833)" fill="#e0e0e0"/>
        <path id="Trazado_697475" data-name="Trazado 697475" d="M0,0,133.14,4.343l.042,1.232L.042,1.232Z" transform="matrix(0.866, -0.5, 0.5, 0.866, 194.147, 383.271)" fill="#e0e0e0"/>
        <path id="Trazado_697476" data-name="Trazado 697476" d="M0,0,133.14,4.343l.042,1.232L.042,1.232Z" transform="translate(170.652 370.708) rotate(-30)" fill="#e0e0e0"/>
        <path id="Trazado_697477" data-name="Trazado 697477" d="M0,0,133.14,4.343l.042,1.232L.042,1.232Z" transform="translate(147.156 358.147) rotate(-30)" fill="#e0e0e0"/>
        <path id="Trazado_697478" data-name="Trazado 697478" d="M0,0,133.139,4.343l.042,1.232L.042,1.232Z" transform="translate(123.662 345.585) rotate(-30)" fill="#e0e0e0"/>
        <path id="Trazado_697479" data-name="Trazado 697479" d="M0,0,133.14,4.343l.042,1.232L.042,1.232Z" transform="translate(100.167 333.023) rotate(-30)" fill="#e0e0e0"/>
        <path id="Trazado_697480" data-name="Trazado 697480" d="M0,0,133.139,4.343l.042,1.232L.042,1.232Z" transform="translate(76.672 320.462) rotate(-30)" fill="#e0e0e0"/>
        <path id="Trazado_697481" data-name="Trazado 697481" d="M0,0,133.14,4.343l.042,1.232L.042,1.232Z" transform="translate(53.177 307.9) rotate(-30)" fill="#e0e0e0"/>
        <path id="Trazado_697299" data-name="Trazado 697299" d="M282.653,405.712,24.206,267.533a.583.583,0,0,1,0-1.046L141.6,203.721a.7.7,0,0,1,.653,0L400.7,341.9a.583.583,0,0,1,0,1.046L283.3,405.712a.7.7,0,0,1-.652,0M141.927,204.94,25.835,267.009,282.979,404.493l116.09-62.068Z" transform="translate(5.555 28.808)" fill="#e0e0e0"/>
      </g>
    </g>
    <g id="Grupo_972994" data-name="Grupo 972994">
      <g id="Grupo_972993" data-name="Grupo 972993" clip-path="url(#clip-path)">
        <path id="Trazado_697300" data-name="Trazado 697300" d="M277.01,154.735c0,13.131,8.043,28.378,17.968,34.068s17.955-.353,17.955-13.472-8.042-28.379-17.955-34.069v25.193l-17.091-18.563a24.956,24.956,0,0,0-.876,6.842" transform="translate(64.436 19.984)" fill="#455a64"/>
        <path id="Trazado_697301" data-name="Trazado 697301" d="M276.38,144.951c2.338-8.192,9.105-11.206,17.088-6.632v25.189Z" transform="translate(64.289 19.265)" fill="#27debf"/>
        <path id="Trazado_697302" data-name="Trazado 697302" d="M245.645,138,235.08,151.19a32.655,32.655,0,0,0,10.565,10.58c9.914,5.69,17.955-.341,17.955-13.472s-8.042-28.379-17.955-34.068Z" transform="translate(54.682 16.16)" fill="#455a64"/>
        <path id="Trazado_697303" data-name="Trazado 697303" d="M234.261,150.55c-4.487-6.891-7.4-15.568-7.4-23.473,0-13.129,8.042-19.162,17.962-13.478v23.769Z" transform="translate(52.77 15.768)" fill="#27debf"/>
        <path id="Trazado_697304" data-name="Trazado 697304" d="M149.888,59.456v23.77l17.091,2.445c-2.333-10.874-9.109-21.642-17.091-26.215" transform="translate(34.866 8.411)" fill="#455a64"/>
        <path id="Trazado_697305" data-name="Trazado 697305" d="M167.906,88.325a37.455,37.455,0,0,1,.875,7.849c0,13.128-8.043,19.162-17.963,13.477s-17.962-20.936-17.962-34.064S140.9,56.426,150.819,62.11V85.882Z" transform="translate(30.904 8.484)" fill="#27debf"/>
        <path id="Trazado_697306" data-name="Trazado 697306" d="M196.051,85.73V109.5L206.6,134.787c4.489-1.752,7.414-7.089,7.414-15,0-13.12-8.042-28.379-17.968-34.057" transform="translate(45.604 12.128)" fill="#455a64"/>
        <path id="Trazado_697307" data-name="Trazado 697307" d="M207.658,135.713c-2.963,1.155-6.612.748-10.557-1.512-9.92-5.685-17.962-20.936-17.962-34.064s8.042-19.162,17.962-13.477v23.772Z" transform="translate(41.67 11.957)" fill="#27debf"/>
        <path id="Trazado_697308" data-name="Trazado 697308" d="M304.508,213.033v-7.764a.63.63,0,0,0-.311-.5l-21.212-11.483c-.171-.092-.311-.018-.311.166v7.764a.629.629,0,0,0,.311.5L304.2,213.2c.171.091.311.017.311-.167" transform="translate(65.753 27.338)" fill="#27debf"/>
        <path id="Trazado_697309" data-name="Trazado 697309" d="M256.767,185.61v-7.764a.63.63,0,0,0-.311-.5l-21.212-11.483c-.171-.092-.311-.018-.311.166v7.764a.629.629,0,0,0,.311.5l21.212,11.484c.171.091.311.017.311-.167" transform="translate(54.648 23.459)" fill="#27debf"/>
        <path id="Trazado_697310" data-name="Trazado 697310" d="M209.026,158.187v-7.764a.63.63,0,0,0-.311-.5L187.5,138.441c-.171-.092-.311-.018-.311.165v7.764a.629.629,0,0,0,.311.5l21.212,11.484c.171.091.311.017.311-.167" transform="translate(43.543 19.579)" fill="#27debf"/>
        <path id="Trazado_697311" data-name="Trazado 697311" d="M161.285,130.764V123a.63.63,0,0,0-.311-.5l-21.212-11.483c-.171-.092-.311-.018-.311.166v7.764a.629.629,0,0,0,.311.5l21.212,11.484c.171.091.311.017.311-.167" transform="translate(32.438 15.7)" fill="#27debf"/>
        <path id="Trazado_697312" data-name="Trazado 697312" d="M86.886,97.742l23.495,37.41,23.495,64.165,23.495-11.91,23.5,59.861,23.495-11.91L227.856,248.4l23.495,30.131,23.495-1.575,23.5,44.669,23.495-1.232,23.495,30.256v29.01l-5.293,2.83L81.593,244.272v-143.7Z" transform="translate(18.98 13.827)" fill="#263238"/>
        <path id="Trazado_697313" data-name="Trazado 697313" d="M340.039,353.124l-23.495-30.256L293.049,324.1l-23.5-44.669-23.495,1.575-23.495-30.131-23.495-13.038-23.495,11.91-23.5-59.861L128.583,201.8l-23.495-64.166-23.495-37.41v143.7L340.039,382.135Z" transform="translate(18.98 14.178)" fill="#455a64"/>
        <path id="Trazado_697314" data-name="Trazado 697314" d="M300.993,323.052l-5.292,2.83-23.5-30.256,5.293-2.83Z" transform="translate(63.318 41.421)" fill="#37474f"/>
        <path id="Trazado_697315" data-name="Trazado 697315" d="M239.376,254.742l-5.293,2.83,23.5,44.669,5.292-2.83Z" transform="translate(54.45 36.038)" fill="#37474f"/>
        <path id="Trazado_697316" data-name="Trazado 697316" d="M224.748,259.856l-5.293,2.83-23.495-30.13,5.293-2.83Z" transform="translate(45.583 32.499)" fill="#37474f"/>
        <path id="Trazado_697317" data-name="Trazado 697317" d="M144.07,176.295l-5.293,2.83,23.5,59.861,5.292-2.83Z" transform="translate(32.281 24.94)" fill="#37474f"/>
        <path id="Trazado_697318" data-name="Trazado 697318" d="M105.947,130.516l-5.293,2.83,23.5,64.166,5.292-2.83Z" transform="translate(23.413 18.464)" fill="#37474f"/>
        <path id="Trazado_697319" data-name="Trazado 697319" d="M105.65,111.52a.571.571,0,0,0,.3-.083.482.482,0,0,0,.152-.7L86.027,82.684a.571.571,0,0,0-.753-.142.482.482,0,0,0-.152.7L105.2,111.295a.552.552,0,0,0,.452.225" transform="translate(19.779 11.665)" fill="#455a64"/>
        <path id="Trazado_697320" data-name="Trazado 697320" d="M125.469,170.657a.583.583,0,0,0,.175-.027.5.5,0,0,0,.34-.638L105.9,115.133a.553.553,0,0,0-.689-.314.5.5,0,0,0-.341.638l20.087,54.857a.544.544,0,0,0,.515.342" transform="translate(24.387 16.239)" fill="#455a64"/>
        <path id="Trazado_697321" data-name="Trazado 697321" d="M125.214,167.781a.588.588,0,0,0,.261-.062l16.331-8.262a.486.486,0,0,0,.216-.684.568.568,0,0,0-.738-.2l-16.331,8.262a.486.486,0,0,0-.216.684.552.552,0,0,0,.477.263" transform="translate(29 22.424)" fill="#455a64"/>
        <path id="Trazado_697322" data-name="Trazado 697322" d="M161.95,212.99a.576.576,0,0,0,.185-.031.494.494,0,0,0,.327-.645L142.6,161.722a.554.554,0,0,0-.7-.3.494.494,0,0,0-.325.645l19.857,50.591a.54.54,0,0,0,.51.332" transform="translate(32.926 22.832)" fill="#455a64"/>
        <path id="Trazado_697323" data-name="Trazado 697323" d="M161.833,210.745a.573.573,0,0,0,.26-.063l18.183-9.217a.483.483,0,0,0,.216-.684.567.567,0,0,0-.737-.2L161.572,209.8a.483.483,0,0,0-.217.683.554.554,0,0,0,.478.263" transform="translate(37.517 28.367)" fill="#455a64"/>
        <path id="Trazado_697324" data-name="Trazado 697324" d="M198.106,211.219a.552.552,0,0,0,.466-.244.482.482,0,0,0-.186-.691l-16.539-9.179a.568.568,0,0,0-.746.173.481.481,0,0,0,.186.689l16.539,9.18a.588.588,0,0,0,.28.071" transform="translate(42.108 28.44)" fill="#455a64"/>
        <path id="Trazado_697325" data-name="Trazado 697325" d="M217.709,237.533a.565.565,0,0,0,.318-.1.478.478,0,0,0,.122-.7l-17.64-22.624a.572.572,0,0,0-.758-.113.479.479,0,0,0-.123.7l17.641,22.622a.551.551,0,0,0,.44.21" transform="translate(46.412 30.26)" fill="#455a64"/>
        <path id="Trazado_697326" data-name="Trazado 697326" d="M219.469,238.12l.039,0,17.106-1.147a.5.5,0,1,0-.079-1l-17.106,1.147a.519.519,0,0,0-.5.539.529.529,0,0,0,.542.467" transform="translate(50.924 33.381)" fill="#455a64"/>
        <path id="Trazado_697327" data-name="Trazado 697327" d="M256.541,276.28a.578.578,0,0,0,.238-.051.487.487,0,0,0,.25-.674l-18.678-35.511a.565.565,0,0,0-.727-.232.489.489,0,0,0-.25.673L256.053,276a.55.55,0,0,0,.488.283" transform="translate(55.203 33.918)" fill="#455a64"/>
        <path id="Trazado_697328" data-name="Trazado 697328" d="M257.594,275.883h.031l17.133-.9a.505.505,0,1,0-.063-1.006l-17.132.9a.52.52,0,0,0-.513.532.529.529,0,0,0,.544.475" transform="translate(59.792 38.759)" fill="#455a64"/>
        <path id="Trazado_697329" data-name="Trazado 697329" d="M296.98,304.622a.573.573,0,0,0,.318-.095.481.481,0,0,0,.123-.7L276.9,277.395a.576.576,0,0,0-.759-.114.482.482,0,0,0-.125.7l20.524,26.428a.557.557,0,0,0,.441.21" transform="translate(64.18 39.213)" fill="#455a64"/>
        <path id="Trazado_697330" data-name="Trazado 697330" d="M274.431,279.66a8.025,8.025,0,0,1-3.759-6.606,3.264,3.264,0,0,1,1.478-3.047,2.947,2.947,0,0,1,2.826.17,8.029,8.029,0,0,1,3.757,6.606,3.264,3.264,0,0,1-1.477,3.048,2.445,2.445,0,0,1-1.166.285,3.541,3.541,0,0,1-1.659-.457m-1.737-8.78a2.336,2.336,0,0,0-.934,2.174,7.05,7.05,0,0,0,3.216,5.735,1.879,1.879,0,0,0,1.737.17,2.341,2.341,0,0,0,.933-2.176,7.056,7.056,0,0,0-3.215-5.735,2.455,2.455,0,0,0-1.111-.321,1.3,1.3,0,0,0-.626.152" transform="translate(62.961 38.157)" fill="#455a64"/>
        <path id="Trazado_697331" data-name="Trazado 697331" d="M236.308,241.728a8.028,8.028,0,0,1-3.759-6.606,3.266,3.266,0,0,1,1.479-3.048,2.945,2.945,0,0,1,2.825.171,8.03,8.03,0,0,1,3.758,6.606,3.266,3.266,0,0,1-1.478,3.048,2.445,2.445,0,0,1-1.166.285,3.537,3.537,0,0,1-1.659-.457m-1.738-8.781a2.343,2.343,0,0,0-.933,2.176,7.054,7.054,0,0,0,3.216,5.735,1.88,1.88,0,0,0,1.738.17,2.343,2.343,0,0,0,.933-2.176,7.054,7.054,0,0,0-3.216-5.735,2.455,2.455,0,0,0-1.111-.321,1.308,1.308,0,0,0-.627.151" transform="translate(54.093 32.79)" fill="#455a64"/>
        <path id="Trazado_697332" data-name="Trazado 697332" d="M255.37,280.541a8.028,8.028,0,0,1-3.759-6.606,3.266,3.266,0,0,1,1.479-3.048,2.945,2.945,0,0,1,2.825.171,8.027,8.027,0,0,1,3.758,6.606,3.266,3.266,0,0,1-1.478,3.048,2.445,2.445,0,0,1-1.166.285,3.537,3.537,0,0,1-1.659-.457m-1.738-8.781a2.343,2.343,0,0,0-.933,2.176,7.054,7.054,0,0,0,3.216,5.735,1.883,1.883,0,0,0,1.738.17,2.343,2.343,0,0,0,.933-2.176,7.054,7.054,0,0,0-3.216-5.735,2.455,2.455,0,0,0-1.111-.321,1.308,1.308,0,0,0-.627.151" transform="translate(58.527 38.281)" fill="#455a64"/>
        <path id="Trazado_697333" data-name="Trazado 697333" d="M217.248,242.761a8.028,8.028,0,0,1-3.759-6.606,3.268,3.268,0,0,1,1.478-3.048,2.947,2.947,0,0,1,2.826.171,8.027,8.027,0,0,1,3.758,6.606,3.263,3.263,0,0,1-1.477,3.047,2.451,2.451,0,0,1-1.167.287,3.537,3.537,0,0,1-1.659-.457m-1.738-8.781a2.34,2.34,0,0,0-.933,2.176,7.054,7.054,0,0,0,3.216,5.735,1.879,1.879,0,0,0,1.738.169,2.34,2.34,0,0,0,.932-2.174,7.049,7.049,0,0,0-3.215-5.735,2.45,2.45,0,0,0-1.111-.321,1.308,1.308,0,0,0-.627.151" transform="translate(49.66 32.937)" fill="#455a64"/>
        <path id="Trazado_697334" data-name="Trazado 697334" d="M198.186,216.171a8.028,8.028,0,0,1-3.759-6.606,3.268,3.268,0,0,1,1.479-3.048,2.948,2.948,0,0,1,2.825.171,8.027,8.027,0,0,1,3.758,6.606,3.266,3.266,0,0,1-1.478,3.048,2.432,2.432,0,0,1-1.166.285,3.523,3.523,0,0,1-1.659-.457m-1.738-8.781a2.344,2.344,0,0,0-.933,2.176,7.054,7.054,0,0,0,3.216,5.735,1.883,1.883,0,0,0,1.738.171,2.342,2.342,0,0,0,.933-2.177,7.055,7.055,0,0,0-3.216-5.735,2.445,2.445,0,0,0-1.111-.32,1.319,1.319,0,0,0-.627.15" transform="translate(45.226 29.175)" fill="#455a64"/>
        <path id="Trazado_697335" data-name="Trazado 697335" d="M179.125,205.167a8.028,8.028,0,0,1-3.759-6.606,3.268,3.268,0,0,1,1.478-3.048,2.953,2.953,0,0,1,2.826.17,8.03,8.03,0,0,1,3.758,6.607,3.264,3.264,0,0,1-1.477,3.047,2.453,2.453,0,0,1-1.167.285,3.535,3.535,0,0,1-1.659-.455m-1.738-8.781a2.343,2.343,0,0,0-.933,2.176,7.056,7.056,0,0,0,3.216,5.735,1.881,1.881,0,0,0,1.738.17,2.343,2.343,0,0,0,.933-2.176,7.054,7.054,0,0,0-3.216-5.735,2.441,2.441,0,0,0-1.111-.321,1.308,1.308,0,0,0-.627.151" transform="translate(40.792 27.618)" fill="#455a64"/>
        <path id="Trazado_697336" data-name="Trazado 697336" d="M160.064,215.6A8.028,8.028,0,0,1,156.3,209a3.268,3.268,0,0,1,1.478-3.048,2.953,2.953,0,0,1,2.826.17,8.027,8.027,0,0,1,3.758,6.606,3.263,3.263,0,0,1-1.478,3.048,2.445,2.445,0,0,1-1.166.285,3.552,3.552,0,0,1-1.659-.455m-1.738-8.781a2.343,2.343,0,0,0-.933,2.176,7.052,7.052,0,0,0,3.216,5.734,1.884,1.884,0,0,0,1.738.171,2.343,2.343,0,0,0,.933-2.177,7.162,7.162,0,0,0-3.216-5.734,2.441,2.441,0,0,0-1.111-.321,1.308,1.308,0,0,0-.627.151" transform="translate(36.358 29.094)" fill="#455a64"/>
        <path id="Trazado_697337" data-name="Trazado 697337" d="M141,163.159a8.028,8.028,0,0,1-3.759-6.606,3.268,3.268,0,0,1,1.478-3.048,2.95,2.95,0,0,1,2.826.17,8.03,8.03,0,0,1,3.758,6.606,3.263,3.263,0,0,1-1.478,3.048,2.445,2.445,0,0,1-1.166.285,3.552,3.552,0,0,1-1.659-.455m-1.738-8.781a2.343,2.343,0,0,0-.933,2.176,7.052,7.052,0,0,0,3.216,5.734,1.884,1.884,0,0,0,1.738.171,2.343,2.343,0,0,0,.933-2.177A7.052,7.052,0,0,0,141,154.548a2.441,2.441,0,0,0-1.111-.321,1.308,1.308,0,0,0-.627.151" transform="translate(31.924 21.676)" fill="#455a64"/>
        <path id="Trazado_697338" data-name="Trazado 697338" d="M123.447,172.755a8.028,8.028,0,0,1-3.759-6.606,3.266,3.266,0,0,1,1.479-3.048,2.945,2.945,0,0,1,2.825.171,8.03,8.03,0,0,1,3.758,6.606,3.267,3.267,0,0,1-1.477,3.048,2.466,2.466,0,0,1-1.167.284,3.535,3.535,0,0,1-1.659-.455m-1.738-8.781a2.34,2.34,0,0,0-.933,2.176,7.055,7.055,0,0,0,3.216,5.735,1.88,1.88,0,0,0,1.738.17,2.342,2.342,0,0,0,.932-2.176,7.053,7.053,0,0,0-3.215-5.735,2.445,2.445,0,0,0-1.111-.321,1.321,1.321,0,0,0-.627.151" transform="translate(27.841 23.033)" fill="#455a64"/>
        <path id="Trazado_697339" data-name="Trazado 697339" d="M104.386,116.541a8.028,8.028,0,0,1-3.759-6.606,3.266,3.266,0,0,1,1.479-3.048,2.948,2.948,0,0,1,2.825.171,8.024,8.024,0,0,1,3.758,6.606,3.267,3.267,0,0,1-1.477,3.048,2.466,2.466,0,0,1-1.167.284,3.535,3.535,0,0,1-1.659-.455m-1.738-8.781a2.343,2.343,0,0,0-.933,2.176,7.161,7.161,0,0,0,3.216,5.735,1.88,1.88,0,0,0,1.738.17,2.343,2.343,0,0,0,.933-2.176,7.054,7.054,0,0,0-3.216-5.735,2.446,2.446,0,0,0-1.111-.321,1.321,1.321,0,0,0-.627.151" transform="translate(23.407 15.081)" fill="#455a64"/>
        <path id="Trazado_697340" data-name="Trazado 697340" d="M83.819,84.606A8.028,8.028,0,0,1,80.06,78a3.268,3.268,0,0,1,1.478-3.048,2.95,2.95,0,0,1,2.826.17,8.033,8.033,0,0,1,3.758,6.607,3.264,3.264,0,0,1-1.477,3.047,2.453,2.453,0,0,1-1.167.285,3.535,3.535,0,0,1-1.659-.455m-1.738-8.781A2.34,2.34,0,0,0,81.148,78a7.055,7.055,0,0,0,3.216,5.735,1.877,1.877,0,0,0,1.738.17,2.342,2.342,0,0,0,.932-2.176,7.051,7.051,0,0,0-3.215-5.735,2.441,2.441,0,0,0-1.111-.321,1.308,1.308,0,0,0-.627.151" transform="translate(18.623 10.563)" fill="#455a64"/>
        <path id="Trazado_697341" data-name="Trazado 697341" d="M68.432,110.42a.574.574,0,0,0,.251-.058.486.486,0,0,0,.23-.679L50.349,76.836a.57.57,0,0,0-.733-.213.487.487,0,0,0-.229.68L67.95,110.149a.554.554,0,0,0,.482.271" transform="translate(11.473 10.832)" fill="#27debf"/>
        <path id="Trazado_697342" data-name="Trazado 697342" d="M88.572,175.492a.555.555,0,0,0,.16-.023.5.5,0,0,0,.36-.629L68.714,113.619a.555.555,0,0,0-.68-.332.5.5,0,0,0-.36.629l20.379,61.22a.542.542,0,0,0,.52.356" transform="translate(15.736 16.023)" fill="#27debf"/>
        <path id="Trazado_697343" data-name="Trazado 697343" d="M87.991,172.1a.573.573,0,0,0,.328-.1l18.563-13a.48.48,0,0,0,.106-.705.574.574,0,0,0-.761-.1l-18.564,13a.48.48,0,0,0-.106.705.557.557,0,0,0,.434.2" transform="translate(20.341 22.366)" fill="#27debf"/>
        <path id="Trazado_697344" data-name="Trazado 697344" d="M126.375,212.058a.584.584,0,0,0,.186-.031.493.493,0,0,0,.324-.645l-19.844-50.4a.558.558,0,0,0-.7-.3.493.493,0,0,0-.324.645l19.844,50.4a.541.541,0,0,0,.51.331" transform="translate(24.654 22.727)" fill="#27debf"/>
        <path id="Trazado_697345" data-name="Trazado 697345" d="M126.509,209.78a.59.59,0,0,0,.133-.016l17.587-4.148a.5.5,0,0,0,.393-.613.546.546,0,0,0-.661-.363l-17.586,4.148a.5.5,0,0,0-.394.612.54.54,0,0,0,.528.38" transform="translate(29.301 28.948)" fill="#27debf"/>
        <path id="Trazado_697346" data-name="Trazado 697346" d="M164.427,261.973a.608.608,0,0,0,.179-.027.5.5,0,0,0,.335-.642L145.1,208.422a.554.554,0,0,0-.691-.31.5.5,0,0,0-.337.64l19.839,52.882a.542.542,0,0,0,.514.339" transform="translate(33.506 29.437)" fill="#27debf"/>
        <path id="Trazado_697347" data-name="Trazado 697347" d="M164.285,259.977a.572.572,0,0,0,.362-.128l18.741-15.475a.478.478,0,0,0,.043-.711.575.575,0,0,0-.768-.04L163.922,259.1a.478.478,0,0,0-.043.711.565.565,0,0,0,.406.168" transform="translate(38.088 34.447)" fill="#27debf"/>
        <path id="Trazado_697348" data-name="Trazado 697348" d="M183.769,242.771a.59.59,0,0,0,.133-.016l17.45-4.115a.5.5,0,0,0,.393-.612.552.552,0,0,0-.661-.365l-17.449,4.116a.5.5,0,0,0-.394.612.54.54,0,0,0,.528.38" transform="translate(42.62 33.619)" fill="#27debf"/>
        <path id="Trazado_697349" data-name="Trazado 697349" d="M221.275,283.909a.608.608,0,0,0,.213-.04.493.493,0,0,0,.287-.661L202.6,241.421a.563.563,0,0,0-.714-.266.493.493,0,0,0-.288.661L220.775,283.6a.547.547,0,0,0,.5.306" transform="translate(46.883 34.11)" fill="#27debf"/>
        <path id="Trazado_697350" data-name="Trazado 697350" d="M238.973,285.359a.532.532,0,0,0,.537-.436.512.512,0,0,0-.465-.567l-16.83-2.113a.546.546,0,0,0-.613.43.515.515,0,0,0,.466.568l16.829,2.113c.026,0,.049,0,.075,0" transform="translate(51.546 39.928)" fill="#27debf"/>
        <path id="Trazado_697351" data-name="Trazado 697351" d="M261.509,326.491a.574.574,0,0,0,.251-.058.485.485,0,0,0,.23-.679l-21.03-37.208a.569.569,0,0,0-.733-.213.486.486,0,0,0-.229.679l21.028,37.21a.552.552,0,0,0,.482.271" transform="translate(55.812 40.781)" fill="#27debf"/>
        <path id="Trazado_697352" data-name="Trazado 697352" d="M238.865,290.28a8.028,8.028,0,0,1-3.759-6.606,3.268,3.268,0,0,1,1.478-3.048,2.947,2.947,0,0,1,2.826.171,8.03,8.03,0,0,1,3.758,6.606,3.265,3.265,0,0,1-1.478,3.048,2.445,2.445,0,0,1-1.166.285,3.537,3.537,0,0,1-1.659-.457m-1.738-8.781a2.34,2.34,0,0,0-.933,2.176,7.054,7.054,0,0,0,3.216,5.735,1.88,1.88,0,0,0,1.738.17,2.341,2.341,0,0,0,.932-2.176,7.053,7.053,0,0,0-3.215-5.735,2.455,2.455,0,0,0-1.111-.321,1.308,1.308,0,0,0-.627.151" transform="translate(54.688 39.659)" fill="#27debf"/>
        <path id="Trazado_697353" data-name="Trazado 697353" d="M200.743,242.977a8.025,8.025,0,0,1-3.759-6.606,3.264,3.264,0,0,1,1.478-3.047,2.95,2.95,0,0,1,2.826.17,8.03,8.03,0,0,1,3.758,6.606,3.267,3.267,0,0,1-1.477,3.048,2.45,2.45,0,0,1-1.167.285,3.541,3.541,0,0,1-1.659-.457m-1.738-8.78a2.338,2.338,0,0,0-.933,2.174,7.051,7.051,0,0,0,3.216,5.735,1.881,1.881,0,0,0,1.738.17,2.342,2.342,0,0,0,.932-2.176,7.054,7.054,0,0,0-3.215-5.735,2.455,2.455,0,0,0-1.111-.321,1.309,1.309,0,0,0-.627.152" transform="translate(45.821 32.967)" fill="#27debf"/>
        <path id="Trazado_697354" data-name="Trazado 697354" d="M219.8,287.5a8.025,8.025,0,0,1-3.759-6.606,3.266,3.266,0,0,1,1.479-3.048,2.945,2.945,0,0,1,2.825.171,8.03,8.03,0,0,1,3.757,6.606,3.266,3.266,0,0,1-1.478,3.048,2.445,2.445,0,0,1-1.166.285,3.536,3.536,0,0,1-1.658-.457m-1.737-8.781a2.34,2.34,0,0,0-.934,2.176,7.157,7.157,0,0,0,3.216,5.735,1.875,1.875,0,0,0,1.737.17,2.341,2.341,0,0,0,.933-2.176,7.169,7.169,0,0,0-3.215-5.735,2.455,2.455,0,0,0-1.111-.321,1.3,1.3,0,0,0-.626.151" transform="translate(50.254 39.265)" fill="#27debf"/>
        <path id="Trazado_697355" data-name="Trazado 697355" d="M181.681,247.486a8.028,8.028,0,0,1-3.759-6.606,3.266,3.266,0,0,1,1.479-3.048,2.945,2.945,0,0,1,2.825.171,8.024,8.024,0,0,1,3.758,6.606,3.266,3.266,0,0,1-1.478,3.048,2.445,2.445,0,0,1-1.166.285,3.537,3.537,0,0,1-1.659-.457m-1.737-8.781a2.34,2.34,0,0,0-.934,2.176,7.054,7.054,0,0,0,3.216,5.735,1.88,1.88,0,0,0,1.738.17,2.343,2.343,0,0,0,.933-2.176,7.162,7.162,0,0,0-3.216-5.735,2.455,2.455,0,0,0-1.111-.321,1.3,1.3,0,0,0-.626.151" transform="translate(41.387 33.605)" fill="#27debf"/>
        <path id="Trazado_697356" data-name="Trazado 697356" d="M162.621,264.288a8.028,8.028,0,0,1-3.759-6.606,3.268,3.268,0,0,1,1.478-3.048,2.95,2.95,0,0,1,2.826.171,8.025,8.025,0,0,1,3.757,6.606,3.268,3.268,0,0,1-1.477,3.048,2.45,2.45,0,0,1-1.167.285,3.536,3.536,0,0,1-1.658-.457m-1.738-8.781a2.343,2.343,0,0,0-.933,2.176,7.054,7.054,0,0,0,3.216,5.735,1.879,1.879,0,0,0,1.737.169,2.338,2.338,0,0,0,.933-2.174,7.163,7.163,0,0,0-3.215-5.735,2.45,2.45,0,0,0-1.111-.321,1.308,1.308,0,0,0-.627.151" transform="translate(36.953 35.982)" fill="#27debf"/>
        <path id="Trazado_697357" data-name="Trazado 697357" d="M143.559,209.84a8.028,8.028,0,0,1-3.759-6.606,3.268,3.268,0,0,1,1.478-3.048,2.953,2.953,0,0,1,2.826.17,8.027,8.027,0,0,1,3.758,6.606,3.263,3.263,0,0,1-1.478,3.048,2.445,2.445,0,0,1-1.166.285,3.552,3.552,0,0,1-1.659-.455m-1.738-8.781a2.343,2.343,0,0,0-.933,2.176,7.157,7.157,0,0,0,3.216,5.734,1.878,1.878,0,0,0,1.738.171,2.343,2.343,0,0,0,.933-2.177,7.162,7.162,0,0,0-3.216-5.734,2.441,2.441,0,0,0-1.111-.321,1.308,1.308,0,0,0-.627.151" transform="translate(32.519 28.279)" fill="#27debf"/>
        <path id="Trazado_697358" data-name="Trazado 697358" d="M124.5,214.695a8.028,8.028,0,0,1-3.759-6.606,3.268,3.268,0,0,1,1.478-3.048,2.95,2.95,0,0,1,2.826.171,8.027,8.027,0,0,1,3.758,6.606,3.267,3.267,0,0,1-1.477,3.048,2.466,2.466,0,0,1-1.167.284,3.534,3.534,0,0,1-1.659-.455m-1.738-8.781a2.34,2.34,0,0,0-.933,2.176,7.055,7.055,0,0,0,3.216,5.735,1.873,1.873,0,0,0,1.738.17,2.342,2.342,0,0,0,.932-2.176,7.049,7.049,0,0,0-3.215-5.734,2.432,2.432,0,0,0-1.111-.322,1.321,1.321,0,0,0-.627.151" transform="translate(28.085 28.966)" fill="#27debf"/>
        <path id="Trazado_697359" data-name="Trazado 697359" d="M105.437,162.415a8.026,8.026,0,0,1-3.759-6.606,3.266,3.266,0,0,1,1.479-3.048,2.945,2.945,0,0,1,2.825.171,8.028,8.028,0,0,1,3.758,6.606,3.267,3.267,0,0,1-1.477,3.048,2.466,2.466,0,0,1-1.167.284,3.535,3.535,0,0,1-1.659-.455m-1.738-8.781a2.343,2.343,0,0,0-.933,2.176,7.161,7.161,0,0,0,3.216,5.735,1.88,1.88,0,0,0,1.738.17,2.343,2.343,0,0,0,.933-2.176,7.164,7.164,0,0,0-3.216-5.735,2.445,2.445,0,0,0-1.111-.321,1.321,1.321,0,0,0-.627.151" transform="translate(23.651 21.57)" fill="#27debf"/>
        <path id="Trazado_697360" data-name="Trazado 697360" d="M86.376,176.825a8.028,8.028,0,0,1-3.759-6.606,3.268,3.268,0,0,1,1.478-3.048,2.95,2.95,0,0,1,2.826.17,8.03,8.03,0,0,1,3.758,6.606A3.266,3.266,0,0,1,89.2,177a2.457,2.457,0,0,1-1.166.284,3.535,3.535,0,0,1-1.659-.455m-1.738-8.781a2.343,2.343,0,0,0-.933,2.176,7.055,7.055,0,0,0,3.216,5.735,1.88,1.88,0,0,0,1.738.17,2.343,2.343,0,0,0,.933-2.177,7.052,7.052,0,0,0-3.216-5.734,2.441,2.441,0,0,0-1.111-.321,1.308,1.308,0,0,0-.627.151" transform="translate(19.218 23.609)" fill="#27debf"/>
        <path id="Trazado_697361" data-name="Trazado 697361" d="M67.314,114.99a8.028,8.028,0,0,1-3.759-6.606,3.268,3.268,0,0,1,1.478-3.048,2.944,2.944,0,0,1,2.826.171,8.028,8.028,0,0,1,3.758,6.606,3.267,3.267,0,0,1-1.477,3.048,2.466,2.466,0,0,1-1.167.284,3.534,3.534,0,0,1-1.659-.455m-1.738-8.781a2.34,2.34,0,0,0-.933,2.176,7.055,7.055,0,0,0,3.216,5.735,1.88,1.88,0,0,0,1.738.17,2.342,2.342,0,0,0,.932-2.176,7.053,7.053,0,0,0-3.215-5.735,2.446,2.446,0,0,0-1.111-.321,1.321,1.321,0,0,0-.627.151" transform="translate(14.784 14.861)" fill="#27debf"/>
        <path id="Trazado_697362" data-name="Trazado 697362" d="M48.254,78.57a8.028,8.028,0,0,1-3.759-6.606,3.266,3.266,0,0,1,1.479-3.048,2.945,2.945,0,0,1,2.825.171,8.027,8.027,0,0,1,3.758,6.606,3.267,3.267,0,0,1-1.477,3.048,2.466,2.466,0,0,1-1.167.284,3.535,3.535,0,0,1-1.659-.455m-1.738-8.781a2.343,2.343,0,0,0-.933,2.176A7.055,7.055,0,0,0,48.8,77.7a1.873,1.873,0,0,0,1.738.17,2.343,2.343,0,0,0,.933-2.176,7.05,7.05,0,0,0-3.216-5.734,2.432,2.432,0,0,0-1.111-.322,1.321,1.321,0,0,0-.627.151" transform="translate(10.35 9.709)" fill="#27debf"/>
        <g id="Grupo_972956" data-name="Grupo 972956" transform="translate(53.584 106.364)" opacity="0.4">
          <g id="Grupo_972955" data-name="Grupo 972955">
            <g id="Grupo_972954" data-name="Grupo 972954" clip-path="url(#clip-path-5)">
              <path id="Trazado_697363" data-name="Trazado 697363" d="M48.764,93.182l23.495,41.572,23.258,69.873,18.44-12.909,5.292-2.83,23.5,59.676,23.495-5.542,23.054,61.451,18.644-15.394,5.292-2.83,23.495-5.542,23.5,51.183,23.495,2.95,23.495,41.572v29.01l-5.292,2.83L43.471,270.074V96.012Z" transform="translate(-43.472 -93.182)" fill="#27debf"/>
            </g>
          </g>
        </g>
        <g id="Grupo_972959" data-name="Grupo 972959" transform="translate(53.584 109.194)" opacity="0.3">
          <g id="Grupo_972958" data-name="Grupo 972958">
            <g id="Grupo_972957" data-name="Grupo 972957" clip-path="url(#clip-path-6)">
              <path id="Trazado_697364" data-name="Trazado 697364" d="M301.917,378.893l-23.495-41.572-23.495-2.95-23.5-51.185-23.495,5.543-23.495,19.4L160.947,245.5l-23.495,5.543-23.495-59.677-23.5,16.449L66.966,137.234,43.472,95.662V269.724L301.917,407.9Z" transform="translate(-43.472 -95.661)" fill="#27debf"/>
            </g>
          </g>
        </g>
        <path id="Trazado_697365" data-name="Trazado 697365" d="M258.437,341.312l-5.293,2.83v29.01l5.293-2.83Z" transform="translate(58.884 48.284)" fill="#27debf"/>
        <g id="Grupo_972962" data-name="Grupo 972962" transform="translate(312.029 389.596)" opacity="0.05">
          <g id="Grupo_972961" data-name="Grupo 972961">
            <g id="Grupo_972960" data-name="Grupo 972960" clip-path="url(#clip-path-7)">
              <path id="Trazado_697366" data-name="Trazado 697366" d="M258.437,341.312l-5.293,2.83v29.01l5.293-2.83Z" transform="translate(-253.145 -341.312)"/>
            </g>
          </g>
        </g>
        <g id="Grupo_972965" data-name="Grupo 972965" transform="translate(241.544 293.89)" opacity="0.3">
          <g id="Grupo_972964" data-name="Grupo 972964">
            <g id="Grupo_972963" data-name="Grupo 972963" clip-path="url(#clip-path-8)">
              <path id="Trazado_697367" data-name="Trazado 697367" d="M224.749,308.651l-5.293,2.83L195.961,260.3l5.293-2.831Z" transform="translate(-195.961 -257.467)" fill="#27debf"/>
            </g>
          </g>
        </g>
        <g id="Grupo_972968" data-name="Grupo 972968" transform="translate(241.544 293.89)" opacity="0.15">
          <g id="Grupo_972967" data-name="Grupo 972967">
            <g id="Grupo_972966" data-name="Grupo 972966" clip-path="url(#clip-path-8)">
              <path id="Trazado_697368" data-name="Trazado 697368" d="M224.749,308.651l-5.293,2.83L195.961,260.3l5.293-2.831Z" transform="translate(-195.961 -257.467)"/>
            </g>
          </g>
        </g>
        <g id="Grupo_972971" data-name="Grupo 972971" transform="translate(288.533 348.024)" opacity="0.3">
          <g id="Grupo_972970" data-name="Grupo 972970">
            <g id="Grupo_972969" data-name="Grupo 972969" clip-path="url(#clip-path-10)">
              <path id="Trazado_697369" data-name="Trazado 697369" d="M239.376,304.892l-5.293,2.83,23.5,41.572,5.292-2.83Z" transform="translate(-234.083 -304.892)" fill="#27debf"/>
            </g>
          </g>
        </g>
        <g id="Grupo_972974" data-name="Grupo 972974" transform="translate(288.533 348.024)" opacity="0.15">
          <g id="Grupo_972973" data-name="Grupo 972973">
            <g id="Grupo_972972" data-name="Grupo 972972" clip-path="url(#clip-path-10)">
              <path id="Trazado_697370" data-name="Trazado 697370" d="M239.376,304.892l-5.293,2.83,23.5,41.572,5.292-2.83Z" transform="translate(-234.083 -304.892)"/>
            </g>
          </g>
        </g>
        <g id="Grupo_972977" data-name="Grupo 972977" transform="translate(171.058 256.205)" opacity="0.3">
          <g id="Grupo_972976" data-name="Grupo 972976">
            <g id="Grupo_972975" data-name="Grupo 972975" clip-path="url(#clip-path-12)">
              <path id="Trazado_697371" data-name="Trazado 697371" d="M138.777,227.282l5.293-2.83L167.124,285.9l-4.852,4.005Z" transform="translate(-138.777 -224.452)" fill="#27debf"/>
            </g>
          </g>
        </g>
        <g id="Grupo_972980" data-name="Grupo 972980" transform="translate(171.058 256.205)" opacity="0.15">
          <g id="Grupo_972979" data-name="Grupo 972979">
            <g id="Grupo_972978" data-name="Grupo 972978" clip-path="url(#clip-path-12)">
              <path id="Trazado_697372" data-name="Trazado 697372" d="M138.777,227.282l5.293-2.83L167.124,285.9l-4.852,4.005Z" transform="translate(-138.777 -224.452)"/>
            </g>
          </g>
        </g>
        <g id="Grupo_972983" data-name="Grupo 972983" transform="translate(124.068 202.07)" opacity="0.3">
          <g id="Grupo_972982" data-name="Grupo 972982">
            <g id="Grupo_972981" data-name="Grupo 972981" clip-path="url(#clip-path-14)">
              <path id="Trazado_697373" data-name="Trazado 697373" d="M129.443,236.7l-5.293,2.83-23.495-59.676,5.293-2.83Z" transform="translate(-100.655 -177.027)" fill="#27debf"/>
            </g>
          </g>
        </g>
        <g id="Grupo_972986" data-name="Grupo 972986" transform="translate(124.068 202.07)" opacity="0.15">
          <g id="Grupo_972985" data-name="Grupo 972985">
            <g id="Grupo_972984" data-name="Grupo 972984" clip-path="url(#clip-path-14)">
              <path id="Trazado_697374" data-name="Trazado 697374" d="M129.443,236.7l-5.293,2.83-23.495-59.676,5.293-2.83Z" transform="translate(-100.655 -177.027)"/>
            </g>
          </g>
        </g>
        <g id="Grupo_972989" data-name="Grupo 972989" transform="translate(77.079 147.936)" opacity="0.3">
          <g id="Grupo_972988" data-name="Grupo 972988">
            <g id="Grupo_972987" data-name="Grupo 972987" clip-path="url(#clip-path-16)">
              <path id="Trazado_697375" data-name="Trazado 697375" d="M62.533,132.432l5.293-2.83,23.258,69.873-5.056,3.54Z" transform="translate(-62.533 -129.602)" fill="#27debf"/>
            </g>
          </g>
        </g>
        <g id="Grupo_972992" data-name="Grupo 972992" transform="translate(77.079 147.936)" opacity="0.15">
          <g id="Grupo_972991" data-name="Grupo 972991">
            <g id="Grupo_972990" data-name="Grupo 972990" clip-path="url(#clip-path-16)">
              <path id="Trazado_697376" data-name="Trazado 697376" d="M62.533,132.432l5.293-2.83,23.258,69.873-5.056,3.54Z" transform="translate(-62.533 -129.602)"/>
            </g>
          </g>
        </g>
      </g>
    </g>
    <path id="Trazado_697377" data-name="Trazado 697377" d="M28.7,62.38l5.292-2.83,13.231,28.3-5.292,2.83L39.282,89.26V264.032l-5.293,2.83L23.406,261.2V80.772l-7.938-4.244Z" transform="translate(3.598 8.424)" fill="#27debf"/>
    <path id="Trazado_697378" data-name="Trazado 697378" d="M15.468,76.177,28.7,62.029l13.231,28.3-7.939-4.245V266.511l-10.584-5.659V80.421Z" transform="translate(3.598 8.775)" fill="#27debf"/>
    <g id="Grupo_973002" data-name="Grupo 973002">
      <g id="Grupo_973001" data-name="Grupo 973001" clip-path="url(#clip-path)">
        <g id="Grupo_972997" data-name="Grupo 972997" transform="translate(32.297 67.976)" opacity="0.15">
          <g id="Grupo_972996" data-name="Grupo 972996">
            <g id="Grupo_972995" data-name="Grupo 972995" clip-path="url(#clip-path-19)">
              <path id="Trazado_697379" data-name="Trazado 697379" d="M44.725,87.847l-5.292,2.83L26.2,62.38l5.292-2.83Z" transform="translate(-26.202 -59.551)"/>
            </g>
          </g>
        </g>
        <g id="Grupo_973000" data-name="Grupo 973000" transform="translate(37.588 94.856)" opacity="0.15">
          <g id="Grupo_972999" data-name="Grupo 972999">
            <g id="Grupo_972998" data-name="Grupo 972998" clip-path="url(#clip-path-20)">
              <path id="Trazado_697380" data-name="Trazado 697380" d="M35.787,260.7l-5.292,2.83V83.1l5.292,2.83Z" transform="translate(-30.495 -83.1)"/>
            </g>
          </g>
        </g>
      </g>
    </g>
    <g id="Grupo_973016" data-name="Grupo 973016">
      <g id="Grupo_973015" data-name="Grupo 973015" clip-path="url(#clip-path)">
        <path id="Trazado_697381" data-name="Trazado 697381" d="M316.5,328.008l46.71-.008-4.829,25.9h-.006c-.369,2.246-2.155,4.439-5.37,6.158-7.264,3.884-19.041,3.884-26.305,0-3.462-1.85-5.253-4.25-5.416-6.673Z" transform="translate(73.622 46.401)" fill="#37474f"/>
        <path id="Trazado_697382" data-name="Trazado 697382" d="M321.466,332.379c10.139,5.42,26.582,5.42,36.722,0a18.611,18.611,0,0,0,4.859-3.607l-1.18,7.505a17.913,17.913,0,0,1-4.546,3.335c-9.665,5.162-25.325,5.162-34.989,0a17.786,17.786,0,0,1-4.533-3.351l-1.185-7.48a18.655,18.655,0,0,0,4.852,3.6" transform="translate(73.648 46.51)" fill="#263238"/>
        <path id="Trazado_697383" data-name="Trazado 697383" d="M355.114,353.908h-.006c-.37,2.246-2.156,4.439-5.372,6.158-5.19,2.776-12.68,3.557-19.187,2.366,11.672.824,19.681-3.9,20.882-8.251s2.731-20.876,2.731-20.876l-1.291-4.83.364-.468h6.708Z" transform="translate(76.889 46.402)" fill="#263238"/>
        <path id="Trazado_697384" data-name="Trazado 697384" d="M314.564,325.1a8.742,8.742,0,0,0,1.559,3.362,16.871,16.871,0,0,0,5.861,4.82c10.138,5.421,26.582,5.421,36.721,0a16.871,16.871,0,0,0,5.861-4.82,8.851,8.851,0,0,0,1.552-3.362h.007c.9-4.074-1.574-8.322-7.42-11.447-10.138-5.428-26.583-5.428-36.721,0-5.846,3.124-8.324,7.373-7.42,11.447" transform="translate(73.129 43.796)" fill="#455a64"/>
        <path id="Trazado_697385" data-name="Trazado 697385" d="M316.089,326.54a16.877,16.877,0,0,0,5.86,4.82c10.139,5.42,26.584,5.42,36.722,0a16.883,16.883,0,0,0,5.861-4.82,8.828,8.828,0,0,0,1.551-3.362h.009l-1.152,7.331c-.528,2.951-2.9,5.825-7.134,8.085-9.664,5.162-25.324,5.162-34.989,0-4.172-2.233-6.545-5.072-7.111-7.98l-.06-.377-1.114-7.059a8.741,8.741,0,0,0,1.559,3.362" transform="translate(73.163 45.719)" fill="#37474f"/>
        <path id="Trazado_697386" data-name="Trazado 697386" d="M324.226,315c8.452-4.52,22.154-4.52,30.6,0,4.784,2.56,6.855,6.013,6.23,9.348-.482,2.56-2.561,5.05-6.23,7.011-8.443,4.52-22.145,4.52-30.6,0-3.661-1.961-5.74-4.451-6.222-7-.632-3.341,1.438-6.794,6.222-9.354" transform="translate(73.945 44.083)" fill="#37474f"/>
        <path id="Trazado_697387" data-name="Trazado 697387" d="M359.335,326.8a14.217,14.217,0,0,1-4.8,3.912c-8.443,4.52-22.145,4.52-30.6,0a14.215,14.215,0,0,1-4.8-3.913c.063-2.706,2.019-5.4,5.881-7.465,7.852-4.2,20.583-4.2,28.429,0,3.864,2.067,5.822,4.762,5.886,7.466" transform="translate(74.235 44.729)" fill="#e0e0e0"/>
        <path id="Trazado_697388" data-name="Trazado 697388" d="M337.294,328.817s4.428-5.9,2.343-11.941c-2.125-6.153-7.5-10.031-9.469-9.8s-5.218,5.956-3.817,12.1,6.124,8.934,10.943,9.646" transform="translate(75.834 43.439)" fill="#27debf"/>
        <g id="Grupo_973005" data-name="Grupo 973005" transform="translate(401.845 350.504)" opacity="0.1">
          <g id="Grupo_973004" data-name="Grupo 973004">
            <g id="Grupo_973003" data-name="Grupo 973003" clip-path="url(#clip-path-22)">
              <path id="Trazado_697389" data-name="Trazado 697389" d="M337.294,328.817s4.428-5.9,2.343-11.941c-2.125-6.153-7.5-10.031-9.469-9.8s-5.218,5.956-3.817,12.1,6.124,8.934,10.943,9.646" transform="translate(-326.011 -307.064)"/>
            </g>
          </g>
        </g>
        <g id="Grupo_973008" data-name="Grupo 973008" transform="translate(406.006 350.502)" opacity="0.15">
          <g id="Grupo_973007" data-name="Grupo 973007">
            <g id="Grupo_973006" data-name="Grupo 973006" clip-path="url(#clip-path-23)">
              <path id="Trazado_697390" data-name="Trazado 697390" d="M336.514,328.81c.309-11.111-7.127-21.737-7.127-21.737,1.967-.227,7.344,3.65,9.464,9.805,2.038,5.884-2.129,11.65-2.337,11.932" transform="translate(-329.387 -307.063)"/>
            </g>
          </g>
        </g>
        <path id="Trazado_697391" data-name="Trazado 697391" d="M335.169,327.011a7.191,7.191,0,0,1,2.662-5.421c2.714-1.929,6.051-2.1,6.777-1.5s.3,3.752-2.114,5.865a6.613,6.613,0,0,1-7.325,1.054" transform="translate(77.964 45.239)" fill="#27debf"/>
        <g id="Grupo_973011" data-name="Grupo 973011" transform="translate(413.133 365.022)" opacity="0.1">
          <g id="Grupo_973010" data-name="Grupo 973010">
            <g id="Grupo_973009" data-name="Grupo 973009" clip-path="url(#clip-path-24)">
              <path id="Trazado_697392" data-name="Trazado 697392" d="M335.169,327.011a7.191,7.191,0,0,1,2.662-5.421c2.714-1.929,6.051-2.1,6.777-1.5s.3,3.752-2.114,5.865a6.613,6.613,0,0,1-7.325,1.054" transform="translate(-335.169 -319.783)"/>
            </g>
          </g>
        </g>
        <g id="Grupo_973014" data-name="Grupo 973014" transform="translate(413.133 365.021)" opacity="0.25">
          <g id="Grupo_973013" data-name="Grupo 973013">
            <g id="Grupo_973012" data-name="Grupo 973012" clip-path="url(#clip-path-25)">
              <path id="Trazado_697393" data-name="Trazado 697393" d="M335.169,327.006c3.231-4.559,9.438-6.916,9.438-6.916-.725-.6-4.063-.43-6.777,1.5a7.166,7.166,0,0,0-2.661,5.415" transform="translate(-335.169 -319.783)"/>
            </g>
          </g>
        </g>
      </g>
    </g>
    <g id="Grupo_973036" data-name="Grupo 973036">
      <g id="Grupo_973035" data-name="Grupo 973035" clip-path="url(#clip-path)">
        <path id="Trazado_697394" data-name="Trazado 697394" d="M79.959,335.541V348.58c0,7.078,5.05,14.156,15.151,19.557,20.2,10.8,52.954,10.8,73.157,0,10.1-5.4,15.151-12.479,15.151-19.557V335.541c0-7.077-5.05-14.155-15.151-19.556-20.2-10.8-52.955-10.8-73.157,0-10.1,5.4-15.151,12.479-15.151,19.557Zm98.456,0c0,5.663-4.493,11.183-12.649,15.544-9.023,4.824-21.126,7.48-34.077,7.48s-25.057-2.656-34.078-7.48c-8.156-4.362-12.649-9.882-12.649-15.544S89.454,324.358,97.611,320c9.021-4.823,21.124-7.48,34.078-7.48s25.055,2.657,34.077,7.48c8.157,4.362,12.649,9.883,12.649,15.546" transform="translate(18.599 43.555)" fill="#27debf"/>
        <g id="Grupo_973019" data-name="Grupo 973019" transform="translate(98.562 351.439)" opacity="0.3">
          <g id="Grupo_973018" data-name="Grupo 973018">
            <g id="Grupo_973017" data-name="Grupo 973017" clip-path="url(#clip-path-27)">
              <path id="Trazado_697395" data-name="Trazado 697395" d="M168.269,315.984c-20.2-10.8-52.954-10.8-73.157,0s-20.2,28.313,0,39.114,52.955,10.8,73.158,0,20.2-28.313,0-39.114m-2.5,35.1c-9.021,4.824-21.123,7.48-34.077,7.48s-25.055-2.656-34.077-7.48c-8.157-4.362-12.65-9.882-12.65-15.544S89.456,324.357,97.614,320c9.021-4.824,21.123-7.481,34.077-7.481s25.055,2.657,34.077,7.481c8.157,4.36,12.649,9.882,12.649,15.545s-4.493,11.183-12.649,15.544" transform="translate(-79.962 -307.883)" fill="#fff"/>
            </g>
          </g>
        </g>
        <path id="Trazado_697396" data-name="Trazado 697396" d="M177.478,334.966a12.146,12.146,0,0,1-2.021,6.522c-2.051-3.289-5.663-6.374-10.635-9.024-9.015-4.827-21.122-7.486-34.079-7.486s-25.053,2.658-34.068,7.486c-4.972,2.65-8.584,5.736-10.646,9.024a12.227,12.227,0,0,1-2.01-6.522c0-5.662,4.493-11.184,12.656-15.548,9.015-4.818,21.122-7.477,34.068-7.477s25.064,2.658,34.079,7.477c8.164,4.364,12.656,9.886,12.656,15.548" transform="translate(19.543 44.129)" fill="#27debf"/>
        <g id="Grupo_973022" data-name="Grupo 973022" transform="translate(103.561 356.07)" opacity="0.1">
          <g id="Grupo_973021" data-name="Grupo 973021">
            <g id="Grupo_973020" data-name="Grupo 973020" clip-path="url(#clip-path-28)">
              <path id="Trazado_697397" data-name="Trazado 697397" d="M177.478,334.966a12.146,12.146,0,0,1-2.021,6.522c-2.051-3.289-5.663-6.374-10.635-9.024-9.015-4.827-21.122-7.486-34.079-7.486s-25.053,2.658-34.068,7.486c-4.972,2.65-8.584,5.736-10.646,9.024a12.227,12.227,0,0,1-2.01-6.522c0-5.662,4.493-11.184,12.656-15.548,9.015-4.818,21.122-7.477,34.068-7.477s25.064,2.658,34.079,7.477c8.164,4.364,12.656,9.886,12.656,15.548" transform="translate(-84.018 -311.941)"/>
            </g>
          </g>
        </g>
        <g id="Grupo_973025" data-name="Grupo 973025" transform="translate(103.981 361.975)" opacity="0.4">
          <g id="Grupo_973024" data-name="Grupo 973024">
            <g id="Grupo_973023" data-name="Grupo 973023" clip-path="url(#clip-path-29)">
              <path id="Trazado_697398" data-name="Trazado 697398" d="M164.745,324.594c-9.021-4.824-21.123-7.48-34.077-7.48s-25.055,2.656-34.077,7.48c-6.731,3.6-10.959,7.987-12.234,12.593,1.275,4.606,5.5,8.995,12.234,12.594,9.021,4.824,21.124,7.48,34.077,7.48s25.055-2.656,34.077-7.48c6.73-3.6,10.958-7.988,12.234-12.594-1.276-4.606-5.5-8.994-12.234-12.593" transform="translate(-84.358 -317.113)" fill="#fff"/>
            </g>
          </g>
        </g>
        <g id="Grupo_973028" data-name="Grupo 973028" transform="translate(162.479 374.824)" opacity="0.1">
          <g id="Grupo_973027" data-name="Grupo 973027">
            <g id="Grupo_973026" data-name="Grupo 973026" clip-path="url(#clip-path-30)">
              <path id="Trazado_697399" data-name="Trazado 697399" d="M131.817,359.531v13.028a71.582,71.582,0,0,0,24.384-7.32c10.1-5.4,15.157-12.481,15.157-19.559V332.642a15.314,15.314,0,0,0-.62-4.271h-.01c2.452,8.422-2.391,17.335-14.528,23.83a71.767,71.767,0,0,1-24.384,7.329" transform="translate(-131.817 -328.37)"/>
            </g>
          </g>
        </g>
        <path id="Trazado_697400" data-name="Trazado 697400" d="M150.355,357.3a7.322,7.322,0,0,1,3.6-5.827,2.722,2.722,0,0,1,2.55-.249h0l.009,0h0l17.413,9.2.011.006,0,0a2.306,2.306,0,0,1,1.063,2.163,7.322,7.322,0,0,1-3.6,5.827,2.719,2.719,0,0,1-2.561.244l-17.412-9.2h0a2.3,2.3,0,0,1-1.081-2.172" transform="translate(34.974 49.656)" fill="#37474f"/>
        <path id="Trazado_697401" data-name="Trazado 697401" d="M151.436,359a2.293,2.293,0,0,1-1.081-2.172,5.979,5.979,0,0,1,.614-2.512l22.456,11.893a6.718,6.718,0,0,1-2.017,1.75,2.721,2.721,0,0,1-2.563.244L151.435,359Z" transform="translate(34.974 50.124)" fill="#263238"/>
        <path id="Trazado_697402" data-name="Trazado 697402" d="M165.051,367.241a9.531,9.531,0,0,1,4.684-7.584,3.558,3.558,0,0,1,3.279-.337l0-.006.049.024h0L230.818,387.9,222.2,402l-55.75-31.936a3,3,0,0,1-1.4-2.826" transform="translate(38.393 50.795)" fill="#27debf"/>
        <g id="Grupo_973031" data-name="Grupo 973031" transform="translate(203.444 413.434)" opacity="0.1">
          <g id="Grupo_973030" data-name="Grupo 973030">
            <g id="Grupo_973029" data-name="Grupo 973029" clip-path="url(#clip-path-31)">
              <path id="Trazado_697403" data-name="Trazado 697403" d="M222.2,401.56l-55.75-31.936a3,3,0,0,1-1.4-2.826,8.621,8.621,0,0,1,1.567-4.6l60.027,32.093Z" transform="translate(-165.051 -362.195)"/>
            </g>
          </g>
        </g>
        <path id="Trazado_697404" data-name="Trazado 697404" d="M216.12,398.048c3.408-1.838,6.159-6.291,6.142-9.947s-2.792-5.127-6.2-3.287-6.158,6.293-6.142,9.947,2.793,5.125,6.2,3.287" transform="translate(48.829 54.326)" fill="#27debf"/>
        <g id="Grupo_973034" data-name="Grupo 973034" transform="translate(258.748 438.348)" opacity="0.2">
          <g id="Grupo_973033" data-name="Grupo 973033">
            <g id="Grupo_973032" data-name="Grupo 973032" clip-path="url(#clip-path-32)">
              <path id="Trazado_697405" data-name="Trazado 697405" d="M216.12,398.048c3.408-1.838,6.159-6.291,6.142-9.947s-2.792-5.127-6.2-3.287-6.158,6.293-6.142,9.947,2.793,5.125,6.2,3.287" transform="translate(-209.919 -384.021)"/>
            </g>
          </g>
        </g>
      </g>
    </g>
    <g id="Grupo_973038" data-name="Grupo 973038">
      <g id="Grupo_973037" data-name="Grupo 973037" clip-path="url(#clip-path)">
        <path id="Trazado_697406" data-name="Trazado 697406" d="M330.541,117.034l-4.107-8.586a3.807,3.807,0,0,0-2.025-1.584,27.131,27.131,0,0,1-3.153-1.184.737.737,0,0,0-.571-.048.546.546,0,0,0-.319.331l-2.063,5.094a2.417,2.417,0,0,1-1.7,1.5,2.616,2.616,0,0,1-2.262-.6l-7.1-5.916a4.724,4.724,0,0,1-1.578-3.94l.92-6.577a3.946,3.946,0,0,0-.73-2.517,55.629,55.629,0,0,1-3.236-4.565,2.819,2.819,0,0,0-2-1.106l-4.834-.075a4.2,4.2,0,0,1-3.694-2.426l-3.857-9.682a2.626,2.626,0,0,1,.1-2.194,2.972,2.972,0,0,1,1.761-1.469l4-1.3a1.187,1.187,0,0,0,.773-1.254,40.274,40.274,0,0,1-.525-4.651,4.391,4.391,0,0,0-1.1-2.477l-6.233-6.061a4.5,4.5,0,0,1-1.18-4.062l1.726-6.631a2.315,2.315,0,0,1,1.5-1.67,2.6,2.6,0,0,1,2.309.41l6.345,4.451a.857.857,0,0,0,1.146-.215,14.01,14.01,0,0,1,1.515-1.5,1.942,1.942,0,0,0,.668-1.816l-2.778-8.683a2.481,2.481,0,0,1,.3-2.172,2.9,2.9,0,0,1,1.993-1.187l5.076-.728a3.935,3.935,0,0,1,3.952,2l4.11,8.587a3.779,3.779,0,0,0,2.018,1.583,26.115,26.115,0,0,1,3.156,1.184.752.752,0,0,0,.571.047.543.543,0,0,0,.319-.331l2.063-5.094a2.424,2.424,0,0,1,1.707-1.5,2.641,2.641,0,0,1,2.259.6l7.1,5.915a4.708,4.708,0,0,1,1.58,3.941l-.918,6.576a3.957,3.957,0,0,0,.731,2.519c1.13,1.435,2.219,2.97,3.236,4.566a2.813,2.813,0,0,0,2,1.1l4.834.075a4.188,4.188,0,0,1,3.692,2.426l3.859,9.684a2.635,2.635,0,0,1-.1,2.194,2.979,2.979,0,0,1-1.761,1.467l-4,1.3a1.2,1.2,0,0,0-.777,1.256,39.275,39.275,0,0,1,.526,4.649,4.424,4.424,0,0,0,1.1,2.479l6.237,6.062a4.515,4.515,0,0,1,1.178,4.06l-1.728,6.631a2.311,2.311,0,0,1-1.5,1.67,2.6,2.6,0,0,1-2.306-.41l-6.348-4.449a.863.863,0,0,0-1.146.215,14.273,14.273,0,0,1-1.512,1.5,1.941,1.941,0,0,0-.671,1.815l2.778,8.683a2.482,2.482,0,0,1-.3,2.173,2.9,2.9,0,0,1-2,1.186l-5.072.728a3.512,3.512,0,0,1-.5.035,3.914,3.914,0,0,1-3.449-2.033m13.231-15.968,6.347,4.451c.1.067.161.09.176.105a.5.5,0,0,0,.084-.192l1.727-6.631a2.559,2.559,0,0,0-.619-2.133L345.249,90.6a6.4,6.4,0,0,1-1.713-3.816,37.6,37.6,0,0,0-.5-4.425,3.275,3.275,0,0,1,2.254-3.549l4-1.3a.8.8,0,0,0,.468-.389.7.7,0,0,0,.025-.582l-3.859-9.685a1.972,1.972,0,0,0-1.616-1.059l-4.832-.075a5.079,5.079,0,0,1-3.9-2.131c-.979-1.536-2.026-3.015-3.115-4.4a5.927,5.927,0,0,1-1.146-4.015l.918-6.577a2.739,2.739,0,0,0-.849-2.123l-7.1-5.916a.643.643,0,0,0-.212-.127.424.424,0,0,0-.139.207l-2.062,5.093a2.715,2.715,0,0,1-1.591,1.538,3.144,3.144,0,0,1-2.39-.108,24.185,24.185,0,0,0-2.871-1.078,5.917,5.917,0,0,1-3.382-2.722l-4.11-8.585A1.624,1.624,0,0,0,305.976,34l-5.072.728a.616.616,0,0,0-.439.24.53.53,0,0,0-.044.466l2.778,8.683a3.9,3.9,0,0,1-1.3,3.944,11.783,11.783,0,0,0-1.283,1.273,3.206,3.206,0,0,1-4.262.571l-6.344-4.449c-.1-.068-.164-.092-.179-.106a.517.517,0,0,0-.083.192l-1.726,6.632h0a2.549,2.549,0,0,0,.619,2.132l6.233,6.061a6.372,6.372,0,0,1,1.716,3.816,38.307,38.307,0,0,0,.5,4.424,3.273,3.273,0,0,1-2.252,3.551l-4.006,1.3a.789.789,0,0,0-.466.389.689.689,0,0,0-.025.583L294.2,84.11a1.976,1.976,0,0,0,1.618,1.062l4.832.075a5.087,5.087,0,0,1,3.9,2.131,53.668,53.668,0,0,0,3.115,4.4,5.915,5.915,0,0,1,1.145,4.015l-.92,6.575a2.755,2.755,0,0,0,.849,2.124l7.1,5.915a.694.694,0,0,0,.213.129.425.425,0,0,0,.138-.208l2.062-5.093a2.71,2.71,0,0,1,1.594-1.536,3.151,3.151,0,0,1,2.388.106,24.268,24.268,0,0,0,2.872,1.08,5.927,5.927,0,0,1,3.384,2.721l4.11,8.587a1.618,1.618,0,0,0,1.547.781l5.072-.728a.612.612,0,0,0,.436-.237.524.524,0,0,0,.044-.467l-2.778-8.684a3.9,3.9,0,0,1,1.3-3.941,12.3,12.3,0,0,0,1.284-1.275,3.264,3.264,0,0,1,2.463-1.136,3.126,3.126,0,0,1,1.8.565M315.626,90.4h0c-7.963-6.631-12.718-18.641-10.6-26.773.96-3.688,3.225-6.218,6.376-7.123,3.889-1.117,8.658.363,13.1,4.059,7.965,6.631,12.721,18.641,10.6,26.773-.961,3.687-3.225,6.216-6.376,7.123a9.6,9.6,0,0,1-2.661.364c-3.295,0-6.969-1.535-10.438-4.423m-3.56-31.9c-2.4.689-4.074,2.631-4.852,5.619-1.945,7.465,2.5,18.563,9.918,24.734,3.836,3.192,7.814,4.507,10.927,3.616,2.395-.688,4.074-2.632,4.852-5.618,1.945-7.466-2.5-18.561-9.92-24.734-3.047-2.536-6.186-3.89-8.909-3.89a7.319,7.319,0,0,0-2.015.273" transform="translate(66.462 4.513)" fill="#27debf"/>
        <path id="Trazado_697407" data-name="Trazado 697407" d="M269.645,95.7l-2.983-6.227a2.542,2.542,0,0,0-1.344-1.049A19.378,19.378,0,0,1,263,87.553c-.091-.041-.182-.06-.38.108l-1.494,3.692a1.94,1.94,0,0,1-1.371,1.2,2.128,2.128,0,0,1-1.818-.475l-5.149-4.288a3.61,3.61,0,0,1-1.206-3.013l.666-4.767a2.72,2.72,0,0,0-.5-1.7c-.831-1.057-1.625-2.174-2.354-3.323a1.849,1.849,0,0,0-1.286-.713l-3.5-.055a3.236,3.236,0,0,1-2.853-1.874l-2.8-7.02a2.061,2.061,0,0,1,.079-1.726,2.336,2.336,0,0,1,1.39-1.16l2.9-.943a.677.677,0,0,0,.433-.711,29.437,29.437,0,0,1-.382-3.392,3.039,3.039,0,0,0-.743-1.679l-4.519-4.395a3.45,3.45,0,0,1-.9-3.112l1.25-4.806a1.855,1.855,0,0,1,1.214-1.338,2.085,2.085,0,0,1,1.851.324l4.6,3.226a.432.432,0,0,0,.565-.126,10.142,10.142,0,0,1,1.117-1.108,1.239,1.239,0,0,0,.429-1.132l-2.014-6.3a1.968,1.968,0,0,1,.242-1.722,2.293,2.293,0,0,1,1.578-.942l3.679-.528a3.016,3.016,0,0,1,3.07,1.554l2.983,6.226a2.562,2.562,0,0,0,1.345,1.05,19.481,19.481,0,0,1,2.312.868c.094.045.187.054.38-.107l1.494-3.693a1.943,1.943,0,0,1,1.372-1.2,2.1,2.1,0,0,1,1.814.477l5.151,4.288a3.6,3.6,0,0,1,1.205,3.012L272.193,51a2.717,2.717,0,0,0,.5,1.7,40.706,40.706,0,0,1,2.355,3.323,1.841,1.841,0,0,0,1.284.715l3.5.054a3.243,3.243,0,0,1,2.853,1.874l2.8,7.022a2.082,2.082,0,0,1-.084,1.73,2.348,2.348,0,0,1-1.389,1.153l-2.9.942a.687.687,0,0,0-.436.711,28.176,28.176,0,0,1,.385,3.391,3.064,3.064,0,0,0,.745,1.683l4.517,4.392a3.456,3.456,0,0,1,.9,3.112l-1.252,4.808a1.858,1.858,0,0,1-1.214,1.337,2.1,2.1,0,0,1-1.851-.323l-4.6-3.226a.434.434,0,0,0-.565.126,10.344,10.344,0,0,1-1.117,1.108,1.239,1.239,0,0,0-.429,1.132l2.014,6.293a1.975,1.975,0,0,1-.242,1.726,2.292,2.292,0,0,1-1.58.938l-3.677.53a2.8,2.8,0,0,1-.39.027,3.038,3.038,0,0,1-2.681-1.58M279.528,83.9l4.485,3.266,1.252-4.808a1.7,1.7,0,0,0-.4-1.38l-4.519-4.395a4.791,4.791,0,0,1-1.3-2.883,26.231,26.231,0,0,0-.362-3.186,2.559,2.559,0,0,1,1.764-2.771l2.9-.942a.374.374,0,0,0,.227-.188.341.341,0,0,0,.015-.284l-2.8-7.02a1.258,1.258,0,0,0-.995-.653l-3.5-.054a3.9,3.9,0,0,1-2.992-1.633,38.545,38.545,0,0,0-2.246-3.17,4.491,4.491,0,0,1-.865-3.042L270.856,46a1.854,1.854,0,0,0-.555-1.383l-5.094-4.3L263.712,44a2.146,2.146,0,0,1-1.262,1.216,2.489,2.489,0,0,1-1.888-.081,17.259,17.259,0,0,0-2.06-.773,4.488,4.488,0,0,1-2.564-2.071l-2.984-6.228a.948.948,0,0,0-.912-.46l-3.679.528-.245.04.053.243,2.015,6.3a3.008,3.008,0,0,1-1,3.042,8.355,8.355,0,0,0-.91.9,2.525,2.525,0,0,1-3.356.444l-4.485-3.266-1.25,4.807v0a1.7,1.7,0,0,0,.4,1.379l4.518,4.394a4.828,4.828,0,0,1,1.3,2.882,27.7,27.7,0,0,0,.36,3.185A2.549,2.549,0,0,1,244,63.26l-2.9.941a.388.388,0,0,0-.232.192.336.336,0,0,0-.012.282l2.8,7.022a1.249,1.249,0,0,0,.992.651l3.5.055a3.894,3.894,0,0,1,2.994,1.633c.7,1.095,1.452,2.163,2.246,3.171a4.477,4.477,0,0,1,.867,3.039l-.667,4.768a1.855,1.855,0,0,0,.556,1.382l5.093,4.3,1.5-3.69A2.148,2.148,0,0,1,262,85.788a2.475,2.475,0,0,1,1.891.082,17.15,17.15,0,0,0,2.057.773,4.477,4.477,0,0,1,2.564,2.069l2.984,6.227a.973.973,0,0,0,.912.462l3.677-.53.195-.282-2.015-6.3a3.006,3.006,0,0,1,1-3.041,8.583,8.583,0,0,0,.91-.905,2.564,2.564,0,0,1,1.935-.89,2.468,2.468,0,0,1,1.42.446m-20.651-7.453h0c-5.819-4.847-9.293-13.631-7.742-19.584a6.965,6.965,0,0,1,4.752-5.292c2.884-.832,6.413.26,9.681,2.98,5.822,4.842,9.3,13.629,7.744,19.583a6.965,6.965,0,0,1-4.752,5.293,7.2,7.2,0,0,1-1.987.272,12.451,12.451,0,0,1-7.7-3.252m-2.391-23.091a5.064,5.064,0,0,0-3.388,3.945c-1.393,5.356,1.806,13.32,7.132,17.756,2.724,2.27,5.548,3.216,7.732,2.584A5.06,5.06,0,0,0,271.35,73.7c1.4-5.358-1.8-13.321-7.134-17.754a10.4,10.4,0,0,0-6.325-2.775,5.064,5.064,0,0,0-1.405.189" transform="translate(55.16 4.771)" fill="#27debf"/>
      </g>
    </g>
    <g id="Grupo_973058" data-name="Grupo 973058">
      <g id="Grupo_973057" data-name="Grupo 973057" clip-path="url(#clip-path)">
        <path id="Trazado_697408" data-name="Trazado 697408" d="M198.885,57.691,174.541,43.518l-3.491,8.126a1.42,1.42,0,0,1-2.672-.166L164.321,37.57l-6.013-3.5a7.235,7.235,0,0,1-3.282-5.734V2.762A2.7,2.7,0,0,1,156.2.285a2.65,2.65,0,0,1,2.718.209L199.5,24.116a7.232,7.232,0,0,1,3.284,5.732V55.423A2.7,2.7,0,0,1,201.6,57.9a2.12,2.12,0,0,1-1.081.285,3.289,3.289,0,0,1-1.637-.5M158.308,1.566a1.538,1.538,0,0,0-1.491-.21,1.565,1.565,0,0,0-.565,1.406V28.337A6.061,6.061,0,0,0,158.922,33l6.438,3.747,4.195,14.385a.184.184,0,0,0,.175.142.174.174,0,0,0,.195-.12l4.037-9.4L199.5,56.62a1.531,1.531,0,0,0,1.491.21,1.566,1.566,0,0,0,.565-1.407V29.848a6.059,6.059,0,0,0-2.67-4.661Z" transform="translate(36.061 0)" fill="#27debf"/>
        <path id="Trazado_697409" data-name="Trazado 697409" d="M191.107,30.54a.611.611,0,0,0,.531-.309.621.621,0,0,0-.224-.845L163.5,13.134a.611.611,0,0,0-.837.227.621.621,0,0,0,.224.845L190.8,30.457a.61.61,0,0,0,.307.083" transform="translate(37.817 1.846)" fill="#27debf"/>
        <path id="Trazado_697410" data-name="Trazado 697410" d="M191.107,35.315a.611.611,0,0,0,.531-.309.621.621,0,0,0-.224-.845L163.5,17.909a.611.611,0,0,0-.837.227.621.621,0,0,0,.224.845L190.8,35.232a.6.6,0,0,0,.307.083" transform="translate(37.817 2.522)" fill="#27debf"/>
        <path id="Trazado_697411" data-name="Trazado 697411" d="M191.107,40.089a.608.608,0,0,0,.531-.309.621.621,0,0,0-.224-.845L163.5,22.683a.613.613,0,0,0-.837.226.621.621,0,0,0,.224.846L190.8,40.006a.61.61,0,0,0,.307.083" transform="translate(37.817 3.197)" fill="#27debf"/>
        <path id="Trazado_697412" data-name="Trazado 697412" d="M47.054,37.729,57.074,43.1l-3.98,8.286a.858.858,0,0,1-.381.394c-.475.25-3.286,1.758-3.441,1.841a.946.946,0,0,1-1.345-.5L43.6,39.574Z" transform="translate(10.143 5.337)" fill="#27debf"/>
        <g id="Grupo_973041" data-name="Grupo 973041" transform="translate(53.748 43.066)" opacity="0.2">
          <g id="Grupo_973040" data-name="Grupo 973040">
            <g id="Grupo_973039" data-name="Grupo 973039" clip-path="url(#clip-path-35)">
              <path id="Trazado_697413" data-name="Trazado 697413" d="M47.054,37.729,57.074,43.1l-3.98,8.286a.858.858,0,0,1-.381.394c-.475.25-3.286,1.758-3.441,1.841a.946.946,0,0,1-1.345-.5L43.6,39.574Z" transform="translate(-43.605 -37.729)"/>
            </g>
          </g>
        </g>
        <path id="Trazado_697414" data-name="Trazado 697414" d="M53.626,44.717,49.646,53a.944.944,0,0,1-1.718-.1L43.606,39.344Z" transform="translate(10.143 5.566)" fill="#27debf"/>
        <path id="Trazado_697415" data-name="Trazado 697415" d="M36.118,8.558l41.4,22.132a1.922,1.922,0,0,1,.95,1.525v23.72a1.9,1.9,0,0,1-.955,1.515l-3.4,1.767a2.277,2.277,0,0,1-1.906-.008L30.8,37.077a1.922,1.922,0,0,1-.95-1.525V11.832a1.9,1.9,0,0,1,.955-1.515l3.4-1.768a2.282,2.282,0,0,1,1.906.009" transform="translate(6.944 1.181)" fill="#27debf"/>
        <path id="Trazado_697416" data-name="Trazado 697416" d="M73.151,58.345V34.626A1.92,1.92,0,0,0,72.2,33.1L30.8,10.969c-.526-.28-.95-.053-.95.508V35.2a1.918,1.918,0,0,0,.95,1.525L72.2,58.853c.525.281.95.054.95-.508" transform="translate(6.944 1.535)" fill="#27debf"/>
        <g id="Grupo_973044" data-name="Grupo 973044" transform="translate(79.145 32.496)" opacity="0.2">
          <g id="Grupo_973043" data-name="Grupo 973043">
            <g id="Grupo_973042" data-name="Grupo 973042" clip-path="url(#clip-path-36)">
              <path id="Trazado_697417" data-name="Trazado 697417" d="M64.21,56.361a2.337,2.337,0,0,0,1.907.01l3.4-1.77a1.892,1.892,0,0,0,.957-1.511V29.368a1.717,1.717,0,0,0-.3-.9l-5.294,2.8a1.645,1.645,0,0,1,.281.865V55.851c0,.516-.391.81-.95.51" transform="translate(-64.21 -28.469)"/>
            </g>
          </g>
        </g>
        <g id="Grupo_973047" data-name="Grupo 973047" transform="translate(36.81 9.524)" opacity="0.4">
          <g id="Grupo_973046" data-name="Grupo 973046">
            <g id="Grupo_973045" data-name="Grupo 973045" clip-path="url(#clip-path-37)">
              <path id="Trazado_697418" data-name="Trazado 697418" d="M29.864,11.673c.075-.443.465-.6.939-.349L72.2,33.456a1.879,1.879,0,0,1,.671.659l5.3-2.8a1.825,1.825,0,0,0-.655-.626L36.115,8.556a2.279,2.279,0,0,0-1.9-.008l-3.4,1.767a1.931,1.931,0,0,0-.944,1.357" transform="translate(-29.864 -8.344)" fill="#fff"/>
            </g>
          </g>
        </g>
        <path id="Trazado_697419" data-name="Trazado 697419" d="M64.126,41.757a.611.611,0,0,0,.531-.309.621.621,0,0,0-.224-.845L36.515,24.351a.611.611,0,0,0-.837.227.621.621,0,0,0,.224.845L63.819,41.674a.61.61,0,0,0,.307.083" transform="translate(8.28 3.433)" fill="#fff"/>
        <path id="Trazado_697420" data-name="Trazado 697420" d="M295.6,250.624,305.62,256l-3.98,8.286a.852.852,0,0,1-.381.394c-.475.25-3.286,1.758-3.441,1.841a.946.946,0,0,1-1.345-.5l-4.322-13.554Z" transform="translate(67.958 35.455)" fill="#27debf"/>
        <g id="Grupo_973050" data-name="Grupo 973050" transform="translate(360.108 286.079)" opacity="0.2">
          <g id="Grupo_973049" data-name="Grupo 973049">
            <g id="Grupo_973048" data-name="Grupo 973048" clip-path="url(#clip-path-38)">
              <path id="Trazado_697421" data-name="Trazado 697421" d="M295.6,250.624,305.62,256l-3.98,8.286a.852.852,0,0,1-.381.394c-.475.25-3.286,1.758-3.441,1.841a.946.946,0,0,1-1.345-.5l-4.322-13.554Z" transform="translate(-292.151 -250.624)"/>
            </g>
          </g>
        </g>
        <path id="Trazado_697422" data-name="Trazado 697422" d="M302.172,257.612l-3.98,8.285a.944.944,0,0,1-1.718-.1l-4.322-13.553Z" transform="translate(67.958 35.684)" fill="#27debf"/>
        <path id="Trazado_697423" data-name="Trazado 697423" d="M284.664,221.453l41.4,22.132a1.922,1.922,0,0,1,.95,1.525v23.72a1.9,1.9,0,0,1-.955,1.515l-3.4,1.767a2.278,2.278,0,0,1-1.906-.008l-41.4-22.132a1.922,1.922,0,0,1-.95-1.525v-23.72a1.9,1.9,0,0,1,.955-1.515l3.4-1.768a2.282,2.282,0,0,1,1.906.009" transform="translate(64.759 31.298)" fill="#27debf"/>
        <path id="Trazado_697424" data-name="Trazado 697424" d="M321.7,271.241v-23.72a1.919,1.919,0,0,0-.95-1.524l-41.4-22.133c-.525-.28-.95-.053-.95.508v23.72a1.922,1.922,0,0,0,.95,1.525l41.4,22.132c.525.281.95.054.95-.508" transform="translate(64.759 31.653)" fill="#27debf"/>
        <g id="Grupo_973053" data-name="Grupo 973053" transform="translate(385.505 275.509)" opacity="0.2">
          <g id="Grupo_973052" data-name="Grupo 973052">
            <g id="Grupo_973051" data-name="Grupo 973051" clip-path="url(#clip-path-39)">
              <path id="Trazado_697425" data-name="Trazado 697425" d="M312.755,269.257a2.333,2.333,0,0,0,1.907.01l3.4-1.77a1.893,1.893,0,0,0,.957-1.512V242.263a1.713,1.713,0,0,0-.3-.9l-5.294,2.8a1.655,1.655,0,0,1,.281.866v23.717c0,.515-.391.81-.95.51" transform="translate(-312.755 -241.364)"/>
            </g>
          </g>
        </g>
        <g id="Grupo_973056" data-name="Grupo 973056" transform="translate(343.171 252.537)" opacity="0.4">
          <g id="Grupo_973055" data-name="Grupo 973055">
            <g id="Grupo_973054" data-name="Grupo 973054" clip-path="url(#clip-path-40)">
              <path id="Trazado_697426" data-name="Trazado 697426" d="M278.409,224.568c.074-.443.465-.6.939-.349l41.394,22.133a1.872,1.872,0,0,1,.672.659l5.3-2.8a1.816,1.816,0,0,0-.655-.626l-41.4-22.134a2.275,2.275,0,0,0-1.9-.008l-3.4,1.767a1.931,1.931,0,0,0-.944,1.357" transform="translate(-278.41 -221.239)" fill="#fff"/>
            </g>
          </g>
        </g>
        <path id="Trazado_697427" data-name="Trazado 697427" d="M312.672,254.652a.612.612,0,0,0,.531-.309.621.621,0,0,0-.226-.845l-27.917-16.252a.612.612,0,0,0-.838.227.621.621,0,0,0,.224.845l27.917,16.251a.611.611,0,0,0,.308.083" transform="translate(66.094 33.551)" fill="#fff"/>
      </g>
    </g>
    <g id="Grupo_973060" data-name="Grupo 973060">
      <g id="Grupo_973059" data-name="Grupo 973059" clip-path="url(#clip-path)">
        <path id="Trazado_697428" data-name="Trazado 697428" d="M80.95,120.762a11.723,11.723,0,0,1-2.569,9.458,17.239,17.239,0,0,1-13.23,12.763,15.242,15.242,0,0,1,1.678-29.037c3.492-.961,7.642-.57,10.168,1.962Z" transform="translate(12.864 16.052)" fill="#fbab87"/>
        <path id="Trazado_697429" data-name="Trazado 697429" d="M70.874,113.477a13.3,13.3,0,0,0-4.045.468,15.242,15.242,0,0,0-1.678,29.038,16.6,16.6,0,0,0,1.808-.486c-2.209-10.018-2.412-20.932,3.915-29.02" transform="translate(12.864 16.052)" fill="#f08667"/>
        <path id="Trazado_697430" data-name="Trazado 697430" d="M44.125,145.8c-.68-.711-.042-1.8.572-2.566,4.959-6.16,8.542-12.94,9.767-20.54a68.022,68.022,0,0,0,15.466,3.57A156.1,156.1,0,0,0,65.2,151.6l-19.978-5.292a2.3,2.3,0,0,1-1.1-.514" transform="translate(10.196 17.357)" fill="#fbab87"/>
        <path id="Trazado_697431" data-name="Trazado 697431" d="M86.405,121.124a8.307,8.307,0,0,0,5.861-6.2,9.952,9.952,0,0,1-6.56.813,2.225,2.225,0,0,0,1.683-.675,14.239,14.239,0,0,1-7.1-2.831c-2.094-1.446-3.994-3.138-6.2-4.437a11.563,11.563,0,0,0-7.41-1.812,8.2,8.2,0,0,0-.924.218,13.17,13.17,0,0,0-4.477.237c-4.991,1.2-8.53,5.6-9.653,10.264s-1.685,10.133-.329,14.739c5.08,2.233,12.522,2.063,17.912.583.749-.207,1.48-.462,2.2-.74a17.091,17.091,0,0,0,.6-2.834,5.519,5.519,0,0,1,1.361-3.076,2.79,2.79,0,0,1,3.291-.533,2.415,2.415,0,0,1,1.007,1.919,4.334,4.334,0,0,1-.075.993A22.763,22.763,0,0,0,80.529,125a10.683,10.683,0,0,0,9.4-4.235,10.5,10.5,0,0,1-3.528.356" transform="translate(11.748 14.981)" fill="#342b6e"/>
        <path id="Trazado_697432" data-name="Trazado 697432" d="M71.129,126.188a3.888,3.888,0,0,1,.716-.579,1.521,1.521,0,0,0,.505-1.732,1.412,1.412,0,0,0-1.686-.734,1.613,1.613,0,0,0-.958,1.508,5.2,5.2,0,0,0,.439,1.928.878.878,0,0,0-.982-.014.728.728,0,0,0-.256.879,2.575,2.575,0,0,0,.445.55.638.638,0,0,1,.181.637,3.859,3.859,0,0,1-.25.35c-.07.126-.049.32.1.357a.343.343,0,0,0,.264-.082,2.828,2.828,0,0,0,1.193-1.867,2.511,2.511,0,0,1,.292-1.2" transform="translate(16.015 17.411)" fill="#f08667"/>
        <path id="Trazado_697433" data-name="Trazado 697433" d="M69.532,112.293c.609.326.528,1.192.985,1.686.53.573,1.5.427,2.311.435A6.239,6.239,0,0,1,76.8,116.1a16.709,16.709,0,0,1,2.667,3.318q.784-1.149,1.57-2.3l-16.009-8.631q.4,1.825.8,3.652a1.267,1.267,0,0,0,.263.626c.41.435,1.18.2,1.71-.105s1.189-.659,1.729-.37" transform="translate(15.127 15.348)" fill="#0070b8"/>
        <path id="Trazado_697434" data-name="Trazado 697434" d="M23.756,344.58a13.577,13.577,0,0,0-4.664-1.009,9.72,9.72,0,0,1-3.842-1.187,3.13,3.13,0,0,1-1.855-3.268A24.207,24.207,0,0,1,3.748,336.1c.007,2.46-1.712,4.658-2.441,7.023a5.28,5.28,0,0,0-.118,1.93,8.753,8.753,0,0,0,.332,4.814A17.36,17.36,0,0,0,11.6,351.717a8.137,8.137,0,0,1,.407-1.544,12.259,12.259,0,0,1,4.907-.386c1.83.282,2.484.6,3.662.484a8.146,8.146,0,0,0,2.484-.928,4.209,4.209,0,0,0,2.31-2.3c.338-1.282-.378-1.8-1.612-2.462" transform="translate(0.232 47.548)" fill="#002543"/>
        <path id="Trazado_697435" data-name="Trazado 697435" d="M12.276,341.018a42.361,42.361,0,0,0-8.346-2.962,6.232,6.232,0,0,0-.913,1.689,2.028,2.028,0,0,0,.253,1.818,2.951,2.951,0,0,0,1.683.9,9.018,9.018,0,0,0,7.324-1.447" transform="translate(0.677 47.824)" fill="#e8eaec"/>
        <path id="Trazado_697436" data-name="Trazado 697436" d="M7.993,328.766c-1.336,3.16-3.154,14.478-4.937,18.542-1.379,3.144-2.741,4.81-.687,7.62s8.526,5.866,11.864,4.467c9.309-22.268,20.327-43.915,29-66.4s15.014-46.088,14.484-69.961L15.867,210.742C2.782,239.7,11.424,248.3,12.656,269.5s3.7,39.5-4.663,59.267" transform="translate(0.307 29.813)" fill="#0070b8"/>
        <path id="Trazado_697437" data-name="Trazado 697437" d="M56.223,222.626l-30.7-9.015c-13.931,28.856-1.136,61.072-3.82,90.9A189.749,189.749,0,0,1,7.748,358.834a7.732,7.732,0,0,0,4.99.154c9.309-22.268,20.327-43.915,29-66.4S56.754,246.5,56.223,222.626" transform="translate(1.802 30.219)" fill="#00619f"/>
        <path id="Trazado_697438" data-name="Trazado 697438" d="M22.721,213.35l31.714,9.314c.531,23.873-5.809,47.474-14.483,69.961-5.661,14.676-12.317,29-18.849,43.362,1.086-5.3,1.627-10.682,2.533-15.718,8.39-36.9-21.275-71.952-.915-106.919" transform="translate(3.59 30.182)" fill="#002543"/>
        <path id="Trazado_697439" data-name="Trazado 697439" d="M59.861,355.844a5.113,5.113,0,0,0-4.037-2.472,34.187,34.187,0,0,0-5.049.007c-6.638.058-13.12-3.117-19.676-2.16-.017,2.62-.452,5.247-.137,7.852a11.115,11.115,0,0,0,.28,1.428,27.3,27.3,0,0,0,.547,3.971,4.464,4.464,0,0,0,.712,1.968,4.351,4.351,0,0,0,2.45,1.328A13.936,13.936,0,0,0,45.578,366.1a2.585,2.585,0,0,0,.931-.856,1.88,1.88,0,0,0,.2-.842,30,30,0,0,1,3.033-1.019,24.087,24.087,0,0,0,5.6-1.939c2.2-1.079,5.5-3.478,4.516-5.6" transform="translate(7.176 49.66)" fill="#002543"/>
        <path id="Trazado_697440" data-name="Trazado 697440" d="M46.969,354.72a1.065,1.065,0,0,1,1.287.744,1.471,1.471,0,0,1-.576,1.417,4.138,4.138,0,0,1-1.519.708,25.79,25.79,0,0,1-7.434.788,13.322,13.322,0,0,1-4.426-.595,4.633,4.633,0,0,1-3.014-2.881,2.772,2.772,0,0,1,1.858-3.351Z" transform="translate(7.257 49.733)" fill="#e8eaec"/>
        <path id="Trazado_697441" data-name="Trazado 697441" d="M15.592,216.487l.833-8.714c12.94,5.482,27.776,11.4,41.841,13.4,0,28.483,2.961,52.76,2.045,78.89-.852,24.28-5.427,50.44-9.236,75.963-6.262,1.422-10.65,1.8-16.375-2.019-.309-21.577-1.68-38.342-.309-47.866,1.366-9.481-3.528-32.906-6.582-42.165-9.554-28.956-18.7-33.358-12.216-67.486" transform="translate(3.12 29.393)" fill="#0070b8"/>
        <path id="Trazado_697442" data-name="Trazado 697442" d="M44.1,296.293c-2.563-26.1-15.7-54.379-8.1-80.835-6.765-2.345-13.389-5.062-19.576-7.684l-.834,8.714c-6.481,34.128,2.662,38.53,12.216,67.487,3.054,9.258,7.948,32.682,6.583,42.163-1.372,9.526,0,26.289.308,47.866a16.467,16.467,0,0,0,7.513,2.924c2.351-26.773,4.14-53.518,1.888-80.635" transform="translate(3.12 29.393)" fill="#00619f"/>
        <path id="Trazado_697443" data-name="Trazado 697443" d="M41.327,372.58c10.407-48.085,6.819-98.305,1.976-145.424l1.061-.142c3.912,47.907,7.936,97.334-2.27,145.313-.387.073-.381.176-.767.252" transform="translate(9.613 32.115)" fill="#00b4e7"/>
        <path id="Trazado_697444" data-name="Trazado 697444" d="M38.79,140.759c-4.776-.789-9.478,2.6-11.285,6.768s-1.336,8.871-.422,13.284C29.622,173.054,35.36,184.628,43,194.892a54.116,54.116,0,0,0,10.494,11.08c10.4,7.88,24.413,9.976,37.709,11.791q1.958-3.977,3.915-7.956A79.839,79.839,0,0,1,60.16,176.3c-5.244-9.863-8.116-20.637-10.951-31.312Z" transform="translate(6.112 19.897)" fill="#002543"/>
        <path id="Trazado_697445" data-name="Trazado 697445" d="M100.513,224.605H73.791L84.73,183.319h26.722Z" transform="translate(17.165 25.934)" fill="#002543"/>
        <path id="Trazado_697446" data-name="Trazado 697446" d="M98.722,218.147H76.18l9.229-34.828h22.542Z" transform="translate(17.72 25.934)" fill="#fff"/>
        <path id="Trazado_697447" data-name="Trazado 697447" d="M85.274,183.319l-8.515,32.137c7.233-7.85,15.515-13.734,26.235-13.935l4.822-18.2Z" transform="translate(17.855 25.934)" fill="#c3d4de"/>
        <path id="Trazado_697448" data-name="Trazado 697448" d="M38,141.176a17,17,0,0,0,6.89-7.333c10.841.581,21.142,6.713,26.215,15.6l-13.4-4.7c-5.627-1.974-11.421-3.976-17.438-3.892Z" transform="translate(8.839 18.934)" fill="#342b6e"/>
        <path id="Trazado_697449" data-name="Trazado 697449" d="M66.417,248.968c.39-4.091-1.447-13.064-.668-26.819.351-11.086.9-6.928,1.172-10.351.661-8.368,3.586-11.154,8.059-18.452,3.406-5.558,8.625-14.945,12.174-20.425s5.4-12.677,1.843-18.155c-2.192-3.38-6.041-5.5-9.829-7.3a128.723,128.723,0,0,0-17.363-6.751c-6.681-2.057-14.556-3.436-20.336.288a41.978,41.978,0,0,0-10.856,10.936c-13.221,20.433-11.45,27.87-18.288,63.174C11.764,218.011,1.549,238.07,0,244.448a92.691,92.691,0,0,0,10.151,3.033A102.949,102.949,0,0,1,17.636,223.3c0,9.556-2.93,16.187-2.331,25.266,16.376,3.034,33.786,2.353,51.111.4" transform="translate(0 19.617)" fill="#342b6e"/>
        <path id="Trazado_697450" data-name="Trazado 697450" d="M40.833,141.1a94.092,94.092,0,0,1,22.011,4.166,42.553,42.553,0,0,0-21.171-6.244,3.238,3.238,0,0,0-1.67.266.979.979,0,0,0-.454,1.357,1.707,1.707,0,0,0,1.284.454" transform="translate(9.167 19.667)" fill="#262168"/>
        <path id="Trazado_697451" data-name="Trazado 697451" d="M39.457,139.758a19,19,0,0,0-10.8,8.1l10.8-8.1" transform="translate(6.665 19.771)" fill="#00619f"/>
        <path id="Trazado_697452" data-name="Trazado 697452" d="M67.658,151.126l-5.973,7.616a11.931,11.931,0,0,1,5.973-7.616" transform="translate(14.349 21.379)" fill="#00619f"/>
        <path id="Trazado_697453" data-name="Trazado 697453" d="M46.948,247.7q4.465-.372,8.934-.877c.39-4.091-1.446-13.063-.668-26.818.353-11.087.9-6.929,1.172-10.351.661-8.369,3.586-11.156,8.059-18.453,3.407-5.557,8.625-14.945,12.174-20.424,3.3-5.088,5.115-11.652,2.518-16.95C42.792,171.722,43.208,211.3,46.948,247.7" transform="translate(10.535 21.762)" fill="#262168"/>
        <path id="Trazado_697454" data-name="Trazado 697454" d="M88.064,157.926a29.981,29.981,0,0,1,6.635-2.461,13.138,13.138,0,0,1-1.507-6.929c.085-1.363.312-2.932-.721-3.906a4.726,4.726,0,0,0-2.227-.941l-5.56-1.285c-1.835-.425-2.379.107-3.37-1.386-.39-.587-2.06-2.359-2.533-2.891s-1.738-2.84-2.958-1.791c-.56.481.715,2.769,1.016,3.418l2.311,4.975c.616,1.325,1.011,2.226-.145,3.193-.412.345-1.368.362-1.83.646s-.314,1.79-.129,2.275a1.579,1.579,0,0,0,.706.679l10.314,6.4" transform="translate(17.604 19.249)" fill="#fbab87"/>
        <path id="Trazado_697455" data-name="Trazado 697455" d="M94.824,153.734q-1.087-1.875-2.173-3.75a12.937,12.937,0,0,0-8.621,2.964,1.6,1.6,0,0,0-.722,1.178,1.638,1.638,0,0,0,.258.684l2.814,5.041a16.075,16.075,0,0,1,9.012-4.707Z" transform="translate(19.378 21.217)" fill="#92abdb"/>
        <path id="Trazado_697456" data-name="Trazado 697456" d="M106.341,203.8a8.429,8.429,0,0,0,4.946-5.314c1.591-4.3.926-9.074-.616-13.392s-3.917-8.335-5.824-12.526c-2.6-5.707-4.335-11.749-7.35-17.277-.648-1.188-1.363-2.511-2.678-3.048-1.655-.675-3.7.129-5.745.371-1.422.168-2.69,1.524-4.1,2.108a1.924,1.924,0,0,0-1.16,2.278,177.853,177.853,0,0,1,5.057,24.242c.561,4.413.982,8.908,2.709,13.054s5,7.986,9.561,9.379a8.7,8.7,0,0,0,5.2.123" transform="translate(19.48 21.501)" fill="#342b6e"/>
        <path id="Trazado_697457" data-name="Trazado 697457" d="M84.972,154.581a1.924,1.924,0,0,0-1.161,2.278A177.656,177.656,0,0,1,88.87,181.1c.561,4.414.981,8.908,2.709,13.054s5,7.987,9.56,9.381c.081.024.166.037.248.059C100.22,186.142,95,168.9,87.6,153.017a25.828,25.828,0,0,1-2.629,1.564" transform="translate(19.48 21.647)" fill="#262168"/>
        <path id="Trazado_697458" data-name="Trazado 697458" d="M60.371,166.845A22.5,22.5,0,0,1,70.3,151.988a5.474,5.474,0,0,1,3.727-1.167,5.674,5.674,0,0,1,2.735,1.595c10.013,8.9,17.54,19.976,27.59,28.839,2.75,2.426,5.7,4.695,8,7.495s3.925,6.27,3.531,9.768a8.327,8.327,0,0,1-7.006,7.3c-2.9.322-5.688-1.059-8.09-2.6-4.271-2.735-8.024-6.094-11.951-9.241A140.143,140.143,0,0,0,68.3,180.329c-2.275-1.241-4.663-2.482-6.2-4.465-1.977-2.542-2.242-5.923-1.726-9.019" transform="translate(13.99 21.33)" fill="#342b6e"/>
        <path id="Trazado_697459" data-name="Trazado 697459" d="M98.058,179.186a16.38,16.38,0,0,1,6.242,13.062,10.053,10.053,0,0,0-.414-7.641,11.251,11.251,0,0,0-5.828-5.421" transform="translate(22.809 25.349)" fill="#00619f"/>
        <path id="Trazado_697460" data-name="Trazado 697460" d="M105.763,200.432c-11.72-16.277-32.293-22.529-45.19-36.366-.064.3-.152.6-.2.9-.515,3.1-.251,6.477,1.726,9.019,1.543,1.984,3.93,3.225,6.2,4.465A140.13,140.13,0,0,1,88.836,192.1c3.927,3.146,7.679,6.505,11.951,9.241,2.179,1.4,4.681,2.648,7.295,2.628-.785-1.144-1.564-2.317-2.319-3.54" transform="translate(13.99 23.21)" fill="#262168"/>
        <path id="Trazado_697461" data-name="Trazado 697461" d="M14.922,216.687A141.53,141.53,0,0,1,35.6,149.655a126.736,126.736,0,0,0-20.673,67.032" transform="translate(3.471 21.171)" fill="#262168"/>
      </g>
    </g>
  </g>
</svg>
