<svg xmlns="http://www.w3.org/2000/svg" width="105" height="105" viewBox="0 0 105 105">
  <g id="Grupo_974717" data-name="Grupo 974717" transform="translate(-265 -3481)">
    <circle id="Elipse_5148" data-name="Elipse 5148" cx="52.5" cy="52.5" r="52.5" transform="translate(265 3481)" fill="#ad84ff"/>
    <g id="Grupo_973843" data-name="Grupo 973843" transform="translate(296 3502)">
      <path id="Trazado_704685" data-name="Trazado 704685" d="M235.862,34.154a4.6,4.6,0,0,1,4.6-4.6H242.2q7.528,0,7.529-7.369a6.372,6.372,0,0,0-1.792-4.68,6.8,6.8,0,0,0-5.059-1.813,7.276,7.276,0,0,0-4.64,1.553,5.411,5.411,0,0,0-1.373,1.547,4.6,4.6,0,0,1-3.988,2.317h-4.3a4.6,4.6,0,0,1-4.065-6.764,14.07,14.07,0,0,1,.879-1.4,16.827,16.827,0,0,1,7.07-5.6,24.184,24.184,0,0,1,9.938-2.012q9.68,0,15.217,4.422T263.148,21.9a12.253,12.253,0,0,1-2.29,7.071,13.9,13.9,0,0,1-1.517,1.837,4.568,4.568,0,0,0,.2,6.629,14.06,14.06,0,0,1,1.895,2.01,13.378,13.378,0,0,1,2.629,8.425A14.964,14.964,0,0,1,258.089,60.3q-5.975,4.661-15.694,4.661a25.714,25.714,0,0,1-10.576-2.171,16.569,16.569,0,0,1-7.389-6.015,15.239,15.239,0,0,1-1.249-2.33,4.6,4.6,0,0,1,4.234-6.414h4.46a4.5,4.5,0,0,1,4.1,2.508,6.716,6.716,0,0,0,1.6,2.113,7.594,7.594,0,0,0,5.3,1.952,7.956,7.956,0,0,0,5.656-1.972A6.59,6.59,0,0,0,250.64,47.6q0-4.382-2.191-6.214a9.165,9.165,0,0,0-6.055-1.833h-1.932a4.6,4.6,0,0,1-4.6-4.6Z" transform="translate(-221.126 -2.312)" fill="#7125c8"/>
      <path id="Trazado_704689" data-name="Trazado 704689" d="M232.9,28.82a4.6,4.6,0,0,1,4.6-4.6h1.733q7.528,0,7.529-7.369a6.372,6.372,0,0,0-1.792-4.68,6.8,6.8,0,0,0-5.059-1.813,7.276,7.276,0,0,0-4.64,1.553,5.411,5.411,0,0,0-1.373,1.547,4.6,4.6,0,0,1-3.988,2.317h-4.3a4.6,4.6,0,0,1-4.065-6.764,14.07,14.07,0,0,1,.879-1.4,16.827,16.827,0,0,1,7.07-5.6A24.184,24.184,0,0,1,239.431,0q9.68,0,15.217,4.422t5.537,12.149a12.254,12.254,0,0,1-2.29,7.071,13.892,13.892,0,0,1-1.517,1.837,4.568,4.568,0,0,0,.2,6.629,14.061,14.061,0,0,1,1.9,2.01,13.378,13.378,0,0,1,2.629,8.425,14.964,14.964,0,0,1-5.975,12.428q-5.975,4.661-15.694,4.661a25.714,25.714,0,0,1-10.576-2.171,16.569,16.569,0,0,1-7.389-6.015,15.239,15.239,0,0,1-1.249-2.33,4.6,4.6,0,0,1,4.234-6.414h4.46a4.5,4.5,0,0,1,4.1,2.508,6.716,6.716,0,0,0,1.6,2.113,7.594,7.594,0,0,0,5.3,1.952,7.956,7.956,0,0,0,5.656-1.972,6.59,6.59,0,0,0,2.111-5.039q0-4.382-2.191-6.214a9.165,9.165,0,0,0-6.055-1.833H237.5a4.6,4.6,0,0,1-4.6-4.6Z" transform="translate(-219.841 0)" fill="#dee9f0" stroke="#ece3ff" stroke-width="1"/>
    </g>
  </g>
</svg>
