<svg xmlns="http://www.w3.org/2000/svg" width="1162.736" height="616.475" viewBox="0 0 1162.736 616.475">
  <g id="infografia_datos" data-name="infografia datos" transform="translate(-65.44 -234.779)">
    <g id="Grupo_972589" data-name="Grupo 972589" transform="translate(104.625 235.876)">
      <path id="Trazado_696858" data-name="Trazado 696858" d="M1211.567,851.09c-59.949,0-959.925.215-960.432-1.35l-.085-.2a1.056,1.056,0,0,1-.085-.292c-.332-.781-173.3-70.451-59.285-226.294,59.756-81.674-46.922-206.717,80.086-317.052,199.024-172.9,388.956,40.063,469.464,0,67.669-33.675,176.416-81.934,286.8-38.659,30.329,11.892,96.011,71.532,41.467,171.831-27.252,50.116,93.678,55.934,137.918,109.181C1303.752,664.223,1247.414,851.09,1211.567,851.09Z" transform="translate(-152.793 -237.224)" fill="#ebf3fa"/>
    </g>
    <g id="Grupo_972604" data-name="Grupo 972604" transform="translate(865.547 234.779)">
      <g id="Grupo_972590" data-name="Grupo 972590" transform="translate(0 8.298)">
        <path id="Trazado_696859" data-name="Trazado 696859" d="M1994.76,253.279l-145.2,8.093a.535.535,0,0,0-.5.561l10.6,190.138a.535.535,0,0,0,.561.5l144.992-8.079a.538.538,0,0,0,.5-.561L1995.1,253.588A.32.32,0,0,0,1994.76,253.279Z" transform="translate(-1849.058 -253.278)" fill="#233862"/>
      </g>
      <g id="Grupo_972591" data-name="Grupo 972591" transform="translate(4.846 13.001)">
        <path id="Trazado_696860" data-name="Trazado 696860" d="M2000.452,444.263l-122.989,7.716a6.7,6.7,0,0,1-7.1-6.262L1859.874,278.6a6.7,6.7,0,0,1,6.262-7.1l122.989-7.72a6.7,6.7,0,0,1,7.1,6.262l10.488,167.116A6.7,6.7,0,0,1,2000.452,444.263Z" transform="translate(-1859.86 -263.761)" fill="#ebf3fa"/>
      </g>
      <g id="Grupo_972602" data-name="Grupo 972602" transform="translate(19.33 38.516)">
        <g id="Grupo_972592" data-name="Grupo 972592">
          <path id="Trazado_696861" data-name="Trazado 696861" d="M1969.715,322.716l-77.368,4.854a.071.071,0,0,1-.077-.067l-.121-1.933a.071.071,0,0,1,.067-.076l77.367-4.854a.071.071,0,0,1,.076.067l.121,1.933A.073.073,0,0,1,1969.715,322.716Z" transform="translate(-1892.149 -320.639)" fill="#bdd1f9"/>
        </g>
        <g id="Grupo_972593" data-name="Grupo 972593" transform="translate(1.045 16.612)">
          <path id="Trazado_696862" data-name="Trazado 696862" d="M1972.044,359.747l-77.368,4.854a.071.071,0,0,1-.076-.067l-.121-1.933a.071.071,0,0,1,.067-.076l77.368-4.854a.074.074,0,0,1,.076.067l.121,1.933A.077.077,0,0,1,1972.044,359.747Z" transform="translate(-1894.479 -357.67)" fill="#bdd1f9"/>
        </g>
        <g id="Grupo_972594" data-name="Grupo 972594" transform="translate(0.52 6.451)">
          <path id="Trazado_696863" data-name="Trazado 696863" d="M2000.437,337.1l-106.93,6.711a.071.071,0,0,1-.076-.067l-.121-1.933a.071.071,0,0,1,.067-.076l106.929-6.711a.071.071,0,0,1,.076.067l.121,1.933A.071.071,0,0,1,2000.437,337.1Z" transform="translate(-1893.309 -335.019)" fill="#bdd1f9"/>
        </g>
        <g id="Grupo_972595" data-name="Grupo 972595" transform="translate(7.084 69.419)">
          <path id="Trazado_696864" data-name="Trazado 696864" d="M1960.775,477.467l-52.651,3.306c-.022-.018-.036-.031-.058-.049l-.126-1.969c.018-.022.031-.036.049-.058l52.651-3.306c.022.018.036.031.058.049l.126,1.969C1960.806,477.431,1960.792,477.445,1960.775,477.467Z" transform="translate(-1907.94 -475.39)" fill="#bdd1f9"/>
        </g>
        <g id="Grupo_972596" data-name="Grupo 972596" transform="translate(6.568 59.851)">
          <path id="Trazado_696865" data-name="Trazado 696865" d="M1979.739,456.137l-72.77,4.567c-.022-.018-.036-.031-.059-.049l-.121-1.969c.018-.022.031-.036.049-.058l72.77-4.567c.022.018.036.031.058.049l.121,1.969C1979.771,456.1,1979.757,456.115,1979.739,456.137Z" transform="translate(-1906.79 -454.06)" fill="#bdd1f9"/>
        </g>
        <g id="Grupo_972597" data-name="Grupo 972597" transform="translate(7.307 77.134)">
          <path id="Trazado_696866" data-name="Trazado 696866" d="M1986,494.667l-77.367,4.854a.071.071,0,0,1-.077-.067l-.121-1.933a.071.071,0,0,1,.067-.076l77.368-4.854a.071.071,0,0,1,.076.067l.121,1.933A.077.077,0,0,1,1986,494.667Z" transform="translate(-1908.439 -492.589)" fill="#bdd1f9"/>
        </g>
        <g id="Grupo_972598" data-name="Grupo 972598" transform="translate(7.828 84.895)">
          <path id="Trazado_696867" data-name="Trazado 696867" d="M1995.827,511.967l-86.043,5.4a.8.8,0,0,0-.063-.054l-.121-1.96a.727.727,0,0,0,.053-.063l86.043-5.4a.789.789,0,0,0,.063.054l.125,1.96A.715.715,0,0,0,1995.827,511.967Z" transform="translate(-1909.6 -509.89)" fill="#bdd1f9"/>
        </g>
        <g id="Grupo_972599" data-name="Grupo 972599" transform="translate(9.214 101.372)">
          <path id="Trazado_696868" data-name="Trazado 696868" d="M1968.252,548.7l-55.378,3.477a.737.737,0,0,1-.058-.054l-.125-1.965a.614.614,0,0,1,.054-.058l55.382-3.477c.023.018.036.031.059.049l.125,1.969A.726.726,0,0,0,1968.252,548.7Z" transform="translate(-1912.69 -546.62)" fill="#bdd1f9"/>
        </g>
        <g id="Grupo_972600" data-name="Grupo 972600" transform="translate(10.255 117.992)">
          <path id="Trazado_696869" data-name="Trazado 696869" d="M1970.572,585.742l-55.382,3.477c-.022-.018-.036-.031-.058-.049l-.121-1.965a.594.594,0,0,1,.054-.058l55.378-3.477c.022.018.036.031.058.049l.126,1.969A.315.315,0,0,0,1970.572,585.742Z" transform="translate(-1915.01 -583.67)" fill="#bdd1f9"/>
        </g>
        <g id="Grupo_972601" data-name="Grupo 972601" transform="translate(9.735 108.352)">
          <path id="Trazado_696870" data-name="Trazado 696870" d="M1990.576,564.257l-76.542,4.8a.65.65,0,0,1-.058-.054l-.125-1.965c.018-.022.031-.036.049-.058l76.542-4.8c.023.018.036.031.059.049l.121,1.969A.474.474,0,0,1,1990.576,564.257Z" transform="translate(-1913.85 -562.18)" fill="#bdd1f9"/>
        </g>
      </g>
      <g id="Grupo_972603" data-name="Grupo 972603" transform="translate(30.754)">
        <path id="Trazado_696871" data-name="Trazado 696871" d="M1993.007,234.793l-67.714,3.773c-4.464.251-7.9,3.813-7.666,7.958l.57,10.232a1.811,1.811,0,0,0,1.965,1.633l80.144-4.468a1.807,1.807,0,0,0,1.772-1.839l-.57-10.232A7.823,7.823,0,0,0,1993.007,234.793Z" transform="translate(-1917.616 -234.779)" fill="#eda411"/>
      </g>
    </g>
    <g id="Grupo_972607" data-name="Grupo 972607" transform="translate(760.133 292.505)" opacity="0.5">
      <g id="Grupo_972605" data-name="Grupo 972605" transform="translate(0 5.108)" opacity="0.5">
        <path id="Trazado_696872" data-name="Trazado 696872" d="M1615.787,513.064s-9.887-78.314,17.764-133.419a8.765,8.765,0,0,1,16.36,2.037c.032.135.058.269.09.4C1652.877,395.777,1623.516,463.886,1615.787,513.064Z" transform="translate(-1614.069 -374.85)" fill="#aec3ff"/>
      </g>
      <g id="Grupo_972606" data-name="Grupo 972606" transform="translate(2.41 0)" opacity="0.5">
        <path id="Trazado_696873" data-name="Trazado 696873" d="M1619.44,529.74s15.126-104.74,70.971-163.321a9.3,9.3,0,0,1,12.812-.74c2.4,2.131,4.2,5.948,3.781,12.713C1705.892,396.429,1645.952,471.154,1619.44,529.74Z" transform="translate(-1619.44 -363.464)" fill="#aec3ff"/>
      </g>
    </g>
    <g id="Grupo_972690" data-name="Grupo 972690" transform="translate(217.457 349.093)" opacity="0.4">
      <g id="Grupo_972620" data-name="Grupo 972620" transform="translate(19.805 24.282)">
        <g id="Grupo_972608" data-name="Grupo 972608">
          <path id="Trazado_696874" data-name="Trazado 696874" d="M454.643,719.083h38.726a6.172,6.172,0,0,0,6.173-6.173v-163a6.172,6.172,0,0,0-6.173-6.173H454.643a6.172,6.172,0,0,0-6.173,6.173v163A6.172,6.172,0,0,0,454.643,719.083Z" transform="translate(-448.47 -543.74)" fill="#8c9df4"/>
        </g>
        <g id="Grupo_972609" data-name="Grupo 972609" transform="translate(13.57 125.559)">
          <path id="Trazado_696875" data-name="Trazado 696875" d="M502.657,835.608a11.968,11.968,0,1,0-11.968,11.968A11.968,11.968,0,0,0,502.657,835.608Z" transform="translate(-478.72 -823.64)" fill="#505aba"/>
        </g>
        <g id="Grupo_972610" data-name="Grupo 972610" transform="translate(12.296 124.357)">
          <path id="Trazado_696876" data-name="Trazado 696876" d="M489.118,847.436A13.238,13.238,0,1,1,502.356,834.2,13.254,13.254,0,0,1,489.118,847.436Zm0-23.941a10.7,10.7,0,1,0,10.7,10.7A10.713,10.713,0,0,0,489.118,823.494Z" transform="translate(-475.88 -820.96)" fill="#fff"/>
        </g>
        <g id="Grupo_972611" data-name="Grupo 972611" transform="translate(10.573 8.03)">
          <path id="Trazado_696877" data-name="Trazado 696877" d="M474.319,660.195h25.35a2.279,2.279,0,0,0,2.279-2.279v-94a2.279,2.279,0,0,0-2.279-2.279h-25.35a2.279,2.279,0,0,0-2.279,2.279v94A2.279,2.279,0,0,0,474.319,660.195Z" transform="translate(-472.04 -561.64)" fill="#aec3ff"/>
        </g>
        <g id="Grupo_972612" data-name="Grupo 972612" transform="translate(14.077 11.592)">
          <path id="Trazado_696878" data-name="Trazado 696878" d="M481.667,573.537h18.661a1.818,1.818,0,0,0,1.817-1.817V571.4a1.815,1.815,0,0,0-1.817-1.817H481.667a1.818,1.818,0,0,0-1.817,1.817v.323A1.821,1.821,0,0,0,481.667,573.537Z" transform="translate(-479.85 -569.58)" fill="#f99746"/>
        </g>
        <g id="Grupo_972619" data-name="Grupo 972619" transform="translate(18.015 32.724)">
          <g id="Grupo_972613" data-name="Grupo 972613" transform="translate(11.336 40.871)">
            <path id="Trazado_696879" data-name="Trazado 696879" d="M513.9,708.787V729.1a.987.987,0,0,0,.987.987h0a.987.987,0,0,0,.987-.987V708.787a.987.987,0,0,0-.987-.987h0A.981.981,0,0,0,513.9,708.787Z" transform="translate(-513.9 -707.8)" fill="#505aba"/>
          </g>
          <g id="Grupo_972614" data-name="Grupo 972614" transform="translate(11.336 12.919)">
            <path id="Trazado_696880" data-name="Trazado 696880" d="M513.9,646.477v20.316a.987.987,0,0,0,.987.987h0a.987.987,0,0,0,.987-.987V646.477a.987.987,0,0,0-.987-.987h0A.987.987,0,0,0,513.9,646.477Z" transform="translate(-513.9 -645.49)" fill="#505aba"/>
          </g>
          <g id="Grupo_972615" data-name="Grupo 972615" transform="translate(0 40.871)">
            <path id="Trazado_696881" data-name="Trazado 696881" d="M488.63,708.787V729.1a.987.987,0,0,0,.987.987h0a.987.987,0,0,0,.987-.987V708.787a.987.987,0,0,0-.987-.987h0A.984.984,0,0,0,488.63,708.787Z" transform="translate(-488.63 -707.8)" fill="#505aba"/>
          </g>
          <g id="Grupo_972616" data-name="Grupo 972616" transform="translate(0 12.919)">
            <path id="Trazado_696882" data-name="Trazado 696882" d="M488.63,646.477v20.316a.987.987,0,0,0,.987.987h0a.987.987,0,0,0,.987-.987V646.477a.987.987,0,0,0-.987-.987h0A.99.99,0,0,0,488.63,646.477Z" transform="translate(-488.63 -645.49)" fill="#505aba"/>
          </g>
          <g id="Grupo_972617" data-name="Grupo 972617" transform="translate(5.899 35.138)">
            <path id="Trazado_696883" data-name="Trazado 696883" d="M501.78,696.007v26.049a.987.987,0,0,0,.987.987h0a.987.987,0,0,0,.987-.987V696.007a.987.987,0,0,0-.987-.987h0A.981.981,0,0,0,501.78,696.007Z" transform="translate(-501.78 -695.02)" fill="#505aba"/>
          </g>
          <g id="Grupo_972618" data-name="Grupo 972618" transform="translate(5.899)">
            <path id="Trazado_696884" data-name="Trazado 696884" d="M501.78,617.677v26.049a.987.987,0,0,0,.987.987h0a.987.987,0,0,0,.987-.987V617.677a.987.987,0,0,0-.987-.987h0A.984.984,0,0,0,501.78,617.677Z" transform="translate(-501.78 -616.69)" fill="#505aba"/>
          </g>
        </g>
      </g>
      <g id="Grupo_972633" data-name="Grupo 972633" transform="translate(83.495 24.282)">
        <g id="Grupo_972621" data-name="Grupo 972621">
          <path id="Trazado_696885" data-name="Trazado 696885" d="M596.623,719.083h38.731a6.172,6.172,0,0,0,6.173-6.173v-163a6.172,6.172,0,0,0-6.173-6.173H596.623a6.172,6.172,0,0,0-6.173,6.173v163A6.172,6.172,0,0,0,596.623,719.083Z" transform="translate(-590.45 -543.74)" fill="#8c9df4"/>
        </g>
        <g id="Grupo_972622" data-name="Grupo 972622" transform="translate(13.57 125.559)">
          <path id="Trazado_696886" data-name="Trazado 696886" d="M644.637,835.608a11.968,11.968,0,1,0-11.968,11.968A11.968,11.968,0,0,0,644.637,835.608Z" transform="translate(-620.7 -823.64)" fill="#505aba"/>
        </g>
        <g id="Grupo_972623" data-name="Grupo 972623" transform="translate(12.3 124.357)">
          <path id="Trazado_696887" data-name="Trazado 696887" d="M631.108,847.436A13.238,13.238,0,1,1,644.345,834.2,13.254,13.254,0,0,1,631.108,847.436Zm0-23.941a10.7,10.7,0,1,0,10.7,10.7A10.713,10.713,0,0,0,631.108,823.494Z" transform="translate(-617.87 -820.96)" fill="#fff"/>
        </g>
        <g id="Grupo_972624" data-name="Grupo 972624" transform="translate(10.573 8.03)">
          <path id="Trazado_696888" data-name="Trazado 696888" d="M616.3,660.195h25.35a2.279,2.279,0,0,0,2.279-2.279v-94a2.279,2.279,0,0,0-2.279-2.279H616.3a2.279,2.279,0,0,0-2.279,2.279v94A2.279,2.279,0,0,0,616.3,660.195Z" transform="translate(-614.02 -561.64)" fill="#aec3ff"/>
        </g>
        <g id="Grupo_972625" data-name="Grupo 972625" transform="translate(14.077 11.592)">
          <path id="Trazado_696889" data-name="Trazado 696889" d="M623.647,573.537h18.661a1.815,1.815,0,0,0,1.817-1.817V571.4a1.815,1.815,0,0,0-1.817-1.817H623.647a1.815,1.815,0,0,0-1.817,1.817v.323A1.821,1.821,0,0,0,623.647,573.537Z" transform="translate(-621.83 -569.58)" fill="#f99746"/>
        </g>
        <g id="Grupo_972632" data-name="Grupo 972632" transform="translate(18.015 32.724)">
          <g id="Grupo_972626" data-name="Grupo 972626" transform="translate(11.336 40.871)">
            <path id="Trazado_696890" data-name="Trazado 696890" d="M655.88,708.787V729.1a.987.987,0,0,0,.987.987h0a.987.987,0,0,0,.987-.987V708.787a.987.987,0,0,0-.987-.987h0A.981.981,0,0,0,655.88,708.787Z" transform="translate(-655.88 -707.8)" fill="#505aba"/>
          </g>
          <g id="Grupo_972627" data-name="Grupo 972627" transform="translate(11.336 12.919)">
            <path id="Trazado_696891" data-name="Trazado 696891" d="M655.88,646.477v20.316a.987.987,0,0,0,.987.987h0a.987.987,0,0,0,.987-.987V646.477a.987.987,0,0,0-.987-.987h0A.987.987,0,0,0,655.88,646.477Z" transform="translate(-655.88 -645.49)" fill="#505aba"/>
          </g>
          <g id="Grupo_972628" data-name="Grupo 972628" transform="translate(0 40.871)">
            <path id="Trazado_696892" data-name="Trazado 696892" d="M630.61,708.787V729.1a.987.987,0,0,0,.987.987h0a.987.987,0,0,0,.987-.987V708.787a.987.987,0,0,0-.987-.987h0A.984.984,0,0,0,630.61,708.787Z" transform="translate(-630.61 -707.8)" fill="#505aba"/>
          </g>
          <g id="Grupo_972629" data-name="Grupo 972629" transform="translate(0 12.919)">
            <path id="Trazado_696893" data-name="Trazado 696893" d="M630.61,646.477v20.316a.987.987,0,0,0,.987.987h0a.987.987,0,0,0,.987-.987V646.477a.987.987,0,0,0-.987-.987h0A.99.99,0,0,0,630.61,646.477Z" transform="translate(-630.61 -645.49)" fill="#505aba"/>
          </g>
          <g id="Grupo_972630" data-name="Grupo 972630" transform="translate(5.899 35.138)">
            <path id="Trazado_696894" data-name="Trazado 696894" d="M643.76,696.007v26.049a.987.987,0,0,0,.987.987h0a.987.987,0,0,0,.987-.987V696.007a.987.987,0,0,0-.987-.987h0A.984.984,0,0,0,643.76,696.007Z" transform="translate(-643.76 -695.02)" fill="#505aba"/>
          </g>
          <g id="Grupo_972631" data-name="Grupo 972631" transform="translate(5.899)">
            <path id="Trazado_696895" data-name="Trazado 696895" d="M643.76,617.677v26.049a.987.987,0,0,0,.987.987h0a.987.987,0,0,0,.987-.987V617.677a.987.987,0,0,0-.987-.987h0A.987.987,0,0,0,643.76,617.677Z" transform="translate(-643.76 -616.69)" fill="#505aba"/>
          </g>
        </g>
      </g>
      <g id="Grupo_972646" data-name="Grupo 972646" transform="translate(148.401 24.282)">
        <g id="Grupo_972634" data-name="Grupo 972634">
          <path id="Trazado_696896" data-name="Trazado 696896" d="M741.313,719.083h38.731a6.172,6.172,0,0,0,6.172-6.173v-163a6.172,6.172,0,0,0-6.172-6.173H741.313a6.172,6.172,0,0,0-6.173,6.173v163A6.172,6.172,0,0,0,741.313,719.083Z" transform="translate(-735.14 -543.74)" fill="#8c9df4"/>
        </g>
        <g id="Grupo_972635" data-name="Grupo 972635" transform="translate(13.57 125.559)">
          <path id="Trazado_696897" data-name="Trazado 696897" d="M789.327,835.608a11.968,11.968,0,1,0-11.968,11.968A11.968,11.968,0,0,0,789.327,835.608Z" transform="translate(-765.39 -823.64)" fill="#505aba"/>
        </g>
        <g id="Grupo_972636" data-name="Grupo 972636" transform="translate(12.3 124.357)">
          <path id="Trazado_696898" data-name="Trazado 696898" d="M775.8,847.436A13.238,13.238,0,1,1,789.036,834.2,13.254,13.254,0,0,1,775.8,847.436Zm0-23.941a10.7,10.7,0,1,0,10.7,10.7A10.713,10.713,0,0,0,775.8,823.494Z" transform="translate(-762.56 -820.96)" fill="#fff"/>
        </g>
        <g id="Grupo_972637" data-name="Grupo 972637" transform="translate(10.578 8.03)">
          <path id="Trazado_696899" data-name="Trazado 696899" d="M761,660.195h25.35a2.279,2.279,0,0,0,2.279-2.279v-94a2.279,2.279,0,0,0-2.279-2.279H761a2.279,2.279,0,0,0-2.279,2.279v94A2.276,2.276,0,0,0,761,660.195Z" transform="translate(-758.72 -561.64)" fill="#aec3ff"/>
        </g>
        <g id="Grupo_972638" data-name="Grupo 972638" transform="translate(14.081 11.592)">
          <path id="Trazado_696900" data-name="Trazado 696900" d="M768.347,573.537h18.661a1.818,1.818,0,0,0,1.817-1.817V571.4a1.815,1.815,0,0,0-1.817-1.817H768.347a1.815,1.815,0,0,0-1.817,1.817v.323A1.815,1.815,0,0,0,768.347,573.537Z" transform="translate(-766.53 -569.58)" fill="#f99746"/>
        </g>
        <g id="Grupo_972645" data-name="Grupo 972645" transform="translate(18.015 32.724)">
          <g id="Grupo_972639" data-name="Grupo 972639" transform="translate(11.336 40.871)">
            <path id="Trazado_696901" data-name="Trazado 696901" d="M800.57,708.787V729.1a.987.987,0,0,0,.987.987h0a.987.987,0,0,0,.987-.987V708.787a.987.987,0,0,0-.987-.987h0A.984.984,0,0,0,800.57,708.787Z" transform="translate(-800.57 -707.8)" fill="#505aba"/>
          </g>
          <g id="Grupo_972640" data-name="Grupo 972640" transform="translate(11.336 12.919)">
            <path id="Trazado_696902" data-name="Trazado 696902" d="M800.57,646.477v20.316a.987.987,0,0,0,.987.987h0a.987.987,0,0,0,.987-.987V646.477a.987.987,0,0,0-.987-.987h0A.99.99,0,0,0,800.57,646.477Z" transform="translate(-800.57 -645.49)" fill="#505aba"/>
          </g>
          <g id="Grupo_972641" data-name="Grupo 972641" transform="translate(0 40.871)">
            <path id="Trazado_696903" data-name="Trazado 696903" d="M775.3,708.787V729.1a.987.987,0,0,0,.987.987h0a.987.987,0,0,0,.987-.987V708.787a.987.987,0,0,0-.987-.987h0A.984.984,0,0,0,775.3,708.787Z" transform="translate(-775.3 -707.8)" fill="#505aba"/>
          </g>
          <g id="Grupo_972642" data-name="Grupo 972642" transform="translate(0 12.919)">
            <path id="Trazado_696904" data-name="Trazado 696904" d="M775.3,646.477v20.316a.987.987,0,0,0,.987.987h0a.987.987,0,0,0,.987-.987V646.477a.987.987,0,0,0-.987-.987h0A.99.99,0,0,0,775.3,646.477Z" transform="translate(-775.3 -645.49)" fill="#505aba"/>
          </g>
          <g id="Grupo_972643" data-name="Grupo 972643" transform="translate(5.899 35.138)">
            <path id="Trazado_696905" data-name="Trazado 696905" d="M788.45,696.007v26.049a.987.987,0,0,0,.987.987h0a.987.987,0,0,0,.987-.987V696.007a.987.987,0,0,0-.987-.987h0A.984.984,0,0,0,788.45,696.007Z" transform="translate(-788.45 -695.02)" fill="#505aba"/>
          </g>
          <g id="Grupo_972644" data-name="Grupo 972644" transform="translate(5.899)">
            <path id="Trazado_696906" data-name="Trazado 696906" d="M788.45,617.677v26.049a.987.987,0,0,0,.987.987h0a.987.987,0,0,0,.987-.987V617.677a.987.987,0,0,0-.987-.987h0A.987.987,0,0,0,788.45,617.677Z" transform="translate(-788.45 -616.69)" fill="#505aba"/>
          </g>
        </g>
      </g>
      <g id="Grupo_972650" data-name="Grupo 972650" transform="translate(215.245 24.282)">
        <g id="Grupo_972647" data-name="Grupo 972647">
          <path id="Trazado_696907" data-name="Trazado 696907" d="M890.323,719.083h38.731a6.168,6.168,0,0,0,6.168-6.173v-163a6.171,6.171,0,0,0-6.168-6.173H890.323a6.172,6.172,0,0,0-6.172,6.173v163A6.172,6.172,0,0,0,890.323,719.083Z" transform="translate(-884.15 -543.74)" fill="#8c9df4"/>
        </g>
        <g id="Grupo_972648" data-name="Grupo 972648" transform="translate(10.573 8.03)">
          <path id="Trazado_696908" data-name="Trazado 696908" d="M910,660.195h25.35a2.279,2.279,0,0,0,2.279-2.279v-94a2.279,2.279,0,0,0-2.279-2.279H910a2.279,2.279,0,0,0-2.279,2.279v94A2.279,2.279,0,0,0,910,660.195Z" transform="translate(-907.72 -561.64)" fill="#aec3ff"/>
        </g>
        <g id="Grupo_972649" data-name="Grupo 972649" transform="translate(14.077 11.592)">
          <path id="Trazado_696909" data-name="Trazado 696909" d="M917.347,573.537h18.661a1.815,1.815,0,0,0,1.817-1.817V571.4a1.815,1.815,0,0,0-1.817-1.817H917.347a1.815,1.815,0,0,0-1.817,1.817v.323A1.821,1.821,0,0,0,917.347,573.537Z" transform="translate(-915.53 -569.58)" fill="#f99746"/>
        </g>
      </g>
      <g id="Grupo_972654" data-name="Grupo 972654" transform="translate(279.752 24.282)">
        <g id="Grupo_972651" data-name="Grupo 972651">
          <path id="Trazado_696910" data-name="Trazado 696910" d="M1034.123,719.083h38.726a6.172,6.172,0,0,0,6.173-6.173v-163a6.172,6.172,0,0,0-6.173-6.173h-38.726a6.172,6.172,0,0,0-6.173,6.173v163A6.172,6.172,0,0,0,1034.123,719.083Z" transform="translate(-1027.95 -543.74)" fill="#8c9df4"/>
        </g>
        <g id="Grupo_972652" data-name="Grupo 972652" transform="translate(10.578 8.03)">
          <path id="Trazado_696911" data-name="Trazado 696911" d="M1053.809,660.195h25.35a2.279,2.279,0,0,0,2.279-2.279v-94a2.276,2.276,0,0,0-2.279-2.279h-25.35a2.279,2.279,0,0,0-2.279,2.279v94A2.274,2.274,0,0,0,1053.809,660.195Z" transform="translate(-1051.53 -561.64)" fill="#aec3ff"/>
        </g>
        <g id="Grupo_972653" data-name="Grupo 972653" transform="translate(14.077 11.592)">
          <path id="Trazado_696912" data-name="Trazado 696912" d="M1061.147,573.537h18.661a1.818,1.818,0,0,0,1.817-1.817V571.4a1.815,1.815,0,0,0-1.817-1.817h-18.661a1.815,1.815,0,0,0-1.817,1.817v.323A1.821,1.821,0,0,0,1061.147,573.537Z" transform="translate(-1059.33 -569.58)" fill="#f99746"/>
        </g>
      </g>
      <g id="Grupo_972667" data-name="Grupo 972667" transform="translate(19.805 222.611)">
        <g id="Grupo_972655" data-name="Grupo 972655">
          <path id="Trazado_696913" data-name="Trazado 696913" d="M454.643,1161.194h38.726a6.172,6.172,0,0,0,6.173-6.172V992.028a6.168,6.168,0,0,0-6.173-6.168H454.643a6.171,6.171,0,0,0-6.173,6.168v163A6.168,6.168,0,0,0,454.643,1161.194Z" transform="translate(-448.47 -985.86)" fill="#8c9df4"/>
        </g>
        <g id="Grupo_972656" data-name="Grupo 972656" transform="translate(13.565 125.55)">
          <circle id="Elipse_4895" data-name="Elipse 4895" cx="11.968" cy="11.968" r="11.968" fill="#505aba"/>
        </g>
        <g id="Grupo_972657" data-name="Grupo 972657" transform="translate(12.296 124.348)">
          <path id="Trazado_696914" data-name="Trazado 696914" d="M489.118,1289.536a13.238,13.238,0,1,1,13.238-13.238A13.254,13.254,0,0,1,489.118,1289.536Zm0-23.937a10.7,10.7,0,1,0,10.7,10.7A10.713,10.713,0,0,0,489.118,1265.6Z" transform="translate(-475.88 -1263.06)" fill="#fff"/>
        </g>
        <g id="Grupo_972658" data-name="Grupo 972658" transform="translate(10.573 8.025)">
          <path id="Trazado_696915" data-name="Trazado 696915" d="M474.319,1102.3h25.35a2.279,2.279,0,0,0,2.279-2.279v-94a2.279,2.279,0,0,0-2.279-2.279h-25.35a2.279,2.279,0,0,0-2.279,2.279v94A2.282,2.282,0,0,0,474.319,1102.3Z" transform="translate(-472.04 -1003.75)" fill="#aec3ff"/>
        </g>
        <g id="Grupo_972659" data-name="Grupo 972659" transform="translate(14.077 11.583)">
          <path id="Trazado_696916" data-name="Trazado 696916" d="M481.667,1015.637h18.661a1.818,1.818,0,0,0,1.817-1.817v-.323a1.815,1.815,0,0,0-1.817-1.817H481.667a1.818,1.818,0,0,0-1.817,1.817v.323A1.821,1.821,0,0,0,481.667,1015.637Z" transform="translate(-479.85 -1011.68)" fill="#f99746"/>
        </g>
        <g id="Grupo_972666" data-name="Grupo 972666" transform="translate(18.015 32.72)">
          <g id="Grupo_972660" data-name="Grupo 972660" transform="translate(11.336 40.871)">
            <path id="Trazado_696917" data-name="Trazado 696917" d="M513.9,1150.9v20.317a.987.987,0,0,0,.987.987h0a.987.987,0,0,0,.987-.987V1150.9a.987.987,0,0,0-.987-.987h0A.981.981,0,0,0,513.9,1150.9Z" transform="translate(-513.9 -1149.91)" fill="#505aba"/>
          </g>
          <g id="Grupo_972661" data-name="Grupo 972661" transform="translate(11.336 12.919)">
            <path id="Trazado_696918" data-name="Trazado 696918" d="M513.9,1088.587V1108.9a.987.987,0,0,0,.987.987h0a.987.987,0,0,0,.987-.987v-20.317a.987.987,0,0,0-.987-.987h0A.984.984,0,0,0,513.9,1088.587Z" transform="translate(-513.9 -1087.6)" fill="#505aba"/>
          </g>
          <g id="Grupo_972662" data-name="Grupo 972662" transform="translate(0 40.871)">
            <path id="Trazado_696919" data-name="Trazado 696919" d="M488.63,1150.9v20.317a.987.987,0,0,0,.987.987h0a.987.987,0,0,0,.987-.987V1150.9a.987.987,0,0,0-.987-.987h0A.984.984,0,0,0,488.63,1150.9Z" transform="translate(-488.63 -1149.91)" fill="#505aba"/>
          </g>
          <g id="Grupo_972663" data-name="Grupo 972663" transform="translate(0 12.919)">
            <path id="Trazado_696920" data-name="Trazado 696920" d="M488.63,1088.587V1108.9a.987.987,0,0,0,.987.987h0a.987.987,0,0,0,.987-.987v-20.317a.987.987,0,0,0-.987-.987h0A.987.987,0,0,0,488.63,1088.587Z" transform="translate(-488.63 -1087.6)" fill="#505aba"/>
          </g>
          <g id="Grupo_972664" data-name="Grupo 972664" transform="translate(5.899 35.138)">
            <path id="Trazado_696921" data-name="Trazado 696921" d="M501.78,1138.117v26.049a.987.987,0,0,0,.987.987h0a.987.987,0,0,0,.987-.987v-26.049a.987.987,0,0,0-.987-.987h0A.981.981,0,0,0,501.78,1138.117Z" transform="translate(-501.78 -1137.13)" fill="#505aba"/>
          </g>
          <g id="Grupo_972665" data-name="Grupo 972665" transform="translate(5.899)">
            <path id="Trazado_696922" data-name="Trazado 696922" d="M501.78,1059.787v26.049a.987.987,0,0,0,.987.987h0a.987.987,0,0,0,.987-.987v-26.049a.987.987,0,0,0-.987-.987h0A.981.981,0,0,0,501.78,1059.787Z" transform="translate(-501.78 -1058.8)" fill="#505aba"/>
          </g>
        </g>
      </g>
      <g id="Grupo_972680" data-name="Grupo 972680" transform="translate(83.495 222.611)">
        <g id="Grupo_972668" data-name="Grupo 972668">
          <path id="Trazado_696923" data-name="Trazado 696923" d="M596.623,1161.194h38.731a6.172,6.172,0,0,0,6.173-6.172V992.028a6.168,6.168,0,0,0-6.173-6.168H596.623a6.171,6.171,0,0,0-6.173,6.168v163A6.168,6.168,0,0,0,596.623,1161.194Z" transform="translate(-590.45 -985.86)" fill="#8c9df4"/>
        </g>
        <g id="Grupo_972669" data-name="Grupo 972669" transform="translate(13.57 125.55)">
          <path id="Trazado_696924" data-name="Trazado 696924" d="M644.637,1277.708a11.968,11.968,0,1,0-11.968,11.968A11.968,11.968,0,0,0,644.637,1277.708Z" transform="translate(-620.7 -1265.74)" fill="#505aba"/>
        </g>
        <g id="Grupo_972670" data-name="Grupo 972670" transform="translate(12.3 124.348)">
          <path id="Trazado_696925" data-name="Trazado 696925" d="M631.108,1289.536a13.238,13.238,0,1,1,13.238-13.238A13.254,13.254,0,0,1,631.108,1289.536Zm0-23.937a10.7,10.7,0,1,0,10.7,10.7A10.713,10.713,0,0,0,631.108,1265.6Z" transform="translate(-617.87 -1263.06)" fill="#fff"/>
        </g>
        <g id="Grupo_972671" data-name="Grupo 972671" transform="translate(10.573 8.025)">
          <path id="Trazado_696926" data-name="Trazado 696926" d="M616.3,1102.3h25.35a2.279,2.279,0,0,0,2.279-2.279v-94a2.279,2.279,0,0,0-2.279-2.279H616.3a2.279,2.279,0,0,0-2.279,2.279v94A2.282,2.282,0,0,0,616.3,1102.3Z" transform="translate(-614.02 -1003.75)" fill="#aec3ff"/>
        </g>
        <g id="Grupo_972672" data-name="Grupo 972672" transform="translate(14.077 11.583)">
          <path id="Trazado_696927" data-name="Trazado 696927" d="M623.647,1015.637h18.661a1.815,1.815,0,0,0,1.817-1.817v-.323a1.815,1.815,0,0,0-1.817-1.817H623.647a1.815,1.815,0,0,0-1.817,1.817v.323A1.821,1.821,0,0,0,623.647,1015.637Z" transform="translate(-621.83 -1011.68)" fill="#f99746"/>
        </g>
        <g id="Grupo_972679" data-name="Grupo 972679" transform="translate(18.015 32.72)">
          <g id="Grupo_972673" data-name="Grupo 972673" transform="translate(11.336 40.871)">
            <path id="Trazado_696928" data-name="Trazado 696928" d="M655.88,1150.9v20.317a.987.987,0,0,0,.987.987h0a.987.987,0,0,0,.987-.987V1150.9a.987.987,0,0,0-.987-.987h0A.981.981,0,0,0,655.88,1150.9Z" transform="translate(-655.88 -1149.91)" fill="#505aba"/>
          </g>
          <g id="Grupo_972674" data-name="Grupo 972674" transform="translate(11.336 12.919)">
            <path id="Trazado_696929" data-name="Trazado 696929" d="M655.88,1088.587V1108.9a.987.987,0,0,0,.987.987h0a.987.987,0,0,0,.987-.987v-20.317a.987.987,0,0,0-.987-.987h0A.984.984,0,0,0,655.88,1088.587Z" transform="translate(-655.88 -1087.6)" fill="#505aba"/>
          </g>
          <g id="Grupo_972675" data-name="Grupo 972675" transform="translate(0 40.871)">
            <path id="Trazado_696930" data-name="Trazado 696930" d="M630.61,1150.9v20.317a.987.987,0,0,0,.987.987h0a.987.987,0,0,0,.987-.987V1150.9a.987.987,0,0,0-.987-.987h0A.984.984,0,0,0,630.61,1150.9Z" transform="translate(-630.61 -1149.91)" fill="#505aba"/>
          </g>
          <g id="Grupo_972676" data-name="Grupo 972676" transform="translate(0 12.919)">
            <path id="Trazado_696931" data-name="Trazado 696931" d="M630.61,1088.587V1108.9a.987.987,0,0,0,.987.987h0a.987.987,0,0,0,.987-.987v-20.317a.987.987,0,0,0-.987-.987h0A.987.987,0,0,0,630.61,1088.587Z" transform="translate(-630.61 -1087.6)" fill="#505aba"/>
          </g>
          <g id="Grupo_972677" data-name="Grupo 972677" transform="translate(5.899 35.138)">
            <path id="Trazado_696932" data-name="Trazado 696932" d="M643.76,1138.117v26.049a.987.987,0,0,0,.987.987h0a.987.987,0,0,0,.987-.987v-26.049a.987.987,0,0,0-.987-.987h0A.984.984,0,0,0,643.76,1138.117Z" transform="translate(-643.76 -1137.13)" fill="#505aba"/>
          </g>
          <g id="Grupo_972678" data-name="Grupo 972678" transform="translate(5.899)">
            <path id="Trazado_696933" data-name="Trazado 696933" d="M643.76,1059.787v26.049a.987.987,0,0,0,.987.987h0a.987.987,0,0,0,.987-.987v-26.049a.987.987,0,0,0-.987-.987h0A.984.984,0,0,0,643.76,1059.787Z" transform="translate(-643.76 -1058.8)" fill="#505aba"/>
          </g>
        </g>
      </g>
      <g id="Grupo_972682" data-name="Grupo 972682" transform="translate(148.401 222.611)">
        <g id="Grupo_972681" data-name="Grupo 972681">
          <path id="Trazado_696934" data-name="Trazado 696934" d="M741.313,1161.194h38.731a6.172,6.172,0,0,0,6.172-6.172V992.028a6.168,6.168,0,0,0-6.172-6.168H741.313a6.171,6.171,0,0,0-6.173,6.168v163A6.168,6.168,0,0,0,741.313,1161.194Z" transform="translate(-735.14 -985.86)" fill="#8c9df4"/>
        </g>
      </g>
      <g id="Grupo_972684" data-name="Grupo 972684" transform="translate(215.245 222.611)">
        <g id="Grupo_972683" data-name="Grupo 972683">
          <path id="Trazado_696935" data-name="Trazado 696935" d="M890.323,1161.194h38.731a6.168,6.168,0,0,0,6.168-6.172V992.028a6.168,6.168,0,0,0-6.168-6.168H890.323a6.171,6.171,0,0,0-6.172,6.168v163A6.168,6.168,0,0,0,890.323,1161.194Z" transform="translate(-884.15 -985.86)" fill="#8c9df4"/>
        </g>
      </g>
      <g id="Grupo_972686" data-name="Grupo 972686" transform="translate(279.752 222.611)">
        <g id="Grupo_972685" data-name="Grupo 972685">
          <path id="Trazado_696936" data-name="Trazado 696936" d="M1034.123,1161.194h38.726a6.172,6.172,0,0,0,6.173-6.172V992.028a6.168,6.168,0,0,0-6.173-6.168h-38.726a6.171,6.171,0,0,0-6.173,6.168v163A6.168,6.168,0,0,0,1034.123,1161.194Z" transform="translate(-1027.95 -985.86)" fill="#8c9df4"/>
        </g>
      </g>
      <g id="Grupo_972687" data-name="Grupo 972687">
        <path id="Trazado_696937" data-name="Trazado 696937" d="M410.461,990.273h0a6.142,6.142,0,0,1-6.141-6.141V495.751a6.142,6.142,0,0,1,6.141-6.141h0a6.142,6.142,0,0,1,6.141,6.141V984.132A6.142,6.142,0,0,1,410.461,990.273Z" transform="translate(-404.32 -489.61)" fill="#bdd1f9"/>
      </g>
      <g id="Grupo_972688" data-name="Grupo 972688" transform="translate(0.001 199.647)">
        <rect id="Rectángulo_339110" data-name="Rectángulo 339110" width="354.76" height="4.93" transform="translate(354.76 4.93) rotate(180)" fill="#bdd1f9"/>
      </g>
      <g id="Grupo_972689" data-name="Grupo 972689" transform="translate(0.004 397.87)">
        <rect id="Rectángulo_339111" data-name="Rectángulo 339111" width="376.786" height="4.93" transform="translate(376.786 4.93) rotate(180)" fill="#bdd1f9"/>
      </g>
    </g>
    <g id="Grupo_972691" data-name="Grupo 972691" transform="translate(846.178 515.384)">
      <path id="Trazado_696938" data-name="Trazado 696938" d="M1931.1,863.186s-33.729,29.279-27.893,35.218,35.232-35.335,35.232-35.335,44.164,9.945,55.75,21.1c0,0-46.447,17.89-39.328,22.209s56.311-12.049,56.311-12.049,37.6,19.895,27.471,43.5-26.323,26.579-32.141,23.95-36.667-27.723-39.063-23.035,13.525,27.839,28.148,33.492c0,0-38.282,21.72-54,6.635s-12.646-29.777-22.528-38.924-19.819-12.4-16.8-5.4,22.34,19.2,25.116,33.164,6.132,23.865-12.219,14.6-45.088-33.729-41.135-50.363c.17-.727.336-1.417.493-2.081a8.111,8.111,0,0,0-.493,2.081c-4.257-.61-15.041,4.033-22.995,7.85-1.27.718-3.113,1.637-5.7,2.822h0c-1.121.574-2.037,1.045-2.669,1.382-16.593,9.519-32.688,35.9-32.688,35.9l-4.091-1.767c11.717-30.154,40.6-39.677,40.6-39.677,21-9.052,31.5-23.138,31.5-23.138s-16.894-41.046,15.548-52.9C1893.516,862.4,1916.071,857.21,1931.1,863.186Z" transform="translate(-1805.88 -860.31)" fill="#d2e2f9"/>
    </g>
    <g id="Grupo_972697" data-name="Grupo 972697" transform="translate(1023.612 665.99)">
      <g id="Grupo_972692" data-name="Grupo 972692" transform="translate(69.956)">
        <rect id="Rectángulo_339112" data-name="Rectángulo 339112" width="29.01" height="93.584" transform="translate(29.01 93.584) rotate(180)" fill="#35488b"/>
      </g>
      <g id="Grupo_972693" data-name="Grupo 972693" transform="translate(0)">
        <rect id="Rectángulo_339113" data-name="Rectángulo 339113" width="69.957" height="93.584" transform="translate(69.957 93.584) rotate(180)" fill="#2c3a64"/>
      </g>
      <g id="Grupo_972694" data-name="Grupo 972694" transform="translate(79.623 6.848)">
        <path id="Trazado_696939" data-name="Trazado 696939" d="M2388.6,1216.15a4.84,4.84,0,1,0-4.84,4.84A4.84,4.84,0,0,0,2388.6,1216.15Z" transform="translate(-2378.92 -1211.31)" fill="#dde7fe"/>
      </g>
      <g id="Grupo_972695" data-name="Grupo 972695" transform="translate(81.041 8.265)">
        <path id="Trazado_696940" data-name="Trazado 696940" d="M2388.926,1217.893a3.422,3.422,0,1,0-3.423,3.423A3.422,3.422,0,0,0,2388.926,1217.893Z" transform="translate(-2382.081 -1214.47)" fill="#6c7aff"/>
      </g>
      <g id="Grupo_972696" data-name="Grupo 972696" transform="translate(77.535 23.351)">
        <rect id="Rectángulo_339114" data-name="Rectángulo 339114" width="13.646" height="24.65" transform="translate(13.646 24.65) rotate(180)" fill="#8fadef"/>
      </g>
    </g>
    <g id="Grupo_972703" data-name="Grupo 972703" transform="translate(969.496 665.99)">
      <g id="Grupo_972698" data-name="Grupo 972698" transform="translate(69.956)">
        <rect id="Rectángulo_339115" data-name="Rectángulo 339115" width="29.01" height="93.584" transform="translate(29.01 93.584) rotate(180)" fill="#35488b"/>
      </g>
      <g id="Grupo_972699" data-name="Grupo 972699" transform="translate(0)">
        <rect id="Rectángulo_339116" data-name="Rectángulo 339116" width="69.957" height="93.584" transform="translate(69.957 93.584) rotate(180)" fill="#2c3a64"/>
      </g>
      <g id="Grupo_972700" data-name="Grupo 972700" transform="translate(79.622 6.848)">
        <path id="Trazado_696941" data-name="Trazado 696941" d="M2267.96,1216.15a4.84,4.84,0,1,0-4.84,4.84A4.84,4.84,0,0,0,2267.96,1216.15Z" transform="translate(-2258.28 -1211.31)" fill="#dde7fe"/>
      </g>
      <g id="Grupo_972701" data-name="Grupo 972701" transform="translate(81.04 8.265)">
        <path id="Trazado_696942" data-name="Trazado 696942" d="M2268.285,1217.893a3.422,3.422,0,1,0-3.423,3.423A3.422,3.422,0,0,0,2268.285,1217.893Z" transform="translate(-2261.44 -1214.47)" fill="#6c7aff"/>
      </g>
      <g id="Grupo_972702" data-name="Grupo 972702" transform="translate(77.535 23.351)">
        <rect id="Rectángulo_339117" data-name="Rectángulo 339117" width="13.646" height="24.65" transform="translate(13.646 24.65) rotate(180)" fill="#8fadef"/>
      </g>
    </g>
    <g id="Grupo_972709" data-name="Grupo 972709" transform="translate(920.014 665.99)">
      <g id="Grupo_972704" data-name="Grupo 972704" transform="translate(69.955)">
        <rect id="Rectángulo_339118" data-name="Rectángulo 339118" width="29.01" height="93.584" transform="translate(29.01 93.584) rotate(180)" fill="#35488b"/>
      </g>
      <g id="Grupo_972705" data-name="Grupo 972705" transform="translate(0)">
        <rect id="Rectángulo_339119" data-name="Rectángulo 339119" width="69.957" height="93.584" transform="translate(69.957 93.584) rotate(180)" fill="#2c3a64"/>
      </g>
      <g id="Grupo_972706" data-name="Grupo 972706" transform="translate(79.624 6.848)">
        <path id="Trazado_696943" data-name="Trazado 696943" d="M2157.661,1216.15a4.84,4.84,0,1,0-4.84,4.84A4.84,4.84,0,0,0,2157.661,1216.15Z" transform="translate(-2147.98 -1211.31)" fill="#dde7fe"/>
      </g>
      <g id="Grupo_972707" data-name="Grupo 972707" transform="translate(81.042 8.265)">
        <path id="Trazado_696944" data-name="Trazado 696944" d="M2157.986,1217.893a3.423,3.423,0,1,0-3.422,3.423A3.422,3.422,0,0,0,2157.986,1217.893Z" transform="translate(-2151.14 -1214.47)" fill="#6c7aff"/>
      </g>
      <g id="Grupo_972708" data-name="Grupo 972708" transform="translate(77.529 23.351)">
        <rect id="Rectángulo_339120" data-name="Rectángulo 339120" width="13.646" height="24.65" transform="translate(13.646 24.65) rotate(180)" fill="#8fadef"/>
      </g>
    </g>
    <g id="Grupo_972713" data-name="Grupo 972713" transform="translate(915.658 726.931)">
      <g id="Grupo_972710" data-name="Grupo 972710" transform="translate(0 0)">
        <rect id="Rectángulo_339121" data-name="Rectángulo 339121" width="163.9" height="121.096" transform="translate(163.9 121.096) rotate(180)" fill="#1d888b"/>
      </g>
      <g id="Grupo_972711" data-name="Grupo 972711" transform="translate(87.83 0)">
        <rect id="Rectángulo_339122" data-name="Rectángulo 339122" width="129.951" height="121.096" transform="translate(129.951 121.096) rotate(180)" fill="#229ba4"/>
      </g>
      <g id="Grupo_972712" data-name="Grupo 972712" transform="translate(139.593 11.701)">
        <path id="Trazado_696945" data-name="Trazado 696945" d="M2275.741,1366.05H2309.4a3.8,3.8,0,0,0,3.791-3.791v-.489a3.8,3.8,0,0,0-3.791-3.79h-33.662a3.8,3.8,0,0,0-3.791,3.79v.489A3.8,3.8,0,0,0,2275.741,1366.05Z" transform="translate(-2271.95 -1357.98)" fill="#2c3a64"/>
      </g>
    </g>
    <g id="Grupo_972724" data-name="Grupo 972724" transform="translate(428.095 425.141)">
      <g id="Grupo_972714" data-name="Grupo 972714" transform="translate(218.332 141.036)">
        <path id="Trazado_696946" data-name="Trazado 696946" d="M1382.939,976.03l-22.165,263.544s-2.324,15.974,9.559,16.005c19.536.045,97.249,0,97.249,0s-14.7-3.324-14.525-10.806c.211-8.819,25.906-271.233,25.906-271.233Z" transform="translate(-1360.591 -973.54)" fill="#798ee8"/>
      </g>
      <g id="Grupo_972715" data-name="Grupo 972715" transform="translate(224.716 136.137)">
        <path id="Trazado_696947" data-name="Trazado 696947" d="M1482.743,1244.763c-3.844.014-79.077.139-98.1-.108-8.29-.1-9.748-7.375-9.815-12.076a23.418,23.418,0,0,1,.251-3.925l.579-6.85,1.471-17.459,1.3-15.422,1.669-19.819,1.4-16.728,15.75-187.267,96.024-2.49s-10.82,109.819-18.477,189.756c-.857,8.9-1.669,17.446-2.418,25.417-.242,2.543-.476,5.033-.7,7.455-.709,7.563-1.359,14.507-1.925,20.639-.3,3.234-.574,6.235-.821,8.985-.978,10.78-1.548,17.665-1.556,18.975a11.09,11.09,0,0,0,.188,2.135C1469.124,1244.386,1481.3,1244.763,1482.743,1244.763Z" transform="translate(-1374.823 -962.62)" fill="#aec3ff"/>
      </g>
      <g id="Grupo_972716" data-name="Grupo 972716" transform="translate(7.482)">
        <path id="Trazado_696948" data-name="Trazado 696948" d="M890.56,659.14,944.547,876l7.393,29.7,25.143,101.008H1444.25L1351.568,659.14Z" transform="translate(-890.56 -659.14)" fill="#aec3ff"/>
      </g>
      <g id="Grupo_972717" data-name="Grupo 972717">
        <path id="Trazado_696949" data-name="Trazado 696949" d="M881.362,659.14l-7.482,2.494,84.061,352.625,9.95-7.545Z" transform="translate(-873.88 -659.14)" fill="#798ee8"/>
      </g>
      <g id="Grupo_972718" data-name="Grupo 972718" transform="translate(84.061 347.574)">
        <path id="Trazado_696950" data-name="Trazado 696950" d="M1061.27,1441.505h464.287l12.821-7.545H1071.22Z" transform="translate(-1061.27 -1433.96)" fill="#849def"/>
      </g>
      <g id="Grupo_972719" data-name="Grupo 972719" transform="translate(247.107 418.282)">
        <rect id="Rectángulo_339123" data-name="Rectángulo 339123" width="100.524" height="4.777" transform="translate(100.524 4.777) rotate(180)" fill="#aec3ff"/>
      </g>
      <g id="Grupo_972720" data-name="Grupo 972720" transform="translate(227.016 355.114)">
        <path id="Trazado_696951" data-name="Trazado 696951" d="M1475.01,1450.77l-.52,3.651-94.539,19.1,1.3-15.422.614-7.33Z" transform="translate(-1379.95 -1450.77)" fill="#8c9df4"/>
      </g>
      <g id="Grupo_972721" data-name="Grupo 972721" transform="translate(224.719 388.395)" opacity="0.5">
        <path id="Trazado_696952" data-name="Trazado 696952" d="M1482.747,1554.845c-3.845.013-79.077.139-98.1-.108-8.29-.1-9.748-7.374-9.815-12.076l94.091-17.7c-.978,10.78-1.548,17.665-1.557,18.975a11.092,11.092,0,0,0,.188,2.135C1469.127,1554.468,1481.306,1554.845,1482.747,1554.845Z" transform="translate(-1374.83 -1524.96)" fill="#8c9df4"/>
      </g>
      <g id="Grupo_972722" data-name="Grupo 972722" transform="translate(7.482)">
        <path id="Trazado_696953" data-name="Trazado 696953" d="M890.56,659.14h461.008l74.8,279.339H960.1Z" transform="translate(-890.56 -659.14)" fill="#8c9df4"/>
      </g>
      <g id="Grupo_972723" data-name="Grupo 972723" transform="translate(26.574 14.965)">
        <path id="Trazado_696954" data-name="Trazado 696954" d="M1428.09,944.771H996.447L981.02,883.324l-5.966-23.775-2.431-9.7L956.765,786.7l-.816-3.288-8.384-33.375-3.75-14.938-3.194-12.74-2.611-10.389L933.12,692.5h425.426l5.365,19.473,2.862,10.389,3.512,12.74,4.118,14.938,27.126,98.388v0l2.3,8.339,1.068,3.867,18.728,67.929Z" transform="translate(-933.12 -692.5)" fill="#1d0b49"/>
      </g>
    </g>
    <g id="Grupo_972746" data-name="Grupo 972746" transform="translate(247.109 562.938)">
      <g id="Grupo_972745" data-name="Grupo 972745">
        <g id="Grupo_972725" data-name="Grupo 972725" transform="translate(118.794)">
          <path id="Trazado_696955" data-name="Trazado 696955" d="M779.175,978.589s1.126-12.269-12.583-12.269c0,0,4.154,1.126,6.3,3.382,0,0-8.743-5.132-18.257,2.754s-3.6,27.669-6.5,31.423-14.162,4.508-12.785,16.652,35.761,27.355,33.554,37.4c0,0,13.475-19.81,3.84-28.849,0,0,4.7,4.423,5.177,9.68,0,0,1.274-10.268-5.257-13.552-5.782-2.907-10.519-13.534-10.017-15.431S779.175,978.589,779.175,978.589Z" transform="translate(-735.241 -966.32)" fill="#2c3a64"/>
        </g>
        <g id="Grupo_972726" data-name="Grupo 972726" transform="translate(134.71 71.177)">
          <path id="Trazado_696956" data-name="Trazado 696956" d="M785.241,1124.99s10.241,42.369,20.294,50.838c6.043,5.092,24.013,16.773,24.013,16.773l-7.473,2.714s-24.923-8.416-30.5-14.974-20.855-39.431-20.855-39.431Z" transform="translate(-770.72 -1124.99)" fill="#ffb27d"/>
        </g>
        <g id="Grupo_972727" data-name="Grupo 972727" transform="translate(145.884 137.747)">
          <path id="Trazado_696957" data-name="Trazado 696957" d="M858.114,1289.925l-2.409-5.962a16.9,16.9,0,0,0-15.674-10.573h-44.4v148.446H979.295V1301.562H875.362A18.6,18.6,0,0,1,858.114,1289.925Z" transform="translate(-795.63 -1273.39)" fill="#eda411"/>
        </g>
        <g id="Grupo_972728" data-name="Grupo 972728" transform="translate(46.594 105.557)">
          <path id="Trazado_696958" data-name="Trazado 696958" d="M580.673,1241.689q.135.242.283.5c2.243,3.894,7.384,13.439,13.045,23.887,2.678,4.957,5.482,10.116,8.142,14.969,4.584,8.375,8.756,15.84,11.188,19.778,2.476,4.01,4.3,6.828,5.033,7.953l0,0a1.893,1.893,0,0,1,.242,1.162,61.228,61.228,0,0,0,.162,10.506c3.414,33.98,26.332,52.193,26.332,52.193l6.814,1s-9.64-35.721-12.484-55.916a38.58,38.58,0,0,1-.52-8.007c.5-5.262-.431-12.986-2.2-21.855-3.144-15.759-8.918-35.1-13.933-50.587-.319-.987-9.9-35.649-9.9-35.649-8.043,7.029-37.372,9.927-37.372,9.927S570.535,1223.66,580.673,1241.689Z" transform="translate(-574.289 -1201.63)" fill="#2f539b"/>
        </g>
        <g id="Grupo_972729" data-name="Grupo 972729" transform="translate(109.926 270.372)">
          <path id="Trazado_696959" data-name="Trazado 696959" d="M744.064,1584.862H715.628s-.682-4.333.8-7.621c1.422-3.154,3.45-3.257.26-8.2,1.808,1.862,7.617,2.629,11.726,2.077.5.817,3.248,6.294,4.93,7.505C735.2,1579.954,743.49,1579.479,744.064,1584.862Z" transform="translate(-715.472 -1569.04)" fill="#233862"/>
        </g>
        <g id="Grupo_972730" data-name="Grupo 972730" transform="translate(52.977 128.847)">
          <path id="Trazado_696960" data-name="Trazado 696960" d="M588.52,1270.318q.135.242.283.5c2.243,3.894,14.364,26.283,20.025,36.726-6.563-27-2-53.992-2-53.992Z" transform="translate(-588.52 -1253.55)" fill="#233862"/>
        </g>
        <g id="Grupo_972731" data-name="Grupo 972731" transform="translate(136.674 10.343)">
          <path id="Trazado_696961" data-name="Trazado 696961" d="M797.273,989.576c.184-.749-16.243,7.424-17.073,8.348-7.7,8.546-5.509,19.7-1.1,19.805,2.826.067,2.279,4.768,2.279,4.768l31.5-13.323S809.085,987.063,797.273,989.576Z" transform="translate(-775.099 -989.377)" fill="#2c3a64"/>
        </g>
        <g id="Grupo_972732" data-name="Grupo 972732" transform="translate(131.691 64.816)">
          <path id="Trazado_696962" data-name="Trazado 696962" d="M780.565,1110.81s4.791,9.573,4.194,17.347c0,0-5.778,9.124-20.77,11.435C763.99,1139.587,776.878,1110.8,780.565,1110.81Z" transform="translate(-763.99 -1110.81)" fill="#6385db"/>
        </g>
        <g id="Grupo_972733" data-name="Grupo 972733" transform="translate(3.767 99.627)">
          <path id="Trazado_696963" data-name="Trazado 696963" d="M550.194,1206.394l.094-5.32c-10.6,1.337-36.537-12.663-36.537-12.663s-11.085,7.375-12.6,28.431c-.74,10.277-5.428,53.741-5.944,66.718-.188,4.706-.251,8.061-.274,9.4,0,0,0,.009,0,.013a1.839,1.839,0,0,1-.449,1.094,60.415,60.415,0,0,0-5.742,8.8c-16.167,30.082-7.716,70.962-7.716,70.962l3.755-.955s13.673-42.374,22.609-60.707a38.271,38.271,0,0,1,4.046-6.926c3.36-4.082,6.9-11.009,10.394-19.352C528.433,1270.129,550.194,1206.394,550.194,1206.394Z" transform="translate(-478.818 -1188.41)" fill="#2f539b"/>
        </g>
        <g id="Grupo_972734" data-name="Grupo 972734" transform="translate(0 270.166)">
          <path id="Trazado_696964" data-name="Trazado 696964" d="M499.014,1584.608H470.578s-.682-4.333.8-7.621c1.422-3.154,3.652-4.589,3.118-8.406a10.241,10.241,0,0,0,8.864,3.391c.5.816,3.252,5.186,4.934,6.4C490.154,1579.7,498.44,1579.225,499.014,1584.608Z" transform="translate(-470.422 -1568.58)" fill="#233862"/>
        </g>
        <g id="Grupo_972735" data-name="Grupo 972735" transform="translate(37.573 48.697)">
          <path id="Trazado_696965" data-name="Trazado 696965" d="M646.378,1125.878c-3.818.65.624,3.687-4.629,4.257-7.478.816-15.2,1.373-19.24,2.988-1.476.588-2.463,1.314-2.768,2.243-1.754,5.271-12.856,14.328-12.856,14.328-49.515-2.252-52.7-24.322-52.7-24.322,32.137-31.213,59.474-48.223,82.069-50.327,5.5-.511,12.91.175,16.391,1.723,7.9,3.517,12.233,14.225,12.233,14.225S660.894,1123.407,646.378,1125.878Z" transform="translate(-554.18 -1074.877)" fill="#739af0"/>
        </g>
        <g id="Grupo_972736" data-name="Grupo 972736" transform="translate(105.741 63.677)">
          <path id="Trazado_696966" data-name="Trazado 696966" d="M725.543,1148.553c-7.478.816-15.2,1.373-19.24,2.988a78.882,78.882,0,0,1,10-43.271S723.906,1139.209,725.543,1148.553Z" transform="translate(-706.143 -1108.27)" fill="#6385db"/>
        </g>
        <g id="Grupo_972737" data-name="Grupo 972737" transform="translate(108.75 59.473)">
          <path id="Trazado_696967" data-name="Trazado 696967" d="M735.693,1098.922s-18.8-1.027-22.142,10.779,6.267,58.927,8.339,63.789c3.773,8.855,22.779,35.228,22.779,35.228l6.092-3.158s-12.237-38.605-14.969-42.427C731.5,1157.135,741.322,1104.058,735.693,1098.922Z" transform="translate(-712.851 -1098.9)" fill="#ffb27d"/>
        </g>
        <g id="Grupo_972738" data-name="Grupo 972738" transform="translate(139.758 165.313)">
          <path id="Trazado_696968" data-name="Trazado 696968" d="M788.88,1335.661a28.015,28.015,0,0,1,2.835,2.911c1.265,1.543.152,2.1,3.786,9.1,0,0-.184.974-.973.794s-3.53-2.889-4.934-2.7c0,0-1,.825-1.113,3.571-.1,2.566-.112,8.241-.556,9.308s-3.71-4.468-5.316-8.469c-1.409-3.508-.036-15.342-.036-15.342Z" transform="translate(-781.973 -1334.84)" fill="#ffb27d"/>
        </g>
        <g id="Grupo_972739" data-name="Grupo 972739" transform="translate(105.74 55.989)">
          <path id="Trazado_696969" data-name="Trazado 696969" d="M706.14,1121.2c.049.278,17.8,3.266,28.893-2.369,0,0,9.272-29.046-3.979-27.655s-21.1,5.562-21.429,11.905S706.14,1121.2,706.14,1121.2Z" transform="translate(-706.14 -1091.132)" fill="#739af0"/>
        </g>
        <g id="Grupo_972740" data-name="Grupo 972740" transform="translate(135.59 41.288)">
          <path id="Trazado_696970" data-name="Trazado 696970" d="M772.7,1069.7a11.807,11.807,0,0,0,3.571,8.272c2.355,2.427,5.764,4.32,8.155,1.929a25.936,25.936,0,0,0,3.7-4.472c2.068-3.553,4.531-7.187,4.531-7.187l-10.64-9.326-.637-.556a27.045,27.045,0,0,1-7.927,8.994A2.47,2.47,0,0,0,772.7,1069.7Z" transform="translate(-772.682 -1058.36)" fill="#ffb27d"/>
        </g>
        <g id="Grupo_972741" data-name="Grupo 972741" transform="translate(144.729 41.849)">
          <path id="Trazado_696971" data-name="Trazado 696971" d="M803.89,1068.936s-2.458,3.625-4.526,7.182c-6.617-4.078-6.621-12.269-6.114-16.508Z" transform="translate(-793.054 -1059.61)" fill="#ed985f"/>
        </g>
        <g id="Grupo_972742" data-name="Grupo 972742" transform="translate(144.289 22.83)">
          <path id="Trazado_696972" data-name="Trazado 696972" d="M803.646,1050.232s-16.059-8.936-10.34-18.854,7.5-17.751,17.993-12.462,10.291,10.21,9.182,13.983S807.971,1052.3,803.646,1050.232Z" transform="translate(-792.075 -1017.213)" fill="#ffb27d"/>
        </g>
        <g id="Grupo_972743" data-name="Grupo 972743" transform="translate(142.6 21.486)">
          <path id="Trazado_696973" data-name="Trazado 696973" d="M821.12,1025.465c-.736-4.4-2.97-4.822-4.531-4.531a12.839,12.839,0,0,0-15.62-5.98,21.869,21.869,0,0,1-12.659,7.6s1.862,3.467,9.541,5.616a13.12,13.12,0,0,0,7.577-.606,42.944,42.944,0,0,1-10.9,4.109c10.12.929,19.747-8.326,20.747-9.317.466,1.435,1.287,4.436.794,6.63-.668,2.983-3.315,8.384-1.7,9.084C814.373,1038.07,822.223,1032.068,821.12,1025.465Z" transform="translate(-788.31 -1014.218)" fill="#2c3a64"/>
        </g>
        <g id="Grupo_972744" data-name="Grupo 972744" transform="translate(194.112 138.511)">
          <path id="Trazado_696974" data-name="Trazado 696974" d="M905.5,1275.4s-4.481,3.36-1.1,5.558,9.407,2.79,9.434,1.35C913.92,1277.464,911.506,1274.023,905.5,1275.4Z" transform="translate(-903.14 -1275.092)" fill="#ffb27d"/>
        </g>
      </g>
    </g>
    <g id="Grupo_972747" data-name="Grupo 972747" transform="translate(65.44 848.235)">
      <path id="Trazado_696975" data-name="Trazado 696975" d="M1226.938,1605.329H66.678a1.241,1.241,0,0,1-1.238-1.238v-.543a1.24,1.24,0,0,1,1.238-1.238h1160.26a1.24,1.24,0,0,1,1.238,1.238v.543A1.24,1.24,0,0,1,1226.938,1605.329Z" transform="translate(-65.44 -1602.31)" fill="#233862"/>
    </g>
    <g id="Grupo_972748" data-name="Grupo 972748" transform="translate(549.003 468.103)" opacity="0.5">
      <path id="Trazado_696976" data-name="Trazado 696976" d="M1223.909,779.232l-11.071-14.139-.52-.664-.624-.117-51.089-9.4-17.194,93.45,66.234,12.184,14.7-79.938.121-.655Z" transform="translate(-1143.41 -754.91)" fill="#8c9df4"/>
    </g>
    <g id="Grupo_972750" data-name="Grupo 972750" transform="translate(523.882 469.305)">
      <g id="Grupo_972749" data-name="Grupo 972749">
        <path id="Trazado_696977" data-name="Trazado 696977" d="M1155.209,770.079l.022.664,3.154,81.221-67.293,2.611-3.683-94.948,51.906-2.01.633-.027.659.538L1154.5,769.5Z" transform="translate(-1087.41 -757.59)" fill="#8c9df4"/>
      </g>
    </g>
    <g id="Grupo_972751" data-name="Grupo 972751" transform="translate(78.208 483.591)">
      <path id="Trazado_661212" d="M224.63,1227.12l9.214,72.438s-4.5,15.3-3.965,19.693c.543,4.325,10.026,61.439,10.026,61.439l-.431,3.14-.233,9.277,35.407.238a164.136,164.136,0,0,1-17.9-8.766,6.138,6.138,0,0,1-2.979-4.526c-2.8-17.584,2.71-76.259,2.71-76.259l4.333-76.421Z" transform="translate(-165.988 -1030.782)" fill="#f6b07e" fill-rule="evenodd"/>
      <path id="Trazado_661213" d="M133.056,1256.88c-1.983.431-5.033,62.609-6.684,65.382-10.43,17.468-12.906,70.572-12.906,70.572l-4.306,7.437.982,7.146s7.783,3.948,13.247,1.3l-.848-7.173-.641-9.6,26.3-66.162,14.386-67.476Z" transform="translate(-102.316 -1047.192)" fill="#f6b07e" fill-rule="evenodd"/>
      <path id="Trazado_661214" d="M221.755,1204.3l1.256-42.889c.211-12.139-4.374-23.762-10.026-34.8l-11.923-17.67c-3.84,1.068-5.962-8.941-10-8.528-3.05.283-5.15.915-7.967,1.063-5.329.287-8.568,9.456-14.279,8.882-.027.287-1.135,2.615-1.216,2.822-2.741,6.486-12.148,12.251-15.871,31.482-4.23,21.851-4.208,59.411-3.674,61.977,40.386,1.552,50,2.79,73.7-2.342" transform="translate(-123.628 -960.908)" fill="#4764ac" fill-rule="evenodd"/>
      <path id="Trazado_661215" d="M308.6,792.57s-.287,2.05-.467,2.736c-.188.789-.956,3.109-.956,3.109s-3.131,7.989-3.764,7.7-.978-1.929-.991-2.485-.058-1.211-.067-1.767a1.241,1.241,0,0,0-1.234-1.112c-.772-.058-1.332,2.171-1.319,2.956a78.088,78.088,0,0,0,1.48,9.968c.144.843-8.155,13.718-10.6,18.338-4.244,7.451-9.03,14.907-9.483,15.7L253.3,873.284l6.841,13.081s31.432-27.969,32.819-29.544c.664-.749,9-18.747,8.99-18.747,3.472-9.12,6.5-17.154,7.128-18.675,0,0,3.306-4.091,5.558-6.567a26.122,26.122,0,0,0,3.71-6.4,18.554,18.554,0,0,0,2.862-6.54c.758-3.284-1.651-.511-1.651-.511s-2.651,5.854-3.127,5.562c-.368-.215,1.278-3.319,2.144-6.935.2-.915.435-1.857.628-2.7.484-2.221-.9-3.171-1.857-.915a21.121,21.121,0,0,0-1.086,3.109,17.3,17.3,0,0,1-1.189,2.871,20.865,20.865,0,0,1-1.278,2.952c-.081-.09-.493.153-.269-.843.247-1.193,1.377-3.62,1.592-5.405.112-1.018.511-3.14.511-3.14a17.769,17.769,0,0,0-.049-3.521c-1.166-.359-2.126,2.081-2.064,3.472a13.625,13.625,0,0,0-.812,3.122s-1.839,4.347-2.53,4.1c-.592-.179,1.467-11.376.269-11.668-1-.215-1.8,3.122-1.8,3.122" transform="translate(-181.797 -789.438)" fill="#f6b07e" fill-rule="evenodd"/>
      <path id="Trazado_661216" d="M261,945.325a111.68,111.68,0,0,1-11.439-12.785c.31.238-16.288,8.882-21.752,12.879-8.94,6.54-10.479,21.729-14.485,29.481-2.458,4.782-2.822,8.447-1.269,11.4.067.139,16.145-11.434,29.172-21.626A197.354,197.354,0,0,0,261,945.311" transform="translate(-158.54 -868.346)" fill="#c17e08" fill-rule="evenodd"/>
      <path id="Trazado_661217" d="M187.191,977.787c-1.036-3.284-3.342-7.581-4.656-10.578-2.229-5.042-2.9-9.748-4.876-11.766-1.063-1.09-14.7-.915-16.382-1.063-.682-.09-3.414.085-6.051.238v-.031q-9.622.592-19.141,2.041c-11.067,9.456-16.423,22.147-24.744,36.039,0,0,6.231,3.109,11.2,5.069,2.167.839,6.307,2.225,6.307,2.225s5.239-7.958,8.209-11.448l1.377-2.629c.108-.058.6-.525.749-.238.22.493,9.555,44.168,9.555,44.168s26.063,2.126,32.733-.664c0,0,1.22-29.235,3.674-37.794.9-3.172,3.692-8.3,2.037-13.579" transform="translate(-103.518 -880.376)" fill="#eda411" fill-rule="evenodd"/>
      <path id="Trazado_661218" d="M180.858,860.615a82.441,82.441,0,0,0-.269,20.572c.709,4.706,1.032,8.528,5.06,11.049,0,0-8.061,2.193-11.322.686a7.531,7.531,0,0,0,1.377,1.229s-9.124,1.951-13.511.108-13.22-57.872,13.4-57.841c0,0,25.076-6.523,28.18,15.938,6.5,26.17,10.219,33.693,13.278,37.9-2.535,1.969-3.737,1.615-5.082-.323-1.18-1.714-2.1-3.791-2.44-4.3a49.7,49.7,0,0,0,2.884,6.491s-10.569.83-15.651-1.314-16.086-25.412-15.884-30.2" transform="translate(-128.806 -814.858)" fill="#284290" fill-rule="evenodd"/>
      <path id="Trazado_661219" d="M205.56,921.09a61.852,61.852,0,0,1,1.453,12.987c-.426,4.037,1.624,17.01,10.82,17.033s2.943-13.458,2.081-17.41-2.037-17.93-2.037-17.93Z" transform="translate(-155.472 -859.099)" fill="#f6b07e" fill-rule="evenodd"/>
      <path id="Trazado_661220" d="M217.927,918.568a31.552,31.552,0,0,0-.834-6L205.03,918.1s.431,2.1.866,4.764a12.021,12.021,0,0,0,12.031-4.3" transform="translate(-155.18 -857.335)" fill="#ef8161" fill-rule="evenodd"/>
      <path id="Trazado_661221" d="M182.554,870.491a50.106,50.106,0,0,1-10.506-12.525c-2.167-4.4-4.185-21.972,15.862-23.654a30.3,30.3,0,0,1,11.923,1.314c4.89,1.61,12.448,5.737,9.712,22.017l-.39,5.4Z" transform="translate(-136.266 -814.116)" fill="#284290" fill-rule="evenodd"/>
      <path id="Trazado_661222" d="M192.362,858.342a15.207,15.207,0,0,0-8,6.523c-2.822,4.894-3.75,18.648,7.617,23.923s18.868-4.468,18.154-13.17c-.709-8.739-3.858-20.155-17.773-17.275" transform="translate(-142.776 -827.182)" fill="#f6b07e" fill-rule="evenodd"/>
      <path id="Trazado_661223" d="M199.341,839.493s-2.759,15.4-11.6,19.2-13.395,2.328-13.395,2.328a21.916,21.916,0,0,0,5.441-15.324s13.39-12.193,19.549-6.2" transform="translate(-138.263 -816.126)" fill="#284290" fill-rule="evenodd"/>
      <path id="Trazado_661224" d="M175.387,861.152a9.879,9.879,0,0,1-2.857-.323l-1.009-.323.691-.731a21.45,21.45,0,0,0,5.271-14.857l-.022-.287.233-.206c.359-.332,8.94-8.066,15.763-8.066a6.754,6.754,0,0,1,4.876,1.871l.247.238-.063.314c-.117.646-2.925,15.795-12.009,19.7a28.6,28.6,0,0,1-11.129,2.678m-1.265-1.4a24.163,24.163,0,0,0,11.744-2.476c7.693-3.306,10.658-16.171,11.107-18.378a5.144,5.144,0,0,0-3.521-1.193c-5.621,0-13.063,6.235-14.449,7.451a22.451,22.451,0,0,1-4.89,14.61" transform="translate(-136.702 -815.31)" fill="#284290"/>
      <path id="Trazado_661225" d="M227.73,844.9c13.745,3.656,11.107,8.707,15.781,13.7,0,0,.615-11.713-6.684-16.539-7.743-5.123-9.1,2.84-9.1,2.84" transform="translate(-167.697 -817.505)" fill="#284290" fill-rule="evenodd"/>
      <path id="Trazado_661226" d="M218.93,855.54s-2.373,9.21-9.47,12.3c0,0,7.016-5.787,7.447-11.838s2.023-.462,2.023-.462" transform="translate(-157.623 -824.591)" fill="#284290" fill-rule="evenodd"/>
      <path id="Trazado_661227" d="M233.942,846.794c-1.776-.318-2.844.054-3.212,1.113a7.569,7.569,0,0,0,4.9,4.19,8.2,8.2,0,0,1-1.691-5.3" transform="translate(-169.351 -821.004)" fill="#284290" fill-rule="evenodd"/>
      <path id="Trazado_661228" d="M187.475,840.474q2.954-1.453,1.987-3.346a11,11,0,0,0-8.442-.422,12.8,12.8,0,0,1,6.455,3.768" transform="translate(-141.94 -815.146)" fill="#284290" fill-rule="evenodd"/>
      <path id="Trazado_661229" d="M195.486,836.615c-1.05.816-1.924.924-2.624.332a4.939,4.939,0,0,1,1.467-4.437,6.251,6.251,0,0,0,1.157,4.1" transform="translate(-148.426 -813.188)" fill="#284290" fill-rule="evenodd"/>
      <path id="Trazado_661230" d="M148.21,1343.39" transform="translate(-123.849 -1094.895)" fill="#ee7961" fill-rule="evenodd"/>
      <path id="Trazado_661231" d="M256.332,1588.142h36.56c1.355-.121,1.678-1.1,1.207-1.7-.964-1.211-5.23-2.135-10.026-4.1-8.4.785-26.014-4.176-27.332-5.877-.767,3.432-1.148,11.529-.4,11.677" transform="translate(-183.249 -1223.418)" fill="#284290" fill-rule="evenodd"/>
      <path id="Trazado_661232" d="M107.991,1576.46s3.252,8.129,6.756,7.864,6.585-6.6,6.585-6.6a25.329,25.329,0,0,1,.7,8.33c-.615,2.97-5.616,6.029-9.039,4.67-3.427-1.3-8.07-8.187-5.006-14.265" transform="translate(-101.12 -1223.413)" fill="#284290" fill-rule="evenodd"/>
      <path id="Trazado_661233" d="M244.231,883.223c.3,2.274-.615,4.208-2.05,4.324s-2.831-1.615-3.131-3.894c-.3-2.243.606-4.176,2.05-4.3s2.835,1.615,3.131,3.862" transform="translate(-173.907 -839.014)" fill="#f6b07e" fill-rule="evenodd"/>
      <path id="Trazado_661234" d="M181.207,894.835c1,2.194.507,4.495-1.121,5.136s-3.723-.61-4.719-2.8-.507-4.472,1.108-5.136,3.732.61,4.733,2.8" transform="translate(-138.539 -845.915)" fill="#f6b07e" fill-rule="evenodd"/>
      <path id="Trazado_661235" d="M159.8,1028.55l-.525.637a3.605,3.605,0,0,1-3.221,4L127.79,1068.3l33.989,20.667a4.723,4.723,0,0,0,5.962-.9l27.274-33.9a3.149,3.149,0,0,0-.9-4.737c-.022-.014-.045-.027-.072-.045Z" transform="translate(-112.589 -921.288)" fill="#2e73b8" fill-rule="evenodd"/>
      <path id="Trazado_661236" d="M190.789,1033.981h0l32.514,19.783c1.88,1.153,4.127,1.18,5.02.085a1.937,1.937,0,0,0,.135-2.05,4.885,4.885,0,0,0-1.947-2.05L194,1029.98a3.689,3.689,0,0,1-3.216,4" transform="translate(-147.322 -922.076)" fill="#eef7f6" fill-rule="evenodd"/>
      <path id="Trazado_661237" d="M104.08,1042.254c2.274,1.09,5.8,2.737,8.846,3.943,1.453.556,3.773,1.355,5.15,1.821-3.333,5.473-6.5,11.125-6.092,12.278.368,1.041,30.2,20.411,30.2,20.411l5.962-.7s10.506,1.036,10.748,2.131c.251,1.036-4.428.785-5.056.928a6.147,6.147,0,0,0-1.624.633c.942.372,2.194.893,3.387,1.3a14.667,14.667,0,0,0-7.213,7.5,37.154,37.154,0,0,1-12.085-5.28c-6.949-3.028-41.867-20.348-42.391-23.64-.3-1.96,5.02-12.1,10.165-21.326" transform="translate(-93.903 -928.842)" fill="#f6b07e" fill-rule="evenodd"/>
      <path id="Trazado_661238" d="M223.941,1132.66a6.253,6.253,0,0,1,.893,3.894c-.444,1.673-.915,2.135-1.4,3.629a4.679,4.679,0,0,1-2.283,3.207c-1.749,1.328-10.16-1.529-10.16-1.529l5.787-8.3,3.328,1.095a6.942,6.942,0,0,0,2.665-.718,16.427,16.427,0,0,0,1.171-1.279" transform="translate(-158.466 -978.695)" fill="#f6b07e" fill-rule="evenodd"/>
      <path id="Trazado_661239" d="M208.156,958.952a21.973,21.973,0,0,0,4.517,10.259,7.773,7.773,0,0,0,6.841,2.929,5.6,5.6,0,0,0,1.189-.206,3.464,3.464,0,0,0,2.243-1.987,8.8,8.8,0,0,0,.467-4.329A63.387,63.387,0,0,0,220.8,954.69l.947.018a38.533,38.533,0,0,1,2.6,10.842,9.423,9.423,0,0,1-.525,4.706,4.29,4.29,0,0,1-2.808,2.458h0a6.868,6.868,0,0,1-1.422.256,8.718,8.718,0,0,1-7.666-3.266,22.891,22.891,0,0,1-4.454-10.667Z" transform="translate(-156.525 -880.56)" fill="#c17e08" fill-rule="evenodd"/>
      <path id="Trazado_661240" d="M224.447,997.015a.455.455,0,0,1-.511-.372v0a.417.417,0,0,1,.4-.449h.018c1.956-.188,3.683-.283,5.172-.3a23.832,23.832,0,0,1,3.8.224.421.421,0,0,1,.381.48.48.48,0,0,1-.543.345,22.468,22.468,0,0,0-3.643-.215q-2.194.014-5.082.287" transform="translate(-165.603 -903.277)" fill="#ec6a32" fill-rule="evenodd"/>
      <path id="Trazado_661241" d="M225.918,999.677a.423.423,0,0,1-.453-.372.415.415,0,0,1,.368-.453c1.489-.171,2.992-.269,4.495-.3a18.265,18.265,0,0,1,3.32.238.423.423,0,0,1,.336.48.416.416,0,0,1-.471.336H233.5a17.025,17.025,0,0,0-3.172-.215c-1.476.027-2.952.121-4.419.287" transform="translate(-166.446 -904.746)" fill="#c17e08" fill-rule="evenodd"/>
      <path id="Trazado_661242" d="M178.369,1022.058q-4.219-7.523-.83-19.428l-4.679,9.564a.2.2,0,0,1,.256.045c0,.009.013.018.013.027.076.175,1.283,5.715,2.822,12.812Z" transform="translate(-137.441 -906.995)" fill="#c17e08" fill-rule="evenodd"/>
    </g>
    <g id="Grupo_972758" data-name="Grupo 972758" transform="translate(537.694 472.535)">
      <g id="Grupo_972752" data-name="Grupo 972752" transform="translate(0 165.82)">
        <rect id="Rectángulo_339124" data-name="Rectángulo 339124" width="69.351" height="45.877" fill="#70c6d9"/>
        <rect id="Rectángulo_339125" data-name="Rectángulo 339125" width="24.183" height="45.877" transform="translate(45.253 0.09)" fill="#54a2af"/>
      </g>
      <g id="Grupo_972753" data-name="Grupo 972753" transform="translate(59.034 137.371)">
        <rect id="Rectángulo_339126" data-name="Rectángulo 339126" width="69.351" height="74.685" fill="#9282bc"/>
        <rect id="Rectángulo_339127" data-name="Rectángulo 339127" width="24.183" height="74.685" transform="translate(44.814)" fill="#786d9f"/>
      </g>
      <g id="Grupo_972754" data-name="Grupo 972754" transform="translate(124.119 99.402)">
        <rect id="Rectángulo_339128" data-name="Rectángulo 339128" width="69.351" height="113.093" fill="#229ba4"/>
        <rect id="Rectángulo_339129" data-name="Rectángulo 339129" width="24.183" height="112.739" transform="translate(44.455)" fill="#1d888b"/>
      </g>
      <g id="Grupo_972755" data-name="Grupo 972755" transform="translate(190.977 57.437)">
        <rect id="Rectángulo_339130" data-name="Rectángulo 339130" width="69.351" height="154.704" fill="#2459a5"/>
        <rect id="Rectángulo_339131" data-name="Rectángulo 339131" width="24.183" height="154.704" transform="translate(44.814)" fill="#1d4b82"/>
      </g>
      <g id="Grupo_972756" data-name="Grupo 972756" transform="translate(256.771)">
        <rect id="Rectángulo_339132" data-name="Rectángulo 339132" width="69.351" height="212.32" transform="translate(0 0.09)" fill="#eda411"/>
        <rect id="Rectángulo_339133" data-name="Rectángulo 339133" width="24.183" height="211.966" transform="translate(44.814)" fill="#c67f00"/>
      </g>
      <rect id="Rectángulo_339134" data-name="Rectángulo 339134" width="329.15" height="5.513" transform="translate(2.844 212.145)" fill="#24224d"/>
      <g id="Grupo_972757" data-name="Grupo 972757" transform="translate(14.691 87.093)">
        <path id="Trazado_696978" data-name="Trazado 696978" d="M1151.08,1084.114s118.745,29.454,245.453-62.084l23.385,19.11,6.76-81.889-58.074,11.7,13.408,30.58S1322.3,1080.485,1151.08,1084.114Z" transform="translate(-1151.022 -959.111)" fill="#04afaa"/>
        <path id="Trazado_696979" data-name="Trazado 696979" d="M1150.95,1083.9s123.644,22.752,245.283-75.425l20.222,18.379,8.016-67.916-65.561,14.045,18.226,16.113C1377.145,989.1,1321.731,1071.14,1150.95,1083.9Z" transform="translate(-1150.95 -958.94)" fill="#0cf2f2"/>
      </g>
    </g>
    <g id="Grupo_972783" data-name="Grupo 972783" transform="translate(847.443 479.897)">
      <g id="Grupo_972759" data-name="Grupo 972759" transform="translate(141.088 78.06)">
        <path id="Trazado_696980" data-name="Trazado 696980" d="M2132.379,964.02s-1.279-2.871-2.1-4.23-4.36-5.343-4.961-4.441-3.005,6.971-1.727,8.671-.085,4.656,6.271,6.446Z" transform="translate(-2123.217 -955.217)" fill="#ffb27d"/>
      </g>
      <g id="Grupo_972760" data-name="Grupo 972760" transform="translate(146.878 68.735)">
        <path id="Trazado_696981" data-name="Trazado 696981" d="M2210.113,934.43s-32.527,27.153-45.213,24.641c-9.919-1.965-25.6-6.94-25.6-6.94s-4.14,3.939-2.97,8.653c0,0,19.976,18.8,34.209,18.917,22.246.188,32.738-11.026,32.738-11.026Z" transform="translate(-2136.125 -934.43)" fill="#c17e08"/>
      </g>
      <g id="Grupo_972761" data-name="Grupo 972761" transform="translate(240.496 350.241)">
        <path id="Trazado_696982" data-name="Trazado 696982" d="M2382.241,1566.869s-.947,15.234-3.894,15.454c-.39.027-14.947.027-14.947.027l-18.58-.108s.121-4.477,5.553-5.423,14.521-4.764,17.813-11.941C2371.646,1557.327,2382.241,1566.869,2382.241,1566.869Z" transform="translate(-2344.82 -1561.97)" fill="#113c68"/>
      </g>
      <g id="Grupo_972762" data-name="Grupo 972762" transform="translate(215.954 168.133)">
        <path id="Trazado_696983" data-name="Trazado 696983" d="M2353.146,1344.075a38.758,38.758,0,0,1-10.058,1.888,36.866,36.866,0,0,1-9.389-1.341s-1.063-10.286-6.917-32.944c-3.069-11.874-7.451-27.149-13.682-46.124-17.234-52.444-22.474-83.123-22.954-86.026-.027-.152-.036-.229-.036-.229l.054-.027,52.987-23.264s-6.55,72.276,1.808,100.021a117.011,117.011,0,0,1,3.032,13.292C2353.267,1299.459,2353.146,1344.075,2353.146,1344.075Z" transform="translate(-2290.11 -1156.01)" fill="#2a4e96"/>
      </g>
      <g id="Grupo_972763" data-name="Grupo 972763" transform="translate(215.985 168.138)">
        <path id="Trazado_696984" data-name="Trazado 696984" d="M2326.816,1311.688c-3.068-11.874-7.451-27.148-13.682-46.124-17.235-52.444-22.474-83.123-22.954-86.025,0-.085.009-.17.018-.256l52.987-23.264s-6.55,72.276,1.808,100.021C2346.164,1259.917,2326.816,1311.688,2326.816,1311.688Z" transform="translate(-2290.18 -1156.02)" fill="#233862"/>
      </g>
      <g id="Grupo_972764" data-name="Grupo 972764" transform="translate(199.11 350.241)">
        <path id="Trazado_696985" data-name="Trazado 696985" d="M2289.981,1566.869s-.947,15.234-3.894,15.454c-.39.027-14.947.027-14.947.027l-18.581-.108s.121-4.477,5.553-5.423,14.521-4.764,17.813-11.941C2279.39,1557.327,2289.981,1566.869,2289.981,1566.869Z" transform="translate(-2252.56 -1561.97)" fill="#15447c"/>
      </g>
      <g id="Grupo_972765" data-name="Grupo 972765" transform="translate(206.474 169.842)">
        <path id="Trazado_696986" data-name="Trazado 696986" d="M2268.992,1159.82a753.883,753.883,0,0,0,7.415,104.346c8.1,57.509,5.356,81.916,5.356,81.916a55.305,55.305,0,0,0,7.814,1.987,35.478,35.478,0,0,0,11.6-1.341s11.6-57.527,8.272-86.312,15.884-98.77,15.884-98.77Z" transform="translate(-2268.978 -1159.82)" fill="#2a4e96"/>
      </g>
      <g id="Grupo_972766" data-name="Grupo 972766" transform="translate(222.094 37.079)">
        <path id="Trazado_696987" data-name="Trazado 696987" d="M2325.766,887.016l-10.344,6.783-9.42-2.665c-1.723-2.458-2.176-7.191-2.2-11.3a70.068,70.068,0,0,1,.368-7.523l13.955-6.159,5.208-2.3c-.013.081-.4,4.275-.462,4.89A35.6,35.6,0,0,0,2325.766,887.016Z" transform="translate(-2303.797 -863.86)" fill="#ffb27d"/>
      </g>
      <g id="Grupo_972767" data-name="Grupo 972767" transform="translate(206.039 56.308)">
        <path id="Trazado_696988" data-name="Trazado 696988" d="M2268.219,1033.28c12.875,12.43,61.6,10.34,64.6-3.355s-3.275-116.583-25.264-123.043c-4.562-1.341-28.961,6.545-28.961,6.545a154.847,154.847,0,0,0-6.338,22.766c-.484,2.481-1.911,28.772-2.974,53.373-.5,11.5-.915,22.64-1.13,30.791C2267.954,1027.991,2267.941,1033.01,2268.219,1033.28Z" transform="translate(-2268.006 -906.728)" fill="#eda411"/>
      </g>
      <g id="Grupo_972768" data-name="Grupo 972768" transform="translate(222.089 39.378)">
        <path id="Trazado_696989" data-name="Trazado 696989" d="M2321.817,871.774c-2.831,4.786-12.762,8.976-18.029,10.9a69.955,69.955,0,0,1,.368-7.523l13.956-6.159C2321.2,868.948,2323.078,869.634,2321.817,871.774Z" transform="translate(-2303.787 -868.986)" fill="#fca56b"/>
      </g>
      <g id="Grupo_972769" data-name="Grupo 972769" transform="translate(214.391 7.679)">
        <path id="Trazado_696990" data-name="Trazado 696990" d="M2289.436,835.329s22.483,7.011,26.637-7.056,9.851-22.64-4.329-27.714-18.567-.529-21.092,3.826S2283.694,833.144,2289.436,835.329Z" transform="translate(-2286.625 -798.321)" fill="#ffb27d"/>
      </g>
      <g id="Grupo_972770" data-name="Grupo 972770" transform="translate(217.182)">
        <path id="Trazado_696991" data-name="Trazado 696991" d="M2294.961,793.6s1.435,16.373,4.818,15.66,7.114-2.229,6.616,2.7,3.293,13.395,8.173,13.377c10.47-.045,21.851-26.911,18.98-32.007C2325.281,778.627,2283.006,775.662,2294.961,793.6Z" transform="translate(-2292.847 -781.203)" fill="#163560"/>
      </g>
      <g id="Grupo_972771" data-name="Grupo 972771" transform="translate(216.622 49.914)">
        <path id="Trazado_696992" data-name="Trazado 696992" d="M2297.58,899.375c.291-.121,16.737-7.5,18.661-6.863s4.32,6.509,4.32,6.509L2291.6,905.57S2293.883,900.932,2297.58,899.375Z" transform="translate(-2291.6 -892.473)" fill="#c67f00"/>
      </g>
      <g id="Grupo_972777" data-name="Grupo 972777" transform="translate(0 10.368)">
        <g id="Grupo_972772" data-name="Grupo 972772" transform="translate(118.248 117.31)">
          <path id="Trazado_696993" data-name="Trazado 696993" d="M2074.257,1074.648l92.2,86.806c1.808,1.7,4.087,2.243,5.064,1.207l3.114-3.306c.978-1.041.3-3.279-1.507-4.984l-92.2-86.81c-1.808-1.7-4.087-2.243-5.065-1.207l-3.113,3.306C2071.771,1070.7,2072.449,1072.943,2074.257,1074.648Z" transform="translate(-2072.302 -1065.827)" fill="#1f4d84"/>
        </g>
        <g id="Grupo_972773" data-name="Grupo 972773" transform="translate(171.943 167.759)">
          <path id="Trazado_696994" data-name="Trazado 696994" d="M2192,1185.373l40.458,38.094c1.808,1.7,4.086,2.243,5.065,1.207l3.113-3.306c.978-1.041.3-3.279-1.507-4.984l-40.458-38.094Z" transform="translate(-2192 -1178.29)" fill="#739af0"/>
        </g>
        <g id="Grupo_972774" data-name="Grupo 972774">
          <path id="Trazado_696995" data-name="Trazado 696995" d="M1933.6,827.061a72.253,72.253,0,0,0-102.143-3.109c-.386.359-.763.722-1.135,1.095a72.27,72.27,0,1,0,103.278,2.014Zm-7.025,98a66.565,66.565,0,1,1,2.871-94.091A66.482,66.482,0,0,1,1926.571,925.059Z" transform="translate(-1808.7 -804.316)" fill="#1f4d84"/>
        </g>
        <g id="Grupo_972776" data-name="Grupo 972776" transform="translate(5.703 5.702)" opacity="0.5">
          <g id="Grupo_972775" data-name="Grupo 972775">
            <path id="Trazado_696996" data-name="Trazado 696996" d="M1839.494,929.2a66.565,66.565,0,1,0,2.866-94.091A66.294,66.294,0,0,0,1839.494,929.2Z" transform="translate(-1821.413 -817.027)" fill="#b3cff9"/>
          </g>
        </g>
      </g>
      <g id="Grupo_972778" data-name="Grupo 972778" transform="translate(206.179 85.427)">
        <path id="Trazado_696997" data-name="Trazado 696997" d="M2268.32,1056.149c50.8-36.2,46.581-84.509,46.581-84.509-18.567,10.475-37,33.631-45.447,53.718C2268.957,1036.86,2268.535,1047.994,2268.32,1056.149Z" transform="translate(-2268.32 -971.64)" fill="#c17e08"/>
      </g>
      <g id="Grupo_972781" data-name="Grupo 972781" transform="translate(141.446 63.007)">
        <g id="Grupo_972779" data-name="Grupo 972779" transform="translate(0 86.434)">
          <path id="Trazado_696998" data-name="Trazado 696998" d="M2138.606,1118.35a13.8,13.8,0,0,1-6.487-4.01s-1.53.1.251,3.364c.148.274.48.974.727,1.467a.314.314,0,0,1-.265.453c-2.068.157-4.145-.659-8.128.171-.552.117-.709,1.431-.687,1.992a5.073,5.073,0,0,0,1.072,3.468c.641.848,2.431,1.758,6.419,3.364,1.521.61,5.863.148,9.931-1.247l3.252-1.507-1.009-6.047-.817.171C2141.566,1120.266,2139.96,1118.678,2138.606,1118.35Z" transform="translate(-2124.016 -1114.34)" fill="#eda411"/>
        </g>
        <g id="Grupo_972780" data-name="Grupo 972780" transform="translate(18.318)">
          <path id="Trazado_696999" data-name="Trazado 696999" d="M2242.079,921.66s45.648,8.694-13.43,74.8c-9.448,10.573-60.5,24.336-60.5,24.336s-5.177-4.405-2.566-7.971c0,0,35.147-25.525,42.88-29.58,3.481-1.826,13.5-40.736,19.173-50.107A25.584,25.584,0,0,1,2242.079,921.66Z" transform="translate(-2164.85 -921.66)" fill="#eda411"/>
        </g>
      </g>
      <g id="Grupo_972782" data-name="Grupo 972782" transform="translate(142.819 76.536)">
        <path id="Trazado_697000" data-name="Trazado 697000" d="M2133.268,962.949a23.237,23.237,0,0,1-1.786-4.36c-.292-1.507-2.171-5.894-2.947-6.671-.31-.309-1.333.09-1.454,1.422a7.783,7.783,0,0,0,.731,2.889c.817,2.041.682,4.813.964,5.737C2129.491,964.268,2133.268,962.949,2133.268,962.949Z" transform="translate(-2127.076 -951.819)" fill="#ffb27d"/>
      </g>
    </g>
    <g id="Grupo_972808" data-name="Grupo 972808" transform="translate(431.49 277.846)">
      <g id="Grupo_972804" data-name="Grupo 972804" transform="translate(0 0)">
        <g id="Grupo_972784" data-name="Grupo 972784" transform="translate(67.142 182.438)">
          <path id="Trazado_697001" data-name="Trazado 697001" d="M1031.8,760.982a2.614,2.614,0,0,0-.467,2.8s0,.009.009.013c.677,1.871,2.907,3.957,5.5,6.038.332.269.628.511.884.736.067.058.135.117.2.179.054.045.1.094.152.139,2.418,2.229,1.507,2.741,5.854,7.267,4.953,5.159,8.366,5.253,9.335,4.782.821-.4-.848-3.136-2.691-6.208-.09-.148-.175-.3-.269-.449-.247-.408-.489-.826-.736-1.234-2.167-3.7-1.606-5.437-1.095-10.941.417-4.472,6.967-24.991,6.967-24.991l-9.5-1.637s-2.866,16.338-6.015,18.854c-1.687,1.341-3.571,1.355-5.19,2.351-.117.067-.229.139-.337.211A12.62,12.62,0,0,0,1031.8,760.982Z" transform="translate(-1031.124 -737.48)" fill="#ffb27d"/>
        </g>
        <g id="Grupo_972785" data-name="Grupo 972785" transform="translate(67.142 203.858)">
          <path id="Trazado_697002" data-name="Trazado 697002" d="M1031.8,787.311a2.614,2.614,0,0,0-.467,2.8s0,.009.009.013c.825,1.866,3.005,3.943,5.513,6.02.328.274.615.52.875.758.067.058.135.117.2.18.054.045.1.094.153.139,2.418,2.229,1.507,2.741,5.854,7.267,4.952,5.159,8.366,5.253,9.335,4.782.821-.4-.848-3.136-2.692-6.208a21.126,21.126,0,0,1-8.833-6.514c-2.875-3.669-4.827-8.348-6.783-11.219l-.556-.1A12.365,12.365,0,0,0,1031.8,787.311Z" transform="translate(-1031.124 -785.23)" fill="#233862"/>
        </g>
        <g id="Grupo_972786" data-name="Grupo 972786" transform="translate(136.81 179.567)">
          <path id="Trazado_697003" data-name="Trazado 697003" d="M1194.02,751.549c.583,2.934,4.764,2.445,9.434,1.305s3.557.215,10.2-.516,8.658-3.212,8.86-4.2c.18-.875-3.1-1.189-6.621-1.592q-.666-.074-1.332-.161c-3.974-.5-6.886-3.068-10.5-5.177-3.418-2-8.523-10.129-8.523-10.129l-9.111.718s4.777,7.263,6.626,10.421c1.085,1.857,1.027,4.315.893,6.208A11.938,11.938,0,0,0,1194.02,751.549Z" transform="translate(-1186.43 -731.08)" fill="#ffb27d"/>
        </g>
        <g id="Grupo_972787" data-name="Grupo 972787" transform="translate(144.263 195.03)">
          <path id="Trazado_697004" data-name="Trazado 697004" d="M1212.614,771.857c4.67-1.139,3.557.215,10.2-.516s8.658-3.212,8.859-4.2c.179-.875-3.1-1.189-6.621-1.592l-.032.067a18.754,18.754,0,0,1-9.514,2.956c-4.508.108-9.281-1.184-12.395-1.135a11.7,11.7,0,0,0,.067,3.118C1203.764,773.486,1207.944,773,1212.614,771.857Z" transform="translate(-1203.043 -765.55)" fill="#233862"/>
        </g>
        <g id="Grupo_972788" data-name="Grupo 972788" transform="translate(78.221 127.149)">
          <path id="Trazado_697005" data-name="Trazado 697005" d="M1087.1,628.839l-8.528,22.918-11.129,29.925a17.965,17.965,0,0,1-5.908-.543,25.777,25.777,0,0,1-5.715-2.781s3.1-32.132,8.864-50.578c1.476-4.733,3.136-8.563,4.961-10.721C1078.581,606.509,1087.1,628.839,1087.1,628.839Z" transform="translate(-1055.82 -614.228)" fill="#ed7d2b"/>
        </g>
        <g id="Grupo_972789" data-name="Grupo 972789" transform="translate(18.455 100.751)">
          <path id="Trazado_697006" data-name="Trazado 697006" d="M1004.986,559.983c-4.849-1.565-17.5-.031-31.222,2.449a9.309,9.309,0,0,1-9.609-4.342h0l-34.532-2.709s-11.4,25.269-5.172,41.373c.915,2.369,2.929,3.844,6.033,3.894h0s20.868.036,27.543.04c17.176,0,36.353-11.793,38.834-12.287,4.06-.812,5.679,7.307,9.739,15.835S1044.749,642,1044.749,642s5.24.054,7.406-.758a7.279,7.279,0,0,0,3.18-2.005S1017.569,564.047,1004.986,559.983Z" transform="translate(-922.589 -555.38)" fill="#eda411"/>
        </g>
        <g id="Grupo_972790" data-name="Grupo 972790" transform="translate(0.142)">
          <path id="Trazado_697007" data-name="Trazado 697007" d="M938.011,332.832a12.218,12.218,0,0,0-6.594-1.718,18.433,18.433,0,0,1-3.185-.193c-13.18-1.938-21.124,17.2-21.59,22.99-.857,10.618-6.478,12.237-14.386,18.885-15.862,13.332-11.219,28.831-2.548,34.59,5.2,3.459,14.373,0,14.373,0,.13.09,25.08-13.938,37.381-20.7C959.893,384.07,945.412,337.242,938.011,332.832Z" transform="translate(-881.764 -330.784)" fill="#233862"/>
        </g>
        <g id="Grupo_972791" data-name="Grupo 972791" transform="translate(32.706 30.794)">
          <path id="Trazado_697008" data-name="Trazado 697008" d="M971.181,418.769c.054.036-6.051,2.117-10.134.31-3.84-1.7-6.747-8.016-6.688-8.021,1.745-.081,3.665-1.606,5.145-11.627l.745.269,12.507,4.5s-.906,4.015-1.494,7.832C970.764,415.243,970.5,418.315,971.181,418.769Z" transform="translate(-954.358 -399.43)" fill="#ffb27d"/>
        </g>
        <g id="Grupo_972792" data-name="Grupo 972792" transform="translate(38.592 31.058)">
          <path id="Trazado_697009" data-name="Trazado 697009" d="M979.987,404.528s-.5,2.167-1.229,6.208A14.135,14.135,0,0,1,967.48,400.02Z" transform="translate(-967.48 -400.02)" fill="#ed975d"/>
        </g>
        <g id="Grupo_972793" data-name="Grupo 972793" transform="translate(37.343 9.447)">
          <path id="Trazado_697010" data-name="Trazado 697010" d="M980.313,381.946s-17.109-2.3-15.512-12.937.467-18.091,11.457-17.073,12.5,5.4,12.83,9.075S984.808,382.269,980.313,381.946Z" transform="translate(-964.695 -351.843)" fill="#ffb27d"/>
        </g>
        <g id="Grupo_972794" data-name="Grupo 972794" transform="translate(32.433 8.508)">
          <path id="Trazado_697011" data-name="Trazado 697011" d="M982.433,354.026s-10.959,9.438-18.41,10.2-10.273-1.633-10.273-1.633a29.153,29.153,0,0,0,7.038-9.528,5.243,5.243,0,0,1,4.32-3.086C970.433,349.517,980.517,349.311,982.433,354.026Z" transform="translate(-953.75 -349.751)" fill="#233862"/>
        </g>
        <g id="Grupo_972795" data-name="Grupo 972795" transform="translate(54.271 9.894)">
          <path id="Trazado_697012" data-name="Trazado 697012" d="M1002.43,354.886s3.665,3.544,4.818,6.173c1.112,2.534,1.444,8.6.556,11.013,0,0,5.715-11.1,2.485-16.495C1006.858,349.853,1002.43,354.886,1002.43,354.886Z" transform="translate(-1002.43 -352.84)" fill="#233862"/>
        </g>
        <g id="Grupo_972796" data-name="Grupo 972796" transform="translate(18.007 42.018)">
          <path id="Trazado_697013" data-name="Trazado 697013" d="M967.512,457.781c-.529,34.64-.153,27.4-3.943,30.688-.915.79-3.481,1.261-6.859,1.485-10.622.7-29.293-1.054-30-3.019-2.449-6.792-.718-8.9-2.759-19.3-.211-1.108-.476-2.3-.785-3.607-1.7-7.141-3.36-9.573,2.691-21.043,5.486-10.389,11.188-18.827,11.7-18.522,14.462,8.59,15.633,1.373,15.633,1.373S967.772,440.883,967.512,457.781Z" transform="translate(-921.591 -424.452)" fill="#2f539b"/>
        </g>
        <g id="Grupo_972797" data-name="Grupo 972797" transform="translate(78.221 140.702)">
          <path id="Trazado_697014" data-name="Trazado 697014" d="M1078.572,668.417l-11.129,29.925a17.963,17.963,0,0,1-5.908-.543,25.774,25.774,0,0,1-5.715-2.781s3.1-32.132,8.864-50.578Z" transform="translate(-1055.82 -644.44)" fill="#eda411"/>
        </g>
        <g id="Grupo_972798" data-name="Grupo 972798" transform="translate(49.605 43.399)">
          <path id="Trazado_697015" data-name="Trazado 697015" d="M992.03,427.53s14.884,2.53,16.629,8.94,7.487,45.312,7.487,45.312-4.2,4.1-7.693.6-10.99-36.4-10.99-36.4Z" transform="translate(-992.03 -427.53)" fill="#2f539b"/>
        </g>
        <g id="Grupo_972799" data-name="Grupo 972799" transform="translate(20.366 70.767)">
          <path id="Trazado_697016" data-name="Trazado 697016" d="M959.61,525.288c-10.622.7-29.293-1.054-30-3.019-2.449-6.792-.718-8.9-2.759-19.3l5.127-14.426s-.852,16.064,3.885,20.29,19.392,8.164,21.7,11.695A12.985,12.985,0,0,1,959.61,525.288Z" transform="translate(-926.85 -488.54)" fill="#233862"/>
        </g>
        <g id="Grupo_972800" data-name="Grupo 972800" transform="translate(40.961 99.137)">
          <path id="Trazado_697017" data-name="Trazado 697017" d="M972.76,553.4s10.479-2.328,12.17-1.4,5.823,4.32,6.339,5.5-3.764-.9-5.154-1.27c-.9-.242-3.275.583-4.45.973-4.948,1.646-7.976.8-7.976.8Z" transform="translate(-972.76 -551.782)" fill="#ffb27d"/>
        </g>
        <g id="Grupo_972801" data-name="Grupo 972801" transform="translate(0 42.017)">
          <path id="Trazado_697018" data-name="Trazado 697018" d="M915.412,424.45s-14.072.861-18.944,7.653c-6.859,9.559-20.474,50.313-12.682,55.75,8.779,6.123,39.956,1.615,39.956,1.615s1.041-4.849-.4-7.2-24.9-6.141-25.982-7.227,13.538-21.106,13.543-24.354S915.412,424.45,915.412,424.45Z" transform="translate(-881.449 -424.45)" fill="#2f539b"/>
        </g>
        <g id="Grupo_972802" data-name="Grupo 972802" transform="translate(53.638 102.276)">
          <path id="Trazado_697019" data-name="Trazado 697019" d="M1001.02,558.78s2.193,2.831,2.916,3.172a2.18,2.18,0,0,0,1.184.256l-1.48-2.665Z" transform="translate(-1001.02 -558.78)" fill="#ffb27d"/>
        </g>
        <g id="Grupo_972803" data-name="Grupo 972803" transform="translate(53.131 99.355)">
          <path id="Trazado_697020" data-name="Trazado 697020" d="M999.89,552.27l6.383,3.1a1.142,1.142,0,0,1-1.059.408,15.2,15.2,0,0,1-2.768-.763Z" transform="translate(-999.89 -552.27)" fill="#ffb27d"/>
        </g>
      </g>
      <g id="Grupo_972805" data-name="Grupo 972805" transform="translate(40.961 106.641)">
        <path id="Trazado_697021" data-name="Trazado 697021" d="M1039.438,568.532l-66.678-.022v1.471l66.086.022Z" transform="translate(-972.76 -568.51)" fill="#233862"/>
      </g>
      <g id="Grupo_972806" data-name="Grupo 972806" transform="translate(56.554 70.35)">
        <path id="Trazado_697022" data-name="Trazado 697022" d="M1007.52,525.377l50.493.018,15.2-37.767-50.417-.018Z" transform="translate(-1007.52 -487.61)" fill="#233862"/>
      </g>
      <g id="Grupo_972807" data-name="Grupo 972807" transform="translate(89.4 86.84)">
        <path id="Trazado_697023" data-name="Trazado 697023" d="M1085.649,526.774a1.749,1.749,0,0,0-1.714-2.4,3.448,3.448,0,0,0-3.1,2.4,1.749,1.749,0,0,0,1.714,2.4A3.448,3.448,0,0,0,1085.649,526.774Z" transform="translate(-1080.742 -524.37)" fill="#fff"/>
      </g>
    </g>
  </g>
</svg>
