<svg id="Grupo_973780" data-name="Grupo 973780" xmlns="http://www.w3.org/2000/svg" xmlns:xlink="http://www.w3.org/1999/xlink" width="295" height="292.427" viewBox="0 0 295 292.427">
  <defs>
    <clipPath id="clip-path">
      <rect id="Rectángulo_339669" data-name="Rectángulo 339669" width="295" height="292.427" fill="none"/>
    </clipPath>
    <clipPath id="clip-path-2">
      <rect id="Rectángulo_339674" data-name="Rectángulo 339674" width="122.638" height="100.996" fill="none"/>
    </clipPath>
  </defs>
  <g id="Grupo_973775" data-name="Grupo 973775">
    <g id="Grupo_973774" data-name="Grupo 973774" clip-path="url(#clip-path)">
      <path id="Trazado_704569" data-name="Trazado 704569" d="M264.752,33.6c-4.929,24,29.116,77.579,74.868,54.249S272.221-2.763,264.752,33.6" transform="translate(-73.627 -6.417)" fill="#ebd4ae"/>
      <path id="Trazado_704570" data-name="Trazado 704570" d="M136.282,369.238c-13.649,19.329,102.094,33.72,85.847,10.214-15.206-22-68.95-34.143-85.847-10.214" transform="translate(-37.655 -99.221)" fill="#ebd4ae"/>
      <path id="Trazado_704571" data-name="Trazado 704571" d="M10.136,134.628c0,67.115,16.557,100.094,61.924,116.362,31.524,11.3,60.9-3.549,103.984,14.5,32.969,13.807,83.152-8.833,99.055-53.475,11.141-31.275,12.451-91.215-40.4-104.7-63.69-16.25-48.9-91.959-151.833-68.17C38.118,49.485,10.136,89.8,10.136,134.628" transform="translate(-2.824 -9.627)" fill="#ebd4ae"/>
      <path id="Trazado_704572" data-name="Trazado 704572" d="M184.874,307.5v-8.39c-21.729,0-54.827-3.217-54.827-43.623,0,0,4.6,36.409,54.827,36.409v-8.383l11.99,11.99Z" transform="translate(-36.231 -71.179)" fill="#cc4e49"/>
      <path id="Trazado_704573" data-name="Trazado 704573" d="M196.791,295.62a.184.184,0,0,1-.132-.055l-11.67-11.671v7.932a.187.187,0,0,1-.187.187c-26.018,0-39.59-9.937-46.392-18.273a40.32,40.32,0,0,1-8.621-18.3.187.187,0,0,1,.162-.208.19.19,0,0,1,.21.162,39.9,39.9,0,0,0,8.551,18.125c6.737,8.247,20.165,18.073,45.9,18.12v-8.2a.186.186,0,0,1,.318-.131l11.99,11.99a.186.186,0,0,1-.132.318" transform="translate(-36.159 -71.107)" fill="#1f160f"/>
      <path id="Trazado_704574" data-name="Trazado 704574" d="M203.138,81.016v8.39c21.729,0,54.827,3.217,54.827,43.623,0,0-4.6-36.409-54.827-36.409V105l-11.99-11.99Z" transform="translate(-53.253 -22.571)" fill="#cc4e49"/>
      <path id="Trazado_704575" data-name="Trazado 704575" d="M257.893,137.777a.187.187,0,0,1-.185-.163,39.918,39.918,0,0,0-8.551-18.126c-6.737-8.246-20.165-18.073-45.9-18.12v8.2a.187.187,0,0,1-.318.132l-11.99-11.99a.187.187,0,0,1,.263-.265l11.672,11.672v-7.933a.186.186,0,0,1,.186-.186c26.018,0,39.588,9.937,46.393,18.272a40.328,40.328,0,0,1,8.62,18.3.188.188,0,0,1-.162.208h-.023" transform="translate(-53.181 -27.132)" fill="#1f160f"/>
      <rect id="Rectángulo_339644" data-name="Rectángulo 339644" width="36.07" height="25.97" transform="translate(193.289 258.232)" fill="#fabc5f"/>
      <path id="Trazado_704576" data-name="Trazado 704576" d="M268.975,363.729h0a4.04,4.04,0,0,1-4.04-4.04v-1.731h8.08v1.731a4.04,4.04,0,0,1-4.041,4.04" transform="translate(-73.81 -99.726)" fill="#fff"/>
      <path id="Trazado_704577" data-name="Trazado 704577" d="M280.175,363.729h0a4.04,4.04,0,0,1-4.04-4.04v-1.731h8.08v1.731a4.04,4.04,0,0,1-4.04,4.04" transform="translate(-76.931 -99.726)" fill="#cc4e49"/>
      <path id="Trazado_704578" data-name="Trazado 704578" d="M291.375,363.729h0a4.04,4.04,0,0,1-4.041-4.04v-1.731h8.08v1.731a4.04,4.04,0,0,1-4.04,4.04" transform="translate(-80.051 -99.726)" fill="#fff"/>
      <path id="Trazado_704579" data-name="Trazado 704579" d="M302.575,363.729h0a4.04,4.04,0,0,1-4.041-4.04v-1.731h8.08v1.731a4.04,4.04,0,0,1-4.04,4.04" transform="translate(-83.171 -99.726)" fill="#cc4e49"/>
      <path id="Trazado_704580" data-name="Trazado 704580" d="M313.775,363.729h0a4.04,4.04,0,0,1-4.041-4.04v-1.731h8.08v1.731a4.04,4.04,0,0,1-4.04,4.04" transform="translate(-86.291 -99.726)" fill="#fff"/>
      <path id="Trazado_704581" data-name="Trazado 704581" d="M301.005,345.958H269.263l-4.328,8.657h40.4Z" transform="translate(-73.81 -96.383)" fill="#fff"/>
      <path id="Trazado_704582" data-name="Trazado 704582" d="M285.657,345.958h-6.636l-2.886,8.657h8.079Z" transform="translate(-76.931 -96.383)" fill="#cc4e49"/>
      <path id="Trazado_704583" data-name="Trazado 704583" d="M296.535,345.958h6.637l2.886,8.657h-8.08Z" transform="translate(-82.614 -96.383)" fill="#cc4e49"/>
      <path id="Trazado_704584" data-name="Trazado 704584" d="M301.955,341.958h-30.3a.721.721,0,0,0-.721.721v2.164h31.742v-2.164a.722.722,0,0,0-.721-.721" transform="translate(-75.482 -95.269)" fill="#fabc5f"/>
      <rect id="Rectángulo_339645" data-name="Rectángulo 339645" width="6.493" height="12.985" transform="translate(198.979 271.217)" fill="#fff"/>
      <rect id="Rectángulo_339646" data-name="Rectángulo 339646" width="16.592" height="6.493" transform="translate(209.664 271.217)" fill="#fff"/>
      <path id="Trazado_704585" data-name="Trazado 704585" d="M305.261,358.073h-40.4a.187.187,0,0,1,0-.374h40.4a.187.187,0,1,1,0,.374" transform="translate(-73.738 -99.654)" fill="#1f160f"/>
      <rect id="Rectángulo_339647" data-name="Rectángulo 339647" width="22.597" height="22.597" transform="translate(76.447 232.749)" fill="#fabc5f"/>
      <rect id="Rectángulo_339648" data-name="Rectángulo 339648" width="11.299" height="22.597" transform="translate(65.148 232.749)" fill="#e59e47"/>
      <rect id="Rectángulo_339649" data-name="Rectángulo 339649" width="0.374" height="22.597" transform="translate(76.259 232.749)" fill="#1f160f"/>
      <path id="Trazado_704586" data-name="Trazado 704586" d="M122.892,322.635v8.217l-1.027-1.027-1.027,1.027-1.027-1.027-1.027,1.027v-8.217Z" transform="translate(-33.093 -89.885)" fill="#f5e5c9"/>
      <rect id="Rectángulo_339650" data-name="Rectángulo 339650" width="22.597" height="22.597" transform="translate(62.396 207.07)" fill="#fabc5f"/>
      <rect id="Rectángulo_339651" data-name="Rectángulo 339651" width="11.299" height="22.597" transform="translate(51.098 207.07)" fill="#e59e47"/>
      <rect id="Rectángulo_339652" data-name="Rectángulo 339652" width="0.374" height="22.597" transform="translate(62.209 207.07)" fill="#1f160f"/>
      <path id="Trazado_704587" data-name="Trazado 704587" d="M103.416,287.039v8.218l-1.027-1.027-1.027,1.027-1.027-1.027-1.027,1.027v-8.218Z" transform="translate(-27.667 -79.969)" fill="#f5e5c9"/>
      <rect id="Rectángulo_339653" data-name="Rectángulo 339653" width="22.597" height="22.597" transform="translate(48.483 232.749)" fill="#fabc5f"/>
      <rect id="Rectángulo_339654" data-name="Rectángulo 339654" width="11.299" height="22.597" transform="translate(37.185 232.749)" fill="#e59e47"/>
      <rect id="Rectángulo_339655" data-name="Rectángulo 339655" width="0.374" height="22.597" transform="translate(48.296 232.749)" fill="#1f160f"/>
      <path id="Trazado_704588" data-name="Trazado 704588" d="M84.13,322.635v8.217L83.1,329.825l-1.027,1.027-1.027-1.027-1.027,1.027v-8.217Z" transform="translate(-22.294 -89.885)" fill="#f5e5c9"/>
      <path id="Trazado_704589" data-name="Trazado 704589" d="M314.2,95.544A191.671,191.671,0,0,0,281.25,80.873q2.532-7.521,5.063-15.042a207.527,207.527,0,0,1,35.681,15.886L314.2,95.544" transform="translate(-78.356 -18.34)" fill="#1f160f"/>
      <path id="Trazado_704590" data-name="Trazado 704590" d="M313.529,97.153a191.673,191.673,0,0,0-34.673-9.942q1.459-7.8,2.919-15.6a207.506,207.506,0,0,1,37.544,10.765l-5.79,14.776" transform="translate(-77.689 -19.951)" fill="#0c723c"/>
      <path id="Trazado_704591" data-name="Trazado 704591" d="M317.615,86.752l-2.606,6.726a3.623,3.623,0,0,0-2.81.068,3.51,3.51,0,0,0-1.889,2.016,192.491,192.491,0,0,0-26.463-7.588,3.507,3.507,0,0,0-.533-2.712,3.625,3.625,0,0,0-2.347-1.546q.676-3.542,1.353-7.086a3.993,3.993,0,0,0,2.867-.514,3.487,3.487,0,0,0,1.633-2.261,206.7,206.7,0,0,1,28.448,8.157,3.486,3.486,0,0,0,.187,2.783,4,4,0,0,0,2.159,1.955" transform="translate(-78.277 -20.576)" fill="#1c8c4f"/>
      <path id="Trazado_704592" data-name="Trazado 704592" d="M309.265,87.978a5.266,5.266,0,0,0-10.121-2.9,5.272,5.272,0,0,0,10.121,2.9" transform="translate(-83.298 -22.674)" fill="#0c723c"/>
      <path id="Trazado_704593" data-name="Trazado 704593" d="M321.595,92.778a2.26,2.26,0,1,0-2.837,1.3,2.2,2.2,0,0,0,2.837-1.3" transform="translate(-88.377 -25.033)" fill="#0c723c"/>
      <path id="Trazado_704594" data-name="Trazado 704594" d="M288.867,83.4a2.26,2.26,0,1,1,1.718,2.6,2.2,2.2,0,0,1-1.718-2.6" transform="translate(-80.464 -22.767)" fill="#0c723c"/>
      <path id="Trazado_704595" data-name="Trazado 704595" d="M307.051,88.073a1.364,1.364,0,0,0-.338-.566,3.161,3.161,0,0,0-.558-.45c-.164-.1-.333-.2-.5-.294q.219-.757.438-1.514a3.137,3.137,0,0,1,1.165.772l.55-.663a3.044,3.044,0,0,0-.755-.6,4.247,4.247,0,0,0-.723-.333q.12-.419.242-.836l-.656-.188c-.081.284-.162.566-.242.848a2.858,2.858,0,0,0-.9-.045,1.711,1.711,0,0,0-.9.368,1.429,1.429,0,0,0-.46.723,1.3,1.3,0,0,0-.014.744,1.358,1.358,0,0,0,.348.564,3.383,3.383,0,0,0,.566.448c.159.1.32.2.483.285q-.213.748-.427,1.5a3.2,3.2,0,0,1-.7-.367,3.051,3.051,0,0,1-.7-.642q-.282.333-.562.667a2.928,2.928,0,0,0,.8.714,4.293,4.293,0,0,0,.926.444q-.119.42-.239.838l.632.182q.122-.423.245-.847a2.806,2.806,0,0,0,.892.048,1.7,1.7,0,0,0,.893-.357,1.434,1.434,0,0,0,.469-.707,1.262,1.262,0,0,0,.027-.731m-2.141-1.739a1.337,1.337,0,0,1-.4-.361.5.5,0,0,1-.068-.439.6.6,0,0,1,.223-.324.857.857,0,0,1,.467-.149,1.593,1.593,0,0,1,.305.012q-.192.674-.384,1.347c-.048-.028-.1-.057-.142-.085m.87,2.556a.876.876,0,0,1-.46.131,1.7,1.7,0,0,1-.315-.019c.128-.443.255-.886.384-1.328.052.031.106.063.155.095a1.4,1.4,0,0,1,.4.369.5.5,0,0,1,.066.44.568.568,0,0,1-.227.313" transform="translate(-84.249 -23.235)" fill="#f5e5c9"/>
      <path id="Trazado_704596" data-name="Trazado 704596" d="M337.787,114.2a22.363,22.363,0,1,1,22.363-22.363A22.388,22.388,0,0,1,337.787,114.2" transform="translate(-87.877 -19.355)" fill="#e59e47"/>
      <path id="Trazado_704597" data-name="Trazado 704597" d="M343.787,114.2a22.363,22.363,0,1,1,22.363-22.363A22.388,22.388,0,0,1,343.787,114.2" transform="translate(-89.548 -19.355)" fill="#fabc5f"/>
      <path id="Trazado_704598" data-name="Trazado 704598" d="M363.425,81.145c-.179-.328-.367-.649-.562-.967L345.316,90.308l10.131-17.547q-.476-.293-.967-.561L344.348,89.747V69.487c-.187-.005-.373-.014-.56-.014s-.373.009-.56.014v20.26L333.1,72.2q-.491.269-.968.562l10.131,17.547L324.712,80.177q-.293.477-.562.967L341.7,91.277h-20.26c-.005.187-.014.372-.014.56s.009.374.014.561H341.7L324.15,102.528q.269.49.562.967l17.547-10.131-10.131,17.547q.477.293.968.563l10.131-17.55v20.261c.187,0,.372.014.56.014s.374-.009.56-.014V93.925l10.131,17.549q.491-.269.967-.562L345.316,93.365,362.863,103.5c.195-.317.383-.641.562-.967L345.877,92.4h20.261c0-.187.014-.372.014-.561s-.009-.373-.014-.56H345.877Z" transform="translate(-89.548 -19.355)" fill="#e59e47"/>
      <path id="Trazado_704599" data-name="Trazado 704599" d="M343.715,114.315a22.55,22.55,0,0,1,0-45.1.187.187,0,1,1,0,.374,22.177,22.177,0,1,0,0,44.353.187.187,0,1,1,0,.374" transform="translate(-89.476 -19.283)" fill="#1f160f"/>
      <path id="Trazado_704600" data-name="Trazado 704600" d="M363.494,93.508a18.035,18.035,0,1,0-18.035,18.035,18.035,18.035,0,0,0,18.035-18.035" transform="translate(-91.22 -21.027)" fill="#e59e47"/>
      <path id="Trazado_704601" data-name="Trazado 704601" d="M345.386,111.658a.187.187,0,0,1,0-.374,17.848,17.848,0,1,0-17.848-17.848.186.186,0,1,1-.373,0,18.221,18.221,0,1,1,18.221,18.222" transform="translate(-91.148 -20.954)" fill="#1f160f"/>
      <path id="Trazado_704602" data-name="Trazado 704602" d="M355.65,97.709a3.715,3.715,0,0,0-1.288-1.234,8.388,8.388,0,0,0-1.753-.757c-.492-.151-.992-.273-1.493-.394V90.973a7.979,7.979,0,0,1,3.506,1.141l.887-2.186a7.827,7.827,0,0,0-2.337-1,10.928,10.928,0,0,0-2.056-.325v-2.4h-1.775v2.435a7.227,7.227,0,0,0-2.3.561,4.548,4.548,0,0,0-2.013,1.645,4.1,4.1,0,0,0-.66,2.262,3.705,3.705,0,0,0,.487,1.992,3.661,3.661,0,0,0,1.288,1.244,8.589,8.589,0,0,0,1.764.768c.48.151.959.278,1.439.392v4.3a8.2,8.2,0,0,1-2.078-.447,7.872,7.872,0,0,1-2.251-1.191l-.974,2.187a7.678,7.678,0,0,0,2.586,1.309,11.06,11.06,0,0,0,2.716.485v2.4h1.775v-2.433a7.323,7.323,0,0,0,2.337-.563,4.541,4.541,0,0,0,2.024-1.646,4.064,4.064,0,0,0,.66-2.24,3.6,3.6,0,0,0-.487-1.959m-6.731-2.954a3.428,3.428,0,0,1-1.277-.66,1.4,1.4,0,0,1-.487-1.115,1.712,1.712,0,0,1,.335-1.027,2.278,2.278,0,0,1,1.071-.747,3.961,3.961,0,0,1,.779-.2v3.866c-.141-.04-.289-.078-.422-.118m4.1,6.114a2.307,2.307,0,0,1-1.082.7,4.269,4.269,0,0,1-.822.19V97.944c.156.045.318.087.465.133a3.658,3.658,0,0,1,1.288.671,1.388,1.388,0,0,1,.5,1.114,1.594,1.594,0,0,1-.346,1.006" transform="translate(-95.849 -24.017)" fill="#f5e5c9"/>
      <path id="Trazado_704603" data-name="Trazado 704603" d="M159.556,27.443v25.97H117.715V31.771a1.443,1.443,0,0,1,1.443-1.443h18.756l2.457-3.686a1.443,1.443,0,0,1,1.2-.643h16.542a1.443,1.443,0,0,1,1.443,1.443" transform="translate(-32.795 -7.244)" fill="#e59e47"/>
      <rect id="Rectángulo_339656" data-name="Rectángulo 339656" width="8.657" height="3.607" transform="translate(100.492 37.991)" fill="#fff"/>
      <rect id="Rectángulo_339657" data-name="Rectángulo 339657" width="8.657" height="3.607" transform="translate(110.84 37.991)" fill="#fff"/>
      <path id="Trazado_704604" data-name="Trazado 704604" d="M127.578,26.365h-2.886l.391-14.428h2.1Z" transform="translate(-34.739 -3.326)" fill="#1f160f"/>
      <path id="Trazado_704605" data-name="Trazado 704605" d="M138.484,26.365H135.6l.391-14.428h2.1Z" transform="translate(-37.778 -3.326)" fill="#1f160f"/>
      <path id="Trazado_704606" data-name="Trazado 704606" d="M164.752,18.757h-4.328L160.933,0h3.31Z" transform="translate(-44.694 0)" fill="#fff"/>
      <path id="Trazado_704607" data-name="Trazado 704607" d="M160.548,20.56H164.7l-.058-2.164h-4.03Z" transform="translate(-44.728 -5.125)" fill="#cc4e49"/>
      <path id="Trazado_704608" data-name="Trazado 704608" d="M160.832,10.1h3.738l-.058-2.164h-3.621Z" transform="translate(-44.808 -2.211)" fill="#cc4e49"/>
      <rect id="Rectángulo_339658" data-name="Rectángulo 339658" width="3.607" height="0.721" transform="translate(116.09)" fill="#1f160f"/>
      <rect id="Rectángulo_339659" data-name="Rectángulo 339659" width="5.05" height="10.1" transform="translate(91.157 36.07)" fill="#fff"/>
      <rect id="Rectángulo_339660" data-name="Rectángulo 339660" width="1.443" height="1.443" transform="translate(89.496 27.186)" fill="#fff"/>
      <rect id="Rectángulo_339661" data-name="Rectángulo 339661" width="1.443" height="1.443" transform="translate(93.96 27.186)" fill="#fff"/>
      <rect id="Rectángulo_339662" data-name="Rectángulo 339662" width="1.443" height="1.443" transform="translate(98.424 27.186)" fill="#fff"/>
      <rect id="Rectángulo_339663" data-name="Rectángulo 339663" width="1.443" height="1.443" transform="translate(102.888 27.186)" fill="#fff"/>
      <rect id="Rectángulo_339664" data-name="Rectángulo 339664" width="1.443" height="1.443" transform="translate(107.351 27.186)" fill="#fff"/>
      <rect id="Rectángulo_339665" data-name="Rectángulo 339665" width="1.443" height="1.443" transform="translate(111.815 27.186)" fill="#fff"/>
      <rect id="Rectángulo_339666" data-name="Rectángulo 339666" width="1.443" height="1.443" transform="translate(116.278 27.186)" fill="#fff"/>
      <rect id="Rectángulo_339667" data-name="Rectángulo 339667" width="1.443" height="1.443" transform="translate(120.742 27.186)" fill="#fff"/>
      <path id="Trazado_704609" data-name="Trazado 704609" d="M127.787,237.641,5.149,242.973v-5.333Z" transform="translate(-1.434 -66.206)" fill="#1f160f"/>
      <rect id="Rectángulo_339668" data-name="Rectángulo 339668" width="122.638" height="100.996" transform="translate(3.714 70.438)" fill="#fff"/>
    </g>
  </g>
  <g id="Grupo_973777" data-name="Grupo 973777" transform="translate(3.714 70.439)">
    <g id="Grupo_973776" data-name="Grupo 973776" clip-path="url(#clip-path-2)">
      <rect id="Rectángulo_339670" data-name="Rectángulo 339670" width="24.528" height="38.956" transform="translate(76.698 0.001)" fill="#f5e5c9"/>
      <rect id="Rectángulo_339671" data-name="Rectángulo 339671" width="24.528" height="38.956" transform="translate(104.111 0.001)" fill="#f5e5c9"/>
      <rect id="Rectángulo_339672" data-name="Rectángulo 339672" width="24.528" height="38.956" transform="translate(76.698 41.843)" fill="#f5e5c9"/>
      <rect id="Rectángulo_339673" data-name="Rectángulo 339673" width="24.528" height="38.956" transform="translate(104.111 41.843)" fill="#f5e5c9"/>
      <path id="Trazado_704610" data-name="Trazado 704610" d="M61.765,177.428c-.512-6.051-4.88-10.957-9.754-10.957H11.017l6.236,54.065H65.416Z" transform="translate(-6.784 -116.818)" fill="#f5e5c9"/>
      <path id="Trazado_704611" data-name="Trazado 704611" d="M21.353,220.536H3.7L.049,177.428c-.512-6.051,3.024-10.956,7.9-10.956s9.242,4.9,9.754,10.956Z" transform="translate(-3.714 -116.818)" fill="#ebd4ae"/>
    </g>
  </g>
  <g id="Grupo_973779" data-name="Grupo 973779">
    <g id="Grupo_973778" data-name="Grupo 973778" clip-path="url(#clip-path)">
      <path id="Trazado_704612" data-name="Trazado 704612" d="M5.076,194.263a.187.187,0,0,1-.187-.187V97.569a.187.187,0,0,1,.187-.187H127.714a.187.187,0,0,1,.187.187v56.38a.187.187,0,0,1-.374,0V97.756H5.263v96.321a.187.187,0,0,1-.187.187" transform="translate(-1.362 -27.13)" fill="#1f160f"/>
      <path id="Trazado_704613" data-name="Trazado 704613" d="M85.925,137.242l-13.438.275V124.235H85.925Z" transform="translate(-20.195 -34.612)" fill="#eba38d"/>
      <path id="Trazado_704614" data-name="Trazado 704614" d="M86.506,133.348v-9.113H74.573s-.423,10.128,11.933,9.113" transform="translate(-20.776 -34.612)" fill="#1f160f"/>
      <path id="Trazado_704615" data-name="Trazado 704615" d="M90,92.872h.8s-1.777-5.234-6.624-4.108C82.9,86,78.8,86.358,78.8,86.358l1.013,1.1c-12.666-2.49-15.668,8.822-15.668,8.822l1.465-.464c-1.223,3.952-.839,8.956,1.842,14.353l20.571.408c1.621-2.831,1.674-6.533,2.272-8.906a12.656,12.656,0,0,0-.289-8.8" transform="translate(-17.87 -24.055)" fill="#1f160f"/>
      <path id="Trazado_704616" data-name="Trazado 704616" d="M91.052,110.4c-.175,9.988-1.8,13.693-8.785,13.571s-12.1-3.945-11.928-13.932,6.674-13.227,10.589-13.158,10.3,3.539,10.123,13.52" transform="translate(-19.595 -26.989)" fill="#eba38d"/>
      <path id="Trazado_704617" data-name="Trazado 704617" d="M64.388,113c.432-3.244,2.7-4.08,5.03-1.58l-.126,7.252c-2.959,2.366-5.335-2.428-4.9-5.672" transform="translate(-17.924 -30.636)" fill="#eba38d"/>
      <path id="Trazado_704618" data-name="Trazado 704618" d="M65.882,113.949a.178.178,0,0,1-.054-.008.187.187,0,0,1-.125-.232,1.725,1.725,0,0,1,1.313-1.358,2.067,2.067,0,0,1,1.918.995.187.187,0,1,1-.307.213,1.7,1.7,0,0,0-1.553-.839c-.47.074-.82.453-1.014,1.1a.188.188,0,0,1-.179.133" transform="translate(-18.303 -31.296)" fill="#1f160f"/>
      <path id="Trazado_704619" data-name="Trazado 704619" d="M76.3,100.664c6.7,3,9.773-2.053,13.932-.345,2.044.84.434-6.375-8.334-6.528C70.94,93.6,70.61,104.623,70.675,106.425c.072,2.013,1.158,5.181,1.54,3.814,1.85-6.6,3.447-4.385,4.09-9.575" transform="translate(-19.688 -26.129)" fill="#1f160f"/>
      <path id="Trazado_704620" data-name="Trazado 704620" d="M79.7,114.57h4.561a.721.721,0,0,0,.721-.721v-1.857a.721.721,0,0,0-.721-.721H79.7a.722.722,0,0,0-.721.721v1.857a.722.722,0,0,0,.721.721" transform="translate(-22.003 -31)" fill="#fff"/>
      <path id="Trazado_704621" data-name="Trazado 704621" d="M90.508,114.57h4.014a.721.721,0,0,0,.721-.721v-1.857a.721.721,0,0,0-.721-.721H90.508a.722.722,0,0,0-.721.721v1.857a.722.722,0,0,0,.721.721" transform="translate(-25.014 -31)" fill="#fff"/>
      <path id="Trazado_704622" data-name="Trazado 704622" d="M89.067,113H86.452a.187.187,0,0,1,0-.374h2.615a.187.187,0,0,1,0,.374" transform="translate(-24.034 -31.377)" fill="#fff"/>
      <path id="Trazado_704623" data-name="Trazado 704623" d="M76.784,112.218a.182.182,0,0,1-.058-.009l-6.171-2-.59.221a.186.186,0,1,1-.131-.349l.651-.245a.184.184,0,0,1,.123,0l6.234,2.023a.187.187,0,0,1-.058.364" transform="translate(-19.422 -30.596)" fill="#fff"/>
      <path id="Trazado_704624" data-name="Trazado 704624" d="M97.021,112.915a.187.187,0,0,1-.026-.372l1.556-.219a.19.19,0,0,1,.211.159.188.188,0,0,1-.159.211l-1.555.219h-.027" transform="translate(-26.978 -31.293)" fill="#fff"/>
      <path id="Trazado_704625" data-name="Trazado 704625" d="M87.666,119.972a1.246,1.246,0,0,1-.517-.109.187.187,0,1,1,.154-.34,1.243,1.243,0,0,0,1.148-.193,1.089,1.089,0,0,0,.519-.623,3.848,3.848,0,0,0-.23-.712,8.607,8.607,0,0,1-.707-3.117.173.173,0,0,1,.19-.184.187.187,0,0,1,.184.19,8.288,8.288,0,0,0,.682,2.979,3.331,3.331,0,0,1,.254.83c.012.33-.335.713-.685.946a1.8,1.8,0,0,1-.993.333" transform="translate(-24.249 -31.953)" fill="#1f160f"/>
      <path id="Trazado_704626" data-name="Trazado 704626" d="M93.521,113.379c-.011.618-.354,1.114-.766,1.107s-.738-.514-.727-1.133.354-1.115.766-1.107.738.514.727,1.133" transform="translate(-25.639 -31.271)" fill="#1f160f"/>
      <path id="Trazado_704627" data-name="Trazado 704627" d="M94.3,110.573a.558.558,0,0,1-.258-.062,3.531,3.531,0,0,0-2.664-.307.56.56,0,1,1-.226-1.1,4.655,4.655,0,0,1,3.406.408.56.56,0,0,1-.258,1.057" transform="translate(-25.271 -30.357)" fill="#1f160f"/>
      <path id="Trazado_704628" data-name="Trazado 704628" d="M82.324,113.14c-.011.619.315,1.125.727,1.133s.755-.488.766-1.107-.315-1.125-.727-1.133-.755.488-.766,1.107" transform="translate(-22.935 -31.212)" fill="#1f160f"/>
      <path id="Trazado_704629" data-name="Trazado 704629" d="M80.518,110.2a.56.56,0,0,1-.291-1.039,4.93,4.93,0,0,1,3.805-.525.56.56,0,1,1-.193,1.1,3.793,3.793,0,0,0-3.031.379.561.561,0,0,1-.29.082" transform="translate(-22.276 -30.225)" fill="#1f160f"/>
      <path id="Trazado_704630" data-name="Trazado 704630" d="M87.18,125.07a5.559,5.559,0,0,1-4.158-1.4s-.273,1.5.838,2.052c1.465.727,3.32-.647,3.32-.647" transform="translate(-23.121 -34.453)" fill="#fff"/>
      <path id="Trazado_704631" data-name="Trazado 704631" d="M104.565,176.955c-4.509.837-9.66-4.752-14.984-15.234,0,0,.866,14.188,1.826,48.675H45.3l.957-27.262s-3.52-5.914-3.375-9.7c.707-17.992,3.2-24.642,5.771-27.614,4.66-5.389,17.826-6.125,23.417-5.944,7.914.245,13.873.931,17.1,1.854,3.8,1.082,11.377,9.58,17.205,21.231,0,0,5.879,12.545-1.818,14" transform="translate(-11.947 -38.962)" fill="#1c8c4f"/>
      <path id="Trazado_704632" data-name="Trazado 704632" d="M85.925,140.036c0,3.164-1.325,6.951-5.19,6.951s-8.248-3.242-8.248-7.156c0,0,4.287-.284,7.277-.284a46.916,46.916,0,0,1,6.161.488" transform="translate(-20.195 -38.878)" fill="#eba38d"/>
      <path id="Trazado_704633" data-name="Trazado 704633" d="M107.274,165.679a.187.187,0,0,1-.187-.181c-.123-4.091-.714-11.836-.72-11.914a.186.186,0,0,1,.372-.029c.007.079.6,7.832.722,11.931a.187.187,0,0,1-.181.193Z" transform="translate(-29.633 -42.732)" fill="#1f160f"/>
      <path id="Trazado_704634" data-name="Trazado 704634" d="M73.581,149.463c5.433-3.707,8.465-2.195,12.147-.286a43.112,43.112,0,0,0,1.234-9.354l-2.025-1.654c0,2.3-2.144,7.981-5.034,7.981-7.124,0-8.405-7.981-8.405-7.981l-2.559,1.847c.323,4.014,4.642,9.446,4.642,9.446" transform="translate(-19.206 -38.494)" fill="#fff"/>
      <path id="Trazado_704635" data-name="Trazado 704635" d="M62.659,181.17l-.03,0a.187.187,0,0,1-.155-.214C64.149,170.4,65.389,163.569,65.4,163.5a.187.187,0,1,1,.367.067c-.012.067-1.252,6.894-2.925,17.443a.187.187,0,0,1-.184.158" transform="translate(-17.405 -45.508)" fill="#1f160f"/>
      <path id="Trazado_704636" data-name="Trazado 704636" d="M84.065,160.684h-.006a.187.187,0,0,1-.18-.193c0-.051.178-5.248,0-9.384a.186.186,0,0,1,.178-.195.176.176,0,0,1,.194.179c.179,4.15,0,9.361,0,9.413a.187.187,0,0,1-.187.18" transform="translate(-23.368 -42.043)" fill="#1f160f"/>
      <rect id="Rectángulo_339675" data-name="Rectángulo 339675" width="31.747" height="45.065" transform="translate(61.647 128.441)" fill="#e59e47"/>
      <rect id="Rectángulo_339676" data-name="Rectángulo 339676" width="39.677" height="45.065" transform="translate(93.394 128.441)" fill="#fabc5f"/>
      <rect id="Rectángulo_339677" data-name="Rectángulo 339677" width="0.374" height="45.065" transform="translate(93.207 128.441)" fill="#1f160f"/>
      <rect id="Rectángulo_339678" data-name="Rectángulo 339678" width="14.428" height="4.328" transform="translate(98.626 164.816)" fill="#f5e5c9"/>
      <rect id="Rectángulo_339679" data-name="Rectángulo 339679" width="5.771" height="4.328" transform="translate(98.626 159.04)" fill="#f5e5c9"/>
      <rect id="Rectángulo_339680" data-name="Rectángulo 339680" width="5.771" height="4.328" transform="translate(107.283 159.04)" fill="#f5e5c9"/>
      <path id="Trazado_704637" data-name="Trazado 704637" d="M109.672,178.044v10.1l-1.2-1.443-1.2,1.443-1.2-1.443-1.2,1.443-1.2-1.443-1.2,1.443v-10.1Z" transform="translate(-28.544 -49.603)" fill="#f5e5c9"/>
      <path id="Trazado_704638" data-name="Trazado 704638" d="M72.929,213.269a62.722,62.722,0,0,0,10.686,2.417c2.606.328,8.243.949,8.433-.291.156-1.014-5.707-1.589-5.707-1.589s6.159-.463,7.5-.778c1.3-.3,1.2-1.9-.034-1.725-.968.141-7.469.27-7.469.27s7.85-.942,8.546-1.045a.934.934,0,0,0-.214-1.85c-3.314.291-9.029.528-9.029.528s7.825-1.139,8.166-1.2c1.066-.192,1.065-1.8-.369-1.655-4.567.454-10.866.526-10.866.526a2.876,2.876,0,0,1,.265-.988,2.627,2.627,0,0,1,2.515-1.18c4.583.575,3.67-1.387,3.67-1.387s-2.894-.978-4.143-1.293a13.1,13.1,0,0,0-5.681.584c-1.021.415-5.11,2.393-5.434,2.2A95.735,95.735,0,0,1,56.526,191.49l-.017-4.09a49.352,49.352,0,0,1-13.654-1s-.328,7.023.315,8.578,18.847,15.151,29.758,18.288" transform="translate(-11.916 -51.932)" fill="#eba38d"/>
      <path id="Trazado_704639" data-name="Trazado 704639" d="M100.821,222.238a47.461,47.461,0,0,1-5.656-.449,63.054,63.054,0,0,1-10.714-2.421.187.187,0,1,1,.1-.359,62.635,62.635,0,0,0,10.658,2.41c7.469.941,8.184.136,8.225-.133,0-.011.006-.04-.035-.093-.458-.59-3.543-1.09-5.505-1.282a.187.187,0,0,1,0-.372c.061-.005,6.16-.467,7.474-.773a.88.88,0,0,0,.781-.942c-.046-.247-.26-.487-.745-.416-.969.141-7.226.267-7.491.273h0a.187.187,0,0,1-.022-.372c.079-.009,7.855-.943,8.54-1.045a.685.685,0,0,0,.587-.807.706.706,0,0,0-.757-.672c-3.281.288-8.981.526-9.038.528a.2.2,0,0,1-.194-.169.186.186,0,0,1,.159-.2c.078-.012,7.825-1.139,8.16-1.2a.689.689,0,0,0,.6-.763c-.04-.293-.3-.583-.916-.522-4.523.449-10.819.527-10.882.527a.2.2,0,0,1-.139-.061.182.182,0,0,1-.048-.144,2.9,2.9,0,0,1,.3-1.073,2.785,2.785,0,0,1,2.694-1.264c2.462.308,3.194-.145,3.412-.444a.693.693,0,0,0,.091-.609c-.486-.163-2.936-.98-4.043-1.261a12.926,12.926,0,0,0-5.566.575c-.275.113-.774.338-1.362.6-3.111,1.408-3.983,1.735-4.239,1.581a.187.187,0,0,1,.193-.32h.012a32.135,32.135,0,0,0,3.881-1.6c.594-.269,1.1-.5,1.376-.61a13.212,13.212,0,0,1,5.8-.592c1.241.315,4.127,1.288,4.156,1.3a.189.189,0,0,1,.11.1,1.1,1.1,0,0,1-.1,1.057c-.473.648-1.737.848-3.76.594a2.426,2.426,0,0,0-2.336,1.1,2.063,2.063,0,0,0-.208.694c1.144-.017,6.6-.121,10.635-.522a1.084,1.084,0,0,1,1.322.843,1.057,1.057,0,0,1-.9,1.182c-.178.032-2.311.346-4.356.645,1.723-.092,3.692-.212,5.169-.342a1.079,1.079,0,0,1,1.161,1,1.051,1.051,0,0,1-.9,1.219c-.359.054-2.562.323-4.644.575,1.562-.047,3.089-.107,3.513-.169a.942.942,0,0,1,1.165.716,1.242,1.242,0,0,1-1.062,1.376c-.887.208-3.783.474-5.716.636,1.527.229,3.509.626,3.953,1.2a.488.488,0,0,1,.11.379c-.066.426-.524.9-2.986.9" transform="translate(-23.49 -57.85)" fill="#1f160f"/>
      <path id="Trazado_704640" data-name="Trazado 704640" d="M87.387,153.989a.721.721,0,1,0-.721.721.722.722,0,0,0,.721-.721" transform="translate(-23.944 -42.7)" fill="#1f160f"/>
      <path id="Trazado_704641" data-name="Trazado 704641" d="M87.387,159.489a.721.721,0,1,0-.721.721.722.722,0,0,0,.721-.721" transform="translate(-23.944 -44.232)" fill="#1f160f"/>
      <path id="Trazado_704642" data-name="Trazado 704642" d="M238.667,310.971,361.306,316.3v-5.333Z" transform="translate(-66.492 -86.636)" fill="#1f160f"/>
      <rect id="Rectángulo_339681" data-name="Rectángulo 339681" width="122.638" height="100.996" transform="translate(172.176 123.339)" fill="#fff"/>
      <rect id="Rectángulo_339682" data-name="Rectángulo 339682" width="31.069" height="82.592" transform="translate(172.176 141.743)" fill="#f5e5c9"/>
      <path id="Trazado_704643" data-name="Trazado 704643" d="M274.151,275.99a2.569,2.569,0,1,0-2.57,2.569,2.569,2.569,0,0,0,2.57-2.569" transform="translate(-74.946 -76.175)" fill="#ebd4ae"/>
      <path id="Trazado_704644" data-name="Trazado 704644" d="M358.509,250.823a23.748,23.748,0,0,0,1.984,9.875c-.022-13.73,7.518-16.435,7.518-16.435h-5.49Z" transform="translate(-99.878 -68.051)" fill="#ebd4ae"/>
      <path id="Trazado_704645" data-name="Trazado 704645" d="M363.2,252.08s12.759,5.14,12.759,26.279h18.733v-38.35c0-43.11-23.332-46.1-23.332-46.1,10.832,7.715,14.878,29.514,14.878,52.228,0,0-7.981-19.955-18.17-19.175-8.713.667-9.559,9.831-9.559,9.831,12.9-16.863,23.9,12.218,23.9,28.991,0,0-10.1-17.494-19.207-13.707" transform="translate(-99.881 -54.023)" fill="#f5e5c9"/>
      <path id="Trazado_704646" data-name="Trazado 704646" d="M273.291,272.082h-34.7a.187.187,0,0,1-.186-.187v-101a.187.187,0,0,1,.186-.186H361.232a.187.187,0,0,1,.188.186V269.79a.187.187,0,0,1-.374,0v-98.7H238.782V271.709h34.509a.187.187,0,0,1,0,.374" transform="translate(-66.42 -47.56)" fill="#1f160f"/>
      <path id="Trazado_704647" data-name="Trazado 704647" d="M320.374,160.473c6.207-1.826,8.834,3.772,10.923,15.2,1.32,7.223,2.657,13.291,8.732,15.047,3.536,1.022,12.4,5.327,8.513,15.421-3.556,9.238-21.208,11.175-35.264,6.169C291.906,204.7,302.516,182,302.516,182c-1.621-2.832-1.359-6.636-2.272-8.906-2.869-7.134,7.513-21.316,20.129-12.625" transform="translate(-83.514 -43.946)" fill="#1f160f"/>
      <path id="Trazado_704648" data-name="Trazado 704648" d="M309.706,208.677l13.438.275V195.669H309.706Z" transform="translate(-86.283 -54.513)" fill="#eba38d"/>
      <path id="Trazado_704649" data-name="Trazado 704649" d="M309.706,205.532v-9.863h12.756s-.4,10.878-12.756,9.863" transform="translate(-86.284 -54.513)" fill="#1f160f"/>
      <path id="Trazado_704650" data-name="Trazado 704650" d="M301.767,181.829c.174,9.988,1.8,13.693,8.785,13.571s12.1-3.945,11.928-13.932-6.674-13.227-10.589-13.158-10.3,3.54-10.123,13.52" transform="translate(-84.071 -46.89)" fill="#eba38d"/>
      <path id="Trazado_704651" data-name="Trazado 704651" d="M334.47,184.438c-.433-3.244-2.7-4.08-5.03-1.579l.127,7.251c2.959,2.366,5.335-2.428,4.9-5.672" transform="translate(-91.781 -50.538)" fill="#eba38d"/>
      <path id="Trazado_704652" data-name="Trazado 704652" d="M333.675,185.383a.187.187,0,0,1-.179-.133c-.194-.643-.545-1.023-1.014-1.1a1.7,1.7,0,0,0-1.553.838.186.186,0,0,1-.307-.212,2.068,2.068,0,0,1,1.918-.995,1.723,1.723,0,0,1,1.312,1.358.187.187,0,0,1-.125.232.166.166,0,0,1-.053.008" transform="translate(-92.102 -51.197)" fill="#1f160f"/>
      <path id="Trazado_704653" data-name="Trazado 704653" d="M316.108,171.406c-6.222,3.291-10.94,5.569-14.517,1.567-1.473-1.648.478-7.595,9.246-7.748,10.962-.191,11.292,10.832,11.227,12.634-.072,2.014-1.255,9.018-1.306,7.6-.31-8.777-3.694-9.337-4.65-14.053" transform="translate(-83.898 -46.031)" fill="#1f160f"/>
      <path id="Trazado_704654" data-name="Trazado 704654" d="M311.38,196.318a5.559,5.559,0,0,0,4.158-1.405s.273,1.5-.838,2.052c-1.465.727-3.32-.647-3.32-.647" transform="translate(-86.75 -54.302)" fill="#fff"/>
      <path id="Trazado_704655" data-name="Trazado 704655" d="M312.265,191.406a1.8,1.8,0,0,1-.993-.333c-.349-.234-.7-.616-.685-.945a3.363,3.363,0,0,1,.255-.832,8.322,8.322,0,0,0,.683-2.979.186.186,0,0,1,.183-.19h0a.186.186,0,0,1,.187.184,8.593,8.593,0,0,1-.706,3.116,3.917,3.917,0,0,0-.231.713,1.089,1.089,0,0,0,.519.622,1.249,1.249,0,0,0,1.149.195.186.186,0,0,1,.154.34,1.246,1.246,0,0,1-.517.109" transform="translate(-86.529 -51.855)" fill="#1f160f"/>
      <path id="Trazado_704656" data-name="Trazado 704656" d="M306.722,184.813c.012.618.353,1.114.766,1.107s.738-.514.727-1.133-.354-1.114-.765-1.106-.738.514-.727,1.133" transform="translate(-85.452 -51.173)" fill="#1f160f"/>
      <path id="Trazado_704657" data-name="Trazado 704657" d="M304.912,182.007a.56.56,0,0,1-.259-1.057,4.652,4.652,0,0,1,3.406-.409.56.56,0,0,1-.226,1.1,3.531,3.531,0,0,0-2.664.307.559.559,0,0,1-.257.063" transform="translate(-84.792 -50.258)" fill="#1f160f"/>
      <path id="Trazado_704658" data-name="Trazado 704658" d="M317.92,184.574c.011.618-.315,1.125-.727,1.133s-.755-.488-.766-1.107.315-1.125.727-1.133.755.488.766,1.107" transform="translate(-88.156 -51.114)" fill="#1f160f"/>
      <path id="Trazado_704659" data-name="Trazado 704659" d="M318.549,181.632a.565.565,0,0,1-.291-.082,3.794,3.794,0,0,0-3.031-.379.56.56,0,1,1-.193-1.1,4.927,4.927,0,0,1,3.8.527.56.56,0,0,1-.291,1.038" transform="translate(-87.639 -50.127)" fill="#1f160f"/>
      <path id="Trazado_704660" data-name="Trazado 704660" d="M255.438,206.273v12.011s-11.767-.113-14.421-1.464c-5.981-3.044-22.125-20.524-22.854-20.934-4.494-2.554-7.791-7.713-8.037-8.03a57,57,0,0,0-4.638-4.177c-1.053-.743-.209-1.68.641-1.2.8.454,4.906,3.542,5.31,3.817.195.129.332-.116.231-.246s-5.432-6.023-5.973-6.889.512-1.839,1.2-1.27c.361.3,6.038,6.384,6.355,6.594.2.144.318-.065.216-.188s-5.078-6.954-6.017-8.447.225-2.432,1.249-1.357c.923.967,6.053,8.376,6.283,8.549s.382,0,.267-.188-4.365-7.329-4.734-8.1a.8.8,0,0,1,1.292-.91c.721.656,6.363,9.313,8.455,10.4,0,0,.584-1.053-.31-3.109a25.885,25.885,0,0,0-1.811-2.64c-.425-.512-.7-2.208.47-2.676,0,0,3.028,2.966,3.434,3.507a18.754,18.754,0,0,1,1.472,4.14c.3,1.14.332,3.831,1.1,5.4a68.032,68.032,0,0,0,22.623,17.415c1.863.858,8.2,0,8.2,0" transform="translate(-57.112 -48.362)" fill="#eba38d"/>
      <path id="Trazado_704661" data-name="Trazado 704661" d="M221.839,196.17a.186.186,0,0,1-.181-.145,9.384,9.384,0,0,1,.331-5.18.189.189,0,0,1,.247-.1.187.187,0,0,1,.094.246,9.208,9.208,0,0,0-.309,4.947.185.185,0,0,1-.139.223.172.172,0,0,1-.043.005" transform="translate(-61.691 -53.138)" fill="#1f160f"/>
      <path id="Trazado_704662" data-name="Trazado 704662" d="M213.463,190.7a.186.186,0,0,1-.141-.308,62.393,62.393,0,0,1,4.714-4.8.187.187,0,1,1,.252.275,62.655,62.655,0,0,0-4.684,4.763.185.185,0,0,1-.141.066" transform="translate(-59.418 -51.693)" fill="#1f160f"/>
      <path id="Trazado_704663" data-name="Trazado 704663" d="M224.509,203.021a.187.187,0,0,1-.088-.351,20.084,20.084,0,0,0,3.452-2.756.187.187,0,0,1,.263.265A20.135,20.135,0,0,1,224.6,203a.189.189,0,0,1-.088.022" transform="translate(-62.496 -55.681)" fill="#1f160f"/>
      <path id="Trazado_704664" data-name="Trazado 704664" d="M329.28,283.764c-.279-12.917-6.884-23.28-3.5-48.1,0,0,4.563-13.2-1.253-18.869-3.492-3.4-13.977-3.48-19.571-3.48-5.39,0-10.75,1.687-14.082,2.105-4.957,0-18.2,1.343-18.2,1.343-.33,4.473.22,15.159.22,15.159l16.39.955c-4.63,9.933.065,10.959.5,17.236.8,11.7.227,22.558-.115,33.652Z" transform="translate(-75.938 -59.429)" fill="#fabc5f"/>
      <path id="Trazado_704665" data-name="Trazado 704665" d="M294.962,235.953h0c-4.631,9.934.065,10.959.5,17.236.8,11.7.227,22.558-.115,33.652h39.612c-.214-9.932-4.165-18.362-4.442-33.007-8.666-4.706-16.708-20.854-16.67-28.238a10.163,10.163,0,0,1-9.963-1.239s-3.99,7.529-8.918,11.6" transform="translate(-81.611 -62.505)" fill="#1c8c4f"/>
      <path id="Trazado_704666" data-name="Trazado 704666" d="M309.566,213.47c-1.034,3.569.118,6,3.865,6.951,3.886.985,9.574-3.267,9.574-7.18,0,0-4.288-.259-7.277-.259a46.9,46.9,0,0,0-6.161.488" transform="translate(-86.144 -59.336)" fill="#eba38d"/>
      <path id="Trazado_704667" data-name="Trazado 704667" d="M295.673,238.62a.182.182,0,0,1-.084-.02.186.186,0,0,1-.082-.251,23.773,23.773,0,0,0,1.774-4.95.188.188,0,0,1,.227-.136.185.185,0,0,1,.135.227,24.04,24.04,0,0,1-1.8,5.028.186.186,0,0,1-.166.1" transform="translate(-82.322 -64.985)" fill="#1f160f"/>
      <path id="Trazado_704668" data-name="Trazado 704668" d="M321.843,222.847a.189.189,0,0,1-.172-.114.187.187,0,0,1,.1-.245,12.777,12.777,0,0,0,6.713-8.523.187.187,0,1,1,.364.087,13.158,13.158,0,0,1-6.931,8.78.188.188,0,0,1-.072.015" transform="translate(-89.613 -59.57)" fill="#1f160f"/>
      <path id="Trazado_704669" data-name="Trazado 704669" d="M307.41,221.852a.186.186,0,0,1-.154-.082c-2.668-3.922-1.313-6.845-1.255-6.967a.189.189,0,0,1,.25-.088.186.186,0,0,1,.087.249c-.013.028-1.314,2.863,1.227,6.6a.187.187,0,0,1-.049.259.192.192,0,0,1-.105.032" transform="translate(-85.141 -59.814)" fill="#1f160f"/>
      <path id="Trazado_704670" data-name="Trazado 704670" d="M319.141,293.815c-5.986,0-13.579-1.108-17.841-6.019a.187.187,0,0,1,.281-.245c7.588,8.743,26.065,5.185,26.25,5.147a.187.187,0,1,1,.073.366,50.754,50.754,0,0,1-8.763.75" transform="translate(-83.929 -80.093)" fill="#1f160f"/>
      <path id="Trazado_704671" data-name="Trazado 704671" d="M306.187,257.776s-3.254,2.965-5.952,5.136c-.151.115-.3.23-.44.346a26.8,26.8,0,0,1-3.383.411c-7.279.555-22.63.534-30.934-2.186a62.51,62.51,0,0,1-10.193-4c-2.345-1.2-7.358-3.845-6.817-4.978.426-.91,5.338,1.739,5.6,1.882-.281-.23-4.848-3.866-5.757-4.854s.079-2.244.995-1.407c.7.642,5.707,4.191,6.017,4.415-.353-.31-5.966-5.194-6.471-5.656-.858-.794.353-2.121,1.219-1.414,2.5,2.042,6.882,5.3,7.156,5.5-.347-.325-5.829-5.338-6.067-5.576-.773-.758.129-2.085,1.234-1.161,3.528,2.943,8.7,6.536,8.7,6.536a2.912,2.912,0,0,0,.332-.967A2.625,2.625,0,0,0,260,247.424c-4.111-2.1-2.257-3.21-2.257-3.21s2.943.822,4.155,1.262a13.024,13.024,0,0,1,4.372,3.672c.613.915,2.886,4.848,3.268,4.869a153.71,153.71,0,0,0,22.7-.57l2.575-3.52a38.8,38.8,0,0,0,11.377,7.849" transform="translate(-69.079 -67.958)" fill="#eba38d"/>
      <path id="Trazado_704672" data-name="Trazado 704672" d="M326.04,226.286,312.9,245.013c1.816,4.363,11.762,8.966,11.762,8.966a73.7,73.7,0,0,0,9.414-12.7Z" transform="translate(-87.174 -63.043)" fill="#fabc5f"/>
      <path id="Trazado_704673" data-name="Trazado 704673" d="M329.135,259.884a.185.185,0,0,1-.127-.051.187.187,0,0,1-.009-.264,73.955,73.955,0,0,0,9.385-12.664.187.187,0,1,1,.328.177,74.469,74.469,0,0,1-9.441,12.742.185.185,0,0,1-.137.059" transform="translate(-91.645 -68.76)" fill="#1f160f"/>
      <path id="Trazado_704674" data-name="Trazado 704674" d="M312.831,245.128a.188.188,0,0,1-.107-.034.186.186,0,0,1-.045-.26l13.136-18.727a.187.187,0,0,1,.307.214l-13.137,18.727a.187.187,0,0,1-.154.079" transform="translate(-87.102 -62.971)" fill="#1f160f"/>
      <path id="Trazado_704675" data-name="Trazado 704675" d="M10.684,286.774a2.689,2.689,0,1,1,2.689,2.689,2.689,2.689,0,0,1-2.689-2.689" transform="translate(-2.977 -79.146)" fill="#d3b78d"/>
      <path id="Trazado_704676" data-name="Trazado 704676" d="M192.8,374.92a2.689,2.689,0,1,1,2.689,2.688,2.688,2.688,0,0,1-2.689-2.688" transform="translate(-53.713 -103.703)" fill="#d3b78d"/>
      <path id="Trazado_704677" data-name="Trazado 704677" d="M27.934,278.774a1.772,1.772,0,1,1,1.772,1.772,1.772,1.772,0,0,1-1.772-1.772" transform="translate(-7.782 -77.172)" fill="#d3b78d"/>
      <path id="Trazado_704678" data-name="Trazado 704678" d="M296.037,42.724a2.689,2.689,0,1,1,2.689,2.689,2.689,2.689,0,0,1-2.689-2.689" transform="translate(-82.475 -11.154)" fill="#d3b78d"/>
      <path id="Trazado_704679" data-name="Trazado 704679" d="M67.654,46.856a2.689,2.689,0,1,1,2.689,2.689,2.689,2.689,0,0,1-2.689-2.689" transform="translate(-18.848 -12.305)" fill="#d3b78d"/>
      <path id="Trazado_704680" data-name="Trazado 704680" d="M236.465,49.666a1.772,1.772,0,1,1,1.772,1.772,1.772,1.772,0,0,1-1.772-1.772" transform="translate(-65.879 -13.343)" fill="#d3b78d"/>
      <path id="Trazado_704681" data-name="Trazado 704681" d="M362.759,343.274a1.772,1.772,0,1,1,1.772,1.772,1.772,1.772,0,0,1-1.772-1.772" transform="translate(-101.064 -95.142)" fill="#d3b78d"/>
      <path id="Trazado_704682" data-name="Trazado 704682" d="M46.633,32.117A1.772,1.772,0,1,1,48.4,33.889a1.772,1.772,0,0,1-1.772-1.772" transform="translate(-12.992 -8.454)" fill="#d3b78d"/>
      <path id="Trazado_704683" data-name="Trazado 704683" d="M164.915,261.492a1.772,1.772,0,1,1,1.772,1.772,1.772,1.772,0,0,1-1.772-1.772" transform="translate(-45.945 -72.358)" fill="#d3b78d"/>
    </g>
  </g>
</svg>
