<svg xmlns="http://www.w3.org/2000/svg" width="679" height="192" viewBox="0 0 679 192">
  <g id="Grupo_972930" data-name="Grupo 972930" transform="translate(2880 9379)">
    <g id="Trazado_706797" data-name="Trazado 706797" transform="translate(-2880 -9379)" fill="#fff">
      <path d="M 655 191.5 L 24 191.5 C 20.82733345031738 191.5 17.7497501373291 190.8787536621094 14.8529167175293 189.6535034179688 C 12.05458354949951 188.4699096679688 9.541333198547363 186.7753295898438 7.382999897003174 184.6170043945312 C 5.224666595458984 182.4586639404297 3.530083417892456 179.9454193115234 2.346499919891357 177.1470794677734 C 1.121250033378601 174.250244140625 0.5 171.1726684570312 0.5 168 L 0.5 24 C 0.5 20.82733345031738 1.121250033378601 17.7497501373291 2.346499919891357 14.8529167175293 C 3.530083417892456 12.05458354949951 5.224666595458984 9.541333198547363 7.382999897003174 7.382999897003174 C 9.541333198547363 5.224666595458984 12.05458354949951 3.530083417892456 14.8529167175293 2.346499919891357 C 17.7497501373291 1.121250033378601 20.82733345031738 0.5 24 0.5 L 655 0.5 C 658.1726684570312 0.5 661.250244140625 1.121250033378601 664.1470947265625 2.346499919891357 C 666.9454345703125 3.530083417892456 669.4586791992188 5.224666595458984 671.6170043945312 7.382999897003174 C 673.7753295898438 9.541333198547363 675.4699096679688 12.05458354949951 676.6535034179688 14.8529167175293 C 677.8787231445312 17.7497501373291 678.5 20.82733345031738 678.5 24 L 678.5 168 C 678.5 171.1726684570312 677.8787231445312 174.250244140625 676.6535034179688 177.1470794677734 C 675.4699096679688 179.9454193115234 673.7753295898438 182.4586639404297 671.6170043945312 184.6170043945312 C 669.4586791992188 186.7753295898438 666.9454345703125 188.4699096679688 664.1470947265625 189.6535034179688 C 661.250244140625 190.8787536621094 658.1726684570312 191.5 655 191.5 Z" stroke="none"/>
      <path d="M 24 1 C 20.89459228515625 1 17.882568359375 1.608001708984375 15.04766845703125 2.807083129882812 C 12.30902099609375 3.965423583984375 9.84918212890625 5.623916625976562 7.736572265625 7.736587524414062 C 5.6239013671875 9.849166870117188 3.96539306640625 12.30900573730469 2.80706787109375 15.04766845703125 C 1.60797119140625 17.88258361816406 1 20.89457702636719 1 24 L 1 168 C 1 171.1054229736328 1.60797119140625 174.1174163818359 2.80706787109375 176.9523315429688 C 3.96539306640625 179.6909942626953 5.6239013671875 182.1508331298828 7.736572265625 184.2634124755859 C 9.84918212890625 186.3760833740234 12.30902099609375 188.0345764160156 15.04766845703125 189.1929168701172 C 17.882568359375 190.3919982910156 20.89459228515625 191 24 191 L 655 191 C 658.1054077148438 191 661.117431640625 190.3919982910156 663.9523315429688 189.1929168701172 C 666.6909790039062 188.0345764160156 669.1508178710938 186.3760833740234 671.263427734375 184.2634124755859 C 673.3760986328125 182.1508331298828 675.0346069335938 179.6909942626953 676.1929321289062 176.9523315429688 C 677.3920288085938 174.1174163818359 678 171.1054229736328 678 168 L 678 24 C 678 20.89457702636719 677.3920288085938 17.88258361816406 676.1929321289062 15.04766845703125 C 675.0346069335938 12.30900573730469 673.3760986328125 9.849166870117188 671.263427734375 7.736587524414062 C 669.1508178710938 5.623916625976562 666.6909790039062 3.965423583984375 663.9523315429688 2.807083129882812 C 661.117431640625 1.608001708984375 658.1054077148438 1 655 1 L 24 1 M 24 0 L 655 0 C 668.2548217773438 0 679 10.74516296386719 679 24 L 679 168 C 679 181.2548370361328 668.2548217773438 192 655 192 L 24 192 C 10.74517822265625 192 0 181.2548370361328 0 168 L 0 24 C 0 10.74516296386719 10.74517822265625 0 24 0 Z" stroke="none" fill="#707070"/>
    </g>
    <path id="Trazado_706798" data-name="Trazado 706798" d="M11.391,15.465H4.23V23H1.98V5.938h10.57v1.84H4.23v5.848h7.16ZM27.258,5.938v11.6a5.442,5.442,0,0,1-1.518,3.949,6.115,6.115,0,0,1-4.084,1.723l-.6.023a6.386,6.386,0,0,1-4.465-1.512,5.407,5.407,0,0,1-1.687-4.16V5.938h2.227V17.492a3.9,3.9,0,0,0,1.02,2.877,3.919,3.919,0,0,0,2.906,1.025,3.945,3.945,0,0,0,2.924-1.02A3.9,3.9,0,0,0,25,17.5V5.938Zm13.2,9.176H33.059V21.16h8.59V23H30.809V5.938H41.531v1.84H33.059v5.5h7.395ZM57.563,23H55.3L46.711,9.852V23H44.449V5.938h2.262l8.613,13.207V5.938h2.238ZM73.008,7.777H67.523V23H65.285V7.777H59.813V5.938h13.2Zm12.176,7.336H77.789V21.16h8.59V23H75.539V5.938H86.262v1.84H77.789v5.5h7.395Zm9.023.281a10.58,10.58,0,0,1-4.213-2.045,3.907,3.907,0,0,1-1.318-2.994,4.127,4.127,0,0,1,1.611-3.334A6.4,6.4,0,0,1,94.477,5.7a6.99,6.99,0,0,1,3.135.68,5.154,5.154,0,0,1,2.133,1.875,4.8,4.8,0,0,1,.756,2.613H98.238a3.12,3.12,0,0,0-.984-2.44,4,4,0,0,0-2.777-.888,4.1,4.1,0,0,0-2.6.734,2.448,2.448,0,0,0-.932,2.037,2.2,2.2,0,0,0,.885,1.767A8.678,8.678,0,0,0,94.846,13.4a13.974,13.974,0,0,1,3.328,1.319A5.05,5.05,0,0,1,99.955,16.4a4.292,4.292,0,0,1,.58,2.262,3.987,3.987,0,0,1-1.617,3.322,6.9,6.9,0,0,1-4.324,1.248,8.02,8.02,0,0,1-3.281-.674,5.522,5.522,0,0,1-2.35-1.846,4.5,4.5,0,0,1-.826-2.66H90.4A2.939,2.939,0,0,0,91.541,20.5a4.811,4.811,0,0,0,3.053.9,4.423,4.423,0,0,0,2.73-.727,2.36,2.36,0,0,0,.949-1.98,2.317,2.317,0,0,0-.879-1.939A10.133,10.133,0,0,0,94.207,15.395Z" transform="translate(-2834 -9287)" fill="#0b428a"/>
    <path id="Trazado_706799" data-name="Trazado 706799" d="M4.23,16.32V23H1.98V5.938H8.273a6.322,6.322,0,0,1,4.389,1.43,4.847,4.847,0,0,1,1.588,3.785A4.783,4.783,0,0,1,12.7,14.979,6.6,6.6,0,0,1,8.25,16.32Zm0-1.84H8.273a4.042,4.042,0,0,0,2.766-.851A3.112,3.112,0,0,0,12,11.17a3.215,3.215,0,0,0-.961-2.442A3.787,3.787,0,0,0,8.4,7.777H4.23Zm18.68-2.215a6.5,6.5,0,0,0-1.066-.082A2.857,2.857,0,0,0,18.949,14v9H16.781V10.32h2.109l.035,1.465a3.376,3.376,0,0,1,3.023-1.7,2.215,2.215,0,0,1,.961.164ZM27.258,23H25.09V10.32h2.168ZM24.914,6.957a1.294,1.294,0,0,1,.322-.891,1.21,1.21,0,0,1,.955-.363,1.229,1.229,0,0,1,.961.363,1.28,1.28,0,0,1,.328.891,1.238,1.238,0,0,1-.328.879,1.251,1.251,0,0,1-.961.352,1.232,1.232,0,0,1-.955-.352A1.251,1.251,0,0,1,24.914,6.957Zm7.852,3.363.059,1.406a4.683,4.683,0,0,1,3.762-1.641,3.625,3.625,0,0,1,3.621,2.039,4.8,4.8,0,0,1,1.646-1.477,4.863,4.863,0,0,1,2.4-.562q4.172,0,4.242,4.418V23H46.324V14.633A2.911,2.911,0,0,0,45.7,12.6a2.735,2.735,0,0,0-2.086-.674,2.875,2.875,0,0,0-2,.721,2.924,2.924,0,0,0-.926,1.939V23h-2.18V14.691q0-2.766-2.707-2.766a2.9,2.9,0,0,0-2.918,1.816V23H30.715V10.32ZM59.59,23a4.554,4.554,0,0,1-.3-1.336,4.837,4.837,0,0,1-3.609,1.57A4.476,4.476,0,0,1,52.6,22.174a3.431,3.431,0,0,1-1.2-2.689A3.584,3.584,0,0,1,52.9,16.408a7.1,7.1,0,0,1,4.236-1.1H59.25v-1a2.435,2.435,0,0,0-.68-1.811,2.732,2.732,0,0,0-2-.674,3.161,3.161,0,0,0-1.945.586,1.727,1.727,0,0,0-.785,1.418h-2.18A2.992,2.992,0,0,1,52.33,12a4.6,4.6,0,0,1,1.828-1.4,6.15,6.15,0,0,1,2.537-.516,5.013,5.013,0,0,1,3.434,1.1A3.953,3.953,0,0,1,61.418,14.2v5.836a7.135,7.135,0,0,0,.445,2.777V23Zm-3.6-1.652a3.81,3.81,0,0,0,1.934-.527,3.19,3.19,0,0,0,1.324-1.371v-2.6h-1.7q-3.984,0-3.984,2.332a1.974,1.974,0,0,0,.68,1.594A2.612,2.612,0,0,0,55.992,21.348Zm14.953-9.082a6.5,6.5,0,0,0-1.066-.082A2.857,2.857,0,0,0,66.984,14v9H64.816V10.32h2.109l.035,1.465a3.376,3.376,0,0,1,3.023-1.7,2.215,2.215,0,0,1,.961.164ZM75.293,23H73.125V10.32h2.168ZM72.949,6.957a1.294,1.294,0,0,1,.322-.891,1.21,1.21,0,0,1,.955-.363,1.229,1.229,0,0,1,.961.363,1.28,1.28,0,0,1,.328.891,1.238,1.238,0,0,1-.328.879,1.251,1.251,0,0,1-.961.352,1.232,1.232,0,0,1-.955-.352A1.251,1.251,0,0,1,72.949,6.957ZM86.59,23a4.554,4.554,0,0,1-.3-1.336,4.837,4.837,0,0,1-3.609,1.57A4.476,4.476,0,0,1,79.6,22.174a3.431,3.431,0,0,1-1.2-2.689A3.584,3.584,0,0,1,79.9,16.408a7.1,7.1,0,0,1,4.236-1.1H86.25v-1a2.435,2.435,0,0,0-.68-1.811,2.732,2.732,0,0,0-2-.674,3.161,3.161,0,0,0-1.945.586,1.727,1.727,0,0,0-.785,1.418h-2.18A2.992,2.992,0,0,1,79.33,12a4.6,4.6,0,0,1,1.828-1.4,6.15,6.15,0,0,1,2.537-.516,5.013,5.013,0,0,1,3.434,1.1A3.953,3.953,0,0,1,88.418,14.2v5.836a7.135,7.135,0,0,0,.445,2.777V23Zm-3.6-1.652a3.81,3.81,0,0,0,1.934-.527,3.19,3.19,0,0,0,1.324-1.371v-2.6h-1.7q-3.984,0-3.984,2.332a1.974,1.974,0,0,0,.68,1.594A2.612,2.612,0,0,0,82.992,21.348ZM99.2,19.637a1.6,1.6,0,0,0-.662-1.365,6.373,6.373,0,0,0-2.309-.838,10.915,10.915,0,0,1-2.613-.844,3.718,3.718,0,0,1-1.43-1.172,2.8,2.8,0,0,1-.463-1.617,3.289,3.289,0,0,1,1.318-2.637,5.149,5.149,0,0,1,3.369-1.078,5.3,5.3,0,0,1,3.5,1.113,3.536,3.536,0,0,1,1.342,2.848H99.07a1.957,1.957,0,0,0-.756-1.535,2.832,2.832,0,0,0-1.9-.645,2.964,2.964,0,0,0-1.852.516,1.623,1.623,0,0,0-.668,1.348,1.315,1.315,0,0,0,.621,1.184,7.642,7.642,0,0,0,2.244.762,11.693,11.693,0,0,1,2.631.867,3.838,3.838,0,0,1,1.494,1.213,2.982,2.982,0,0,1,.486,1.729,3.245,3.245,0,0,1-1.359,2.725,5.7,5.7,0,0,1-3.527,1.025,6.385,6.385,0,0,1-2.7-.539,4.384,4.384,0,0,1-1.834-1.506,3.629,3.629,0,0,1-.662-2.092h2.168a2.245,2.245,0,0,0,.873,1.729,3.387,3.387,0,0,0,2.15.639,3.5,3.5,0,0,0,1.975-.5A1.53,1.53,0,0,0,99.2,19.637Z" transform="translate(-2671 -9347)" fill="#0b428a"/>
    <path id="Trazado_706800" data-name="Trazado 706800" d="M4.23,16.32V23H1.98V5.938H8.273a6.322,6.322,0,0,1,4.389,1.43,4.847,4.847,0,0,1,1.588,3.785A4.783,4.783,0,0,1,12.7,14.979,6.6,6.6,0,0,1,8.25,16.32Zm0-1.84H8.273a4.042,4.042,0,0,0,2.766-.851A3.112,3.112,0,0,0,12,11.17a3.215,3.215,0,0,0-.961-2.442A3.787,3.787,0,0,0,8.4,7.777H4.23Zm17.66,8.754a5.54,5.54,0,0,1-4.2-1.693,6.285,6.285,0,0,1-1.617-4.529v-.4a7.609,7.609,0,0,1,.721-3.369,5.622,5.622,0,0,1,2.016-2.32,5.068,5.068,0,0,1,2.807-.838,4.749,4.749,0,0,1,3.844,1.629,7.053,7.053,0,0,1,1.371,4.664v.9h-8.59a4.507,4.507,0,0,0,1.1,3.029,3.444,3.444,0,0,0,2.666,1.154A3.776,3.776,0,0,0,23.953,21a4.888,4.888,0,0,0,1.395-1.242l1.324,1.031A5.325,5.325,0,0,1,21.891,23.234Zm-.27-11.367a2.892,2.892,0,0,0-2.2.955,4.642,4.642,0,0,0-1.1,2.678h6.352v-.164a4.129,4.129,0,0,0-.891-2.561A2.723,2.723,0,0,0,21.621,11.867Zm13.852.4a6.5,6.5,0,0,0-1.066-.082A2.857,2.857,0,0,0,31.512,14v9H29.344V10.32h2.109l.035,1.465a3.376,3.376,0,0,1,3.023-1.7,2.215,2.215,0,0,1,.961.164Zm9.375,7.371a1.6,1.6,0,0,0-.662-1.365,6.373,6.373,0,0,0-2.309-.838,10.915,10.915,0,0,1-2.613-.844,3.718,3.718,0,0,1-1.43-1.172,2.8,2.8,0,0,1-.463-1.617,3.289,3.289,0,0,1,1.318-2.637,5.149,5.149,0,0,1,3.369-1.078,5.3,5.3,0,0,1,3.5,1.113A3.536,3.536,0,0,1,46.9,14.047h-2.18a1.957,1.957,0,0,0-.756-1.535,2.832,2.832,0,0,0-1.9-.645,2.964,2.964,0,0,0-1.852.516,1.623,1.623,0,0,0-.668,1.348,1.315,1.315,0,0,0,.621,1.184,7.642,7.642,0,0,0,2.244.762,11.693,11.693,0,0,1,2.631.867,3.838,3.838,0,0,1,1.494,1.213,2.982,2.982,0,0,1,.486,1.729,3.245,3.245,0,0,1-1.359,2.725,5.7,5.7,0,0,1-3.527,1.025,6.385,6.385,0,0,1-2.7-.539A4.384,4.384,0,0,1,37.6,21.189a3.629,3.629,0,0,1-.662-2.092h2.168a2.245,2.245,0,0,0,.873,1.729,3.387,3.387,0,0,0,2.15.639,3.5,3.5,0,0,0,1.975-.5A1.53,1.53,0,0,0,44.848,19.637Zm4.418-3.094A7.489,7.489,0,0,1,50,13.191a5.464,5.464,0,0,1,2.039-2.3,5.551,5.551,0,0,1,2.982-.809,5.347,5.347,0,0,1,4.189,1.793,6.9,6.9,0,0,1,1.6,4.77V16.8a7.555,7.555,0,0,1-.709,3.322,5.383,5.383,0,0,1-2.027,2.291,5.614,5.614,0,0,1-3.029.82,5.334,5.334,0,0,1-4.178-1.793,6.863,6.863,0,0,1-1.6-4.746Zm2.18.258a5.424,5.424,0,0,0,.979,3.387,3.316,3.316,0,0,0,5.244-.018,5.932,5.932,0,0,0,.973-3.627,5.415,5.415,0,0,0-.99-3.381,3.148,3.148,0,0,0-2.631-1.295,3.113,3.113,0,0,0-2.59,1.277A5.888,5.888,0,0,0,51.445,16.8Zm14.133-6.48.07,1.594a4.621,4.621,0,0,1,3.8-1.828q4.02,0,4.055,4.535V23H71.332V14.609a2.919,2.919,0,0,0-.627-2.027,2.512,2.512,0,0,0-1.916-.656,3.129,3.129,0,0,0-1.852.563A3.82,3.82,0,0,0,65.7,13.965V23H63.527V10.32ZM84.6,23a4.554,4.554,0,0,1-.3-1.336,4.837,4.837,0,0,1-3.609,1.57,4.476,4.476,0,0,1-3.076-1.061,3.431,3.431,0,0,1-1.2-2.689,3.584,3.584,0,0,1,1.506-3.076,7.1,7.1,0,0,1,4.236-1.1h2.109v-1a2.435,2.435,0,0,0-.68-1.811,2.732,2.732,0,0,0-2-.674,3.161,3.161,0,0,0-1.945.586,1.727,1.727,0,0,0-.785,1.418h-2.18A2.992,2.992,0,0,1,77.338,12a4.6,4.6,0,0,1,1.828-1.4,6.15,6.15,0,0,1,2.537-.516,5.013,5.013,0,0,1,3.434,1.1A3.953,3.953,0,0,1,86.426,14.2v5.836a7.135,7.135,0,0,0,.445,2.777V23ZM81,21.348a3.81,3.81,0,0,0,1.934-.527,3.19,3.19,0,0,0,1.324-1.371v-2.6h-1.7q-3.984,0-3.984,2.332a1.974,1.974,0,0,0,.68,1.594A2.612,2.612,0,0,0,81,21.348Z" transform="translate(-2462 -9353)" fill="#0b428a"/>
    <path id="Trazado_706801" data-name="Trazado 706801" d="M15.094,23H12.832V15.113H4.23V23H1.98V5.938H4.23v7.336h8.6V5.938h2.262Zm8.918.234a5.54,5.54,0,0,1-4.2-1.693A6.285,6.285,0,0,1,18.2,17.012v-.4a7.609,7.609,0,0,1,.721-3.369,5.622,5.622,0,0,1,2.016-2.32,5.068,5.068,0,0,1,2.807-.838,4.749,4.749,0,0,1,3.844,1.629,7.053,7.053,0,0,1,1.371,4.664v.9h-8.59a4.507,4.507,0,0,0,1.1,3.029,3.444,3.444,0,0,0,2.666,1.154A3.776,3.776,0,0,0,26.074,21a4.888,4.888,0,0,0,1.395-1.242l1.324,1.031A5.325,5.325,0,0,1,24.012,23.234Zm-.27-11.367a2.892,2.892,0,0,0-2.2.955,4.642,4.642,0,0,0-1.1,2.678h6.352v-.164a4.129,4.129,0,0,0-.891-2.561A2.723,2.723,0,0,0,23.742,11.867Zm12.809,9.6a3.123,3.123,0,0,0,2.027-.7A2.474,2.474,0,0,0,39.539,19H41.59a3.931,3.931,0,0,1-.75,2.074,4.94,4.94,0,0,1-1.846,1.57,5.326,5.326,0,0,1-2.443.586,5.223,5.223,0,0,1-4.119-1.729A6.884,6.884,0,0,1,30.9,16.777v-.363a7.634,7.634,0,0,1,.68-3.293,5.177,5.177,0,0,1,1.951-2.238,5.543,5.543,0,0,1,3.006-.8,5.085,5.085,0,0,1,3.545,1.277A4.565,4.565,0,0,1,41.59,14.68H39.539a2.988,2.988,0,0,0-.932-2.021,2.9,2.9,0,0,0-2.068-.791,3.034,3.034,0,0,0-2.561,1.189A5.586,5.586,0,0,0,33.07,16.5v.41a5.475,5.475,0,0,0,.9,3.375A3.049,3.049,0,0,0,36.551,21.465ZM46.2,11.855a4.609,4.609,0,0,1,3.75-1.77q4.02,0,4.055,4.535V23H51.832V14.609a2.919,2.919,0,0,0-.627-2.027,2.512,2.512,0,0,0-1.916-.656,3.129,3.129,0,0,0-1.852.563A3.82,3.82,0,0,0,46.2,13.965V23H44.027V5H46.2Zm10.477,4.688a7.489,7.489,0,0,1,.732-3.352,5.464,5.464,0,0,1,2.039-2.3,5.551,5.551,0,0,1,2.982-.809,5.347,5.347,0,0,1,4.189,1.793,6.9,6.9,0,0,1,1.6,4.77V16.8a7.555,7.555,0,0,1-.709,3.322,5.383,5.383,0,0,1-2.027,2.291,5.614,5.614,0,0,1-3.029.82,5.334,5.334,0,0,1-4.178-1.793,6.863,6.863,0,0,1-1.6-4.746Zm2.18.258a5.424,5.424,0,0,0,.979,3.387,3.316,3.316,0,0,0,5.244-.018,5.932,5.932,0,0,0,.973-3.627,5.415,5.415,0,0,0-.99-3.381,3.148,3.148,0,0,0-2.631-1.295,3.113,3.113,0,0,0-2.59,1.277A5.888,5.888,0,0,0,58.852,16.8Zm19.465,2.836a1.6,1.6,0,0,0-.662-1.365,6.373,6.373,0,0,0-2.309-.838,10.915,10.915,0,0,1-2.613-.844,3.718,3.718,0,0,1-1.43-1.172A2.8,2.8,0,0,1,70.84,13.8a3.289,3.289,0,0,1,1.318-2.637,5.149,5.149,0,0,1,3.369-1.078,5.3,5.3,0,0,1,3.5,1.113,3.536,3.536,0,0,1,1.342,2.848h-2.18a1.957,1.957,0,0,0-.756-1.535,2.832,2.832,0,0,0-1.9-.645,2.964,2.964,0,0,0-1.852.516,1.623,1.623,0,0,0-.668,1.348,1.315,1.315,0,0,0,.621,1.184,7.642,7.642,0,0,0,2.244.762,11.693,11.693,0,0,1,2.631.867A3.838,3.838,0,0,1,80,17.756a2.982,2.982,0,0,1,.486,1.729,3.245,3.245,0,0,1-1.359,2.725A5.7,5.7,0,0,1,75.6,23.234a6.385,6.385,0,0,1-2.7-.539,4.384,4.384,0,0,1-1.834-1.506,3.629,3.629,0,0,1-.662-2.092h2.168a2.245,2.245,0,0,0,.873,1.729,3.387,3.387,0,0,0,2.15.639,3.5,3.5,0,0,0,1.975-.5A1.53,1.53,0,0,0,78.316,19.637Z" transform="translate(-2462 -9313)" fill="#0b428a"/>
    <path id="Trazado_706802" data-name="Trazado 706802" d="M4.887,5.938l5.578,13.922L16.043,5.938h2.918V23h-2.25V16.355l.211-7.172L11.32,23H9.6L4.008,9.219l.223,7.137V23H1.98V5.938ZM30.422,23a4.554,4.554,0,0,1-.3-1.336,4.837,4.837,0,0,1-3.609,1.57,4.476,4.476,0,0,1-3.076-1.061,3.431,3.431,0,0,1-1.2-2.689,3.584,3.584,0,0,1,1.506-3.076,7.1,7.1,0,0,1,4.236-1.1h2.109v-1a2.435,2.435,0,0,0-.68-1.811,2.732,2.732,0,0,0-2-.674,3.161,3.161,0,0,0-1.945.586,1.727,1.727,0,0,0-.785,1.418h-2.18A2.992,2.992,0,0,1,23.162,12a4.6,4.6,0,0,1,1.828-1.4,6.15,6.15,0,0,1,2.537-.516,5.013,5.013,0,0,1,3.434,1.1A3.953,3.953,0,0,1,32.25,14.2v5.836a7.135,7.135,0,0,0,.445,2.777V23Zm-3.6-1.652a3.81,3.81,0,0,0,1.934-.527,3.19,3.19,0,0,0,1.324-1.371v-2.6h-1.7q-3.984,0-3.984,2.332a1.974,1.974,0,0,0,.68,1.594A2.612,2.612,0,0,0,26.824,21.348ZM38.59,7.25v3.07h2.367V12H38.59v7.873a1.76,1.76,0,0,0,.316,1.144,1.332,1.332,0,0,0,1.078.381,5.249,5.249,0,0,0,1.031-.141V23a6.322,6.322,0,0,1-1.664.233,2.7,2.7,0,0,1-2.191-.879,3.776,3.776,0,0,1-.738-2.5V12H34.113V10.32h2.309V7.25ZM48.75,23.234a5.54,5.54,0,0,1-4.2-1.693,6.285,6.285,0,0,1-1.617-4.529v-.4a7.609,7.609,0,0,1,.721-3.369,5.622,5.622,0,0,1,2.016-2.32,5.068,5.068,0,0,1,2.807-.838,4.749,4.749,0,0,1,3.844,1.629A7.053,7.053,0,0,1,53.7,16.379v.9h-8.59a4.507,4.507,0,0,0,1.1,3.029,3.444,3.444,0,0,0,2.666,1.154A3.776,3.776,0,0,0,50.813,21a4.888,4.888,0,0,0,1.395-1.242l1.324,1.031A5.325,5.325,0,0,1,48.75,23.234Zm-.27-11.367a2.892,2.892,0,0,0-2.2.955,4.642,4.642,0,0,0-1.1,2.678h6.352v-.164a4.129,4.129,0,0,0-.891-2.561A2.723,2.723,0,0,0,48.48,11.867Zm13.852.4a6.5,6.5,0,0,0-1.066-.082A2.857,2.857,0,0,0,58.371,14v9H56.2V10.32h2.109l.035,1.465a3.376,3.376,0,0,1,3.023-1.7,2.215,2.215,0,0,1,.961.164ZM66.68,23H64.512V10.32H66.68ZM64.336,6.957a1.294,1.294,0,0,1,.322-.891,1.21,1.21,0,0,1,.955-.363,1.229,1.229,0,0,1,.961.363,1.28,1.28,0,0,1,.328.891,1.238,1.238,0,0,1-.328.879,1.251,1.251,0,0,1-.961.352,1.232,1.232,0,0,1-.955-.352A1.251,1.251,0,0,1,64.336,6.957ZM77.977,23a4.554,4.554,0,0,1-.3-1.336,4.837,4.837,0,0,1-3.609,1.57,4.476,4.476,0,0,1-3.076-1.061,3.431,3.431,0,0,1-1.2-2.689,3.584,3.584,0,0,1,1.506-3.076,7.1,7.1,0,0,1,4.236-1.1h2.109v-1a2.435,2.435,0,0,0-.68-1.811,2.732,2.732,0,0,0-2-.674,3.161,3.161,0,0,0-1.945.586,1.727,1.727,0,0,0-.785,1.418h-2.18A2.992,2.992,0,0,1,70.717,12a4.6,4.6,0,0,1,1.828-1.4,6.15,6.15,0,0,1,2.537-.516,5.013,5.013,0,0,1,3.434,1.1A3.953,3.953,0,0,1,79.8,14.2v5.836a7.135,7.135,0,0,0,.445,2.777V23Zm-3.6-1.652a3.81,3.81,0,0,0,1.934-.527,3.19,3.19,0,0,0,1.324-1.371v-2.6h-1.7q-3.984,0-3.984,2.332a1.974,1.974,0,0,0,.68,1.594A2.612,2.612,0,0,0,74.379,21.348ZM85.559,23H83.391V5h2.168Zm12.164,0h-2.25V5.938h2.25Zm5.813-12.68.059,1.406a4.683,4.683,0,0,1,3.762-1.641,3.625,3.625,0,0,1,3.621,2.039,4.8,4.8,0,0,1,1.646-1.477,4.863,4.863,0,0,1,2.4-.562q4.172,0,4.242,4.418V23h-2.168V14.633a2.911,2.911,0,0,0-.621-2.033,2.735,2.735,0,0,0-2.086-.674,2.875,2.875,0,0,0-2,.721,2.924,2.924,0,0,0-.926,1.939V23h-2.18V14.691q0-2.766-2.707-2.766a2.9,2.9,0,0,0-2.918,1.816V23h-2.168V10.32Zm29.707,6.48a7.592,7.592,0,0,1-1.324,4.664,4.244,4.244,0,0,1-3.586,1.77A4.65,4.65,0,0,1,124.7,21.77v6.105h-2.168V10.32h1.98l.105,1.406a4.466,4.466,0,0,1,3.68-1.641,4.324,4.324,0,0,1,3.615,1.723,7.675,7.675,0,0,1,1.33,4.793Zm-2.168-.246a5.6,5.6,0,0,0-.914-3.387,2.945,2.945,0,0,0-2.508-1.242,3.187,3.187,0,0,0-2.953,1.746V19.73a3.193,3.193,0,0,0,2.977,1.734,2.931,2.931,0,0,0,2.479-1.236A6.115,6.115,0,0,0,131.074,16.555Zm11.051-4.289a6.5,6.5,0,0,0-1.066-.082A2.857,2.857,0,0,0,138.164,14v9H136V10.32h2.109l.035,1.465a3.376,3.376,0,0,1,3.023-1.7,2.215,2.215,0,0,1,.961.164Zm7.031,10.969a5.54,5.54,0,0,1-4.2-1.693,6.285,6.285,0,0,1-1.617-4.529v-.4a7.609,7.609,0,0,1,.721-3.369,5.622,5.622,0,0,1,2.016-2.32,5.068,5.068,0,0,1,2.807-.838,4.749,4.749,0,0,1,3.844,1.629,7.053,7.053,0,0,1,1.371,4.664v.9h-8.59a4.507,4.507,0,0,0,1.1,3.029,3.444,3.444,0,0,0,2.666,1.154A3.776,3.776,0,0,0,151.219,21a4.888,4.888,0,0,0,1.395-1.242l1.324,1.031A5.325,5.325,0,0,1,149.156,23.234Zm-.27-11.367a2.892,2.892,0,0,0-2.2.955,4.642,4.642,0,0,0-1.1,2.678h6.352v-.164a4.129,4.129,0,0,0-.891-2.561A2.723,2.723,0,0,0,148.887,11.867Zm15.105,7.77a1.6,1.6,0,0,0-.662-1.365,6.373,6.373,0,0,0-2.309-.838,10.915,10.915,0,0,1-2.613-.844,3.718,3.718,0,0,1-1.43-1.172,2.8,2.8,0,0,1-.463-1.617,3.289,3.289,0,0,1,1.318-2.637,5.149,5.149,0,0,1,3.369-1.078,5.3,5.3,0,0,1,3.5,1.113,3.536,3.536,0,0,1,1.342,2.848h-2.18a1.957,1.957,0,0,0-.756-1.535,2.832,2.832,0,0,0-1.9-.645,2.964,2.964,0,0,0-1.852.516,1.623,1.623,0,0,0-.668,1.348,1.315,1.315,0,0,0,.621,1.184,7.642,7.642,0,0,0,2.244.762,11.693,11.693,0,0,1,2.631.867,3.838,3.838,0,0,1,1.494,1.213,2.982,2.982,0,0,1,.486,1.729,3.245,3.245,0,0,1-1.359,2.725,5.7,5.7,0,0,1-3.527,1.025,6.385,6.385,0,0,1-2.7-.539,4.384,4.384,0,0,1-1.834-1.506,3.629,3.629,0,0,1-.662-2.092h2.168a2.245,2.245,0,0,0,.873,1.729,3.387,3.387,0,0,0,2.15.639,3.5,3.5,0,0,0,1.975-.5A1.53,1.53,0,0,0,163.992,19.637Zm4.418-3.094a7.489,7.489,0,0,1,.732-3.352,5.464,5.464,0,0,1,2.039-2.3,5.551,5.551,0,0,1,2.982-.809,5.347,5.347,0,0,1,4.189,1.793,6.9,6.9,0,0,1,1.6,4.77V16.8a7.555,7.555,0,0,1-.709,3.322,5.383,5.383,0,0,1-2.027,2.291,5.614,5.614,0,0,1-3.029.82,5.334,5.334,0,0,1-4.178-1.793,6.863,6.863,0,0,1-1.6-4.746Zm2.18.258a5.424,5.424,0,0,0,.979,3.387,3.316,3.316,0,0,0,5.244-.018,5.932,5.932,0,0,0,.973-3.627,5.415,5.415,0,0,0-.99-3.381,3.148,3.148,0,0,0-2.631-1.295,3.113,3.113,0,0,0-2.59,1.277A5.888,5.888,0,0,0,170.59,16.8Z" transform="translate(-2451 -9250)" fill="#0b428a"/>
    <path id="Trazado_706803" data-name="Trazado 706803" d="M7.008,15.395A10.58,10.58,0,0,1,2.795,13.35a3.907,3.907,0,0,1-1.318-2.994A4.127,4.127,0,0,1,3.088,7.021,6.4,6.4,0,0,1,7.277,5.7a6.99,6.99,0,0,1,3.135.68,5.154,5.154,0,0,1,2.133,1.875,4.8,4.8,0,0,1,.756,2.613H11.039a3.12,3.12,0,0,0-.984-2.44,4,4,0,0,0-2.777-.888,4.1,4.1,0,0,0-2.6.734,2.448,2.448,0,0,0-.932,2.037,2.2,2.2,0,0,0,.885,1.767A8.678,8.678,0,0,0,7.646,13.4a13.974,13.974,0,0,1,3.328,1.319A5.05,5.05,0,0,1,12.756,16.4a4.292,4.292,0,0,1,.58,2.262,3.987,3.987,0,0,1-1.617,3.322,6.9,6.9,0,0,1-4.324,1.248,8.02,8.02,0,0,1-3.281-.674,5.522,5.522,0,0,1-2.35-1.846,4.5,4.5,0,0,1-.826-2.66H3.2A2.939,2.939,0,0,0,4.342,20.5a4.811,4.811,0,0,0,3.053.9,4.423,4.423,0,0,0,2.73-.727,2.36,2.36,0,0,0,.949-1.98,2.317,2.317,0,0,0-.879-1.939A10.133,10.133,0,0,0,7.008,15.395Zm14.133,7.84a5.54,5.54,0,0,1-4.2-1.693,6.285,6.285,0,0,1-1.617-4.529v-.4a7.609,7.609,0,0,1,.721-3.369,5.622,5.622,0,0,1,2.016-2.32,5.068,5.068,0,0,1,2.807-.838,4.749,4.749,0,0,1,3.844,1.629,7.053,7.053,0,0,1,1.371,4.664v.9H17.5a4.507,4.507,0,0,0,1.1,3.029,3.444,3.444,0,0,0,2.666,1.154A3.776,3.776,0,0,0,23.2,21,4.888,4.888,0,0,0,24.6,19.754l1.324,1.031A5.325,5.325,0,0,1,21.141,23.234Zm-.27-11.367a2.892,2.892,0,0,0-2.2.955,4.642,4.642,0,0,0-1.1,2.678h6.352v-.164a4.129,4.129,0,0,0-.891-2.561A2.723,2.723,0,0,0,20.871,11.867Zm12.809,9.6a3.123,3.123,0,0,0,2.027-.7A2.474,2.474,0,0,0,36.668,19h2.051a3.931,3.931,0,0,1-.75,2.074,4.94,4.94,0,0,1-1.846,1.57,5.326,5.326,0,0,1-2.443.586,5.223,5.223,0,0,1-4.119-1.729,6.884,6.884,0,0,1-1.529-4.729v-.363a7.634,7.634,0,0,1,.68-3.293,5.177,5.177,0,0,1,1.951-2.238,5.543,5.543,0,0,1,3.006-.8,5.085,5.085,0,0,1,3.545,1.277,4.565,4.565,0,0,1,1.506,3.316H36.668a2.988,2.988,0,0,0-.932-2.021,2.9,2.9,0,0,0-2.068-.791,3.034,3.034,0,0,0-2.561,1.189A5.586,5.586,0,0,0,30.2,16.5v.41a5.475,5.475,0,0,0,.9,3.375A3.049,3.049,0,0,0,33.68,21.465Zm15.3.281a4.6,4.6,0,0,1-3.715,1.488,3.942,3.942,0,0,1-3.088-1.178,5.1,5.1,0,0,1-1.072-3.486V10.32h2.168v8.191q0,2.883,2.344,2.883a3.245,3.245,0,0,0,3.3-1.852V10.32h2.168V23H49.031ZM56.438,10.32l.07,1.594a4.621,4.621,0,0,1,3.8-1.828q4.02,0,4.055,4.535V23H62.191V14.609a2.919,2.919,0,0,0-.627-2.027,2.512,2.512,0,0,0-1.916-.656,3.129,3.129,0,0,0-1.852.563,3.82,3.82,0,0,0-1.242,1.477V23H54.387V10.32ZM67.1,16.555a7.428,7.428,0,0,1,1.383-4.693,4.7,4.7,0,0,1,7.148-.252V5H77.8V23H75.809L75.7,21.641a4.415,4.415,0,0,1-3.621,1.594,4.331,4.331,0,0,1-3.592-1.8A7.512,7.512,0,0,1,67.1,16.719Zm2.168.246a5.624,5.624,0,0,0,.891,3.375,2.879,2.879,0,0,0,2.461,1.219,3.163,3.163,0,0,0,3.012-1.852V13.719a3.187,3.187,0,0,0-2.988-1.793,2.893,2.893,0,0,0-2.484,1.23A6.192,6.192,0,0,0,69.27,16.8ZM88.992,23a4.554,4.554,0,0,1-.3-1.336,4.837,4.837,0,0,1-3.609,1.57A4.476,4.476,0,0,1,82,22.174a3.431,3.431,0,0,1-1.2-2.689,3.584,3.584,0,0,1,1.506-3.076,7.1,7.1,0,0,1,4.236-1.1h2.109v-1a2.435,2.435,0,0,0-.68-1.811,2.732,2.732,0,0,0-2-.674,3.161,3.161,0,0,0-1.945.586,1.727,1.727,0,0,0-.785,1.418h-2.18A2.992,2.992,0,0,1,81.732,12a4.6,4.6,0,0,1,1.828-1.4,6.15,6.15,0,0,1,2.537-.516,5.013,5.013,0,0,1,3.434,1.1A3.953,3.953,0,0,1,90.82,14.2v5.836a7.135,7.135,0,0,0,.445,2.777V23Zm-3.6-1.652a3.81,3.81,0,0,0,1.934-.527,3.19,3.19,0,0,0,1.324-1.371v-2.6h-1.7q-3.984,0-3.984,2.332a1.974,1.974,0,0,0,.68,1.594A2.612,2.612,0,0,0,85.395,21.348Zm14.953-9.082a6.5,6.5,0,0,0-1.066-.082A2.857,2.857,0,0,0,96.387,14v9H94.219V10.32h2.109l.035,1.465a3.376,3.376,0,0,1,3.023-1.7,2.215,2.215,0,0,1,.961.164ZM104.7,23h-2.168V10.32H104.7ZM102.352,6.957a1.294,1.294,0,0,1,.322-.891,1.21,1.21,0,0,1,.955-.363,1.229,1.229,0,0,1,.961.363,1.28,1.28,0,0,1,.328.891,1.238,1.238,0,0,1-.328.879,1.251,1.251,0,0,1-.961.352,1.232,1.232,0,0,1-.955-.352A1.251,1.251,0,0,1,102.352,6.957ZM115.992,23a4.554,4.554,0,0,1-.3-1.336,4.837,4.837,0,0,1-3.609,1.57A4.476,4.476,0,0,1,109,22.174a3.431,3.431,0,0,1-1.2-2.689,3.584,3.584,0,0,1,1.506-3.076,7.1,7.1,0,0,1,4.236-1.1h2.109v-1a2.435,2.435,0,0,0-.68-1.811,2.732,2.732,0,0,0-2-.674,3.161,3.161,0,0,0-1.945.586,1.727,1.727,0,0,0-.785,1.418h-2.18A2.992,2.992,0,0,1,108.732,12a4.6,4.6,0,0,1,1.828-1.4,6.15,6.15,0,0,1,2.537-.516,5.013,5.013,0,0,1,3.434,1.1A3.953,3.953,0,0,1,117.82,14.2v5.836a7.135,7.135,0,0,0,.445,2.777V23Zm-3.6-1.652a3.81,3.81,0,0,0,1.934-.527,3.19,3.19,0,0,0,1.324-1.371v-2.6h-1.7q-3.984,0-3.984,2.332a1.974,1.974,0,0,0,.68,1.594A2.612,2.612,0,0,0,112.395,21.348ZM128.6,19.637a1.6,1.6,0,0,0-.662-1.365,6.373,6.373,0,0,0-2.309-.838,10.915,10.915,0,0,1-2.613-.844,3.718,3.718,0,0,1-1.43-1.172,2.8,2.8,0,0,1-.463-1.617,3.289,3.289,0,0,1,1.318-2.637,5.149,5.149,0,0,1,3.369-1.078,5.3,5.3,0,0,1,3.5,1.113,3.536,3.536,0,0,1,1.342,2.848h-2.18a1.957,1.957,0,0,0-.756-1.535,2.832,2.832,0,0,0-1.9-.645,2.964,2.964,0,0,0-1.852.516,1.623,1.623,0,0,0-.668,1.348,1.315,1.315,0,0,0,.621,1.184,7.642,7.642,0,0,0,2.244.762,11.693,11.693,0,0,1,2.631.867,3.838,3.838,0,0,1,1.494,1.213,2.982,2.982,0,0,1,.486,1.729,3.245,3.245,0,0,1-1.359,2.725,5.7,5.7,0,0,1-3.527,1.025,6.385,6.385,0,0,1-2.7-.539,4.384,4.384,0,0,1-1.834-1.506,3.629,3.629,0,0,1-.662-2.092h2.168a2.245,2.245,0,0,0,.873,1.729,3.387,3.387,0,0,0,2.15.639,3.5,3.5,0,0,0,1.975-.5A1.53,1.53,0,0,0,128.6,19.637Z" transform="translate(-2671 -9258)" fill="#0b428a"/>
    <path id="Trazado_697030" data-name="Trazado 697030" d="M-2698.058-9360.123c-17.933.438-18.152-11.375-18.152-11.375v-50.736l-11.591-6.561,11.591-9.621v-46.8s.219-14.437,18.152-11.812" transform="translate(10.944 146.509)" fill="none" stroke="#0b428a" stroke-width="2"/>
    <path id="Trazado_697031" data-name="Trazado 697031" d="M-2711.931-9424.129c-9.568.234-9.685-6.07-9.685-6.07v-27.07l-6.185-3.5,6.185-5.135v-24.971s.117-7.7,9.685-6.3" transform="translate(244.446 141.901)" fill="none" stroke="#0b428a" stroke-width="2"/>
    <path id="Trazado_697032" data-name="Trazado 697032" d="M-2711.931-9453.314c-9.568.141-9.685-3.65-9.685-3.65v-16.281l-6.185-2.1,6.185-3.088v-15.02s.117-4.631,9.685-3.789" transform="translate(244.446 239.709)" fill="none" stroke="#0b428a" stroke-width="2"/>
  </g>
</svg>
