<svg xmlns="http://www.w3.org/2000/svg" xmlns:xlink="http://www.w3.org/1999/xlink" width="268.123" height="242.573" viewBox="0 0 268.123 242.573">
  <defs>
    <clipPath id="clip-path">
      <rect id="Rectángulo_339096" data-name="Rectángulo 339096" width="4.071" height="52.166" fill="none"/>
    </clipPath>
    <clipPath id="clip-path-2">
      <rect id="Rectángulo_339097" data-name="Rectángulo 339097" width="8.141" height="52.034" fill="none"/>
    </clipPath>
    <clipPath id="clip-path-3">
      <rect id="Rectángulo_339098" data-name="Rectángulo 339098" width="3.656" height="80.699" fill="none"/>
    </clipPath>
    <clipPath id="clip-path-4">
      <rect id="Rectángulo_339099" data-name="Rectángulo 339099" width="3.675" height="81.434" fill="none"/>
    </clipPath>
    <clipPath id="clip-path-5">
      <rect id="Rectángulo_339100" data-name="Rectángulo 339100" width="8.179" height="80.416" fill="none"/>
    </clipPath>
    <clipPath id="clip-path-6">
      <rect id="Rectángulo_339101" data-name="Rectángulo 339101" width="59.893" height="39.709" fill="none"/>
    </clipPath>
    <clipPath id="clip-path-7">
      <rect id="Rectángulo_339102" data-name="Rectángulo 339102" width="27.459" height="15.85" fill="none"/>
    </clipPath>
    <clipPath id="clip-path-8">
      <path id="Trazado_696836" data-name="Trazado 696836" d="M67.816,61.388c5.352,3.091,5.352,8.1,0,11.213a21.478,21.478,0,0,1-19.411,0c-5.352-3.091-5.352-8.1,0-11.213a21.478,21.478,0,0,1,19.411,0" transform="translate(-44.39 -59.07)" fill="none"/>
    </clipPath>
    <linearGradient id="linear-gradient" x1="-18.817" y1="56.646" x2="-18.816" y2="56.646" gradientUnits="objectBoundingBox">
      <stop offset="0" stop-color="#7eb9e6"/>
      <stop offset="0.28" stop-color="#648eca"/>
      <stop offset="0.59" stop-color="#4865ae"/>
      <stop offset="0.85" stop-color="#3d56a2"/>
      <stop offset="1" stop-color="#3a519f"/>
    </linearGradient>
    <clipPath id="clip-path-9">
      <path id="Trazado_696837" data-name="Trazado 696837" d="M50.272,47.7c-4.523,2.62-4.523,6.86,0,9.461a18.086,18.086,0,0,0,16.4,0c4.523-2.62,4.523-6.86,0-9.48a18.144,18.144,0,0,0-16.4,0" transform="translate(-46.88 -45.721)" fill="none"/>
    </clipPath>
    <linearGradient id="linear-gradient-2" x1="-22.459" y1="71.8" x2="-22.456" y2="71.8" gradientUnits="objectBoundingBox">
      <stop offset="0" stop-color="#4c3c80"/>
      <stop offset="1" stop-color="#a573af"/>
    </linearGradient>
    <clipPath id="clip-path-10">
      <rect id="Rectángulo_339103" data-name="Rectángulo 339103" width="66.168" height="41.443" fill="none"/>
    </clipPath>
    <clipPath id="clip-path-11">
      <path id="Trazado_696838" data-name="Trazado 696838" d="M103.474,69.486h.151s-233.182,882.412.075,0h.641l3.581.942a1.169,1.169,0,0,1,.867-.151s11.609,2.28,11.666,2.3a5.432,5.432,0,0,1,1.527.433h.057l45.306,26.215,2.2,3.166-2.2,5.748-4.429,2.563L115.931,83.413v-.038a2.473,2.473,0,0,1-.528-.452s-8.537-9.385-8.556-9.4a1.067,1.067,0,0,1-.264-.9l-2.6-2.563-.019-.019-.019-.019L103.926,70l-.019-.019-.019-.019-.019-.019s-.019,0-.019-.038h0s0-.038-.019-.038l-.019-.019-.019-.019-.019-.019a.018.018,0,0,1-.019-.019l-.057-.057-.019-.019-.019-.019-.019-.019a197.559,197.559,0,0,0-.057-.057l-.019-.019a162690.328,162690.328,0,0,1-.038-.038c-.094-.038.038-.264.132-.207" transform="translate(-0.011 -69.345)" fill="none"/>
    </clipPath>
    <linearGradient id="linear-gradient-3" x1="-8.926" y1="23.299" x2="-8.925" y2="23.299" xlink:href="#linear-gradient"/>
    <clipPath id="clip-path-12">
      <rect id="Rectángulo_339104" data-name="Rectángulo 339104" width="22.314" height="29.155" fill="none"/>
    </clipPath>
  </defs>
  <g id="COMPU" transform="translate(0 0)">
    <path id="Trazado_662499" data-name="Trazado 662499" d="M99.266,69.966c1.018,2.544-1.244,7.237-4.2,8.481a2.184,2.184,0,0,1-2.883-.584,4.066,4.066,0,0,0,2.789-1.131,9.079,9.079,0,0,0,2.978-5.164,4.1,4.1,0,0,0-.415-2.978,2.018,2.018,0,0,1,1.734,1.357" transform="translate(-2.115 60.671)" fill="#72a368"/>
    <path id="Trazado_662500" data-name="Trazado 662500" d="M90.851,71.845A10.752,10.752,0,0,1,92.3,69.659,9.04,9.04,0,0,1,94,68.076a5.524,5.524,0,0,1,1.979-.961,2.882,2.882,0,0,1,1.979.245h0l3,1.734h0a3.08,3.08,0,0,0-2.638.075A10.432,10.432,0,0,0,92.868,77.8a3.387,3.387,0,0,0,1.413,3.11h0c-3.26-1.9-3.091-1.772-3.11-1.809a2.885,2.885,0,0,1-1.112-1.395h0a7.941,7.941,0,0,1,.81-5.861" transform="translate(-4.198 59.3)" fill="#72a368"/>
    <path id="Trazado_662501" data-name="Trazado 662501" d="M93.612,72.1a.867.867,0,0,1-.075-.528,2,2,0,0,1,.6-1.206,1.115,1.115,0,0,1,.848-.377.593.593,0,0,1,.32.245.744.744,0,0,1,.075.4c-.038,1.168-1.319,2.243-1.772,1.47" transform="translate(-0.928 61.909)" fill="#1a2738"/>
    <path id="Trazado_662502" data-name="Trazado 662502" d="M92.675,73.247a.6.6,0,0,1-.565-.019.589.589,0,0,1-.17-.207,7.528,7.528,0,0,1,.415-1.583,1.118,1.118,0,0,1,1.018-.509c.207.057.377.245.377.641a2.021,2.021,0,0,1-.415,1.131,1.393,1.393,0,0,1-.641.547" transform="translate(-2.327 62.723)" fill="#1a2738"/>
    <path id="Trazado_662503" data-name="Trazado 662503" d="M95.066,73.325c.452.773,1.734-.3,1.772-1.47a.927.927,0,0,0-.075-.4.593.593,0,0,0-.32-.245,1.054,1.054,0,0,0-.848.377,2.232,2.232,0,0,0-.6,1.206.829.829,0,0,0,.075.528m-2.827,2a.677.677,0,0,0,.471-.019,1.393,1.393,0,0,0,.641-.547,2.021,2.021,0,0,0,.415-1.131c0-.49-.264-.584-.283-.6-.377-.188-.81.151-1.093.471a8.208,8.208,0,0,1,3.977-4.617,2.828,2.828,0,0,1,1.413-.264c1.357,1.979-.075,6.087-2.563,8.142a4.154,4.154,0,0,1-2.789,1.131,3.845,3.845,0,0,1-.452-2.7l.264.151" transform="translate(-2.363 60.684)" fill="#557a4c"/>
    <path id="Trazado_662504" data-name="Trazado 662504" d="M100.75,69.669c-.584-1.451-1.979-2.148-3.863-1.338a10.432,10.432,0,0,0-5.447,8.632c0,2.657,1.7,4.127,4.165,3.091,3.618-1.527,6.389-7.275,5.145-10.384m-5.032,9.31c-2.28.961-3.713-.7-3.355-3.279a7.078,7.078,0,0,1,.433-1.677c1.225-3.3,4.335-5.729,6.219-4.636a2.195,2.195,0,0,1,.9,1.112c1.018,2.544-1.244,7.237-4.2,8.481" transform="translate(-2.77 60.138)" fill="#85bf80"/>
    <path id="Trazado_662505" data-name="Trazado 662505" d="M104.283,74.255a3.533,3.533,0,0,1,0,2.073,6.2,6.2,0,0,1-1.527,2.638c-1.7,1.734-3.487,1.263-3.487-.792a5.685,5.685,0,0,1,1.7-3.769,3.04,3.04,0,0,1,2.186-1.055,1.345,1.345,0,0,1,1.15.9" transform="translate(4.157 64.881)" fill="#da926d"/>
    <path id="Trazado_662506" data-name="Trazado 662506" d="M105.826,77.66a3.533,3.533,0,0,0,0-2.073,1.345,1.345,0,0,0-1.15-.9c-1.6-.151-3.882,2.412-3.882,4.843,0,2.054,1.79,2.507,3.487.792a6.2,6.2,0,0,0,1.527-2.638m-1.489-5.5c5.145,3.128-.32,12.589-5.654,9.555a2.528,2.528,0,0,1-1.093-1.809c-.471-3.637,2.865-7.859,5.409-8.047a2.2,2.2,0,0,1,1.338.3" transform="translate(2.614 63.568)" fill="#e2ae4a"/>
    <path id="Trazado_662507" data-name="Trazado 662507" d="M97.984,71.649A7.646,7.646,0,0,0,96.307,73.7a1.663,1.663,0,0,1-.7-.6,1.375,1.375,0,0,1-.17-.66,1.3,1.3,0,0,1,1.319-1.3,1.375,1.375,0,0,1,.66.17l.565.339h0Z" transform="translate(0.769 62.926)" fill="#c8d1dc"/>
    <path id="Trazado_662508" data-name="Trazado 662508" d="M100.52,82.649c-.584-.339-2.6-1.508-2.9-1.677a4.26,4.26,0,0,1-2.167-3.788c0-2.638,2.092-5.767,4.693-6.313a4.217,4.217,0,0,1,3.015.509l2.865,1.658c-2.638-1.413-7.161,3.618-6.615,7.821a2.59,2.59,0,0,0,1.093,1.809" transform="translate(0.777 62.612)" fill="#e2ae4a"/>
    <path id="Trazado_662509" data-name="Trazado 662509" d="M94.462,74.521a1.293,1.293,0,0,1-.415-1.809,1.324,1.324,0,0,1,1.734-.471h0l1.772,1.018a6.81,6.81,0,0,0-.66,2.638c-.019,0,.019,0-2.412-1.395" transform="translate(-0.647 63.767)" fill="#c8d1dc"/>
    <path id="Trazado_662510" data-name="Trazado 662510" d="M88.85,129.611,183.269,75.24a22.613,22.613,0,0,1,22.6,0L270.243,112.4l5.541-1.9v7.1h0a3.451,3.451,0,0,1-1.734,3l-95.644,55.068a22.613,22.613,0,0,1-22.6,0L87.625,136.3a3.434,3.434,0,0,1-1.715-2.695h0v-7.369l2.94,3.355Z" transform="translate(-7.662 63.877)" fill="#e4e8ee"/>
    <path id="Trazado_662511" data-name="Trazado 662511" d="M274.047,116.861l-2.262,1.3-57.857,33.32-6.313,3.637L178.4,171.948a22.659,22.659,0,0,1-22.6,0L87.623,132.579a3.478,3.478,0,0,1-1.263-4.749,3.383,3.383,0,0,1,1.263-1.263l78.946-45.476,4.693-2.714,11.986-6.9a22.613,22.613,0,0,1,22.6,0l3.732,2.167,4.919,2.846L226.4,83.372l4.108,2.375,27.082,15.642h0l13.607,7.859,2.827,1.64a3.456,3.456,0,0,1,1.263,4.73,3.63,3.63,0,0,1-1.282,1.282" transform="translate(-7.678 60.551)" fill="#fefefe"/>
    <path id="Trazado_662512" data-name="Trazado 662512" d="M268.736,113.027s0,.057-.019.075a2.25,2.25,0,0,1-1.018,1.263l-4.278,2.469-88.708,51.073a19.636,19.636,0,0,1-19.581,0L89.378,129.951a2.082,2.082,0,0,1,0-3.6l93.212-53.674a19.636,19.636,0,0,1,19.581,0l3.713,2.148,4.052,2.337,14.3,8.273,4.165,2.412,22.389,12.928,16.867,9.743a2.233,2.233,0,0,1,1.037,2.544" transform="translate(-5.514 61.973)" fill="#c0d368"/>
    <path id="Trazado_662513" data-name="Trazado 662513" d="M112.465,124.617c.151.415.773.66,1.206.716l45.834,7.086a6.463,6.463,0,0,0,4.184-.7,2.642,2.642,0,0,0,1-1.037L171,117.06v.848l5.07-10.931v-.848l6.313-13.607a1.44,1.44,0,0,0,.151-.622v2.846a1.377,1.377,0,0,1-.151.622l-17.715,38.145a2.519,2.519,0,0,1-1,1.037,6.463,6.463,0,0,1-4.184.7l-45.834-7.086a1.79,1.79,0,0,1-1.112-.547.729.729,0,0,1-.151-.4v-2.846h0a.663.663,0,0,0,.038.226" transform="translate(15.763 81.291)" fill="#596876"/>
    <path id="Trazado_662514" data-name="Trazado 662514" d="M131.718,87.287s.075-.057.132-.094a2.523,2.523,0,0,1,1.7-.283L179.38,94a5.2,5.2,0,0,1,2.262.867,1.924,1.924,0,0,1,.886,1.489,1.377,1.377,0,0,1-.151.622l-6.313,13.607-1.282-.207-5.07,10.931.792.132.49.075-6.313,13.626a2.519,2.519,0,0,1-1,1.037,6.463,6.463,0,0,1-4.184.7l-45.834-7.086c-.433-.075-1.055-.3-1.206-.716a.946.946,0,0,1-.038-.226.366.366,0,0,1,.057-.245l19.016-40.99a.854.854,0,0,1,.245-.32m41.141,21.9a.75.75,0,0,0-.4-.867,3.16,3.16,0,0,0-1.244-.358S160.609,106.3,160.5,106.3a2.452,2.452,0,0,0-1.772.339,1.508,1.508,0,0,0-.245.245c-.075.132-5.8,12.495-5.8,12.514a1.009,1.009,0,0,0-.094.207.75.75,0,0,0,.4.867,3.16,3.16,0,0,0,1.244.358l10.516,1.64a3.369,3.369,0,0,0,1.15.038,1.767,1.767,0,0,0,1.093-.565c.075-.132,5.8-12.495,5.8-12.514a1.01,1.01,0,0,0,.094-.207" transform="translate(15.789 76.839)" fill="#687682"/>
    <path id="Trazado_662515" data-name="Trazado 662515" d="M146.792,99.558v.848l-.942.075-.339-1.112,1.282.207Z" transform="translate(45.061 87.899)" fill="#1a2738"/>
    <path id="Trazado_662516" data-name="Trazado 662516" d="M147.9,99.369l.339,1.112-4.617,9.932-.81-.132,5.07-10.931Z" transform="translate(42.672 87.881)" fill="#1a2738"/>
    <path id="Trazado_662517" data-name="Trazado 662517" d="M153.634,99.243a.74.74,0,0,1,.4.867,1.011,1.011,0,0,1-.094.207s-5.729,12.382-5.8,12.495a1.678,1.678,0,0,1-1.093.565,2.955,2.955,0,0,1-1.15-.038l-10.516-1.64a2.875,2.875,0,0,1-1.244-.358.74.74,0,0,1-.4-.867,1.007,1.007,0,0,1,.094-.207s5.729-12.382,5.8-12.495a1.506,1.506,0,0,1,.245-.245,2.529,2.529,0,0,1,1.772-.339l10.742,1.658a2.875,2.875,0,0,1,1.244.358" transform="translate(34.619 85.934)" fill="#596876"/>
    <path id="Trazado_662518" data-name="Trazado 662518" d="M148.791,99.92l-5.07,10.931V110l-.471-.075L147.867,100l.942-.057Z" transform="translate(43.062 88.385)" fill="#283c48"/>
    <path id="Trazado_662519" data-name="Trazado 662519" d="M140.751,91.447l-1.206,2.582a.647.647,0,0,1-.716.377l-3.11-.49a.678.678,0,0,1-.565-.773.363.363,0,0,1,.057-.188l1.206-2.582a.647.647,0,0,1,.716-.377l3.11.471a.668.668,0,0,1,.565.773.718.718,0,0,1-.057.188" transform="translate(35.892 79.596)" fill="#1a2738"/>
    <path id="Trazado_662520" data-name="Trazado 662520" d="M139.671,93.777l-1.206,2.582a.647.647,0,0,1-.716.377l-3.11-.49a.668.668,0,0,1-.565-.773.718.718,0,0,1,.057-.188l1.206-2.582a.647.647,0,0,1,.716-.377l3.11.49a.668.668,0,0,1,.565.773.719.719,0,0,1-.057.188" transform="translate(34.937 81.657)" fill="#1a2738"/>
    <path id="Trazado_662521" data-name="Trazado 662521" d="M138.591,96.108l-1.206,2.582a.647.647,0,0,1-.716.377l-3.11-.471a.678.678,0,0,1-.565-.773.363.363,0,0,1,.057-.188l1.206-2.582a.647.647,0,0,1,.716-.377l3.11.49a.668.668,0,0,1,.565.773.719.719,0,0,1-.057.188" transform="translate(33.982 83.736)" fill="#1a2738"/>
    <path id="Trazado_662522" data-name="Trazado 662522" d="M137.811,91,136.6,93.579a.647.647,0,0,1-.716.377l-3.11-.49a.668.668,0,0,1-.565-.773.719.719,0,0,1,.057-.188l1.187-2.582a.647.647,0,0,1,.716-.377l3.11.49a.668.668,0,0,1,.565.773.719.719,0,0,1-.057.188" transform="translate(33.292 79.198)" fill="#1a2738"/>
    <path id="Trazado_662523" data-name="Trazado 662523" d="M137.492,98.447l-1.187,2.582a.647.647,0,0,1-.716.377l-3.11-.49a.678.678,0,0,1-.565-.773.718.718,0,0,1,.057-.188l1.206-2.582a.647.647,0,0,1,.716-.377l3.11.49a.668.668,0,0,1,.565.773.719.719,0,0,1-.057.188" transform="translate(33.026 85.788)" fill="#1a2738"/>
    <path id="Trazado_662524" data-name="Trazado 662524" d="M136.721,93.318,135.515,95.9a.647.647,0,0,1-.716.377l-3.11-.471a.678.678,0,0,1-.565-.773.363.363,0,0,1,.057-.188l1.206-2.582a.647.647,0,0,1,.716-.377l3.11.49a.668.668,0,0,1,.565.773.718.718,0,0,1-.057.188" transform="translate(32.328 81.268)" fill="#1a2738"/>
    <path id="Trazado_662525" data-name="Trazado 662525" d="M136.421,100.777l-1.206,2.582a.647.647,0,0,1-.716.377l-3.11-.49a.678.678,0,0,1-.565-.773.421.421,0,0,1,.057-.188l1.206-2.582a.647.647,0,0,1,.716-.377l3.11.49a.668.668,0,0,1,.565.773.719.719,0,0,1-.057.188" transform="translate(32.062 87.849)" fill="#1a2738"/>
    <path id="Trazado_662526" data-name="Trazado 662526" d="M135.641,95.657l-1.206,2.582a.647.647,0,0,1-.716.377l-3.11-.49a.678.678,0,0,1-.565-.773.421.421,0,0,1,.057-.188l1.206-2.582a.647.647,0,0,1,.716-.377l3.11.49a.668.668,0,0,1,.565.773.719.719,0,0,1-.057.188" transform="translate(31.372 83.32)" fill="#1a2738"/>
    <path id="Trazado_662527" data-name="Trazado 662527" d="M135.341,103.117l-1.206,2.582a.647.647,0,0,1-.716.377l-3.11-.49a.678.678,0,0,1-.565-.773.364.364,0,0,1,.057-.188l1.206-2.582a.647.647,0,0,1,.716-.377l3.11.471a.668.668,0,0,1,.565.773.718.718,0,0,1-.057.188" transform="translate(31.107 89.919)" fill="#1a2738"/>
    <path id="Trazado_662528" data-name="Trazado 662528" d="M134.861,90.528l-1.206,2.582a.647.647,0,0,1-.716.377l-3.11-.471a.678.678,0,0,1-.565-.773.363.363,0,0,1,.057-.188l1.206-2.582a.647.647,0,0,1,.716-.377l3.11.49a.668.668,0,0,1,.565.773.718.718,0,0,1-.057.188" transform="translate(30.682 78.8)" fill="#1a2738"/>
    <path id="Trazado_662529" data-name="Trazado 662529" d="M134.561,98l-1.206,2.582a.647.647,0,0,1-.716.377l-3.11-.49a.678.678,0,0,1-.565-.773.421.421,0,0,1,.057-.188l1.206-2.582a.647.647,0,0,1,.716-.377l3.11.49a.668.668,0,0,1,.565.773.718.718,0,0,1-.057.188" transform="translate(30.417 85.39)" fill="#1a2738"/>
    <path id="Trazado_662530" data-name="Trazado 662530" d="M134.251,105.447l-1.206,2.582a.647.647,0,0,1-.716.377l-3.11-.49a.668.668,0,0,1-.565-.773.718.718,0,0,1,.057-.188l1.206-2.582a.647.647,0,0,1,.716-.377l3.11.49a.668.668,0,0,1,.565.773.718.718,0,0,1-.057.188" transform="translate(30.143 91.98)" fill="#1a2738"/>
    <path id="Trazado_662531" data-name="Trazado 662531" d="M133.771,92.867l-1.206,2.582a.647.647,0,0,1-.716.377l-3.11-.49a.678.678,0,0,1-.565-.773.421.421,0,0,1,.057-.188l1.206-2.582a.647.647,0,0,1,.716-.377l3.11.49a.668.668,0,0,1,.565.773.718.718,0,0,1-.057.188" transform="translate(29.718 80.852)" fill="#1a2738"/>
    <path id="Trazado_662532" data-name="Trazado 662532" d="M133.471,100.327l-1.206,2.582a.647.647,0,0,1-.716.377l-3.11-.49a.678.678,0,0,1-.565-.773.364.364,0,0,1,.057-.188l1.206-2.582a.647.647,0,0,1,.716-.377l3.11.471a.668.668,0,0,1,.565.773.718.718,0,0,1-.057.188" transform="translate(29.453 87.451)" fill="#1a2738"/>
    <path id="Trazado_662533" data-name="Trazado 662533" d="M133.171,107.768l-1.206,2.582a.647.647,0,0,1-.716.377l-3.11-.471a.678.678,0,0,1-.565-.773.364.364,0,0,1,.057-.188l1.206-2.582a.647.647,0,0,1,.716-.377l3.11.49a.668.668,0,0,1,.565.773.719.719,0,0,1-.057.188" transform="translate(29.187 94.05)" fill="#1a2738"/>
    <path id="Trazado_662534" data-name="Trazado 662534" d="M132.691,95.207l-1.206,2.582a.647.647,0,0,1-.716.377l-3.11-.49a.668.668,0,0,1-.565-.773.364.364,0,0,1,.057-.188l1.187-2.582a.647.647,0,0,1,.716-.377l3.11.49a.668.668,0,0,1,.565.773.717.717,0,0,1-.057.188" transform="translate(28.763 82.922)" fill="#1a2738"/>
    <path id="Trazado_662535" data-name="Trazado 662535" d="M132.391,102.657l-1.206,2.582a.647.647,0,0,1-.716.377l-3.11-.49a.668.668,0,0,1-.565-.773.718.718,0,0,1,.057-.188l1.206-2.582a.647.647,0,0,1,.716-.377l3.11.49a.668.668,0,0,1,.565.773.719.719,0,0,1-.057.188" transform="translate(28.497 89.512)" fill="#1a2738"/>
    <path id="Trazado_662536" data-name="Trazado 662536" d="M132.091,110.117l-1.206,2.582a.647.647,0,0,1-.716.377l-3.11-.49a.678.678,0,0,1-.565-.773.364.364,0,0,1,.057-.188l1.206-2.582a.647.647,0,0,1,.716-.377l3.11.49a.668.668,0,0,1,.565.773.72.72,0,0,1-.057.188" transform="translate(28.232 96.111)" fill="#1a2738"/>
    <path id="Trazado_662537" data-name="Trazado 662537" d="M131.911,90.077,130.7,92.659a.647.647,0,0,1-.716.377l-3.11-.49a.678.678,0,0,1-.565-.773.364.364,0,0,1,.057-.188L127.576,89a.647.647,0,0,1,.716-.377l3.11.49a.668.668,0,0,1,.565.773.72.72,0,0,1-.057.188" transform="translate(28.073 78.384)" fill="#1a2738"/>
    <path id="Trazado_662538" data-name="Trazado 662538" d="M131.611,97.537l-1.206,2.582a.647.647,0,0,1-.716.377l-3.11-.49a.678.678,0,0,1-.565-.773.364.364,0,0,1,.057-.188l1.206-2.582a.647.647,0,0,1,.716-.377l3.11.471a.668.668,0,0,1,.565.773.72.72,0,0,1-.057.188" transform="translate(27.807 84.983)" fill="#1a2738"/>
    <path id="Trazado_662539" data-name="Trazado 662539" d="M131.311,104.978,130.1,107.56a.647.647,0,0,1-.716.377l-3.11-.471a.678.678,0,0,1-.565-.773.364.364,0,0,1,.057-.188l1.206-2.582a.647.647,0,0,1,.716-.377l3.11.49a.668.668,0,0,1,.565.773.364.364,0,0,1-.057.188" transform="translate(27.542 91.582)" fill="#1a2738"/>
    <path id="Trazado_662540" data-name="Trazado 662540" d="M130.831,92.417,129.625,95a.647.647,0,0,1-.716.377l-3.11-.49a.678.678,0,0,1-.565-.773.364.364,0,0,1,.057-.188l1.206-2.582a.647.647,0,0,1,.716-.377l3.11.49a.668.668,0,0,1,.565.773.719.719,0,0,1-.057.188" transform="translate(27.117 80.454)" fill="#1a2738"/>
    <path id="Trazado_662541" data-name="Trazado 662541" d="M130.531,99.867l-1.206,2.582a.647.647,0,0,1-.716.377l-3.11-.49a.668.668,0,0,1-.565-.773.718.718,0,0,1,.057-.188l1.206-2.582a.647.647,0,0,1,.716-.377l3.11.49a.668.668,0,0,1,.565.773.717.717,0,0,1-.057.188" transform="translate(26.852 87.044)" fill="#1a2738"/>
    <path id="Trazado_662542" data-name="Trazado 662542" d="M130.212,107.327l-1.187,2.582a.647.647,0,0,1-.716.377l-3.11-.49a.678.678,0,0,1-.565-.773.364.364,0,0,1,.057-.188l1.206-2.582a.647.647,0,0,1,.716-.377l3.11.49a.668.668,0,0,1,.565.773.718.718,0,0,1-.057.188" transform="translate(26.586 93.643)" fill="#1a2738"/>
    <path id="Trazado_662543" data-name="Trazado 662543" d="M129.751,94.747l-1.206,2.582a.647.647,0,0,1-.716.377l-3.11-.49a.678.678,0,0,1-.565-.773.364.364,0,0,1,.057-.188l1.206-2.582a.647.647,0,0,1,.716-.377l3.11.471a.668.668,0,0,1,.565.773.718.718,0,0,1-.057.188" transform="translate(26.162 82.515)" fill="#1a2738"/>
    <path id="Trazado_662544" data-name="Trazado 662544" d="M129.441,102.2l-1.206,2.582a.647.647,0,0,1-.716.377l-3.11-.471a.678.678,0,0,1-.565-.773.364.364,0,0,1,.057-.188l1.206-2.582a.647.647,0,0,1,.716-.377l3.11.49a.668.668,0,0,1,.565.773.717.717,0,0,1-.057.188" transform="translate(25.888 89.123)" fill="#1a2738"/>
    <path id="Trazado_662545" data-name="Trazado 662545" d="M129.141,109.657l-1.206,2.582a.647.647,0,0,1-.716.377l-3.11-.49a.678.678,0,0,1-.565-.773.421.421,0,0,1,.057-.188l1.187-2.582a.647.647,0,0,1,.716-.377l3.11.49a.668.668,0,0,1,.565.773.364.364,0,0,1-.057.188" transform="translate(25.622 95.704)" fill="#1a2738"/>
    <path id="Trazado_662546" data-name="Trazado 662546" d="M128.961,89.627l-1.206,2.582a.647.647,0,0,1-.716.377l-3.11-.49a.678.678,0,0,1-.565-.773.364.364,0,0,1,.057-.188l1.206-2.582a.647.647,0,0,1,.716-.377l3.11.49a.678.678,0,0,1,.565.773.364.364,0,0,1-.057.188" transform="translate(25.463 77.986)" fill="#1a2738"/>
    <path id="Trazado_662547" data-name="Trazado 662547" d="M128.661,97.077l-1.206,2.582a.647.647,0,0,1-.716.377l-3.11-.49a.668.668,0,0,1-.565-.773.718.718,0,0,1,.057-.188L124.326,96a.647.647,0,0,1,.716-.377l3.11.49a.668.668,0,0,1,.565.773.717.717,0,0,1-.057.188" transform="translate(25.198 84.576)" fill="#1a2738"/>
    <path id="Trazado_662548" data-name="Trazado 662548" d="M128.361,104.537l-1.206,2.582a.647.647,0,0,1-.716.377l-3.11-.49a.678.678,0,0,1-.565-.773.421.421,0,0,1,.057-.188l1.206-2.582a.647.647,0,0,1,.716-.377l3.11.49a.668.668,0,0,1,.565.773.717.717,0,0,1-.057.188" transform="translate(24.932 91.175)" fill="#1a2738"/>
    <path id="Trazado_662549" data-name="Trazado 662549" d="M127.881,91.957l-1.206,2.582a.647.647,0,0,1-.716.377l-3.11-.49a.678.678,0,0,1-.565-.773.364.364,0,0,1,.057-.188l1.206-2.582a.647.647,0,0,1,.716-.377l3.11.471a.668.668,0,0,1,.565.773.717.717,0,0,1-.057.188" transform="translate(24.508 80.047)" fill="#1a2738"/>
    <path id="Trazado_662550" data-name="Trazado 662550" d="M127.581,99.408l-1.206,2.582a.647.647,0,0,1-.716.377l-3.11-.471a.668.668,0,0,1-.565-.773.718.718,0,0,1,.057-.188l1.206-2.582a.647.647,0,0,1,.716-.377l3.11.49a.668.668,0,0,1,.565.773.718.718,0,0,1-.057.188" transform="translate(24.242 86.655)" fill="#1a2738"/>
    <path id="Trazado_662551" data-name="Trazado 662551" d="M127.281,106.867l-1.206,2.582a.647.647,0,0,1-.716.377l-3.11-.49a.678.678,0,0,1-.565-.773.421.421,0,0,1,.057-.188l1.206-2.582a.647.647,0,0,1,.716-.377l3.11.49a.668.668,0,0,1,.565.773.718.718,0,0,1-.057.188" transform="translate(23.977 93.236)" fill="#1a2738"/>
    <path id="Trazado_662552" data-name="Trazado 662552" d="M126.8,94.287l-1.206,2.582a.647.647,0,0,1-.716.377l-3.11-.49a.678.678,0,0,1-.565-.773.364.364,0,0,1,.057-.188l1.206-2.582a.647.647,0,0,1,.716-.377l3.11.471a.668.668,0,0,1,.565.773.364.364,0,0,1-.057.188" transform="translate(23.552 82.108)" fill="#1a2738"/>
    <path id="Trazado_662553" data-name="Trazado 662553" d="M126.5,101.747l-1.206,2.582a.647.647,0,0,1-.716.377l-3.11-.49a.678.678,0,0,1-.565-.773.421.421,0,0,1,.057-.188l1.206-2.582a.647.647,0,0,1,.716-.377l3.11.49a.668.668,0,0,1,.565.773.717.717,0,0,1-.057.188" transform="translate(23.287 88.707)" fill="#1a2738"/>
    <path id="Trazado_662554" data-name="Trazado 662554" d="M126.191,109.2l-1.206,2.582a.647.647,0,0,1-.716.377l-3.11-.49a.678.678,0,0,1-.565-.773.364.364,0,0,1,.057-.188l1.206-2.582a.647.647,0,0,1,.716-.377l3.11.471a.668.668,0,0,1,.565.773.717.717,0,0,1-.057.188" transform="translate(23.013 95.298)" fill="#1a2738"/>
    <path id="Trazado_662555" data-name="Trazado 662555" d="M125.711,96.618,124.5,99.2a.647.647,0,0,1-.716.377l-3.11-.471a.678.678,0,0,1-.565-.773.364.364,0,0,1,.057-.188l1.206-2.582a.647.647,0,0,1,.716-.377l3.11.49a.668.668,0,0,1,.565.773.718.718,0,0,1-.057.188" transform="translate(22.588 84.187)" fill="#1a2738"/>
    <path id="Trazado_662556" data-name="Trazado 662556" d="M125.411,104.077l-1.206,2.582a.647.647,0,0,1-.716.377l-3.11-.49a.678.678,0,0,1-.565-.773.421.421,0,0,1,.057-.188L121.076,103a.647.647,0,0,1,.716-.377l3.11.49a.668.668,0,0,1,.565.773.717.717,0,0,1-.057.188" transform="translate(22.323 90.768)" fill="#1a2738"/>
    <path id="Trazado_662557" data-name="Trazado 662557" d="M124.631,98.957l-1.206,2.582a.647.647,0,0,1-.716.377l-3.11-.49a.678.678,0,0,1-.565-.773.421.421,0,0,1,.057-.188l1.206-2.582a.647.647,0,0,1,.716-.377l3.11.49a.668.668,0,0,1,.565.773.717.717,0,0,1-.057.188" transform="translate(21.633 86.239)" fill="#1a2738"/>
    <path id="Trazado_662558" data-name="Trazado 662558" d="M110.789,117.426h0m-.415-2.375h0m.019.113v0m0,0c.019.113.038.245.075.415a.321.321,0,0,0,.019.132l-.151-.848c-.792-4.58-.773-4.561-.961-5.6-.358-2.054-.3-1.828-.4-2.262a5.2,5.2,0,0,1-.113-.754,3.406,3.406,0,0,1,.132-1.3c.057-.188,17.508-37.749,17.6-37.956a3.278,3.278,0,0,1,.264-.509A.3.3,0,0,1,127,66.41c.188,0,.283.4.3.584l6.577,38.371L115.481,145c-2.808-16.377-4.146-24.217-4.73-27.685v-.038h0c-.057-.32-.188-1.131-.3-1.715-.019-.151-.057-.3-.075-.415" transform="translate(12.634 58.742)" fill="#93d2f0"/>
    <path id="Trazado_662559" data-name="Trazado 662559" d="M124.331,106.407l-1.206,2.582a.647.647,0,0,1-.716.377l-3.11-.49a.678.678,0,0,1-.565-.773.364.364,0,0,1,.057-.188L120,105.332a.647.647,0,0,1,.716-.377l3.11.471a.668.668,0,0,1,.565.773.718.718,0,0,1-.057.188" transform="translate(21.367 92.829)" fill="#1a2738"/>
    <path id="Trazado_662560" data-name="Trazado 662560" d="M123.551,101.287l-1.206,2.582a.647.647,0,0,1-.716.377l-3.11-.49a.678.678,0,0,1-.565-.773.364.364,0,0,1,.057-.188l1.206-2.582a.647.647,0,0,1,.716-.377l3.11.49a.668.668,0,0,1,.565.773.717.717,0,0,1-.057.188" transform="translate(20.677 88.3)" fill="#1a2738"/>
    <path id="Trazado_662561" data-name="Trazado 662561" d="M123.251,108.747l-1.206,2.582a.647.647,0,0,1-.716.377l-3.11-.49a.668.668,0,0,1-.565-.773.718.718,0,0,1,.057-.188l1.206-2.582a.647.647,0,0,1,.716-.377l3.11.49a.668.668,0,0,1,.565.773.718.718,0,0,1-.057.188" transform="translate(20.412 94.899)" fill="#1a2738"/>
    <path id="Trazado_662562" data-name="Trazado 662562" d="M122.471,103.627l-1.206,2.582a.647.647,0,0,1-.716.377l-3.11-.49a.668.668,0,0,1-.565-.773.718.718,0,0,1,.057-.188l1.206-2.582a.647.647,0,0,1,.716-.377l3.11.471a.668.668,0,0,1,.565.773.364.364,0,0,1-.057.188" transform="translate(19.722 90.37)" fill="#1a2738"/>
    <path id="Trazado_662563" data-name="Trazado 662563" d="M121.381,105.957l-1.206,2.582a.647.647,0,0,1-.716.377l-3.11-.49a.668.668,0,0,1-.565-.773.717.717,0,0,1,.057-.188l1.206-2.582a.647.647,0,0,1,.716-.377l3.11.49a.668.668,0,0,1,.565.773.717.717,0,0,1-.057.188" transform="translate(18.758 92.431)" fill="#1a2738"/>
    <path id="Trazado_662564" data-name="Trazado 662564" d="M120.3,108.278l-1.206,2.582a.647.647,0,0,1-.716.377l-3.11-.471a.678.678,0,0,1-.565-.773.364.364,0,0,1,.057-.188l1.206-2.582a.647.647,0,0,1,.716-.377l3.11.49a.668.668,0,0,1,.565.773.719.719,0,0,1-.057.188" transform="translate(17.802 94.501)" fill="#1a2738"/>
    <path id="Trazado_662565" data-name="Trazado 662565" d="M125.745,64.84l3.3.094c-.245,0-.49.264-.7.716l-17.715,38.163a6.286,6.286,0,0,0-.433,1.432,13.554,13.554,0,0,0-.075,4.448l6.747,39.37a1.7,1.7,0,0,0,.151.528c.057.132.151.226.245.226-1.112-.038-2.224-.057-3.336-.094h0c-.226,0-.339-.49-.4-.754l-6.747-39.37a12,12,0,0,1-.151-2.469,9.43,9.43,0,0,1,.641-3.392l17.715-38.163c.132-.3.4-.735.716-.716" transform="translate(10.662 57.353)" fill="#596876"/>
    <path id="Trazado_662566" data-name="Trazado 662566" d="M115.988,148.057a1.187,1.187,0,0,0-.057.245h0v1.282q-.113.2-.226.17a.386.386,0,0,1-.245-.226,1.7,1.7,0,0,1-.151-.528l-6.747-39.37a13.06,13.06,0,0,1,.075-4.448,5.691,5.691,0,0,1,.433-1.432l17.715-38.163c.207-.452.452-.716.7-.716h.019c.283,0,.565.339.792,1.074.075.264.132.528.188.792l6.747,39.37a3.265,3.265,0,0,1,.057.6.7.7,0,0,0-.245.32l-19.034,40.99Zm18.3-41.292L127.71,68.394c-.038-.188-.132-.584-.3-.584a.191.191,0,0,0-.132.075,2.165,2.165,0,0,0-.264.509c-.094.207-17.546,37.768-17.6,37.956a3.778,3.778,0,0,0-.132,1.3,3.474,3.474,0,0,0,.113.754c.075.415.019.207.4,2.262.188,1.037.17,1.018.961,5.6.057.32.113.6.151.848a.279.279,0,0,0,.019.132c.019.038,0,.057,0,.094a.32.32,0,0,0,.019.132h0s0,.094.019.113c0,.057.019.113.019.151v.151a.424.424,0,0,0,.019.132c.019.151.038.264.057.358v.075c0,.057,0,.094.019.113s0,.075.019.132h0c.584,3.468,1.941,11.327,4.73,27.685l18.394-39.633Z" transform="translate(12.24 57.38)" fill="#283c48"/>
    <path id="Trazado_662567" data-name="Trazado 662567" d="M156.966,88.6a1.319,1.319,0,0,1,.17-.17h.038v-.038a.364.364,0,0,1,.188-.057h0s.057,0,.075.038h0c.264.207.528.4.792.6a30.956,30.956,0,0,0,4.184,2.6,24.753,24.753,0,0,0,10.365,2.507,29.753,29.753,0,0,0,18.827-6.106.507.507,0,0,1,.641.17.536.536,0,0,1,.17.32.349.349,0,0,1-.113.339,31.53,31.53,0,0,1-13.173,5.861,27.427,27.427,0,0,1-17.715-2.393,34.214,34.214,0,0,1-4.222-2.714c-.113-.094-.226-.17-.339-.264h-.019l-.019-.019-.038-.038a.478.478,0,0,1-.038-.226v-.057a.536.536,0,0,1,.075-.226c0-.019.019-.038.019-.057v-.038s.038-.038.057-.038" transform="translate(54.995 77.772)" fill="#3f4f5d"/>
    <path id="Trazado_662568" data-name="Trazado 662568" d="M156.685,88.971l2.186-1.263a.5.5,0,0,1,.358-.075c.019,0,.038,0,.057.038a.3.3,0,0,1,.132.17.947.947,0,0,1,.038.226V88.2a1.308,1.308,0,0,1-.6,1.037h0c-.264-.188-.528-.377-.792-.584h0a.276.276,0,0,0-.075-.038h-.019a.324.324,0,0,0-.188.057h0l-.038.038a1.436,1.436,0,0,0-.17.17v.038a.271.271,0,0,0-.057.038.069.069,0,0,0-.019.057.613.613,0,0,0-.075.264h0a1.015,1.015,0,0,0,.019.207V89.5l.038.038.019.019h.019a4.139,4.139,0,0,0,.339.264l-1.168.678a1.876,1.876,0,0,1-.207.075.478.478,0,0,1-.226-.038.271.271,0,0,1-.057-.038.483.483,0,0,1-.113-.358v-.132a1.308,1.308,0,0,1,.6-1.037" transform="translate(54.409 77.51)" fill="#1a2738"/>
    <path id="Trazado_662569" data-name="Trazado 662569" d="M157.845,87.165l-2.035,1.187a1.379,1.379,0,0,0-.6,1.018h0c-.32-.188-.622-.358-.942-.547a.3.3,0,0,1-.094-.207v-.132a.65.65,0,0,1,.32-.547l2.186-1.263a.379.379,0,0,1,.226-.019l.942.547" transform="translate(52.721 76.641)" fill="#727f90"/>
    <path id="Trazado_662570" data-name="Trazado 662570" d="M157.443,91.244l-2.563-1.47a.265.265,0,0,1-.075-.075.493.493,0,0,1-.094-.32v-.17a1.325,1.325,0,0,1,.6-1.018L157.367,87l.151-.094a.4.4,0,0,1,.433-.038l2.563,1.489a.19.19,0,0,0-.057-.019.465.465,0,0,0-.358.075l-2.186,1.263a1.308,1.308,0,0,0-.6,1.037v.132a.526.526,0,0,0,.113.339.271.271,0,0,1,.057.038" transform="translate(53.199 76.802)" fill="#283c48"/>
    <path id="Trazado_662571" data-name="Trazado 662571" d="M176.508,89.531c.792.471.848,1.074.547,1.527-.245.358-.622.528-1.395.961-.4.226-.792.452-1.187.7-.942.547-1.9,1.093-2.846,1.64s-1.885,1.112-2.846,1.658c-5.823,3.373-4.448,2.544-4.862,2.808a4.467,4.467,0,0,1-.66.358,3.888,3.888,0,0,1-3-.075l-26.686-15.4a3.968,3.968,0,0,1-1.187-.792.969.969,0,0,1,.075-1.338.573.573,0,0,1,.132-.094,9.577,9.577,0,0,1,1.112-.66c.4-.226.792-.452,1.187-.7.942-.547,1.9-1.093,2.846-1.64s1.885-1.112,2.846-1.658c5.823-3.373,4.448-2.544,4.862-2.808a3.857,3.857,0,0,1,1.244-.547,4.3,4.3,0,0,1,.829-.094,3.709,3.709,0,0,1,1.564.339c.132.057,27.383,15.793,27.4,15.812m-34.62-12.193c.113-.075.113-.17,0-.245l-.207-.113a.443.443,0,0,0-.433,0l-2.921,1.7a.47.47,0,0,0-.094.132h0a.338.338,0,0,0,.094.132h.038l.151.113a.444.444,0,0,0,.433,0l2.883-1.658.038-.038Z" transform="translate(33.248 64.908)" fill="#93d2f0"/>
    <path id="Trazado_662572" data-name="Trazado 662572" d="M155.56,84.251c0,.339-.4.678-.528.433a.223.223,0,0,1-.019-.151c.038-.3.3-.509.433-.471a.2.2,0,0,1,.132.188" transform="translate(53.461 74.353)" fill="#283c48"/>
    <path id="Trazado_662573" data-name="Trazado 662573" d="M155.058,84.272s.132.113.132.188c0,.3-.32.6-.471.509-.019,0-.038-.038-.057-.057a.266.266,0,0,1-.019-.17c.038-.3.3-.509.433-.471" transform="translate(53.134 74.539)" fill="#283c48"/>
    <path id="Trazado_662574" data-name="Trazado 662574" d="M154.79,84.691c0,.339-.4.678-.528.433a.223.223,0,0,1-.019-.151c.038-.3.3-.509.433-.471a.181.181,0,0,1,.132.188" transform="translate(52.78 74.743)" fill="#283c48"/>
    <path id="Trazado_662575" data-name="Trazado 662575" d="M154.39,84.931c0,.3-.32.6-.471.509-.019,0-.038-.038-.057-.057a.266.266,0,0,1-.019-.17c.038-.3.3-.509.433-.471a.2.2,0,0,1,.132.188" transform="translate(52.426 74.955)" fill="#283c48"/>
    <path id="Trazado_662576" data-name="Trazado 662576" d="M176.088,89.512s-.038-.17-.132-.188c-.132-.038-.4.17-.433.471a.368.368,0,0,0,.019.151c.132.245.528-.094.528-.433m-2.2,1.282s-.038-.17-.132-.188c-.132-.038-.4.17-.433.471a.522.522,0,0,0,.019.17c0,.019.038.038.057.057.17.094.471-.207.471-.509m.754-.433s-.038-.17-.132-.188c-.132-.038-.4.17-.433.471a.368.368,0,0,0,.019.151c.132.245.528-.094.528-.433m.188-.151a.729.729,0,0,0,.019.17c0,.019.038.038.057.057.17.094.471-.207.471-.509a.169.169,0,0,0-.132-.188c-.132-.038-.4.17-.433.471m-7.256,4.24c0-.32-.283-.452-.584-.132a1.077,1.077,0,0,0-.132.151c-.019.038-.057.075-.075.113h0a1.412,1.412,0,0,0-.094.3.517.517,0,0,0,.038.245.227.227,0,0,0,.094.094c.264.151.735-.3.754-.792m4.6-2.733s-.038-.17-.113-.207a.374.374,0,0,0-.207.019l-2.186,1.263a.726.726,0,0,0-.32.547v.132a.2.2,0,0,0,.151.226.28.28,0,0,0,.17-.038l2.186-1.263a.726.726,0,0,0,.32-.547Zm-40.01-12.872a2.223,2.223,0,0,0,.6.509l27.251,15.737a3.361,3.361,0,0,0,1.018.4,5.429,5.429,0,0,0,1.112.113,4.232,4.232,0,0,0,2.13-.509l12.966-7.482a1.839,1.839,0,0,0,.867-.98c0-.075.019-.132.019-.207v2.525a1.514,1.514,0,0,1-.886,1.225L164.2,97.635a3.361,3.361,0,0,1-1.018.4,4.713,4.713,0,0,1-3.242-.4L132.686,81.9l-.339-.226a1.412,1.412,0,0,1-.547-1.018h0V78.11h0a1.191,1.191,0,0,0,.283.735" transform="translate(32.933 69.092)" fill="#596876"/>
    <path id="Trazado_662577" data-name="Trazado 662577" d="M154.22,85.245s.151-.057.207-.019a.236.236,0,0,1,.113.207v.132a.65.65,0,0,1-.32.547l-2.186,1.263s-.207.057-.283-.019a.181.181,0,0,1-.038-.17v-.132a.65.65,0,0,1,.32-.547Z" transform="translate(50.542 75.376)" fill="#283c48"/>
    <path id="Trazado_662578" data-name="Trazado 662578" d="M150.605,86.783c.3-.3.6-.188.584.132,0,.471-.49.942-.754.792a.227.227,0,0,1-.094-.094.377.377,0,0,1-.038-.245.57.57,0,0,1,.094-.3h0a1.113,1.113,0,0,0,.075-.113.508.508,0,0,1,.132-.151" transform="translate(49.295 76.608)" fill="#283c48"/>
    <path id="Trazado_662579" data-name="Trazado 662579" d="M169.7,91.914,156.734,99.4a4.232,4.232,0,0,1-2.13.509v-.32a4.1,4.1,0,0,0,1.432-.264,4.468,4.468,0,0,0,.66-.358c.415-.245-.961.565,4.862-2.808.942-.547,1.885-1.112,2.846-1.658s1.9-1.093,2.846-1.64c.4-.226.792-.471,1.187-.7a3.956,3.956,0,0,0,1.395-.961c.32-.452.245-1.055-.547-1.527-.038-.019-27.289-15.755-27.4-15.812a3.794,3.794,0,0,0-1.583-.339V73.2a5.567,5.567,0,0,1,1.112.113,3.181,3.181,0,0,1,1.018.4l27.251,15.737a2.225,2.225,0,0,1,.6.509,1.372,1.372,0,0,1,.283.754.706.706,0,0,1-.019.207,1.707,1.707,0,0,1-.867.98" transform="translate(40.452 64.749)" fill="#727f90"/>
    <path id="Trazado_662580" data-name="Trazado 662580" d="M138.343,75.467a.443.443,0,0,1,.433,0l.151.094-2.883,1.677a.444.444,0,0,1-.433,0l-.151-.094Z" transform="translate(36.171 66.704)" fill="#050202"/>
    <path id="Trazado_662581" data-name="Trazado 662581" d="M138.82,75.325l.207.113s.113.094.094.151c0,.038-.038.075-.094.094h-.038l-.151-.057a.443.443,0,0,0-.433,0l-2.883,1.658h-.038a.713.713,0,0,1-.094-.151h0s.038-.113.094-.132l2.921-1.7a.443.443,0,0,1,.433,0" transform="translate(36.109 66.562)" fill="#1a2738"/>
    <path id="Trazado_662582" data-name="Trazado 662582" d="M132.64,83.057c.226.264.4.339,1.187.792,0,0,26.554,15.341,26.686,15.4a3.771,3.771,0,0,0,1.564.339v.32a5.248,5.248,0,0,1-1.093-.113,3.36,3.36,0,0,1-1.018-.4L132.716,83.66a2.225,2.225,0,0,1-.6-.509,1.314,1.314,0,0,1-.283-.735,1.076,1.076,0,0,1,.019-.245,1.708,1.708,0,0,1,.867-.98l12.966-7.482a4.232,4.232,0,0,1,2.13-.509v.32a3.992,3.992,0,0,0-.829.094,3.35,3.35,0,0,0-1.244.547c-.415.245.961-.565-4.862,2.808-.942.547-1.885,1.112-2.846,1.658s-1.9,1.074-2.846,1.64c-.4.226-.792.471-1.187.7-.377.207-.754.415-1.112.66a.946.946,0,0,0-.32,1.3c.038.038.057.094.094.132" transform="translate(32.959 64.748)" fill="#727f90"/>
    <path id="Trazado_662583" data-name="Trazado 662583" d="M182.957,88.411l-1.47-.848a1.971,1.971,0,0,0-.32-.358c-.7-.565-1.715.283-3.317,1.753-.641.584-1.3,1.187-2,1.715l-.622-.848c.66-.49,1.3-1.093,1.922-1.658,1.658-1.545,3.242-2.978,4.693-1.79a3.723,3.723,0,0,1,1.131,2.035" transform="translate(71.351 76.016)" fill="#3f4f5d"/>
    <path id="Trazado_662584" data-name="Trazado 662584" d="M104.945,113.824a10.436,10.436,0,0,1,5.447,8.65c0,2.638-1.658,4.146-4.165,3.091-3.6-1.508-6.389-7.237-5.145-10.384.584-1.47,1.979-2.148,3.863-1.338" transform="translate(5.493 100.395)" fill="#da926d"/>
    <path id="Trazado_662585" data-name="Trazado 662585" d="M101.53,114.653l3.11-1.79a2.759,2.759,0,0,1,1.64-.3c3.147.358,7.086,5.5,6.483,9.838a3.185,3.185,0,0,1-1.338,2.224c-1.282.735-2,1.15-3.015,1.734a3.541,3.541,0,0,0,1.319-3.053,10.4,10.4,0,0,0-5.447-8.65,2.959,2.959,0,0,0-2.752,0h0Z" transform="translate(6.156 99.547)" fill="#e2ae4a"/>
    <path id="Trazado_696835" data-name="Trazado 696835" d="M137.485,153.853a1.6,1.6,0,0,0-2.224-.547L131,155.776a21.578,21.578,0,0,1-21.5,0L74.408,135.5a9.623,9.623,0,0,1-4.881-8.368,9.743,9.743,0,0,1,4.9-8.518l5.3-3.072,52.694-30.418a6.077,6.077,0,0,0,2.186-2.186,5.954,5.954,0,0,0-2.186-8.142,1.613,1.613,0,1,0-1.621,2.789,2.818,2.818,0,0,1,1,1,2.739,2.739,0,0,1-1,3.732L79.93,111.695h-.038l-2.13,1.225L66.417,119.93c-.452,1.338-.151,5.729-.151,7.2a12.8,12.8,0,0,0,6.5,11.157l35.11,20.278a24.593,24.593,0,0,0,12.363,3.3h0a24.734,24.734,0,0,0,12.363-3.3l4.259-2.469a.272.272,0,0,0,.057-.038,1.6,1.6,0,0,0,.547-2.224Z" transform="translate(-25.126 65.963)" fill="#616c7b"/>
    <g id="Grupo_972552" data-name="Grupo 972552" transform="translate(33.602 0)">
      <path id="Trazado_662483" data-name="Trazado 662483" d="M73.74,62.943V61.19c7.765,4.391,18.318,5.654,27.251,4.636v3.11c-8.933.7-19.694-.923-27.251-5.993" transform="translate(-52.029 54.125)" fill="#d45340"/>
      <path id="Trazado_662484" data-name="Trazado 662484" d="M73.74,55.815V54.1c7.859,4.372,18.375,5.635,27.251,4.6v3.11c-9.027.7-19.713-.923-27.251-5.993" transform="translate(-52.029 47.853)" fill="#d45340"/>
      <path id="Trazado_662485" data-name="Trazado 662485" d="M74.651,69.79c5.918,4,15.529,6.822,27.251,5.993v3.053C89.916,80.231,79.118,77.328,72.71,73.05Z" transform="translate(-52.941 61.733)" fill="#dc8d57"/>
      <path id="Trazado_662486" data-name="Trazado 662486" d="M74.651,45.79v5.032L72.71,54.063V44.64a18.129,18.129,0,0,0,1.941,1.15" transform="translate(-52.941 39.485)" fill="#b85371"/>
      <path id="Trazado_662487" data-name="Trazado 662487" d="M74.651,63.482l-1.941,3.26V60.58a18.129,18.129,0,0,0,1.941,1.15Z" transform="translate(-52.941 53.585)" fill="#b85371"/>
      <path id="Trazado_662488" data-name="Trazado 662488" d="M74.651,54.657v1.715l-1.941,3.26V53.47c.622.433,1.282.81,1.941,1.187" transform="translate(-52.941 47.296)" fill="#b85371"/>
      <path id="Trazado_662489" data-name="Trazado 662489" d="M74.651,68.84v2.808l-1.941,3.26V67.69a18.132,18.132,0,0,0,1.941,1.15" transform="translate(-52.941 59.875)" fill="#b85371"/>
      <g id="Grupo_971571" data-name="Grupo 971571" transform="translate(24.217 86.575)" opacity="0.64">
        <g id="Grupo_971570" data-name="Grupo 971570">
          <g id="Grupo_972546" data-name="Grupo 972546" clip-path="url(#clip-path)">
            <g id="Grupo_971569" data-name="Grupo 971569" transform="translate(0 0)">
              <path id="Trazado_662490" data-name="Trazado 662490" d="M79.141,47.448V98.106a40.835,40.835,0,0,1-4.071-1.527V45.94a37.513,37.513,0,0,0,4.071,1.508" transform="translate(-75.07 -45.94)" fill="#e8deed"/>
            </g>
          </g>
        </g>
      </g>
      <g id="Grupo_971574" data-name="Grupo 971574" transform="translate(30.436 88.685)" opacity="0.37">
        <g id="Grupo_971573" data-name="Grupo 971573">
          <g id="Grupo_972547" data-name="Grupo 972547" clip-path="url(#clip-path-2)">
            <g id="Grupo_971572" data-name="Grupo 971572" transform="translate(0 0)">
              <path id="Trazado_662491" data-name="Trazado 662491" d="M86.511,48.436V99.094a47.408,47.408,0,0,1-8.141-1.376V47.06a47.719,47.719,0,0,0,8.141,1.376" transform="translate(-78.37 -47.06)" fill="#e8deed"/>
            </g>
          </g>
        </g>
      </g>
      <path id="Trazado_662492" data-name="Trazado 662492" d="M73.277,45.2c5.974,4.146,17.15,7.2,29.193,5.786v50.658c-12,1.395-22.823-1.508-29.193-5.786Zm0-1.187A1.182,1.182,0,0,0,72.09,45.2V95.856a1.16,1.16,0,0,0,.528.98c6.653,4.467,17.7,7.407,29.984,5.974a1.165,1.165,0,0,0,1.037-1.168V50.983a1.182,1.182,0,0,0-1.187-1.187,58.512,58.512,0,0,1-6.031.358c-8.613,0-17.225-2.262-22.483-5.918a1.249,1.249,0,0,0-.678-.207" transform="translate(-53.489 38.927)" fill="#e4a077"/>
      <g id="Grupo_971577" data-name="Grupo 971577" transform="translate(26.253 72.911)" opacity="0.64">
        <g id="Grupo_971576" data-name="Grupo 971576">
          <g id="Grupo_972548" data-name="Grupo 972548" clip-path="url(#clip-path-3)">
            <g id="Grupo_971575" data-name="Grupo 971575" transform="translate(0 0.019)">
              <path id="Trazado_662493" data-name="Trazado 662493" d="M79.806,39.868V119.4a27.668,27.668,0,0,1-3.656-1.206V38.7c1.206.452,2.412.848,3.656,1.187" transform="translate(-76.15 -38.7)" fill="#e8bea6"/>
            </g>
          </g>
        </g>
      </g>
      <g id="Grupo_971580" data-name="Grupo 971580" transform="translate(61.702 70.216)" opacity="0.64">
        <g id="Grupo_971579" data-name="Grupo 971579">
          <g id="Grupo_972549" data-name="Grupo 972549" clip-path="url(#clip-path-4)">
            <g id="Grupo_971578" data-name="Grupo 971578" transform="translate(0.019)">
              <path id="Trazado_662494" data-name="Trazado 662494" d="M98.645,116.791a30.715,30.715,0,0,1-3.675,1.885V39.145a29.118,29.118,0,0,0,3.656-1.885v79.531Z" transform="translate(-94.97 -37.26)" fill="#e8bea6"/>
            </g>
          </g>
        </g>
      </g>
      <g id="Grupo_971583" data-name="Grupo 971583" transform="translate(32.962 74.852)" opacity="0.37">
        <g id="Grupo_971582" data-name="Grupo 971582">
          <g id="Grupo_972550" data-name="Grupo 972550" clip-path="url(#clip-path-5)">
            <g id="Grupo_971581" data-name="Grupo 971581" transform="translate(0.011 -0.023)">
              <path id="Trazado_662495" data-name="Trazado 662495" d="M87.9,40.654v79.493a49.159,49.159,0,0,1-8.141-.9c0-81.415-.113-79.531.019-79.531a51.051,51.051,0,0,0,8.123.923" transform="translate(-79.716 -39.708)" fill="#e8bea6"/>
            </g>
          </g>
        </g>
      </g>
      <path id="Trazado_662589" data-name="Trazado 662589" d="M124.159,32.093,68.921.205A1.169,1.169,0,0,0,67.866.073L67.753.13,62.57,3.07l4.41,5.71.226-.057V121.329a7.079,7.079,0,0,0,2.94,5.616l50.545,29.193-3.242,2.318,3.6,3.543,5.428-3.053a1.492,1.492,0,0,0,.622-1.413V37.709a7.079,7.079,0,0,0-2.94-5.616" transform="translate(-61.91 -0.002)" fill="#92a1d2"/>
      <path id="Trazado_662590" data-name="Trazado 662590" d="M120.4,160.443,65.16,128.555a7.08,7.08,0,0,1-2.94-5.616V3.1c0-1.263.773-1.847,1.715-1.3l55.238,31.888a7.08,7.08,0,0,1,2.94,5.616V159.142c0,1.263-.773,1.847-1.715,1.3" transform="translate(-62.22 1.403)" fill="#d9e0f3"/>
      <path id="Trazado_662591" data-name="Trazado 662591" d="M120.4,103.154,65.16,71.266a7.08,7.08,0,0,1-2.94-5.616v.622a7.08,7.08,0,0,0,2.94,5.616L120.4,103.776c.942.547,1.715-.038,1.715-1.3v-.622c0,1.263-.773,1.847-1.715,1.3" transform="translate(-62.22 58.07)" fill="#afbee2"/>
      <path id="Trazado_662592" data-name="Trazado 662592" d="M83.427,14.857c0,.735-.528,1.037-1.168.678a2.658,2.658,0,0,1-1.168-2.017c0-.735.528-1.037,1.168-.678a2.658,2.658,0,0,1,1.168,2.017" transform="translate(-45.528 11.221)" fill="#3d4697"/>
      <path id="Trazado_662593" data-name="Trazado 662593" d="M85.136,16.148,73.621,9.5a1.05,1.05,0,0,1-.471-.81c0-.3.207-.415.471-.264l11.515,6.653a1.05,1.05,0,0,1,.471.81c0,.3-.207.415-.471.264" transform="translate(-52.551 7.386)" fill="#3d4697"/>
      <path id="Trazado_662594" data-name="Trazado 662594" d="M120.454,154.414,64.425,122.055a5.294,5.294,0,0,1-2.2-4.222V5.228c0-1.225.735-1.772,1.658-1.244l56.029,32.359a5.294,5.294,0,0,1,2.2,4.222V153.17c0,1.225-.735,1.772-1.658,1.244" transform="translate(-62.22 3.343)" fill="#3d4697"/>
      <g id="Grupo_971594" data-name="Grupo 971594" transform="translate(0 2.992)" opacity="0.53">
        <g id="Grupo_971593" data-name="Grupo 971593">
          <g id="Grupo_972551" data-name="Grupo 972551" clip-path="url(#clip-path-6)">
            <g id="Grupo_971592" data-name="Grupo 971592" transform="translate(0 0.002)">
              <path id="Trazado_662595" data-name="Trazado 662595" d="M119.173,33.684,63.935,1.8c-.942-.547-1.715.038-1.715,1.3v2c0-1.263.773-1.847,1.715-1.3l55.238,31.888a7.079,7.079,0,0,1,2.94,5.616v-2a7.079,7.079,0,0,0-2.94-5.616" transform="translate(-62.22 -1.591)" fill="#fff"/>
            </g>
          </g>
        </g>
      </g>
      <path id="Trazado_662596" data-name="Trazado 662596" d="M95.957,47.045l-.151.094c-.565.339-1.037-.019-1.037-.792V31.4a2.43,2.43,0,0,1,1.037-1.979l.151-.094c.565-.339,1.037.019,1.037.792V45.048a2.43,2.43,0,0,1-1.037,1.979" transform="translate(-33.426 25.828)" fill="#3b4395"/>
      <path id="Trazado_662597" data-name="Trazado 662597" d="M95.957,50.039l-.151.094c-.565.339-1.037-.019-1.037-.792V42.293a2.43,2.43,0,0,1,1.037-1.979l.151-.094c.565-.339,1.037.019,1.037.792V48.06a2.43,2.43,0,0,1-1.037,1.979" transform="translate(-33.426 35.461)" fill="#3b4395"/>
      <path id="Trazado_662598" data-name="Trazado 662598" d="M96.217,47.045l-.151.094c-.565.339-1.037-.019-1.037-.792V31.4a2.43,2.43,0,0,1,1.037-1.979l.151-.094c.565-.339,1.037.019,1.037.792V45.048a2.43,2.43,0,0,1-1.037,1.979" transform="translate(-33.196 25.828)" fill="#6467ad"/>
      <path id="Trazado_662599" data-name="Trazado 662599" d="M96.217,50.039l-.151.094c-.565.339-1.037-.019-1.037-.792V42.293a2.43,2.43,0,0,1,1.037-1.979l.151-.094c.565-.339,1.037.019,1.037.792V48.06a2.43,2.43,0,0,1-1.037,1.979" transform="translate(-33.196 35.461)" fill="#6467ad"/>
      <path id="Trazado_662600" data-name="Trazado 662600" d="M92.085,14.976a.913.913,0,0,1,.565,1.15.933.933,0,0,1-.565.565,3.274,3.274,0,0,1-2.959,0,.913.913,0,0,1-.565-1.15.933.933,0,0,1,.565-.565,3.274,3.274,0,0,1,2.959,0" transform="translate(-38.958 12.931)" fill="#3d4697"/>
      <path id="Trazado_662601" data-name="Trazado 662601" d="M91.3,15.1a.6.6,0,0,1,.377.773.579.579,0,0,1-.377.377,2.235,2.235,0,0,1-2.017,0,.6.6,0,0,1-.377-.773.579.579,0,0,1,.377-.377,2.235,2.235,0,0,1,2.017,0" transform="translate(-38.644 13.143)" fill="#283374"/>
      <path id="Trazado_662602" data-name="Trazado 662602" d="M89.129,15.4a3.274,3.274,0,0,1,2.959,0,1.217,1.217,0,0,1,.584.641c.113-.377-.075-.773-.584-1.074a3.274,3.274,0,0,0-2.959,0,.943.943,0,0,0-.584,1.074,1.217,1.217,0,0,1,.584-.641" transform="translate(-38.961 12.922)" fill="#283374"/>
      <path id="Trazado_662603" data-name="Trazado 662603" d="M119.8,130.938,62.9,98.089V14.62l56.9,32.849Z" transform="translate(-61.618 12.929)" fill="#7a97ce"/>
      <path id="Trazado_662604" data-name="Trazado 662604" d="M119.8,92.626,62.9,59.777V57.93l56.9,32.849v1.847Z" transform="translate(-61.618 51.241)" fill="#4c62ab"/>
      <path id="Trazado_662605" data-name="Trazado 662605" d="M116.1,124.359,64.24,94.413V16.88L116.1,46.826v77.533Z" transform="translate(-60.433 14.928)" fill="#f0f7fd"/>
      <path id="Trazado_662606" data-name="Trazado 662606" d="M80.079,17.944c-2.45-1.413-4.429-.264-4.429,2.563a9.775,9.775,0,0,0,4.429,7.67c2.45,1.413,4.429.264,4.429-2.563a9.775,9.775,0,0,0-4.429-7.67m0,5.955a4.546,4.546,0,0,1-2.054-3.543c0-1.3.923-1.847,2.054-1.187a4.546,4.546,0,0,1,2.054,3.543c0,1.3-.923,1.828-2.054,1.187" transform="translate(-50.34 15.334)" fill="#273c8b"/>
      <path id="Trazado_662607" data-name="Trazado 662607" d="M95.095,40.251,71.82,26.814l.377-6.54c.113-1.866,1.489-2.563,3.147-1.6l16.226,9.367a7.016,7.016,0,0,1,3.147,5.239l.377,6.954Z" transform="translate(-53.728 16.132)" fill="#4c62ab"/>
      <path id="Trazado_662608" data-name="Trazado 662608" d="M96.933,37.993,71.17,23.123V22.03L96.933,36.9Z" transform="translate(-54.303 19.484)" fill="#7a97ce"/>
      <path id="Trazado_662609" data-name="Trazado 662609" d="M110.64,56.722,66.22,31.073V29.81l44.42,25.65v1.263Z" transform="translate(-58.682 26.366)" fill="#7a97ce"/>
      <path id="Trazado_662610" data-name="Trazado 662610" d="M105.449,55.425,72.11,36.183V34.92l33.339,19.242Z" transform="translate(-53.471 30.886)" fill="#7a97ce"/>
      <path id="Trazado_662611" data-name="Trazado 662611" d="M110.668,60.121,66.21,34.453V33.19l44.458,25.668Z" transform="translate(-58.69 29.356)" fill="#7a97ce"/>
      <path id="Trazado_662612" data-name="Trazado 662612" d="M110.668,61.8,66.21,36.133V34.87l44.458,25.668Z" transform="translate(-58.69 30.842)" fill="#7a97ce"/>
      <path id="Trazado_662613" data-name="Trazado 662613" d="M110.668,63.481,66.21,37.813V36.55l44.458,25.668Z" transform="translate(-58.69 32.328)" fill="#7a97ce"/>
      <path id="Trazado_662614" data-name="Trazado 662614" d="M110.668,65.161,66.21,39.493V38.23L110.668,63.9Z" transform="translate(-58.69 33.814)" fill="#7a97ce"/>
      <path id="Trazado_662615" data-name="Trazado 662615" d="M105.449,63.825,72.11,44.583V43.32l33.339,19.242Z" transform="translate(-53.471 38.317)" fill="#7a97ce"/>
      <path id="Trazado_662616" data-name="Trazado 662616" d="M110.668,68.521,66.21,42.853V41.59l44.458,25.668Z" transform="translate(-58.69 36.787)" fill="#7a97ce"/>
      <path id="Trazado_662617" data-name="Trazado 662617" d="M110.668,70.2,66.21,44.533V43.27l44.458,25.668Z" transform="translate(-58.69 38.273)" fill="#7a97ce"/>
      <path id="Trazado_662618" data-name="Trazado 662618" d="M93.86,73.527l-8.65-4.994V67.27l8.65,4.994Z" transform="translate(-41.883 59.503)" fill="#7a97ce"/>
      <path id="Trazado_662619" data-name="Trazado 662619" d="M93.86,72.247l-8.65-4.994V65.99l8.65,4.994Z" transform="translate(-41.883 58.371)" fill="#7a97ce"/>
      <path id="Trazado_662620" data-name="Trazado 662620" d="M93.86,70.957l-8.65-4.994V64.7l8.65,4.994Z" transform="translate(-41.883 57.23)" fill="#7a97ce"/>
      <path id="Trazado_662621" data-name="Trazado 662621" d="M74.87,60,66.22,55V53.74l8.65,4.994Z" transform="translate(-58.682 47.535)" fill="#7a97ce"/>
      <path id="Trazado_662622" data-name="Trazado 662622" d="M110.579,81.1,66.31,55.542V46.27l44.269,25.555Z" transform="translate(-58.602 40.927)" fill="#bfd1ed"/>
    </g>
    <g id="Grupo_972556" data-name="Grupo 972556" transform="translate(0 38.089)">
      <g id="Grupo_971620" data-name="Grupo 971620" transform="translate(0 73.23)" opacity="0.09">
        <g id="Grupo_971619" data-name="Grupo 971619">
          <g id="Grupo_972554" data-name="Grupo 972554" clip-path="url(#clip-path-7)">
            <g id="Grupo_971618" data-name="Grupo 971618">
              <g id="Grupo_971617" data-name="Grupo 971617">
                <g id="Grupo_972553" data-name="Grupo 972553" clip-path="url(#clip-path-8)">
                  <g id="Grupo_971616" data-name="Grupo 971616" transform="translate(-1.338 -0.773)">
                    <rect id="Rectángulo_338630" data-name="Rectángulo 338630" width="30.135" height="17.395" fill="url(#linear-gradient)"/>
                  </g>
                </g>
              </g>
            </g>
          </g>
        </g>
      </g>
      <path id="Trazado_662645" data-name="Trazado 662645" d="M67.79,71.839H49.133L46.89,49.28H70.033L67.79,71.839Z" transform="translate(-42.178 5.5)" fill="#d9e0f3"/>
      <path id="Trazado_662646" data-name="Trazado 662646" d="M63.984,67.671a14.611,14.611,0,0,1-13.173,0c-3.637-2.092-3.637-5.5,0-7.595a14.61,14.61,0,0,1,13.173,0c3.637,2.092,3.637,5.5,0,7.595" transform="translate(-41.124 13.663)" fill="#d9e0f3"/>
      <g id="Grupo_972555" data-name="Grupo 972555" transform="translate(4.693 48.073)" clip-path="url(#clip-path-9)">
        <g id="Grupo_971625" data-name="Grupo 971625" transform="translate(-1.15 -0.002)">
          <rect id="Rectángulo_338634" data-name="Rectángulo 338634" width="25.442" height="14.04" fill="url(#linear-gradient-2)"/>
        </g>
      </g>
      <path id="Trazado_662649" data-name="Trazado 662649" d="M59.728,61.7H58.22V47.64h1.508a7.03,7.03,0,0,1,0,14.059m1.508-10.723v7.388a3.985,3.985,0,0,0,0-7.369" transform="translate(-32.156 4.049)" fill="#d9e0f3"/>
      <path id="Trazado_662650" data-name="Trazado 662650" d="M56.716,21.395S63.9,18,66.818,22.714c2.94,4.712-1.545,7.765,0,10.478s4.825,4.693,3.9,8.405-4.146,5.767-4.222,6.973.7,3.939.264,5.39.4,5.051-1.7,8.01-4.222,3.3-4.429,6.728a17.862,17.862,0,0,1-4.071-2.62c-.923-1.093-1.112-4.5.415-6.747s1.866-7.727.113-9.612a9.491,9.491,0,0,0-4.674-2.808c-1.621-.6-3.958-1.677-2.638-5.447s1-4.636-1.131-6.37-3.26-4.146,1.527-8.858c5.07-4.994,6.521-4.843,6.521-4.843" transform="translate(-42.243 -20.213)" fill="#e1e9f7"/>
    </g>
    <g id="Grupo_972559" data-name="Grupo 972559" transform="translate(19.675 128.045)">
      <g id="Grupo_971631" data-name="Grupo 971631" transform="translate(0 2.779)" opacity="0.16">
        <g id="Grupo_971630" data-name="Grupo 971630">
          <g id="Grupo_972558" data-name="Grupo 972558" clip-path="url(#clip-path-10)">
            <g id="Grupo_971629" data-name="Grupo 971629" transform="translate(-103.313 -0.141)">
              <g id="Grupo_971628" data-name="Grupo 971628" transform="translate(0)">
                <g id="Grupo_972557" data-name="Grupo 972557" clip-path="url(#clip-path-11)">
                  <g id="Grupo_971627" data-name="Grupo 971627" transform="translate(103.237 0.084)">
                    <rect id="Rectángulo_338635" data-name="Rectángulo 338635" width="66.225" height="41.499" fill="url(#linear-gradient-3)"/>
                  </g>
                </g>
              </g>
            </g>
          </g>
        </g>
      </g>
      <path id="Trazado_662652" data-name="Trazado 662652" d="M56.87,68.067h.075a.142.142,0,0,1,.075.019h.188a.142.142,0,0,1,.075.019h.471l.094.019,3.9,1.037c1.432.3-.415,3.581-1.432,2.375l-2.865-2.789s-.075-.057-.075-.075l-.019-.019-.019-.019-.019-.019L57.3,68.6l-.019-.019-.019-.019s-.019,0-.019-.038h0s0-.038-.019-.038l-.019-.019a.018.018,0,0,1-.019-.019l-.019-.019-.019-.019-.019-.019a.018.018,0,0,1-.019-.019L57.1,68.35a131.692,131.692,0,0,1-.038-.038L57,68.256l-.057-.057a131.692,131.692,0,0,1-.038-.038c-.094-.038.038-.264.132-.207" transform="translate(-53.025 -67.945)" fill="#98579e"/>
      <path id="Trazado_662653" data-name="Trazado 662653" d="M60.728,68.575s11.741,2.3,11.8,2.3c1.187.226,2.883.433,2.883,3.2,0,4.768-5.428,10.139-7.991,7.162,0,0-8.631-9.423-8.65-9.442-.886-.848.547-3.618,1.96-3.242" transform="translate(-51.588 -67.435)" fill="#eccb94"/>
      <path id="Trazado_662654" data-name="Trazado 662654" d="M94.229,92.9l2.243-5.767L94.229,83.95l-4.467,2.582L87.52,92.3l2.243,3.185Z" transform="translate(-25.912 -53.787)" fill="#db7e28"/>
      <path id="Trazado_662655" data-name="Trazado 662655" d="M69.509,78.584l2.243-5.767L70.32,69.99l-5.277,2.224L62.8,77.981l1.338,2.469,5.371-1.885Z" transform="translate(-47.78 -66.136)" fill="#e9cd4d"/>
      <path id="Trazado_662656" data-name="Trazado 662656" d="M62.8,74.23l46.587,26.686,2.243,3.185L64.138,76.718,62.8,74.249Z" transform="translate(-47.78 -62.386)" fill="#edbe3e"/>
      <path id="Trazado_662657" data-name="Trazado 662657" d="M65.043,71.17,111.63,97.856l-2.243,5.767L62.8,76.937l2.243-5.767Z" transform="translate(-47.78 -65.093)" fill="#f3d748"/>
      <path id="Trazado_662658" data-name="Trazado 662658" d="M69.258,69.99l45.8,26.328L110.587,98.9,64,72.214l5.277-2.224Z" transform="translate(-46.718 -66.136)" fill="#faed66"/>
      <path id="Trazado_662659" data-name="Trazado 662659" d="M89.2,88.732c0,.848.584,1.187,1.319.773a2.905,2.905,0,0,0,1.319-2.3c0-.848-.584-1.187-1.319-.773a2.905,2.905,0,0,0-1.319,2.3" transform="translate(-24.426 -51.747)" fill="#98579e"/>
    </g>
    <g id="Grupo_972561" data-name="Grupo 972561" transform="translate(59.892 79.058)">
      <path id="Trazado_662660" data-name="Trazado 662660" d="M90.887,67.884V61.664c.3-3.411-7.727-3.128-7.463-.226V89.877c-.3,3.336,7.765,3.279,7.463,0V67.884" transform="translate(-69.761 -26.708)" fill="#f3d748"/>
      <g id="Grupo_971634" data-name="Grupo 971634" transform="translate(3.732 7.347)" opacity="0.15">
        <g id="Grupo_971633" data-name="Grupo 971633">
          <g id="Grupo_972560" data-name="Grupo 972560" clip-path="url(#clip-path-12)">
            <g id="Grupo_971632" data-name="Grupo 971632" transform="translate(0 0.015)">
              <path id="Trazado_662661" data-name="Trazado 662661" d="M81.5,64.934a23.267,23.267,0,0,0,8.085,8.537c2.959,1.7,5.691,2,7.727.829s3.147-3.694,3.147-7.1a25.352,25.352,0,0,0-11.44-19.807c-2.959-1.7-5.691-2-7.727-.829s-3.147,3.694-3.147,7.1A23.378,23.378,0,0,0,81.5,64.934" transform="translate(-78.15 -45.858)" fill="#6cafc9"/>
            </g>
          </g>
        </g>
      </g>
      <path id="Trazado_662662" data-name="Trazado 662662" d="M91.216,65.237c-2.77-1.6-8.631-1.018-8.556,2.544v2.77c-.075,3,5.56,4,8.556,2.262a2.459,2.459,0,0,0,1.47-2.054v-3.43a2.48,2.48,0,0,0-1.47-2.092" transform="translate(-70.429 -22.101)" fill="#8497cc"/>
      <path id="Trazado_662663" data-name="Trazado 662663" d="M110.658,69.746c0-9.5-6.671-21.032-14.888-25.781C89.061,40.1,86.121,42.438,80.6,45.623h-.038c-2.714,1.583-4.391,4.919-4.391,9.668,0,9.5,6.671,21.032,14.888,25.781,3.3,1.9,7.293,2.94,10.591,1,5.409-3.072,9.008-4.485,9.008-12.325M91.039,51.428c5.955,3.449,10.8,11.817,10.8,18.7A9.741,9.741,0,0,1,100.67,75.1a9.612,9.612,0,0,1-4.9-1.47c-5.955-3.449-10.8-11.817-10.8-18.7a9.741,9.741,0,0,1,1.168-4.975,9.612,9.612,0,0,1,4.9,1.47" transform="translate(-76.17 -41.952)" fill="#edbe3e"/>
      <path id="Trazado_662664" data-name="Trazado 662664" d="M91.058,45.425c-8.217-4.749-14.888-.9-14.888,8.594S82.841,75.051,91.058,79.8s14.888.9,14.888-8.594S99.275,50.175,91.058,45.425m0,29.645c-5.955-3.449-10.8-11.817-10.8-18.7s4.825-9.668,10.8-6.238,10.8,11.817,10.8,18.7-4.825,9.668-10.8,6.238" transform="translate(-76.17 -40.68)" fill="#faed66"/>
      <path id="Trazado_662665" data-name="Trazado 662665" d="M84.509,67.476a5.868,5.868,0,0,0,5.258,0,1.6,1.6,0,0,0,0-3.034,5.868,5.868,0,0,0-5.258,0,1.6,1.6,0,0,0,0,3.034" transform="translate(-69.753 -22.607)" fill="#f3d748"/>
    </g>
  </g>
</svg>
