<svg xmlns="http://www.w3.org/2000/svg" width="105" height="105" viewBox="0 0 105 105">
  <g id="Grupo_974718" data-name="Grupo 974718" transform="translate(-265 -3615)">
    <circle id="Elipse_5148" data-name="Elipse 5148" cx="52.5" cy="52.5" r="52.5" transform="translate(265 3615)" fill="#ad84ff"/>
    <g id="Grupo_973844" data-name="Grupo 973844" transform="translate(296 3637)">
      <path id="Trazado_704686" data-name="Trazado 704686" d="M376.859,43.328h4.407a.745.745,0,0,1,.744.744v8.868a.744.744,0,0,1-.744.744h-4.407a.744.744,0,0,0-.744.744V65.25a.744.744,0,0,1-.744.744H363.435a.744.744,0,0,1-.744-.744V54.429a.744.744,0,0,0-.744-.744H344.422a5.074,5.074,0,0,1-5.07-5.275l.108-2.734a.744.744,0,0,1,.112-.364l23.119-37.2V8h12.68a.744.744,0,0,1,.744.744V42.584a.744.744,0,0,0,.744.744m-23.31,0h8.4a.744.744,0,0,0,.744-.744v-17.1l-.837,1.355L352.906,42.21a.744.744,0,0,0,.643,1.119" transform="translate(-338.676 -4.303)" fill="#7125c8"/>
      <path id="Trazado_704690" data-name="Trazado 704690" d="M375.674,36.809h4.407a.745.745,0,0,1,.744.744v8.868a.744.744,0,0,1-.744.744h-4.407a.745.745,0,0,0-.744.744v10.82a.744.744,0,0,1-.744.744H362.25a.744.744,0,0,1-.744-.744V47.911a.744.744,0,0,0-.744-.744H343.237a5.074,5.074,0,0,1-5.07-5.275l.108-2.734a.744.744,0,0,1,.112-.364L361.506,1.6v-.12h12.68a.744.744,0,0,1,.744.744V36.065a.745.745,0,0,0,.744.744m-23.31,0h8.4a.744.744,0,0,0,.744-.744v-17.1l-.837,1.355-8.948,15.372a.744.744,0,0,0,.643,1.119" transform="translate(-338.163 -1.477)" fill="#dee9f0" stroke="#ece3ff" stroke-width="1"/>
    </g>
  </g>
</svg>
