<svg xmlns="http://www.w3.org/2000/svg" xmlns:xlink="http://www.w3.org/1999/xlink" width="620" height="470.416" viewBox="0 0 620 470.416">
  <defs>
    <clipPath id="clip-path">
      <rect id="Rectángulo_339383" data-name="Rectángulo 339383" width="369.5" height="306.234" fill="none"/>
    </clipPath>
    <clipPath id="clip-path-3">
      <rect id="Rectángulo_339359" data-name="Rectángulo 339359" width="369.5" height="267.801" fill="none"/>
    </clipPath>
    <clipPath id="clip-path-6">
      <rect id="Rectángulo_339611" data-name="Rectángulo 339611" width="50.175" height="51.59" fill="none"/>
    </clipPath>
    <clipPath id="clip-path-7">
      <rect id="Rectángulo_339612" data-name="Rectángulo 339612" width="40.352" height="36.411" fill="none"/>
    </clipPath>
    <clipPath id="clip-path-9">
      <rect id="Rectángulo_339633" data-name="Rectángulo 339633" width="35.726" height="23.722" fill="none"/>
    </clipPath>
    <clipPath id="clip-path-10">
      <rect id="Rectángulo_339616" data-name="Rectángulo 339616" width="7.343" height="7.908" fill="none"/>
    </clipPath>
    <clipPath id="clip-path-11">
      <rect id="Rectángulo_339618" data-name="Rectángulo 339618" width="2.561" height="7.908" fill="none"/>
    </clipPath>
    <clipPath id="clip-path-12">
      <rect id="Rectángulo_339620" data-name="Rectángulo 339620" width="7.343" height="11.975" fill="none"/>
    </clipPath>
    <clipPath id="clip-path-13">
      <rect id="Rectángulo_339622" data-name="Rectángulo 339622" width="2.561" height="11.937" fill="none"/>
    </clipPath>
    <clipPath id="clip-path-14">
      <rect id="Rectángulo_339624" data-name="Rectángulo 339624" width="7.343" height="16.381" fill="none"/>
    </clipPath>
    <clipPath id="clip-path-15">
      <rect id="Rectángulo_339626" data-name="Rectángulo 339626" width="2.561" height="16.381" fill="none"/>
    </clipPath>
    <clipPath id="clip-path-16">
      <rect id="Rectángulo_339628" data-name="Rectángulo 339628" width="7.343" height="22.482" fill="none"/>
    </clipPath>
    <clipPath id="clip-path-17">
      <rect id="Rectángulo_339630" data-name="Rectángulo 339630" width="2.561" height="22.444" fill="none"/>
    </clipPath>
    <clipPath id="clip-path-18">
      <rect id="Rectángulo_339632" data-name="Rectángulo 339632" width="34.852" height="0.584" fill="none"/>
    </clipPath>
  </defs>
  <g id="Grupo_974721" data-name="Grupo 974721" transform="translate(-800 -2042.584)">
    <rect id="BG" width="620" height="470.416" transform="translate(800 2042.584)" fill="#ede4ff" opacity="0.949"/>
    <g id="Grupo_973655" data-name="Grupo 973655" transform="translate(944 2112.883)">
      <g id="Grupo_973085" data-name="Grupo 973085" clip-path="url(#clip-path)">
        <g id="Grupo_973076" data-name="Grupo 973076">
          <g id="Grupo_973075" data-name="Grupo 973075" clip-path="url(#clip-path)">
            <path id="Trazado_697488" data-name="Trazado 697488" d="M352.479,168.074s-11.353-4.842-11.353-28.5-1.892-50.005-26.491-70.9-44.468-7.139-82.313-.572S192.584,36.962,113.11,40.911,16.605,92.473,12.821,124.92s31.222,45.957,15.138,70.793S-5.155,225.583,1.467,257.265,29.851,307.216,78.1,308.4s75.69-44.354,104.074-46.44,43.522,46.946,108.8,38.362,102.181-72.794,61.5-132.247" transform="translate(0 -2.189)" fill="#e8e1fd"/>
            <g id="Grupo_973074" data-name="Grupo 973074" transform="translate(0 38.432)" opacity="0.7">
              <g id="Grupo_973073" data-name="Grupo 973073">
                <g id="Grupo_973072" data-name="Grupo 973072" clip-path="url(#clip-path-3)">
                  <path id="Trazado_697489" data-name="Trazado 697489" d="M352.479,168.074s-11.353-4.842-11.353-28.5-1.892-50.005-26.491-70.9-44.468-7.139-82.313-.572S192.584,36.962,113.11,40.911,16.605,92.473,12.821,124.92s31.222,45.957,15.138,70.793S-5.155,225.583,1.467,257.265,29.851,307.216,78.1,308.4s75.69-44.354,104.074-46.44,43.522,46.946,108.8,38.362,102.181-72.794,61.5-132.247" transform="translate(0 -40.621)" fill="#eaf7ff"/>
                </g>
              </g>
            </g>
          </g>
        </g>
        <g id="Grupo_973078" data-name="Grupo 973078">
          <g id="Grupo_973077" data-name="Grupo 973077" clip-path="url(#clip-path)">
            <path id="Trazado_697490" data-name="Trazado 697490" d="M363.368,277.293H279.189V227.826a4.064,4.064,0,0,1,4.064-4.064H359.3a4.064,4.064,0,0,1,4.064,4.064Z" transform="translate(-15.042 -12.056)" fill="#cfb7ff"/>
            <path id="Trazado_697491" data-name="Trazado 697491" d="M359.29,278.245H283.759V232.121a4.064,4.064,0,0,1,4.064-4.064h67.4a4.064,4.064,0,0,1,4.064,4.064Z" transform="translate(-15.288 -12.287)" fill="#263238"/>
            <path id="Trazado_697492" data-name="Trazado 697492" d="M359.29,278.245H283.759V232.121a4.064,4.064,0,0,1,4.064-4.064h67.4a4.064,4.064,0,0,1,4.064,4.064Z" transform="translate(-15.288 -12.287)" fill="none" stroke="#263238" stroke-linecap="round" stroke-linejoin="round" stroke-width="1"/>
            <path id="Trazado_697493" data-name="Trazado 697493" d="M362.065,284.5H275.582a7.206,7.206,0,0,1-7.207-7.207h100.9a7.206,7.206,0,0,1-7.207,7.207" transform="translate(-14.459 -14.94)" fill="#cfb7ff"/>
          </g>
        </g>
        <g id="Grupo_973080" data-name="Grupo 973080">
          <g id="Grupo_973079" data-name="Grupo 973079" clip-path="url(#clip-path)">
            <path id="Trazado_697494" data-name="Trazado 697494" d="M240.729,277.293H156.55V227.826a4.064,4.064,0,0,1,4.064-4.064h76.052a4.064,4.064,0,0,1,4.064,4.064Z" transform="translate(-8.434 -12.056)" fill="#cfb7ff"/>
            <path id="Trazado_697495" data-name="Trazado 697495" d="M236.652,278.245H161.121V232.121a4.064,4.064,0,0,1,4.064-4.064h67.4a4.064,4.064,0,0,1,4.064,4.064Z" transform="translate(-8.681 -12.287)" fill="#263238"/>
            <path id="Trazado_697496" data-name="Trazado 697496" d="M236.652,278.245H161.121V232.121a4.064,4.064,0,0,1,4.064-4.064h67.4a4.064,4.064,0,0,1,4.064,4.064Z" transform="translate(-8.681 -12.287)" fill="none" stroke="#263238" stroke-linecap="round" stroke-linejoin="round" stroke-width="1"/>
            <path id="Trazado_697497" data-name="Trazado 697497" d="M239.426,284.5H152.943a7.206,7.206,0,0,1-7.207-7.207h100.9a7.206,7.206,0,0,1-7.207,7.207" transform="translate(-7.852 -14.94)" fill="#cfb7ff"/>
            <g id="Grupo_973657" data-name="Grupo 973657" transform="translate(281.937 217.972)">
              <g id="Grupo_973656" data-name="Grupo 973656" clip-path="url(#clip-path-6)">
                <path id="Trazado_703948" data-name="Trazado 703948" d="M47.841,0A.865.865,0,0,0,48,.1a2.932,2.932,0,0,1,2.148,2.986q0,11.833,0,23.666c0,3.39-.052,6.782.021,10.171a3.148,3.148,0,0,1-3.389,3.358c-4.666-.048-9.333-.014-14-.014h-.591c.511.525.962,1.009,1.441,1.464.082.078.283.065.421.042a1.592,1.592,0,0,1,1.43.448c1.629,1.575,3.259,3.149,4.873,4.739a1.559,1.559,0,0,1,.072,2.262c-.6.66-1.221,1.3-1.862,1.911a1.555,1.555,0,0,1-2.187.021q-2.518-2.394-4.992-4.833a1.57,1.57,0,0,1-.439-1.435.533.533,0,0,0-.092-.388c-.472-.545-.964-1.072-1.437-1.591-.64.359-1.132.671-1.654.923a9.685,9.685,0,0,1-12.226-3.2.78.78,0,0,0-.741-.37q-5.817.013-11.633,0A2.96,2.96,0,0,1,.052,37.822a4.134,4.134,0,0,1-.05-.8Q0,20.128,0,3.235A2.951,2.951,0,0,1,2.244.069c.027-.01.045-.045.068-.069ZM32.758,38.6a1.11,1.11,0,0,0,.177.019c4.649,0,9.3.006,13.947-.014,1.247-.006,1.639-.451,1.639-1.7q0-13.567,0-27.135V9.2H1.622v.561q0,13.592,0,27.185c0,1.215.453,1.673,1.67,1.673q5.287,0,10.574,0c.172,0,.344-.022.424-.027L13.654,34.6c-.33,0-.732.013-1.133,0-.561-.023-.9-.341-.9-.813s.343-.785.906-.81c.385-.017.773.009,1.157-.014.127-.008.327-.082.36-.174.195-.542.349-1.1.532-1.7-.674,0-1.311.008-1.946,0s-1-.311-1.009-.812.356-.81,1-.817c.822-.009,1.645-.021,2.467.006a.873.873,0,0,0,.793-.4,9.709,9.709,0,0,1,13.487-1.777c.445.337.856.718,1.346,1.131,0-1.149,0-2.218,0-3.286,0-.805.252-1.061,1.039-1.063q.957,0,1.913,0c.737,0,1.009.258,1.01.992q.008,4.3,0,8.609c0,.715-.262.968-.964.987-.143,0-.286.023-.319.026L32.758,38.6M24.472,7.509q11.129,0,22.258.009c.472,0,.649-.114.637-.613-.032-1.292,0-2.584-.018-3.876a3.8,3.8,0,0,0-.153-.885.644.644,0,0,0-.734-.513q-21.6.017-43.208.01c-1.093,0-1.568.464-1.577,1.552-.01,1.208,0,2.417,0,3.625,0,.69,0,.69.69.69H24.472m-.957,19.46a8.111,8.111,0,1,0,8.109,8.061,8.1,8.1,0,0,0-8.109-8.061m10.93,16.554L32.6,45.178,37.359,49.8l1.828-1.67-4.743-4.608m-2.1-17.81c0,1.446.055,2.839-.019,4.224a7.285,7.285,0,0,0,.66,2.593V25.713Zm-1.7,16.026L32.059,43.3l.345-.381-.138.085-1.32-1.6-.3.329" transform="translate(0)" fill="#161615"/>
                <path id="Trazado_703949" data-name="Trazado 703949" d="M43.194,97.763l.634-3.915c.033,0,.176-.022.319-.026.7-.019.962-.272.964-.987q.007-4.3,0-8.609c0-.733-.273-.989-1.01-.991q-.957,0-1.913,0c-.787,0-1.038.257-1.039,1.063,0,1.069,0,2.138,0,3.286-.49-.414-.9-.795-1.346-1.131a9.709,9.709,0,0,0-13.487,1.777.873.873,0,0,1-.793.4c-.822-.026-1.645-.015-2.467-.006-.64.007-1,.314-1,.817s.369.8,1.009.812,1.272,0,1.946,0c-.183.6-.338,1.154-.532,1.7-.033.092-.233.166-.36.174-.385.023-.772,0-1.157.014-.563.025-.9.341-.906.81s.337.791.9.813c.4.016.8,0,1.133,0l.637,3.992c-.08.005-.252.027-.424.027q-5.287,0-10.574,0c-1.217,0-1.67-.459-1.67-1.673q0-13.592,0-27.185v-.561h46.9v.573q0,13.567,0,27.135c0,1.245-.393,1.691-1.639,1.7-4.649.02-9.3.013-13.947.014a1.115,1.115,0,0,1-.177-.019M24,85.9a7.667,7.667,0,1,0-7.641-7.7A7.678,7.678,0,0,0,24,85.9m31.254.121q0-3.423,0-6.846c0-.71-.264-.985-.957-.993s-1.376-.008-2.064,0c-.665.008-.932.277-.945.955-.01.554,0,1.107,0,1.661q0,5.94,0,11.879c0,.935.215,1.144,1.161,1.144.587,0,1.175,0,1.762,0,.793,0,1.045-.255,1.045-1.056q0-3.373,0-6.745M46.2,87.235c0,1.862,0,3.723,0,5.585,0,.715.3,1,1.013,1,.688,0,1.375.006,2.063,0a.824.824,0,0,0,.922-.889c.016-.352,0-.7,0-1.056q0-5.006,0-10.013c0-.909-.248-1.151-1.167-1.152-.587,0-1.174,0-1.761,0-.807,0-1.074.27-1.075,1.091q0,2.717,0,5.434m-1.216-14h7.448c.861,0,1.235-.257,1.224-.837-.01-.557-.371-.8-1.212-.8q-7.448,0-14.9,0a2.956,2.956,0,0,0-.6.041.789.789,0,0,0-.058,1.529,2.442,2.442,0,0,0,.647.06q3.724.006,7.448,0M41.062,76.62c1.273,0,2.546,0,3.819,0a.827.827,0,0,0,.852-.493c.254-.577-.177-1.128-.914-1.131q-3.743-.015-7.486,0c-.631,0-1,.31-1.015.8-.012.523.35.818,1.026.82,1.239,0,2.479,0,3.718,0M18.5,88.625c-.436,0-.872-.018-1.307,0a.8.8,0,1,0-.015,1.608c.87.029,1.743.028,2.613,0a.808.808,0,0,0,.812-.8.821.821,0,0,0-.847-.811c-.418-.021-.838,0-1.257,0m-.022,5.133v.006h1.207a1,1,0,0,0,.1-.006.833.833,0,0,0,.819-.792.8.8,0,0,0-.79-.814c-.887-.03-1.776-.031-2.663,0a.764.764,0,0,0-.78.811.777.777,0,0,0,.8.792c.434.026.871.005,1.306.005" transform="translate(-10.436 -59.167)" fill="#fff"/>
                <path id="Trazado_703950" data-name="Trazado 703950" d="M35.227,18H13.12c-.688,0-.689,0-.689-.69,0-1.208-.008-2.417,0-3.625.009-1.088.484-1.552,1.577-1.552q21.6,0,43.208-.01a.644.644,0,0,1,.734.513,3.8,3.8,0,0,1,.153.885c.017,1.292-.014,2.585.018,3.877.012.5-.165.614-.637.613Q46.356,17.992,35.227,18M16.058,15.079a1.272,1.272,0,0,0,1.271,1.277,1.337,1.337,0,0,0,1.28-1.3,1.312,1.312,0,0,0-1.3-1.267,1.252,1.252,0,0,0-1.251,1.287m4.736-.037a1.273,1.273,0,0,0,1.243,1.309,1.326,1.326,0,0,0,1.3-1.281,1.309,1.309,0,0,0-1.293-1.276,1.26,1.26,0,0,0-1.247,1.248m4.735.022a1.273,1.273,0,0,0,1.263,1.284A1.277,1.277,0,0,0,26.8,13.8a1.269,1.269,0,0,0-1.273,1.269" transform="translate(-10.755 -10.494)" fill="#fff"/>
                <path id="Trazado_703951" data-name="Trazado 703951" d="M122.688,200.48a8.111,8.111,0,0,1,.025,16.222,8.111,8.111,0,1,1-.025-16.222m0,.869a7.233,7.233,0,1,0,7.225,7.173,7.229,7.229,0,0,0-7.225-7.173" transform="translate(-99.173 -173.511)" fill="#26a07c"/>
                <path id="Trazado_703952" data-name="Trazado 703952" d="M244.206,323.54l4.743,4.608-1.828,1.67-4.755-4.623,1.841-1.655" transform="translate(-209.762 -280.017)" fill="#26a07c"/>
                <path id="Trazado_703953" data-name="Trazado 703953" d="M240.286,191.148h.641v6.817a7.288,7.288,0,0,1-.66-2.593c.074-1.386.019-2.779.019-4.224" transform="translate(-207.943 -165.435)" fill="#e1b127"/>
                <path id="Trazado_703954" data-name="Trazado 703954" d="M227.828,308.162l.3-.329,1.32,1.6.138-.085-.345.381-1.412-1.565" transform="translate(-197.18 -266.423)" fill="#fff"/>
                <path id="Trazado_703955" data-name="Trazado 703955" d="M51.7,100.061a7.667,7.667,0,1,1,7.681-7.571,7.641,7.641,0,0,1-7.681,7.571m2.344-2.079c-.983-1.674-1.936-3.27-2.855-4.885a2.147,2.147,0,0,1-.27-.987c-.027-1.711-.012-3.422-.012-5.133V86.41a5.936,5.936,0,0,0-4.972,4.316,5.684,5.684,0,0,0,1.813,6.2,5.928,5.928,0,0,0,6.3,1.061m3.583-6.45a5.877,5.877,0,0,0-5.046-5.055v5.055ZM55.418,96.94a5.323,5.323,0,0,0,2.1-3.292c.045-.33-.181-.337-.415-.336q-1.556,0-3.112,0h-.71l2.136,3.628" transform="translate(-38.132 -73.329)" fill="#161615"/>
                <path id="Trazado_703956" data-name="Trazado 703956" d="M307.642,149.151q0,3.372,0,6.745c0,.8-.252,1.053-1.045,1.056-.587,0-1.175,0-1.762,0-.945,0-1.161-.21-1.161-1.144q0-5.94,0-11.879c0-.554-.007-1.108,0-1.661.012-.678.279-.947.945-.955q1.032-.012,2.064,0c.693.008.956.283.957.993q0,3.423,0,6.846m-2.292,6.143h.625V142.955h-.625Z" transform="translate(-262.82 -122.298)" fill="#161615"/>
                <path id="Trazado_703957" data-name="Trazado 703957" d="M265.852,166.661q0-2.717,0-5.434c0-.821.268-1.089,1.075-1.091.587,0,1.174,0,1.761,0,.919,0,1.167.243,1.167,1.152q0,5.006,0,10.013c0,.352.012.705,0,1.057a.824.824,0,0,1-.922.889c-.688.007-1.375,0-2.063,0-.716,0-1.01-.286-1.013-1-.006-1.861,0-3.723,0-5.585m2.326-4.856h-.673v9.782h.673Z" transform="translate(-230.088 -138.593)" fill="#161615"/>
                <path id="Trazado_703958" data-name="Trazado 703958" d="M201.083,94.054q-3.724,0-7.448,0a2.437,2.437,0,0,1-.647-.06.789.789,0,0,1,.058-1.529,2.974,2.974,0,0,1,.6-.041q7.448,0,14.9,0c.841,0,1.2.24,1.212.8.011.58-.363.837-1.224.837h-7.448" transform="translate(-166.535 -79.987)" fill="#161615"/>
                <path id="Trazado_703959" data-name="Trazado 703959" d="M197.138,119.265c-1.239,0-2.479,0-3.718,0-.676,0-1.038-.3-1.026-.82.011-.493.384-.8,1.015-.8q3.743-.008,7.486,0c.737,0,1.168.555.914,1.131a.828.828,0,0,1-.852.493c-1.273-.006-2.546,0-3.819,0" transform="translate(-166.513 -101.811)" fill="#161615"/>
                <path id="Trazado_703960" data-name="Trazado 703960" d="M46.207,218.939c.419,0,.839-.017,1.256,0a.821.821,0,0,1,.847.812.808.808,0,0,1-.812.8c-.87.029-1.743.031-2.613,0a.8.8,0,1,1,.015-1.608c.434-.022.871,0,1.307-.005" transform="translate(-38.148 -189.481)" fill="#161615"/>
                <path id="Trazado_703961" data-name="Trazado 703961" d="M46.184,246.662c-.436,0-.872.02-1.306-.005a.777.777,0,0,1-.8-.792.764.764,0,0,1,.78-.811c.887-.03,1.776-.029,2.663,0a.8.8,0,0,1,.79.814.833.833,0,0,1-.819.792,1,1,0,0,1-.1.006H46.184v-.006" transform="translate(-38.147 -212.07)" fill="#161615"/>
                <path id="Trazado_703962" data-name="Trazado 703962" d="M39.416,25.805a1.251,1.251,0,0,1,1.251-1.287,1.312,1.312,0,0,1,1.3,1.267,1.337,1.337,0,0,1-1.28,1.3,1.272,1.272,0,0,1-1.271-1.277" transform="translate(-34.114 -21.22)" fill="#161615"/>
                <path id="Trazado_703963" data-name="Trazado 703963" d="M74.624,25.78a1.26,1.26,0,0,1,1.247-1.248,1.309,1.309,0,0,1,1.293,1.276,1.326,1.326,0,0,1-1.3,1.281,1.273,1.273,0,0,1-1.243-1.309" transform="translate(-64.586 -21.232)" fill="#161615"/>
                <path id="Trazado_703964" data-name="Trazado 703964" d="M109.823,25.809A1.269,1.269,0,0,1,111.1,24.54a1.277,1.277,0,0,1-.01,2.553,1.273,1.273,0,0,1-1.263-1.284" transform="translate(-95.049 -21.239)" fill="#161615"/>
                <path id="Trazado_703965" data-name="Trazado 703965" d="M128.422,206.939a7.233,7.233,0,1,1-7.213,7.389,7.22,7.22,0,0,1,7.213-7.389m0,1.643a5.6,5.6,0,1,0,5.6,5.577,5.592,5.592,0,0,0-5.6-5.577" transform="translate(-104.903 -179.101)" fill="#161615"/>
                <path id="Trazado_703966" data-name="Trazado 703966" d="M64.336,108.81a5.928,5.928,0,0,1-6.3-1.061,5.684,5.684,0,0,1-1.813-6.2A5.935,5.935,0,0,1,61.2,97.237V97.8c0,1.711-.014,3.423.012,5.133a2.147,2.147,0,0,0,.27.987c.919,1.615,1.872,3.211,2.855,4.885" transform="translate(-48.425 -84.157)" fill="#652e7f"/>
                <path id="Trazado_703967" data-name="Trazado 703967" d="M112.458,102.8h-5.046c0-1.692,0-3.373,0-5.055a5.877,5.877,0,0,1,5.046,5.055" transform="translate(-92.963 -84.594)" fill="#26a07c"/>
                <path id="Trazado_703968" data-name="Trazado 703968" d="M114.757,152.176l-2.136-3.628h.71q1.556,0,3.112,0c.234,0,.461.006.415.336a5.323,5.323,0,0,1-2.1,3.292" transform="translate(-97.471 -128.565)" fill="#e1b127"/>
                <rect id="Rectángulo_339609" data-name="Rectángulo 339609" width="0.625" height="12.339" transform="translate(42.53 20.658)" fill="#ffde7f"/>
                <rect id="Rectángulo_339610" data-name="Rectángulo 339610" width="0.673" height="9.782" transform="translate(37.417 23.212)" fill="#804a93"/>
                <path id="Trazado_703969" data-name="Trazado 703969" d="M138.882,219.149a5.6,5.6,0,0,1,.024,11.195,5.6,5.6,0,0,1-.024-11.195" transform="translate(-115.367 -189.669)" fill="#fff"/>
              </g>
            </g>
            <g id="Grupo_973689" data-name="Grupo 973689" transform="translate(170.029 225.561)">
              <g id="Grupo_973658" data-name="Grupo 973658" clip-path="url(#clip-path-7)">
                <path id="Trazado_703970" data-name="Trazado 703970" d="M10.034,0H39.627A2.687,2.687,0,0,0,36.94,2.687V33.724a2.687,2.687,0,0,1-2.688,2.687H10.034a2.687,2.687,0,0,1-2.692-2.683V2.692A2.693,2.693,0,0,1,10.034,0" transform="translate(-1.962)" fill="#fff"/>
                <path id="Trazado_703971" data-name="Trazado 703971" d="M18.748,31.056,24.5,19.823l-8.485,1.372-.064-.123L29.205,5.559l.1.069L23.278,16.619l8.631-1.327L18.823,31.157Z" transform="translate(-4.262 -1.486)" fill="#ffb522"/>
                <path id="Trazado_703972" data-name="Trazado 703972" d="M0,46.025H29.6a2.684,2.684,0,0,0,2.68,2.687H2.693A2.687,2.687,0,0,1,0,46.029v0" transform="translate(0 -12.301)" fill="#d9e2ec"/>
                <path id="Trazado_703973" data-name="Trazado 703973" d="M53.11,6.975V2.688a2.687,2.687,0,1,0-5.374,0V6.975Z" transform="translate(-12.758 0)" fill="#d9e2ec"/>
                <path id="Trazado_703974" data-name="Trazado 703974" d="M20.468,3.938a.475.475,0,0,1-.474.474H11.187a.474.474,0,0,1,0-.948h8.807a.471.471,0,0,1,.474.468v.006" transform="translate(-2.863 -0.926)" fill="#acbccf"/>
                <path id="Trazado_703975" data-name="Trazado 703975" d="M20.468,6.885a.475.475,0,0,1-.474.474H11.187a.474.474,0,0,1,0-.948h8.807a.471.471,0,0,1,.474.468v.006" transform="translate(-2.863 -1.713)" fill="#acbccf"/>
                <path id="Trazado_703976" data-name="Trazado 703976" d="M15.066,9.832a.475.475,0,0,1-.474.474h-3.4a.474.474,0,0,1,0-.948h3.4a.471.471,0,0,1,.475.467v.007" transform="translate(-2.863 -2.501)" fill="#acbccf"/>
                <path id="Trazado_703977" data-name="Trazado 703977" d="M42.33,36.726a.475.475,0,0,1-.474.474H33.049a.474.474,0,0,1,0-.948h8.806a.471.471,0,0,1,.474.468v.006" transform="translate(-8.706 -9.689)" fill="#acbccf"/>
                <path id="Trazado_703978" data-name="Trazado 703978" d="M42.33,39.672a.475.475,0,0,1-.474.474H33.049a.474.474,0,0,1,0-.948h8.806a.471.471,0,0,1,.474.468v.006" transform="translate(-8.706 -10.476)" fill="#acbccf"/>
                <path id="Trazado_703979" data-name="Trazado 703979" d="M36.927,42.619a.475.475,0,0,1-.474.474h-3.4a.474.474,0,0,1,0-.948h3.4a.471.471,0,0,1,.474.468v.006" transform="translate(-8.706 -11.264)" fill="#acbccf"/>
              </g>
            </g>
          </g>
        </g>
        <g id="Grupo_973082" data-name="Grupo 973082" transform="translate(-2.198)">
          <g id="Grupo_973081" data-name="Grupo 973081" clip-path="url(#clip-path)">
            <path id="Trazado_697498" data-name="Trazado 697498" d="M115.044,277.293H30.865V227.826a4.064,4.064,0,0,1,4.064-4.064h76.052a4.064,4.064,0,0,1,4.064,4.064Z" transform="translate(-1.663 -12.056)" fill="#cfb7ff"/>
            <path id="Trazado_697499" data-name="Trazado 697499" d="M110.966,278.245H35.435V232.121a4.064,4.064,0,0,1,4.064-4.064h67.4a4.064,4.064,0,0,1,4.064,4.064Z" transform="translate(-1.909 -12.287)" fill="#263238"/>
            <path id="Trazado_697500" data-name="Trazado 697500" d="M110.966,278.245H35.435V232.121a4.064,4.064,0,0,1,4.064-4.064h67.4a4.064,4.064,0,0,1,4.064,4.064Z" transform="translate(-1.909 -12.287)" fill="none" stroke="#263238" stroke-linecap="round" stroke-linejoin="round" stroke-width="1"/>
            <path id="Trazado_697501" data-name="Trazado 697501" d="M113.741,284.5H27.258a7.206,7.206,0,0,1-7.207-7.207h100.9a7.206,7.206,0,0,1-7.207,7.207" transform="translate(-1.08 -14.94)" fill="#cfb7ff"/>
            <path id="Trazado_697502" data-name="Trazado 697502" d="M85.863,269.279H59.372V233.792h18.6l7.888,7.228Z" transform="translate(-3.199 -12.596)" fill="#fff"/>
            <path id="Trazado_697503" data-name="Trazado 697503" d="M85.863,269.279H59.372V233.792h18.6l7.888,7.228Z" transform="translate(-3.199 -12.596)" fill="none" stroke="#263238" stroke-linecap="round" stroke-linejoin="round" stroke-width="1"/>
            <path id="Trazado_697504" data-name="Trazado 697504" d="M79.035,233.792v7.228h7.888Z" transform="translate(-4.258 -12.596)" fill="#fff"/>
            <path id="Trazado_697505" data-name="Trazado 697505" d="M79.035,233.792v7.228h7.888Z" transform="translate(-4.258 -12.596)" fill="none" stroke="#263238" stroke-linecap="round" stroke-linejoin="round" stroke-width="1"/>
            <g id="Grupo_973690" data-name="Grupo 973690" transform="translate(42.995 234.006)">
              <rect id="Rectángulo_339613" data-name="Rectángulo 339613" width="7.343" height="4.858" transform="translate(0.573 17.558)" fill="#5cbdd2"/>
              <rect id="Rectángulo_339614" data-name="Rectángulo 339614" width="2.561" height="4.858" transform="translate(5.365 17.567)" fill="#4393a0"/>
              <g id="Grupo_973687" data-name="Grupo 973687" transform="translate(0 0)">
                <g id="Grupo_973686" data-name="Grupo 973686" clip-path="url(#clip-path-9)">
                  <g id="Grupo_973661" data-name="Grupo 973661" transform="translate(6.824 14.545)" style="isolation: isolate">
                    <g id="Grupo_973660" data-name="Grupo 973660">
                      <g id="Grupo_973659" data-name="Grupo 973659" clip-path="url(#clip-path-10)">
                        <rect id="Rectángulo_339615" data-name="Rectángulo 339615" width="7.343" height="7.908" transform="translate(0 0)" fill="#7870b0"/>
                      </g>
                    </g>
                  </g>
                  <g id="Grupo_973664" data-name="Grupo 973664" transform="translate(11.569 14.545)" style="isolation: isolate">
                    <g id="Grupo_973663" data-name="Grupo 973663">
                      <g id="Grupo_973662" data-name="Grupo 973662" clip-path="url(#clip-path-11)">
                        <rect id="Rectángulo_339617" data-name="Rectángulo 339617" width="2.561" height="7.908" transform="translate(0 0)" fill="#5e5a90"/>
                      </g>
                    </g>
                  </g>
                  <g id="Grupo_973667" data-name="Grupo 973667" transform="translate(13.715 10.525)" style="isolation: isolate">
                    <g id="Grupo_973666" data-name="Grupo 973666">
                      <g id="Grupo_973665" data-name="Grupo 973665" clip-path="url(#clip-path-12)">
                        <rect id="Rectángulo_339619" data-name="Rectángulo 339619" width="7.343" height="11.975" transform="translate(0 0)" fill="#1f8c94"/>
                      </g>
                    </g>
                  </g>
                  <g id="Grupo_973670" data-name="Grupo 973670" transform="translate(18.423 10.525)" style="isolation: isolate">
                    <g id="Grupo_973669" data-name="Grupo 973669">
                      <g id="Grupo_973668" data-name="Grupo 973668" clip-path="url(#clip-path-13)">
                        <rect id="Rectángulo_339621" data-name="Rectángulo 339621" width="2.561" height="11.937" transform="translate(0 0)" fill="#1b787a"/>
                      </g>
                    </g>
                  </g>
                  <g id="Grupo_973673" data-name="Grupo 973673" transform="translate(20.795 6.082)" style="isolation: isolate">
                    <g id="Grupo_973672" data-name="Grupo 973672">
                      <g id="Grupo_973671" data-name="Grupo 973671" clip-path="url(#clip-path-14)">
                        <rect id="Rectángulo_339623" data-name="Rectángulo 339623" width="7.343" height="16.381" transform="translate(0)" fill="#004897"/>
                      </g>
                    </g>
                  </g>
                  <g id="Grupo_973676" data-name="Grupo 973676" transform="translate(25.54 6.082)" style="isolation: isolate">
                    <g id="Grupo_973675" data-name="Grupo 973675">
                      <g id="Grupo_973674" data-name="Grupo 973674" clip-path="url(#clip-path-15)">
                        <rect id="Rectángulo_339625" data-name="Rectángulo 339625" width="2.561" height="16.381" transform="translate(0)" fill="#003b70"/>
                      </g>
                    </g>
                  </g>
                  <g id="Grupo_973679" data-name="Grupo 973679" transform="translate(27.762 0.009)" style="isolation: isolate">
                    <g id="Grupo_973678" data-name="Grupo 973678">
                      <g id="Grupo_973677" data-name="Grupo 973677" clip-path="url(#clip-path-16)">
                        <rect id="Rectángulo_339627" data-name="Rectángulo 339627" width="7.343" height="22.481" transform="translate(0 0)" fill="#171e59"/>
                      </g>
                    </g>
                  </g>
                  <g id="Grupo_973682" data-name="Grupo 973682" transform="translate(32.506)" style="isolation: isolate">
                    <g id="Grupo_973681" data-name="Grupo 973681">
                      <g id="Grupo_973680" data-name="Grupo 973680" clip-path="url(#clip-path-17)">
                        <rect id="Rectángulo_339629" data-name="Rectángulo 339629" width="2.561" height="22.444" fill="#161a3c"/>
                      </g>
                    </g>
                  </g>
                  <g id="Grupo_973685" data-name="Grupo 973685" transform="translate(0.874 22.463)" style="isolation: isolate">
                    <g id="Grupo_973684" data-name="Grupo 973684">
                      <g id="Grupo_973683" data-name="Grupo 973683" clip-path="url(#clip-path-18)">
                        <rect id="Rectángulo_339631" data-name="Rectángulo 339631" width="34.852" height="0.584" transform="translate(0 0)" fill="#161a3c"/>
                      </g>
                    </g>
                  </g>
                  <path id="Trazado_703980" data-name="Trazado 703980" d="M8.4,49.557s12.573,3.119,25.99-6.574l2.476,2.024.716-8.671-6.149,1.239,1.42,3.238S26.528,49.173,8.4,49.557" transform="translate(-6.263 -27.1)" fill="#f5b0a9"/>
                  <path id="Trazado_703981" data-name="Trazado 703981" d="M8.375,49.512s13.092,2.409,25.972-7.986l2.142,1.946.849-7.191L30.4,37.768l1.93,1.706S26.458,48.16,8.375,49.512" transform="translate(-6.246 -27.058)" fill="#f5b0a9"/>
                  <path id="Trazado_703982" data-name="Trazado 703982" d="M105.717,72.58h3.06v4.554c0,.471-.685.72-1.53.72s-1.53-.248-1.53-.72Z" transform="translate(-78.845 -54.131)" fill="#f8a92f" fill-rule="evenodd"/>
                  <path id="Trazado_703983" data-name="Trazado 703983" d="M107.248,69.222c.845,0,1.53.382,1.53.854s-.685.853-1.53.853-1.53-.382-1.53-.853.685-.854,1.53-.854" transform="translate(-78.846 -51.627)" fill="#ffc141"/>
                  <path id="Trazado_703984" data-name="Trazado 703984" d="M108.348,70.3a1.788,1.788,0,0,0-.9.221c-.083.051-.256.178-.256.3s.173.25.256.3a1.942,1.942,0,0,0,1.8,0c.083-.051.256-.178.256-.3s-.173-.25-.256-.3a1.787,1.787,0,0,0-.9-.221" transform="translate(-79.945 -52.431)" fill="#f8a92f" fill-rule="evenodd"/>
                  <path id="Trazado_703985" data-name="Trazado 703985" d="M110.58,71.494a.094.094,0,0,1,.087-.165.353.353,0,0,0,.065.028.2.2,0,1,0,.078-.025.455.455,0,0,1-.2-.042.171.171,0,0,1,0-.325.4.4,0,0,1,.1-.033.094.094,0,0,1,.184,0l.049.011a.316.316,0,0,1,.119.053.094.094,0,1,1-.116.147l-.005,0a.177.177,0,0,0-.045-.015.414.414,0,0,0-.092-.014.053.053,0,1,0,0,.034.459.459,0,0,1,.2.042.171.171,0,0,1,0,.325.4.4,0,0,1-.105.034.094.094,0,0,1-.182,0l-.04-.009a.49.49,0,0,1-.1-.042Zm.356-.146s0,0,0,0,0,0,0,0Zm-.254-.221s0,0,0,0,0,0,0,0Z" transform="translate(-82.407 -52.844)" fill="#d69128" fill-rule="evenodd"/>
                  <path id="Trazado_703986" data-name="Trazado 703986" d="M107.248,79.467c.845,0,1.53-.248,1.53-.72v-.631c0,.472-.685.72-1.53.72s-1.53-.248-1.53-.72v.632c0,.471.685.719,1.53.719m0-2.526c.845,0,1.53-.248,1.53-.72V75.59c0,.471-.685.72-1.53.72s-1.53-.248-1.53-.72v.631c0,.472.685.72,1.53.72m0,1.263c-.845,0-1.53-.248-1.53-.72v-.631c0,.472.685.72,1.53.72s1.53-.248,1.53-.72v.631c0,.472-.685.72-1.53.72" transform="translate(-78.846 -56.376)" fill="#d69128" fill-rule="evenodd"/>
                  <path id="Trazado_703987" data-name="Trazado 703987" d="M82.512,78.054H80v3.267c0,.387.562.591,1.256.591s1.256-.2,1.256-.591Z" transform="translate(-59.665 -58.214)" fill="#f8a92f" fill-rule="evenodd"/>
                  <path id="Trazado_703988" data-name="Trazado 703988" d="M81.256,75.484c.694,0,1.256.314,1.256.7s-.563.7-1.256.7S80,76.571,80,76.185s.563-.7,1.256-.7" transform="translate(-59.665 -56.297)" fill="#ffc141"/>
                  <path id="Trazado_703989" data-name="Trazado 703989" d="M82.16,76.37a1.466,1.466,0,0,0-.738.181c-.068.041-.21.146-.21.247s.142.205.21.247a1.6,1.6,0,0,0,1.477,0c.068-.042.21-.146.21-.247s-.142-.205-.21-.247a1.467,1.467,0,0,0-.739-.181" transform="translate(-60.569 -56.957)" fill="#f8a92f" fill-rule="evenodd"/>
                  <path id="Trazado_703990" data-name="Trazado 703990" d="M83.991,77.349a.077.077,0,1,1,.072-.136.269.269,0,0,0,.053.023.235.235,0,0,0,.064.007.043.043,0,1,0,0-.028.372.372,0,0,1-.163-.035.14.14,0,0,1,0-.266.315.315,0,0,1,.086-.027.077.077,0,0,1,.151,0l.04.009a.265.265,0,0,1,.1.043.077.077,0,0,1-.1.117.145.145,0,0,0-.037-.012.316.316,0,0,0-.075-.011.233.233,0,0,0-.084.014.238.238,0,0,0,.084.014.378.378,0,0,1,.163.035.14.14,0,0,1,0,.266.324.324,0,0,1-.086.028.077.077,0,0,1-.149,0l-.033-.008a.407.407,0,0,1-.083-.034m.292-.12s0,0,0,0S84.284,77.228,84.283,77.229Zm-.208-.182s0,0,0,0,0,0,0,0Z" transform="translate(-62.588 -57.296)" fill="#d69128" fill-rule="evenodd"/>
                  <path id="Trazado_703991" data-name="Trazado 703991" d="M82.512,82.785c0,.387-.563.591-1.256.591S80,83.172,80,82.785V83.3c0,.387.562.591,1.256.591s1.256-.2,1.256-.591Zm0-2.073c0,.387-.563.591-1.256.591S80,81.1,80,80.712v.518c0,.387.562.591,1.256.591s1.256-.2,1.256-.591Zm0,1.037v.518c0,.387-.563.591-1.256.591S80,82.654,80,82.267v-.518c0,.387.562.591,1.256.591s1.256-.2,1.256-.591" transform="translate(-59.665 -60.196)" fill="#d69128" fill-rule="evenodd"/>
                  <path id="Trazado_703992" data-name="Trazado 703992" d="M1.965,83.454H0V85.2c0,.3.44.462.983.462s.982-.159.982-.462Z" transform="translate(0 -62.241)" fill="#f8a92f" fill-rule="evenodd"/>
                  <path id="Trazado_703993" data-name="Trazado 703993" d="M.982,81.444c.543,0,.982.245.982.548s-.44.548-.982.548S0,82.295,0,81.992s.44-.548.982-.548" transform="translate(0 -60.742)" fill="#ffc141"/>
                  <path id="Trazado_703994" data-name="Trazado 703994" d="M1.689,82.137a1.15,1.15,0,0,0-.578.142c-.053.033-.164.115-.164.193s.111.161.164.193a1.146,1.146,0,0,0,.578.142,1.146,1.146,0,0,0,.578-.142c.053-.032.164-.114.164-.193s-.111-.16-.164-.193a1.148,1.148,0,0,0-.578-.142" transform="translate(-0.707 -61.259)" fill="#f8a92f" fill-rule="evenodd"/>
                  <path id="Trazado_703995" data-name="Trazado 703995" d="M3.122,82.9a.06.06,0,1,1,.056-.106.215.215,0,0,0,.041.018.128.128,0,1,0,.05-.016.3.3,0,0,1-.128-.027.11.11,0,0,1,0-.208.257.257,0,0,1,.067-.022.06.06,0,0,1,.118,0l.032.007a.205.205,0,0,1,.077.034.06.06,0,0,1-.078.092.121.121,0,0,0-.029-.01.246.246,0,0,0-.059-.009.182.182,0,0,0-.066.011.184.184,0,0,0,.066.011A.293.293,0,0,1,3.4,82.7a.11.11,0,0,1,0,.208.265.265,0,0,1-.068.022.06.06,0,0,1-.117,0l-.026-.006a.315.315,0,0,1-.065-.027m.229-.094s0,0,0,0,0,0,0,0Zm-.163-.142s0,0,0,0,0,0,0,0Z" transform="translate(-2.287 -61.523)" fill="#d69128" fill-rule="evenodd"/>
                  <path id="Trazado_703996" data-name="Trazado 703996" d="M1.965,85.534c0,.3-.44.462-.982.462S0,85.837,0,85.534v.405c0,.3.44.462.983.462s.982-.159.982-.462Zm0,.811v.405c0,.3-.44.462-.982.462S0,87.053,0,86.75v-.405c0,.3.44.462.983.462s.982-.159.982-.462" transform="translate(0 -63.792)" fill="#d69128" fill-rule="evenodd"/>
                </g>
              </g>
            </g>
          </g>
        </g>
        <g id="Grupo_973084" data-name="Grupo 973084">
          <g id="Grupo_973083" data-name="Grupo 973083" clip-path="url(#clip-path)">
            <path id="Trazado_697506" data-name="Trazado 697506" d="M320.636,174.966a53.757,53.757,0,0,0-28.659-44.183A53.753,53.753,0,0,0,203.16,72.436a53.764,53.764,0,0,0-101.81,33.656c-1.652-.153-3.323-.241-5.014-.241a53.761,53.761,0,0,0-51.518,69.116Z" transform="translate(-2.294 -2.117)" fill="#cfb7ff"/>
            <path id="Trazado_697507" data-name="Trazado 697507" d="M166.8,92.788l2.481-1.13-.525-2.978-2.736-.212a11.957,11.957,0,0,0-1.37-2.593l1.411-2.382-2.137-2.138-2.4,1.426a11.961,11.961,0,0,0-4.585-1.87l-.693-2.743h-3.024l-.7,2.76a11.961,11.961,0,0,0-2.719.864l-2.162-1.87-2.477,1.734,1.021,2.675a12.082,12.082,0,0,0-1.736,2.253l-2.847-.293-1.034,2.842,2.357,1.6a12.113,12.113,0,0,0-.17,2.008c0,.286.013.569.033.85l-2.48,1.384.782,2.921,2.807-.036a12.007,12.007,0,0,0,1.541,2.451l-1.211,2.518,2.316,1.944,2.244-1.608a11.948,11.948,0,0,0,2.7,1.142l.45,2.708,3.012.264.908-2.565a11.917,11.917,0,0,0,2.9-.627l1.9,1.931,2.619-1.512-.719-2.6a12.063,12.063,0,0,0,2.011-2.193l2.66.491,1.278-2.741-2.087-1.723a12.021,12.021,0,0,0,.375-2.942m-4.472-.052a7.55,7.55,0,1,1-7.55-7.55,7.55,7.55,0,0,1,7.55,7.55" transform="translate(-7.56 -4.211)" fill="#12263f"/>
            <path id="Trazado_697508" data-name="Trazado 697508" d="M257.4,140.121l2.481-1.13-.525-2.978-2.736-.212a11.958,11.958,0,0,0-1.37-2.593l1.411-2.382-2.137-2.138-2.4,1.426a11.961,11.961,0,0,0-4.585-1.87l-.693-2.743h-3.024l-.7,2.76a11.961,11.961,0,0,0-2.719.864l-2.162-1.87-2.477,1.734,1.021,2.675a12.114,12.114,0,0,0-1.736,2.253l-2.847-.293-1.034,2.842,2.357,1.6a12.11,12.11,0,0,0-.17,2.008c0,.286.013.569.033.85L230.9,142.3l.782,2.921,2.807-.036a12.007,12.007,0,0,0,1.541,2.451l-1.212,2.518,2.317,1.944,2.244-1.608a11.948,11.948,0,0,0,2.7,1.142l.45,2.708,3.012.264.908-2.565a11.926,11.926,0,0,0,2.9-.627l1.9,1.931,2.619-1.512-.719-2.6a12.062,12.062,0,0,0,2.011-2.193l2.66.491,1.278-2.741-2.087-1.723a12.021,12.021,0,0,0,.375-2.942m-4.472-.052a7.55,7.55,0,1,1-7.55-7.55,7.55,7.55,0,0,1,7.55,7.55" transform="translate(-12.44 -6.761)" fill="#12263f"/>
            <path id="Trazado_697509" data-name="Trazado 697509" d="M73.05,163.737V132.988A8.988,8.988,0,0,1,82.038,124h64.336" transform="translate(-3.936 -6.681)" fill="none" stroke="#12263f" stroke-linejoin="round" stroke-width="7"/>
            <path id="Trazado_697510" data-name="Trazado 697510" d="M251.884,116.167h14.192a9.146,9.146,0,0,1,9.146,9.146V157.8" transform="translate(-13.571 -6.259)" fill="none" stroke="#12263f" stroke-linejoin="round" stroke-width="7"/>
            <path id="Trazado_697511" data-name="Trazado 697511" d="M167.315,31.875V67.9a2.931,2.931,0,0,0,2.932,2.931h11.5a2.933,2.933,0,0,1,2.932,2.932v8.459H153.1a6.826,6.826,0,0,0-6.826,6.826v48.637a6.826,6.826,0,0,0,6.826,6.826h89.594a6.826,6.826,0,0,0,6.826-6.826V89.047a6.826,6.826,0,0,0-6.826-6.826H211.111V73.762a2.933,2.933,0,0,1,2.932-2.932h11.5a2.932,2.932,0,0,0,2.932-2.931V32.762" transform="translate(-7.881 -1.717)" fill="#fff"/>
            <path id="Trazado_697512" data-name="Trazado 697512" d="M167.315,31.875V67.9a2.931,2.931,0,0,0,2.932,2.931h11.5a2.933,2.933,0,0,1,2.932,2.932v8.459H153.1a6.826,6.826,0,0,0-6.826,6.826v48.637a6.826,6.826,0,0,0,6.826,6.826h89.594a6.826,6.826,0,0,0,6.826-6.826V89.047a6.826,6.826,0,0,0-6.826-6.826H211.111V73.762a2.933,2.933,0,0,1,2.932-2.932h11.5a2.932,2.932,0,0,0,2.932-2.931V32.762" transform="translate(-7.881 -1.717)" fill="none" stroke="#263238" stroke-linecap="round" stroke-linejoin="round" stroke-width="1"/>
            <path id="Trazado_697513" data-name="Trazado 697513" d="M163.551,17.5s19.228,2.354,22.66,23.5" transform="translate(-8.812 -0.943)" fill="none" stroke="#0b428a" stroke-linecap="round" stroke-linejoin="round" stroke-width="2"/>
            <path id="Trazado_697514" data-name="Trazado 697514" d="M182.3,41.307l5.443,7.7,3.952-8.565Z" transform="translate(-9.822 -2.179)" fill="#0b428a"/>
            <path id="Trazado_697515" data-name="Trazado 697515" d="M221.743,17.5s-20.627,3.868-22.966,39.574" transform="translate(-10.709 -0.943)" fill="none" stroke="#0b428a" stroke-linecap="round" stroke-linejoin="round" stroke-width="2"/>
            <path id="Trazado_697516" data-name="Trazado 697516" d="M193.9,57.68l4.4,8.345,5.029-7.981Z" transform="translate(-10.447 -3.108)" fill="#0b428a"/>
            <path id="Trazado_697517" data-name="Trazado 697517" d="M167.551,1s19.228,2.354,22.66,23.5" transform="translate(-9.027 -0.054)" fill="none" stroke="#0b428a" stroke-linecap="round" stroke-linejoin="round" stroke-width="2"/>
            <path id="Trazado_697518" data-name="Trazado 697518" d="M186.3,24.807l5.443,7.7,3.952-8.565Z" transform="translate(-10.037 -1.29)" fill="#0b428a"/>
            <path id="Trazado_697519" data-name="Trazado 697519" d="M238.761,17.5S219.532,19.854,216.1,41" transform="translate(-11.643 -0.943)" fill="none" stroke="#0b428a" stroke-linecap="round" stroke-linejoin="round" stroke-width="2"/>
            <path id="Trazado_697520" data-name="Trazado 697520" d="M211.373,40.446l3.952,8.566,5.443-7.705Z" transform="translate(-11.388 -2.179)" fill="#0b428a"/>
            <path id="Trazado_697521" data-name="Trazado 697521" d="M238.554,92.951H207.412V83.5H188.49v9.451h-30.6a5.6,5.6,0,0,0-5.6,5.6v35.865a5.6,5.6,0,0,0,5.6,5.6h80.666a5.6,5.6,0,0,0,5.6-5.6V98.547a5.6,5.6,0,0,0-5.6-5.6" transform="translate(-8.205 -4.499)" fill="#12263f"/>
            <line id="Línea_250" data-name="Línea 250" x2="12.161" transform="translate(151.076 95.954)" fill="none" stroke="#fff" stroke-linecap="round" stroke-linejoin="round" stroke-width="1"/>
            <line id="Línea_251" data-name="Línea 251" x2="30.729" transform="translate(151.076 101.706)" fill="none" stroke="#fff" stroke-linecap="round" stroke-linejoin="round" stroke-width="1"/>
            <line id="Línea_252" data-name="Línea 252" x2="8.709" transform="translate(184.106 101.706)" fill="none" stroke="#fff" stroke-linecap="round" stroke-linejoin="round" stroke-width="1"/>
            <line id="Línea_253" data-name="Línea 253" x2="14.625" transform="translate(195.28 101.706)" fill="none" stroke="#fff" stroke-linecap="round" stroke-linejoin="round" stroke-width="1"/>
            <line id="Línea_254" data-name="Línea 254" x2="12.161" transform="translate(174.246 95.954)" fill="none" stroke="#fff" stroke-linecap="round" stroke-linejoin="round" stroke-width="1"/>
            <line id="Línea_255" data-name="Línea 255" x2="17.09" transform="translate(211.384 95.954)" fill="none" stroke="#fff" stroke-linecap="round" stroke-linejoin="round" stroke-width="1"/>
            <line id="Línea_256" data-name="Línea 256" x2="17.09" transform="translate(211.384 101.706)" fill="none" stroke="#fff" stroke-linecap="round" stroke-linejoin="round" stroke-width="1"/>
            <line id="Línea_257" data-name="Línea 257" x2="5.587" transform="translate(166.359 95.954)" fill="none" stroke="#fff" stroke-linecap="round" stroke-linejoin="round" stroke-width="1"/>
            <line id="Línea_258" data-name="Línea 258" x2="5.587" transform="translate(188.832 95.954)" fill="none" stroke="#fff" stroke-linecap="round" stroke-linejoin="round" stroke-width="1"/>
            <line id="Línea_259" data-name="Línea 259" x2="4.148" transform="translate(196.883 95.954)" fill="none" stroke="#fff" stroke-linecap="round" stroke-linejoin="round" stroke-width="1"/>
            <line id="Línea_260" data-name="Línea 260" x2="5.587" transform="translate(203.457 95.954)" fill="none" stroke="#fff" stroke-linecap="round" stroke-linejoin="round" stroke-width="1"/>
            <line id="Línea_261" data-name="Línea 261" x1="12.161" transform="translate(216.313 106.964)" fill="none" stroke="#fff" stroke-linecap="round" stroke-linejoin="round" stroke-width="1"/>
            <line id="Línea_262" data-name="Línea 262" x1="30.729" transform="translate(197.745 112.716)" fill="none" stroke="#fff" stroke-linecap="round" stroke-linejoin="round" stroke-width="1"/>
            <line id="Línea_263" data-name="Línea 263" x1="8.709" transform="translate(186.735 112.716)" fill="none" stroke="#fff" stroke-linecap="round" stroke-linejoin="round" stroke-width="1"/>
            <line id="Línea_264" data-name="Línea 264" x1="14.625" transform="translate(169.645 112.716)" fill="none" stroke="#fff" stroke-linecap="round" stroke-linejoin="round" stroke-width="1"/>
            <line id="Línea_265" data-name="Línea 265" x1="12.161" transform="translate(193.143 106.964)" fill="none" stroke="#fff" stroke-linecap="round" stroke-linejoin="round" stroke-width="1"/>
            <line id="Línea_266" data-name="Línea 266" x1="17.09" transform="translate(151.076 106.964)" fill="none" stroke="#fff" stroke-linecap="round" stroke-linejoin="round" stroke-width="1"/>
            <line id="Línea_267" data-name="Línea 267" x1="17.09" transform="translate(151.076 112.716)" fill="none" stroke="#fff" stroke-linecap="round" stroke-linejoin="round" stroke-width="1"/>
            <line id="Línea_268" data-name="Línea 268" x1="5.587" transform="translate(207.605 106.964)" fill="none" stroke="#fff" stroke-linecap="round" stroke-linejoin="round" stroke-width="1"/>
            <line id="Línea_269" data-name="Línea 269" x1="5.587" transform="translate(185.132 106.964)" fill="none" stroke="#fff" stroke-linecap="round" stroke-linejoin="round" stroke-width="1"/>
            <line id="Línea_270" data-name="Línea 270" x1="4.148" transform="translate(178.519 106.964)" fill="none" stroke="#fff" stroke-linecap="round" stroke-linejoin="round" stroke-width="1"/>
            <line id="Línea_271" data-name="Línea 271" x1="5.587" transform="translate(170.507 106.964)" fill="none" stroke="#fff" stroke-linecap="round" stroke-linejoin="round" stroke-width="1"/>
            <line id="Línea_272" data-name="Línea 272" x1="12.161" transform="translate(216.313 117.81)" fill="none" stroke="#fff" stroke-linecap="round" stroke-linejoin="round" stroke-width="1"/>
            <line id="Línea_273" data-name="Línea 273" x2="30.729" transform="translate(151.076 123.561)" fill="none" stroke="#fff" stroke-linecap="round" stroke-linejoin="round" stroke-width="1"/>
            <line id="Línea_274" data-name="Línea 274" x2="8.709" transform="translate(184.106 123.561)" fill="none" stroke="#fff" stroke-linecap="round" stroke-linejoin="round" stroke-width="1"/>
            <line id="Línea_275" data-name="Línea 275" x2="14.625" transform="translate(195.28 123.561)" fill="none" stroke="#fff" stroke-linecap="round" stroke-linejoin="round" stroke-width="1"/>
            <line id="Línea_276" data-name="Línea 276" x1="12.161" transform="translate(193.143 117.81)" fill="none" stroke="#fff" stroke-linecap="round" stroke-linejoin="round" stroke-width="1"/>
            <line id="Línea_277" data-name="Línea 277" x1="17.09" transform="translate(151.076 117.81)" fill="none" stroke="#fff" stroke-linecap="round" stroke-linejoin="round" stroke-width="1"/>
            <line id="Línea_278" data-name="Línea 278" x2="17.09" transform="translate(211.384 123.561)" fill="none" stroke="#fff" stroke-linecap="round" stroke-linejoin="round" stroke-width="1"/>
            <line id="Línea_279" data-name="Línea 279" x1="5.587" transform="translate(207.605 117.81)" fill="none" stroke="#fff" stroke-linecap="round" stroke-linejoin="round" stroke-width="1"/>
            <line id="Línea_280" data-name="Línea 280" x1="5.587" transform="translate(185.132 117.81)" fill="none" stroke="#fff" stroke-linecap="round" stroke-linejoin="round" stroke-width="1"/>
            <line id="Línea_281" data-name="Línea 281" x1="4.148" transform="translate(178.519 117.81)" fill="none" stroke="#fff" stroke-linecap="round" stroke-linejoin="round" stroke-width="1"/>
            <line id="Línea_282" data-name="Línea 282" x1="5.587" transform="translate(170.507 117.81)" fill="none" stroke="#fff" stroke-linecap="round" stroke-linejoin="round" stroke-width="1"/>
            <line id="Línea_283" data-name="Línea 283" x1="12.161" transform="translate(216.313 128.655)" fill="none" stroke="#fff" stroke-linecap="round" stroke-linejoin="round" stroke-width="1"/>
            <line id="Línea_284" data-name="Línea 284" x1="12.161" transform="translate(193.143 128.655)" fill="none" stroke="#fff" stroke-linecap="round" stroke-linejoin="round" stroke-width="1"/>
            <line id="Línea_285" data-name="Línea 285" x1="17.09" transform="translate(151.076 128.655)" fill="none" stroke="#fff" stroke-linecap="round" stroke-linejoin="round" stroke-width="1"/>
            <line id="Línea_286" data-name="Línea 286" x1="5.587" transform="translate(207.605 128.655)" fill="none" stroke="#fff" stroke-linecap="round" stroke-linejoin="round" stroke-width="1"/>
            <line id="Línea_287" data-name="Línea 287" x1="5.587" transform="translate(185.132 128.655)" fill="none" stroke="#fff" stroke-linecap="round" stroke-linejoin="round" stroke-width="1"/>
            <line id="Línea_288" data-name="Línea 288" x1="4.148" transform="translate(178.519 128.655)" fill="none" stroke="#fff" stroke-linecap="round" stroke-linejoin="round" stroke-width="1"/>
            <line id="Línea_289" data-name="Línea 289" x1="5.587" transform="translate(170.507 128.655)" fill="none" stroke="#fff" stroke-linecap="round" stroke-linejoin="round" stroke-width="1"/>
            <path id="Trazado_697522" data-name="Trazado 697522" d="M129,151.649l3.531-1.608-.747-4.24-3.9-.3a17.116,17.116,0,0,0-1.95-3.692l2.009-3.391-3.044-3.045-3.419,2.03a17.012,17.012,0,0,0-6.527-2.664l-.988-3.9h-4.3l-.992,3.93a16.958,16.958,0,0,0-3.871,1.229l-3.077-2.663L98.2,135.8l1.453,3.808a17.141,17.141,0,0,0-2.473,3.207l-4.052-.417-1.472,4.045,3.355,2.276a17.226,17.226,0,0,0-.242,2.857c0,.407.019.81.047,1.209l-3.53,1.972,1.114,4.157,4-.051a17.116,17.116,0,0,0,2.194,3.49l-1.725,3.584,3.3,2.767,3.2-2.289a16.978,16.978,0,0,0,3.85,1.624l.641,3.855,4.289.375,1.293-3.65a17.017,17.017,0,0,0,4.127-.894l2.706,2.75,3.728-2.152-1.024-3.708a17.216,17.216,0,0,0,2.864-3.121l3.787.7,1.819-3.9-2.971-2.453a17.163,17.163,0,0,0,.534-4.188m-6.367-.074a10.748,10.748,0,1,1-10.748-10.748,10.748,10.748,0,0,1,10.748,10.748" transform="translate(-4.918 -7.049)" fill="#12263f"/>
            <path id="Trazado_697523" data-name="Trazado 697523" d="M55.566,181.614h6.425a10.736,10.736,0,0,1,21.165,0H93.17l-.7-3.955-3.9-.3a17.117,17.117,0,0,0-1.95-3.692l2.009-3.391-3.044-3.045-3.419,2.03a17.012,17.012,0,0,0-6.527-2.664l-.988-3.9h-4.3l-.992,3.929a17.006,17.006,0,0,0-3.871,1.23l-3.077-2.663-3.526,2.469,1.453,3.808a17.141,17.141,0,0,0-2.473,3.207l-4.052-.418L52.344,178.3l3.355,2.275c-.058.343-.095.691-.132,1.039" transform="translate(-2.82 -8.765)" fill="#12263f"/>
            <rect id="Rectángulo_339364" data-name="Rectángulo 339364" width="18.922" height="7.569" transform="translate(267.958 155.952)" fill="#fff"/>
            <rect id="Rectángulo_339365" data-name="Rectángulo 339365" width="18.922" height="7.569" transform="translate(267.958 155.952)" fill="none" stroke="#263238" stroke-linecap="round" stroke-linejoin="round" stroke-width="1"/>
            <rect id="Rectángulo_339366" data-name="Rectángulo 339366" width="20.184" height="27.753" transform="translate(281.835 145.096)" fill="#fff"/>
            <rect id="Rectángulo_339367" data-name="Rectángulo 339367" width="20.184" height="27.753" transform="translate(281.835 145.096)" fill="none" stroke="#263238" stroke-linecap="round" stroke-linejoin="round" stroke-width="1"/>
            <path id="Trazado_697524" data-name="Trazado 697524" d="M261.129,164.94H240.314v-7.515h-39.27v7.01" transform="translate(-10.832 -8.481)" fill="none" stroke="#263238" stroke-linecap="round" stroke-linejoin="round" stroke-width="2"/>
            <line id="Línea_290" data-name="Línea 290" x1="45.414" transform="translate(205.514 167.306)" fill="none" stroke="#263238" stroke-linecap="round" stroke-linejoin="round" stroke-width="2"/>
            <rect id="Rectángulo_339368" data-name="Rectángulo 339368" width="13.877" height="14.641" transform="translate(202.361 158.208)" fill="#fff"/>
            <rect id="Rectángulo_339369" data-name="Rectángulo 339369" width="13.877" height="14.641" transform="translate(202.361 158.208)" fill="none" stroke="#263238" stroke-linecap="round" stroke-linejoin="round" stroke-width="1"/>
            <rect id="Rectángulo_339370" data-name="Rectángulo 339370" width="37.214" height="40.368" transform="translate(172.085 153.429)" fill="#fff"/>
            <rect id="Rectángulo_339371" data-name="Rectángulo 339371" width="37.214" height="40.368" transform="translate(172.085 153.429)" fill="none" stroke="#263238" stroke-linecap="round" stroke-linejoin="round" stroke-width="1"/>
            <rect id="Rectángulo_339372" data-name="Rectángulo 339372" width="30.907" height="40.368" transform="translate(175.238 153.429)" fill="#fff"/>
            <rect id="Rectángulo_339373" data-name="Rectángulo 339373" width="30.907" height="40.368" transform="translate(175.238 153.429)" fill="none" stroke="#263238" stroke-linecap="round" stroke-linejoin="round" stroke-width="1"/>
            <path id="Trazado_697525" data-name="Trazado 697525" d="M245,164.734a2.6,2.6,0,1,0-2.6,2.6,2.6,2.6,0,0,0,2.6-2.6" transform="translate(-12.92 -8.735)" fill="#263238"/>
            <path id="Trazado_697526" data-name="Trazado 697526" d="M203.589,157.276a2.6,2.6,0,1,0-2.6,2.6,2.6,2.6,0,0,0,2.6-2.6" transform="translate(-10.689 -8.333)" fill="#263238"/>
            <rect id="Rectángulo_339374" data-name="Rectángulo 339374" width="27.123" height="27.753" transform="translate(247.775 145.096)" fill="#fff"/>
            <rect id="Rectángulo_339375" data-name="Rectángulo 339375" width="27.123" height="27.753" transform="translate(247.775 145.096)" fill="none" stroke="#263238" stroke-linecap="round" stroke-linejoin="round" stroke-width="1"/>
            <rect id="Rectángulo_339376" data-name="Rectángulo 339376" width="37.214" height="6.519" transform="translate(172.085 153.43)" fill="#263238"/>
            <rect id="Rectángulo_339377" data-name="Rectángulo 339377" width="37.214" height="6.519" transform="translate(172.085 153.43)" fill="none" stroke="#263238" stroke-linecap="round" stroke-linejoin="round" stroke-width="1"/>
            <path id="Trazado_697527" data-name="Trazado 697527" d="M286.246,164.374H276.2v-3.764l-13.071,7.547,13.071,7.548v-3.763h10.043Z" transform="translate(-14.177 -8.653)" fill="#0b428a"/>
            <path id="Trazado_697528" data-name="Trazado 697528" d="M196.133,174.373v10.043H192.37l7.547,13.071,7.548-13.071H203.7V174.373Z" transform="translate(-10.364 -9.395)" fill="#0b428a"/>
            <line id="Línea_291" data-name="Línea 291" y2="14.964" transform="translate(270.97 113.519)" fill="none" stroke="#0b428a" stroke-miterlimit="10" stroke-width="1"/>
            <path id="Trazado_697529" data-name="Trazado 697529" d="M283.907,135.07l2.359,4.084,2.359-4.084Z" transform="translate(-15.296 -7.277)" fill="#0b428a"/>
            <path id="Trazado_697530" data-name="Trazado 697530" d="M278.885,98.707A11.646,11.646,0,0,1,286,109.434v3.2" transform="translate(-15.025 -5.318)" fill="none" stroke="#0b428a" stroke-miterlimit="10" stroke-width="1"/>
            <path id="Trazado_697531" data-name="Trazado 697531" d="M283.907,112.7l2.359,4.084,2.359-4.084Z" transform="translate(-15.296 -6.072)" fill="#0b428a"/>
            <line id="Línea_292" data-name="Línea 292" x2="9.591" transform="translate(246.343 92.474)" fill="none" stroke="#0b428a" stroke-miterlimit="10" stroke-width="1"/>
            <path id="Trazado_697532" data-name="Trazado 697532" d="M269.778,99.965l4.084-2.359-4.084-2.359Z" transform="translate(-14.535 -5.132)" fill="#0b428a"/>
            <path id="Trazado_697533" data-name="Trazado 697533" d="M44.247,296.257a7.376,7.376,0,1,0-7.376,7.376,7.375,7.375,0,0,0,7.376-7.376" transform="translate(-1.589 -15.564)" fill="#263238"/>
            <path id="Trazado_697534" data-name="Trazado 697534" d="M39.377,296.551a2.213,2.213,0,1,0-2.213,2.213,2.213,2.213,0,0,0,2.213-2.213" transform="translate(-1.883 -15.858)" fill="#fff"/>
            <path id="Trazado_697535" data-name="Trazado 697535" d="M89.464,296.257a7.376,7.376,0,1,0-7.376,7.376,7.375,7.375,0,0,0,7.376-7.376" transform="translate(-4.025 -15.564)" fill="#263238"/>
            <path id="Trazado_697536" data-name="Trazado 697536" d="M84.595,296.551a2.213,2.213,0,1,0-2.213,2.213,2.213,2.213,0,0,0,2.213-2.213" transform="translate(-4.319 -15.858)" fill="#fff"/>
            <path id="Trazado_697537" data-name="Trazado 697537" d="M134.681,296.257a7.376,7.376,0,1,0-7.376,7.376,7.375,7.375,0,0,0,7.376-7.376" transform="translate(-6.461 -15.564)" fill="#263238"/>
            <path id="Trazado_697538" data-name="Trazado 697538" d="M129.812,296.551a2.213,2.213,0,1,0-2.213,2.213,2.213,2.213,0,0,0,2.213-2.213" transform="translate(-6.755 -15.858)" fill="#fff"/>
            <path id="Trazado_697539" data-name="Trazado 697539" d="M179.9,296.257a7.376,7.376,0,1,0-7.376,7.376,7.375,7.375,0,0,0,7.376-7.376" transform="translate(-8.897 -15.564)" fill="#263238"/>
            <path id="Trazado_697540" data-name="Trazado 697540" d="M175.029,296.551a2.213,2.213,0,1,0-2.213,2.213,2.213,2.213,0,0,0,2.213-2.213" transform="translate(-9.191 -15.858)" fill="#fff"/>
            <path id="Trazado_697541" data-name="Trazado 697541" d="M225.115,296.257a7.376,7.376,0,1,0-7.376,7.376,7.375,7.375,0,0,0,7.376-7.376" transform="translate(-11.334 -15.564)" fill="#263238"/>
            <path id="Trazado_697542" data-name="Trazado 697542" d="M220.246,296.551a2.213,2.213,0,1,0-2.213,2.213,2.213,2.213,0,0,0,2.213-2.213" transform="translate(-11.628 -15.858)" fill="#fff"/>
            <path id="Trazado_697543" data-name="Trazado 697543" d="M270.332,296.257a7.376,7.376,0,1,0-7.376,7.376,7.375,7.375,0,0,0,7.376-7.376" transform="translate(-13.77 -15.564)" fill="#263238"/>
            <path id="Trazado_697544" data-name="Trazado 697544" d="M265.463,296.551a2.213,2.213,0,1,0-2.213,2.213,2.213,2.213,0,0,0,2.213-2.213" transform="translate(-14.064 -15.858)" fill="#fff"/>
            <path id="Trazado_697545" data-name="Trazado 697545" d="M315.549,296.257a7.376,7.376,0,1,0-7.376,7.376,7.375,7.375,0,0,0,7.376-7.376" transform="translate(-16.206 -15.564)" fill="#263238"/>
            <path id="Trazado_697546" data-name="Trazado 697546" d="M310.68,296.551a2.213,2.213,0,1,0-2.213,2.213,2.213,2.213,0,0,0,2.213-2.213" transform="translate(-16.5 -15.858)" fill="#fff"/>
            <path id="Trazado_697547" data-name="Trazado 697547" d="M360.767,296.257a7.376,7.376,0,1,0-7.377,7.376,7.376,7.376,0,0,0,7.377-7.376" transform="translate(-18.642 -15.564)" fill="#263238"/>
            <path id="Trazado_697548" data-name="Trazado 697548" d="M355.9,296.551a2.213,2.213,0,1,0-2.213,2.213,2.213,2.213,0,0,0,2.213-2.213" transform="translate(-18.936 -15.858)" fill="#fff"/>
            <rect id="Rectángulo_339378" data-name="Rectángulo 339378" width="346.281" height="5.677" transform="translate(11.875 270.237)" fill="#263238"/>
            <rect id="Rectángulo_339379" data-name="Rectángulo 339379" width="346.281" height="5.677" transform="translate(11.875 270.237)" fill="none" stroke="#263238" stroke-linecap="round" stroke-linejoin="round" stroke-width="1"/>
            <line id="Línea_293" data-name="Línea 293" y1="5.517" transform="translate(19.443 270.246)" fill="none" stroke="#fff" stroke-linejoin="round" stroke-width="1"/>
            <line id="Línea_294" data-name="Línea 294" y1="5.517" transform="translate(32.689 270.246)" fill="none" stroke="#fff" stroke-linejoin="round" stroke-width="1"/>
            <line id="Línea_295" data-name="Línea 295" y1="5.517" transform="translate(45.935 270.246)" fill="none" stroke="#fff" stroke-linejoin="round" stroke-width="1"/>
            <line id="Línea_296" data-name="Línea 296" y1="5.517" transform="translate(59.181 270.246)" fill="none" stroke="#fff" stroke-linejoin="round" stroke-width="1"/>
            <line id="Línea_297" data-name="Línea 297" y1="5.517" transform="translate(72.426 270.246)" fill="none" stroke="#fff" stroke-linejoin="round" stroke-width="1"/>
            <line id="Línea_298" data-name="Línea 298" y1="5.517" transform="translate(85.672 270.246)" fill="none" stroke="#fff" stroke-linejoin="round" stroke-width="1"/>
            <line id="Línea_299" data-name="Línea 299" y1="5.517" transform="translate(98.918 270.246)" fill="none" stroke="#fff" stroke-linejoin="round" stroke-width="1"/>
            <line id="Línea_300" data-name="Línea 300" y1="5.517" transform="translate(112.163 270.246)" fill="none" stroke="#fff" stroke-linejoin="round" stroke-width="1"/>
            <line id="Línea_301" data-name="Línea 301" y1="5.517" transform="translate(125.409 270.246)" fill="none" stroke="#fff" stroke-linejoin="round" stroke-width="1"/>
            <line id="Línea_302" data-name="Línea 302" y1="5.517" transform="translate(138.655 270.246)" fill="none" stroke="#fff" stroke-linejoin="round" stroke-width="1"/>
            <line id="Línea_303" data-name="Línea 303" y2="5.517" transform="translate(151.901 270.246)" fill="none" stroke="#fff" stroke-linejoin="round" stroke-width="1"/>
            <line id="Línea_304" data-name="Línea 304" y1="5.517" transform="translate(165.146 270.246)" fill="none" stroke="#fff" stroke-linejoin="round" stroke-width="1"/>
            <line id="Línea_305" data-name="Línea 305" y1="5.517" transform="translate(178.392 270.246)" fill="none" stroke="#fff" stroke-linejoin="round" stroke-width="1"/>
            <line id="Línea_306" data-name="Línea 306" y1="5.517" transform="translate(191.638 270.246)" fill="none" stroke="#fff" stroke-linejoin="round" stroke-width="1"/>
            <line id="Línea_307" data-name="Línea 307" y1="5.517" transform="translate(204.884 270.246)" fill="none" stroke="#fff" stroke-linejoin="round" stroke-width="1"/>
            <line id="Línea_308" data-name="Línea 308" y1="5.517" transform="translate(218.129 270.246)" fill="none" stroke="#fff" stroke-linejoin="round" stroke-width="1"/>
            <line id="Línea_309" data-name="Línea 309" y1="5.517" transform="translate(231.375 270.246)" fill="none" stroke="#fff" stroke-linejoin="round" stroke-width="1"/>
            <line id="Línea_310" data-name="Línea 310" y1="5.517" transform="translate(244.621 270.246)" fill="none" stroke="#fff" stroke-linejoin="round" stroke-width="1"/>
            <line id="Línea_311" data-name="Línea 311" y1="5.517" transform="translate(257.866 270.246)" fill="none" stroke="#fff" stroke-linejoin="round" stroke-width="1"/>
            <line id="Línea_312" data-name="Línea 312" y1="5.517" transform="translate(271.112 270.246)" fill="none" stroke="#fff" stroke-linejoin="round" stroke-width="1"/>
            <line id="Línea_313" data-name="Línea 313" y1="5.517" transform="translate(284.358 270.246)" fill="none" stroke="#fff" stroke-linejoin="round" stroke-width="1"/>
            <line id="Línea_314" data-name="Línea 314" y1="5.517" transform="translate(297.604 270.246)" fill="none" stroke="#fff" stroke-linejoin="round" stroke-width="1"/>
            <line id="Línea_315" data-name="Línea 315" y1="5.517" transform="translate(310.849 270.246)" fill="none" stroke="#fff" stroke-linejoin="round" stroke-width="1"/>
            <line id="Línea_316" data-name="Línea 316" y1="5.517" transform="translate(324.095 270.246)" fill="none" stroke="#fff" stroke-linejoin="round" stroke-width="1"/>
            <line id="Línea_317" data-name="Línea 317" y1="5.517" transform="translate(337.341 270.246)" fill="none" stroke="#fff" stroke-linejoin="round" stroke-width="1"/>
            <line id="Línea_318" data-name="Línea 318" y1="5.517" transform="translate(350.587 270.246)" fill="none" stroke="#fff" stroke-linejoin="round" stroke-width="1"/>
            <rect id="Rectángulo_339380" data-name="Rectángulo 339380" width="346.281" height="5.677" transform="translate(11.875 286.322)" fill="#263238"/>
            <rect id="Rectángulo_339381" data-name="Rectángulo 339381" width="346.281" height="5.677" transform="translate(11.875 286.322)" fill="none" stroke="#263238" stroke-linecap="round" stroke-linejoin="round" stroke-width="1"/>
            <line id="Línea_319" data-name="Línea 319" y1="5.517" transform="translate(19.443 286.33)" fill="none" stroke="#fff" stroke-linejoin="round" stroke-width="1"/>
            <line id="Línea_320" data-name="Línea 320" y1="5.517" transform="translate(32.689 286.33)" fill="none" stroke="#fff" stroke-linejoin="round" stroke-width="1"/>
            <line id="Línea_321" data-name="Línea 321" y1="5.517" transform="translate(45.935 286.33)" fill="none" stroke="#fff" stroke-linejoin="round" stroke-width="1"/>
            <line id="Línea_322" data-name="Línea 322" y1="5.517" transform="translate(59.181 286.33)" fill="none" stroke="#fff" stroke-linejoin="round" stroke-width="1"/>
            <line id="Línea_323" data-name="Línea 323" y1="5.517" transform="translate(72.426 286.33)" fill="none" stroke="#fff" stroke-linejoin="round" stroke-width="1"/>
            <line id="Línea_324" data-name="Línea 324" y1="5.517" transform="translate(85.672 286.33)" fill="none" stroke="#fff" stroke-linejoin="round" stroke-width="1"/>
            <line id="Línea_325" data-name="Línea 325" y1="5.517" transform="translate(98.918 286.33)" fill="none" stroke="#fff" stroke-linejoin="round" stroke-width="1"/>
            <line id="Línea_326" data-name="Línea 326" y1="5.517" transform="translate(112.163 286.33)" fill="none" stroke="#fff" stroke-linejoin="round" stroke-width="1"/>
            <line id="Línea_327" data-name="Línea 327" y1="5.517" transform="translate(125.409 286.33)" fill="none" stroke="#fff" stroke-linejoin="round" stroke-width="1"/>
            <line id="Línea_328" data-name="Línea 328" y1="5.517" transform="translate(138.655 286.33)" fill="none" stroke="#fff" stroke-linejoin="round" stroke-width="1"/>
            <line id="Línea_329" data-name="Línea 329" y1="5.517" transform="translate(151.901 286.33)" fill="none" stroke="#fff" stroke-linejoin="round" stroke-width="1"/>
            <line id="Línea_330" data-name="Línea 330" y1="5.517" transform="translate(165.146 286.33)" fill="none" stroke="#fff" stroke-linejoin="round" stroke-width="1"/>
            <line id="Línea_331" data-name="Línea 331" y1="5.517" transform="translate(178.392 286.33)" fill="none" stroke="#fff" stroke-linejoin="round" stroke-width="1"/>
            <line id="Línea_332" data-name="Línea 332" y1="5.517" transform="translate(191.638 286.33)" fill="none" stroke="#fff" stroke-linejoin="round" stroke-width="1"/>
            <line id="Línea_333" data-name="Línea 333" y1="5.517" transform="translate(204.884 286.33)" fill="none" stroke="#fff" stroke-linejoin="round" stroke-width="1"/>
            <line id="Línea_334" data-name="Línea 334" y1="5.517" transform="translate(218.129 286.33)" fill="none" stroke="#fff" stroke-linejoin="round" stroke-width="1"/>
            <line id="Línea_335" data-name="Línea 335" y1="5.517" transform="translate(231.375 286.33)" fill="none" stroke="#fff" stroke-linejoin="round" stroke-width="1"/>
            <line id="Línea_336" data-name="Línea 336" y1="5.517" transform="translate(244.621 286.33)" fill="none" stroke="#fff" stroke-linejoin="round" stroke-width="1"/>
            <line id="Línea_337" data-name="Línea 337" y1="5.517" transform="translate(257.866 286.33)" fill="none" stroke="#fff" stroke-linejoin="round" stroke-width="1"/>
            <line id="Línea_338" data-name="Línea 338" y1="5.517" transform="translate(271.112 286.33)" fill="none" stroke="#fff" stroke-linejoin="round" stroke-width="1"/>
            <line id="Línea_339" data-name="Línea 339" y1="5.517" transform="translate(284.358 286.33)" fill="none" stroke="#fff" stroke-linejoin="round" stroke-width="1"/>
            <line id="Línea_340" data-name="Línea 340" y1="5.517" transform="translate(297.604 286.33)" fill="none" stroke="#fff" stroke-linejoin="round" stroke-width="1"/>
            <line id="Línea_341" data-name="Línea 341" y1="5.517" transform="translate(310.849 286.33)" fill="none" stroke="#fff" stroke-linejoin="round" stroke-width="1"/>
            <line id="Línea_342" data-name="Línea 342" y1="5.517" transform="translate(324.095 286.33)" fill="none" stroke="#fff" stroke-linejoin="round" stroke-width="1"/>
            <line id="Línea_343" data-name="Línea 343" y1="5.517" transform="translate(337.341 286.33)" fill="none" stroke="#fff" stroke-linejoin="round" stroke-width="1"/>
            <line id="Línea_344" data-name="Línea 344" y1="5.517" transform="translate(350.587 286.33)" fill="none" stroke="#fff" stroke-linejoin="round" stroke-width="1"/>
          </g>
        </g>
        <path id="Trazado_697549" data-name="Trazado 697549" d="M214.555,236.745H188.063V201.259h18.6l7.888,7.228Z" transform="translate(-10.132 -10.843)" fill="#fff"/>
        <path id="Trazado_697550" data-name="Trazado 697550" d="M214.555,236.745H188.063V201.259h18.6l7.888,7.228Z" transform="translate(-10.132 -10.843)" fill="none" stroke="#263238" stroke-linecap="round" stroke-linejoin="round" stroke-width="1"/>
        <path id="Trazado_697551" data-name="Trazado 697551" d="M207.727,201.259v7.228h7.888Z" transform="translate(-11.192 -10.843)" fill="#fff"/>
        <path id="Trazado_697552" data-name="Trazado 697552" d="M207.727,201.259v7.228h7.888Z" transform="translate(-11.192 -10.843)" fill="none" stroke="#263238" stroke-linecap="round" stroke-linejoin="round" stroke-width="1"/>
      </g>
    </g>
  </g>
</svg>
